%TF.GenerationSoftware,KiCad,Pcbnew,9.0.2+dfsg-1*%
%TF.CreationDate,2026-06-04T18:47:44-04:00*%
%TF.ProjectId,autofeeder,6175746f-6665-4656-9465-722e6b696361,rev?*%
%TF.SameCoordinates,Original*%
%TF.FileFunction,Copper,L2,Bot*%
%TF.FilePolarity,Positive*%
%FSLAX46Y46*%
G04 Gerber Fmt 4.6, Leading zero omitted, Abs format (unit mm)*
G04 Created by KiCad (PCBNEW 9.0.2+dfsg-1) date 2026-06-04 18:47:44*
%MOMM*%
%LPD*%
G01*
G04 APERTURE LIST*
G04 Aperture macros list*
%AMRoundRect*
0 Rectangle with rounded corners*
0 $1 Rounding radius*
0 $2 $3 $4 $5 $6 $7 $8 $9 X,Y pos of 4 corners*
0 Add a 4 corners polygon primitive as box body*
4,1,4,$2,$3,$4,$5,$6,$7,$8,$9,$2,$3,0*
0 Add four circle primitives for the rounded corners*
1,1,$1+$1,$2,$3*
1,1,$1+$1,$4,$5*
1,1,$1+$1,$6,$7*
1,1,$1+$1,$8,$9*
0 Add four rect primitives between the rounded corners*
20,1,$1+$1,$2,$3,$4,$5,0*
20,1,$1+$1,$4,$5,$6,$7,0*
20,1,$1+$1,$6,$7,$8,$9,0*
20,1,$1+$1,$8,$9,$2,$3,0*%
G04 Aperture macros list end*
%TA.AperFunction,ComponentPad*%
%ADD10C,1.100000*%
%TD*%
%TA.AperFunction,ComponentPad*%
%ADD11R,1.100000X1.100000*%
%TD*%
%TA.AperFunction,SMDPad,CuDef*%
%ADD12RoundRect,0.200000X0.200000X0.275000X-0.200000X0.275000X-0.200000X-0.275000X0.200000X-0.275000X0*%
%TD*%
%TA.AperFunction,SMDPad,CuDef*%
%ADD13RoundRect,0.150000X0.825000X0.150000X-0.825000X0.150000X-0.825000X-0.150000X0.825000X-0.150000X0*%
%TD*%
%TA.AperFunction,ComponentPad*%
%ADD14R,1.700000X1.700000*%
%TD*%
%TA.AperFunction,ComponentPad*%
%ADD15C,1.700000*%
%TD*%
%TA.AperFunction,SMDPad,CuDef*%
%ADD16RoundRect,0.162500X0.617500X0.162500X-0.617500X0.162500X-0.617500X-0.162500X0.617500X-0.162500X0*%
%TD*%
%TA.AperFunction,SMDPad,CuDef*%
%ADD17RoundRect,0.225000X0.225000X0.250000X-0.225000X0.250000X-0.225000X-0.250000X0.225000X-0.250000X0*%
%TD*%
%TA.AperFunction,SMDPad,CuDef*%
%ADD18RoundRect,0.218750X0.218750X0.256250X-0.218750X0.256250X-0.218750X-0.256250X0.218750X-0.256250X0*%
%TD*%
%TA.AperFunction,SMDPad,CuDef*%
%ADD19R,0.600000X1.450000*%
%TD*%
%TA.AperFunction,SMDPad,CuDef*%
%ADD20R,0.300000X1.450000*%
%TD*%
%TA.AperFunction,HeatsinkPad*%
%ADD21O,1.000000X1.600000*%
%TD*%
%TA.AperFunction,HeatsinkPad*%
%ADD22O,1.000000X2.100000*%
%TD*%
%TA.AperFunction,ComponentPad*%
%ADD23RoundRect,0.250000X0.750000X-0.600000X0.750000X0.600000X-0.750000X0.600000X-0.750000X-0.600000X0*%
%TD*%
%TA.AperFunction,ComponentPad*%
%ADD24O,2.000000X1.700000*%
%TD*%
%TA.AperFunction,ComponentPad*%
%ADD25RoundRect,0.249999X0.850001X0.850001X-0.850001X0.850001X-0.850001X-0.850001X0.850001X-0.850001X0*%
%TD*%
%TA.AperFunction,ComponentPad*%
%ADD26C,2.200000*%
%TD*%
%TA.AperFunction,SMDPad,CuDef*%
%ADD27RoundRect,0.218750X0.218750X0.381250X-0.218750X0.381250X-0.218750X-0.381250X0.218750X-0.381250X0*%
%TD*%
%TA.AperFunction,SMDPad,CuDef*%
%ADD28RoundRect,0.250000X0.250000X0.475000X-0.250000X0.475000X-0.250000X-0.475000X0.250000X-0.475000X0*%
%TD*%
%TA.AperFunction,SMDPad,CuDef*%
%ADD29RoundRect,0.062500X0.350000X0.062500X-0.350000X0.062500X-0.350000X-0.062500X0.350000X-0.062500X0*%
%TD*%
%TA.AperFunction,HeatsinkPad*%
%ADD30R,1.200000X2.000000*%
%TD*%
%TA.AperFunction,SMDPad,CuDef*%
%ADD31RoundRect,0.250000X0.312500X1.450000X-0.312500X1.450000X-0.312500X-1.450000X0.312500X-1.450000X0*%
%TD*%
%TA.AperFunction,ComponentPad*%
%ADD32C,1.400000*%
%TD*%
%TA.AperFunction,ViaPad*%
%ADD33C,0.600000*%
%TD*%
%TA.AperFunction,Conductor*%
%ADD34C,0.200000*%
%TD*%
%TA.AperFunction,Conductor*%
%ADD35C,0.300000*%
%TD*%
G04 APERTURE END LIST*
D10*
%TO.P,DISP1,1*%
%TO.N,/VCC_3V3*%
X22920000Y-13000000D03*
D11*
%TO.P,DISP1,2*%
%TO.N,GND*%
X20380000Y-13000000D03*
D10*
%TO.P,DISP1,3*%
%TO.N,/DISP_CS*%
X35620000Y-13000000D03*
%TO.P,DISP1,4*%
%TO.N,/DISP_DC*%
X33080000Y-13000000D03*
%TO.P,DISP1,5*%
%TO.N,/DISP_RST*%
X30540000Y-13000000D03*
%TO.P,DISP1,6*%
%TO.N,/DISP_SCK*%
X25460000Y-13000000D03*
%TO.P,DISP1,7*%
%TO.N,/DISP_MOSI*%
X28000000Y-13000000D03*
%TD*%
D12*
%TO.P,R5,1*%
%TO.N,/CAN_H*%
X48825000Y-46000000D03*
%TO.P,R5,2*%
%TO.N,/CAN_L*%
X47175000Y-46000000D03*
%TD*%
%TO.P,R2_C1,1*%
%TO.N,/PROG*%
X16825000Y-22000000D03*
%TO.P,R2_C1,2*%
%TO.N,GND*%
X15175000Y-22000000D03*
%TD*%
D13*
%TO.P,U6,1*%
%TO.N,/CAN_TX*%
X43475000Y-43095000D03*
%TO.P,U6,2*%
%TO.N,GND*%
X43475000Y-44365000D03*
%TO.P,U6,3*%
%TO.N,/VCC_3V3*%
X43475000Y-45635000D03*
%TO.P,U6,4*%
%TO.N,/CAN_RX*%
X43475000Y-46905000D03*
%TO.P,U6,5*%
%TO.N,/VREF_NC*%
X38525000Y-46905000D03*
%TO.P,U6,6*%
%TO.N,/CAN_L*%
X38525000Y-45635000D03*
%TO.P,U6,7*%
%TO.N,/CAN_H*%
X38525000Y-44365000D03*
%TO.P,U6,8*%
%TO.N,/RS_NC*%
X38525000Y-43095000D03*
%TD*%
D14*
%TO.P,J4,1*%
%TO.N,/VCC_3V3*%
X53000000Y-37000000D03*
D15*
%TO.P,J4,2*%
%TO.N,unconnected-(J4-Pin_2-Pad2)*%
X53000000Y-39540000D03*
%TO.P,J4,3*%
%TO.N,unconnected-(J4-Pin_3-Pad3)*%
X53000000Y-42080000D03*
%TO.P,J4,4*%
%TO.N,GND*%
X53000000Y-44620000D03*
%TD*%
D16*
%TO.P,U8,1*%
%TO.N,/OD_GATE*%
X20350000Y-34050000D03*
%TO.P,U8,2*%
%TO.N,/BATT_N*%
X20350000Y-35000000D03*
%TO.P,U8,3*%
X20350000Y-35950000D03*
%TO.P,U8,4*%
%TO.N,/OC_GATE*%
X17650000Y-35950000D03*
%TO.P,U8,5*%
%TO.N,GND*%
X17650000Y-35000000D03*
%TO.P,U8,6*%
%TO.N,unconnected-(U8-NC-Pad6)*%
X17650000Y-34050000D03*
%TD*%
D17*
%TO.P,C1,1*%
%TO.N,/VCC_3V3*%
X40775000Y-23000000D03*
%TO.P,C1,2*%
%TO.N,GND*%
X39225000Y-23000000D03*
%TD*%
D18*
%TO.P,LED_CHG1,1*%
%TO.N,/CHRG_L*%
X8787500Y-22000000D03*
%TO.P,LED_CHG1,2*%
%TO.N,GND*%
X7212500Y-22000000D03*
%TD*%
D16*
%TO.P,U3,1*%
%TO.N,/OD_GATE*%
X11350000Y-27050000D03*
%TO.P,U3,2*%
%TO.N,/BATT_N*%
X11350000Y-28000000D03*
%TO.P,U3,3*%
%TO.N,/OC_GATE*%
X11350000Y-28950000D03*
%TO.P,U3,4*%
%TO.N,unconnected-(U3-TD-Pad4)*%
X8650000Y-28950000D03*
%TO.P,U3,5*%
%TO.N,/BATT_CHG*%
X8650000Y-28000000D03*
%TO.P,U3,6*%
%TO.N,/BATT_N*%
X8650000Y-27050000D03*
%TD*%
D14*
%TO.P,J_RTC1,1*%
%TO.N,/VCC_3V3*%
X28000000Y-36000000D03*
D15*
%TO.P,J_RTC1,2*%
%TO.N,GND*%
X28000000Y-38540000D03*
%TO.P,J_RTC1,3*%
%TO.N,/I2C_SDA*%
X28000000Y-41080000D03*
%TO.P,J_RTC1,4*%
%TO.N,/I2C_SCL*%
X28000000Y-43620000D03*
%TD*%
D19*
%TO.P,J3,A1*%
%TO.N,GND*%
X33250000Y-47455000D03*
%TO.P,J3,A4*%
%TO.N,/VBUS*%
X32450000Y-47455000D03*
D20*
%TO.P,J3,A5*%
%TO.N,/CC1*%
X31250000Y-47455000D03*
%TO.P,J3,A6*%
%TO.N,unconnected-(J3-D+-PadA6)*%
X30250000Y-47455000D03*
%TO.P,J3,A7*%
%TO.N,unconnected-(J3-D--PadA7)*%
X29750000Y-47455000D03*
%TO.P,J3,A8*%
%TO.N,/CAN_H_PROT*%
X28750000Y-47455000D03*
D19*
%TO.P,J3,A9*%
%TO.N,/VBUS*%
X27550000Y-47455000D03*
%TO.P,J3,A12*%
%TO.N,GND*%
X26750000Y-47455000D03*
%TO.P,J3,B1*%
X26750000Y-47455000D03*
%TO.P,J3,B4*%
%TO.N,/VBUS*%
X27550000Y-47455000D03*
D20*
%TO.P,J3,B5*%
%TO.N,/CC2*%
X28250000Y-47455000D03*
%TO.P,J3,B6*%
%TO.N,unconnected-(J3-D+-PadB6)*%
X29250000Y-47455000D03*
%TO.P,J3,B7*%
%TO.N,unconnected-(J3-D--PadB7)*%
X30750000Y-47455000D03*
%TO.P,J3,B8*%
%TO.N,/CAN_L_PROT*%
X31750000Y-47455000D03*
D19*
%TO.P,J3,B9*%
%TO.N,/VBUS*%
X32450000Y-47455000D03*
%TO.P,J3,B12*%
%TO.N,GND*%
X33250000Y-47455000D03*
D21*
%TO.P,J3,S1*%
X34320000Y-52550000D03*
D22*
X34320000Y-48370000D03*
D21*
X25680000Y-52550000D03*
D22*
X25680000Y-48370000D03*
%TD*%
D23*
%TO.P,J1,1*%
%TO.N,/BATT_P*%
X52000000Y-30000000D03*
D24*
%TO.P,J1,2*%
%TO.N,/BATT_N*%
X52000000Y-27500000D03*
%TD*%
D25*
%TO.P,D1,1*%
%TO.N,/BATT_PROT*%
X16000000Y-18500000D03*
D26*
%TO.P,D1,2*%
%TO.N,/BATT_N*%
X5840000Y-18500000D03*
%TD*%
D27*
%TO.P,L1,1*%
%TO.N,/L1_NODE*%
X7062500Y-36000000D03*
%TO.P,L1,2*%
%TO.N,/L2_NODE*%
X4937500Y-36000000D03*
%TD*%
D13*
%TO.P,U5,1*%
%TO.N,/MOTOR_IN1*%
X38475000Y-36095000D03*
%TO.P,U5,2*%
%TO.N,/MOTOR_IN2*%
X38475000Y-37365000D03*
%TO.P,U5,3*%
%TO.N,/VREF_NC*%
X38475000Y-38635000D03*
%TO.P,U5,4*%
%TO.N,/IPROPI_NC*%
X38475000Y-39905000D03*
%TO.P,U5,5*%
%TO.N,GND*%
X33525000Y-39905000D03*
%TO.P,U5,6*%
%TO.N,/BATT_PROT*%
X33525000Y-38635000D03*
%TO.P,U5,7*%
%TO.N,/M1_P*%
X33525000Y-37365000D03*
%TO.P,U5,8*%
%TO.N,/M1_N*%
X33525000Y-36095000D03*
%TD*%
D12*
%TO.P,R10,1*%
%TO.N,/CAN_L*%
X46825000Y-50000000D03*
%TO.P,R10,2*%
%TO.N,/CAN_L_PROT*%
X45175000Y-50000000D03*
%TD*%
D23*
%TO.P,J2,1*%
%TO.N,/M1_P*%
X52000000Y-16000000D03*
D24*
%TO.P,J2,2*%
%TO.N,/M1_N*%
X52000000Y-13500000D03*
%TD*%
D28*
%TO.P,C4,1*%
%TO.N,/BATT_PROT*%
X12950000Y-42000000D03*
%TO.P,C4,2*%
%TO.N,GND*%
X11050000Y-42000000D03*
%TD*%
%TO.P,C5,1*%
%TO.N,/VCC_3V3*%
X20950000Y-42000000D03*
%TO.P,C5,2*%
%TO.N,GND*%
X19050000Y-42000000D03*
%TD*%
D12*
%TO.P,R4,1*%
%TO.N,/BAT_MON*%
X11825000Y-50000000D03*
%TO.P,R4,2*%
%TO.N,GND*%
X10175000Y-50000000D03*
%TD*%
%TO.P,R3,1*%
%TO.N,/BATT_PROT*%
X11825000Y-46000000D03*
%TO.P,R3,2*%
%TO.N,/BAT_MON*%
X10175000Y-46000000D03*
%TD*%
D13*
%TO.P,U2,1*%
%TO.N,/CHRG_L*%
X16475000Y-12095000D03*
%TO.P,U2,2*%
%TO.N,/PROG*%
X16475000Y-13365000D03*
%TO.P,U2,3*%
%TO.N,GND*%
X16475000Y-14635000D03*
%TO.P,U2,4*%
%TO.N,/VBUS*%
X16475000Y-15905000D03*
%TO.P,U2,5*%
%TO.N,/BATT_CHG*%
X11525000Y-15905000D03*
%TO.P,U2,6*%
%TO.N,/TEMP_NC*%
X11525000Y-14635000D03*
%TO.P,U2,7*%
%TO.N,/VBUS*%
X11525000Y-13365000D03*
%TO.P,U2,8*%
%TO.N,/STDBY_L*%
X11525000Y-12095000D03*
%TD*%
D17*
%TO.P,C6,1*%
%TO.N,/VCC_3V3*%
X46775000Y-40000000D03*
%TO.P,C6,2*%
%TO.N,GND*%
X45225000Y-40000000D03*
%TD*%
D12*
%TO.P,R6,1*%
%TO.N,/CAN_H*%
X42825000Y-49000000D03*
%TO.P,R6,2*%
%TO.N,/CAN_H_PROT*%
X41175000Y-49000000D03*
%TD*%
D17*
%TO.P,C3,1*%
%TO.N,/VCC_3V3*%
X35775000Y-33000000D03*
%TO.P,C3,2*%
%TO.N,GND*%
X34225000Y-33000000D03*
%TD*%
D29*
%TO.P,U4,1*%
%TO.N,/VCC_3V3*%
X14212500Y-35000000D03*
%TO.P,U4,2*%
%TO.N,/L2_NODE*%
X14212500Y-35500000D03*
%TO.P,U4,3*%
%TO.N,GND*%
X14212500Y-36000000D03*
%TO.P,U4,4*%
%TO.N,/L1_NODE*%
X14212500Y-36500000D03*
%TO.P,U4,5*%
%TO.N,/BATT_PROT*%
X14212500Y-37000000D03*
%TO.P,U4,6*%
X11787500Y-37000000D03*
%TO.P,U4,7*%
%TO.N,GND*%
X11787500Y-36500000D03*
%TO.P,U4,8*%
%TO.N,/BATT_PROT*%
X11787500Y-36000000D03*
%TO.P,U4,9*%
%TO.N,GND*%
X11787500Y-35500000D03*
%TO.P,U4,10*%
%TO.N,/VCC_3V3*%
X11787500Y-35000000D03*
D30*
%TO.P,U4,11*%
%TO.N,N/C*%
X13000000Y-36000000D03*
%TD*%
D28*
%TO.P,C2,1*%
%TO.N,/VCC_3V3*%
X40950000Y-26000000D03*
%TO.P,C2,2*%
%TO.N,GND*%
X39050000Y-26000000D03*
%TD*%
D31*
%TO.P,F1,1*%
%TO.N,/BATT_P*%
X9137500Y-13000000D03*
%TO.P,F1,2*%
%TO.N,/BATT_PROT*%
X4862500Y-13000000D03*
%TD*%
D14*
%TO.P,J_GPS1,1*%
%TO.N,/VCC_3V3*%
X44000000Y-14000000D03*
D15*
%TO.P,J_GPS1,2*%
%TO.N,GND*%
X44000000Y-16540000D03*
%TO.P,J_GPS1,3*%
%TO.N,/GPS_RX*%
X44000000Y-19080000D03*
%TO.P,J_GPS1,4*%
%TO.N,/GPS_TX*%
X44000000Y-21620000D03*
%TD*%
D12*
%TO.P,R13,1*%
%TO.N,/VCC_3V3*%
X44825000Y-8000000D03*
%TO.P,R13,2*%
%TO.N,/DISP_RST*%
X43175000Y-8000000D03*
%TD*%
%TO.P,R_CC1,1*%
%TO.N,/CC1*%
X28825000Y-3500000D03*
%TO.P,R_CC1,2*%
%TO.N,GND*%
X27175000Y-3500000D03*
%TD*%
%TO.P,R_CC2,1*%
%TO.N,/CC2*%
X34825000Y-3500000D03*
%TO.P,R_CC2,2*%
%TO.N,GND*%
X33175000Y-3500000D03*
%TD*%
D11*
%TO.P,U1,1*%
%TO.N,unconnected-(U1-5V-Pad1)*%
X36890000Y-28160000D03*
D10*
%TO.P,U1,2*%
%TO.N,GND*%
X36890000Y-25620000D03*
%TO.P,U1,3*%
%TO.N,/VCC_3V3*%
X36890000Y-23080000D03*
%TO.P,U1,4*%
%TO.N,/BUTTON_POWER*%
X36890000Y-20540000D03*
%TO.P,U1,5*%
%TO.N,/BUTTON_TIMER*%
X36890000Y-18000000D03*
%TO.P,U1,6*%
%TO.N,/BUTTON_MANUAL*%
X36890000Y-15460000D03*
%TO.P,U1,7*%
%TO.N,/BUTTON_SETTINGS*%
X36890000Y-12920000D03*
%TO.P,U1,8*%
%TO.N,/BUTTON_UP*%
X36890000Y-10380000D03*
%TO.P,U1,9*%
%TO.N,/BUTTON_DOWN*%
X36890000Y-7840000D03*
%TO.P,U1,10*%
%TO.N,/MOTOR_IN1*%
X19110000Y-28160000D03*
%TO.P,U1,11*%
%TO.N,/MOTOR_IN2*%
X19110000Y-25620000D03*
%TO.P,U1,12*%
%TO.N,/DISP_SCK*%
X19110000Y-23080000D03*
%TO.P,U1,13*%
%TO.N,/DISP_MOSI*%
X19110000Y-20540000D03*
%TO.P,U1,14*%
%TO.N,/DISP_CS*%
X19110000Y-18000000D03*
%TO.P,U1,15*%
%TO.N,unconnected-(U1-GP19-Pad15)*%
X19110000Y-15460000D03*
%TO.P,U1,16*%
%TO.N,unconnected-(U1-GP20-Pad16)*%
X19110000Y-12920000D03*
%TO.P,U1,17*%
%TO.N,/CAN_TX*%
X19110000Y-10380000D03*
%TO.P,U1,18*%
%TO.N,/CAN_RX*%
X19110000Y-7840000D03*
D32*
%TO.P,U1,19*%
%TO.N,/I2C_SDA*%
X35620000Y-30700000D03*
%TO.P,U1,20*%
%TO.N,/DISP_DC*%
X33080000Y-30700000D03*
%TO.P,U1,21*%
%TO.N,/I2C_SCL*%
X30540000Y-30700000D03*
%TO.P,U1,22*%
%TO.N,unconnected-(U1-GP9{slash}BOOT-Pad22)*%
X28000000Y-30700000D03*
%TO.P,U1,23*%
%TO.N,/GPS_RX*%
X25460000Y-30700000D03*
%TO.P,U1,24*%
%TO.N,/GPS_TX*%
X22920000Y-30700000D03*
%TO.P,U1,25*%
%TO.N,/BAT_MON*%
X20380000Y-30700000D03*
%TD*%
D33*
%TO.N,/BATT_N*%
X24085400Y-31744400D03*
%TO.N,/BATT_PROT*%
X31443500Y-37816000D03*
X14212500Y-39685700D03*
X4117500Y-15326200D03*
%TO.N,/BAT_MON*%
X12001500Y-38284600D03*
%TO.N,/BUTTON_DOWN*%
X49579800Y-35708300D03*
%TO.N,/BUTTON_UP*%
X29336000Y-41322800D03*
%TO.N,/CAN_TX*%
X26659700Y-31744400D03*
X46043700Y-32704700D03*
%TO.N,/CC1*%
X30540000Y-45087000D03*
X30685900Y-49071300D03*
%TO.N,/M1_N*%
X31897300Y-28670600D03*
%TO.N,/M1_P*%
X34988100Y-37756700D03*
%TO.N,/MOTOR_IN1*%
X34574200Y-34189400D03*
%TO.N,/MOTOR_IN2*%
X32148900Y-32751200D03*
%TO.N,/VBUS*%
X29783700Y-32199500D03*
X23335200Y-32183800D03*
%TO.N,/VCC_3V3*%
X34976900Y-31985200D03*
%TO.N,GND*%
X11050000Y-43835300D03*
X40578400Y-7878400D03*
X31258500Y-43800000D03*
X28000100Y-7589400D03*
%TD*%
D34*
%TO.N,/BATT_CHG*%
X4478900Y-24309700D02*
X4478900Y-17879600D01*
X4478900Y-17879600D02*
X6453500Y-15905000D01*
X8169200Y-28000000D02*
X4478900Y-24309700D01*
X8650000Y-28000000D02*
X8169200Y-28000000D01*
X6453500Y-15905000D02*
X11525000Y-15905000D01*
%TO.N,/BATT_N*%
X20350000Y-35950000D02*
X20350000Y-35000000D01*
X19175000Y-34170500D02*
X19175000Y-34309600D01*
X5840000Y-24240000D02*
X8650000Y-27050000D01*
X21299200Y-35000000D02*
X24085400Y-32213800D01*
X19865400Y-35000000D02*
X20350000Y-35000000D01*
X19175000Y-34309600D02*
X19865400Y-35000000D01*
X13004500Y-28000000D02*
X19175000Y-34170500D01*
X24085400Y-32213800D02*
X24085400Y-31744400D01*
X8650000Y-27050000D02*
X9457900Y-27050000D01*
X11350000Y-28000000D02*
X13004500Y-28000000D01*
X10407900Y-28000000D02*
X11350000Y-28000000D01*
X9457900Y-27050000D02*
X10407900Y-28000000D01*
X5840000Y-18500000D02*
X5840000Y-24240000D01*
X20350000Y-35000000D02*
X21299200Y-35000000D01*
%TO.N,/BATT_P*%
X20004900Y-2016100D02*
X9137500Y-12883500D01*
X46855000Y-24855000D02*
X46855000Y-7367200D01*
X46855000Y-7367200D02*
X41503900Y-2016100D01*
X52000000Y-30000000D02*
X46855000Y-24855000D01*
X9137500Y-12883500D02*
X9137500Y-13000000D01*
X41503900Y-2016100D02*
X20004900Y-2016100D01*
%TO.N,/BATT_PROT*%
X9109300Y-50085300D02*
X9109300Y-36519400D01*
X9628700Y-36000000D02*
X11787500Y-36000000D01*
X12950000Y-38162500D02*
X11787500Y-37000000D01*
X12950000Y-42000000D02*
X12950000Y-44875000D01*
X32262500Y-38635000D02*
X31443500Y-37816000D01*
X33525000Y-38635000D02*
X32262500Y-38635000D01*
X9804200Y-50780200D02*
X9109300Y-50085300D01*
X13050000Y-38162500D02*
X12950000Y-38162500D01*
X4117500Y-13745000D02*
X4117500Y-15326200D01*
X14212500Y-37000000D02*
X14212500Y-39685700D01*
X11825000Y-46000000D02*
X12511800Y-46686800D01*
X14212500Y-37000000D02*
X13050000Y-38162500D01*
X4862500Y-13000000D02*
X4117500Y-13745000D01*
X4117500Y-30488800D02*
X9628700Y-36000000D01*
X12222700Y-50780200D02*
X9804200Y-50780200D01*
X12950000Y-44875000D02*
X11825000Y-46000000D01*
X4117500Y-15326200D02*
X4117500Y-30488800D01*
X12950000Y-38162500D02*
X12950000Y-42000000D01*
X9109300Y-36519400D02*
X9628700Y-36000000D01*
X12511800Y-50491100D02*
X12222700Y-50780200D01*
X12511800Y-46686800D02*
X12511800Y-50491100D01*
%TO.N,/BAT_MON*%
X10175000Y-46000000D02*
X10175000Y-48350000D01*
X12001500Y-44173500D02*
X12001500Y-38284600D01*
X10175000Y-48350000D02*
X11825000Y-50000000D01*
X10175000Y-46000000D02*
X12001500Y-44173500D01*
%TO.N,/BUTTON_DOWN*%
X45799900Y-27721600D02*
X45799900Y-7804200D01*
X45799900Y-7804200D02*
X45228700Y-7233000D01*
X45228700Y-7233000D02*
X37497000Y-7233000D01*
X37497000Y-7233000D02*
X36890000Y-7840000D01*
X49579800Y-35708300D02*
X49579800Y-31501500D01*
X49579800Y-31501500D02*
X45799900Y-27721600D01*
%TO.N,/BUTTON_UP*%
X29232000Y-12673700D02*
X29232000Y-41218800D01*
X29232000Y-41218800D02*
X29336000Y-41322800D01*
X31525700Y-10380000D02*
X29232000Y-12673700D01*
X36890000Y-10380000D02*
X31525700Y-10380000D01*
%TO.N,/CAN_H*%
X45953200Y-49609700D02*
X45343500Y-49000000D01*
X46442200Y-50733900D02*
X45953200Y-50244900D01*
X48825000Y-46000000D02*
X48825000Y-49161500D01*
X36895800Y-47332100D02*
X36895800Y-45710300D01*
X42825000Y-49000000D02*
X41656700Y-47831700D01*
X37395400Y-47831700D02*
X36895800Y-47332100D01*
X47252600Y-50733900D02*
X46442200Y-50733900D01*
X41656700Y-47831700D02*
X37395400Y-47831700D01*
X45343500Y-49000000D02*
X42825000Y-49000000D01*
X48825000Y-49161500D02*
X47252600Y-50733900D01*
X36895800Y-45710300D02*
X38241100Y-44365000D01*
X45953200Y-50244900D02*
X45953200Y-49609700D01*
X38241100Y-44365000D02*
X38525000Y-44365000D01*
%TO.N,/CAN_H_PROT*%
X28750000Y-48431700D02*
X30409100Y-50090800D01*
X40084200Y-50090800D02*
X41175000Y-49000000D01*
X30409100Y-50090800D02*
X40084200Y-50090800D01*
X28750000Y-47455000D02*
X28750000Y-48431700D01*
%TO.N,/CAN_L*%
X46303400Y-47480000D02*
X46303400Y-46871600D01*
X46303400Y-46871600D02*
X47175000Y-46000000D01*
X46825000Y-50000000D02*
X46825000Y-48001600D01*
X37247500Y-46593000D02*
X38205500Y-45635000D01*
X46303400Y-47480000D02*
X37541000Y-47480000D01*
X37247500Y-47186500D02*
X37247500Y-46593000D01*
X38205500Y-45635000D02*
X38525000Y-45635000D01*
X37541000Y-47480000D02*
X37247500Y-47186500D01*
X46825000Y-48001600D02*
X46303400Y-47480000D01*
%TO.N,/CAN_L_PROT*%
X40745300Y-48227900D02*
X41536700Y-48227900D01*
X42708300Y-50000000D02*
X45175000Y-50000000D01*
X42000000Y-49291700D02*
X42708300Y-50000000D01*
X39241100Y-49732100D02*
X40745300Y-48227900D01*
X31750000Y-48947700D02*
X32534400Y-49732100D01*
X32534400Y-49732100D02*
X39241100Y-49732100D01*
X41536700Y-48227900D02*
X42000000Y-48691200D01*
X42000000Y-48691200D02*
X42000000Y-49291700D01*
X31750000Y-47455000D02*
X31750000Y-48947700D01*
%TO.N,/CAN_RX*%
X45132700Y-46905000D02*
X43475000Y-46905000D01*
X46151600Y-27576000D02*
X54101700Y-35526100D01*
X53470600Y-45747000D02*
X52372800Y-45747000D01*
X46767000Y-45270700D02*
X45132700Y-46905000D01*
X19110000Y-7840000D02*
X24582200Y-2367800D01*
X33191900Y-2367800D02*
X34000000Y-3175900D01*
X54101700Y-45115900D02*
X53470600Y-45747000D01*
X46151600Y-7658500D02*
X46151600Y-27576000D01*
X36739100Y-6530000D02*
X45023100Y-6530000D01*
X52372800Y-45747000D02*
X51896500Y-45270700D01*
X51896500Y-45270700D02*
X46767000Y-45270700D01*
X34000000Y-3175900D02*
X34000000Y-3790900D01*
X24582200Y-2367800D02*
X33191900Y-2367800D01*
X45023100Y-6530000D02*
X46151600Y-7658500D01*
X34000000Y-3790900D02*
X36739100Y-6530000D01*
X54101700Y-35526100D02*
X54101700Y-45115900D01*
%TO.N,/CAN_TX*%
X21833100Y-12980100D02*
X21833100Y-25034800D01*
X44500000Y-44966400D02*
X42459800Y-44966400D01*
X21833100Y-25034800D02*
X26548100Y-29749800D01*
X19110000Y-10380000D02*
X19233000Y-10380000D01*
X26548100Y-31632800D02*
X26659700Y-31744400D01*
X46043700Y-32704700D02*
X46043700Y-43422700D01*
X19233000Y-10380000D02*
X21833100Y-12980100D01*
X26548100Y-29749800D02*
X26548100Y-31632800D01*
X43143600Y-43095000D02*
X43475000Y-43095000D01*
X42459800Y-44966400D02*
X42232000Y-44738600D01*
X42232000Y-44738600D02*
X42232000Y-44006600D01*
X42232000Y-44006600D02*
X43143600Y-43095000D01*
X46043700Y-43422700D02*
X44500000Y-44966400D01*
%TO.N,/CC1*%
X31509700Y-31484500D02*
X31509700Y-29969800D01*
X37721100Y-10694300D02*
X37721100Y-10067900D01*
X29728600Y-28188700D02*
X29728600Y-12674400D01*
X37721100Y-10067900D02*
X36708900Y-9055700D01*
X34380700Y-9055700D02*
X28825000Y-3500000D01*
X30687100Y-44939900D02*
X30687100Y-32307100D01*
X37233700Y-11181700D02*
X37721100Y-10694300D01*
X31509700Y-29969800D02*
X29728600Y-28188700D01*
X30685900Y-49071300D02*
X31250000Y-48507200D01*
X31250000Y-48507200D02*
X31250000Y-47455000D01*
X36708900Y-9055700D02*
X34380700Y-9055700D01*
X30540000Y-45087000D02*
X30687100Y-44939900D01*
X30687100Y-32307100D02*
X31509700Y-31484500D01*
X31221300Y-11181700D02*
X37233700Y-11181700D01*
X29728600Y-12674400D02*
X31221300Y-11181700D01*
%TO.N,/CC2*%
X28250000Y-47455000D02*
X28250000Y-48470000D01*
X42490500Y-3500000D02*
X34825000Y-3500000D01*
X48582400Y-51132500D02*
X54453400Y-45261500D01*
X54453400Y-35380500D02*
X46503300Y-27430400D01*
X54453400Y-45261500D02*
X54453400Y-35380500D01*
X46503300Y-27430400D02*
X46503300Y-7512800D01*
X46503300Y-7512800D02*
X42490500Y-3500000D01*
X28250000Y-48470000D02*
X30912500Y-51132500D01*
X30912500Y-51132500D02*
X48582400Y-51132500D01*
%TO.N,/CHRG_L*%
X16475000Y-12095000D02*
X15675100Y-12095000D01*
X13455000Y-14315100D02*
X13455000Y-17332500D01*
X15675100Y-12095000D02*
X13455000Y-14315100D01*
X13455000Y-17332500D02*
X8787500Y-22000000D01*
%TO.N,/DISP_DC*%
X33080000Y-30700000D02*
X33080000Y-13000000D01*
%TO.N,/DISP_RST*%
X30540000Y-13000000D02*
X31948900Y-11591100D01*
X31948900Y-11591100D02*
X39584000Y-11591100D01*
X39584000Y-11591000D02*
X43175000Y-8000000D01*
X39584000Y-11591100D02*
X39584000Y-11591000D01*
%TO.N,/I2C_SCL*%
X30335400Y-30904600D02*
X30540000Y-30700000D01*
X28497300Y-43620000D02*
X30335400Y-41781900D01*
X30335400Y-41781900D02*
X30335400Y-30904600D01*
X28000000Y-43620000D02*
X28497300Y-43620000D01*
%TO.N,/L1_NODE*%
X14574300Y-36500000D02*
X14876900Y-36802600D01*
X12368300Y-51131900D02*
X9658600Y-51131900D01*
X9658600Y-51131900D02*
X8725100Y-50198400D01*
X14876900Y-36802600D02*
X14876900Y-48623300D01*
X14876900Y-48623300D02*
X12368300Y-51131900D01*
X14212500Y-36500000D02*
X14574300Y-36500000D01*
X8725100Y-50198400D02*
X8725100Y-37662600D01*
X8725100Y-37662600D02*
X7062500Y-36000000D01*
%TO.N,/M1_N*%
X31597200Y-34167200D02*
X31597200Y-32155200D01*
X31597200Y-32155200D02*
X31897300Y-31855100D01*
X33525000Y-36095000D02*
X31597200Y-34167200D01*
X31897300Y-31855100D02*
X31897300Y-28670600D01*
%TO.N,/M1_P*%
X34596400Y-37365000D02*
X33525000Y-37365000D01*
X34988100Y-37756700D02*
X34596400Y-37365000D01*
%TO.N,/MOTOR_IN1*%
X38475000Y-36095000D02*
X36479800Y-36095000D01*
X36479800Y-36095000D02*
X34574200Y-34189400D01*
%TO.N,/MOTOR_IN2*%
X38475000Y-37365000D02*
X36762700Y-37365000D01*
X36762700Y-37365000D02*
X32148900Y-32751200D01*
%TO.N,/OC_GATE*%
X17650000Y-35950000D02*
X17219900Y-35950000D01*
X17219900Y-35950000D02*
X11350000Y-30080100D01*
X11350000Y-30080100D02*
X11350000Y-28950000D01*
%TO.N,/OD_GATE*%
X13350000Y-27050000D02*
X20350000Y-34050000D01*
X11350000Y-27050000D02*
X13350000Y-27050000D01*
%TO.N,/PROG*%
X15211100Y-14966100D02*
X15211100Y-14335700D01*
X17432900Y-15268500D02*
X15513500Y-15268500D01*
X16825000Y-22000000D02*
X17714300Y-21110700D01*
X15513500Y-15268500D02*
X15211100Y-14966100D01*
X15211100Y-14335700D02*
X16181800Y-13365000D01*
X17714300Y-21110700D02*
X17714300Y-15549900D01*
X16181800Y-13365000D02*
X16475000Y-13365000D01*
X17714300Y-15549900D02*
X17432900Y-15268500D01*
%TO.N,/VBUS*%
X13329000Y-25442100D02*
X20070700Y-32183800D01*
X12752900Y-13365000D02*
X11525000Y-13365000D01*
X12752900Y-16288100D02*
X12461300Y-16579700D01*
D35*
X27550000Y-46300000D02*
X32450000Y-46300000D01*
D34*
X14850800Y-15153800D02*
X14850800Y-13416600D01*
X27696900Y-42350000D02*
X26837500Y-43209400D01*
X16475000Y-15905000D02*
X15602000Y-15905000D01*
X9435000Y-25442100D02*
X13329000Y-25442100D01*
X26837500Y-43209400D02*
X26837500Y-45587500D01*
D35*
X32450000Y-47455000D02*
X32450000Y-46300000D01*
D34*
X17722000Y-11771600D02*
X17489100Y-11538700D01*
X15602000Y-15905000D02*
X14850800Y-15153800D01*
D35*
X27550000Y-46300000D02*
X27550000Y-47455000D01*
D34*
X20070700Y-32183800D02*
X23335200Y-32183800D01*
X26837500Y-45587500D02*
X27550000Y-46300000D01*
X12461300Y-16579700D02*
X11435000Y-16579700D01*
X17489100Y-11538700D02*
X14579200Y-11538700D01*
X14850800Y-13416600D02*
X15553000Y-12714400D01*
X17478200Y-12714400D02*
X17722000Y-12470600D01*
X6493600Y-21521100D02*
X6493600Y-22500700D01*
X29146200Y-42350000D02*
X27696900Y-42350000D01*
D35*
X27550000Y-46300000D02*
X27550000Y-47455000D01*
D34*
X12752900Y-13365000D02*
X12752900Y-16288100D01*
X11435000Y-16579700D02*
X6493600Y-21521100D01*
D35*
X32450000Y-46300000D02*
X27550000Y-46300000D01*
D34*
X15553000Y-12714400D02*
X17478200Y-12714400D01*
D35*
X27550000Y-47455000D02*
X27550000Y-46300000D01*
D34*
X17722000Y-12470600D02*
X17722000Y-11771600D01*
X29783700Y-32199500D02*
X29935400Y-32351200D01*
X29935400Y-32351200D02*
X29935400Y-41560800D01*
X6493600Y-22500700D02*
X9435000Y-25442100D01*
X14579200Y-11538700D02*
X12752900Y-13365000D01*
X29935400Y-41560800D02*
X29146200Y-42350000D01*
%TO.N,/VCC_3V3*%
X48489700Y-33539700D02*
X48489700Y-37000000D01*
X12090700Y-34696800D02*
X13909300Y-34696800D01*
X26899800Y-31204300D02*
X26899800Y-16979800D01*
X53000000Y-37000000D02*
X48489700Y-37000000D01*
X35088900Y-32097200D02*
X34976900Y-31985200D01*
X44000000Y-14000000D02*
X44000000Y-15101700D01*
X40775000Y-23000000D02*
X43425000Y-20350000D01*
X44137800Y-15101700D02*
X44000000Y-15101700D01*
X26898300Y-36000000D02*
X26898300Y-36051700D01*
X37691700Y-30180500D02*
X35775000Y-32097200D01*
X40950000Y-26000000D02*
X48489700Y-33539700D01*
X40950000Y-26000000D02*
X40775000Y-25825000D01*
X28000000Y-36000000D02*
X26898300Y-36000000D01*
X35775000Y-32097200D02*
X35088900Y-32097200D01*
X20950000Y-42000000D02*
X20950000Y-41265900D01*
X35775000Y-32097200D02*
X35775000Y-33000000D01*
X20950000Y-41265900D02*
X14684100Y-35000000D01*
X45101700Y-19615600D02*
X45101700Y-16065600D01*
X46446500Y-43517200D02*
X46446500Y-40328500D01*
X44000000Y-12898300D02*
X44825000Y-12073300D01*
X13909300Y-34696800D02*
X14212500Y-35000000D01*
X26898300Y-36000000D02*
X26898300Y-32286500D01*
X26899800Y-16979800D02*
X22920000Y-13000000D01*
X46775000Y-40000000D02*
X48489700Y-38285300D01*
X26898300Y-36051700D02*
X20950000Y-42000000D01*
X27211400Y-31515900D02*
X26899800Y-31204300D01*
X37691700Y-27019200D02*
X39930800Y-27019200D01*
X43475000Y-45635000D02*
X44328700Y-45635000D01*
X46446500Y-40328500D02*
X46775000Y-40000000D01*
X37691700Y-23881700D02*
X37691700Y-27019200D01*
X48489700Y-38285300D02*
X48489700Y-37000000D01*
X40775000Y-25825000D02*
X40775000Y-23000000D01*
X14684100Y-35000000D02*
X14212500Y-35000000D01*
X44328700Y-45635000D02*
X46446500Y-43517200D01*
X37691700Y-27019200D02*
X37691700Y-30180500D01*
X43425000Y-20350000D02*
X44367300Y-20350000D01*
X36890000Y-23080000D02*
X37691700Y-23881700D01*
X11787500Y-35000000D02*
X12090700Y-34696800D01*
X44367300Y-20350000D02*
X45101700Y-19615600D01*
X44825000Y-12073300D02*
X44825000Y-8000000D01*
X44000000Y-14000000D02*
X44000000Y-12898300D01*
X27211400Y-31973400D02*
X27211400Y-31515900D01*
X26898300Y-32286500D02*
X27211400Y-31973400D01*
X45101700Y-16065600D02*
X44137800Y-15101700D01*
X39930800Y-27019200D02*
X40950000Y-26000000D01*
%TO.N,/VREF_NC*%
X39804800Y-45945300D02*
X38845100Y-46905000D01*
X39804800Y-39662400D02*
X39804800Y-45945300D01*
X38845100Y-46905000D02*
X38525000Y-46905000D01*
X38777400Y-38635000D02*
X39804800Y-39662400D01*
X38475000Y-38635000D02*
X38777400Y-38635000D01*
%TO.N,GND*%
X32440900Y-2765900D02*
X33175000Y-3500000D01*
X45225000Y-40000000D02*
X45225000Y-42943800D01*
X18734200Y-36311700D02*
X18468500Y-36577400D01*
X14623000Y-34289500D02*
X11603600Y-34289500D01*
X41856900Y-45565800D02*
X41856900Y-43163700D01*
X9471700Y-43578300D02*
X11050000Y-42000000D01*
X41856900Y-43163700D02*
X44497800Y-40522800D01*
X44893800Y-46189700D02*
X42480800Y-46189700D01*
X16475000Y-14635000D02*
X18070000Y-14635000D01*
X27175000Y-3500000D02*
X28000100Y-4325100D01*
X16910900Y-36577400D02*
X14623000Y-34289500D01*
X36026300Y-22806400D02*
X36026300Y-24756300D01*
X18745000Y-14635000D02*
X20380000Y-13000000D01*
X34225000Y-33000000D02*
X34225000Y-28285000D01*
X33175000Y-3500000D02*
X33175000Y-5289500D01*
X42480800Y-46189700D02*
X41856900Y-45565800D01*
X9471700Y-49296700D02*
X9471700Y-43578300D01*
X44000000Y-16540000D02*
X39225000Y-21315000D01*
X25680000Y-52550000D02*
X25680000Y-48370000D01*
X24668800Y-31356400D02*
X23871700Y-30559300D01*
X11123100Y-35192900D02*
X11430200Y-35500000D01*
X15175000Y-22000000D02*
X15913300Y-22738300D01*
X33250000Y-47455000D02*
X33250000Y-46478300D01*
X45225000Y-42943800D02*
X43803800Y-44365000D01*
X36556200Y-8670700D02*
X39786100Y-8670700D01*
X17714600Y-22738300D02*
X18070000Y-22382900D01*
X33730000Y-46478300D02*
X34320000Y-47068300D01*
X7212500Y-22000000D02*
X7961100Y-22748600D01*
X34320000Y-48370000D02*
X34320000Y-47068300D01*
X21150600Y-36538600D02*
X24668800Y-33020400D01*
X24118300Y-47068300D02*
X25680000Y-47068300D01*
X17714600Y-23050200D02*
X17714600Y-22738300D01*
X14571600Y-36000000D02*
X19049900Y-40478300D01*
X44497800Y-40522800D02*
X39072900Y-35097900D01*
X25680000Y-48370000D02*
X25680000Y-47068300D01*
X11050000Y-43835300D02*
X11050000Y-42000000D01*
X19049900Y-42000000D02*
X19050000Y-42000000D01*
X23871700Y-30559300D02*
X23871700Y-29207300D01*
X28000100Y-4325100D02*
X28000100Y-7589400D01*
X43803800Y-44365000D02*
X43475000Y-44365000D01*
X39072900Y-35097900D02*
X36322900Y-35097900D01*
X33525000Y-39905000D02*
X33525000Y-41533500D01*
X14212500Y-36000000D02*
X14571600Y-36000000D01*
X19049900Y-40478300D02*
X19049900Y-42000000D01*
X11123100Y-34770000D02*
X11123100Y-35192900D01*
X18468500Y-36577400D02*
X16910900Y-36577400D01*
X17650000Y-35000000D02*
X18131400Y-35000000D01*
X11787500Y-36500000D02*
X11430200Y-36500000D01*
X33250000Y-46478300D02*
X33730000Y-46478300D01*
X34225000Y-28285000D02*
X36890000Y-25620000D01*
X18734200Y-35602800D02*
X18734200Y-36311700D01*
X19050000Y-42000000D02*
X24118300Y-47068300D01*
X11430200Y-36500000D02*
X11050000Y-36880200D01*
X28000000Y-38540000D02*
X26398300Y-40141700D01*
X39050000Y-26000000D02*
X39225000Y-25825000D01*
X45225000Y-40000000D02*
X45020600Y-40000000D01*
X23871700Y-29207300D02*
X17714600Y-23050200D01*
X18131400Y-35000000D02*
X18734200Y-35602800D01*
X14426400Y-22748600D02*
X15175000Y-22000000D01*
X36026300Y-24756300D02*
X36890000Y-25620000D01*
X11603600Y-34289500D02*
X11123100Y-34770000D01*
X15913300Y-22738300D02*
X17714600Y-22738300D01*
X39225000Y-21315000D02*
X39225000Y-23000000D01*
X18961100Y-36538600D02*
X21150600Y-36538600D01*
X33175000Y-5289500D02*
X36556200Y-8670700D01*
X18070000Y-22382900D02*
X18070000Y-14635000D01*
X46463500Y-44620000D02*
X44893800Y-46189700D01*
X26270000Y-46478300D02*
X26750000Y-46478300D01*
X25680000Y-47068300D02*
X26270000Y-46478300D01*
X39225000Y-23000000D02*
X38458100Y-22233100D01*
X26398300Y-46126600D02*
X26750000Y-46478300D01*
X7961100Y-22748600D02*
X14426400Y-22748600D01*
X45020600Y-40000000D02*
X44497800Y-40522800D01*
X39225000Y-25825000D02*
X39225000Y-23000000D01*
X24668800Y-33020400D02*
X24668800Y-31356400D01*
X38458100Y-22233100D02*
X36599600Y-22233100D01*
X11050000Y-36880200D02*
X11050000Y-42000000D01*
X18734200Y-36311700D02*
X18961100Y-36538600D01*
X27175000Y-3500000D02*
X27909100Y-2765900D01*
X10175000Y-50000000D02*
X9471700Y-49296700D01*
X36599600Y-22233100D02*
X36026300Y-22806400D01*
X18070000Y-14635000D02*
X18745000Y-14635000D01*
X36322900Y-35097900D02*
X34225000Y-33000000D01*
X33525000Y-41533500D02*
X31258500Y-43800000D01*
X27909100Y-2765900D02*
X32440900Y-2765900D01*
X26750000Y-47455000D02*
X26750000Y-46478300D01*
X39786100Y-8670700D02*
X40578400Y-7878400D01*
X26398300Y-40141700D02*
X26398300Y-46126600D01*
X53000000Y-44620000D02*
X46463500Y-44620000D01*
X11430200Y-35500000D02*
X11787500Y-35500000D01*
%TD*%
%TA.AperFunction,Conductor*%
%TO.N,GND*%
G36*
X35768661Y-37220197D02*
G01*
X36393984Y-37845520D01*
X36530916Y-37924577D01*
X36530918Y-37924578D01*
X36617113Y-37947674D01*
X36683640Y-37965500D01*
X36683641Y-37965501D01*
X36683643Y-37965501D01*
X36846288Y-37965501D01*
X36846304Y-37965500D01*
X37072113Y-37965500D01*
X37124439Y-37987174D01*
X37146113Y-38039500D01*
X37132842Y-38078272D01*
X37134289Y-38079128D01*
X37048256Y-38224600D01*
X37002402Y-38382428D01*
X36999500Y-38419306D01*
X36999500Y-38850693D01*
X37002402Y-38887571D01*
X37048256Y-39045399D01*
X37131919Y-39186865D01*
X37162728Y-39217674D01*
X37184402Y-39270000D01*
X37162728Y-39322326D01*
X37131919Y-39353134D01*
X37048256Y-39494600D01*
X37002402Y-39652428D01*
X36999500Y-39689306D01*
X36999500Y-40120693D01*
X37002402Y-40157571D01*
X37048256Y-40315399D01*
X37084564Y-40376792D01*
X37131919Y-40456865D01*
X37248135Y-40573081D01*
X37389602Y-40656744D01*
X37547431Y-40702598D01*
X37584306Y-40705500D01*
X39130300Y-40705500D01*
X39182626Y-40727174D01*
X39204300Y-40779500D01*
X39204300Y-42220500D01*
X39182626Y-42272826D01*
X39130300Y-42294500D01*
X37634306Y-42294500D01*
X37625087Y-42295225D01*
X37597428Y-42297402D01*
X37439600Y-42343256D01*
X37298134Y-42426919D01*
X37181919Y-42543134D01*
X37098256Y-42684600D01*
X37052402Y-42842428D01*
X37049500Y-42879306D01*
X37049500Y-43310693D01*
X37052402Y-43347571D01*
X37098256Y-43505399D01*
X37181919Y-43646865D01*
X37212728Y-43677674D01*
X37234402Y-43730000D01*
X37212728Y-43782326D01*
X37181919Y-43813134D01*
X37098256Y-43954600D01*
X37052402Y-44112428D01*
X37049500Y-44149306D01*
X37049500Y-44580693D01*
X37052402Y-44617572D01*
X37052402Y-44617573D01*
X37059753Y-44642875D01*
X37053537Y-44699170D01*
X37041017Y-44715845D01*
X36527086Y-45229778D01*
X36415280Y-45341583D01*
X36365160Y-45428395D01*
X36336223Y-45478513D01*
X36336221Y-45478518D01*
X36295299Y-45631240D01*
X36295299Y-45795315D01*
X36295300Y-45795328D01*
X36295300Y-47248496D01*
X36295299Y-47248514D01*
X36295299Y-47411159D01*
X36336221Y-47563881D01*
X36336223Y-47563886D01*
X36357025Y-47599915D01*
X36415280Y-47700816D01*
X36531299Y-47816835D01*
X36531305Y-47816840D01*
X36912291Y-48197826D01*
X36912296Y-48197832D01*
X36914880Y-48200416D01*
X37026684Y-48312220D01*
X37112743Y-48361906D01*
X37163615Y-48391277D01*
X37316340Y-48432199D01*
X37316341Y-48432200D01*
X37316343Y-48432200D01*
X39513113Y-48432200D01*
X39565439Y-48453874D01*
X39587113Y-48506200D01*
X39565439Y-48558526D01*
X39014039Y-49109926D01*
X38961713Y-49131600D01*
X33520183Y-49131600D01*
X33467857Y-49109926D01*
X33446183Y-49057600D01*
X33448705Y-49038447D01*
X33465499Y-48975768D01*
X33465500Y-48975768D01*
X33465500Y-48824232D01*
X33465499Y-48824231D01*
X33432843Y-48702357D01*
X33426281Y-48677865D01*
X33350515Y-48546635D01*
X33243365Y-48439485D01*
X33243362Y-48439483D01*
X33243360Y-48439481D01*
X33243249Y-48439396D01*
X33243213Y-48439334D01*
X33239935Y-48436056D01*
X33240813Y-48435177D01*
X33214936Y-48390344D01*
X33218970Y-48354834D01*
X33244091Y-48287483D01*
X33250500Y-48227873D01*
X33250499Y-46682128D01*
X33244091Y-46622517D01*
X33233892Y-46595172D01*
X33193797Y-46487670D01*
X33193796Y-46487669D01*
X33115260Y-46382758D01*
X33100500Y-46338411D01*
X33100500Y-46235932D01*
X33098826Y-46227518D01*
X33076587Y-46115716D01*
X33075502Y-46110260D01*
X33075501Y-46110257D01*
X33060043Y-46072939D01*
X33026465Y-45991873D01*
X32955276Y-45885331D01*
X32864669Y-45794724D01*
X32856641Y-45789360D01*
X32829473Y-45771207D01*
X32758127Y-45723535D01*
X32758124Y-45723533D01*
X32758123Y-45723533D01*
X32639742Y-45674498D01*
X32639739Y-45674497D01*
X32549696Y-45656586D01*
X32514069Y-45649500D01*
X32514067Y-45649500D01*
X31265347Y-45649500D01*
X31213021Y-45627826D01*
X31191347Y-45575500D01*
X31203818Y-45534388D01*
X31209439Y-45525976D01*
X31249394Y-45466179D01*
X31309737Y-45320497D01*
X31340500Y-45165842D01*
X31340500Y-45008158D01*
X31309737Y-44853503D01*
X31293233Y-44813658D01*
X31287600Y-44785340D01*
X31287600Y-40109205D01*
X32250001Y-40109205D01*
X32252850Y-40139602D01*
X32252852Y-40139611D01*
X32297652Y-40267643D01*
X32378207Y-40376791D01*
X32378208Y-40376792D01*
X32487356Y-40457347D01*
X32487355Y-40457347D01*
X32615385Y-40502146D01*
X32615393Y-40502148D01*
X32645802Y-40504999D01*
X33325000Y-40504999D01*
X33725000Y-40504999D01*
X34404194Y-40504999D01*
X34404205Y-40504998D01*
X34434602Y-40502149D01*
X34434611Y-40502147D01*
X34562643Y-40457347D01*
X34671791Y-40376792D01*
X34671792Y-40376791D01*
X34752347Y-40267643D01*
X34797146Y-40139614D01*
X34797148Y-40139606D01*
X34799999Y-40109198D01*
X34800000Y-40109197D01*
X34800000Y-40105000D01*
X33725000Y-40105000D01*
X33725000Y-40504999D01*
X33325000Y-40504999D01*
X33325000Y-40105000D01*
X32250001Y-40105000D01*
X32250001Y-40109205D01*
X31287600Y-40109205D01*
X31287600Y-38690500D01*
X31309274Y-38638174D01*
X31361600Y-38616500D01*
X31364113Y-38616500D01*
X31416439Y-38638174D01*
X31779391Y-39001126D01*
X31779396Y-39001132D01*
X31781980Y-39003716D01*
X31893784Y-39115520D01*
X31980595Y-39165639D01*
X32008721Y-39181878D01*
X32030711Y-39194575D01*
X32030713Y-39194575D01*
X32030715Y-39194577D01*
X32030716Y-39194577D01*
X32030718Y-39194578D01*
X32049039Y-39199487D01*
X32183440Y-39235500D01*
X32183441Y-39235501D01*
X32183443Y-39235501D01*
X32199903Y-39235501D01*
X32245484Y-39251206D01*
X32249042Y-39253988D01*
X32298135Y-39303081D01*
X32354337Y-39336318D01*
X32358118Y-39339275D01*
X32369870Y-39360066D01*
X32384212Y-39379167D01*
X32383499Y-39384175D01*
X32385989Y-39388580D01*
X32379597Y-39411592D01*
X32376232Y-39435239D01*
X32372078Y-39441512D01*
X32297652Y-39542356D01*
X32252853Y-39670385D01*
X32252851Y-39670393D01*
X32250000Y-39700801D01*
X32250000Y-39705000D01*
X34799999Y-39705000D01*
X34799999Y-39700806D01*
X34799998Y-39700794D01*
X34797149Y-39670397D01*
X34797147Y-39670388D01*
X34752347Y-39542356D01*
X34677922Y-39441513D01*
X34664289Y-39386541D01*
X34693519Y-39338030D01*
X34699785Y-39333880D01*
X34751865Y-39303081D01*
X34868081Y-39186865D01*
X34951744Y-39045398D01*
X34997598Y-38887569D01*
X35000500Y-38850694D01*
X35000500Y-38630813D01*
X35022174Y-38578487D01*
X35063574Y-38558908D01*
X35063376Y-38557909D01*
X35066940Y-38557200D01*
X35066942Y-38557200D01*
X35221597Y-38526437D01*
X35367279Y-38466094D01*
X35498389Y-38378489D01*
X35609889Y-38266989D01*
X35697494Y-38135879D01*
X35757837Y-37990197D01*
X35788600Y-37835542D01*
X35788600Y-37677858D01*
X35757837Y-37523203D01*
X35733330Y-37464038D01*
X35697496Y-37377525D01*
X35697495Y-37377523D01*
X35697494Y-37377521D01*
X35654805Y-37313633D01*
X35643757Y-37258086D01*
X35675223Y-37210994D01*
X35730772Y-37199945D01*
X35768661Y-37220197D01*
G37*
%TD.AperFunction*%
%TA.AperFunction,Conductor*%
G36*
X40615760Y-27222002D02*
G01*
X40649991Y-27225500D01*
X41250008Y-27225499D01*
X41284214Y-27222004D01*
X41338471Y-27238248D01*
X41344060Y-27243295D01*
X45900416Y-31799651D01*
X45922090Y-31851977D01*
X45900416Y-31904303D01*
X45862527Y-31924555D01*
X45810208Y-31934961D01*
X45810198Y-31934964D01*
X45664525Y-31995303D01*
X45533411Y-32082910D01*
X45533410Y-32082912D01*
X45421912Y-32194410D01*
X45421910Y-32194411D01*
X45334303Y-32325525D01*
X45273964Y-32471198D01*
X45273963Y-32471203D01*
X45243200Y-32625858D01*
X45243200Y-32783542D01*
X45251386Y-32824695D01*
X45273961Y-32938191D01*
X45273964Y-32938201D01*
X45334303Y-33083874D01*
X45421910Y-33214988D01*
X45424218Y-33217800D01*
X45423196Y-33218637D01*
X45443200Y-33266930D01*
X45443200Y-39176148D01*
X45425000Y-39220086D01*
X45425000Y-40779913D01*
X45443200Y-40823852D01*
X45443200Y-43143312D01*
X45421526Y-43195638D01*
X45011966Y-43605197D01*
X44959640Y-43626871D01*
X44907314Y-43605197D01*
X44885640Y-43552871D01*
X44895948Y-43515198D01*
X44901744Y-43505398D01*
X44947598Y-43347569D01*
X44950500Y-43310694D01*
X44950500Y-42879306D01*
X44947598Y-42842431D01*
X44901744Y-42684602D01*
X44818081Y-42543135D01*
X44701865Y-42426919D01*
X44560399Y-42343256D01*
X44402571Y-42297402D01*
X44377985Y-42295467D01*
X44365694Y-42294500D01*
X42584306Y-42294500D01*
X42575087Y-42295225D01*
X42547428Y-42297402D01*
X42389600Y-42343256D01*
X42248134Y-42426919D01*
X42131919Y-42543134D01*
X42048256Y-42684600D01*
X42002402Y-42842428D01*
X41999500Y-42879306D01*
X41999500Y-43310694D01*
X42002599Y-43350079D01*
X41985096Y-43403944D01*
X41981153Y-43408210D01*
X41863286Y-43526078D01*
X41751480Y-43637883D01*
X41716162Y-43699057D01*
X41672423Y-43774813D01*
X41672421Y-43774818D01*
X41631499Y-43927540D01*
X41631499Y-44091615D01*
X41631500Y-44091628D01*
X41631500Y-44654996D01*
X41631499Y-44655014D01*
X41631499Y-44817659D01*
X41672421Y-44970381D01*
X41672423Y-44970386D01*
X41700466Y-45018957D01*
X41751480Y-45107316D01*
X41867499Y-45223335D01*
X41867505Y-45223340D01*
X41976699Y-45332534D01*
X41980052Y-45335888D01*
X41980589Y-45337185D01*
X41981213Y-45337478D01*
X41981218Y-45337484D01*
X41980842Y-45337797D01*
X41990703Y-45361613D01*
X42001718Y-45388206D01*
X42001490Y-45394010D01*
X41999500Y-45419303D01*
X41999500Y-45850693D01*
X42002402Y-45887571D01*
X42048256Y-46045399D01*
X42131919Y-46186865D01*
X42162728Y-46217674D01*
X42184402Y-46270000D01*
X42162728Y-46322326D01*
X42131919Y-46353134D01*
X42048256Y-46494600D01*
X42002402Y-46652428D01*
X41999500Y-46689306D01*
X41999500Y-46805500D01*
X41977826Y-46857826D01*
X41925500Y-46879500D01*
X40074500Y-46879500D01*
X40022174Y-46857826D01*
X40000500Y-46805500D01*
X40000500Y-46689306D01*
X39998694Y-46666362D01*
X39997598Y-46652431D01*
X39997596Y-46652425D01*
X39996919Y-46648715D01*
X39999166Y-46648304D01*
X40004587Y-46598920D01*
X40017126Y-46582208D01*
X40285320Y-46314016D01*
X40364377Y-46177084D01*
X40405300Y-46024359D01*
X40405301Y-46024359D01*
X40405301Y-45861713D01*
X40405300Y-45861695D01*
X40405300Y-40291103D01*
X44475000Y-40291103D01*
X44485132Y-40375470D01*
X44538075Y-40509726D01*
X44625278Y-40624720D01*
X44625279Y-40624721D01*
X44740273Y-40711924D01*
X44874529Y-40764867D01*
X44958897Y-40775000D01*
X45025000Y-40775000D01*
X45025000Y-40200000D01*
X44475000Y-40200000D01*
X44475000Y-40291103D01*
X40405300Y-40291103D01*
X40405300Y-39747426D01*
X40405300Y-39741459D01*
X40405301Y-39741457D01*
X40405301Y-39708896D01*
X44475000Y-39708896D01*
X44475000Y-39800000D01*
X45025000Y-39800000D01*
X45025000Y-39225000D01*
X44958897Y-39225000D01*
X44874529Y-39235132D01*
X44740273Y-39288075D01*
X44625279Y-39375278D01*
X44625278Y-39375279D01*
X44538075Y-39490273D01*
X44485132Y-39624529D01*
X44475000Y-39708896D01*
X40405301Y-39708896D01*
X40405301Y-39583343D01*
X40405301Y-39583341D01*
X40405300Y-39583340D01*
X40364378Y-39430618D01*
X40364376Y-39430613D01*
X40333753Y-39377573D01*
X40285319Y-39293683D01*
X40170937Y-39179301D01*
X40170926Y-39179291D01*
X39963145Y-38971510D01*
X39941471Y-38919184D01*
X39944409Y-38898544D01*
X39947598Y-38887569D01*
X39950500Y-38850694D01*
X39950500Y-38419306D01*
X39947598Y-38382431D01*
X39901744Y-38224602D01*
X39888197Y-38201696D01*
X39851652Y-38139901D01*
X39818081Y-38083135D01*
X39787272Y-38052326D01*
X39765598Y-38000000D01*
X39787272Y-37947674D01*
X39797678Y-37937268D01*
X39818081Y-37916865D01*
X39901744Y-37775398D01*
X39947598Y-37617569D01*
X39950500Y-37580694D01*
X39950500Y-37149306D01*
X39947598Y-37112431D01*
X39901744Y-36954602D01*
X39818081Y-36813135D01*
X39787272Y-36782326D01*
X39765598Y-36730000D01*
X39787272Y-36677674D01*
X39790446Y-36674500D01*
X39818081Y-36646865D01*
X39901744Y-36505398D01*
X39947598Y-36347569D01*
X39950500Y-36310694D01*
X39950500Y-35879306D01*
X39947598Y-35842431D01*
X39901744Y-35684602D01*
X39818081Y-35543135D01*
X39701865Y-35426919D01*
X39618870Y-35377836D01*
X39560399Y-35343256D01*
X39402571Y-35297402D01*
X39377985Y-35295467D01*
X39365694Y-35294500D01*
X37584306Y-35294500D01*
X37575087Y-35295225D01*
X37547428Y-35297402D01*
X37389600Y-35343256D01*
X37248134Y-35426919D01*
X37202228Y-35472826D01*
X37149902Y-35494500D01*
X36759187Y-35494500D01*
X36706861Y-35472826D01*
X35396374Y-34162339D01*
X35375856Y-34123039D01*
X35374700Y-34116574D01*
X35374700Y-34110558D01*
X35364046Y-34056999D01*
X35363918Y-34056281D01*
X35369836Y-34029272D01*
X35375233Y-34002143D01*
X35375876Y-34001713D01*
X35376042Y-34000957D01*
X35399323Y-33986046D01*
X35422325Y-33970677D01*
X35423400Y-33970626D01*
X35423736Y-33970411D01*
X35424483Y-33970574D01*
X35444277Y-33969638D01*
X35501655Y-33975500D01*
X36048344Y-33975499D01*
X36147708Y-33965349D01*
X36308697Y-33912003D01*
X36453044Y-33822968D01*
X36572968Y-33703044D01*
X36662003Y-33558697D01*
X36715349Y-33397708D01*
X36725500Y-33298345D01*
X36725499Y-32701656D01*
X36715349Y-32602292D01*
X36662003Y-32441303D01*
X36572968Y-32296956D01*
X36551049Y-32275037D01*
X36529375Y-32222711D01*
X36551049Y-32170385D01*
X37296935Y-31424499D01*
X38060413Y-30661021D01*
X38060416Y-30661020D01*
X38172220Y-30549216D01*
X38229317Y-30450320D01*
X38251277Y-30412285D01*
X38292200Y-30259557D01*
X38292200Y-30101443D01*
X38292200Y-27693700D01*
X38313874Y-27641374D01*
X38366200Y-27619700D01*
X39847197Y-27619700D01*
X39847213Y-27619701D01*
X39851743Y-27619701D01*
X40009859Y-27619701D01*
X40009859Y-27619700D01*
X40162585Y-27578777D01*
X40246168Y-27530520D01*
X40299516Y-27499720D01*
X40411320Y-27387916D01*
X40411321Y-27387913D01*
X40555939Y-27243294D01*
X40608264Y-27221621D01*
X40615760Y-27222002D01*
G37*
%TD.AperFunction*%
%TA.AperFunction,Conductor*%
G36*
X51627827Y-37622174D02*
G01*
X51649501Y-37674500D01*
X51649501Y-37897873D01*
X51655909Y-37957485D01*
X51706202Y-38092329D01*
X51706203Y-38092330D01*
X51727886Y-38121295D01*
X51792454Y-38207546D01*
X51871860Y-38266989D01*
X51907669Y-38293796D01*
X51907670Y-38293797D01*
X52018605Y-38335172D01*
X52042517Y-38344091D01*
X52102127Y-38350500D01*
X52111846Y-38350499D01*
X52164171Y-38372169D01*
X52185850Y-38424493D01*
X52164180Y-38476820D01*
X52155347Y-38484366D01*
X52120208Y-38509896D01*
X51969896Y-38660208D01*
X51969893Y-38660211D01*
X51969893Y-38660212D01*
X51844948Y-38832183D01*
X51748440Y-39021593D01*
X51682756Y-39223746D01*
X51682753Y-39223759D01*
X51649500Y-39433711D01*
X51649500Y-39646288D01*
X51682753Y-39856240D01*
X51682756Y-39856253D01*
X51748440Y-40058406D01*
X51844948Y-40247816D01*
X51907877Y-40334430D01*
X51969896Y-40419792D01*
X52120208Y-40570104D01*
X52215656Y-40639451D01*
X52292183Y-40695051D01*
X52312691Y-40705500D01*
X52363499Y-40731388D01*
X52388380Y-40744065D01*
X52425163Y-40787132D01*
X52420720Y-40843595D01*
X52388380Y-40875935D01*
X52292183Y-40924948D01*
X52132346Y-41041077D01*
X52120208Y-41049896D01*
X51969896Y-41200208D01*
X51969893Y-41200211D01*
X51969893Y-41200212D01*
X51844948Y-41372183D01*
X51748440Y-41561593D01*
X51682756Y-41763746D01*
X51682753Y-41763759D01*
X51649500Y-41973711D01*
X51649500Y-42186288D01*
X51682753Y-42396240D01*
X51682756Y-42396253D01*
X51748440Y-42598406D01*
X51844948Y-42787816D01*
X51902889Y-42867564D01*
X51969896Y-42959792D01*
X52120208Y-43110104D01*
X52208106Y-43173965D01*
X52292183Y-43235051D01*
X52383474Y-43281565D01*
X52481588Y-43331557D01*
X52481590Y-43331557D01*
X52481593Y-43331559D01*
X52646161Y-43385031D01*
X52689229Y-43421814D01*
X52693672Y-43478276D01*
X52656889Y-43521344D01*
X52646161Y-43525787D01*
X52558558Y-43554250D01*
X52397268Y-43636431D01*
X52340511Y-43677667D01*
X52340511Y-43677668D01*
X52814823Y-44151980D01*
X52807007Y-44154075D01*
X52692993Y-44219901D01*
X52599901Y-44312993D01*
X52534075Y-44427007D01*
X52531980Y-44434823D01*
X52057668Y-43960511D01*
X52057667Y-43960511D01*
X52016431Y-44017268D01*
X51934250Y-44178558D01*
X51878319Y-44350697D01*
X51878316Y-44350710D01*
X51850000Y-44529491D01*
X51850000Y-44596200D01*
X51828326Y-44648526D01*
X51776000Y-44670200D01*
X46687940Y-44670200D01*
X46535218Y-44711121D01*
X46535213Y-44711123D01*
X46485095Y-44740060D01*
X46398283Y-44790180D01*
X44966663Y-46221801D01*
X44914337Y-46243475D01*
X44862011Y-46221801D01*
X44840337Y-46169475D01*
X44850641Y-46131808D01*
X44901744Y-46045398D01*
X44947598Y-45887569D01*
X44947598Y-45887565D01*
X44948276Y-45883855D01*
X44950346Y-45884232D01*
X44968799Y-45844134D01*
X46815213Y-43997721D01*
X46815216Y-43997720D01*
X46927020Y-43885916D01*
X46927025Y-43885905D01*
X46927618Y-43885135D01*
X46928051Y-43884884D01*
X46930450Y-43882486D01*
X46931092Y-43883128D01*
X46976662Y-43856807D01*
X47031372Y-43871455D01*
X47038661Y-43877846D01*
X47152781Y-43991966D01*
X47244695Y-44058745D01*
X47318389Y-44112287D01*
X47369651Y-44138406D01*
X47500781Y-44205220D01*
X47500783Y-44205220D01*
X47500786Y-44205222D01*
X47695455Y-44268474D01*
X47695461Y-44268475D01*
X47695466Y-44268477D01*
X47796557Y-44284488D01*
X47897646Y-44300500D01*
X47897648Y-44300500D01*
X48102354Y-44300500D01*
X48183224Y-44287690D01*
X48304534Y-44268477D01*
X48304541Y-44268474D01*
X48304544Y-44268474D01*
X48499213Y-44205222D01*
X48499213Y-44205221D01*
X48499219Y-44205220D01*
X48681610Y-44112287D01*
X48847219Y-43991966D01*
X48991966Y-43847219D01*
X49112287Y-43681610D01*
X49205220Y-43499219D01*
X49227548Y-43430500D01*
X49268474Y-43304544D01*
X49268474Y-43304541D01*
X49268477Y-43304534D01*
X49300500Y-43102352D01*
X49300500Y-42897648D01*
X49297694Y-42879935D01*
X49268477Y-42695468D01*
X49268474Y-42695455D01*
X49205222Y-42500786D01*
X49205220Y-42500783D01*
X49205220Y-42500781D01*
X49124600Y-42342555D01*
X49112287Y-42318389D01*
X49026272Y-42200000D01*
X48991966Y-42152781D01*
X48847219Y-42008034D01*
X48753103Y-41939655D01*
X48681610Y-41887712D01*
X48499213Y-41794777D01*
X48304544Y-41731525D01*
X48304531Y-41731522D01*
X48102354Y-41699500D01*
X48102352Y-41699500D01*
X47897648Y-41699500D01*
X47897646Y-41699500D01*
X47695468Y-41731522D01*
X47695455Y-41731525D01*
X47500786Y-41794777D01*
X47318394Y-41887710D01*
X47318390Y-41887713D01*
X47164495Y-41999523D01*
X47109423Y-42012744D01*
X47061132Y-41983151D01*
X47047000Y-41939655D01*
X47047000Y-41042461D01*
X47068674Y-40990135D01*
X47113478Y-40968845D01*
X47147708Y-40965349D01*
X47308697Y-40912003D01*
X47453044Y-40822968D01*
X47572968Y-40703044D01*
X47662003Y-40558697D01*
X47715349Y-40397708D01*
X47725500Y-40298345D01*
X47725499Y-39929385D01*
X47747172Y-39877061D01*
X48858413Y-38765821D01*
X48858416Y-38765820D01*
X48970220Y-38654016D01*
X49026842Y-38555943D01*
X49049277Y-38517085D01*
X49090200Y-38364359D01*
X49090201Y-38364359D01*
X49090201Y-38201714D01*
X49090200Y-38201696D01*
X49090200Y-37674500D01*
X49111874Y-37622174D01*
X49164200Y-37600500D01*
X51575501Y-37600500D01*
X51627827Y-37622174D01*
G37*
%TD.AperFunction*%
%TA.AperFunction,Conductor*%
G36*
X10909281Y-36622174D02*
G01*
X10930955Y-36674500D01*
X10925322Y-36702819D01*
X10888990Y-36790528D01*
X10874500Y-36900600D01*
X10874500Y-37099399D01*
X10888990Y-37209471D01*
X10945721Y-37346429D01*
X11035961Y-37464033D01*
X11035966Y-37464038D01*
X11070365Y-37490433D01*
X11153571Y-37554279D01*
X11290528Y-37611009D01*
X11364866Y-37620795D01*
X11413915Y-37649113D01*
X11428574Y-37703820D01*
X11407534Y-37746487D01*
X11379710Y-37774311D01*
X11292103Y-37905425D01*
X11231764Y-38051098D01*
X11231761Y-38051108D01*
X11214901Y-38135874D01*
X11201000Y-38205758D01*
X11201000Y-38363442D01*
X11202736Y-38372169D01*
X11231761Y-38518091D01*
X11231764Y-38518101D01*
X11292103Y-38663774D01*
X11292105Y-38663777D01*
X11292106Y-38663779D01*
X11336497Y-38730215D01*
X11379710Y-38794888D01*
X11382018Y-38797700D01*
X11380996Y-38798537D01*
X11401000Y-38846830D01*
X11401000Y-40901000D01*
X11379326Y-40953326D01*
X11327000Y-40975000D01*
X11250000Y-40975000D01*
X11250000Y-43025000D01*
X11327000Y-43025000D01*
X11379326Y-43046674D01*
X11401000Y-43099000D01*
X11401000Y-43894113D01*
X11379326Y-43946439D01*
X10322939Y-45002826D01*
X10270613Y-45024500D01*
X9918376Y-45024500D01*
X9847807Y-45030913D01*
X9805813Y-45043998D01*
X9749409Y-45038871D01*
X9713150Y-44995361D01*
X9709800Y-44973348D01*
X9709800Y-42518061D01*
X10250000Y-42518061D01*
X10260614Y-42606443D01*
X10316077Y-42747092D01*
X10407435Y-42867564D01*
X10527907Y-42958922D01*
X10668556Y-43014385D01*
X10756939Y-43025000D01*
X10850000Y-43025000D01*
X10850000Y-42200000D01*
X10250000Y-42200000D01*
X10250000Y-42518061D01*
X9709800Y-42518061D01*
X9709800Y-41481938D01*
X10250000Y-41481938D01*
X10250000Y-41800000D01*
X10850000Y-41800000D01*
X10850000Y-40975000D01*
X10756939Y-40975000D01*
X10668556Y-40985614D01*
X10527907Y-41041077D01*
X10407435Y-41132435D01*
X10316077Y-41252907D01*
X10260614Y-41393556D01*
X10250000Y-41481938D01*
X9709800Y-41481938D01*
X9709800Y-36798787D01*
X9731474Y-36746461D01*
X9855762Y-36622174D01*
X9908088Y-36600500D01*
X10856955Y-36600500D01*
X10909281Y-36622174D01*
G37*
%TD.AperFunction*%
%TA.AperFunction,Conductor*%
G36*
X24985353Y-31805507D02*
G01*
X24999168Y-31812547D01*
X24999174Y-31812549D01*
X24999173Y-31812549D01*
X25178871Y-31870937D01*
X25178877Y-31870938D01*
X25178882Y-31870940D01*
X25303306Y-31890646D01*
X25365518Y-31900500D01*
X25365519Y-31900500D01*
X25554482Y-31900500D01*
X25601140Y-31893110D01*
X25741118Y-31870940D01*
X25781743Y-31857740D01*
X25838206Y-31862183D01*
X25874989Y-31905250D01*
X25877189Y-31913681D01*
X25889961Y-31977891D01*
X25889964Y-31977901D01*
X25950303Y-32123574D01*
X26037909Y-32254687D01*
X26037911Y-32254689D01*
X26149411Y-32366189D01*
X26264912Y-32443364D01*
X26296378Y-32490456D01*
X26297800Y-32504893D01*
X26297800Y-35772312D01*
X26276126Y-35824638D01*
X21369376Y-40731388D01*
X21317050Y-40753062D01*
X21264724Y-40731388D01*
X17435161Y-36901825D01*
X17413487Y-36849499D01*
X17435161Y-36797173D01*
X17487487Y-36775499D01*
X18321086Y-36775499D01*
X18321090Y-36775499D01*
X18387887Y-36769430D01*
X18541602Y-36721531D01*
X18679388Y-36638236D01*
X18793236Y-36524388D01*
X18876531Y-36386602D01*
X18924430Y-36232887D01*
X18926304Y-36212266D01*
X18952624Y-36162116D01*
X19006696Y-36145266D01*
X19056846Y-36171586D01*
X19073696Y-36212266D01*
X19075569Y-36232880D01*
X19075571Y-36232891D01*
X19123466Y-36386596D01*
X19123468Y-36386599D01*
X19123469Y-36386602D01*
X19206764Y-36524388D01*
X19320612Y-36638236D01*
X19458398Y-36721531D01*
X19458401Y-36721532D01*
X19458403Y-36721533D01*
X19535255Y-36745480D01*
X19612113Y-36769430D01*
X19678909Y-36775500D01*
X21021090Y-36775499D01*
X21087887Y-36769430D01*
X21241602Y-36721531D01*
X21379388Y-36638236D01*
X21493236Y-36524388D01*
X21576531Y-36386602D01*
X21624430Y-36232887D01*
X21630500Y-36166091D01*
X21630499Y-35733910D01*
X21624430Y-35667113D01*
X21599389Y-35586755D01*
X21604514Y-35530352D01*
X21633037Y-35500656D01*
X21667916Y-35480520D01*
X21779720Y-35368716D01*
X21779721Y-35368713D01*
X24454113Y-32694321D01*
X24454116Y-32694320D01*
X24565920Y-32582516D01*
X24630186Y-32471203D01*
X24644977Y-32445585D01*
X24672702Y-32342116D01*
X24686948Y-32288950D01*
X24705035Y-32257625D01*
X24704882Y-32257500D01*
X24705644Y-32256570D01*
X24706105Y-32255772D01*
X24707189Y-32254689D01*
X24794794Y-32123579D01*
X24855137Y-31977897D01*
X24879183Y-31857005D01*
X24885005Y-31848293D01*
X24885828Y-31837845D01*
X24900170Y-31825596D01*
X24910648Y-31809915D01*
X24920926Y-31807870D01*
X24928896Y-31801064D01*
X24947699Y-31802544D01*
X24966197Y-31798865D01*
X24985353Y-31805507D01*
G37*
%TD.AperFunction*%
%TA.AperFunction,Conductor*%
G36*
X18825408Y-34809243D02*
G01*
X19047826Y-35031661D01*
X19069500Y-35083986D01*
X19069500Y-35216086D01*
X19069501Y-35216099D01*
X19075569Y-35282881D01*
X19075571Y-35282891D01*
X19123467Y-35436597D01*
X19123470Y-35436606D01*
X19123541Y-35436722D01*
X19123550Y-35436782D01*
X19125307Y-35440686D01*
X19124218Y-35441175D01*
X19132058Y-35492715D01*
X19125202Y-35509266D01*
X19125307Y-35509314D01*
X19123747Y-35512778D01*
X19123541Y-35513278D01*
X19123470Y-35513393D01*
X19123467Y-35513402D01*
X19075571Y-35667108D01*
X19075569Y-35667118D01*
X19073695Y-35687736D01*
X19047373Y-35737885D01*
X18993300Y-35754733D01*
X18943151Y-35728411D01*
X18926303Y-35687733D01*
X18924430Y-35667113D01*
X18894426Y-35570826D01*
X18876533Y-35513403D01*
X18876532Y-35513401D01*
X18876531Y-35513398D01*
X18793236Y-35375612D01*
X18744397Y-35326773D01*
X18722723Y-35274447D01*
X18726219Y-35253878D01*
X18726109Y-35253854D01*
X18726626Y-35251487D01*
X18726880Y-35249993D01*
X18727069Y-35249451D01*
X18729999Y-35218203D01*
X18730000Y-35218202D01*
X18730000Y-35200000D01*
X18597847Y-35200000D01*
X18559563Y-35189327D01*
X18541599Y-35178467D01*
X18387891Y-35130571D01*
X18387888Y-35130570D01*
X18387887Y-35130570D01*
X18387885Y-35130569D01*
X18387881Y-35130569D01*
X18321098Y-35124500D01*
X18321091Y-35124500D01*
X17724000Y-35124500D01*
X17671674Y-35102826D01*
X17650000Y-35050500D01*
X17650000Y-34949499D01*
X17671674Y-34897173D01*
X17724000Y-34875499D01*
X18321086Y-34875499D01*
X18321090Y-34875499D01*
X18387887Y-34869430D01*
X18541602Y-34821531D01*
X18559563Y-34810672D01*
X18597847Y-34800000D01*
X18743071Y-34800000D01*
X18773082Y-34787569D01*
X18825408Y-34809243D01*
G37*
%TD.AperFunction*%
%TA.AperFunction,Conductor*%
G36*
X4844326Y-25524361D02*
G01*
X7347826Y-28027861D01*
X7369500Y-28080186D01*
X7369500Y-28216086D01*
X7369501Y-28216099D01*
X7375569Y-28282881D01*
X7375571Y-28282891D01*
X7423467Y-28436597D01*
X7423470Y-28436606D01*
X7423541Y-28436722D01*
X7423550Y-28436782D01*
X7425307Y-28440686D01*
X7424218Y-28441175D01*
X7432058Y-28492715D01*
X7425202Y-28509266D01*
X7425307Y-28509314D01*
X7423747Y-28512778D01*
X7423541Y-28513278D01*
X7423470Y-28513393D01*
X7423467Y-28513402D01*
X7375571Y-28667108D01*
X7375569Y-28667118D01*
X7369500Y-28733901D01*
X7369500Y-29166086D01*
X7369501Y-29166099D01*
X7375569Y-29232881D01*
X7375571Y-29232891D01*
X7423466Y-29386596D01*
X7423468Y-29386599D01*
X7423469Y-29386602D01*
X7506764Y-29524388D01*
X7620612Y-29638236D01*
X7758398Y-29721531D01*
X7758401Y-29721532D01*
X7758403Y-29721533D01*
X7835255Y-29745480D01*
X7912113Y-29769430D01*
X7978909Y-29775500D01*
X9321090Y-29775499D01*
X9387887Y-29769430D01*
X9541602Y-29721531D01*
X9679388Y-29638236D01*
X9793236Y-29524388D01*
X9876531Y-29386602D01*
X9924430Y-29232887D01*
X9926304Y-29212266D01*
X9952624Y-29162116D01*
X10006696Y-29145266D01*
X10056846Y-29171586D01*
X10073696Y-29212266D01*
X10075569Y-29232880D01*
X10075571Y-29232891D01*
X10123466Y-29386596D01*
X10123468Y-29386599D01*
X10123469Y-29386602D01*
X10206764Y-29524388D01*
X10320612Y-29638236D01*
X10458398Y-29721531D01*
X10458401Y-29721532D01*
X10458403Y-29721533D01*
X10535255Y-29745480D01*
X10612113Y-29769430D01*
X10656857Y-29773496D01*
X10680579Y-29775652D01*
X10680521Y-29776285D01*
X10703083Y-29786846D01*
X10727826Y-29797095D01*
X10728510Y-29798748D01*
X10730131Y-29799507D01*
X10749500Y-29849421D01*
X10749500Y-29996496D01*
X10749499Y-29996514D01*
X10749499Y-30159159D01*
X10790421Y-30311881D01*
X10790423Y-30311886D01*
X10812600Y-30350297D01*
X10812603Y-30350301D01*
X10869480Y-30448816D01*
X10985499Y-30564835D01*
X10985505Y-30564840D01*
X14670698Y-34250033D01*
X14692372Y-34302359D01*
X14670698Y-34354685D01*
X14618372Y-34376359D01*
X14608714Y-34375726D01*
X14599401Y-34374500D01*
X14466887Y-34374500D01*
X14414561Y-34352826D01*
X14400228Y-34338493D01*
X14400228Y-34338492D01*
X14278015Y-34216279D01*
X14191204Y-34166160D01*
X14191202Y-34166159D01*
X14141088Y-34137224D01*
X14141081Y-34137221D01*
X13988359Y-34096299D01*
X13988357Y-34096299D01*
X13830243Y-34096299D01*
X13825713Y-34096299D01*
X13825697Y-34096300D01*
X12174304Y-34096300D01*
X12174288Y-34096299D01*
X12169758Y-34096299D01*
X12011643Y-34096299D01*
X12011641Y-34096299D01*
X11858918Y-34137221D01*
X11721983Y-34216280D01*
X11585436Y-34352826D01*
X11533111Y-34374500D01*
X11400600Y-34374500D01*
X11290528Y-34388990D01*
X11153570Y-34445721D01*
X11035966Y-34535961D01*
X11035961Y-34535966D01*
X10945721Y-34653570D01*
X10888990Y-34790528D01*
X10876185Y-34887794D01*
X10874582Y-34899980D01*
X10874500Y-34900600D01*
X10874500Y-35099399D01*
X10888990Y-35209471D01*
X10906394Y-35251487D01*
X10919402Y-35282891D01*
X10925322Y-35297181D01*
X10925322Y-35353818D01*
X10885274Y-35393867D01*
X10856955Y-35399500D01*
X9908088Y-35399500D01*
X9855762Y-35377826D01*
X4739674Y-30261738D01*
X4718000Y-30209412D01*
X4718000Y-25576687D01*
X4739674Y-25524361D01*
X4792000Y-25502687D01*
X4844326Y-25524361D01*
G37*
%TD.AperFunction*%
%TA.AperFunction,Conductor*%
G36*
X34409867Y-30785221D02*
G01*
X34423089Y-30817141D01*
X34449059Y-30981115D01*
X34449062Y-30981128D01*
X34507451Y-31160829D01*
X34507453Y-31160833D01*
X34544229Y-31233010D01*
X34548672Y-31289472D01*
X34519407Y-31328133D01*
X34466616Y-31363406D01*
X34466613Y-31363409D01*
X34355111Y-31474910D01*
X34355110Y-31474911D01*
X34267503Y-31606025D01*
X34207164Y-31751698D01*
X34207161Y-31751708D01*
X34183445Y-31870940D01*
X34176400Y-31906358D01*
X34176400Y-32064042D01*
X34180154Y-32082912D01*
X34207161Y-32218691D01*
X34207164Y-32218701D01*
X34267503Y-32364374D01*
X34267505Y-32364377D01*
X34267506Y-32364379D01*
X34272615Y-32372025D01*
X34338883Y-32471203D01*
X34355111Y-32495489D01*
X34466611Y-32606989D01*
X34597721Y-32694594D01*
X34597726Y-32694596D01*
X34597725Y-32694596D01*
X34743398Y-32754935D01*
X34743403Y-32754937D01*
X34743407Y-32754937D01*
X34743411Y-32754939D01*
X34764935Y-32759220D01*
X34812028Y-32790685D01*
X34824500Y-32831798D01*
X34824500Y-33298336D01*
X34824501Y-33298347D01*
X34827321Y-33325955D01*
X34811075Y-33380212D01*
X34761222Y-33407090D01*
X34739268Y-33406051D01*
X34676454Y-33393556D01*
X34653042Y-33388900D01*
X34495358Y-33388900D01*
X34451515Y-33397620D01*
X34340708Y-33419661D01*
X34340698Y-33419664D01*
X34195025Y-33480003D01*
X34063911Y-33567610D01*
X33991554Y-33639967D01*
X33939228Y-33661641D01*
X33886902Y-33639967D01*
X33433646Y-33186711D01*
X32971074Y-32724138D01*
X32951072Y-32675849D01*
X32949757Y-32675979D01*
X32949400Y-32672363D01*
X32949400Y-32672358D01*
X32918637Y-32517703D01*
X32892218Y-32453921D01*
X32858296Y-32372025D01*
X32858295Y-32372023D01*
X32858294Y-32372021D01*
X32770689Y-32240911D01*
X32659189Y-32129411D01*
X32650453Y-32123574D01*
X32525057Y-32039787D01*
X32525686Y-32038845D01*
X32492222Y-31998048D01*
X32489297Y-31970440D01*
X32489847Y-31963837D01*
X32493474Y-31950303D01*
X32497800Y-31934158D01*
X32497800Y-31868390D01*
X32498056Y-31865318D01*
X32509723Y-31842676D01*
X32519474Y-31819137D01*
X32522500Y-31817883D01*
X32524000Y-31814973D01*
X32548259Y-31807213D01*
X32571800Y-31797463D01*
X32575767Y-31798415D01*
X32577945Y-31797719D01*
X32582376Y-31800002D01*
X32605395Y-31805529D01*
X32619168Y-31812547D01*
X32619173Y-31812549D01*
X32798871Y-31870937D01*
X32798877Y-31870938D01*
X32798882Y-31870940D01*
X32923306Y-31890646D01*
X32985518Y-31900500D01*
X32985519Y-31900500D01*
X33174482Y-31900500D01*
X33221140Y-31893110D01*
X33361118Y-31870940D01*
X33361125Y-31870937D01*
X33361128Y-31870937D01*
X33540824Y-31812550D01*
X33540826Y-31812548D01*
X33540832Y-31812547D01*
X33709199Y-31726760D01*
X33862073Y-31615690D01*
X33995690Y-31482073D01*
X34106760Y-31329199D01*
X34192547Y-31160832D01*
X34222498Y-31068655D01*
X34250937Y-30981128D01*
X34250937Y-30981125D01*
X34250940Y-30981118D01*
X34276911Y-30817140D01*
X34306504Y-30768850D01*
X34361576Y-30755628D01*
X34409867Y-30785221D01*
G37*
%TD.AperFunction*%
%TA.AperFunction,Conductor*%
G36*
X23357839Y-2638274D02*
G01*
X23379513Y-2690600D01*
X23357839Y-2742926D01*
X19323006Y-6777757D01*
X19270680Y-6799431D01*
X19256246Y-6798009D01*
X19213465Y-6789500D01*
X19006535Y-6789500D01*
X18966385Y-6797486D01*
X18803586Y-6829868D01*
X18803579Y-6829870D01*
X18612401Y-6909059D01*
X18440345Y-7024022D01*
X18440344Y-7024024D01*
X18294024Y-7170344D01*
X18294022Y-7170345D01*
X18179059Y-7342401D01*
X18099870Y-7533579D01*
X18099868Y-7533586D01*
X18059500Y-7736535D01*
X18059500Y-7943464D01*
X18099868Y-8146413D01*
X18099870Y-8146420D01*
X18179059Y-8337598D01*
X18257637Y-8455200D01*
X18294023Y-8509655D01*
X18440345Y-8655977D01*
X18612402Y-8770941D01*
X18803580Y-8850130D01*
X19006535Y-8890500D01*
X19006536Y-8890500D01*
X19213464Y-8890500D01*
X19213465Y-8890500D01*
X19416420Y-8850130D01*
X19607598Y-8770941D01*
X19779655Y-8655977D01*
X19925977Y-8509655D01*
X20040941Y-8337598D01*
X20120130Y-8146420D01*
X20160500Y-7943465D01*
X20160500Y-7736535D01*
X20151990Y-7693752D01*
X20163039Y-7638205D01*
X20172237Y-7626996D01*
X23976407Y-3822828D01*
X26475000Y-3822828D01*
X26481402Y-3882375D01*
X26481403Y-3882380D01*
X26531645Y-4017087D01*
X26531646Y-4017088D01*
X26617811Y-4132188D01*
X26732911Y-4218353D01*
X26732912Y-4218354D01*
X26867619Y-4268596D01*
X26867624Y-4268597D01*
X26927171Y-4275000D01*
X26975000Y-4275000D01*
X26975000Y-3700000D01*
X26475000Y-3700000D01*
X26475000Y-3822828D01*
X23976407Y-3822828D01*
X24809261Y-2989974D01*
X24861587Y-2968300D01*
X26430517Y-2968300D01*
X26482843Y-2989974D01*
X26504517Y-3042300D01*
X26499851Y-3068161D01*
X26481402Y-3117622D01*
X26481402Y-3117624D01*
X26475000Y-3177171D01*
X26475000Y-3300000D01*
X27101000Y-3300000D01*
X27153326Y-3321674D01*
X27175000Y-3374000D01*
X27175000Y-3500000D01*
X27301000Y-3500000D01*
X27353326Y-3521674D01*
X27375000Y-3574000D01*
X27375000Y-4275000D01*
X27422829Y-4275000D01*
X27482375Y-4268597D01*
X27482380Y-4268596D01*
X27617087Y-4218354D01*
X27617088Y-4218353D01*
X27732188Y-4132188D01*
X27818351Y-4017090D01*
X27823570Y-4003100D01*
X27862164Y-3961648D01*
X27918765Y-3959625D01*
X27960217Y-3998219D01*
X27963554Y-4006945D01*
X27981520Y-4064601D01*
X27981522Y-4064607D01*
X28038958Y-4159616D01*
X28069528Y-4210185D01*
X28189815Y-4330472D01*
X28335394Y-4418478D01*
X28497804Y-4469086D01*
X28568384Y-4475500D01*
X28920613Y-4475500D01*
X28972939Y-4497174D01*
X33897591Y-9421826D01*
X33897596Y-9421832D01*
X33900180Y-9424416D01*
X34011984Y-9536220D01*
X34098795Y-9586339D01*
X34148915Y-9615277D01*
X34223095Y-9635153D01*
X34227161Y-9636777D01*
X34244541Y-9653718D01*
X34263804Y-9668500D01*
X34264407Y-9673084D01*
X34267718Y-9676311D01*
X34268027Y-9700582D01*
X34271197Y-9724653D01*
X34268381Y-9728321D01*
X34268441Y-9732943D01*
X34251499Y-9750323D01*
X34236718Y-9769586D01*
X34231309Y-9771035D01*
X34228907Y-9773500D01*
X34221770Y-9773591D01*
X34199718Y-9779500D01*
X31609304Y-9779500D01*
X31609288Y-9779499D01*
X31604758Y-9779499D01*
X31446643Y-9779499D01*
X31446641Y-9779499D01*
X31293918Y-9820421D01*
X31156983Y-9899480D01*
X28823374Y-12233090D01*
X28771048Y-12254764D01*
X28718722Y-12233090D01*
X28669654Y-12184022D01*
X28497598Y-12069059D01*
X28306420Y-11989870D01*
X28306413Y-11989868D01*
X28139818Y-11956731D01*
X28103465Y-11949500D01*
X27896535Y-11949500D01*
X27860182Y-11956731D01*
X27693586Y-11989868D01*
X27693579Y-11989870D01*
X27502401Y-12069059D01*
X27330345Y-12184022D01*
X27330344Y-12184024D01*
X27184024Y-12330344D01*
X27184022Y-12330345D01*
X27069059Y-12502401D01*
X26989870Y-12693579D01*
X26989868Y-12693586D01*
X26949500Y-12896535D01*
X26949500Y-13103465D01*
X26958009Y-13146244D01*
X26989868Y-13306413D01*
X26989870Y-13306420D01*
X27069059Y-13497598D01*
X27181542Y-13665943D01*
X27184023Y-13669655D01*
X27330345Y-13815977D01*
X27502402Y-13930941D01*
X27693580Y-14010130D01*
X27896535Y-14050500D01*
X27896536Y-14050500D01*
X28103464Y-14050500D01*
X28103465Y-14050500D01*
X28306420Y-14010130D01*
X28497598Y-13930941D01*
X28516388Y-13918386D01*
X28571937Y-13907337D01*
X28619029Y-13938803D01*
X28631500Y-13979915D01*
X28631500Y-29553655D01*
X28609826Y-29605981D01*
X28557500Y-29627655D01*
X28523905Y-29619590D01*
X28460824Y-29587449D01*
X28281128Y-29529062D01*
X28281115Y-29529059D01*
X28094482Y-29499500D01*
X28094481Y-29499500D01*
X27905519Y-29499500D01*
X27905518Y-29499500D01*
X27718884Y-29529059D01*
X27718871Y-29529062D01*
X27597167Y-29568607D01*
X27540705Y-29564163D01*
X27503922Y-29521096D01*
X27500300Y-29498229D01*
X27500300Y-16900743D01*
X27486081Y-16847676D01*
X27486081Y-16847675D01*
X27459378Y-16748019D01*
X27459377Y-16748015D01*
X27412083Y-16666100D01*
X27380320Y-16611084D01*
X27268516Y-16499280D01*
X27265937Y-16496701D01*
X27265926Y-16496691D01*
X24703416Y-13934181D01*
X24681742Y-13881855D01*
X24703416Y-13829529D01*
X24755742Y-13807855D01*
X24796853Y-13820325D01*
X24962402Y-13930941D01*
X25153580Y-14010130D01*
X25356535Y-14050500D01*
X25356536Y-14050500D01*
X25563464Y-14050500D01*
X25563465Y-14050500D01*
X25766420Y-14010130D01*
X25957598Y-13930941D01*
X26129655Y-13815977D01*
X26275977Y-13669655D01*
X26390941Y-13497598D01*
X26470130Y-13306420D01*
X26510500Y-13103465D01*
X26510500Y-12896535D01*
X26470130Y-12693580D01*
X26390941Y-12502402D01*
X26275977Y-12330345D01*
X26129655Y-12184023D01*
X26127754Y-12182753D01*
X25957598Y-12069059D01*
X25766420Y-11989870D01*
X25766413Y-11989868D01*
X25599818Y-11956731D01*
X25563465Y-11949500D01*
X25356535Y-11949500D01*
X25320182Y-11956731D01*
X25153586Y-11989868D01*
X25153579Y-11989870D01*
X24962401Y-12069059D01*
X24790345Y-12184022D01*
X24790344Y-12184024D01*
X24644024Y-12330344D01*
X24644022Y-12330345D01*
X24529059Y-12502401D01*
X24449870Y-12693579D01*
X24449868Y-12693586D01*
X24409500Y-12896535D01*
X24409500Y-13103465D01*
X24418009Y-13146244D01*
X24449868Y-13306413D01*
X24449870Y-13306420D01*
X24529059Y-13497598D01*
X24639673Y-13663145D01*
X24650722Y-13718694D01*
X24619256Y-13765786D01*
X24563707Y-13776835D01*
X24525818Y-13756583D01*
X23982242Y-13213007D01*
X23960568Y-13160681D01*
X23961989Y-13146251D01*
X23970500Y-13103465D01*
X23970500Y-12896535D01*
X23930130Y-12693580D01*
X23850941Y-12502402D01*
X23735977Y-12330345D01*
X23589655Y-12184023D01*
X23587754Y-12182753D01*
X23417598Y-12069059D01*
X23226420Y-11989870D01*
X23226413Y-11989868D01*
X23059818Y-11956731D01*
X23023465Y-11949500D01*
X22816535Y-11949500D01*
X22780182Y-11956731D01*
X22613586Y-11989868D01*
X22613579Y-11989870D01*
X22422401Y-12069059D01*
X22250345Y-12184022D01*
X22250344Y-12184024D01*
X22120628Y-12313740D01*
X22068302Y-12335414D01*
X22015976Y-12313740D01*
X20182174Y-10479938D01*
X20160500Y-10427612D01*
X20160500Y-10276535D01*
X20135913Y-10152928D01*
X20120130Y-10073580D01*
X20040941Y-9882402D01*
X19925977Y-9710345D01*
X19779655Y-9564023D01*
X19607598Y-9449059D01*
X19416420Y-9369870D01*
X19416413Y-9369868D01*
X19263516Y-9339455D01*
X19213465Y-9329500D01*
X19006535Y-9329500D01*
X18966385Y-9337486D01*
X18803586Y-9369868D01*
X18803579Y-9369870D01*
X18612401Y-9449059D01*
X18440345Y-9564022D01*
X18440344Y-9564024D01*
X18294024Y-9710344D01*
X18294022Y-9710345D01*
X18179059Y-9882401D01*
X18099870Y-10073579D01*
X18099868Y-10073586D01*
X18059500Y-10276535D01*
X18059500Y-10483464D01*
X18099868Y-10686413D01*
X18099870Y-10686420D01*
X18179059Y-10877598D01*
X18266229Y-11008059D01*
X18294023Y-11049655D01*
X18440345Y-11195977D01*
X18612402Y-11310941D01*
X18803580Y-11390130D01*
X19006535Y-11430500D01*
X19006536Y-11430500D01*
X19213463Y-11430500D01*
X19213465Y-11430500D01*
X19358838Y-11401583D01*
X19414385Y-11412632D01*
X19425599Y-11421835D01*
X21210926Y-13207161D01*
X21232600Y-13259487D01*
X21232600Y-24951196D01*
X21232599Y-24951214D01*
X21232599Y-25113859D01*
X21273521Y-25266581D01*
X21273522Y-25266583D01*
X21273523Y-25266585D01*
X21300656Y-25313580D01*
X21352580Y-25403516D01*
X21468599Y-25519535D01*
X21468605Y-25519540D01*
X25334514Y-29385449D01*
X25356188Y-29437775D01*
X25334514Y-29490101D01*
X25293765Y-29510864D01*
X25178882Y-29529060D01*
X25178871Y-29529062D01*
X24999175Y-29587449D01*
X24830801Y-29673239D01*
X24677931Y-29784306D01*
X24544306Y-29917931D01*
X24433239Y-30070801D01*
X24347449Y-30239175D01*
X24289062Y-30418871D01*
X24289059Y-30418884D01*
X24263089Y-30582858D01*
X24233496Y-30631149D01*
X24178424Y-30644371D01*
X24130133Y-30614778D01*
X24116911Y-30582858D01*
X24090940Y-30418884D01*
X24090937Y-30418871D01*
X24032550Y-30239175D01*
X24032547Y-30239171D01*
X24032547Y-30239168D01*
X23946760Y-30070801D01*
X23835690Y-29917927D01*
X23702073Y-29784310D01*
X23702070Y-29784307D01*
X23702068Y-29784306D01*
X23549198Y-29673239D01*
X23380824Y-29587449D01*
X23201128Y-29529062D01*
X23201115Y-29529059D01*
X23014482Y-29499500D01*
X23014481Y-29499500D01*
X22825519Y-29499500D01*
X22825518Y-29499500D01*
X22638884Y-29529059D01*
X22638871Y-29529062D01*
X22459175Y-29587449D01*
X22290801Y-29673239D01*
X22137931Y-29784306D01*
X22004306Y-29917931D01*
X21893239Y-30070801D01*
X21807449Y-30239175D01*
X21749062Y-30418871D01*
X21749059Y-30418884D01*
X21723089Y-30582858D01*
X21693496Y-30631149D01*
X21638424Y-30644371D01*
X21590133Y-30614778D01*
X21576911Y-30582858D01*
X21550940Y-30418884D01*
X21550937Y-30418871D01*
X21492550Y-30239175D01*
X21492547Y-30239171D01*
X21492547Y-30239168D01*
X21406760Y-30070801D01*
X21295690Y-29917927D01*
X21162073Y-29784310D01*
X21162070Y-29784307D01*
X21162068Y-29784306D01*
X21009198Y-29673239D01*
X20840824Y-29587449D01*
X20661128Y-29529062D01*
X20661115Y-29529059D01*
X20474482Y-29499500D01*
X20474481Y-29499500D01*
X20285519Y-29499500D01*
X20285518Y-29499500D01*
X20098884Y-29529059D01*
X20098871Y-29529062D01*
X19919175Y-29587449D01*
X19750801Y-29673239D01*
X19597931Y-29784306D01*
X19464306Y-29917931D01*
X19353239Y-30070801D01*
X19267450Y-30239173D01*
X19233122Y-30344825D01*
X19196339Y-30387892D01*
X19139876Y-30392335D01*
X19110418Y-30374283D01*
X16792670Y-28056535D01*
X18059500Y-28056535D01*
X18059500Y-28263464D01*
X18099868Y-28466413D01*
X18099870Y-28466420D01*
X18179059Y-28657598D01*
X18203094Y-28693570D01*
X18294023Y-28829655D01*
X18440345Y-28975977D01*
X18612402Y-29090941D01*
X18803580Y-29170130D01*
X19006535Y-29210500D01*
X19006536Y-29210500D01*
X19213464Y-29210500D01*
X19213465Y-29210500D01*
X19416420Y-29170130D01*
X19607598Y-29090941D01*
X19779655Y-28975977D01*
X19925977Y-28829655D01*
X20040941Y-28657598D01*
X20120130Y-28466420D01*
X20160500Y-28263465D01*
X20160500Y-28056535D01*
X20120130Y-27853580D01*
X20040941Y-27662402D01*
X19925977Y-27490345D01*
X19779655Y-27344023D01*
X19607598Y-27229059D01*
X19416420Y-27149870D01*
X19416413Y-27149868D01*
X19245685Y-27115909D01*
X19213465Y-27109500D01*
X19006535Y-27109500D01*
X18974315Y-27115909D01*
X18803586Y-27149868D01*
X18803579Y-27149870D01*
X18612401Y-27229059D01*
X18440345Y-27344022D01*
X18440344Y-27344024D01*
X18294024Y-27490344D01*
X18294022Y-27490345D01*
X18179059Y-27662401D01*
X18099870Y-27853579D01*
X18099868Y-27853586D01*
X18059500Y-28056535D01*
X16792670Y-28056535D01*
X14252670Y-25516535D01*
X18059500Y-25516535D01*
X18059500Y-25723464D01*
X18099868Y-25926413D01*
X18099870Y-25926420D01*
X18179059Y-26117598D01*
X18286548Y-26278469D01*
X18294023Y-26289655D01*
X18440345Y-26435977D01*
X18612402Y-26550941D01*
X18803580Y-26630130D01*
X19006535Y-26670500D01*
X19006536Y-26670500D01*
X19213464Y-26670500D01*
X19213465Y-26670500D01*
X19416420Y-26630130D01*
X19607598Y-26550941D01*
X19779655Y-26435977D01*
X19925977Y-26289655D01*
X20040941Y-26117598D01*
X20120130Y-25926420D01*
X20160500Y-25723465D01*
X20160500Y-25516535D01*
X20120130Y-25313580D01*
X20040941Y-25122402D01*
X19925977Y-24950345D01*
X19779655Y-24804023D01*
X19762445Y-24792524D01*
X19607598Y-24689059D01*
X19416420Y-24609870D01*
X19416413Y-24609868D01*
X19244192Y-24575612D01*
X19213465Y-24569500D01*
X19006535Y-24569500D01*
X18975808Y-24575612D01*
X18803586Y-24609868D01*
X18803579Y-24609870D01*
X18612401Y-24689059D01*
X18440345Y-24804022D01*
X18440344Y-24804024D01*
X18294024Y-24950344D01*
X18294022Y-24950345D01*
X18179059Y-25122401D01*
X18099870Y-25313579D01*
X18099870Y-25313580D01*
X18059500Y-25516535D01*
X14252670Y-25516535D01*
X13813740Y-25077605D01*
X13813738Y-25077602D01*
X13697716Y-24961580D01*
X13608722Y-24910200D01*
X13608721Y-24910198D01*
X13560786Y-24882523D01*
X13560781Y-24882521D01*
X13408059Y-24841599D01*
X13408057Y-24841599D01*
X13249943Y-24841599D01*
X13245413Y-24841599D01*
X13245397Y-24841600D01*
X9714388Y-24841600D01*
X9662062Y-24819926D01*
X7818671Y-22976535D01*
X18059500Y-22976535D01*
X18059500Y-23183464D01*
X18099868Y-23386413D01*
X18099870Y-23386420D01*
X18179059Y-23577598D01*
X18294023Y-23749655D01*
X18440345Y-23895977D01*
X18612402Y-24010941D01*
X18803580Y-24090130D01*
X19006535Y-24130500D01*
X19006536Y-24130500D01*
X19213464Y-24130500D01*
X19213465Y-24130500D01*
X19416420Y-24090130D01*
X19607598Y-24010941D01*
X19779655Y-23895977D01*
X19925977Y-23749655D01*
X20040941Y-23577598D01*
X20120130Y-23386420D01*
X20160500Y-23183465D01*
X20160500Y-22976535D01*
X20120130Y-22773580D01*
X20040941Y-22582402D01*
X19925977Y-22410345D01*
X19779655Y-22264023D01*
X19761607Y-22251964D01*
X19607598Y-22149059D01*
X19416420Y-22069870D01*
X19416413Y-22069868D01*
X19239361Y-22034651D01*
X19213465Y-22029500D01*
X19006535Y-22029500D01*
X18980639Y-22034651D01*
X18803586Y-22069868D01*
X18803579Y-22069870D01*
X18612401Y-22149059D01*
X18440345Y-22264022D01*
X18440344Y-22264024D01*
X18294024Y-22410344D01*
X18294022Y-22410345D01*
X18179059Y-22582401D01*
X18099870Y-22773579D01*
X18099868Y-22773586D01*
X18059500Y-22976535D01*
X7818671Y-22976535D01*
X7671707Y-22829571D01*
X7650033Y-22777245D01*
X7671707Y-22724919D01*
X7687767Y-22712741D01*
X7687881Y-22712676D01*
X7801510Y-22626509D01*
X7819279Y-22603076D01*
X7868165Y-22574478D01*
X7922956Y-22588823D01*
X7941227Y-22608940D01*
X7998414Y-22701655D01*
X8000719Y-22705391D01*
X8119609Y-22824281D01*
X8262713Y-22912549D01*
X8422315Y-22965436D01*
X8520826Y-22975500D01*
X8520831Y-22975500D01*
X9054169Y-22975500D01*
X9054174Y-22975500D01*
X9152685Y-22965436D01*
X9312287Y-22912549D01*
X9455391Y-22824281D01*
X9574281Y-22705391D01*
X9662549Y-22562287D01*
X9715436Y-22402685D01*
X9723594Y-22322828D01*
X14475000Y-22322828D01*
X14481402Y-22382375D01*
X14481403Y-22382380D01*
X14531645Y-22517087D01*
X14531646Y-22517088D01*
X14617811Y-22632188D01*
X14732911Y-22718353D01*
X14732912Y-22718354D01*
X14867619Y-22768596D01*
X14867624Y-22768597D01*
X14927171Y-22775000D01*
X14975000Y-22775000D01*
X14975000Y-22200000D01*
X14475000Y-22200000D01*
X14475000Y-22322828D01*
X9723594Y-22322828D01*
X9725500Y-22304174D01*
X9725500Y-21941887D01*
X9747174Y-21889561D01*
X9959564Y-21677171D01*
X14475000Y-21677171D01*
X14475000Y-21800000D01*
X14975000Y-21800000D01*
X14975000Y-21225000D01*
X14927171Y-21225000D01*
X14867624Y-21231402D01*
X14867619Y-21231403D01*
X14732912Y-21281645D01*
X14732911Y-21281646D01*
X14617811Y-21367811D01*
X14531646Y-21482911D01*
X14531645Y-21482912D01*
X14481403Y-21617619D01*
X14481402Y-21617624D01*
X14475000Y-21677171D01*
X9959564Y-21677171D01*
X11818080Y-19818655D01*
X13935520Y-17701216D01*
X14014577Y-17564285D01*
X14055500Y-17411559D01*
X14055501Y-17411559D01*
X14055501Y-17248913D01*
X14055500Y-17248895D01*
X14055500Y-14594487D01*
X14077174Y-14542161D01*
X14123974Y-14495361D01*
X14176300Y-14473687D01*
X14228626Y-14495361D01*
X14250300Y-14547687D01*
X14250300Y-15070196D01*
X14250299Y-15070214D01*
X14250299Y-15232859D01*
X14291221Y-15385581D01*
X14291223Y-15385586D01*
X14292328Y-15387499D01*
X14302455Y-15405039D01*
X14302456Y-15405042D01*
X14302457Y-15405042D01*
X14370280Y-15522516D01*
X14486299Y-15638535D01*
X14486305Y-15638540D01*
X14987766Y-16140001D01*
X15006502Y-16171681D01*
X15048256Y-16315399D01*
X15092931Y-16390940D01*
X15131919Y-16456865D01*
X15248135Y-16573081D01*
X15303504Y-16605826D01*
X15378213Y-16650009D01*
X15389602Y-16656744D01*
X15547431Y-16702598D01*
X15584306Y-16705500D01*
X17039800Y-16705500D01*
X17092126Y-16727174D01*
X17113800Y-16779500D01*
X17113800Y-16844305D01*
X17092126Y-16896631D01*
X17039800Y-16918305D01*
X17016524Y-16914549D01*
X17002800Y-16910001D01*
X16968535Y-16906500D01*
X16900010Y-16899500D01*
X15099990Y-16899500D01*
X15038317Y-16905800D01*
X14997200Y-16910001D01*
X14830665Y-16965186D01*
X14681344Y-17057288D01*
X14557288Y-17181344D01*
X14465186Y-17330665D01*
X14410001Y-17497200D01*
X14399500Y-17599993D01*
X14399500Y-19400006D01*
X14410001Y-19502799D01*
X14423210Y-19542661D01*
X14465186Y-19669335D01*
X14557288Y-19818656D01*
X14681344Y-19942712D01*
X14830665Y-20034814D01*
X14997202Y-20089999D01*
X15099990Y-20100500D01*
X15099995Y-20100500D01*
X16900005Y-20100500D01*
X16900010Y-20100500D01*
X17002798Y-20089999D01*
X17016523Y-20085451D01*
X17073010Y-20089566D01*
X17110044Y-20132418D01*
X17113800Y-20155695D01*
X17113800Y-20831313D01*
X17092126Y-20883639D01*
X16972939Y-21002826D01*
X16920613Y-21024500D01*
X16568376Y-21024500D01*
X16497809Y-21030913D01*
X16497808Y-21030913D01*
X16497805Y-21030913D01*
X16497804Y-21030914D01*
X16335394Y-21081522D01*
X16335392Y-21081522D01*
X16335392Y-21081523D01*
X16189814Y-21169528D01*
X16069528Y-21289814D01*
X15981522Y-21435392D01*
X15981520Y-21435398D01*
X15963554Y-21493054D01*
X15927295Y-21536563D01*
X15870890Y-21541688D01*
X15827381Y-21505429D01*
X15823571Y-21496900D01*
X15818353Y-21482911D01*
X15732188Y-21367811D01*
X15617088Y-21281646D01*
X15617087Y-21281645D01*
X15482380Y-21231403D01*
X15482375Y-21231402D01*
X15422829Y-21225000D01*
X15375000Y-21225000D01*
X15375000Y-22775000D01*
X15422829Y-22775000D01*
X15482375Y-22768597D01*
X15482380Y-22768596D01*
X15617087Y-22718354D01*
X15617088Y-22718353D01*
X15732188Y-22632188D01*
X15818351Y-22517090D01*
X15823570Y-22503100D01*
X15862164Y-22461648D01*
X15918765Y-22459625D01*
X15960217Y-22498219D01*
X15963554Y-22506945D01*
X15981520Y-22564601D01*
X15981522Y-22564607D01*
X16033209Y-22650106D01*
X16069528Y-22710185D01*
X16189815Y-22830472D01*
X16335394Y-22918478D01*
X16497804Y-22969086D01*
X16568384Y-22975500D01*
X16568386Y-22975500D01*
X17081614Y-22975500D01*
X17081616Y-22975500D01*
X17152196Y-22969086D01*
X17314606Y-22918478D01*
X17324414Y-22912549D01*
X17329337Y-22909573D01*
X17329338Y-22909572D01*
X17460185Y-22830472D01*
X17580472Y-22710185D01*
X17668478Y-22564606D01*
X17719086Y-22402196D01*
X17725500Y-22331616D01*
X17725500Y-21979386D01*
X17747173Y-21927061D01*
X18083013Y-21591221D01*
X18083016Y-21591220D01*
X18194820Y-21479416D01*
X18266087Y-21355977D01*
X18273877Y-21342485D01*
X18275039Y-21338145D01*
X18278553Y-21331240D01*
X18294614Y-21317504D01*
X18307471Y-21300729D01*
X18315466Y-21299671D01*
X18321596Y-21294430D01*
X18342665Y-21296074D01*
X18363620Y-21293303D01*
X18372452Y-21298399D01*
X18378062Y-21298837D01*
X18382786Y-21304361D01*
X18396835Y-21312467D01*
X18440345Y-21355977D01*
X18612402Y-21470941D01*
X18803580Y-21550130D01*
X19006535Y-21590500D01*
X19006536Y-21590500D01*
X19213464Y-21590500D01*
X19213465Y-21590500D01*
X19416420Y-21550130D01*
X19607598Y-21470941D01*
X19779655Y-21355977D01*
X19925977Y-21209655D01*
X20040941Y-21037598D01*
X20120130Y-20846420D01*
X20160500Y-20643465D01*
X20160500Y-20436535D01*
X20120130Y-20233580D01*
X20040941Y-20042402D01*
X19925977Y-19870345D01*
X19779655Y-19724023D01*
X19778486Y-19723242D01*
X19607598Y-19609059D01*
X19416420Y-19529870D01*
X19416413Y-19529868D01*
X19263516Y-19499455D01*
X19213465Y-19489500D01*
X19006535Y-19489500D01*
X18966385Y-19497486D01*
X18803586Y-19529868D01*
X18803579Y-19529870D01*
X18612401Y-19609059D01*
X18440345Y-19724022D01*
X18437534Y-19726330D01*
X18436553Y-19725135D01*
X18388800Y-19744916D01*
X18336474Y-19723242D01*
X18314800Y-19670916D01*
X18314800Y-18869084D01*
X18336474Y-18816758D01*
X18388800Y-18795084D01*
X18436553Y-18814864D01*
X18437534Y-18813670D01*
X18440344Y-18815976D01*
X18440345Y-18815977D01*
X18612402Y-18930941D01*
X18803580Y-19010130D01*
X19006535Y-19050500D01*
X19006536Y-19050500D01*
X19213464Y-19050500D01*
X19213465Y-19050500D01*
X19416420Y-19010130D01*
X19607598Y-18930941D01*
X19779655Y-18815977D01*
X19925977Y-18669655D01*
X20040941Y-18497598D01*
X20120130Y-18306420D01*
X20160500Y-18103465D01*
X20160500Y-17896535D01*
X20120130Y-17693580D01*
X20040941Y-17502402D01*
X19925977Y-17330345D01*
X19779655Y-17184023D01*
X19778486Y-17183242D01*
X19607598Y-17069059D01*
X19416420Y-16989870D01*
X19416413Y-16989868D01*
X19229527Y-16952695D01*
X19213465Y-16949500D01*
X19006535Y-16949500D01*
X18990473Y-16952695D01*
X18803586Y-16989868D01*
X18803579Y-16989870D01*
X18612401Y-17069059D01*
X18440345Y-17184022D01*
X18437534Y-17186330D01*
X18436553Y-17185135D01*
X18388800Y-17204916D01*
X18336474Y-17183242D01*
X18314800Y-17130916D01*
X18314800Y-16329084D01*
X18336474Y-16276758D01*
X18388800Y-16255084D01*
X18436553Y-16274864D01*
X18437534Y-16273670D01*
X18440344Y-16275976D01*
X18440345Y-16275977D01*
X18612402Y-16390941D01*
X18803580Y-16470130D01*
X19006535Y-16510500D01*
X19006536Y-16510500D01*
X19213464Y-16510500D01*
X19213465Y-16510500D01*
X19416420Y-16470130D01*
X19607598Y-16390941D01*
X19779655Y-16275977D01*
X19925977Y-16129655D01*
X20040941Y-15957598D01*
X20120130Y-15766420D01*
X20160500Y-15563465D01*
X20160500Y-15356535D01*
X20120130Y-15153580D01*
X20040941Y-14962402D01*
X19925977Y-14790345D01*
X19779655Y-14644023D01*
X19717955Y-14602797D01*
X19607598Y-14529059D01*
X19416420Y-14449870D01*
X19416413Y-14449868D01*
X19263516Y-14419455D01*
X19213465Y-14409500D01*
X19006535Y-14409500D01*
X18966385Y-14417486D01*
X18803586Y-14449868D01*
X18803579Y-14449870D01*
X18612401Y-14529059D01*
X18440345Y-14644022D01*
X18440344Y-14644024D01*
X18294024Y-14790344D01*
X18294022Y-14790345D01*
X18179057Y-14962403D01*
X18161975Y-15003642D01*
X18121926Y-15043690D01*
X18065289Y-15043688D01*
X18041284Y-15027649D01*
X17923828Y-14910192D01*
X17801616Y-14787980D01*
X17693743Y-14725700D01*
X17693742Y-14725698D01*
X17664686Y-14708923D01*
X17664681Y-14708921D01*
X17511959Y-14667999D01*
X17511957Y-14667999D01*
X17353843Y-14667999D01*
X17349313Y-14667999D01*
X17349297Y-14668000D01*
X15906687Y-14668000D01*
X15854361Y-14646326D01*
X15832687Y-14594000D01*
X15854361Y-14541674D01*
X16208861Y-14187174D01*
X16261187Y-14165500D01*
X17365693Y-14165500D01*
X17365694Y-14165500D01*
X17402569Y-14162598D01*
X17560398Y-14116744D01*
X17701865Y-14033081D01*
X17818081Y-13916865D01*
X17901744Y-13775398D01*
X17947598Y-13617569D01*
X17950500Y-13580694D01*
X17950500Y-13226820D01*
X17972174Y-13174494D01*
X18024500Y-13152820D01*
X18076826Y-13174494D01*
X18097078Y-13212384D01*
X18099868Y-13226413D01*
X18099870Y-13226420D01*
X18179059Y-13417598D01*
X18294023Y-13589655D01*
X18440345Y-13735977D01*
X18612402Y-13850941D01*
X18803580Y-13930130D01*
X19006535Y-13970500D01*
X19006536Y-13970500D01*
X19213464Y-13970500D01*
X19213465Y-13970500D01*
X19416420Y-13930130D01*
X19607598Y-13850941D01*
X19779655Y-13735977D01*
X19925977Y-13589655D01*
X20040941Y-13417598D01*
X20120130Y-13226420D01*
X20160500Y-13023465D01*
X20160500Y-12816535D01*
X20120130Y-12613580D01*
X20040941Y-12422402D01*
X19925977Y-12250345D01*
X19779655Y-12104023D01*
X19751831Y-12085432D01*
X19607598Y-11989059D01*
X19416420Y-11909870D01*
X19416413Y-11909868D01*
X19262763Y-11879306D01*
X19213465Y-11869500D01*
X19006535Y-11869500D01*
X18966385Y-11877486D01*
X18803586Y-11909868D01*
X18803579Y-11909870D01*
X18612401Y-11989059D01*
X18437612Y-12105849D01*
X18382063Y-12116898D01*
X18334971Y-12085432D01*
X18322500Y-12044320D01*
X18322500Y-11692541D01*
X18322499Y-11692540D01*
X18320371Y-11684600D01*
X18281577Y-11539816D01*
X18202520Y-11402884D01*
X18090716Y-11291080D01*
X18088137Y-11288501D01*
X18088126Y-11288491D01*
X17973840Y-11174205D01*
X17973838Y-11174202D01*
X17857815Y-11058179D01*
X17771004Y-11008060D01*
X17771002Y-11008059D01*
X17720888Y-10979124D01*
X17720881Y-10979121D01*
X17568159Y-10938199D01*
X17568157Y-10938199D01*
X17410043Y-10938199D01*
X17405513Y-10938199D01*
X17405497Y-10938200D01*
X14500140Y-10938200D01*
X14347418Y-10979121D01*
X14347413Y-10979123D01*
X14297295Y-11008060D01*
X14210483Y-11058180D01*
X13126826Y-12141838D01*
X13074500Y-12163512D01*
X13022174Y-12141838D01*
X13000500Y-12089512D01*
X13000500Y-11879306D01*
X12999728Y-11869500D01*
X12997598Y-11842431D01*
X12951744Y-11684602D01*
X12868081Y-11543135D01*
X12751865Y-11426919D01*
X12701616Y-11397202D01*
X12610399Y-11343256D01*
X12452571Y-11297402D01*
X12427985Y-11295467D01*
X12415694Y-11294500D01*
X12415693Y-11294500D01*
X11754387Y-11294500D01*
X11702061Y-11272826D01*
X11680387Y-11220500D01*
X11702061Y-11168174D01*
X20231961Y-2638274D01*
X20284287Y-2616600D01*
X23305513Y-2616600D01*
X23357839Y-2638274D01*
G37*
%TD.AperFunction*%
%TA.AperFunction,Conductor*%
G36*
X44038281Y-8674882D02*
G01*
X44063329Y-8699930D01*
X44069528Y-8710185D01*
X44189816Y-8830473D01*
X44193340Y-8833234D01*
X44192273Y-8834595D01*
X44222348Y-8875458D01*
X44224500Y-8893176D01*
X44224500Y-11793912D01*
X44202826Y-11846238D01*
X43519480Y-12529583D01*
X43472254Y-12611383D01*
X43472251Y-12611387D01*
X43471606Y-12612504D01*
X43426671Y-12646980D01*
X43407523Y-12649500D01*
X43102127Y-12649500D01*
X43042514Y-12655909D01*
X42907670Y-12706202D01*
X42907669Y-12706203D01*
X42792454Y-12792454D01*
X42706203Y-12907669D01*
X42706202Y-12907670D01*
X42655910Y-13042512D01*
X42655909Y-13042517D01*
X42649500Y-13102126D01*
X42649500Y-14897873D01*
X42655909Y-14957485D01*
X42706202Y-15092329D01*
X42706203Y-15092330D01*
X42706482Y-15092703D01*
X42792454Y-15207546D01*
X42875882Y-15270000D01*
X42907669Y-15293796D01*
X42907670Y-15293797D01*
X43018605Y-15335172D01*
X43042517Y-15344091D01*
X43102127Y-15350500D01*
X43407522Y-15350499D01*
X43416761Y-15354326D01*
X43426675Y-15353021D01*
X43441999Y-15364780D01*
X43459848Y-15372173D01*
X43471608Y-15387499D01*
X43491083Y-15421231D01*
X43498475Y-15477384D01*
X43463997Y-15522317D01*
X43460594Y-15524165D01*
X43397264Y-15556435D01*
X43340511Y-15597667D01*
X43340511Y-15597668D01*
X43814823Y-16071980D01*
X43807007Y-16074075D01*
X43692993Y-16139901D01*
X43599901Y-16232993D01*
X43534075Y-16347007D01*
X43531980Y-16354823D01*
X43057668Y-15880511D01*
X43057667Y-15880511D01*
X43016431Y-15937268D01*
X42934250Y-16098558D01*
X42878319Y-16270697D01*
X42878316Y-16270710D01*
X42850000Y-16449491D01*
X42850000Y-16630508D01*
X42878316Y-16809289D01*
X42878319Y-16809302D01*
X42934251Y-16981443D01*
X43016431Y-17142728D01*
X43057668Y-17199487D01*
X43531980Y-16725174D01*
X43534075Y-16732993D01*
X43599901Y-16847007D01*
X43692993Y-16940099D01*
X43807007Y-17005925D01*
X43814822Y-17008019D01*
X43340511Y-17482331D01*
X43397266Y-17523566D01*
X43558556Y-17605748D01*
X43558555Y-17605748D01*
X43646161Y-17634212D01*
X43689228Y-17670994D01*
X43693672Y-17727457D01*
X43656890Y-17770524D01*
X43646162Y-17774968D01*
X43481592Y-17828441D01*
X43292183Y-17924948D01*
X43120212Y-18049893D01*
X43120208Y-18049896D01*
X42969896Y-18200208D01*
X42969893Y-18200211D01*
X42969893Y-18200212D01*
X42844948Y-18372183D01*
X42748440Y-18561593D01*
X42682756Y-18763746D01*
X42682753Y-18763759D01*
X42649500Y-18973711D01*
X42649500Y-19186288D01*
X42682753Y-19396240D01*
X42682756Y-19396253D01*
X42748440Y-19598406D01*
X42748442Y-19598411D01*
X42748443Y-19598412D01*
X42813620Y-19726330D01*
X42844948Y-19787814D01*
X42931095Y-19906389D01*
X42944316Y-19961461D01*
X42923553Y-20002210D01*
X40922937Y-22002826D01*
X40870611Y-22024500D01*
X40501663Y-22024500D01*
X40501657Y-22024500D01*
X40501656Y-22024501D01*
X40491064Y-22025583D01*
X40402291Y-22034651D01*
X40402286Y-22034652D01*
X40241304Y-22087996D01*
X40096956Y-22177031D01*
X39977030Y-22296957D01*
X39938176Y-22359949D01*
X39892259Y-22393105D01*
X39836345Y-22384082D01*
X39828876Y-22378177D01*
X39828755Y-22378338D01*
X39709726Y-22288075D01*
X39575470Y-22235132D01*
X39491103Y-22225000D01*
X39425000Y-22225000D01*
X39425000Y-23775000D01*
X39491103Y-23775000D01*
X39575470Y-23764867D01*
X39709726Y-23711924D01*
X39828755Y-23621662D01*
X39830185Y-23623548D01*
X39875173Y-23604899D01*
X39927505Y-23626558D01*
X39938177Y-23640051D01*
X39977031Y-23703043D01*
X40096957Y-23822969D01*
X40139347Y-23849115D01*
X40172505Y-23895031D01*
X40174500Y-23912098D01*
X40174500Y-24958480D01*
X40152826Y-25010806D01*
X40107288Y-25056344D01*
X40015186Y-25205666D01*
X39965286Y-25356252D01*
X39928253Y-25399104D01*
X39871765Y-25403219D01*
X39828913Y-25366186D01*
X39826201Y-25360122D01*
X39783922Y-25252907D01*
X39692564Y-25132435D01*
X39572092Y-25041077D01*
X39431443Y-24985614D01*
X39343061Y-24975000D01*
X39250000Y-24975000D01*
X39250000Y-25926000D01*
X39228326Y-25978326D01*
X39176000Y-26000000D01*
X38924000Y-26000000D01*
X38871674Y-25978326D01*
X38850000Y-25926000D01*
X38850000Y-24975000D01*
X38756939Y-24975000D01*
X38668556Y-24985614D01*
X38527905Y-25041078D01*
X38410913Y-25129797D01*
X38356124Y-25144144D01*
X38307236Y-25115546D01*
X38292200Y-25070833D01*
X38292200Y-23966728D01*
X38292201Y-23966715D01*
X38292201Y-23802641D01*
X38292200Y-23802640D01*
X38251278Y-23649918D01*
X38251275Y-23649911D01*
X38237791Y-23626558D01*
X38222339Y-23599795D01*
X38172220Y-23512984D01*
X38060416Y-23401180D01*
X38057837Y-23398601D01*
X38057826Y-23398591D01*
X37952242Y-23293007D01*
X37951453Y-23291103D01*
X38475000Y-23291103D01*
X38485132Y-23375470D01*
X38538075Y-23509726D01*
X38625278Y-23624720D01*
X38625279Y-23624721D01*
X38740273Y-23711924D01*
X38874529Y-23764867D01*
X38958897Y-23775000D01*
X39025000Y-23775000D01*
X39025000Y-23200000D01*
X38475000Y-23200000D01*
X38475000Y-23291103D01*
X37951453Y-23291103D01*
X37930568Y-23240681D01*
X37931989Y-23226251D01*
X37940500Y-23183465D01*
X37940500Y-22976535D01*
X37900130Y-22773580D01*
X37873337Y-22708896D01*
X38475000Y-22708896D01*
X38475000Y-22800000D01*
X39025000Y-22800000D01*
X39025000Y-22225000D01*
X38958897Y-22225000D01*
X38874529Y-22235132D01*
X38740273Y-22288075D01*
X38625279Y-22375278D01*
X38625278Y-22375279D01*
X38538075Y-22490273D01*
X38485132Y-22624529D01*
X38475000Y-22708896D01*
X37873337Y-22708896D01*
X37820941Y-22582402D01*
X37705977Y-22410345D01*
X37559655Y-22264023D01*
X37541607Y-22251964D01*
X37387598Y-22149059D01*
X37196420Y-22069870D01*
X37196413Y-22069868D01*
X37019361Y-22034651D01*
X36993465Y-22029500D01*
X36786535Y-22029500D01*
X36760639Y-22034651D01*
X36583586Y-22069868D01*
X36583579Y-22069870D01*
X36392401Y-22149059D01*
X36220345Y-22264022D01*
X36220344Y-22264024D01*
X36074024Y-22410344D01*
X36074022Y-22410345D01*
X35959059Y-22582401D01*
X35879870Y-22773579D01*
X35879868Y-22773586D01*
X35839500Y-22976535D01*
X35839500Y-23183464D01*
X35879868Y-23386413D01*
X35879870Y-23386420D01*
X35959059Y-23577598D01*
X36074023Y-23749655D01*
X36220345Y-23895977D01*
X36392402Y-24010941D01*
X36583580Y-24090130D01*
X36786535Y-24130500D01*
X36786536Y-24130500D01*
X36993462Y-24130500D01*
X36993465Y-24130500D01*
X37002763Y-24128650D01*
X37058311Y-24139699D01*
X37089778Y-24186790D01*
X37091200Y-24201228D01*
X37091200Y-27035500D01*
X37069526Y-27087826D01*
X37017200Y-27109500D01*
X36292126Y-27109500D01*
X36232514Y-27115909D01*
X36097670Y-27166202D01*
X36097669Y-27166203D01*
X35982454Y-27252454D01*
X35896203Y-27367669D01*
X35896202Y-27367670D01*
X35845910Y-27502512D01*
X35845909Y-27502517D01*
X35839500Y-27562126D01*
X35839500Y-28757873D01*
X35845909Y-28817485D01*
X35896202Y-28952329D01*
X35896203Y-28952330D01*
X35896204Y-28952331D01*
X35982454Y-29067546D01*
X36097669Y-29153796D01*
X36097670Y-29153797D01*
X36208605Y-29195172D01*
X36232517Y-29204091D01*
X36292127Y-29210500D01*
X37017200Y-29210499D01*
X37069526Y-29232173D01*
X37091200Y-29284499D01*
X37091200Y-29901112D01*
X37069526Y-29953438D01*
X36821866Y-30201097D01*
X36769540Y-30222771D01*
X36717214Y-30201097D01*
X36703605Y-30182366D01*
X36691780Y-30159159D01*
X36646760Y-30070801D01*
X36535690Y-29917927D01*
X36402073Y-29784310D01*
X36402070Y-29784307D01*
X36402068Y-29784306D01*
X36249198Y-29673239D01*
X36080824Y-29587449D01*
X35901128Y-29529062D01*
X35901115Y-29529059D01*
X35714482Y-29499500D01*
X35714481Y-29499500D01*
X35525519Y-29499500D01*
X35525518Y-29499500D01*
X35338884Y-29529059D01*
X35338871Y-29529062D01*
X35159175Y-29587449D01*
X34990801Y-29673239D01*
X34837931Y-29784306D01*
X34704306Y-29917931D01*
X34593239Y-30070801D01*
X34507449Y-30239175D01*
X34449062Y-30418871D01*
X34449059Y-30418884D01*
X34423089Y-30582858D01*
X34393496Y-30631149D01*
X34338424Y-30644371D01*
X34290133Y-30614778D01*
X34276911Y-30582858D01*
X34250940Y-30418884D01*
X34250937Y-30418871D01*
X34192550Y-30239175D01*
X34192547Y-30239171D01*
X34192547Y-30239168D01*
X34106760Y-30070801D01*
X33995690Y-29917927D01*
X33862073Y-29784310D01*
X33862070Y-29784307D01*
X33862068Y-29784306D01*
X33711004Y-29674551D01*
X33681411Y-29626260D01*
X33680500Y-29614684D01*
X33680500Y-20436535D01*
X35839500Y-20436535D01*
X35839500Y-20643464D01*
X35879868Y-20846413D01*
X35879870Y-20846420D01*
X35959059Y-21037598D01*
X36058842Y-21186936D01*
X36074023Y-21209655D01*
X36220345Y-21355977D01*
X36392402Y-21470941D01*
X36583580Y-21550130D01*
X36786535Y-21590500D01*
X36786536Y-21590500D01*
X36993464Y-21590500D01*
X36993465Y-21590500D01*
X37196420Y-21550130D01*
X37387598Y-21470941D01*
X37559655Y-21355977D01*
X37705977Y-21209655D01*
X37820941Y-21037598D01*
X37900130Y-20846420D01*
X37940500Y-20643465D01*
X37940500Y-20436535D01*
X37900130Y-20233580D01*
X37820941Y-20042402D01*
X37705977Y-19870345D01*
X37559655Y-19724023D01*
X37558486Y-19723242D01*
X37387598Y-19609059D01*
X37196420Y-19529870D01*
X37196413Y-19529868D01*
X37043516Y-19499455D01*
X36993465Y-19489500D01*
X36786535Y-19489500D01*
X36746385Y-19497486D01*
X36583586Y-19529868D01*
X36583579Y-19529870D01*
X36392401Y-19609059D01*
X36220345Y-19724022D01*
X36220344Y-19724024D01*
X36074024Y-19870344D01*
X36074022Y-19870345D01*
X35959059Y-20042401D01*
X35879870Y-20233579D01*
X35879868Y-20233586D01*
X35839500Y-20436535D01*
X33680500Y-20436535D01*
X33680500Y-17896535D01*
X35839500Y-17896535D01*
X35839500Y-18103464D01*
X35879868Y-18306413D01*
X35879870Y-18306420D01*
X35959059Y-18497598D01*
X36074023Y-18669655D01*
X36220345Y-18815977D01*
X36392402Y-18930941D01*
X36583580Y-19010130D01*
X36786535Y-19050500D01*
X36786536Y-19050500D01*
X36993464Y-19050500D01*
X36993465Y-19050500D01*
X37196420Y-19010130D01*
X37387598Y-18930941D01*
X37559655Y-18815977D01*
X37705977Y-18669655D01*
X37820941Y-18497598D01*
X37900130Y-18306420D01*
X37940500Y-18103465D01*
X37940500Y-17896535D01*
X37900130Y-17693580D01*
X37820941Y-17502402D01*
X37705977Y-17330345D01*
X37559655Y-17184023D01*
X37558486Y-17183242D01*
X37387598Y-17069059D01*
X37196420Y-16989870D01*
X37196413Y-16989868D01*
X37009527Y-16952695D01*
X36993465Y-16949500D01*
X36786535Y-16949500D01*
X36770473Y-16952695D01*
X36583586Y-16989868D01*
X36583579Y-16989870D01*
X36392401Y-17069059D01*
X36220345Y-17184022D01*
X36220344Y-17184024D01*
X36074024Y-17330344D01*
X36074022Y-17330345D01*
X35959059Y-17502401D01*
X35879870Y-17693579D01*
X35879868Y-17693586D01*
X35839500Y-17896535D01*
X33680500Y-17896535D01*
X33680500Y-15356535D01*
X35839500Y-15356535D01*
X35839500Y-15563464D01*
X35879868Y-15766413D01*
X35879870Y-15766420D01*
X35959059Y-15957598D01*
X36074023Y-16129655D01*
X36220345Y-16275977D01*
X36392402Y-16390941D01*
X36583580Y-16470130D01*
X36786535Y-16510500D01*
X36786536Y-16510500D01*
X36993464Y-16510500D01*
X36993465Y-16510500D01*
X37196420Y-16470130D01*
X37387598Y-16390941D01*
X37559655Y-16275977D01*
X37705977Y-16129655D01*
X37820941Y-15957598D01*
X37900130Y-15766420D01*
X37940500Y-15563465D01*
X37940500Y-15356535D01*
X37900130Y-15153580D01*
X37820941Y-14962402D01*
X37705977Y-14790345D01*
X37559655Y-14644023D01*
X37497955Y-14602797D01*
X37387598Y-14529059D01*
X37196420Y-14449870D01*
X37196413Y-14449868D01*
X37043516Y-14419455D01*
X36993465Y-14409500D01*
X36786535Y-14409500D01*
X36746385Y-14417486D01*
X36583586Y-14449868D01*
X36583579Y-14449870D01*
X36392401Y-14529059D01*
X36220345Y-14644022D01*
X36220344Y-14644024D01*
X36074024Y-14790344D01*
X36074022Y-14790345D01*
X35959059Y-14962401D01*
X35879870Y-15153579D01*
X35879868Y-15153586D01*
X35839500Y-15356535D01*
X33680500Y-15356535D01*
X33680500Y-13901738D01*
X33702174Y-13849412D01*
X33713389Y-13840209D01*
X33743146Y-13820326D01*
X33749655Y-13815977D01*
X33895977Y-13669655D01*
X34010941Y-13497598D01*
X34090130Y-13306420D01*
X34130500Y-13103465D01*
X34130500Y-12896535D01*
X34090130Y-12693580D01*
X34010941Y-12502402D01*
X33895977Y-12330345D01*
X33883558Y-12317926D01*
X33861884Y-12265600D01*
X33883558Y-12213274D01*
X33935884Y-12191600D01*
X34764116Y-12191600D01*
X34816442Y-12213274D01*
X34838116Y-12265600D01*
X34816442Y-12317926D01*
X34804024Y-12330344D01*
X34804022Y-12330345D01*
X34689059Y-12502401D01*
X34609870Y-12693579D01*
X34609868Y-12693586D01*
X34569500Y-12896535D01*
X34569500Y-13103465D01*
X34578009Y-13146244D01*
X34609868Y-13306413D01*
X34609870Y-13306420D01*
X34689059Y-13497598D01*
X34801542Y-13665943D01*
X34804023Y-13669655D01*
X34950345Y-13815977D01*
X35122402Y-13930941D01*
X35313580Y-14010130D01*
X35516535Y-14050500D01*
X35516536Y-14050500D01*
X35723464Y-14050500D01*
X35723465Y-14050500D01*
X35926420Y-14010130D01*
X36117598Y-13930941D01*
X36273754Y-13826601D01*
X36329301Y-13815553D01*
X36355976Y-13826602D01*
X36378229Y-13841471D01*
X36392402Y-13850941D01*
X36583580Y-13930130D01*
X36786535Y-13970500D01*
X36786536Y-13970500D01*
X36993464Y-13970500D01*
X36993465Y-13970500D01*
X37196420Y-13930130D01*
X37387598Y-13850941D01*
X37559655Y-13735977D01*
X37705977Y-13589655D01*
X37820941Y-13417598D01*
X37900130Y-13226420D01*
X37940500Y-13023465D01*
X37940500Y-12816535D01*
X37900130Y-12613580D01*
X37820941Y-12422402D01*
X37743640Y-12306712D01*
X37732591Y-12251163D01*
X37764057Y-12204071D01*
X37805169Y-12191600D01*
X39663059Y-12191600D01*
X39663059Y-12191599D01*
X39815784Y-12150677D01*
X39952716Y-12071620D01*
X40064520Y-11959816D01*
X40064521Y-11959813D01*
X40067604Y-11956731D01*
X40068313Y-11955920D01*
X43027061Y-8997174D01*
X43079387Y-8975500D01*
X43431614Y-8975500D01*
X43431616Y-8975500D01*
X43502196Y-8969086D01*
X43664606Y-8918478D01*
X43810185Y-8830472D01*
X43930472Y-8710185D01*
X43936671Y-8699929D01*
X43982289Y-8666362D01*
X44038281Y-8674882D01*
G37*
%TD.AperFunction*%
%TA.AperFunction,Conductor*%
G36*
X42252826Y-7855174D02*
G01*
X42274500Y-7907500D01*
X42274500Y-8020613D01*
X42252826Y-8072939D01*
X39356839Y-10968926D01*
X39304513Y-10990600D01*
X38359829Y-10990600D01*
X38307503Y-10968926D01*
X38285829Y-10916600D01*
X38288351Y-10897447D01*
X38311782Y-10810001D01*
X38321600Y-10773359D01*
X38321601Y-10773359D01*
X38321601Y-10610713D01*
X38321600Y-10610695D01*
X38321600Y-10152928D01*
X38321601Y-10152915D01*
X38321601Y-9988841D01*
X38321600Y-9988840D01*
X38280678Y-9836118D01*
X38280676Y-9836113D01*
X38247989Y-9779498D01*
X38247988Y-9779497D01*
X38201620Y-9699184D01*
X38087237Y-9584801D01*
X38087226Y-9584791D01*
X37382886Y-8880451D01*
X37361212Y-8828125D01*
X37382886Y-8775799D01*
X37394096Y-8766598D01*
X37559655Y-8655977D01*
X37705977Y-8509655D01*
X37820941Y-8337598D01*
X37900130Y-8146420D01*
X37940500Y-7943465D01*
X37940500Y-7907500D01*
X37962174Y-7855174D01*
X38014500Y-7833500D01*
X42200500Y-7833500D01*
X42252826Y-7855174D01*
G37*
%TD.AperFunction*%
%TA.AperFunction,Conductor*%
G36*
X32482843Y-2989974D02*
G01*
X32504517Y-3042300D01*
X32499851Y-3068161D01*
X32481402Y-3117622D01*
X32481402Y-3117624D01*
X32475000Y-3177171D01*
X32475000Y-3300000D01*
X33101000Y-3300000D01*
X33153326Y-3321674D01*
X33175000Y-3374000D01*
X33175000Y-3500000D01*
X33301000Y-3500000D01*
X33353326Y-3521674D01*
X33375000Y-3574000D01*
X33375000Y-4275000D01*
X33422829Y-4275000D01*
X33482374Y-4268597D01*
X33544215Y-4245531D01*
X33557652Y-4246010D01*
X33570074Y-4240865D01*
X33584839Y-4246980D01*
X33600816Y-4247551D01*
X33622401Y-4262537D01*
X33631284Y-4271420D01*
X33631285Y-4271420D01*
X33635503Y-4275638D01*
X36254622Y-6894757D01*
X36276296Y-6947083D01*
X36254622Y-6999409D01*
X36243410Y-7008611D01*
X36220346Y-7024022D01*
X36074023Y-7170344D01*
X36074022Y-7170345D01*
X35959059Y-7342401D01*
X35879870Y-7533579D01*
X35879868Y-7533586D01*
X35839500Y-7736535D01*
X35839500Y-7943464D01*
X35879868Y-8146413D01*
X35879870Y-8146420D01*
X35959059Y-8337598D01*
X35960722Y-8340087D01*
X35971774Y-8395634D01*
X35940310Y-8442727D01*
X35899195Y-8455200D01*
X34660087Y-8455200D01*
X34607761Y-8433526D01*
X29997063Y-3822828D01*
X32475000Y-3822828D01*
X32481402Y-3882375D01*
X32481403Y-3882380D01*
X32531645Y-4017087D01*
X32531646Y-4017088D01*
X32617811Y-4132188D01*
X32732911Y-4218353D01*
X32732912Y-4218354D01*
X32867619Y-4268596D01*
X32867624Y-4268597D01*
X32927171Y-4275000D01*
X32975000Y-4275000D01*
X32975000Y-3700000D01*
X32475000Y-3700000D01*
X32475000Y-3822828D01*
X29997063Y-3822828D01*
X29747174Y-3572939D01*
X29725500Y-3520613D01*
X29725500Y-3168386D01*
X29725499Y-3168376D01*
X29719086Y-3097809D01*
X29719086Y-3097808D01*
X29719086Y-3097804D01*
X29708650Y-3064313D01*
X29713777Y-3007910D01*
X29757285Y-2971650D01*
X29779300Y-2968300D01*
X32430517Y-2968300D01*
X32482843Y-2989974D01*
G37*
%TD.AperFunction*%
%TA.AperFunction,Conductor*%
G36*
X55477826Y-522174D02*
G01*
X55499500Y-574500D01*
X55499500Y-53425500D01*
X55477826Y-53477826D01*
X55425500Y-53499500D01*
X574500Y-53499500D01*
X522174Y-53477826D01*
X500500Y-53425500D01*
X500500Y-35570826D01*
X3999500Y-35570826D01*
X3999500Y-36429174D01*
X4005966Y-36492465D01*
X4009120Y-36523344D01*
X4009564Y-36527685D01*
X4062451Y-36687287D01*
X4088797Y-36730000D01*
X4140074Y-36813134D01*
X4150719Y-36830391D01*
X4269609Y-36949281D01*
X4412713Y-37037549D01*
X4572315Y-37090436D01*
X4670826Y-37100500D01*
X4670831Y-37100500D01*
X5204169Y-37100500D01*
X5204174Y-37100500D01*
X5302685Y-37090436D01*
X5462287Y-37037549D01*
X5605391Y-36949281D01*
X5724281Y-36830391D01*
X5812549Y-36687287D01*
X5865436Y-36527685D01*
X5875500Y-36429174D01*
X5875500Y-35570826D01*
X5865436Y-35472315D01*
X5812549Y-35312713D01*
X5724281Y-35169609D01*
X5605391Y-35050719D01*
X5605390Y-35050718D01*
X5542266Y-35011783D01*
X5462287Y-34962451D01*
X5382486Y-34936007D01*
X5302686Y-34909564D01*
X5282982Y-34907551D01*
X5204174Y-34899500D01*
X4670826Y-34899500D01*
X4611719Y-34905538D01*
X4572313Y-34909564D01*
X4412713Y-34962451D01*
X4269609Y-35050718D01*
X4150718Y-35169609D01*
X4062451Y-35312713D01*
X4009564Y-35472313D01*
X4006669Y-35500654D01*
X3999500Y-35570826D01*
X500500Y-35570826D01*
X500500Y-15247358D01*
X3317000Y-15247358D01*
X3317000Y-15405042D01*
X3327161Y-15456125D01*
X3347761Y-15559691D01*
X3347764Y-15559701D01*
X3408103Y-15705374D01*
X3495710Y-15836488D01*
X3498018Y-15839300D01*
X3496996Y-15840137D01*
X3517000Y-15888430D01*
X3517000Y-30405196D01*
X3516999Y-30405214D01*
X3516999Y-30567859D01*
X3557921Y-30720581D01*
X3557922Y-30720583D01*
X3557923Y-30720585D01*
X3569177Y-30740077D01*
X3636980Y-30857516D01*
X3752999Y-30973535D01*
X3753005Y-30973540D01*
X7597765Y-34818301D01*
X7619439Y-34870627D01*
X7597765Y-34922953D01*
X7545439Y-34944627D01*
X7522164Y-34940871D01*
X7468090Y-34922953D01*
X7427686Y-34909564D01*
X7407982Y-34907551D01*
X7329174Y-34899500D01*
X6795826Y-34899500D01*
X6736719Y-34905538D01*
X6697313Y-34909564D01*
X6537713Y-34962451D01*
X6394609Y-35050718D01*
X6275718Y-35169609D01*
X6187451Y-35312713D01*
X6134564Y-35472313D01*
X6131669Y-35500654D01*
X6124500Y-35570826D01*
X6124500Y-36429174D01*
X6130966Y-36492465D01*
X6134120Y-36523344D01*
X6134564Y-36527685D01*
X6187451Y-36687287D01*
X6213797Y-36730000D01*
X6265074Y-36813134D01*
X6275719Y-36830391D01*
X6394609Y-36949281D01*
X6537713Y-37037549D01*
X6697315Y-37090436D01*
X6795826Y-37100500D01*
X7283113Y-37100500D01*
X7335439Y-37122174D01*
X8102926Y-37889661D01*
X8124600Y-37941987D01*
X8124600Y-42107588D01*
X8102926Y-42159914D01*
X8050600Y-42181588D01*
X7998274Y-42159914D01*
X7993974Y-42154880D01*
X7993849Y-42154987D01*
X7991969Y-42152785D01*
X7991966Y-42152781D01*
X7847219Y-42008034D01*
X7753103Y-41939655D01*
X7681610Y-41887712D01*
X7499213Y-41794777D01*
X7304544Y-41731525D01*
X7304531Y-41731522D01*
X7102354Y-41699500D01*
X7102352Y-41699500D01*
X6897648Y-41699500D01*
X6897646Y-41699500D01*
X6695468Y-41731522D01*
X6695455Y-41731525D01*
X6500786Y-41794777D01*
X6318389Y-41887712D01*
X6164495Y-41999523D01*
X6152781Y-42008034D01*
X6008034Y-42152781D01*
X6008031Y-42152784D01*
X6008031Y-42152785D01*
X5887712Y-42318389D01*
X5794777Y-42500786D01*
X5731525Y-42695455D01*
X5731522Y-42695468D01*
X5699500Y-42897646D01*
X5699500Y-43102353D01*
X5731522Y-43304531D01*
X5731525Y-43304544D01*
X5794777Y-43499213D01*
X5887712Y-43681610D01*
X5955428Y-43774813D01*
X6008034Y-43847219D01*
X6152781Y-43991966D01*
X6244695Y-44058745D01*
X6318389Y-44112287D01*
X6369651Y-44138406D01*
X6500781Y-44205220D01*
X6500783Y-44205220D01*
X6500786Y-44205222D01*
X6695455Y-44268474D01*
X6695461Y-44268475D01*
X6695466Y-44268477D01*
X6796557Y-44284488D01*
X6897646Y-44300500D01*
X6897648Y-44300500D01*
X7102354Y-44300500D01*
X7183224Y-44287690D01*
X7304534Y-44268477D01*
X7304541Y-44268474D01*
X7304544Y-44268474D01*
X7499213Y-44205222D01*
X7499213Y-44205221D01*
X7499219Y-44205220D01*
X7681610Y-44112287D01*
X7847219Y-43991966D01*
X7991966Y-43847219D01*
X7991970Y-43847213D01*
X7993849Y-43845013D01*
X7995218Y-43846182D01*
X8038979Y-43819329D01*
X8094060Y-43832517D01*
X8123682Y-43880790D01*
X8124600Y-43892411D01*
X8124600Y-50114796D01*
X8124599Y-50114814D01*
X8124599Y-50277459D01*
X8165521Y-50430181D01*
X8165523Y-50430186D01*
X8192370Y-50476685D01*
X8244580Y-50567116D01*
X8360599Y-50683135D01*
X8360605Y-50683140D01*
X9175491Y-51498026D01*
X9175496Y-51498032D01*
X9178080Y-51500616D01*
X9289884Y-51612420D01*
X9426816Y-51691477D01*
X9429059Y-51692078D01*
X9538610Y-51721432D01*
X9538614Y-51721432D01*
X9538619Y-51721434D01*
X9569311Y-51729658D01*
X9579541Y-51732400D01*
X9579542Y-51732400D01*
X9579543Y-51732400D01*
X12284697Y-51732400D01*
X12284713Y-51732401D01*
X12289243Y-51732401D01*
X12447359Y-51732401D01*
X12447359Y-51732400D01*
X12600085Y-51691477D01*
X12650204Y-51662539D01*
X12737016Y-51612420D01*
X12848820Y-51500616D01*
X12848821Y-51500613D01*
X15245613Y-49103821D01*
X15245616Y-49103820D01*
X15357420Y-48992016D01*
X15428649Y-48868643D01*
X15436477Y-48855085D01*
X15477400Y-48702357D01*
X15477400Y-48544243D01*
X15477400Y-42518061D01*
X18250000Y-42518061D01*
X18260614Y-42606443D01*
X18316077Y-42747092D01*
X18407435Y-42867564D01*
X18527907Y-42958922D01*
X18668556Y-43014385D01*
X18756939Y-43025000D01*
X18850000Y-43025000D01*
X18850000Y-42200000D01*
X18250000Y-42200000D01*
X18250000Y-42518061D01*
X15477400Y-42518061D01*
X15477400Y-41481938D01*
X18250000Y-41481938D01*
X18250000Y-41800000D01*
X18850000Y-41800000D01*
X18850000Y-40975000D01*
X18756939Y-40975000D01*
X18668556Y-40985614D01*
X18527907Y-41041077D01*
X18407435Y-41132435D01*
X18316077Y-41252907D01*
X18260614Y-41393556D01*
X18250000Y-41481938D01*
X15477400Y-41481938D01*
X15477400Y-36881660D01*
X15477401Y-36881657D01*
X15477401Y-36821187D01*
X15491490Y-36787174D01*
X15499075Y-36768862D01*
X15499075Y-36768861D01*
X15499076Y-36768861D01*
X15529728Y-36756165D01*
X15551401Y-36747188D01*
X15551402Y-36747188D01*
X15573076Y-36756166D01*
X15603726Y-36768861D01*
X17806374Y-38971510D01*
X19989219Y-41154355D01*
X20010893Y-41206681D01*
X20007137Y-41229954D01*
X19999532Y-41252907D01*
X19965286Y-41356252D01*
X19928252Y-41399104D01*
X19871765Y-41403219D01*
X19828913Y-41366185D01*
X19826201Y-41360122D01*
X19783922Y-41252907D01*
X19692564Y-41132435D01*
X19572092Y-41041077D01*
X19431443Y-40985614D01*
X19343061Y-40975000D01*
X19250000Y-40975000D01*
X19250000Y-43025000D01*
X19343061Y-43025000D01*
X19431443Y-43014385D01*
X19572092Y-42958922D01*
X19692564Y-42867564D01*
X19783922Y-42747092D01*
X19826201Y-42639877D01*
X19865560Y-42599151D01*
X19922189Y-42598183D01*
X19962915Y-42637542D01*
X19965286Y-42643747D01*
X20015186Y-42794334D01*
X20107288Y-42943656D01*
X20231344Y-43067712D01*
X20380666Y-43159814D01*
X20547203Y-43214999D01*
X20649991Y-43225500D01*
X21250008Y-43225499D01*
X21352797Y-43214999D01*
X21519334Y-43159814D01*
X21668656Y-43067712D01*
X21792712Y-42943656D01*
X21884814Y-42794334D01*
X21939999Y-42627797D01*
X21950500Y-42525009D01*
X21950499Y-41879385D01*
X21972172Y-41827061D01*
X26646117Y-37153117D01*
X26698442Y-37131444D01*
X26750768Y-37153118D01*
X26757682Y-37161097D01*
X26792454Y-37207546D01*
X26859967Y-37258086D01*
X26907669Y-37293796D01*
X26907670Y-37293797D01*
X27018605Y-37335172D01*
X27042517Y-37344091D01*
X27102127Y-37350500D01*
X27493201Y-37350499D01*
X27545526Y-37372173D01*
X27567200Y-37424499D01*
X27545526Y-37476825D01*
X27526796Y-37490433D01*
X27397271Y-37556430D01*
X27340511Y-37597667D01*
X27340511Y-37597668D01*
X27814823Y-38071980D01*
X27807007Y-38074075D01*
X27692993Y-38139901D01*
X27599901Y-38232993D01*
X27534075Y-38347007D01*
X27531980Y-38354823D01*
X27057668Y-37880511D01*
X27057667Y-37880511D01*
X27016431Y-37937268D01*
X26934250Y-38098558D01*
X26878319Y-38270697D01*
X26878316Y-38270710D01*
X26850000Y-38449491D01*
X26850000Y-38630508D01*
X26878316Y-38809289D01*
X26878319Y-38809302D01*
X26934251Y-38981443D01*
X27016431Y-39142728D01*
X27057668Y-39199487D01*
X27531980Y-38725174D01*
X27534075Y-38732993D01*
X27599901Y-38847007D01*
X27692993Y-38940099D01*
X27807007Y-39005925D01*
X27814822Y-39008019D01*
X27340511Y-39482331D01*
X27397266Y-39523566D01*
X27558556Y-39605748D01*
X27558555Y-39605748D01*
X27646161Y-39634212D01*
X27689228Y-39670994D01*
X27693672Y-39727457D01*
X27656890Y-39770524D01*
X27646162Y-39774968D01*
X27481592Y-39828441D01*
X27292183Y-39924948D01*
X27120212Y-40049893D01*
X27120208Y-40049896D01*
X26969896Y-40200208D01*
X26969893Y-40200211D01*
X26969893Y-40200212D01*
X26844948Y-40372183D01*
X26748440Y-40561593D01*
X26682756Y-40763746D01*
X26682753Y-40763759D01*
X26649500Y-40973711D01*
X26649500Y-41186288D01*
X26682753Y-41396240D01*
X26682756Y-41396253D01*
X26748440Y-41598406D01*
X26844948Y-41787816D01*
X26873461Y-41827060D01*
X26969896Y-41959792D01*
X26969901Y-41959797D01*
X27051558Y-42041454D01*
X27073232Y-42093780D01*
X27051558Y-42146106D01*
X26356980Y-42840683D01*
X26334682Y-42879306D01*
X26277923Y-42977613D01*
X26277921Y-42977618D01*
X26236999Y-43130340D01*
X26236999Y-43294415D01*
X26237000Y-43294428D01*
X26237000Y-45503896D01*
X26236999Y-45503914D01*
X26236999Y-45666559D01*
X26277921Y-45819281D01*
X26277923Y-45819286D01*
X26296057Y-45850694D01*
X26356980Y-45956216D01*
X26472999Y-46072235D01*
X26473005Y-46072240D01*
X26796075Y-46395310D01*
X26817749Y-46447636D01*
X26808701Y-46483094D01*
X26806203Y-46487669D01*
X26755910Y-46622512D01*
X26755909Y-46622517D01*
X26749500Y-46682126D01*
X26749500Y-48227873D01*
X26754867Y-48277790D01*
X26755909Y-48287483D01*
X26755909Y-48287484D01*
X26755910Y-48287487D01*
X26781029Y-48354834D01*
X26779008Y-48411435D01*
X26759699Y-48435690D01*
X26760065Y-48436056D01*
X26756849Y-48439271D01*
X26756748Y-48439399D01*
X26756636Y-48439484D01*
X26649483Y-48546637D01*
X26573721Y-48677860D01*
X26573717Y-48677869D01*
X26534500Y-48824231D01*
X26534500Y-48975768D01*
X26573717Y-49122130D01*
X26573721Y-49122139D01*
X26642090Y-49240557D01*
X26649485Y-49253365D01*
X26756635Y-49360515D01*
X26887865Y-49436281D01*
X27034231Y-49475499D01*
X27034232Y-49475500D01*
X27034234Y-49475500D01*
X27185768Y-49475500D01*
X27185768Y-49475499D01*
X27332135Y-49436281D01*
X27463365Y-49360515D01*
X27570515Y-49253365D01*
X27646281Y-49122135D01*
X27685499Y-48975768D01*
X27685500Y-48975768D01*
X27685500Y-48933388D01*
X27707174Y-48881062D01*
X27737156Y-48868643D01*
X27759499Y-48859388D01*
X27759500Y-48859388D01*
X27811826Y-48881062D01*
X27881284Y-48950520D01*
X27881286Y-48950521D01*
X30543784Y-51613020D01*
X30680716Y-51692077D01*
X30680718Y-51692078D01*
X30788070Y-51720843D01*
X30833440Y-51733000D01*
X30833441Y-51733001D01*
X30833443Y-51733001D01*
X30996088Y-51733001D01*
X30996104Y-51733000D01*
X48498797Y-51733000D01*
X48498813Y-51733001D01*
X48503343Y-51733001D01*
X48661459Y-51733001D01*
X48661459Y-51733000D01*
X48814185Y-51692077D01*
X48864304Y-51663139D01*
X48951116Y-51613020D01*
X49062920Y-51501216D01*
X49062921Y-51501213D01*
X54822113Y-45742021D01*
X54822116Y-45742020D01*
X54933920Y-45630216D01*
X54994102Y-45525977D01*
X55012977Y-45493285D01*
X55053900Y-45340559D01*
X55053901Y-45340559D01*
X55053901Y-45177914D01*
X55053900Y-45177896D01*
X55053900Y-35301444D01*
X55053898Y-35301436D01*
X55051992Y-35294319D01*
X55012978Y-35148718D01*
X55012976Y-35148713D01*
X54960487Y-35057800D01*
X54933919Y-35011783D01*
X54819537Y-34897401D01*
X54819526Y-34897391D01*
X51398960Y-31476825D01*
X51377286Y-31424499D01*
X51398960Y-31372173D01*
X51451286Y-31350499D01*
X52800001Y-31350499D01*
X52800008Y-31350499D01*
X52902797Y-31339999D01*
X53069334Y-31284814D01*
X53218656Y-31192712D01*
X53342712Y-31068656D01*
X53434814Y-30919334D01*
X53489999Y-30752797D01*
X53500500Y-30650009D01*
X53500499Y-29349992D01*
X53489999Y-29247203D01*
X53434814Y-29080666D01*
X53342712Y-28931344D01*
X53218656Y-28807288D01*
X53069334Y-28715186D01*
X53004100Y-28693569D01*
X52961249Y-28656537D01*
X52957134Y-28600049D01*
X52983882Y-28563459D01*
X52997522Y-28553549D01*
X53029792Y-28530104D01*
X53180104Y-28379792D01*
X53305051Y-28207816D01*
X53401557Y-28018412D01*
X53420004Y-27961638D01*
X53467243Y-27816253D01*
X53467243Y-27816250D01*
X53467246Y-27816243D01*
X53495478Y-27637996D01*
X53500500Y-27606288D01*
X53500500Y-27393711D01*
X53476676Y-27243295D01*
X53467246Y-27183757D01*
X53467244Y-27183752D01*
X53467243Y-27183746D01*
X53401559Y-26981593D01*
X53401557Y-26981590D01*
X53401557Y-26981588D01*
X53316248Y-26814159D01*
X53305051Y-26792183D01*
X53230355Y-26689373D01*
X53180104Y-26620208D01*
X53029792Y-26469896D01*
X52942051Y-26406149D01*
X52857816Y-26344948D01*
X52668406Y-26248440D01*
X52466253Y-26182756D01*
X52466240Y-26182753D01*
X52256289Y-26149500D01*
X52256287Y-26149500D01*
X51743713Y-26149500D01*
X51743711Y-26149500D01*
X51533759Y-26182753D01*
X51533746Y-26182756D01*
X51331593Y-26248440D01*
X51142183Y-26344948D01*
X50970212Y-26469893D01*
X50970208Y-26469896D01*
X50819896Y-26620208D01*
X50819893Y-26620211D01*
X50819893Y-26620212D01*
X50694948Y-26792183D01*
X50598440Y-26981593D01*
X50532756Y-27183746D01*
X50532753Y-27183759D01*
X50499500Y-27393711D01*
X50499500Y-27471612D01*
X50477826Y-27523938D01*
X50425500Y-27545612D01*
X50373174Y-27523938D01*
X47477174Y-24627938D01*
X47455500Y-24575612D01*
X47455500Y-13393711D01*
X50499500Y-13393711D01*
X50499500Y-13606288D01*
X50532753Y-13816240D01*
X50532756Y-13816253D01*
X50598440Y-14018406D01*
X50694948Y-14207816D01*
X50771475Y-14313146D01*
X50819896Y-14379792D01*
X50970208Y-14530104D01*
X50970211Y-14530106D01*
X50970212Y-14530107D01*
X51016117Y-14563459D01*
X51045710Y-14611750D01*
X51032488Y-14666822D01*
X50995898Y-14693570D01*
X50930666Y-14715186D01*
X50781344Y-14807288D01*
X50657288Y-14931344D01*
X50565186Y-15080666D01*
X50510001Y-15247201D01*
X50510001Y-15247202D01*
X50510001Y-15247203D01*
X50504148Y-15304500D01*
X50499500Y-15349994D01*
X50499500Y-16650000D01*
X50499500Y-16650005D01*
X50499501Y-16650008D01*
X50510001Y-16752797D01*
X50565186Y-16919334D01*
X50657288Y-17068656D01*
X50781344Y-17192712D01*
X50930666Y-17284814D01*
X51097203Y-17339999D01*
X51199991Y-17350500D01*
X52800008Y-17350499D01*
X52902797Y-17339999D01*
X53069334Y-17284814D01*
X53218656Y-17192712D01*
X53342712Y-17068656D01*
X53434814Y-16919334D01*
X53489999Y-16752797D01*
X53500500Y-16650009D01*
X53500499Y-15349992D01*
X53489999Y-15247203D01*
X53434814Y-15080666D01*
X53342712Y-14931344D01*
X53218656Y-14807288D01*
X53069334Y-14715186D01*
X53004100Y-14693569D01*
X52961249Y-14656537D01*
X52957134Y-14600049D01*
X52983882Y-14563459D01*
X53029792Y-14530104D01*
X53180104Y-14379792D01*
X53305051Y-14207816D01*
X53401557Y-14018412D01*
X53404248Y-14010129D01*
X53467243Y-13816253D01*
X53467243Y-13816250D01*
X53467246Y-13816243D01*
X53500500Y-13606287D01*
X53500500Y-13393713D01*
X53497739Y-13376284D01*
X53480031Y-13264478D01*
X53467246Y-13183757D01*
X53467244Y-13183752D01*
X53467243Y-13183746D01*
X53401559Y-12981593D01*
X53401557Y-12981590D01*
X53401557Y-12981588D01*
X53351565Y-12883474D01*
X53305051Y-12792183D01*
X53242583Y-12706204D01*
X53180104Y-12620208D01*
X53029792Y-12469896D01*
X52896661Y-12373171D01*
X52857816Y-12344948D01*
X52668406Y-12248440D01*
X52466253Y-12182756D01*
X52466240Y-12182753D01*
X52256289Y-12149500D01*
X52256287Y-12149500D01*
X51743713Y-12149500D01*
X51743711Y-12149500D01*
X51533759Y-12182753D01*
X51533746Y-12182756D01*
X51331593Y-12248440D01*
X51142183Y-12344948D01*
X50970212Y-12469893D01*
X50970208Y-12469896D01*
X50819896Y-12620208D01*
X50819893Y-12620211D01*
X50819893Y-12620212D01*
X50694948Y-12792183D01*
X50598440Y-12981593D01*
X50532756Y-13183746D01*
X50532753Y-13183759D01*
X50499500Y-13393711D01*
X47455500Y-13393711D01*
X47455500Y-7292359D01*
X47477174Y-7240033D01*
X47529500Y-7218359D01*
X47552364Y-7221980D01*
X47652266Y-7254440D01*
X47695459Y-7268475D01*
X47695461Y-7268475D01*
X47695466Y-7268477D01*
X47774633Y-7281016D01*
X47897646Y-7300500D01*
X47897648Y-7300500D01*
X48102354Y-7300500D01*
X48183224Y-7287690D01*
X48304534Y-7268477D01*
X48304541Y-7268474D01*
X48304544Y-7268474D01*
X48499213Y-7205222D01*
X48499213Y-7205221D01*
X48499219Y-7205220D01*
X48681610Y-7112287D01*
X48847219Y-6991966D01*
X48991966Y-6847219D01*
X49112287Y-6681610D01*
X49205220Y-6499219D01*
X49268477Y-6304534D01*
X49300500Y-6102352D01*
X49300500Y-5897648D01*
X49268477Y-5695466D01*
X49268475Y-5695461D01*
X49268474Y-5695455D01*
X49205222Y-5500786D01*
X49205220Y-5500783D01*
X49205220Y-5500781D01*
X49157079Y-5406300D01*
X49112287Y-5318389D01*
X49058745Y-5244695D01*
X48991966Y-5152781D01*
X48847219Y-5008034D01*
X48783040Y-4961406D01*
X48681610Y-4887712D01*
X48499213Y-4794777D01*
X48304544Y-4731525D01*
X48304531Y-4731522D01*
X48102354Y-4699500D01*
X48102352Y-4699500D01*
X47897648Y-4699500D01*
X47897646Y-4699500D01*
X47695468Y-4731522D01*
X47695455Y-4731525D01*
X47500786Y-4794777D01*
X47318389Y-4887712D01*
X47152785Y-5008031D01*
X47152781Y-5008034D01*
X47008034Y-5152781D01*
X47008031Y-5152784D01*
X47008031Y-5152785D01*
X46887712Y-5318389D01*
X46794777Y-5500786D01*
X46731525Y-5695455D01*
X46731522Y-5695468D01*
X46699500Y-5897646D01*
X46699500Y-6102353D01*
X46712823Y-6186471D01*
X46699601Y-6241543D01*
X46651310Y-6271136D01*
X46596238Y-6257914D01*
X46587408Y-6250373D01*
X41988640Y-1651605D01*
X41988638Y-1651602D01*
X41872615Y-1535579D01*
X41785804Y-1485460D01*
X41785802Y-1485459D01*
X41735688Y-1456524D01*
X41735681Y-1456521D01*
X41582959Y-1415599D01*
X41582957Y-1415599D01*
X41424843Y-1415599D01*
X41420313Y-1415599D01*
X41420297Y-1415600D01*
X19925842Y-1415600D01*
X19884917Y-1426565D01*
X19884916Y-1426564D01*
X19773118Y-1456521D01*
X19636183Y-1535580D01*
X10118892Y-11052872D01*
X10066566Y-11074546D01*
X10014240Y-11052872D01*
X9918659Y-10957291D01*
X9918656Y-10957288D01*
X9769334Y-10865186D01*
X9686065Y-10837593D01*
X9602798Y-10810001D01*
X9585665Y-10808250D01*
X9500009Y-10799500D01*
X9500004Y-10799500D01*
X8774999Y-10799500D01*
X8774993Y-10799500D01*
X8774992Y-10799501D01*
X8723597Y-10804751D01*
X8672202Y-10810001D01*
X8505666Y-10865186D01*
X8356344Y-10957288D01*
X8232288Y-11081344D01*
X8140186Y-11230666D01*
X8085001Y-11397201D01*
X8074500Y-11499994D01*
X8074500Y-14500000D01*
X8074500Y-14500005D01*
X8074501Y-14500008D01*
X8085001Y-14602797D01*
X8140186Y-14769334D01*
X8232288Y-14918656D01*
X8356344Y-15042712D01*
X8505666Y-15134814D01*
X8582446Y-15160256D01*
X8625298Y-15197289D01*
X8629413Y-15253777D01*
X8592380Y-15296629D01*
X8559169Y-15304500D01*
X6532557Y-15304500D01*
X6374443Y-15304500D01*
X6338746Y-15314065D01*
X6221711Y-15345424D01*
X6208359Y-15353134D01*
X6208358Y-15353135D01*
X6084783Y-15424480D01*
X4844326Y-16664938D01*
X4792000Y-16686612D01*
X4739674Y-16664938D01*
X4718000Y-16612612D01*
X4718000Y-15888430D01*
X4738003Y-15840137D01*
X4736982Y-15839300D01*
X4739284Y-15836493D01*
X4739289Y-15836489D01*
X4826894Y-15705379D01*
X4887237Y-15559697D01*
X4918000Y-15405042D01*
X4918000Y-15274499D01*
X4939674Y-15222173D01*
X4992000Y-15200499D01*
X5225001Y-15200499D01*
X5225008Y-15200499D01*
X5327797Y-15189999D01*
X5494334Y-15134814D01*
X5643656Y-15042712D01*
X5767712Y-14918656D01*
X5859814Y-14769334D01*
X5914999Y-14602797D01*
X5925500Y-14500009D01*
X5925499Y-11499992D01*
X5914999Y-11397203D01*
X5859814Y-11230666D01*
X5767712Y-11081344D01*
X5643656Y-10957288D01*
X5494334Y-10865186D01*
X5411065Y-10837593D01*
X5327798Y-10810001D01*
X5310665Y-10808250D01*
X5225009Y-10799500D01*
X5225004Y-10799500D01*
X4499999Y-10799500D01*
X4499993Y-10799500D01*
X4499992Y-10799501D01*
X4448597Y-10804751D01*
X4397202Y-10810001D01*
X4230666Y-10865186D01*
X4081344Y-10957288D01*
X3957288Y-11081344D01*
X3865186Y-11230666D01*
X3810001Y-11397201D01*
X3799500Y-11499994D01*
X3799500Y-13183112D01*
X3777826Y-13235438D01*
X3636980Y-13376283D01*
X3597852Y-13444057D01*
X3557923Y-13513213D01*
X3557921Y-13513218D01*
X3516999Y-13665940D01*
X3516999Y-13830015D01*
X3517000Y-13830028D01*
X3517000Y-14763970D01*
X3496996Y-14812262D01*
X3498018Y-14813100D01*
X3495710Y-14815911D01*
X3408103Y-14947025D01*
X3347764Y-15092698D01*
X3347761Y-15092708D01*
X3328409Y-15189999D01*
X3317000Y-15247358D01*
X500500Y-15247358D01*
X500500Y-5897646D01*
X5699500Y-5897646D01*
X5699500Y-6102353D01*
X5731522Y-6304531D01*
X5731525Y-6304544D01*
X5794777Y-6499213D01*
X5887712Y-6681610D01*
X5957567Y-6777757D01*
X6008034Y-6847219D01*
X6152781Y-6991966D01*
X6244695Y-7058745D01*
X6318389Y-7112287D01*
X6406300Y-7157079D01*
X6500781Y-7205220D01*
X6500783Y-7205220D01*
X6500786Y-7205222D01*
X6695455Y-7268474D01*
X6695461Y-7268475D01*
X6695466Y-7268477D01*
X6774633Y-7281016D01*
X6897646Y-7300500D01*
X6897648Y-7300500D01*
X7102354Y-7300500D01*
X7183224Y-7287690D01*
X7304534Y-7268477D01*
X7304541Y-7268474D01*
X7304544Y-7268474D01*
X7499213Y-7205222D01*
X7499213Y-7205221D01*
X7499219Y-7205220D01*
X7681610Y-7112287D01*
X7847219Y-6991966D01*
X7991966Y-6847219D01*
X8112287Y-6681610D01*
X8205220Y-6499219D01*
X8268477Y-6304534D01*
X8300500Y-6102352D01*
X8300500Y-5897648D01*
X8268477Y-5695466D01*
X8268475Y-5695461D01*
X8268474Y-5695455D01*
X8205222Y-5500786D01*
X8205220Y-5500783D01*
X8205220Y-5500781D01*
X8157079Y-5406300D01*
X8112287Y-5318389D01*
X8058745Y-5244695D01*
X7991966Y-5152781D01*
X7847219Y-5008034D01*
X7783040Y-4961406D01*
X7681610Y-4887712D01*
X7499213Y-4794777D01*
X7304544Y-4731525D01*
X7304531Y-4731522D01*
X7102354Y-4699500D01*
X7102352Y-4699500D01*
X6897648Y-4699500D01*
X6897646Y-4699500D01*
X6695468Y-4731522D01*
X6695455Y-4731525D01*
X6500786Y-4794777D01*
X6318389Y-4887712D01*
X6152785Y-5008031D01*
X6152781Y-5008034D01*
X6008034Y-5152781D01*
X6008031Y-5152784D01*
X6008031Y-5152785D01*
X5887712Y-5318389D01*
X5794777Y-5500786D01*
X5731525Y-5695455D01*
X5731522Y-5695468D01*
X5699500Y-5897646D01*
X500500Y-5897646D01*
X500500Y-574500D01*
X522174Y-522174D01*
X574500Y-500500D01*
X55425500Y-500500D01*
X55477826Y-522174D01*
G37*
%TD.AperFunction*%
%TD*%
M02*
