%TF.GenerationSoftware,KiCad,Pcbnew,9.0.2+dfsg-1*%
%TF.CreationDate,2026-06-03T17:20:01-04:00*%
%TF.ProjectId,autofeeder,6175746f-6665-4656-9465-722e6b696361,rev?*%
%TF.SameCoordinates,Original*%
%TF.FileFunction,Legend,Top*%
%TF.FilePolarity,Positive*%
%FSLAX46Y46*%
G04 Gerber Fmt 4.6, Leading zero omitted, Abs format (unit mm)*
G04 Created by KiCad (PCBNEW 9.0.2+dfsg-1) date 2026-06-03 17:20:01*
%MOMM*%
%LPD*%
G01*
G04 APERTURE LIST*
%ADD10C,0.150000*%
%ADD11C,0.120000*%
%ADD12C,0.500000*%
G04 APERTURE END LIST*
D10*
X38190476Y-40957200D02*
X38333333Y-41004819D01*
X38333333Y-41004819D02*
X38571428Y-41004819D01*
X38571428Y-41004819D02*
X38666666Y-40957200D01*
X38666666Y-40957200D02*
X38714285Y-40909580D01*
X38714285Y-40909580D02*
X38761904Y-40814342D01*
X38761904Y-40814342D02*
X38761904Y-40719104D01*
X38761904Y-40719104D02*
X38714285Y-40623866D01*
X38714285Y-40623866D02*
X38666666Y-40576247D01*
X38666666Y-40576247D02*
X38571428Y-40528628D01*
X38571428Y-40528628D02*
X38380952Y-40481009D01*
X38380952Y-40481009D02*
X38285714Y-40433390D01*
X38285714Y-40433390D02*
X38238095Y-40385771D01*
X38238095Y-40385771D02*
X38190476Y-40290533D01*
X38190476Y-40290533D02*
X38190476Y-40195295D01*
X38190476Y-40195295D02*
X38238095Y-40100057D01*
X38238095Y-40100057D02*
X38285714Y-40052438D01*
X38285714Y-40052438D02*
X38380952Y-40004819D01*
X38380952Y-40004819D02*
X38619047Y-40004819D01*
X38619047Y-40004819D02*
X38761904Y-40052438D01*
X39095238Y-40004819D02*
X39333333Y-41004819D01*
X39333333Y-41004819D02*
X39523809Y-40290533D01*
X39523809Y-40290533D02*
X39714285Y-41004819D01*
X39714285Y-41004819D02*
X39952381Y-40004819D01*
X40761904Y-40004819D02*
X40571428Y-40004819D01*
X40571428Y-40004819D02*
X40476190Y-40052438D01*
X40476190Y-40052438D02*
X40428571Y-40100057D01*
X40428571Y-40100057D02*
X40333333Y-40242914D01*
X40333333Y-40242914D02*
X40285714Y-40433390D01*
X40285714Y-40433390D02*
X40285714Y-40814342D01*
X40285714Y-40814342D02*
X40333333Y-40909580D01*
X40333333Y-40909580D02*
X40380952Y-40957200D01*
X40380952Y-40957200D02*
X40476190Y-41004819D01*
X40476190Y-41004819D02*
X40666666Y-41004819D01*
X40666666Y-41004819D02*
X40761904Y-40957200D01*
X40761904Y-40957200D02*
X40809523Y-40909580D01*
X40809523Y-40909580D02*
X40857142Y-40814342D01*
X40857142Y-40814342D02*
X40857142Y-40576247D01*
X40857142Y-40576247D02*
X40809523Y-40481009D01*
X40809523Y-40481009D02*
X40761904Y-40433390D01*
X40761904Y-40433390D02*
X40666666Y-40385771D01*
X40666666Y-40385771D02*
X40476190Y-40385771D01*
X40476190Y-40385771D02*
X40380952Y-40433390D01*
X40380952Y-40433390D02*
X40333333Y-40481009D01*
X40333333Y-40481009D02*
X40285714Y-40576247D01*
X41047619Y-41100057D02*
X41809523Y-41100057D01*
X42047619Y-41004819D02*
X42047619Y-40004819D01*
X42047619Y-40004819D02*
X42285714Y-40004819D01*
X42285714Y-40004819D02*
X42428571Y-40052438D01*
X42428571Y-40052438D02*
X42523809Y-40147676D01*
X42523809Y-40147676D02*
X42571428Y-40242914D01*
X42571428Y-40242914D02*
X42619047Y-40433390D01*
X42619047Y-40433390D02*
X42619047Y-40576247D01*
X42619047Y-40576247D02*
X42571428Y-40766723D01*
X42571428Y-40766723D02*
X42523809Y-40861961D01*
X42523809Y-40861961D02*
X42428571Y-40957200D01*
X42428571Y-40957200D02*
X42285714Y-41004819D01*
X42285714Y-41004819D02*
X42047619Y-41004819D01*
X43238095Y-40004819D02*
X43428571Y-40004819D01*
X43428571Y-40004819D02*
X43523809Y-40052438D01*
X43523809Y-40052438D02*
X43619047Y-40147676D01*
X43619047Y-40147676D02*
X43666666Y-40338152D01*
X43666666Y-40338152D02*
X43666666Y-40671485D01*
X43666666Y-40671485D02*
X43619047Y-40861961D01*
X43619047Y-40861961D02*
X43523809Y-40957200D01*
X43523809Y-40957200D02*
X43428571Y-41004819D01*
X43428571Y-41004819D02*
X43238095Y-41004819D01*
X43238095Y-41004819D02*
X43142857Y-40957200D01*
X43142857Y-40957200D02*
X43047619Y-40861961D01*
X43047619Y-40861961D02*
X43000000Y-40671485D01*
X43000000Y-40671485D02*
X43000000Y-40338152D01*
X43000000Y-40338152D02*
X43047619Y-40147676D01*
X43047619Y-40147676D02*
X43142857Y-40052438D01*
X43142857Y-40052438D02*
X43238095Y-40004819D01*
X44000000Y-40004819D02*
X44238095Y-41004819D01*
X44238095Y-41004819D02*
X44428571Y-40290533D01*
X44428571Y-40290533D02*
X44619047Y-41004819D01*
X44619047Y-41004819D02*
X44857143Y-40004819D01*
X45238095Y-41004819D02*
X45238095Y-40004819D01*
X45238095Y-40004819D02*
X45809523Y-41004819D01*
X45809523Y-41004819D02*
X45809523Y-40004819D01*
X46809523Y-41004819D02*
X46238095Y-41004819D01*
X46523809Y-41004819D02*
X46523809Y-40004819D01*
X46523809Y-40004819D02*
X46428571Y-40147676D01*
X46428571Y-40147676D02*
X46333333Y-40242914D01*
X46333333Y-40242914D02*
X46238095Y-40290533D01*
X23666667Y-3957200D02*
X23809524Y-4004819D01*
X23809524Y-4004819D02*
X24047619Y-4004819D01*
X24047619Y-4004819D02*
X24142857Y-3957200D01*
X24142857Y-3957200D02*
X24190476Y-3909580D01*
X24190476Y-3909580D02*
X24238095Y-3814342D01*
X24238095Y-3814342D02*
X24238095Y-3719104D01*
X24238095Y-3719104D02*
X24190476Y-3623866D01*
X24190476Y-3623866D02*
X24142857Y-3576247D01*
X24142857Y-3576247D02*
X24047619Y-3528628D01*
X24047619Y-3528628D02*
X23857143Y-3481009D01*
X23857143Y-3481009D02*
X23761905Y-3433390D01*
X23761905Y-3433390D02*
X23714286Y-3385771D01*
X23714286Y-3385771D02*
X23666667Y-3290533D01*
X23666667Y-3290533D02*
X23666667Y-3195295D01*
X23666667Y-3195295D02*
X23714286Y-3100057D01*
X23714286Y-3100057D02*
X23761905Y-3052438D01*
X23761905Y-3052438D02*
X23857143Y-3004819D01*
X23857143Y-3004819D02*
X24095238Y-3004819D01*
X24095238Y-3004819D02*
X24238095Y-3052438D01*
X24571429Y-3004819D02*
X24809524Y-4004819D01*
X24809524Y-4004819D02*
X25000000Y-3290533D01*
X25000000Y-3290533D02*
X25190476Y-4004819D01*
X25190476Y-4004819D02*
X25428572Y-3004819D01*
X25761905Y-3100057D02*
X25809524Y-3052438D01*
X25809524Y-3052438D02*
X25904762Y-3004819D01*
X25904762Y-3004819D02*
X26142857Y-3004819D01*
X26142857Y-3004819D02*
X26238095Y-3052438D01*
X26238095Y-3052438D02*
X26285714Y-3100057D01*
X26285714Y-3100057D02*
X26333333Y-3195295D01*
X26333333Y-3195295D02*
X26333333Y-3290533D01*
X26333333Y-3290533D02*
X26285714Y-3433390D01*
X26285714Y-3433390D02*
X25714286Y-4004819D01*
X25714286Y-4004819D02*
X26333333Y-4004819D01*
X26523810Y-4100057D02*
X27285714Y-4100057D01*
X27380953Y-3004819D02*
X27952381Y-3004819D01*
X27666667Y-4004819D02*
X27666667Y-3004819D01*
X28285715Y-4004819D02*
X28285715Y-3004819D01*
X28761905Y-4004819D02*
X28761905Y-3004819D01*
X28761905Y-3004819D02*
X29095238Y-3719104D01*
X29095238Y-3719104D02*
X29428571Y-3004819D01*
X29428571Y-3004819D02*
X29428571Y-4004819D01*
X29904762Y-3481009D02*
X30238095Y-3481009D01*
X30380952Y-4004819D02*
X29904762Y-4004819D01*
X29904762Y-4004819D02*
X29904762Y-3004819D01*
X29904762Y-3004819D02*
X30380952Y-3004819D01*
X31380952Y-4004819D02*
X31047619Y-3528628D01*
X30809524Y-4004819D02*
X30809524Y-3004819D01*
X30809524Y-3004819D02*
X31190476Y-3004819D01*
X31190476Y-3004819D02*
X31285714Y-3052438D01*
X31285714Y-3052438D02*
X31333333Y-3100057D01*
X31333333Y-3100057D02*
X31380952Y-3195295D01*
X31380952Y-3195295D02*
X31380952Y-3338152D01*
X31380952Y-3338152D02*
X31333333Y-3433390D01*
X31333333Y-3433390D02*
X31285714Y-3481009D01*
X31285714Y-3481009D02*
X31190476Y-3528628D01*
X31190476Y-3528628D02*
X30809524Y-3528628D01*
X32333333Y-4004819D02*
X31761905Y-4004819D01*
X32047619Y-4004819D02*
X32047619Y-3004819D01*
X32047619Y-3004819D02*
X31952381Y-3147676D01*
X31952381Y-3147676D02*
X31857143Y-3242914D01*
X31857143Y-3242914D02*
X31761905Y-3290533D01*
X37428571Y-3957200D02*
X37571428Y-4004819D01*
X37571428Y-4004819D02*
X37809523Y-4004819D01*
X37809523Y-4004819D02*
X37904761Y-3957200D01*
X37904761Y-3957200D02*
X37952380Y-3909580D01*
X37952380Y-3909580D02*
X37999999Y-3814342D01*
X37999999Y-3814342D02*
X37999999Y-3719104D01*
X37999999Y-3719104D02*
X37952380Y-3623866D01*
X37952380Y-3623866D02*
X37904761Y-3576247D01*
X37904761Y-3576247D02*
X37809523Y-3528628D01*
X37809523Y-3528628D02*
X37619047Y-3481009D01*
X37619047Y-3481009D02*
X37523809Y-3433390D01*
X37523809Y-3433390D02*
X37476190Y-3385771D01*
X37476190Y-3385771D02*
X37428571Y-3290533D01*
X37428571Y-3290533D02*
X37428571Y-3195295D01*
X37428571Y-3195295D02*
X37476190Y-3100057D01*
X37476190Y-3100057D02*
X37523809Y-3052438D01*
X37523809Y-3052438D02*
X37619047Y-3004819D01*
X37619047Y-3004819D02*
X37857142Y-3004819D01*
X37857142Y-3004819D02*
X37999999Y-3052438D01*
X38333333Y-3004819D02*
X38571428Y-4004819D01*
X38571428Y-4004819D02*
X38761904Y-3290533D01*
X38761904Y-3290533D02*
X38952380Y-4004819D01*
X38952380Y-4004819D02*
X39190476Y-3004819D01*
X39476190Y-3004819D02*
X40095237Y-3004819D01*
X40095237Y-3004819D02*
X39761904Y-3385771D01*
X39761904Y-3385771D02*
X39904761Y-3385771D01*
X39904761Y-3385771D02*
X39999999Y-3433390D01*
X39999999Y-3433390D02*
X40047618Y-3481009D01*
X40047618Y-3481009D02*
X40095237Y-3576247D01*
X40095237Y-3576247D02*
X40095237Y-3814342D01*
X40095237Y-3814342D02*
X40047618Y-3909580D01*
X40047618Y-3909580D02*
X39999999Y-3957200D01*
X39999999Y-3957200D02*
X39904761Y-4004819D01*
X39904761Y-4004819D02*
X39619047Y-4004819D01*
X39619047Y-4004819D02*
X39523809Y-3957200D01*
X39523809Y-3957200D02*
X39476190Y-3909580D01*
X40285714Y-4100057D02*
X41047618Y-4100057D01*
X41285714Y-4004819D02*
X41285714Y-3004819D01*
X41285714Y-3004819D02*
X41619047Y-3719104D01*
X41619047Y-3719104D02*
X41952380Y-3004819D01*
X41952380Y-3004819D02*
X41952380Y-4004819D01*
X42380952Y-3719104D02*
X42857142Y-3719104D01*
X42285714Y-4004819D02*
X42619047Y-3004819D01*
X42619047Y-3004819D02*
X42952380Y-4004819D01*
X43285714Y-4004819D02*
X43285714Y-3004819D01*
X43285714Y-3004819D02*
X43857142Y-4004819D01*
X43857142Y-4004819D02*
X43857142Y-3004819D01*
X44333333Y-3004819D02*
X44333333Y-3814342D01*
X44333333Y-3814342D02*
X44380952Y-3909580D01*
X44380952Y-3909580D02*
X44428571Y-3957200D01*
X44428571Y-3957200D02*
X44523809Y-4004819D01*
X44523809Y-4004819D02*
X44714285Y-4004819D01*
X44714285Y-4004819D02*
X44809523Y-3957200D01*
X44809523Y-3957200D02*
X44857142Y-3909580D01*
X44857142Y-3909580D02*
X44904761Y-3814342D01*
X44904761Y-3814342D02*
X44904761Y-3004819D01*
X45333333Y-3719104D02*
X45809523Y-3719104D01*
X45238095Y-4004819D02*
X45571428Y-3004819D01*
X45571428Y-3004819D02*
X45904761Y-4004819D01*
X46714285Y-4004819D02*
X46238095Y-4004819D01*
X46238095Y-4004819D02*
X46238095Y-3004819D01*
X47571428Y-4004819D02*
X47000000Y-4004819D01*
X47285714Y-4004819D02*
X47285714Y-3004819D01*
X47285714Y-3004819D02*
X47190476Y-3147676D01*
X47190476Y-3147676D02*
X47095238Y-3242914D01*
X47095238Y-3242914D02*
X47000000Y-3290533D01*
X6380952Y-40957200D02*
X6523809Y-41004819D01*
X6523809Y-41004819D02*
X6761904Y-41004819D01*
X6761904Y-41004819D02*
X6857142Y-40957200D01*
X6857142Y-40957200D02*
X6904761Y-40909580D01*
X6904761Y-40909580D02*
X6952380Y-40814342D01*
X6952380Y-40814342D02*
X6952380Y-40719104D01*
X6952380Y-40719104D02*
X6904761Y-40623866D01*
X6904761Y-40623866D02*
X6857142Y-40576247D01*
X6857142Y-40576247D02*
X6761904Y-40528628D01*
X6761904Y-40528628D02*
X6571428Y-40481009D01*
X6571428Y-40481009D02*
X6476190Y-40433390D01*
X6476190Y-40433390D02*
X6428571Y-40385771D01*
X6428571Y-40385771D02*
X6380952Y-40290533D01*
X6380952Y-40290533D02*
X6380952Y-40195295D01*
X6380952Y-40195295D02*
X6428571Y-40100057D01*
X6428571Y-40100057D02*
X6476190Y-40052438D01*
X6476190Y-40052438D02*
X6571428Y-40004819D01*
X6571428Y-40004819D02*
X6809523Y-40004819D01*
X6809523Y-40004819D02*
X6952380Y-40052438D01*
X7285714Y-40004819D02*
X7523809Y-41004819D01*
X7523809Y-41004819D02*
X7714285Y-40290533D01*
X7714285Y-40290533D02*
X7904761Y-41004819D01*
X7904761Y-41004819D02*
X8142857Y-40004819D01*
X8952380Y-40338152D02*
X8952380Y-41004819D01*
X8714285Y-39957200D02*
X8476190Y-40671485D01*
X8476190Y-40671485D02*
X9095237Y-40671485D01*
X9238095Y-41100057D02*
X9999999Y-41100057D01*
X10190476Y-40957200D02*
X10333333Y-41004819D01*
X10333333Y-41004819D02*
X10571428Y-41004819D01*
X10571428Y-41004819D02*
X10666666Y-40957200D01*
X10666666Y-40957200D02*
X10714285Y-40909580D01*
X10714285Y-40909580D02*
X10761904Y-40814342D01*
X10761904Y-40814342D02*
X10761904Y-40719104D01*
X10761904Y-40719104D02*
X10714285Y-40623866D01*
X10714285Y-40623866D02*
X10666666Y-40576247D01*
X10666666Y-40576247D02*
X10571428Y-40528628D01*
X10571428Y-40528628D02*
X10380952Y-40481009D01*
X10380952Y-40481009D02*
X10285714Y-40433390D01*
X10285714Y-40433390D02*
X10238095Y-40385771D01*
X10238095Y-40385771D02*
X10190476Y-40290533D01*
X10190476Y-40290533D02*
X10190476Y-40195295D01*
X10190476Y-40195295D02*
X10238095Y-40100057D01*
X10238095Y-40100057D02*
X10285714Y-40052438D01*
X10285714Y-40052438D02*
X10380952Y-40004819D01*
X10380952Y-40004819D02*
X10619047Y-40004819D01*
X10619047Y-40004819D02*
X10761904Y-40052438D01*
X11190476Y-40481009D02*
X11523809Y-40481009D01*
X11666666Y-41004819D02*
X11190476Y-41004819D01*
X11190476Y-41004819D02*
X11190476Y-40004819D01*
X11190476Y-40004819D02*
X11666666Y-40004819D01*
X11952381Y-40004819D02*
X12523809Y-40004819D01*
X12238095Y-41004819D02*
X12238095Y-40004819D01*
X12714286Y-40004819D02*
X13285714Y-40004819D01*
X13000000Y-41004819D02*
X13000000Y-40004819D01*
X13619048Y-41004819D02*
X13619048Y-40004819D01*
X14095238Y-41004819D02*
X14095238Y-40004819D01*
X14095238Y-40004819D02*
X14666666Y-41004819D01*
X14666666Y-41004819D02*
X14666666Y-40004819D01*
X15666666Y-40052438D02*
X15571428Y-40004819D01*
X15571428Y-40004819D02*
X15428571Y-40004819D01*
X15428571Y-40004819D02*
X15285714Y-40052438D01*
X15285714Y-40052438D02*
X15190476Y-40147676D01*
X15190476Y-40147676D02*
X15142857Y-40242914D01*
X15142857Y-40242914D02*
X15095238Y-40433390D01*
X15095238Y-40433390D02*
X15095238Y-40576247D01*
X15095238Y-40576247D02*
X15142857Y-40766723D01*
X15142857Y-40766723D02*
X15190476Y-40861961D01*
X15190476Y-40861961D02*
X15285714Y-40957200D01*
X15285714Y-40957200D02*
X15428571Y-41004819D01*
X15428571Y-41004819D02*
X15523809Y-41004819D01*
X15523809Y-41004819D02*
X15666666Y-40957200D01*
X15666666Y-40957200D02*
X15714285Y-40909580D01*
X15714285Y-40909580D02*
X15714285Y-40576247D01*
X15714285Y-40576247D02*
X15523809Y-40576247D01*
X16095238Y-40957200D02*
X16238095Y-41004819D01*
X16238095Y-41004819D02*
X16476190Y-41004819D01*
X16476190Y-41004819D02*
X16571428Y-40957200D01*
X16571428Y-40957200D02*
X16619047Y-40909580D01*
X16619047Y-40909580D02*
X16666666Y-40814342D01*
X16666666Y-40814342D02*
X16666666Y-40719104D01*
X16666666Y-40719104D02*
X16619047Y-40623866D01*
X16619047Y-40623866D02*
X16571428Y-40576247D01*
X16571428Y-40576247D02*
X16476190Y-40528628D01*
X16476190Y-40528628D02*
X16285714Y-40481009D01*
X16285714Y-40481009D02*
X16190476Y-40433390D01*
X16190476Y-40433390D02*
X16142857Y-40385771D01*
X16142857Y-40385771D02*
X16095238Y-40290533D01*
X16095238Y-40290533D02*
X16095238Y-40195295D01*
X16095238Y-40195295D02*
X16142857Y-40100057D01*
X16142857Y-40100057D02*
X16190476Y-40052438D01*
X16190476Y-40052438D02*
X16285714Y-40004819D01*
X16285714Y-40004819D02*
X16523809Y-40004819D01*
X16523809Y-40004819D02*
X16666666Y-40052438D01*
X17619047Y-41004819D02*
X17047619Y-41004819D01*
X17333333Y-41004819D02*
X17333333Y-40004819D01*
X17333333Y-40004819D02*
X17238095Y-40147676D01*
X17238095Y-40147676D02*
X17142857Y-40242914D01*
X17142857Y-40242914D02*
X17047619Y-40290533D01*
X24785714Y-40957200D02*
X24928571Y-41004819D01*
X24928571Y-41004819D02*
X25166666Y-41004819D01*
X25166666Y-41004819D02*
X25261904Y-40957200D01*
X25261904Y-40957200D02*
X25309523Y-40909580D01*
X25309523Y-40909580D02*
X25357142Y-40814342D01*
X25357142Y-40814342D02*
X25357142Y-40719104D01*
X25357142Y-40719104D02*
X25309523Y-40623866D01*
X25309523Y-40623866D02*
X25261904Y-40576247D01*
X25261904Y-40576247D02*
X25166666Y-40528628D01*
X25166666Y-40528628D02*
X24976190Y-40481009D01*
X24976190Y-40481009D02*
X24880952Y-40433390D01*
X24880952Y-40433390D02*
X24833333Y-40385771D01*
X24833333Y-40385771D02*
X24785714Y-40290533D01*
X24785714Y-40290533D02*
X24785714Y-40195295D01*
X24785714Y-40195295D02*
X24833333Y-40100057D01*
X24833333Y-40100057D02*
X24880952Y-40052438D01*
X24880952Y-40052438D02*
X24976190Y-40004819D01*
X24976190Y-40004819D02*
X25214285Y-40004819D01*
X25214285Y-40004819D02*
X25357142Y-40052438D01*
X25690476Y-40004819D02*
X25928571Y-41004819D01*
X25928571Y-41004819D02*
X26119047Y-40290533D01*
X26119047Y-40290533D02*
X26309523Y-41004819D01*
X26309523Y-41004819D02*
X26547619Y-40004819D01*
X27404761Y-40004819D02*
X26928571Y-40004819D01*
X26928571Y-40004819D02*
X26880952Y-40481009D01*
X26880952Y-40481009D02*
X26928571Y-40433390D01*
X26928571Y-40433390D02*
X27023809Y-40385771D01*
X27023809Y-40385771D02*
X27261904Y-40385771D01*
X27261904Y-40385771D02*
X27357142Y-40433390D01*
X27357142Y-40433390D02*
X27404761Y-40481009D01*
X27404761Y-40481009D02*
X27452380Y-40576247D01*
X27452380Y-40576247D02*
X27452380Y-40814342D01*
X27452380Y-40814342D02*
X27404761Y-40909580D01*
X27404761Y-40909580D02*
X27357142Y-40957200D01*
X27357142Y-40957200D02*
X27261904Y-41004819D01*
X27261904Y-41004819D02*
X27023809Y-41004819D01*
X27023809Y-41004819D02*
X26928571Y-40957200D01*
X26928571Y-40957200D02*
X26880952Y-40909580D01*
X27642857Y-41100057D02*
X28404761Y-41100057D01*
X28642857Y-40004819D02*
X28642857Y-40814342D01*
X28642857Y-40814342D02*
X28690476Y-40909580D01*
X28690476Y-40909580D02*
X28738095Y-40957200D01*
X28738095Y-40957200D02*
X28833333Y-41004819D01*
X28833333Y-41004819D02*
X29023809Y-41004819D01*
X29023809Y-41004819D02*
X29119047Y-40957200D01*
X29119047Y-40957200D02*
X29166666Y-40909580D01*
X29166666Y-40909580D02*
X29214285Y-40814342D01*
X29214285Y-40814342D02*
X29214285Y-40004819D01*
X29690476Y-41004819D02*
X29690476Y-40004819D01*
X29690476Y-40004819D02*
X30071428Y-40004819D01*
X30071428Y-40004819D02*
X30166666Y-40052438D01*
X30166666Y-40052438D02*
X30214285Y-40100057D01*
X30214285Y-40100057D02*
X30261904Y-40195295D01*
X30261904Y-40195295D02*
X30261904Y-40338152D01*
X30261904Y-40338152D02*
X30214285Y-40433390D01*
X30214285Y-40433390D02*
X30166666Y-40481009D01*
X30166666Y-40481009D02*
X30071428Y-40528628D01*
X30071428Y-40528628D02*
X29690476Y-40528628D01*
X31214285Y-41004819D02*
X30642857Y-41004819D01*
X30928571Y-41004819D02*
X30928571Y-40004819D01*
X30928571Y-40004819D02*
X30833333Y-40147676D01*
X30833333Y-40147676D02*
X30738095Y-40242914D01*
X30738095Y-40242914D02*
X30642857Y-40290533D01*
X7261905Y-3957200D02*
X7404762Y-4004819D01*
X7404762Y-4004819D02*
X7642857Y-4004819D01*
X7642857Y-4004819D02*
X7738095Y-3957200D01*
X7738095Y-3957200D02*
X7785714Y-3909580D01*
X7785714Y-3909580D02*
X7833333Y-3814342D01*
X7833333Y-3814342D02*
X7833333Y-3719104D01*
X7833333Y-3719104D02*
X7785714Y-3623866D01*
X7785714Y-3623866D02*
X7738095Y-3576247D01*
X7738095Y-3576247D02*
X7642857Y-3528628D01*
X7642857Y-3528628D02*
X7452381Y-3481009D01*
X7452381Y-3481009D02*
X7357143Y-3433390D01*
X7357143Y-3433390D02*
X7309524Y-3385771D01*
X7309524Y-3385771D02*
X7261905Y-3290533D01*
X7261905Y-3290533D02*
X7261905Y-3195295D01*
X7261905Y-3195295D02*
X7309524Y-3100057D01*
X7309524Y-3100057D02*
X7357143Y-3052438D01*
X7357143Y-3052438D02*
X7452381Y-3004819D01*
X7452381Y-3004819D02*
X7690476Y-3004819D01*
X7690476Y-3004819D02*
X7833333Y-3052438D01*
X8166667Y-3004819D02*
X8404762Y-4004819D01*
X8404762Y-4004819D02*
X8595238Y-3290533D01*
X8595238Y-3290533D02*
X8785714Y-4004819D01*
X8785714Y-4004819D02*
X9023810Y-3004819D01*
X9928571Y-4004819D02*
X9357143Y-4004819D01*
X9642857Y-4004819D02*
X9642857Y-3004819D01*
X9642857Y-3004819D02*
X9547619Y-3147676D01*
X9547619Y-3147676D02*
X9452381Y-3242914D01*
X9452381Y-3242914D02*
X9357143Y-3290533D01*
X10119048Y-4100057D02*
X10880952Y-4100057D01*
X11119048Y-4004819D02*
X11119048Y-3004819D01*
X11119048Y-3004819D02*
X11500000Y-3004819D01*
X11500000Y-3004819D02*
X11595238Y-3052438D01*
X11595238Y-3052438D02*
X11642857Y-3100057D01*
X11642857Y-3100057D02*
X11690476Y-3195295D01*
X11690476Y-3195295D02*
X11690476Y-3338152D01*
X11690476Y-3338152D02*
X11642857Y-3433390D01*
X11642857Y-3433390D02*
X11595238Y-3481009D01*
X11595238Y-3481009D02*
X11500000Y-3528628D01*
X11500000Y-3528628D02*
X11119048Y-3528628D01*
X12309524Y-3004819D02*
X12500000Y-3004819D01*
X12500000Y-3004819D02*
X12595238Y-3052438D01*
X12595238Y-3052438D02*
X12690476Y-3147676D01*
X12690476Y-3147676D02*
X12738095Y-3338152D01*
X12738095Y-3338152D02*
X12738095Y-3671485D01*
X12738095Y-3671485D02*
X12690476Y-3861961D01*
X12690476Y-3861961D02*
X12595238Y-3957200D01*
X12595238Y-3957200D02*
X12500000Y-4004819D01*
X12500000Y-4004819D02*
X12309524Y-4004819D01*
X12309524Y-4004819D02*
X12214286Y-3957200D01*
X12214286Y-3957200D02*
X12119048Y-3861961D01*
X12119048Y-3861961D02*
X12071429Y-3671485D01*
X12071429Y-3671485D02*
X12071429Y-3338152D01*
X12071429Y-3338152D02*
X12119048Y-3147676D01*
X12119048Y-3147676D02*
X12214286Y-3052438D01*
X12214286Y-3052438D02*
X12309524Y-3004819D01*
X13071429Y-3004819D02*
X13309524Y-4004819D01*
X13309524Y-4004819D02*
X13500000Y-3290533D01*
X13500000Y-3290533D02*
X13690476Y-4004819D01*
X13690476Y-4004819D02*
X13928572Y-3004819D01*
X14309524Y-3481009D02*
X14642857Y-3481009D01*
X14785714Y-4004819D02*
X14309524Y-4004819D01*
X14309524Y-4004819D02*
X14309524Y-3004819D01*
X14309524Y-3004819D02*
X14785714Y-3004819D01*
X15785714Y-4004819D02*
X15452381Y-3528628D01*
X15214286Y-4004819D02*
X15214286Y-3004819D01*
X15214286Y-3004819D02*
X15595238Y-3004819D01*
X15595238Y-3004819D02*
X15690476Y-3052438D01*
X15690476Y-3052438D02*
X15738095Y-3100057D01*
X15738095Y-3100057D02*
X15785714Y-3195295D01*
X15785714Y-3195295D02*
X15785714Y-3338152D01*
X15785714Y-3338152D02*
X15738095Y-3433390D01*
X15738095Y-3433390D02*
X15690476Y-3481009D01*
X15690476Y-3481009D02*
X15595238Y-3528628D01*
X15595238Y-3528628D02*
X15214286Y-3528628D01*
X16738095Y-4004819D02*
X16166667Y-4004819D01*
X16452381Y-4004819D02*
X16452381Y-3004819D01*
X16452381Y-3004819D02*
X16357143Y-3147676D01*
X16357143Y-3147676D02*
X16261905Y-3242914D01*
X16261905Y-3242914D02*
X16166667Y-3290533D01*
X26047619Y-9454819D02*
X26047619Y-8454819D01*
X26047619Y-8454819D02*
X26285714Y-8454819D01*
X26285714Y-8454819D02*
X26428571Y-8502438D01*
X26428571Y-8502438D02*
X26523809Y-8597676D01*
X26523809Y-8597676D02*
X26571428Y-8692914D01*
X26571428Y-8692914D02*
X26619047Y-8883390D01*
X26619047Y-8883390D02*
X26619047Y-9026247D01*
X26619047Y-9026247D02*
X26571428Y-9216723D01*
X26571428Y-9216723D02*
X26523809Y-9311961D01*
X26523809Y-9311961D02*
X26428571Y-9407200D01*
X26428571Y-9407200D02*
X26285714Y-9454819D01*
X26285714Y-9454819D02*
X26047619Y-9454819D01*
X27047619Y-9454819D02*
X27047619Y-8454819D01*
X27476190Y-9407200D02*
X27619047Y-9454819D01*
X27619047Y-9454819D02*
X27857142Y-9454819D01*
X27857142Y-9454819D02*
X27952380Y-9407200D01*
X27952380Y-9407200D02*
X27999999Y-9359580D01*
X27999999Y-9359580D02*
X28047618Y-9264342D01*
X28047618Y-9264342D02*
X28047618Y-9169104D01*
X28047618Y-9169104D02*
X27999999Y-9073866D01*
X27999999Y-9073866D02*
X27952380Y-9026247D01*
X27952380Y-9026247D02*
X27857142Y-8978628D01*
X27857142Y-8978628D02*
X27666666Y-8931009D01*
X27666666Y-8931009D02*
X27571428Y-8883390D01*
X27571428Y-8883390D02*
X27523809Y-8835771D01*
X27523809Y-8835771D02*
X27476190Y-8740533D01*
X27476190Y-8740533D02*
X27476190Y-8645295D01*
X27476190Y-8645295D02*
X27523809Y-8550057D01*
X27523809Y-8550057D02*
X27571428Y-8502438D01*
X27571428Y-8502438D02*
X27666666Y-8454819D01*
X27666666Y-8454819D02*
X27904761Y-8454819D01*
X27904761Y-8454819D02*
X28047618Y-8502438D01*
X28476190Y-9454819D02*
X28476190Y-8454819D01*
X28476190Y-8454819D02*
X28857142Y-8454819D01*
X28857142Y-8454819D02*
X28952380Y-8502438D01*
X28952380Y-8502438D02*
X28999999Y-8550057D01*
X28999999Y-8550057D02*
X29047618Y-8645295D01*
X29047618Y-8645295D02*
X29047618Y-8788152D01*
X29047618Y-8788152D02*
X28999999Y-8883390D01*
X28999999Y-8883390D02*
X28952380Y-8931009D01*
X28952380Y-8931009D02*
X28857142Y-8978628D01*
X28857142Y-8978628D02*
X28476190Y-8978628D01*
X29999999Y-9454819D02*
X29428571Y-9454819D01*
X29714285Y-9454819D02*
X29714285Y-8454819D01*
X29714285Y-8454819D02*
X29619047Y-8597676D01*
X29619047Y-8597676D02*
X29523809Y-8692914D01*
X29523809Y-8692914D02*
X29428571Y-8740533D01*
D11*
%TO.C,SW6_DOWN1*%
X40300000Y-43050000D02*
X40300000Y-42950000D01*
X40300000Y-44550000D02*
X44700000Y-44550000D01*
X44700000Y-41450000D02*
X40300000Y-41450000D01*
X44700000Y-43050000D02*
X44700000Y-42950000D01*
%TO.C,SW2_TIMER1*%
X25800000Y-6050000D02*
X25800000Y-5950000D01*
X25800000Y-7550000D02*
X30200000Y-7550000D01*
X30200000Y-4450000D02*
X25800000Y-4450000D01*
X30200000Y-6050000D02*
X30200000Y-5950000D01*
%TO.C,SW3_MANUAL1*%
X40300000Y-6050000D02*
X40300000Y-5950000D01*
X40300000Y-7550000D02*
X44700000Y-7550000D01*
X44700000Y-4450000D02*
X40300000Y-4450000D01*
X44700000Y-6050000D02*
X44700000Y-5950000D01*
%TO.C,SW4_SETTINGS1*%
X9800000Y-43050000D02*
X9800000Y-42950000D01*
X9800000Y-44550000D02*
X14200000Y-44550000D01*
X14200000Y-41450000D02*
X9800000Y-41450000D01*
X14200000Y-43050000D02*
X14200000Y-42950000D01*
%TO.C,SW5_UP1*%
X25800000Y-43050000D02*
X25800000Y-42950000D01*
X25800000Y-44550000D02*
X30200000Y-44550000D01*
X30200000Y-41450000D02*
X25800000Y-41450000D01*
X30200000Y-43050000D02*
X30200000Y-42950000D01*
%TO.C,SW1_POWER1*%
X9800000Y-6050000D02*
X9800000Y-5950000D01*
X9800000Y-7550000D02*
X14200000Y-7550000D01*
X14200000Y-4450000D02*
X9800000Y-4450000D01*
X14200000Y-6050000D02*
X14200000Y-5950000D01*
%TO.C,DISP1*%
X19100000Y-13000000D02*
X19100000Y-10500000D01*
D12*
X20630000Y-11000000D02*
G75*
G02*
X20130000Y-11000000I-250000J0D01*
G01*
X20130000Y-11000000D02*
G75*
G02*
X20630000Y-11000000I250000J0D01*
G01*
%TD*%
M02*
