M48
; DRILL file {KiCad 9.0.2+dfsg-1} date 2026-06-03T17:20:01-0400
; FORMAT={-:-/ absolute / metric / decimal}
; #@! TF.CreationDate,2026-06-03T17:20:01-04:00
; #@! TF.GenerationSoftware,Kicad,Pcbnew,9.0.2+dfsg-1
; #@! TF.FileFunction,MixedPlating,1,2
FMAT,2
METRIC
; #@! TA.AperFunction,Plated,PTH,ViaDrill
T1C0.300
; #@! TA.AperFunction,Plated,PTH,ComponentDrill
T2C0.600
; #@! TA.AperFunction,Plated,PTH,ComponentDrill
T3C0.800
; #@! TA.AperFunction,Plated,PTH,ComponentDrill
T4C1.000
; #@! TA.AperFunction,Plated,PTH,ComponentDrill
T5C1.100
; #@! TA.AperFunction,NonPlated,NPTH,ComponentDrill
T6C0.650
; #@! TA.AperFunction,NonPlated,NPTH,ComponentDrill
T7C2.100
%
G90
G05
T1
X6.78Y-30.314
X6.825Y-14.54
X8.787Y-16.478
X14.615Y-37.23
X16.492Y-16.711
X17.693Y-20.255
X18.463Y-33.14
X21.648Y-36.063
X22.084Y-5.2
X22.657Y-33.686
X27.623Y-6.8
X28.708Y-48.64
X30.97Y-4.718
X34.975Y-37.23
X36.503Y-36.843
X36.792Y-36.063
X37.227Y-34.851
X40.091Y-47.916
X40.11Y-20.611
X40.486Y-21.32
X41.362Y-6.35
X41.528Y-28.643
X42.045Y-43.8
X42.62Y-30.847
X46.182Y-7.683
T3
X19.11Y-7.84
X19.11Y-10.38
X19.11Y-12.92
X19.11Y-15.46
X19.11Y-18.0
X19.11Y-20.54
X19.11Y-23.08
X19.11Y-25.62
X19.11Y-28.16
X20.38Y-13.0
X20.38Y-30.7
X22.92Y-13.0
X22.92Y-30.7
X25.46Y-13.0
X25.46Y-30.7
X28.0Y-13.0
X28.0Y-30.7
X30.54Y-13.0
X30.54Y-30.7
X33.08Y-13.0
X33.08Y-30.7
X35.62Y-13.0
X35.62Y-30.7
X36.89Y-7.84
X36.89Y-10.38
X36.89Y-12.92
X36.89Y-15.46
X36.89Y-18.0
X36.89Y-20.54
X36.89Y-23.08
X36.89Y-25.62
X36.89Y-28.16
T4
X52.0Y-13.5
X52.0Y-16.0
X52.0Y-27.5
X52.0Y-30.0
X53.0Y-37.0
X53.0Y-39.54
X53.0Y-42.08
X53.0Y-44.62
T5
X5.84Y-18.5
X16.0Y-18.5
T6
X27.11Y-48.9
X32.89Y-48.9
T7
X7.0Y-6.0
X7.0Y-43.0
X48.0Y-6.0
X48.0Y-43.0
T2
X25.68Y-48.92G85X25.68Y-47.82
G05
X25.68Y-52.85G85X25.68Y-52.25
G05
X34.32Y-48.92G85X34.32Y-47.82
G05
X34.32Y-52.85G85X34.32Y-52.25
G05
M30
