%TF.GenerationSoftware,KiCad,Pcbnew,9.0.2+dfsg-1*%
%TF.CreationDate,2026-07-13T18:07:25-04:00*%
%TF.ProjectId,autofeeder,6175746f-6665-4656-9465-722e6b696361,rev?*%
%TF.SameCoordinates,Original*%
%TF.FileFunction,Soldermask,Bot*%
%TF.FilePolarity,Negative*%
%FSLAX46Y46*%
G04 Gerber Fmt 4.6, Leading zero omitted, Abs format (unit mm)*
G04 Created by KiCad (PCBNEW 9.0.2+dfsg-1) date 2026-07-13 18:07:25*
%MOMM*%
%LPD*%
G01*
G04 APERTURE LIST*
G04 Aperture macros list*
%AMRoundRect*
0 Rectangle with rounded corners*
0 $1 Rounding radius*
0 $2 $3 $4 $5 $6 $7 $8 $9 X,Y pos of 4 corners*
0 Add a 4 corners polygon primitive as box body*
4,1,4,$2,$3,$4,$5,$6,$7,$8,$9,$2,$3,0*
0 Add four circle primitives for the rounded corners*
1,1,$1+$1,$2,$3*
1,1,$1+$1,$4,$5*
1,1,$1+$1,$6,$7*
1,1,$1+$1,$8,$9*
0 Add four rect primitives between the rounded corners*
20,1,$1+$1,$2,$3,$4,$5,0*
20,1,$1+$1,$4,$5,$6,$7,0*
20,1,$1+$1,$6,$7,$8,$9,0*
20,1,$1+$1,$8,$9,$2,$3,0*%
G04 Aperture macros list end*
%ADD10C,2.100000*%
%ADD11C,1.100000*%
%ADD12R,1.100000X1.100000*%
%ADD13RoundRect,0.250000X0.250000X0.475000X-0.250000X0.475000X-0.250000X-0.475000X0.250000X-0.475000X0*%
%ADD14RoundRect,0.250000X0.750000X-0.600000X0.750000X0.600000X-0.750000X0.600000X-0.750000X-0.600000X0*%
%ADD15O,2.000000X1.700000*%
%ADD16RoundRect,0.200000X0.200000X0.275000X-0.200000X0.275000X-0.200000X-0.275000X0.200000X-0.275000X0*%
%ADD17C,0.650000*%
%ADD18R,0.600000X1.450000*%
%ADD19R,0.300000X1.450000*%
%ADD20O,1.000000X1.600000*%
%ADD21O,1.000000X2.100000*%
%ADD22RoundRect,0.162500X0.617500X0.162500X-0.617500X0.162500X-0.617500X-0.162500X0.617500X-0.162500X0*%
%ADD23RoundRect,0.225000X0.225000X0.250000X-0.225000X0.250000X-0.225000X-0.250000X0.225000X-0.250000X0*%
%ADD24RoundRect,0.150000X0.825000X0.150000X-0.825000X0.150000X-0.825000X-0.150000X0.825000X-0.150000X0*%
%ADD25RoundRect,0.218750X0.218750X0.381250X-0.218750X0.381250X-0.218750X-0.381250X0.218750X-0.381250X0*%
%ADD26R,1.700000X1.700000*%
%ADD27C,1.700000*%
%ADD28C,1.400000*%
%ADD29RoundRect,0.249999X0.850001X0.850001X-0.850001X0.850001X-0.850001X-0.850001X0.850001X-0.850001X0*%
%ADD30C,2.200000*%
%ADD31RoundRect,0.062500X0.350000X0.062500X-0.350000X0.062500X-0.350000X-0.062500X0.350000X-0.062500X0*%
%ADD32R,1.200000X2.000000*%
%ADD33RoundRect,0.250000X0.312500X1.450000X-0.312500X1.450000X-0.312500X-1.450000X0.312500X-1.450000X0*%
%ADD34RoundRect,0.218750X0.218750X0.256250X-0.218750X0.256250X-0.218750X-0.256250X0.218750X-0.256250X0*%
G04 APERTURE END LIST*
D10*
%TO.C,H3*%
X48000000Y-6000000D03*
%TD*%
%TO.C,H2*%
X7000000Y-43000000D03*
%TD*%
D11*
%TO.C,DISP1*%
X22920000Y-13000000D03*
D12*
X20380000Y-13000000D03*
D11*
X35620000Y-13000000D03*
X33080000Y-13000000D03*
X30540000Y-13000000D03*
X25460000Y-13000000D03*
X28000000Y-13000000D03*
%TD*%
D10*
%TO.C,H1*%
X7000000Y-6000000D03*
%TD*%
%TO.C,H4*%
X48000000Y-43000000D03*
%TD*%
D13*
%TO.C,C5*%
X20950000Y-42000000D03*
X19050000Y-42000000D03*
%TD*%
D14*
%TO.C,J1*%
X52000000Y-34000000D03*
D15*
X52000000Y-31500000D03*
%TD*%
D16*
%TO.C,R2_C1*%
X16825000Y-22000000D03*
X15175000Y-22000000D03*
%TD*%
D17*
%TO.C,J3*%
X32890000Y-48900000D03*
X27110000Y-48900000D03*
D18*
X33250000Y-47455000D03*
X32450000Y-47455000D03*
D19*
X31250000Y-47455000D03*
X30250000Y-47455000D03*
X29750000Y-47455000D03*
X28750000Y-47455000D03*
D18*
X27550000Y-47455000D03*
X26750000Y-47455000D03*
X26750000Y-47455000D03*
X27550000Y-47455000D03*
D19*
X28250000Y-47455000D03*
X29250000Y-47455000D03*
X30750000Y-47455000D03*
X31750000Y-47455000D03*
D18*
X32450000Y-47455000D03*
X33250000Y-47455000D03*
D20*
X34320000Y-52550000D03*
D21*
X34320000Y-48370000D03*
D20*
X25680000Y-52550000D03*
D21*
X25680000Y-48370000D03*
%TD*%
D22*
%TO.C,U8*%
X20350000Y-34050000D03*
X20350000Y-35000000D03*
X20350000Y-35950000D03*
X17650000Y-35950000D03*
X17650000Y-35000000D03*
X17650000Y-34050000D03*
%TD*%
D16*
%TO.C,R_CC2*%
X34825000Y-3500000D03*
X33175000Y-3500000D03*
%TD*%
D23*
%TO.C,C6*%
X46775000Y-40000000D03*
X45225000Y-40000000D03*
%TD*%
D24*
%TO.C,U2*%
X16475000Y-12095000D03*
X16475000Y-13365000D03*
X16475000Y-14635000D03*
X16475000Y-15905000D03*
X11525000Y-15905000D03*
X11525000Y-14635000D03*
X11525000Y-13365000D03*
X11525000Y-12095000D03*
%TD*%
D25*
%TO.C,L1*%
X7062500Y-36000000D03*
X4937500Y-36000000D03*
%TD*%
D14*
%TO.C,J_MOTOR_CTRL1*%
X52000000Y-14000000D03*
D15*
X52000000Y-11500000D03*
%TD*%
D23*
%TO.C,C3*%
X35775000Y-33000000D03*
X34225000Y-33000000D03*
%TD*%
D14*
%TO.C,J_MOTOR_PWR1*%
X52000000Y-24000000D03*
D15*
X52000000Y-21500000D03*
%TD*%
D16*
%TO.C,R10*%
X46825000Y-50000000D03*
X45175000Y-50000000D03*
%TD*%
D23*
%TO.C,C1*%
X40775000Y-23000000D03*
X39225000Y-23000000D03*
%TD*%
D26*
%TO.C,J4*%
X53000000Y-39000000D03*
D27*
X53000000Y-41540000D03*
X53000000Y-44080000D03*
X53000000Y-46620000D03*
%TD*%
D12*
%TO.C,U1*%
X36890000Y-28160000D03*
D11*
X36890000Y-25620000D03*
X36890000Y-23080000D03*
X36890000Y-20540000D03*
X36890000Y-18000000D03*
X36890000Y-15460000D03*
X36890000Y-12920000D03*
X36890000Y-10380000D03*
X36890000Y-7840000D03*
X19110000Y-28160000D03*
X19110000Y-25620000D03*
X19110000Y-23080000D03*
X19110000Y-20540000D03*
X19110000Y-18000000D03*
X19110000Y-15460000D03*
X19110000Y-12920000D03*
X19110000Y-10380000D03*
X19110000Y-7840000D03*
D28*
X35620000Y-30700000D03*
X33080000Y-30700000D03*
X30540000Y-30700000D03*
X28000000Y-30700000D03*
X25460000Y-30700000D03*
X22920000Y-30700000D03*
X20380000Y-30700000D03*
%TD*%
D29*
%TO.C,D1*%
X16000000Y-18500000D03*
D30*
X5840000Y-18500000D03*
%TD*%
D31*
%TO.C,U4*%
X14212500Y-35000000D03*
X14212500Y-35500000D03*
X14212500Y-36000000D03*
X14212500Y-36500000D03*
X14212500Y-37000000D03*
X11787500Y-37000000D03*
X11787500Y-36500000D03*
X11787500Y-36000000D03*
X11787500Y-35500000D03*
X11787500Y-35000000D03*
D32*
X13000000Y-36000000D03*
%TD*%
D26*
%TO.C,J_GPS1*%
X44000000Y-14000000D03*
D27*
X44000000Y-16540000D03*
X44000000Y-19080000D03*
X44000000Y-21620000D03*
%TD*%
D16*
%TO.C,R5*%
X48825000Y-46000000D03*
X47175000Y-46000000D03*
%TD*%
D26*
%TO.C,J_RTC1*%
X42000000Y-30000000D03*
D27*
X42000000Y-32540000D03*
X42000000Y-35080000D03*
X42000000Y-37620000D03*
%TD*%
D16*
%TO.C,R13*%
X44825000Y-8000000D03*
X43175000Y-8000000D03*
%TD*%
D13*
%TO.C,C4*%
X12950000Y-42000000D03*
X11050000Y-42000000D03*
%TD*%
D16*
%TO.C,R4*%
X11825000Y-50000000D03*
X10175000Y-50000000D03*
%TD*%
D24*
%TO.C,U6*%
X43475000Y-43095000D03*
X43475000Y-44365000D03*
X43475000Y-45635000D03*
X43475000Y-46905000D03*
X38525000Y-46905000D03*
X38525000Y-45635000D03*
X38525000Y-44365000D03*
X38525000Y-43095000D03*
%TD*%
D16*
%TO.C,R_CC1*%
X28825000Y-3500000D03*
X27175000Y-3500000D03*
%TD*%
D33*
%TO.C,F1*%
X9137500Y-13000000D03*
X4862500Y-13000000D03*
%TD*%
D13*
%TO.C,C2*%
X40950000Y-26000000D03*
X39050000Y-26000000D03*
%TD*%
D34*
%TO.C,LED_CHG1*%
X8787500Y-22000000D03*
X7212500Y-22000000D03*
%TD*%
D16*
%TO.C,R6*%
X42825000Y-49000000D03*
X41175000Y-49000000D03*
%TD*%
D22*
%TO.C,U3*%
X11350000Y-27050000D03*
X11350000Y-28000000D03*
X11350000Y-28950000D03*
X8650000Y-28950000D03*
X8650000Y-28000000D03*
X8650000Y-27050000D03*
%TD*%
D16*
%TO.C,R3*%
X11825000Y-46000000D03*
X10175000Y-46000000D03*
%TD*%
M02*
