%TF.GenerationSoftware,KiCad,Pcbnew,9.0.2+dfsg-1*%
%TF.CreationDate,2026-07-13T22:48:07-04:00*%
%TF.ProjectId,autofeeder,6175746f-6665-4656-9465-722e6b696361,rev?*%
%TF.SameCoordinates,Original*%
%TF.FileFunction,Copper,L3,Inr*%
%TF.FilePolarity,Positive*%
%FSLAX46Y46*%
G04 Gerber Fmt 4.6, Leading zero omitted, Abs format (unit mm)*
G04 Created by KiCad (PCBNEW 9.0.2+dfsg-1) date 2026-07-13 22:48:07*
%MOMM*%
%LPD*%
G01*
G04 APERTURE LIST*
G04 Aperture macros list*
%AMRoundRect*
0 Rectangle with rounded corners*
0 $1 Rounding radius*
0 $2 $3 $4 $5 $6 $7 $8 $9 X,Y pos of 4 corners*
0 Add a 4 corners polygon primitive as box body*
4,1,4,$2,$3,$4,$5,$6,$7,$8,$9,$2,$3,0*
0 Add four circle primitives for the rounded corners*
1,1,$1+$1,$2,$3*
1,1,$1+$1,$4,$5*
1,1,$1+$1,$6,$7*
1,1,$1+$1,$8,$9*
0 Add four rect primitives between the rounded corners*
20,1,$1+$1,$2,$3,$4,$5,0*
20,1,$1+$1,$4,$5,$6,$7,0*
20,1,$1+$1,$6,$7,$8,$9,0*
20,1,$1+$1,$8,$9,$2,$3,0*%
G04 Aperture macros list end*
%TA.AperFunction,ComponentPad*%
%ADD10C,1.100000*%
%TD*%
%TA.AperFunction,ComponentPad*%
%ADD11R,1.100000X1.100000*%
%TD*%
%TA.AperFunction,ComponentPad*%
%ADD12RoundRect,0.250000X0.750000X-0.600000X0.750000X0.600000X-0.750000X0.600000X-0.750000X-0.600000X0*%
%TD*%
%TA.AperFunction,ComponentPad*%
%ADD13O,2.000000X1.700000*%
%TD*%
%TA.AperFunction,ComponentPad*%
%ADD14R,1.700000X1.700000*%
%TD*%
%TA.AperFunction,ComponentPad*%
%ADD15C,1.700000*%
%TD*%
%TA.AperFunction,ComponentPad*%
%ADD16RoundRect,0.249999X0.850001X0.850001X-0.850001X0.850001X-0.850001X-0.850001X0.850001X-0.850001X0*%
%TD*%
%TA.AperFunction,ComponentPad*%
%ADD17C,2.200000*%
%TD*%
%TA.AperFunction,HeatsinkPad*%
%ADD18O,1.000000X1.600000*%
%TD*%
%TA.AperFunction,HeatsinkPad*%
%ADD19O,1.000000X2.100000*%
%TD*%
%TA.AperFunction,ComponentPad*%
%ADD20C,1.400000*%
%TD*%
%TA.AperFunction,ViaPad*%
%ADD21C,0.600000*%
%TD*%
%TA.AperFunction,Conductor*%
%ADD22C,0.200000*%
%TD*%
G04 APERTURE END LIST*
D10*
%TO.N,/VCC_3V3*%
%TO.C,DISP1*%
X22920000Y-13000000D03*
D11*
%TO.N,GND*%
X20380000Y-13000000D03*
D10*
%TO.N,/DISP_CS*%
X35620000Y-13000000D03*
%TO.N,/DISP_DC*%
X33080000Y-13000000D03*
%TO.N,/DISP_RST*%
X30540000Y-13000000D03*
%TO.N,/DISP_SCK*%
X25460000Y-13000000D03*
%TO.N,/DISP_MOSI*%
X28000000Y-13000000D03*
%TD*%
D12*
%TO.N,/BATT_P*%
%TO.C,J1*%
X52000000Y-34000000D03*
D13*
%TO.N,/BATT_N*%
X52000000Y-31500000D03*
%TD*%
D12*
%TO.N,/MOTOR_IN1*%
%TO.C,J_MOTOR_CTRL1*%
X52000000Y-14000000D03*
D13*
%TO.N,/MOTOR_IN2*%
X52000000Y-11500000D03*
%TD*%
D14*
%TO.N,/VCC_3V3*%
%TO.C,J4*%
X53000000Y-39000000D03*
D15*
%TO.N,unconnected-(J4-Pin_2-Pad2)*%
X53000000Y-41540000D03*
%TO.N,unconnected-(J4-Pin_3-Pad3)*%
X53000000Y-44080000D03*
%TO.N,GND*%
X53000000Y-46620000D03*
%TD*%
D12*
%TO.N,/BATT_PROT*%
%TO.C,J_MOTOR_PWR1*%
X52000000Y-24000000D03*
D13*
%TO.N,GND*%
X52000000Y-21500000D03*
%TD*%
D16*
%TO.N,/BATT_PROT*%
%TO.C,D1*%
X16000000Y-18500000D03*
D17*
%TO.N,/BATT_N*%
X5840000Y-18500000D03*
%TD*%
D14*
%TO.N,/VCC_3V3*%
%TO.C,J_RTC1*%
X42000000Y-30000000D03*
D15*
%TO.N,GND*%
X42000000Y-32540000D03*
%TO.N,/I2C_SDA*%
X42000000Y-35080000D03*
%TO.N,/I2C_SCL*%
X42000000Y-37620000D03*
%TD*%
D18*
%TO.N,GND*%
%TO.C,J3*%
X34320000Y-52550000D03*
D19*
X34320000Y-48370000D03*
D18*
X25680000Y-52550000D03*
D19*
X25680000Y-48370000D03*
%TD*%
D11*
%TO.N,unconnected-(U1-5V-Pad1)*%
%TO.C,U1*%
X36890000Y-28160000D03*
D10*
%TO.N,GND*%
X36890000Y-25620000D03*
%TO.N,/VCC_3V3*%
X36890000Y-23080000D03*
%TO.N,/BUTTON_POWER*%
X36890000Y-20540000D03*
%TO.N,/BUTTON_TIMER*%
X36890000Y-18000000D03*
%TO.N,/BUTTON_MANUAL*%
X36890000Y-15460000D03*
%TO.N,/BUTTON_SETTINGS*%
X36890000Y-12920000D03*
%TO.N,/BUTTON_UP*%
X36890000Y-10380000D03*
%TO.N,/BUTTON_DOWN*%
X36890000Y-7840000D03*
%TO.N,/MOTOR_IN1*%
X19110000Y-28160000D03*
%TO.N,/MOTOR_IN2*%
X19110000Y-25620000D03*
%TO.N,/DISP_SCK*%
X19110000Y-23080000D03*
%TO.N,/DISP_MOSI*%
X19110000Y-20540000D03*
%TO.N,/DISP_CS*%
X19110000Y-18000000D03*
%TO.N,unconnected-(U1-GP19-Pad15)*%
X19110000Y-15460000D03*
%TO.N,unconnected-(U1-GP20-Pad16)*%
X19110000Y-12920000D03*
%TO.N,/CAN_TX*%
X19110000Y-10380000D03*
%TO.N,/CAN_RX*%
X19110000Y-7840000D03*
D20*
%TO.N,/I2C_SDA*%
X35620000Y-30700000D03*
%TO.N,/DISP_DC*%
X33080000Y-30700000D03*
%TO.N,/I2C_SCL*%
X30540000Y-30700000D03*
%TO.N,/CAN_RS*%
X28000000Y-30700000D03*
%TO.N,/GPS_RX*%
X25460000Y-30700000D03*
%TO.N,/GPS_TX*%
X22920000Y-30700000D03*
%TO.N,/BAT_MON*%
X20380000Y-30700000D03*
%TD*%
D14*
%TO.N,/VCC_3V3*%
%TO.C,J_GPS1*%
X44000000Y-14000000D03*
D15*
%TO.N,GND*%
X44000000Y-16540000D03*
%TO.N,/GPS_RX*%
X44000000Y-19080000D03*
%TO.N,/GPS_TX*%
X44000000Y-21620000D03*
%TD*%
D21*
%TO.N,/BATT_N*%
X21200000Y-33300000D03*
X19500000Y-33300000D03*
X7860300Y-26260300D03*
X21556100Y-35486300D03*
%TO.N,/BATT_P*%
X9336200Y-17577400D03*
%TO.N,/BATT_PROT*%
X4336900Y-15857900D03*
X13222400Y-37474100D03*
X13796600Y-41122800D03*
%TO.N,/BAT_MON*%
X11825000Y-48549600D03*
%TO.N,/BUTTON_DOWN*%
X39312500Y-42194600D03*
%TO.N,/BUTTON_SETTINGS*%
X34858800Y-38937400D03*
%TO.N,/BUTTON_UP*%
X35040000Y-42200000D03*
%TO.N,/CAN_H_PROT*%
X28750000Y-48640400D03*
X40304800Y-49216200D03*
%TO.N,/CAN_TX*%
X31337800Y-40968200D03*
X43475000Y-41641700D03*
%TO.N,/CC1*%
X30801200Y-46274800D03*
X28825000Y-4439800D03*
%TO.N,/CC2*%
X34825000Y-4450200D03*
X28657700Y-46252700D03*
%TO.N,/VCC_3V3*%
X13850200Y-34390400D03*
X20950000Y-40181200D03*
%TO.N,GND*%
X12358800Y-23406400D03*
X28000100Y-7030400D03*
X50550000Y-17550000D03*
X50550000Y-52750000D03*
X26350000Y-46150000D03*
X10950000Y-8750000D03*
X46150000Y-26350000D03*
X35150000Y-52750000D03*
X50550000Y-46150000D03*
X32950000Y-2150000D03*
X50550000Y-28550000D03*
X24150000Y-6550000D03*
X52750000Y-26350000D03*
X6550000Y-2150000D03*
X37350000Y-6550000D03*
X54950000Y-6550000D03*
X4350000Y-48350000D03*
X50550000Y-2150000D03*
X52750000Y-8750000D03*
X13150000Y-52750000D03*
X4350000Y-43950000D03*
X46150000Y-19750000D03*
X4350000Y-46150000D03*
X19750000Y-46150000D03*
X2150000Y-6550000D03*
X28550000Y-10950000D03*
X17550000Y-48350000D03*
X15350000Y-2150000D03*
X4350000Y-37350000D03*
X4350000Y-50550000D03*
X17550000Y-8750000D03*
X54950000Y-50550000D03*
X28550000Y-50550000D03*
X46150000Y-37350000D03*
X35150000Y-43950000D03*
X4350000Y-2150000D03*
X52750000Y-6550000D03*
X46150000Y-8750000D03*
X28550000Y-35150000D03*
X32950000Y-52750000D03*
X8750000Y-4350000D03*
X4350000Y-21950000D03*
X24150000Y-52750000D03*
X48350000Y-19750000D03*
X4350000Y-39550000D03*
X54950000Y-35150000D03*
X15350000Y-8750000D03*
X32950000Y-6550000D03*
X8750000Y-24150000D03*
X6550000Y-52750000D03*
X2150000Y-52750000D03*
X35150000Y-48350000D03*
X26350000Y-8750000D03*
X15350000Y-48350000D03*
X46150000Y-2150000D03*
X50550000Y-48350000D03*
X54950000Y-24150000D03*
X46150000Y-13150000D03*
X54950000Y-19750000D03*
X43950000Y-35150000D03*
X2150000Y-24150000D03*
X8750000Y-8750000D03*
X50550000Y-41750000D03*
X48350000Y-21950000D03*
X19750000Y-52750000D03*
X24150000Y-35150000D03*
X46150000Y-52750000D03*
X26350000Y-21950000D03*
X54950000Y-32950000D03*
X8750000Y-2150000D03*
X46150000Y-4350000D03*
X46150000Y-30750000D03*
X54950000Y-21950000D03*
X21950000Y-8750000D03*
X48350000Y-37350000D03*
X50550000Y-19750000D03*
X10950000Y-2150000D03*
X19750000Y-6550000D03*
X24150000Y-4350000D03*
X52750000Y-17550000D03*
X48350000Y-52750000D03*
X52750000Y-48350000D03*
X35150000Y-46150000D03*
X6550000Y-48350000D03*
X54950000Y-41750000D03*
X8750000Y-43950000D03*
X2150000Y-48350000D03*
X28550000Y-6550000D03*
X15350000Y-24150000D03*
X35150000Y-2150000D03*
X17550000Y-2150000D03*
X10868600Y-35500000D03*
X30750000Y-8750000D03*
X8750000Y-46150000D03*
X52750000Y-2150000D03*
X54950000Y-13150000D03*
X39550000Y-52750000D03*
X2150000Y-8750000D03*
X15350000Y-6550000D03*
X41750000Y-52750000D03*
X21950000Y-43950000D03*
X21950000Y-37350000D03*
X28550000Y-52750000D03*
X37350000Y-48350000D03*
X24150000Y-24150000D03*
X8750000Y-37350000D03*
X50550000Y-26350000D03*
X6550000Y-32950000D03*
X15350000Y-52750000D03*
X13150000Y-19750000D03*
X21950000Y-4350000D03*
X37350000Y-52750000D03*
X2150000Y-19750000D03*
X54950000Y-2150000D03*
X43950000Y-39550000D03*
X2150000Y-46150000D03*
X54950000Y-17550000D03*
X54950000Y-48350000D03*
X24150000Y-50550000D03*
X50550000Y-21950000D03*
X50550000Y-8750000D03*
X4350000Y-28550000D03*
X54950000Y-10950000D03*
X6550000Y-13150000D03*
X4350000Y-6550000D03*
X54950000Y-39550000D03*
X48350000Y-15350000D03*
X24150000Y-48350000D03*
X28550000Y-8750000D03*
X2150000Y-2150000D03*
X4350000Y-26350000D03*
X13150000Y-10950000D03*
X54950000Y-15350000D03*
X28550000Y-37350000D03*
X24150000Y-21950000D03*
X4350000Y-30750000D03*
X2150000Y-21950000D03*
X2150000Y-43950000D03*
X35150000Y-6550000D03*
X26350000Y-37350000D03*
X19750000Y-50550000D03*
X6550000Y-10950000D03*
X8750000Y-52750000D03*
X48350000Y-13150000D03*
X6550000Y-28550000D03*
X43950000Y-52750000D03*
X52750000Y-4350000D03*
X54950000Y-37350000D03*
X54950000Y-8750000D03*
X15350000Y-50550000D03*
X2150000Y-28550000D03*
X24150000Y-46150000D03*
X2150000Y-4350000D03*
X19750000Y-2150000D03*
X4350000Y-4350000D03*
X4350000Y-52750000D03*
X37350000Y-2150000D03*
X17550000Y-46150000D03*
X26350000Y-28550000D03*
X17550000Y-52750000D03*
X30750000Y-52750000D03*
X48350000Y-48350000D03*
X17550000Y-6550000D03*
X21950000Y-52750000D03*
X10950000Y-10950000D03*
X21950000Y-50550000D03*
X26350000Y-50550000D03*
X2150000Y-15350000D03*
X28550000Y-26350000D03*
X30750000Y-2150000D03*
X43950000Y-26350000D03*
X54950000Y-52750000D03*
X19750000Y-48350000D03*
X19750000Y-43950000D03*
X2150000Y-10950000D03*
X6550000Y-50550000D03*
X24150000Y-37350000D03*
X54950000Y-26350000D03*
X8750000Y-32950000D03*
X52750000Y-28550000D03*
X8750000Y-35150000D03*
X54950000Y-4350000D03*
X48350000Y-50550000D03*
X6550000Y-30750000D03*
X52750000Y-50550000D03*
X21950000Y-2150000D03*
X46150000Y-15350000D03*
X2150000Y-30750000D03*
X10950000Y-24150000D03*
X39550000Y-48350000D03*
X54950000Y-46150000D03*
X8750000Y-30750000D03*
X50550000Y-50550000D03*
X13150000Y-8750000D03*
X21950000Y-46150000D03*
X6550000Y-8750000D03*
X32950000Y-4350000D03*
X2150000Y-17550000D03*
X13150000Y-50550000D03*
X26350000Y-2150000D03*
X2150000Y-13150000D03*
X2150000Y-50550000D03*
X28550000Y-2150000D03*
X21950000Y-48350000D03*
X50550000Y-4350000D03*
X24150000Y-43950000D03*
X8750000Y-50550000D03*
X17550000Y-50550000D03*
X2150000Y-41750000D03*
X46150000Y-21950000D03*
X48350000Y-2150000D03*
X50550000Y-43950000D03*
X39550000Y-2150000D03*
X54950000Y-43950000D03*
X4350000Y-41750000D03*
X2150000Y-26350000D03*
X30750000Y-10950000D03*
X41750000Y-2150000D03*
X41750000Y-6550000D03*
X24150000Y-41750000D03*
X46150000Y-6550000D03*
X48350000Y-28550000D03*
X24150000Y-2150000D03*
X54950000Y-30750000D03*
X52750000Y-52750000D03*
X9462500Y-47566000D03*
X37350000Y-4350000D03*
X48350000Y-26350000D03*
X50550000Y-6550000D03*
X4350000Y-24150000D03*
X6550000Y-46150000D03*
X4350000Y-8750000D03*
X43950000Y-2150000D03*
X52750000Y-37350000D03*
X13150000Y-2150000D03*
X32950000Y-43950000D03*
X48350000Y-8750000D03*
X54950000Y-28550000D03*
X10950000Y-52750000D03*
X52750000Y-19750000D03*
X8750000Y-48350000D03*
X4350000Y-19750000D03*
X41750000Y-10950000D03*
%TD*%
D22*
%TO.N,/BATT_P*%
X46852300Y-28852300D02*
X41030500Y-28852300D01*
X41030500Y-28852300D02*
X40434100Y-29448700D01*
X29270100Y-30522400D02*
X29270100Y-30804300D01*
X28419100Y-31655300D02*
X22499600Y-31655300D01*
X20523600Y-29415300D02*
X19188800Y-29415300D01*
X21650100Y-30805800D02*
X21650100Y-30541800D01*
X30343800Y-29448700D02*
X29270100Y-30522400D01*
X29270100Y-30804300D02*
X28419100Y-31655300D01*
X52000000Y-34000000D02*
X46852300Y-28852300D01*
X22499600Y-31655300D02*
X21650100Y-30805800D01*
X19188800Y-29415300D02*
X9336200Y-19562700D01*
X9336200Y-19562700D02*
X9336200Y-17577400D01*
X40434100Y-29448700D02*
X30343800Y-29448700D01*
X21650100Y-30541800D02*
X20523600Y-29415300D01*
%TO.N,/BATT_PROT*%
X13357900Y-15857900D02*
X16000000Y-18500000D01*
X4336900Y-15857900D02*
X13357900Y-15857900D01*
%TO.N,/CAN_H_PROT*%
X40304800Y-49216200D02*
X39760500Y-49760500D01*
X29870100Y-49760500D02*
X28750000Y-48640400D01*
X39760500Y-49760500D02*
X29870100Y-49760500D01*
%TO.N,/CAN_TX*%
X31337800Y-40968200D02*
X42801500Y-40968200D01*
X42801500Y-40968200D02*
X43475000Y-41641700D01*
%TO.N,/DISP_CS*%
X19110000Y-18000000D02*
X30620000Y-18000000D01*
X30620000Y-18000000D02*
X35620000Y-13000000D01*
%TO.N,/DISP_MOSI*%
X21124700Y-14839400D02*
X26160600Y-14839400D01*
X18295900Y-19725900D02*
X18295900Y-17668200D01*
X19110000Y-20540000D02*
X18295900Y-19725900D01*
X18295900Y-17668200D02*
X21124700Y-14839400D01*
X26160600Y-14839400D02*
X28000000Y-13000000D01*
%TO.N,/GPS_RX*%
X40196400Y-27006600D02*
X29153400Y-27006600D01*
X29153400Y-27006600D02*
X25460000Y-30700000D01*
X45169800Y-22033200D02*
X40196400Y-27006600D01*
X44000000Y-19080000D02*
X45169800Y-20249800D01*
X45169800Y-20249800D02*
X45169800Y-22033200D01*
%TO.N,/GPS_TX*%
X32000000Y-21620000D02*
X44000000Y-21620000D01*
X22920000Y-30700000D02*
X32000000Y-21620000D01*
%TO.N,/I2C_SCL*%
X30540000Y-30700000D02*
X37460000Y-37620000D01*
X37460000Y-37620000D02*
X42000000Y-37620000D01*
%TO.N,/I2C_SDA*%
X35620000Y-30700000D02*
X40000000Y-35080000D01*
X40000000Y-35080000D02*
X42000000Y-35080000D01*
%TO.N,/MOTOR_IN1*%
X19110000Y-28160000D02*
X24399700Y-28160000D01*
X24399700Y-28160000D02*
X33289700Y-19270000D01*
X42173600Y-17810000D02*
X48190000Y-17810000D01*
X48190000Y-17810000D02*
X52000000Y-14000000D01*
X40713600Y-19270000D02*
X42173600Y-17810000D01*
X33289700Y-19270000D02*
X40713600Y-19270000D01*
%TO.N,/MOTOR_IN2*%
X44444000Y-11500000D02*
X39214000Y-16730000D01*
X52000000Y-11500000D02*
X44444000Y-11500000D01*
X24254000Y-25620000D02*
X19110000Y-25620000D01*
X33144000Y-16730000D02*
X24254000Y-25620000D01*
X39214000Y-16730000D02*
X33144000Y-16730000D01*
%TO.N,/VCC_3V3*%
X20950000Y-40181200D02*
X19641000Y-40181200D01*
X35554800Y-38721900D02*
X35191700Y-38358800D01*
X42488300Y-38721900D02*
X35554800Y-38721900D01*
X42000000Y-30000000D02*
X43101700Y-30000000D01*
X51898300Y-39000000D02*
X47771900Y-34873600D01*
X53000000Y-39000000D02*
X51898300Y-39000000D01*
X43101700Y-30000000D02*
X46336600Y-33234900D01*
X46336600Y-33234900D02*
X46336600Y-34873600D01*
X47771900Y-34873600D02*
X46336600Y-34873600D01*
X46336600Y-34873600D02*
X42488300Y-38721900D01*
X35191700Y-38358800D02*
X22772400Y-38358800D01*
X19641000Y-40181200D02*
X13850200Y-34390400D01*
X22772400Y-38358800D02*
X20950000Y-40181200D01*
%TO.N,GND*%
X34320000Y-52550000D02*
X34320000Y-51498300D01*
X21181700Y-13000000D02*
X27151300Y-7030400D01*
X34320000Y-51498300D02*
X25680000Y-51498300D01*
X25680000Y-52550000D02*
X25680000Y-51498300D01*
X27151300Y-7030400D02*
X28000100Y-7030400D01*
X20380000Y-13000000D02*
X21181700Y-13000000D01*
%TD*%
%TA.AperFunction,Conductor*%
%TO.N,GND*%
G36*
X40877826Y-29605308D02*
G01*
X40899500Y-29657634D01*
X40899500Y-30874672D01*
X40914034Y-30947740D01*
X40961989Y-31019512D01*
X40969399Y-31030601D01*
X41052260Y-31085966D01*
X41125326Y-31100500D01*
X41125328Y-31100500D01*
X42874672Y-31100500D01*
X42874674Y-31100500D01*
X42947740Y-31085966D01*
X43030601Y-31030601D01*
X43085966Y-30947740D01*
X43100500Y-30874674D01*
X43100500Y-30673134D01*
X43122174Y-30620808D01*
X43174500Y-30599134D01*
X43226826Y-30620808D01*
X45964426Y-33358408D01*
X45986100Y-33410734D01*
X45986100Y-34697766D01*
X45964426Y-34750092D01*
X43214219Y-37500298D01*
X43161893Y-37521972D01*
X43109567Y-37500298D01*
X43088805Y-37459550D01*
X43073402Y-37362299D01*
X43073400Y-37362295D01*
X43073399Y-37362288D01*
X43019874Y-37197557D01*
X43019872Y-37197553D01*
X42941232Y-37043212D01*
X42839417Y-36903076D01*
X42839416Y-36903075D01*
X42839414Y-36903072D01*
X42716928Y-36780586D01*
X42716925Y-36780583D01*
X42716923Y-36780582D01*
X42576787Y-36678767D01*
X42422446Y-36600127D01*
X42422442Y-36600125D01*
X42257711Y-36546600D01*
X42257698Y-36546597D01*
X42086612Y-36519500D01*
X42086611Y-36519500D01*
X41913389Y-36519500D01*
X41913388Y-36519500D01*
X41742301Y-36546597D01*
X41742288Y-36546600D01*
X41577557Y-36600125D01*
X41577553Y-36600127D01*
X41423212Y-36678767D01*
X41283076Y-36780582D01*
X41160582Y-36903076D01*
X41058767Y-37043211D01*
X40980123Y-37197562D01*
X40973364Y-37218367D01*
X40936581Y-37261435D01*
X40902986Y-37269500D01*
X37635834Y-37269500D01*
X37583508Y-37247826D01*
X31447626Y-31111944D01*
X31425952Y-31059618D01*
X31431585Y-31031299D01*
X31435846Y-31021012D01*
X31453973Y-30977251D01*
X31490500Y-30793616D01*
X31490500Y-30606384D01*
X31453973Y-30422749D01*
X31382322Y-30249769D01*
X31278302Y-30094092D01*
X31145908Y-29961698D01*
X31105545Y-29934728D01*
X31074080Y-29887637D01*
X31085129Y-29832088D01*
X31132221Y-29800622D01*
X31146658Y-29799200D01*
X32473342Y-29799200D01*
X32525668Y-29820874D01*
X32547342Y-29873200D01*
X32525668Y-29925526D01*
X32514454Y-29934729D01*
X32474092Y-29961697D01*
X32474091Y-29961699D01*
X32341699Y-30094091D01*
X32341697Y-30094092D01*
X32237676Y-30249772D01*
X32166027Y-30422748D01*
X32166025Y-30422755D01*
X32129500Y-30606384D01*
X32129500Y-30793615D01*
X32166025Y-30977244D01*
X32166027Y-30977251D01*
X32217078Y-31100500D01*
X32237678Y-31150231D01*
X32299196Y-31242299D01*
X32340957Y-31304800D01*
X32341698Y-31305908D01*
X32474092Y-31438302D01*
X32629769Y-31542322D01*
X32802749Y-31613973D01*
X32986384Y-31650500D01*
X32986385Y-31650500D01*
X33173615Y-31650500D01*
X33173616Y-31650500D01*
X33357251Y-31613973D01*
X33530231Y-31542322D01*
X33685908Y-31438302D01*
X33818302Y-31305908D01*
X33922322Y-31150231D01*
X33993973Y-30977251D01*
X34030500Y-30793616D01*
X34030500Y-30606384D01*
X33993973Y-30422749D01*
X33922322Y-30249769D01*
X33818302Y-30094092D01*
X33685908Y-29961698D01*
X33645545Y-29934728D01*
X33614080Y-29887637D01*
X33625129Y-29832088D01*
X33672221Y-29800622D01*
X33686658Y-29799200D01*
X35013342Y-29799200D01*
X35065668Y-29820874D01*
X35087342Y-29873200D01*
X35065668Y-29925526D01*
X35054454Y-29934729D01*
X35014092Y-29961697D01*
X35014091Y-29961699D01*
X34881699Y-30094091D01*
X34881697Y-30094092D01*
X34777676Y-30249772D01*
X34706027Y-30422748D01*
X34706025Y-30422755D01*
X34669500Y-30606384D01*
X34669500Y-30793615D01*
X34706025Y-30977244D01*
X34706027Y-30977251D01*
X34757078Y-31100500D01*
X34777678Y-31150231D01*
X34839196Y-31242299D01*
X34880957Y-31304800D01*
X34881698Y-31305908D01*
X35014092Y-31438302D01*
X35169769Y-31542322D01*
X35342749Y-31613973D01*
X35526384Y-31650500D01*
X35526385Y-31650500D01*
X35713615Y-31650500D01*
X35713616Y-31650500D01*
X35897251Y-31613973D01*
X35951300Y-31591585D01*
X36007936Y-31591585D01*
X36031944Y-31607626D01*
X39719531Y-35295212D01*
X39784788Y-35360469D01*
X39864712Y-35406614D01*
X39864713Y-35406614D01*
X39864715Y-35406615D01*
X39891616Y-35413823D01*
X39953853Y-35430499D01*
X39953854Y-35430500D01*
X39953856Y-35430500D01*
X40902986Y-35430500D01*
X40955312Y-35452174D01*
X40973364Y-35481633D01*
X40980123Y-35502437D01*
X41058767Y-35656788D01*
X41089281Y-35698786D01*
X41160586Y-35796928D01*
X41283072Y-35919414D01*
X41283075Y-35919416D01*
X41283076Y-35919417D01*
X41423212Y-36021232D01*
X41577553Y-36099872D01*
X41577557Y-36099874D01*
X41742288Y-36153399D01*
X41742294Y-36153400D01*
X41742299Y-36153402D01*
X41856359Y-36171467D01*
X41913388Y-36180500D01*
X41913389Y-36180500D01*
X42086612Y-36180500D01*
X42129383Y-36173725D01*
X42257701Y-36153402D01*
X42257708Y-36153399D01*
X42257711Y-36153399D01*
X42422442Y-36099874D01*
X42422442Y-36099873D01*
X42422445Y-36099873D01*
X42576788Y-36021232D01*
X42716928Y-35919414D01*
X42839414Y-35796928D01*
X42941232Y-35656788D01*
X43019873Y-35502445D01*
X43073402Y-35337701D01*
X43100500Y-35166611D01*
X43100500Y-34993389D01*
X43097320Y-34973314D01*
X43086244Y-34903383D01*
X43073402Y-34822299D01*
X43073400Y-34822294D01*
X43073399Y-34822288D01*
X43019874Y-34657557D01*
X43019872Y-34657553D01*
X42941232Y-34503212D01*
X42839417Y-34363076D01*
X42839416Y-34363075D01*
X42839414Y-34363072D01*
X42716928Y-34240586D01*
X42716925Y-34240583D01*
X42716923Y-34240582D01*
X42576787Y-34138767D01*
X42422446Y-34060127D01*
X42422442Y-34060125D01*
X42257711Y-34006600D01*
X42257698Y-34006597D01*
X42086612Y-33979500D01*
X42086611Y-33979500D01*
X41913389Y-33979500D01*
X41913388Y-33979500D01*
X41742301Y-34006597D01*
X41742288Y-34006600D01*
X41577557Y-34060125D01*
X41577553Y-34060127D01*
X41423212Y-34138767D01*
X41283076Y-34240582D01*
X41160582Y-34363076D01*
X41058767Y-34503211D01*
X40980123Y-34657562D01*
X40973364Y-34678367D01*
X40936581Y-34721435D01*
X40902986Y-34729500D01*
X40175833Y-34729500D01*
X40123507Y-34707826D01*
X38922136Y-33506454D01*
X37865173Y-32449491D01*
X40850000Y-32449491D01*
X40850000Y-32630508D01*
X40878316Y-32809289D01*
X40878319Y-32809302D01*
X40934251Y-32981443D01*
X41016431Y-33142728D01*
X41057668Y-33199487D01*
X41531980Y-32725174D01*
X41534075Y-32732993D01*
X41599901Y-32847007D01*
X41692993Y-32940099D01*
X41807007Y-33005925D01*
X41814822Y-33008019D01*
X41340511Y-33482331D01*
X41397266Y-33523566D01*
X41558556Y-33605748D01*
X41558555Y-33605748D01*
X41730697Y-33661680D01*
X41730710Y-33661683D01*
X41909491Y-33690000D01*
X42090509Y-33690000D01*
X42269289Y-33661683D01*
X42269302Y-33661680D01*
X42441443Y-33605748D01*
X42602729Y-33523568D01*
X42659487Y-33482331D01*
X42185176Y-33008019D01*
X42192993Y-33005925D01*
X42307007Y-32940099D01*
X42400099Y-32847007D01*
X42465925Y-32732993D01*
X42468019Y-32725176D01*
X42942331Y-33199487D01*
X42983568Y-33142729D01*
X43065748Y-32981443D01*
X43121680Y-32809302D01*
X43121683Y-32809289D01*
X43150000Y-32630508D01*
X43150000Y-32449491D01*
X43121683Y-32270710D01*
X43121680Y-32270697D01*
X43065748Y-32098556D01*
X42983566Y-31937267D01*
X42983566Y-31937266D01*
X42942331Y-31880511D01*
X42468019Y-32354822D01*
X42465925Y-32347007D01*
X42400099Y-32232993D01*
X42307007Y-32139901D01*
X42192993Y-32074075D01*
X42185174Y-32071980D01*
X42659487Y-31597668D01*
X42602728Y-31556431D01*
X42441443Y-31474251D01*
X42441444Y-31474251D01*
X42269302Y-31418319D01*
X42269289Y-31418316D01*
X42090509Y-31390000D01*
X41909491Y-31390000D01*
X41730710Y-31418316D01*
X41730697Y-31418319D01*
X41558558Y-31474250D01*
X41397268Y-31556431D01*
X41340511Y-31597667D01*
X41340511Y-31597668D01*
X41814823Y-32071980D01*
X41807007Y-32074075D01*
X41692993Y-32139901D01*
X41599901Y-32232993D01*
X41534075Y-32347007D01*
X41531980Y-32354823D01*
X41057668Y-31880511D01*
X41057667Y-31880511D01*
X41016431Y-31937268D01*
X40934250Y-32098558D01*
X40878319Y-32270697D01*
X40878316Y-32270710D01*
X40850000Y-32449491D01*
X37865173Y-32449491D01*
X36527626Y-31111944D01*
X36505952Y-31059618D01*
X36511585Y-31031299D01*
X36515846Y-31021012D01*
X36533973Y-30977251D01*
X36570500Y-30793616D01*
X36570500Y-30606384D01*
X36533973Y-30422749D01*
X36462322Y-30249769D01*
X36358302Y-30094092D01*
X36225908Y-29961698D01*
X36185545Y-29934728D01*
X36154080Y-29887637D01*
X36165129Y-29832088D01*
X36212221Y-29800622D01*
X36226658Y-29799200D01*
X40480246Y-29799200D01*
X40480246Y-29799199D01*
X40569388Y-29775314D01*
X40649312Y-29729170D01*
X40773174Y-29605308D01*
X40825500Y-29583634D01*
X40877826Y-29605308D01*
G37*
%TD.AperFunction*%
%TA.AperFunction,Conductor*%
G36*
X42919144Y-21977192D02*
G01*
X42936581Y-21978565D01*
X42944312Y-21987618D01*
X42955312Y-21992174D01*
X42973364Y-22021633D01*
X42980123Y-22042437D01*
X43058767Y-22196788D01*
X43141213Y-22310264D01*
X43160586Y-22336928D01*
X43283072Y-22459414D01*
X43283075Y-22459416D01*
X43283076Y-22459417D01*
X43423212Y-22561232D01*
X43577553Y-22639872D01*
X43577557Y-22639874D01*
X43742288Y-22693399D01*
X43742294Y-22693400D01*
X43742299Y-22693402D01*
X43833332Y-22707820D01*
X43881623Y-22737413D01*
X43894845Y-22792485D01*
X43874082Y-22833235D01*
X40072892Y-26634426D01*
X40020566Y-26656100D01*
X29107254Y-26656100D01*
X29018115Y-26679984D01*
X29018110Y-26679986D01*
X28938191Y-26726128D01*
X25871943Y-29792373D01*
X25819617Y-29814047D01*
X25791299Y-29808414D01*
X25737255Y-29786028D01*
X25737244Y-29786025D01*
X25598902Y-29758507D01*
X25553616Y-29749500D01*
X25366384Y-29749500D01*
X25330056Y-29756725D01*
X25182755Y-29786025D01*
X25182748Y-29786027D01*
X25009772Y-29857676D01*
X24854092Y-29961697D01*
X24854091Y-29961699D01*
X24721699Y-30094091D01*
X24721697Y-30094092D01*
X24617676Y-30249772D01*
X24546027Y-30422748D01*
X24546025Y-30422755D01*
X24509500Y-30606384D01*
X24509500Y-30793615D01*
X24546025Y-30977244D01*
X24546027Y-30977251D01*
X24617678Y-31150231D01*
X24644042Y-31189687D01*
X24655092Y-31245236D01*
X24623627Y-31292328D01*
X24582514Y-31304800D01*
X23797486Y-31304800D01*
X23745160Y-31283126D01*
X23723486Y-31230800D01*
X23735958Y-31189687D01*
X23762322Y-31150231D01*
X23833973Y-30977251D01*
X23870500Y-30793616D01*
X23870500Y-30606384D01*
X23833973Y-30422749D01*
X23811584Y-30368697D01*
X23811584Y-30312063D01*
X23827622Y-30288058D01*
X31114523Y-23001159D01*
X36089500Y-23001159D01*
X36089500Y-23158840D01*
X36120261Y-23313491D01*
X36120264Y-23313501D01*
X36180603Y-23459174D01*
X36180605Y-23459177D01*
X36180606Y-23459179D01*
X36268211Y-23590289D01*
X36379711Y-23701789D01*
X36510821Y-23789394D01*
X36510826Y-23789396D01*
X36510825Y-23789396D01*
X36656498Y-23849735D01*
X36656503Y-23849737D01*
X36811158Y-23880500D01*
X36811160Y-23880500D01*
X36968840Y-23880500D01*
X36968842Y-23880500D01*
X37123497Y-23849737D01*
X37269179Y-23789394D01*
X37400289Y-23701789D01*
X37511789Y-23590289D01*
X37599394Y-23459179D01*
X37659737Y-23313497D01*
X37690500Y-23158842D01*
X37690500Y-23001158D01*
X37659737Y-22846503D01*
X37614551Y-22737413D01*
X37599396Y-22700825D01*
X37599395Y-22700823D01*
X37599394Y-22700821D01*
X37511789Y-22569711D01*
X37400289Y-22458211D01*
X37269179Y-22370606D01*
X37269175Y-22370604D01*
X37269173Y-22370603D01*
X37269174Y-22370603D01*
X37123501Y-22310264D01*
X37123491Y-22310261D01*
X37019925Y-22289661D01*
X36968842Y-22279500D01*
X36811158Y-22279500D01*
X36767315Y-22288220D01*
X36656508Y-22310261D01*
X36656498Y-22310264D01*
X36510825Y-22370603D01*
X36379711Y-22458210D01*
X36379710Y-22458212D01*
X36268212Y-22569710D01*
X36268210Y-22569711D01*
X36180603Y-22700825D01*
X36120264Y-22846498D01*
X36120261Y-22846508D01*
X36089500Y-23001159D01*
X31114523Y-23001159D01*
X32123508Y-21992174D01*
X32175834Y-21970500D01*
X42902986Y-21970500D01*
X42919144Y-21977192D01*
G37*
%TD.AperFunction*%
%TA.AperFunction,Conductor*%
G36*
X55477826Y-522174D02*
G01*
X55499500Y-574500D01*
X55499500Y-53425500D01*
X55477826Y-53477826D01*
X55425500Y-53499500D01*
X574500Y-53499500D01*
X522174Y-53477826D01*
X500500Y-53425500D01*
X500500Y-48477122D01*
X11274500Y-48477122D01*
X11274500Y-48622077D01*
X11312014Y-48762081D01*
X11312016Y-48762086D01*
X11364440Y-48852886D01*
X11384491Y-48887615D01*
X11486985Y-48990109D01*
X11612515Y-49062584D01*
X11612516Y-49062584D01*
X11612518Y-49062585D01*
X11680900Y-49080908D01*
X11752522Y-49100099D01*
X11752523Y-49100100D01*
X11752525Y-49100100D01*
X11897477Y-49100100D01*
X11897477Y-49100099D01*
X12037485Y-49062584D01*
X12163015Y-48990109D01*
X12265509Y-48887615D01*
X12302104Y-48824231D01*
X26534500Y-48824231D01*
X26534500Y-48975768D01*
X26573717Y-49122130D01*
X26573721Y-49122139D01*
X26625934Y-49212574D01*
X26649485Y-49253365D01*
X26756635Y-49360515D01*
X26887865Y-49436281D01*
X27034231Y-49475499D01*
X27034232Y-49475500D01*
X27034234Y-49475500D01*
X27185768Y-49475500D01*
X27185768Y-49475499D01*
X27332135Y-49436281D01*
X27463365Y-49360515D01*
X27570515Y-49253365D01*
X27646281Y-49122135D01*
X27685499Y-48975768D01*
X27685500Y-48975768D01*
X27685500Y-48824232D01*
X27685499Y-48824231D01*
X27646282Y-48677869D01*
X27646281Y-48677865D01*
X27614072Y-48622077D01*
X27601369Y-48600075D01*
X27582805Y-48567922D01*
X28199500Y-48567922D01*
X28199500Y-48712877D01*
X28237014Y-48852881D01*
X28237016Y-48852886D01*
X28251622Y-48878184D01*
X28309491Y-48978415D01*
X28411985Y-49080909D01*
X28537515Y-49153384D01*
X28537516Y-49153384D01*
X28537518Y-49153385D01*
X28607520Y-49172142D01*
X28677522Y-49190899D01*
X28677523Y-49190900D01*
X28677525Y-49190900D01*
X28774166Y-49190900D01*
X28826492Y-49212574D01*
X29654888Y-50040970D01*
X29734812Y-50087114D01*
X29734813Y-50087114D01*
X29734815Y-50087115D01*
X29779384Y-50099057D01*
X29823953Y-50110999D01*
X29823954Y-50111000D01*
X29823956Y-50111000D01*
X39806646Y-50111000D01*
X39806646Y-50110999D01*
X39895788Y-50087114D01*
X39975712Y-50040970D01*
X40228308Y-49788374D01*
X40280634Y-49766700D01*
X40377277Y-49766700D01*
X40377277Y-49766699D01*
X40517285Y-49729184D01*
X40642815Y-49656709D01*
X40745309Y-49554215D01*
X40817784Y-49428685D01*
X40855299Y-49288677D01*
X40855300Y-49288677D01*
X40855300Y-49143723D01*
X40855299Y-49143722D01*
X40849513Y-49122130D01*
X40817784Y-49003715D01*
X40745309Y-48878185D01*
X40642815Y-48775691D01*
X40619242Y-48762081D01*
X40517286Y-48703216D01*
X40517281Y-48703214D01*
X40377277Y-48665700D01*
X40377275Y-48665700D01*
X40232325Y-48665700D01*
X40232323Y-48665700D01*
X40092318Y-48703214D01*
X40092313Y-48703216D01*
X39966784Y-48775691D01*
X39864291Y-48878184D01*
X39791816Y-49003713D01*
X39791814Y-49003718D01*
X39754300Y-49143722D01*
X39754300Y-49240366D01*
X39732626Y-49292692D01*
X39636992Y-49388326D01*
X39584666Y-49410000D01*
X33372531Y-49410000D01*
X33320205Y-49388326D01*
X33298531Y-49336000D01*
X33320204Y-49283675D01*
X33350515Y-49253365D01*
X33426281Y-49122135D01*
X33465499Y-48975768D01*
X33465500Y-48975768D01*
X33465500Y-48824232D01*
X33465499Y-48824231D01*
X33426282Y-48677869D01*
X33426281Y-48677865D01*
X33350515Y-48546635D01*
X33243365Y-48439485D01*
X33243362Y-48439483D01*
X33112139Y-48363721D01*
X33112130Y-48363717D01*
X32965768Y-48324500D01*
X32965766Y-48324500D01*
X32814234Y-48324500D01*
X32814232Y-48324500D01*
X32667869Y-48363717D01*
X32667860Y-48363721D01*
X32536637Y-48439483D01*
X32429483Y-48546637D01*
X32353721Y-48677860D01*
X32353717Y-48677869D01*
X32314500Y-48824231D01*
X32314500Y-48975768D01*
X32353717Y-49122130D01*
X32353721Y-49122139D01*
X32405934Y-49212574D01*
X32429485Y-49253365D01*
X32459795Y-49283675D01*
X32481469Y-49336000D01*
X32459795Y-49388326D01*
X32407469Y-49410000D01*
X30045934Y-49410000D01*
X29993608Y-49388326D01*
X29322174Y-48716892D01*
X29300500Y-48664566D01*
X29300500Y-48567923D01*
X29300499Y-48567922D01*
X29262985Y-48427918D01*
X29262983Y-48427913D01*
X29190508Y-48302384D01*
X29088015Y-48199891D01*
X28962486Y-48127416D01*
X28962481Y-48127414D01*
X28822477Y-48089900D01*
X28822475Y-48089900D01*
X28677525Y-48089900D01*
X28677523Y-48089900D01*
X28537518Y-48127414D01*
X28537513Y-48127416D01*
X28411984Y-48199891D01*
X28309491Y-48302384D01*
X28237016Y-48427913D01*
X28237014Y-48427918D01*
X28199500Y-48567922D01*
X27582805Y-48567922D01*
X27570516Y-48546637D01*
X27570515Y-48546635D01*
X27463365Y-48439485D01*
X27463362Y-48439483D01*
X27332139Y-48363721D01*
X27332130Y-48363717D01*
X27185768Y-48324500D01*
X27185766Y-48324500D01*
X27034234Y-48324500D01*
X27034232Y-48324500D01*
X26887869Y-48363717D01*
X26887860Y-48363721D01*
X26756637Y-48439483D01*
X26649483Y-48546637D01*
X26573721Y-48677860D01*
X26573717Y-48677869D01*
X26534500Y-48824231D01*
X12302104Y-48824231D01*
X12337984Y-48762085D01*
X12375499Y-48622077D01*
X12375500Y-48622077D01*
X12375500Y-48477123D01*
X12375499Y-48477122D01*
X12362313Y-48427913D01*
X12337984Y-48337115D01*
X12265509Y-48211585D01*
X12163015Y-48109091D01*
X12037486Y-48036616D01*
X12037481Y-48036614D01*
X11897477Y-47999100D01*
X11897475Y-47999100D01*
X11752525Y-47999100D01*
X11752523Y-47999100D01*
X11612518Y-48036614D01*
X11612513Y-48036616D01*
X11486984Y-48109091D01*
X11384491Y-48211584D01*
X11312016Y-48337113D01*
X11312014Y-48337118D01*
X11274500Y-48477122D01*
X500500Y-48477122D01*
X500500Y-46180222D01*
X28107200Y-46180222D01*
X28107200Y-46325177D01*
X28144714Y-46465181D01*
X28144716Y-46465186D01*
X28158804Y-46489586D01*
X28217191Y-46590715D01*
X28319685Y-46693209D01*
X28445215Y-46765684D01*
X28445216Y-46765684D01*
X28445218Y-46765685D01*
X28515220Y-46784442D01*
X28585222Y-46803199D01*
X28585223Y-46803200D01*
X28585225Y-46803200D01*
X28730177Y-46803200D01*
X28730177Y-46803199D01*
X28870185Y-46765684D01*
X28995715Y-46693209D01*
X29098209Y-46590715D01*
X29170684Y-46465185D01*
X29208199Y-46325177D01*
X29208200Y-46325177D01*
X29208200Y-46202322D01*
X30250700Y-46202322D01*
X30250700Y-46347277D01*
X30288214Y-46487281D01*
X30288216Y-46487286D01*
X30360691Y-46612815D01*
X30463185Y-46715309D01*
X30588715Y-46787784D01*
X30588716Y-46787784D01*
X30588718Y-46787785D01*
X30658720Y-46806542D01*
X30728722Y-46825299D01*
X30728723Y-46825300D01*
X30728725Y-46825300D01*
X30873677Y-46825300D01*
X30873677Y-46825299D01*
X31013685Y-46787784D01*
X31139215Y-46715309D01*
X31241709Y-46612815D01*
X31289816Y-46529491D01*
X51850000Y-46529491D01*
X51850000Y-46710508D01*
X51878316Y-46889289D01*
X51878319Y-46889302D01*
X51934251Y-47061443D01*
X52016431Y-47222728D01*
X52057668Y-47279487D01*
X52531980Y-46805174D01*
X52534075Y-46812993D01*
X52599901Y-46927007D01*
X52692993Y-47020099D01*
X52807007Y-47085925D01*
X52814822Y-47088019D01*
X52340511Y-47562331D01*
X52397266Y-47603566D01*
X52558556Y-47685748D01*
X52558555Y-47685748D01*
X52730697Y-47741680D01*
X52730710Y-47741683D01*
X52909491Y-47770000D01*
X53090509Y-47770000D01*
X53269289Y-47741683D01*
X53269302Y-47741680D01*
X53441443Y-47685748D01*
X53602729Y-47603568D01*
X53659487Y-47562331D01*
X53185176Y-47088019D01*
X53192993Y-47085925D01*
X53307007Y-47020099D01*
X53400099Y-46927007D01*
X53465925Y-46812993D01*
X53468019Y-46805176D01*
X53942331Y-47279487D01*
X53983568Y-47222729D01*
X54065748Y-47061443D01*
X54121680Y-46889302D01*
X54121683Y-46889289D01*
X54150000Y-46710508D01*
X54150000Y-46529491D01*
X54121683Y-46350710D01*
X54121680Y-46350697D01*
X54065748Y-46178556D01*
X53983566Y-46017267D01*
X53983566Y-46017266D01*
X53942331Y-45960511D01*
X53468019Y-46434822D01*
X53465925Y-46427007D01*
X53400099Y-46312993D01*
X53307007Y-46219901D01*
X53192993Y-46154075D01*
X53185174Y-46151980D01*
X53659487Y-45677668D01*
X53602728Y-45636431D01*
X53441443Y-45554251D01*
X53441444Y-45554251D01*
X53269302Y-45498319D01*
X53269289Y-45498316D01*
X53090509Y-45470000D01*
X52909491Y-45470000D01*
X52730710Y-45498316D01*
X52730697Y-45498319D01*
X52558558Y-45554250D01*
X52397268Y-45636431D01*
X52340511Y-45677667D01*
X52340511Y-45677668D01*
X52814823Y-46151980D01*
X52807007Y-46154075D01*
X52692993Y-46219901D01*
X52599901Y-46312993D01*
X52534075Y-46427007D01*
X52531980Y-46434823D01*
X52057668Y-45960511D01*
X52057667Y-45960511D01*
X52016431Y-46017268D01*
X51934250Y-46178558D01*
X51878319Y-46350697D01*
X51878316Y-46350710D01*
X51850000Y-46529491D01*
X31289816Y-46529491D01*
X31314184Y-46487285D01*
X31351699Y-46347277D01*
X31351700Y-46347277D01*
X31351700Y-46202323D01*
X31351699Y-46202322D01*
X31345331Y-46178558D01*
X31314184Y-46062315D01*
X31241709Y-45936785D01*
X31139215Y-45834291D01*
X31027786Y-45769957D01*
X31013686Y-45761816D01*
X31013681Y-45761814D01*
X30873677Y-45724300D01*
X30873675Y-45724300D01*
X30728725Y-45724300D01*
X30728723Y-45724300D01*
X30588718Y-45761814D01*
X30588713Y-45761816D01*
X30463184Y-45834291D01*
X30360691Y-45936784D01*
X30288216Y-46062313D01*
X30288214Y-46062318D01*
X30250700Y-46202322D01*
X29208200Y-46202322D01*
X29208200Y-46180223D01*
X29208199Y-46180222D01*
X29170685Y-46040218D01*
X29170683Y-46040213D01*
X29098208Y-45914684D01*
X28995715Y-45812191D01*
X28870186Y-45739716D01*
X28870181Y-45739714D01*
X28730177Y-45702200D01*
X28730175Y-45702200D01*
X28585225Y-45702200D01*
X28585223Y-45702200D01*
X28445218Y-45739714D01*
X28445213Y-45739716D01*
X28319684Y-45812191D01*
X28217191Y-45914684D01*
X28144716Y-46040213D01*
X28144714Y-46040218D01*
X28107200Y-46180222D01*
X500500Y-46180222D01*
X500500Y-42897646D01*
X5699500Y-42897646D01*
X5699500Y-43102353D01*
X5731522Y-43304531D01*
X5731525Y-43304544D01*
X5794777Y-43499213D01*
X5887712Y-43681610D01*
X5961406Y-43783040D01*
X6008034Y-43847219D01*
X6152781Y-43991966D01*
X6244695Y-44058745D01*
X6318389Y-44112287D01*
X6406300Y-44157079D01*
X6500781Y-44205220D01*
X6500783Y-44205220D01*
X6500786Y-44205222D01*
X6695455Y-44268474D01*
X6695461Y-44268475D01*
X6695466Y-44268477D01*
X6796557Y-44284488D01*
X6897646Y-44300500D01*
X6897648Y-44300500D01*
X7102354Y-44300500D01*
X7183224Y-44287690D01*
X7304534Y-44268477D01*
X7304541Y-44268474D01*
X7304544Y-44268474D01*
X7499213Y-44205222D01*
X7499213Y-44205221D01*
X7499219Y-44205220D01*
X7681610Y-44112287D01*
X7847219Y-43991966D01*
X7991966Y-43847219D01*
X8112287Y-43681610D01*
X8205220Y-43499219D01*
X8249457Y-43363072D01*
X8268474Y-43304544D01*
X8268474Y-43304541D01*
X8268477Y-43304534D01*
X8300500Y-43102352D01*
X8300500Y-42897648D01*
X8300500Y-42897646D01*
X46699500Y-42897646D01*
X46699500Y-43102353D01*
X46731522Y-43304531D01*
X46731525Y-43304544D01*
X46794777Y-43499213D01*
X46887712Y-43681610D01*
X46961406Y-43783040D01*
X47008034Y-43847219D01*
X47152781Y-43991966D01*
X47244695Y-44058745D01*
X47318389Y-44112287D01*
X47406300Y-44157079D01*
X47500781Y-44205220D01*
X47500783Y-44205220D01*
X47500786Y-44205222D01*
X47695455Y-44268474D01*
X47695461Y-44268475D01*
X47695466Y-44268477D01*
X47796557Y-44284488D01*
X47897646Y-44300500D01*
X47897648Y-44300500D01*
X48102354Y-44300500D01*
X48183224Y-44287690D01*
X48304534Y-44268477D01*
X48304541Y-44268474D01*
X48304544Y-44268474D01*
X48499213Y-44205222D01*
X48499213Y-44205221D01*
X48499219Y-44205220D01*
X48681610Y-44112287D01*
X48845262Y-43993388D01*
X51899500Y-43993388D01*
X51899500Y-44166611D01*
X51926597Y-44337698D01*
X51926600Y-44337711D01*
X51980125Y-44502442D01*
X51980127Y-44502446D01*
X52058767Y-44656787D01*
X52058768Y-44656788D01*
X52160586Y-44796928D01*
X52283072Y-44919414D01*
X52283075Y-44919416D01*
X52283076Y-44919417D01*
X52423212Y-45021232D01*
X52577553Y-45099872D01*
X52577557Y-45099874D01*
X52742288Y-45153399D01*
X52742294Y-45153400D01*
X52742299Y-45153402D01*
X52856359Y-45171467D01*
X52913388Y-45180500D01*
X52913389Y-45180500D01*
X53086612Y-45180500D01*
X53129383Y-45173725D01*
X53257701Y-45153402D01*
X53257708Y-45153399D01*
X53257711Y-45153399D01*
X53422442Y-45099874D01*
X53422442Y-45099873D01*
X53422445Y-45099873D01*
X53576788Y-45021232D01*
X53716928Y-44919414D01*
X53839414Y-44796928D01*
X53941232Y-44656788D01*
X54019873Y-44502445D01*
X54073402Y-44337701D01*
X54100500Y-44166611D01*
X54100500Y-43993389D01*
X54073402Y-43822299D01*
X54073400Y-43822294D01*
X54073399Y-43822288D01*
X54019874Y-43657557D01*
X54019872Y-43657553D01*
X53941232Y-43503212D01*
X53839417Y-43363076D01*
X53839416Y-43363075D01*
X53839414Y-43363072D01*
X53716928Y-43240586D01*
X53716925Y-43240583D01*
X53716923Y-43240582D01*
X53576787Y-43138767D01*
X53422446Y-43060127D01*
X53422442Y-43060125D01*
X53257711Y-43006600D01*
X53257698Y-43006597D01*
X53086612Y-42979500D01*
X53086611Y-42979500D01*
X52913389Y-42979500D01*
X52913388Y-42979500D01*
X52742301Y-43006597D01*
X52742288Y-43006600D01*
X52577557Y-43060125D01*
X52577553Y-43060127D01*
X52423212Y-43138767D01*
X52283076Y-43240582D01*
X52160582Y-43363076D01*
X52058767Y-43503212D01*
X51980127Y-43657553D01*
X51980125Y-43657557D01*
X51926600Y-43822288D01*
X51926597Y-43822301D01*
X51899500Y-43993388D01*
X48845262Y-43993388D01*
X48847219Y-43991966D01*
X48991966Y-43847219D01*
X49112287Y-43681610D01*
X49205220Y-43499219D01*
X49249457Y-43363072D01*
X49268474Y-43304544D01*
X49268474Y-43304541D01*
X49268477Y-43304534D01*
X49300500Y-43102352D01*
X49300500Y-42897648D01*
X49268477Y-42695466D01*
X49268475Y-42695461D01*
X49268474Y-42695455D01*
X49205222Y-42500786D01*
X49205220Y-42500783D01*
X49205220Y-42500781D01*
X49143378Y-42379409D01*
X49112287Y-42318389D01*
X49020605Y-42192200D01*
X48991966Y-42152781D01*
X48847219Y-42008034D01*
X48783040Y-41961406D01*
X48681610Y-41887712D01*
X48499213Y-41794777D01*
X48304544Y-41731525D01*
X48304531Y-41731522D01*
X48102354Y-41699500D01*
X48102352Y-41699500D01*
X47897648Y-41699500D01*
X47897646Y-41699500D01*
X47695468Y-41731522D01*
X47695455Y-41731525D01*
X47500786Y-41794777D01*
X47318389Y-41887712D01*
X47181023Y-41987515D01*
X47152781Y-42008034D01*
X47008034Y-42152781D01*
X47008031Y-42152784D01*
X47008031Y-42152785D01*
X46887712Y-42318389D01*
X46794777Y-42500786D01*
X46731525Y-42695455D01*
X46731522Y-42695468D01*
X46699500Y-42897646D01*
X8300500Y-42897646D01*
X8268477Y-42695466D01*
X8268475Y-42695461D01*
X8268474Y-42695455D01*
X8205222Y-42500786D01*
X8205220Y-42500783D01*
X8205220Y-42500781D01*
X8143378Y-42379409D01*
X8112287Y-42318389D01*
X8020605Y-42192200D01*
X7991966Y-42152781D01*
X7966707Y-42127522D01*
X34489500Y-42127522D01*
X34489500Y-42272477D01*
X34527014Y-42412481D01*
X34527016Y-42412486D01*
X34566707Y-42481232D01*
X34599491Y-42538015D01*
X34701985Y-42640509D01*
X34793876Y-42693563D01*
X34818163Y-42707585D01*
X34827515Y-42712984D01*
X34827516Y-42712984D01*
X34827518Y-42712985D01*
X34897520Y-42731742D01*
X34967522Y-42750499D01*
X34967523Y-42750500D01*
X34967525Y-42750500D01*
X35112477Y-42750500D01*
X35112477Y-42750499D01*
X35252485Y-42712984D01*
X35378015Y-42640509D01*
X35480509Y-42538015D01*
X35552984Y-42412485D01*
X35590499Y-42272477D01*
X35590500Y-42272477D01*
X35590500Y-42127527D01*
X35590498Y-42127518D01*
X35589052Y-42122123D01*
X35589052Y-42122122D01*
X38762000Y-42122122D01*
X38762000Y-42267077D01*
X38799514Y-42407081D01*
X38799516Y-42407086D01*
X38853614Y-42500786D01*
X38871991Y-42532615D01*
X38974485Y-42635109D01*
X39066376Y-42688163D01*
X39079029Y-42695468D01*
X39100015Y-42707584D01*
X39100016Y-42707584D01*
X39100018Y-42707585D01*
X39170020Y-42726342D01*
X39240022Y-42745099D01*
X39240023Y-42745100D01*
X39240025Y-42745100D01*
X39384977Y-42745100D01*
X39384977Y-42745099D01*
X39524985Y-42707584D01*
X39650515Y-42635109D01*
X39753009Y-42532615D01*
X39825484Y-42407085D01*
X39862999Y-42267077D01*
X39863000Y-42267077D01*
X39863000Y-42122123D01*
X39862999Y-42122122D01*
X39861569Y-42116787D01*
X39844242Y-42052120D01*
X39825485Y-41982118D01*
X39825483Y-41982113D01*
X39770980Y-41887712D01*
X39753009Y-41856585D01*
X39650515Y-41754091D01*
X39611430Y-41731525D01*
X39524986Y-41681616D01*
X39524981Y-41681614D01*
X39384977Y-41644100D01*
X39384975Y-41644100D01*
X39240025Y-41644100D01*
X39240023Y-41644100D01*
X39100018Y-41681614D01*
X39100013Y-41681616D01*
X38974484Y-41754091D01*
X38871991Y-41856584D01*
X38799516Y-41982113D01*
X38799514Y-41982118D01*
X38762000Y-42122122D01*
X35589052Y-42122122D01*
X35575944Y-42073202D01*
X35552985Y-41987518D01*
X35552983Y-41987513D01*
X35495363Y-41887713D01*
X35480509Y-41861985D01*
X35378015Y-41759491D01*
X35329577Y-41731525D01*
X35252486Y-41687016D01*
X35252481Y-41687014D01*
X35112477Y-41649500D01*
X35112475Y-41649500D01*
X34967525Y-41649500D01*
X34967523Y-41649500D01*
X34827518Y-41687014D01*
X34827513Y-41687016D01*
X34701984Y-41759491D01*
X34599491Y-41861984D01*
X34527016Y-41987513D01*
X34527014Y-41987518D01*
X34489500Y-42127522D01*
X7966707Y-42127522D01*
X7847219Y-42008034D01*
X7783040Y-41961406D01*
X7681610Y-41887712D01*
X7499213Y-41794777D01*
X7304544Y-41731525D01*
X7304531Y-41731522D01*
X7102354Y-41699500D01*
X7102352Y-41699500D01*
X6897648Y-41699500D01*
X6897646Y-41699500D01*
X6695468Y-41731522D01*
X6695455Y-41731525D01*
X6500786Y-41794777D01*
X6318389Y-41887712D01*
X6181023Y-41987515D01*
X6152781Y-42008034D01*
X6008034Y-42152781D01*
X6008031Y-42152784D01*
X6008031Y-42152785D01*
X5887712Y-42318389D01*
X5794777Y-42500786D01*
X5731525Y-42695455D01*
X5731522Y-42695468D01*
X5699500Y-42897646D01*
X500500Y-42897646D01*
X500500Y-41050322D01*
X13246100Y-41050322D01*
X13246100Y-41195277D01*
X13283614Y-41335281D01*
X13283616Y-41335286D01*
X13337847Y-41429215D01*
X13356091Y-41460815D01*
X13458585Y-41563309D01*
X13584115Y-41635784D01*
X13584116Y-41635784D01*
X13584118Y-41635785D01*
X13615150Y-41644100D01*
X13724122Y-41673299D01*
X13724123Y-41673300D01*
X13724125Y-41673300D01*
X13869077Y-41673300D01*
X13869077Y-41673299D01*
X14009085Y-41635784D01*
X14134615Y-41563309D01*
X14237109Y-41460815D01*
X14309584Y-41335285D01*
X14347099Y-41195277D01*
X14347100Y-41195277D01*
X14347100Y-41050323D01*
X14347099Y-41050322D01*
X14309584Y-40910315D01*
X14309583Y-40910313D01*
X14301159Y-40895722D01*
X30787300Y-40895722D01*
X30787300Y-41040677D01*
X30824814Y-41180681D01*
X30824816Y-41180686D01*
X30836655Y-41201191D01*
X30897291Y-41306215D01*
X30999785Y-41408709D01*
X31035308Y-41429218D01*
X31105311Y-41469635D01*
X31125315Y-41481184D01*
X31125316Y-41481184D01*
X31125318Y-41481185D01*
X31195320Y-41499942D01*
X31265322Y-41518699D01*
X31265323Y-41518700D01*
X31265325Y-41518700D01*
X31410277Y-41518700D01*
X31410277Y-41518699D01*
X31550285Y-41481184D01*
X31675815Y-41408709D01*
X31744150Y-41340374D01*
X31796476Y-41318700D01*
X42625666Y-41318700D01*
X42677992Y-41340374D01*
X42902826Y-41565208D01*
X42924500Y-41617534D01*
X42924500Y-41714177D01*
X42962014Y-41854181D01*
X42962016Y-41854186D01*
X42981373Y-41887713D01*
X43034491Y-41979715D01*
X43136985Y-42082209D01*
X43262515Y-42154684D01*
X43262516Y-42154684D01*
X43262518Y-42154685D01*
X43332520Y-42173442D01*
X43402522Y-42192199D01*
X43402523Y-42192200D01*
X43402525Y-42192200D01*
X43547477Y-42192200D01*
X43547477Y-42192199D01*
X43687485Y-42154684D01*
X43813015Y-42082209D01*
X43915509Y-41979715D01*
X43987984Y-41854185D01*
X44025499Y-41714177D01*
X44025500Y-41714177D01*
X44025500Y-41569223D01*
X44025499Y-41569222D01*
X44024423Y-41565208D01*
X44011962Y-41518700D01*
X43998815Y-41469635D01*
X43994462Y-41453388D01*
X51899500Y-41453388D01*
X51899500Y-41626611D01*
X51926597Y-41797698D01*
X51926600Y-41797711D01*
X51980125Y-41962442D01*
X51980127Y-41962446D01*
X52058767Y-42116787D01*
X52084918Y-42152781D01*
X52160586Y-42256928D01*
X52283072Y-42379414D01*
X52283075Y-42379416D01*
X52283076Y-42379417D01*
X52423212Y-42481232D01*
X52577553Y-42559872D01*
X52577557Y-42559874D01*
X52742288Y-42613399D01*
X52742294Y-42613400D01*
X52742299Y-42613402D01*
X52856359Y-42631467D01*
X52913388Y-42640500D01*
X52913389Y-42640500D01*
X53086612Y-42640500D01*
X53129383Y-42633725D01*
X53257701Y-42613402D01*
X53257708Y-42613399D01*
X53257711Y-42613399D01*
X53422442Y-42559874D01*
X53422442Y-42559873D01*
X53422445Y-42559873D01*
X53576788Y-42481232D01*
X53716928Y-42379414D01*
X53839414Y-42256928D01*
X53941232Y-42116788D01*
X54019873Y-41962445D01*
X54044155Y-41887713D01*
X54073399Y-41797711D01*
X54073399Y-41797708D01*
X54073402Y-41797701D01*
X54100500Y-41626611D01*
X54100500Y-41453389D01*
X54073402Y-41282299D01*
X54073400Y-41282294D01*
X54073399Y-41282288D01*
X54019874Y-41117557D01*
X54019872Y-41117553D01*
X53941232Y-40963212D01*
X53839417Y-40823076D01*
X53839416Y-40823075D01*
X53839414Y-40823072D01*
X53716928Y-40700586D01*
X53716925Y-40700583D01*
X53716923Y-40700582D01*
X53576787Y-40598767D01*
X53422446Y-40520127D01*
X53422442Y-40520125D01*
X53257711Y-40466600D01*
X53257698Y-40466597D01*
X53086612Y-40439500D01*
X53086611Y-40439500D01*
X52913389Y-40439500D01*
X52913388Y-40439500D01*
X52742301Y-40466597D01*
X52742288Y-40466600D01*
X52577557Y-40520125D01*
X52577553Y-40520127D01*
X52423212Y-40598767D01*
X52283076Y-40700582D01*
X52160582Y-40823076D01*
X52058767Y-40963212D01*
X51980127Y-41117553D01*
X51980125Y-41117557D01*
X51926600Y-41282288D01*
X51926597Y-41282301D01*
X51899500Y-41453388D01*
X43994462Y-41453388D01*
X43987985Y-41429218D01*
X43987983Y-41429213D01*
X43924178Y-41318700D01*
X43915509Y-41303685D01*
X43813015Y-41201191D01*
X43802768Y-41195275D01*
X43687486Y-41128716D01*
X43687481Y-41128714D01*
X43547477Y-41091200D01*
X43547475Y-41091200D01*
X43450834Y-41091200D01*
X43398508Y-41069526D01*
X43016712Y-40687730D01*
X42936789Y-40641586D01*
X42936784Y-40641584D01*
X42847646Y-40617700D01*
X42847644Y-40617700D01*
X31796476Y-40617700D01*
X31744150Y-40596026D01*
X31675815Y-40527691D01*
X31550286Y-40455216D01*
X31550281Y-40455214D01*
X31410277Y-40417700D01*
X31410275Y-40417700D01*
X31265325Y-40417700D01*
X31265323Y-40417700D01*
X31125318Y-40455214D01*
X31125313Y-40455216D01*
X30999784Y-40527691D01*
X30897291Y-40630184D01*
X30824816Y-40755713D01*
X30824814Y-40755718D01*
X30787300Y-40895722D01*
X14301159Y-40895722D01*
X14237108Y-40784784D01*
X14134615Y-40682291D01*
X14009086Y-40609816D01*
X14009081Y-40609814D01*
X13869077Y-40572300D01*
X13869075Y-40572300D01*
X13724125Y-40572300D01*
X13724123Y-40572300D01*
X13584118Y-40609814D01*
X13584113Y-40609816D01*
X13458584Y-40682291D01*
X13356091Y-40784784D01*
X13283616Y-40910313D01*
X13283614Y-40910318D01*
X13246100Y-41050322D01*
X500500Y-41050322D01*
X500500Y-37401622D01*
X12671900Y-37401622D01*
X12671900Y-37546577D01*
X12709414Y-37686581D01*
X12709416Y-37686586D01*
X12781891Y-37812115D01*
X12884385Y-37914609D01*
X13009915Y-37987084D01*
X13009916Y-37987084D01*
X13009918Y-37987085D01*
X13079920Y-38005842D01*
X13149922Y-38024599D01*
X13149923Y-38024600D01*
X13149925Y-38024600D01*
X13294877Y-38024600D01*
X13294877Y-38024599D01*
X13434885Y-37987084D01*
X13560415Y-37914609D01*
X13662909Y-37812115D01*
X13735384Y-37686585D01*
X13772899Y-37546577D01*
X13772900Y-37546577D01*
X13772900Y-37401623D01*
X13772899Y-37401622D01*
X13762362Y-37362299D01*
X13735384Y-37261615D01*
X13662909Y-37136085D01*
X13560415Y-37033591D01*
X13434886Y-36961116D01*
X13434881Y-36961114D01*
X13294877Y-36923600D01*
X13294875Y-36923600D01*
X13149925Y-36923600D01*
X13149923Y-36923600D01*
X13009918Y-36961114D01*
X13009913Y-36961116D01*
X12884384Y-37033591D01*
X12781891Y-37136084D01*
X12709416Y-37261613D01*
X12709414Y-37261618D01*
X12671900Y-37401622D01*
X500500Y-37401622D01*
X500500Y-33227522D01*
X18949500Y-33227522D01*
X18949500Y-33372477D01*
X18987014Y-33512481D01*
X18987016Y-33512486D01*
X19059491Y-33638015D01*
X19161985Y-33740509D01*
X19287515Y-33812984D01*
X19287516Y-33812984D01*
X19287518Y-33812985D01*
X19357520Y-33831742D01*
X19427522Y-33850499D01*
X19427523Y-33850500D01*
X19427525Y-33850500D01*
X19572477Y-33850500D01*
X19572477Y-33850499D01*
X19712485Y-33812984D01*
X19838015Y-33740509D01*
X19940509Y-33638015D01*
X20012984Y-33512485D01*
X20050499Y-33372477D01*
X20050500Y-33372477D01*
X20050500Y-33227523D01*
X20050499Y-33227522D01*
X20649500Y-33227522D01*
X20649500Y-33372477D01*
X20687014Y-33512481D01*
X20687016Y-33512486D01*
X20759491Y-33638015D01*
X20861985Y-33740509D01*
X20987515Y-33812984D01*
X20987516Y-33812984D01*
X20987518Y-33812985D01*
X21057520Y-33831742D01*
X21127522Y-33850499D01*
X21127523Y-33850500D01*
X21127525Y-33850500D01*
X21272477Y-33850500D01*
X21272477Y-33850499D01*
X21412485Y-33812984D01*
X21538015Y-33740509D01*
X21640509Y-33638015D01*
X21712984Y-33512485D01*
X21750499Y-33372477D01*
X21750500Y-33372477D01*
X21750500Y-33227523D01*
X21750499Y-33227522D01*
X21712985Y-33087518D01*
X21712983Y-33087513D01*
X21640508Y-32961984D01*
X21538015Y-32859491D01*
X21412486Y-32787016D01*
X21412481Y-32787014D01*
X21272477Y-32749500D01*
X21272475Y-32749500D01*
X21127525Y-32749500D01*
X21127523Y-32749500D01*
X20987518Y-32787014D01*
X20987513Y-32787016D01*
X20861984Y-32859491D01*
X20759491Y-32961984D01*
X20687016Y-33087513D01*
X20687014Y-33087518D01*
X20649500Y-33227522D01*
X20050499Y-33227522D01*
X20012985Y-33087518D01*
X20012983Y-33087513D01*
X19940508Y-32961984D01*
X19838015Y-32859491D01*
X19712486Y-32787016D01*
X19712481Y-32787014D01*
X19572477Y-32749500D01*
X19572475Y-32749500D01*
X19427525Y-32749500D01*
X19427523Y-32749500D01*
X19287518Y-32787014D01*
X19287513Y-32787016D01*
X19161984Y-32859491D01*
X19059491Y-32961984D01*
X18987016Y-33087513D01*
X18987014Y-33087518D01*
X18949500Y-33227522D01*
X500500Y-33227522D01*
X500500Y-26187822D01*
X7309800Y-26187822D01*
X7309800Y-26332777D01*
X7347314Y-26472781D01*
X7347316Y-26472786D01*
X7419791Y-26598315D01*
X7522285Y-26700809D01*
X7647815Y-26773284D01*
X7647816Y-26773284D01*
X7647818Y-26773285D01*
X7717820Y-26792042D01*
X7787822Y-26810799D01*
X7787823Y-26810800D01*
X7787825Y-26810800D01*
X7932777Y-26810800D01*
X7932777Y-26810799D01*
X8072785Y-26773284D01*
X8198315Y-26700809D01*
X8300809Y-26598315D01*
X8373284Y-26472785D01*
X8410799Y-26332777D01*
X8410800Y-26332777D01*
X8410800Y-26187823D01*
X8410799Y-26187822D01*
X8373285Y-26047818D01*
X8373283Y-26047813D01*
X8300808Y-25922284D01*
X8198315Y-25819791D01*
X8072786Y-25747316D01*
X8072781Y-25747314D01*
X7932777Y-25709800D01*
X7932775Y-25709800D01*
X7787825Y-25709800D01*
X7787823Y-25709800D01*
X7647818Y-25747314D01*
X7647813Y-25747316D01*
X7522284Y-25819791D01*
X7419791Y-25922284D01*
X7347316Y-26047813D01*
X7347314Y-26047818D01*
X7309800Y-26187822D01*
X500500Y-26187822D01*
X500500Y-18393711D01*
X4489500Y-18393711D01*
X4489500Y-18606288D01*
X4522753Y-18816240D01*
X4522756Y-18816253D01*
X4588440Y-19018406D01*
X4684948Y-19207816D01*
X4761475Y-19313146D01*
X4809896Y-19379792D01*
X4960208Y-19530104D01*
X5014910Y-19569847D01*
X5132183Y-19655051D01*
X5209607Y-19694500D01*
X5321588Y-19751557D01*
X5321590Y-19751557D01*
X5321593Y-19751559D01*
X5523746Y-19817243D01*
X5523752Y-19817244D01*
X5523757Y-19817246D01*
X5628735Y-19833873D01*
X5733711Y-19850500D01*
X5733713Y-19850500D01*
X5946289Y-19850500D01*
X6030269Y-19837198D01*
X6156243Y-19817246D01*
X6156250Y-19817243D01*
X6156253Y-19817243D01*
X6358406Y-19751559D01*
X6358406Y-19751558D01*
X6358412Y-19751557D01*
X6547816Y-19655051D01*
X6719792Y-19530104D01*
X6870104Y-19379792D01*
X6995051Y-19207816D01*
X7091557Y-19018412D01*
X7155278Y-18822301D01*
X7157243Y-18816253D01*
X7157243Y-18816250D01*
X7157246Y-18816243D01*
X7190500Y-18606287D01*
X7190500Y-18393713D01*
X7188197Y-18379174D01*
X7157246Y-18183759D01*
X7157243Y-18183746D01*
X7091559Y-17981593D01*
X7091557Y-17981590D01*
X7091557Y-17981588D01*
X7041565Y-17883474D01*
X6995051Y-17792183D01*
X6910518Y-17675834D01*
X6870104Y-17620208D01*
X6754818Y-17504922D01*
X8785700Y-17504922D01*
X8785700Y-17649877D01*
X8823214Y-17789881D01*
X8823216Y-17789886D01*
X8895691Y-17915415D01*
X8964026Y-17983750D01*
X8985700Y-18036076D01*
X8985700Y-19608846D01*
X8998546Y-19656786D01*
X8998546Y-19656787D01*
X9009584Y-19697983D01*
X9009586Y-19697988D01*
X9055730Y-19777912D01*
X18973588Y-29695770D01*
X19031437Y-29729169D01*
X19053512Y-29741914D01*
X19053513Y-29741914D01*
X19053515Y-29741915D01*
X19081823Y-29749500D01*
X19142653Y-29765799D01*
X19142654Y-29765800D01*
X19142656Y-29765800D01*
X19142657Y-29765800D01*
X19234944Y-29765800D01*
X19823329Y-29765800D01*
X19875655Y-29787474D01*
X19897329Y-29839800D01*
X19875655Y-29892126D01*
X19864441Y-29901329D01*
X19774092Y-29961697D01*
X19774091Y-29961699D01*
X19641699Y-30094091D01*
X19641697Y-30094092D01*
X19537676Y-30249772D01*
X19466027Y-30422748D01*
X19466025Y-30422755D01*
X19429500Y-30606384D01*
X19429500Y-30793615D01*
X19466025Y-30977244D01*
X19466027Y-30977251D01*
X19517078Y-31100500D01*
X19537678Y-31150231D01*
X19599196Y-31242299D01*
X19640957Y-31304800D01*
X19641698Y-31305908D01*
X19774092Y-31438302D01*
X19929769Y-31542322D01*
X20102749Y-31613973D01*
X20286384Y-31650500D01*
X20286385Y-31650500D01*
X20473615Y-31650500D01*
X20473616Y-31650500D01*
X20657251Y-31613973D01*
X20830231Y-31542322D01*
X20985908Y-31438302D01*
X21118302Y-31305908D01*
X21222322Y-31150231D01*
X21260933Y-31057015D01*
X21300981Y-31016967D01*
X21357618Y-31016967D01*
X21381626Y-31033008D01*
X22219131Y-31870512D01*
X22284388Y-31935769D01*
X22284390Y-31935770D01*
X22284391Y-31935771D01*
X22286984Y-31937268D01*
X22364312Y-31981914D01*
X22364313Y-31981914D01*
X22364315Y-31981915D01*
X22408884Y-31993857D01*
X22453453Y-32005799D01*
X22453454Y-32005800D01*
X22453456Y-32005800D01*
X28465246Y-32005800D01*
X28465246Y-32005799D01*
X28554388Y-31981914D01*
X28560447Y-31978416D01*
X28634312Y-31935770D01*
X29537994Y-31032087D01*
X29590319Y-31010414D01*
X29642645Y-31032088D01*
X29658686Y-31056096D01*
X29697675Y-31150226D01*
X29800957Y-31304800D01*
X29801698Y-31305908D01*
X29934092Y-31438302D01*
X30089769Y-31542322D01*
X30262749Y-31613973D01*
X30446384Y-31650500D01*
X30446385Y-31650500D01*
X30633615Y-31650500D01*
X30633616Y-31650500D01*
X30817251Y-31613973D01*
X30871300Y-31591585D01*
X30927936Y-31591585D01*
X30951944Y-31607626D01*
X37244788Y-37900470D01*
X37324712Y-37946614D01*
X37324713Y-37946614D01*
X37324715Y-37946615D01*
X37369284Y-37958557D01*
X37413853Y-37970499D01*
X37413854Y-37970500D01*
X37413856Y-37970500D01*
X37506144Y-37970500D01*
X40902986Y-37970500D01*
X40955312Y-37992174D01*
X40973364Y-38021633D01*
X40980123Y-38042437D01*
X41058767Y-38196788D01*
X41100265Y-38253904D01*
X41113487Y-38308976D01*
X41083894Y-38357267D01*
X41040398Y-38371400D01*
X35730634Y-38371400D01*
X35678308Y-38349726D01*
X35406912Y-38078330D01*
X35326989Y-38032186D01*
X35326984Y-38032184D01*
X35237846Y-38008300D01*
X35237844Y-38008300D01*
X22818544Y-38008300D01*
X22726256Y-38008300D01*
X22726254Y-38008300D01*
X22637115Y-38032184D01*
X22637110Y-38032186D01*
X22557187Y-38078330D01*
X21026492Y-39609026D01*
X20974166Y-39630700D01*
X20877523Y-39630700D01*
X20737518Y-39668214D01*
X20737513Y-39668216D01*
X20611984Y-39740691D01*
X20543650Y-39809026D01*
X20491324Y-39830700D01*
X19816834Y-39830700D01*
X19764508Y-39809026D01*
X15369304Y-35413822D01*
X21005600Y-35413822D01*
X21005600Y-35558777D01*
X21043114Y-35698781D01*
X21043116Y-35698786D01*
X21099776Y-35796923D01*
X21115591Y-35824315D01*
X21218085Y-35926809D01*
X21343615Y-35999284D01*
X21343616Y-35999284D01*
X21343618Y-35999285D01*
X21413620Y-36018042D01*
X21483622Y-36036799D01*
X21483623Y-36036800D01*
X21483625Y-36036800D01*
X21628577Y-36036800D01*
X21628577Y-36036799D01*
X21768585Y-35999284D01*
X21894115Y-35926809D01*
X21996609Y-35824315D01*
X22069084Y-35698785D01*
X22106599Y-35558777D01*
X22106600Y-35558777D01*
X22106600Y-35413823D01*
X22106599Y-35413822D01*
X22104667Y-35406613D01*
X22086202Y-35337698D01*
X22069085Y-35273818D01*
X22069083Y-35273813D01*
X22040381Y-35224100D01*
X21996609Y-35148285D01*
X21894115Y-35045791D01*
X21890660Y-35043796D01*
X21768586Y-34973316D01*
X21768581Y-34973314D01*
X21628577Y-34935800D01*
X21628575Y-34935800D01*
X21483625Y-34935800D01*
X21483623Y-34935800D01*
X21343618Y-34973314D01*
X21343613Y-34973316D01*
X21218084Y-35045791D01*
X21115591Y-35148284D01*
X21043116Y-35273813D01*
X21043114Y-35273818D01*
X21005600Y-35413822D01*
X15369304Y-35413822D01*
X14422374Y-34466892D01*
X14400700Y-34414566D01*
X14400700Y-34317923D01*
X14400699Y-34317922D01*
X14363185Y-34177918D01*
X14363183Y-34177913D01*
X14340582Y-34138767D01*
X14290709Y-34052385D01*
X14188215Y-33949891D01*
X14062686Y-33877416D01*
X14062681Y-33877414D01*
X13922677Y-33839900D01*
X13922675Y-33839900D01*
X13777725Y-33839900D01*
X13777723Y-33839900D01*
X13637718Y-33877414D01*
X13637713Y-33877416D01*
X13512184Y-33949891D01*
X13409691Y-34052384D01*
X13337216Y-34177913D01*
X13337214Y-34177918D01*
X13299700Y-34317922D01*
X13299700Y-34462877D01*
X13337214Y-34602881D01*
X13337216Y-34602886D01*
X13391996Y-34697766D01*
X13409691Y-34728415D01*
X13512185Y-34830909D01*
X13637715Y-34903384D01*
X13637716Y-34903384D01*
X13637718Y-34903385D01*
X13707720Y-34922142D01*
X13777722Y-34940899D01*
X13777723Y-34940900D01*
X13777725Y-34940900D01*
X13874366Y-34940900D01*
X13926692Y-34962574D01*
X19425788Y-40461670D01*
X19495088Y-40501680D01*
X19495087Y-40501680D01*
X19495090Y-40501681D01*
X19500400Y-40504747D01*
X19505708Y-40507812D01*
X19505710Y-40507812D01*
X19505712Y-40507814D01*
X19505713Y-40507814D01*
X19505715Y-40507815D01*
X19548261Y-40519215D01*
X19594853Y-40531699D01*
X19594854Y-40531700D01*
X19594856Y-40531700D01*
X20491324Y-40531700D01*
X20543650Y-40553374D01*
X20611985Y-40621709D01*
X20737515Y-40694184D01*
X20737516Y-40694184D01*
X20737518Y-40694185D01*
X20807520Y-40712942D01*
X20877522Y-40731699D01*
X20877523Y-40731700D01*
X20877525Y-40731700D01*
X21022477Y-40731700D01*
X21022477Y-40731699D01*
X21162485Y-40694184D01*
X21288015Y-40621709D01*
X21390509Y-40519215D01*
X21462984Y-40393685D01*
X21500499Y-40253677D01*
X21500500Y-40253677D01*
X21500500Y-40157034D01*
X21522174Y-40104708D01*
X22895908Y-38730974D01*
X22948234Y-38709300D01*
X34253561Y-38709300D01*
X34305887Y-38730974D01*
X34327561Y-38783300D01*
X34325039Y-38802453D01*
X34308300Y-38864922D01*
X34308300Y-39009877D01*
X34345814Y-39149881D01*
X34345816Y-39149886D01*
X34345818Y-39149889D01*
X34418291Y-39275415D01*
X34520785Y-39377909D01*
X34646315Y-39450384D01*
X34646316Y-39450384D01*
X34646318Y-39450385D01*
X34716320Y-39469142D01*
X34786322Y-39487899D01*
X34786323Y-39487900D01*
X34786325Y-39487900D01*
X34931277Y-39487900D01*
X34931277Y-39487899D01*
X35071285Y-39450384D01*
X35196815Y-39377909D01*
X35299309Y-39275415D01*
X35371784Y-39149885D01*
X35381171Y-39114850D01*
X35415648Y-39069918D01*
X35471798Y-39062524D01*
X35491095Y-39067694D01*
X35508655Y-39072400D01*
X35508656Y-39072400D01*
X42534446Y-39072400D01*
X42534446Y-39072399D01*
X42623588Y-39048514D01*
X42627693Y-39046144D01*
X42703512Y-39002370D01*
X46460108Y-35245774D01*
X46512434Y-35224100D01*
X47596066Y-35224100D01*
X47648392Y-35245774D01*
X51683088Y-39280470D01*
X51763012Y-39326614D01*
X51844654Y-39348489D01*
X51889586Y-39382968D01*
X51899500Y-39419968D01*
X51899500Y-39874674D01*
X51914034Y-39947740D01*
X51969399Y-40030601D01*
X52052260Y-40085966D01*
X52125326Y-40100500D01*
X52125328Y-40100500D01*
X53874672Y-40100500D01*
X53874674Y-40100500D01*
X53947740Y-40085966D01*
X54030601Y-40030601D01*
X54085966Y-39947740D01*
X54100500Y-39874674D01*
X54100500Y-38125326D01*
X54085966Y-38052260D01*
X54030601Y-37969399D01*
X53996500Y-37946614D01*
X53947740Y-37914034D01*
X53874674Y-37899500D01*
X52125326Y-37899500D01*
X52076615Y-37909189D01*
X52052259Y-37914034D01*
X51969399Y-37969398D01*
X51969398Y-37969399D01*
X51914034Y-38052259D01*
X51899500Y-38125327D01*
X51899500Y-38326866D01*
X51877826Y-38379192D01*
X51825500Y-38400866D01*
X51773174Y-38379192D01*
X47987112Y-34593130D01*
X47907189Y-34546986D01*
X47907184Y-34546984D01*
X47818046Y-34523100D01*
X47818044Y-34523100D01*
X46761100Y-34523100D01*
X46708774Y-34501426D01*
X46687100Y-34449100D01*
X46687100Y-33188754D01*
X46687099Y-33188753D01*
X46678770Y-33157670D01*
X46663214Y-33099612D01*
X46656231Y-33087518D01*
X46636930Y-33054087D01*
X46617071Y-33019690D01*
X46617070Y-33019689D01*
X46617069Y-33019687D01*
X43316912Y-29719530D01*
X43236989Y-29673386D01*
X43236984Y-29673384D01*
X43155347Y-29651509D01*
X43110414Y-29617030D01*
X43100500Y-29580031D01*
X43100500Y-29276800D01*
X43122174Y-29224474D01*
X43174500Y-29202800D01*
X46676466Y-29202800D01*
X46728792Y-29224474D01*
X50734847Y-33230529D01*
X50756521Y-33282855D01*
X50756097Y-33290765D01*
X50749500Y-33352125D01*
X50749500Y-34647873D01*
X50755909Y-34707485D01*
X50806202Y-34842329D01*
X50806203Y-34842330D01*
X50806204Y-34842331D01*
X50892454Y-34957546D01*
X51007669Y-35043796D01*
X51007670Y-35043797D01*
X51118605Y-35085172D01*
X51142517Y-35094091D01*
X51202127Y-35100500D01*
X52797872Y-35100499D01*
X52857483Y-35094091D01*
X52924907Y-35068943D01*
X52992329Y-35043797D01*
X52992329Y-35043796D01*
X52992331Y-35043796D01*
X53107546Y-34957546D01*
X53193796Y-34842331D01*
X53198057Y-34830908D01*
X53235879Y-34729500D01*
X53244091Y-34707483D01*
X53250500Y-34647873D01*
X53250499Y-33352128D01*
X53244091Y-33292517D01*
X53219850Y-33227523D01*
X53193797Y-33157670D01*
X53193796Y-33157669D01*
X53182611Y-33142728D01*
X53107546Y-33042454D01*
X53021295Y-32977886D01*
X52992330Y-32956203D01*
X52992329Y-32956202D01*
X52857487Y-32905910D01*
X52857484Y-32905909D01*
X52857483Y-32905909D01*
X52827678Y-32902704D01*
X52797874Y-32899500D01*
X52797873Y-32899500D01*
X51425834Y-32899500D01*
X51373508Y-32877826D01*
X49909070Y-31413388D01*
X50749500Y-31413388D01*
X50749500Y-31586611D01*
X50776597Y-31757698D01*
X50776600Y-31757711D01*
X50830125Y-31922442D01*
X50830127Y-31922446D01*
X50908767Y-32076787D01*
X50908768Y-32076788D01*
X51010586Y-32216928D01*
X51133072Y-32339414D01*
X51133075Y-32339416D01*
X51133076Y-32339417D01*
X51273212Y-32441232D01*
X51427553Y-32519872D01*
X51427557Y-32519874D01*
X51592288Y-32573399D01*
X51592294Y-32573400D01*
X51592299Y-32573402D01*
X51706359Y-32591467D01*
X51763388Y-32600500D01*
X51763389Y-32600500D01*
X52236612Y-32600500D01*
X52279383Y-32593725D01*
X52407701Y-32573402D01*
X52407708Y-32573399D01*
X52407711Y-32573399D01*
X52572442Y-32519874D01*
X52572442Y-32519873D01*
X52572445Y-32519873D01*
X52726788Y-32441232D01*
X52866928Y-32339414D01*
X52989414Y-32216928D01*
X53091232Y-32076788D01*
X53169873Y-31922445D01*
X53223402Y-31757701D01*
X53250500Y-31586611D01*
X53250500Y-31413389D01*
X53223402Y-31242299D01*
X53223400Y-31242294D01*
X53223399Y-31242288D01*
X53169874Y-31077557D01*
X53169872Y-31077553D01*
X53091232Y-30923212D01*
X52989417Y-30783076D01*
X52989416Y-30783075D01*
X52989414Y-30783072D01*
X52866928Y-30660586D01*
X52866925Y-30660583D01*
X52866923Y-30660582D01*
X52726787Y-30558767D01*
X52572446Y-30480127D01*
X52572442Y-30480125D01*
X52407711Y-30426600D01*
X52407698Y-30426597D01*
X52236612Y-30399500D01*
X52236611Y-30399500D01*
X51763389Y-30399500D01*
X51763388Y-30399500D01*
X51592301Y-30426597D01*
X51592288Y-30426600D01*
X51427557Y-30480125D01*
X51427553Y-30480127D01*
X51273212Y-30558767D01*
X51133076Y-30660582D01*
X51010582Y-30783076D01*
X50908767Y-30923212D01*
X50830127Y-31077553D01*
X50830125Y-31077557D01*
X50776600Y-31242288D01*
X50776597Y-31242301D01*
X50749500Y-31413388D01*
X49909070Y-31413388D01*
X47067512Y-28571830D01*
X46987589Y-28525686D01*
X46987584Y-28525684D01*
X46898446Y-28501800D01*
X46898444Y-28501800D01*
X40984356Y-28501800D01*
X40984354Y-28501800D01*
X40895215Y-28525684D01*
X40895210Y-28525686D01*
X40815287Y-28571830D01*
X40310592Y-29076526D01*
X40258266Y-29098200D01*
X37523742Y-29098200D01*
X37471416Y-29076526D01*
X37449742Y-29024200D01*
X37471416Y-28971874D01*
X37509304Y-28951622D01*
X37537740Y-28945966D01*
X37620601Y-28890601D01*
X37675966Y-28807740D01*
X37690500Y-28734674D01*
X37690500Y-27585326D01*
X37675966Y-27512260D01*
X37649206Y-27472211D01*
X37638158Y-27416663D01*
X37669624Y-27369571D01*
X37710736Y-27357100D01*
X40242546Y-27357100D01*
X40242546Y-27357099D01*
X40331688Y-27333214D01*
X40411612Y-27287070D01*
X44346556Y-23352126D01*
X50749500Y-23352126D01*
X50749500Y-24647873D01*
X50755909Y-24707485D01*
X50806202Y-24842329D01*
X50806203Y-24842330D01*
X50827886Y-24871295D01*
X50892454Y-24957546D01*
X50946777Y-24998212D01*
X51007669Y-25043796D01*
X51007670Y-25043797D01*
X51118605Y-25085172D01*
X51142517Y-25094091D01*
X51202127Y-25100500D01*
X52797872Y-25100499D01*
X52857483Y-25094091D01*
X52924907Y-25068943D01*
X52992329Y-25043797D01*
X52992329Y-25043796D01*
X52992331Y-25043796D01*
X53107546Y-24957546D01*
X53193796Y-24842331D01*
X53202312Y-24819500D01*
X53210561Y-24797381D01*
X53244091Y-24707483D01*
X53250500Y-24647873D01*
X53250499Y-23352128D01*
X53244091Y-23292517D01*
X53194233Y-23158840D01*
X53193797Y-23157670D01*
X53193796Y-23157669D01*
X53107546Y-23042454D01*
X52992331Y-22956204D01*
X52992330Y-22956203D01*
X52992329Y-22956202D01*
X52857487Y-22905910D01*
X52857484Y-22905909D01*
X52857483Y-22905909D01*
X52797873Y-22899500D01*
X51202126Y-22899500D01*
X51142514Y-22905909D01*
X51007670Y-22956202D01*
X51007669Y-22956203D01*
X50892454Y-23042454D01*
X50806203Y-23157669D01*
X50806202Y-23157670D01*
X50755910Y-23292512D01*
X50755909Y-23292517D01*
X50749500Y-23352126D01*
X44346556Y-23352126D01*
X45450270Y-22248412D01*
X45496414Y-22168488D01*
X45520299Y-22079346D01*
X45520300Y-22079346D01*
X45520300Y-20203654D01*
X45520299Y-20203653D01*
X45496415Y-20114515D01*
X45496413Y-20114510D01*
X45474410Y-20076400D01*
X45450269Y-20034587D01*
X45023546Y-19607864D01*
X45001872Y-19555538D01*
X45009937Y-19521944D01*
X45019873Y-19502445D01*
X45047468Y-19417518D01*
X45073399Y-19337711D01*
X45073399Y-19337708D01*
X45073402Y-19337701D01*
X45100500Y-19166611D01*
X45100500Y-18993389D01*
X45073402Y-18822299D01*
X45073400Y-18822294D01*
X45073399Y-18822288D01*
X45019874Y-18657557D01*
X45019872Y-18657553D01*
X44941232Y-18503212D01*
X44839417Y-18363076D01*
X44839416Y-18363075D01*
X44839414Y-18363072D01*
X44763168Y-18286826D01*
X44741494Y-18234500D01*
X44763168Y-18182174D01*
X44815494Y-18160500D01*
X48236146Y-18160500D01*
X48236146Y-18160499D01*
X48325288Y-18136614D01*
X48352642Y-18120821D01*
X48405212Y-18090470D01*
X51373508Y-15122172D01*
X51425834Y-15100499D01*
X52797872Y-15100499D01*
X52857483Y-15094091D01*
X52924907Y-15068943D01*
X52992329Y-15043797D01*
X52992329Y-15043796D01*
X52992331Y-15043796D01*
X53107546Y-14957546D01*
X53193796Y-14842331D01*
X53195333Y-14838212D01*
X53232973Y-14737291D01*
X53244091Y-14707483D01*
X53250500Y-14647873D01*
X53250499Y-13352128D01*
X53244091Y-13292517D01*
X53232774Y-13262175D01*
X53193797Y-13157670D01*
X53193796Y-13157669D01*
X53190668Y-13153491D01*
X53107546Y-13042454D01*
X52992331Y-12956204D01*
X52992330Y-12956203D01*
X52992329Y-12956202D01*
X52857487Y-12905910D01*
X52857484Y-12905909D01*
X52857483Y-12905909D01*
X52797873Y-12899500D01*
X51202126Y-12899500D01*
X51142514Y-12905909D01*
X51007670Y-12956202D01*
X51007669Y-12956203D01*
X50892454Y-13042454D01*
X50806203Y-13157669D01*
X50806202Y-13157670D01*
X50755910Y-13292512D01*
X50755909Y-13292517D01*
X50749500Y-13352126D01*
X50749500Y-14647873D01*
X50749501Y-14647874D01*
X50756097Y-14709234D01*
X50740140Y-14763577D01*
X50734847Y-14769469D01*
X48066492Y-17437826D01*
X48014166Y-17459500D01*
X44667309Y-17459500D01*
X44614983Y-17437826D01*
X44185177Y-17008019D01*
X44192993Y-17005925D01*
X44307007Y-16940099D01*
X44400099Y-16847007D01*
X44465925Y-16732993D01*
X44468019Y-16725176D01*
X44942331Y-17199487D01*
X44983568Y-17142729D01*
X45065748Y-16981443D01*
X45121680Y-16809302D01*
X45121683Y-16809289D01*
X45150000Y-16630508D01*
X45150000Y-16449491D01*
X45121683Y-16270710D01*
X45121680Y-16270697D01*
X45065748Y-16098556D01*
X44983566Y-15937267D01*
X44983566Y-15937266D01*
X44942331Y-15880511D01*
X44468019Y-16354822D01*
X44465925Y-16347007D01*
X44400099Y-16232993D01*
X44307007Y-16139901D01*
X44192993Y-16074075D01*
X44185174Y-16071980D01*
X44659487Y-15597668D01*
X44602728Y-15556431D01*
X44441443Y-15474251D01*
X44441444Y-15474251D01*
X44269302Y-15418319D01*
X44269289Y-15418316D01*
X44090509Y-15390000D01*
X43909491Y-15390000D01*
X43730710Y-15418316D01*
X43730697Y-15418319D01*
X43558558Y-15474250D01*
X43397268Y-15556431D01*
X43340511Y-15597667D01*
X43340511Y-15597668D01*
X43814823Y-16071980D01*
X43807007Y-16074075D01*
X43692993Y-16139901D01*
X43599901Y-16232993D01*
X43534075Y-16347007D01*
X43531980Y-16354823D01*
X43057668Y-15880511D01*
X43057667Y-15880511D01*
X43016431Y-15937268D01*
X42934250Y-16098558D01*
X42878319Y-16270697D01*
X42878316Y-16270710D01*
X42850000Y-16449491D01*
X42850000Y-16630508D01*
X42878316Y-16809289D01*
X42878319Y-16809302D01*
X42934251Y-16981443D01*
X43016431Y-17142728D01*
X43057668Y-17199487D01*
X43531980Y-16725174D01*
X43534075Y-16732993D01*
X43599901Y-16847007D01*
X43692993Y-16940099D01*
X43807007Y-17005925D01*
X43814822Y-17008019D01*
X43385017Y-17437826D01*
X43332691Y-17459500D01*
X42127454Y-17459500D01*
X42038315Y-17483384D01*
X42038310Y-17483386D01*
X41958387Y-17529530D01*
X40590092Y-18897826D01*
X40537766Y-18919500D01*
X37121922Y-18919500D01*
X37069596Y-18897826D01*
X37047922Y-18845500D01*
X37069596Y-18793174D01*
X37107486Y-18772922D01*
X37112754Y-18771873D01*
X37123497Y-18769737D01*
X37269179Y-18709394D01*
X37400289Y-18621789D01*
X37511789Y-18510289D01*
X37599394Y-18379179D01*
X37659737Y-18233497D01*
X37690500Y-18078842D01*
X37690500Y-17921158D01*
X37659737Y-17766503D01*
X37622181Y-17675834D01*
X37599396Y-17620825D01*
X37599395Y-17620823D01*
X37599394Y-17620821D01*
X37511789Y-17489711D01*
X37400289Y-17378211D01*
X37269179Y-17290606D01*
X37269175Y-17290604D01*
X37269173Y-17290603D01*
X37269174Y-17290603D01*
X37123501Y-17230264D01*
X37123490Y-17230261D01*
X37107486Y-17227078D01*
X37060393Y-17195613D01*
X37049344Y-17140064D01*
X37080809Y-17092971D01*
X37121922Y-17080500D01*
X39260146Y-17080500D01*
X39260146Y-17080499D01*
X39349288Y-17056614D01*
X39429212Y-17010470D01*
X42773174Y-13666508D01*
X42825500Y-13644834D01*
X42877826Y-13666508D01*
X42899500Y-13718834D01*
X42899500Y-14874674D01*
X42914034Y-14947740D01*
X42969399Y-15030601D01*
X43052260Y-15085966D01*
X43125326Y-15100500D01*
X43125328Y-15100500D01*
X44874672Y-15100500D01*
X44874674Y-15100500D01*
X44947740Y-15085966D01*
X45030601Y-15030601D01*
X45085966Y-14947740D01*
X45100500Y-14874674D01*
X45100500Y-13125326D01*
X45085966Y-13052260D01*
X45030601Y-12969399D01*
X45010851Y-12956203D01*
X44947740Y-12914034D01*
X44874674Y-12899500D01*
X44874672Y-12899500D01*
X43718834Y-12899500D01*
X43666508Y-12877826D01*
X43644834Y-12825500D01*
X43666508Y-12773174D01*
X44567508Y-11872174D01*
X44619834Y-11850500D01*
X50752986Y-11850500D01*
X50805312Y-11872174D01*
X50823364Y-11901633D01*
X50830123Y-11922437D01*
X50908767Y-12076788D01*
X51010582Y-12216923D01*
X51010586Y-12216928D01*
X51133072Y-12339414D01*
X51133075Y-12339416D01*
X51133076Y-12339417D01*
X51273212Y-12441232D01*
X51427553Y-12519872D01*
X51427557Y-12519874D01*
X51592288Y-12573399D01*
X51592294Y-12573400D01*
X51592299Y-12573402D01*
X51706359Y-12591467D01*
X51763388Y-12600500D01*
X51763389Y-12600500D01*
X52236612Y-12600500D01*
X52279383Y-12593725D01*
X52407701Y-12573402D01*
X52407708Y-12573399D01*
X52407711Y-12573399D01*
X52572442Y-12519874D01*
X52572442Y-12519873D01*
X52572445Y-12519873D01*
X52726788Y-12441232D01*
X52866928Y-12339414D01*
X52989414Y-12216928D01*
X53091232Y-12076788D01*
X53169873Y-11922445D01*
X53223402Y-11757701D01*
X53250500Y-11586611D01*
X53250500Y-11413389D01*
X53223402Y-11242299D01*
X53223400Y-11242294D01*
X53223399Y-11242288D01*
X53169874Y-11077557D01*
X53169872Y-11077553D01*
X53091232Y-10923212D01*
X52989417Y-10783076D01*
X52989416Y-10783075D01*
X52989414Y-10783072D01*
X52866928Y-10660586D01*
X52866925Y-10660583D01*
X52866923Y-10660582D01*
X52726787Y-10558767D01*
X52572446Y-10480127D01*
X52572442Y-10480125D01*
X52407711Y-10426600D01*
X52407698Y-10426597D01*
X52236612Y-10399500D01*
X52236611Y-10399500D01*
X51763389Y-10399500D01*
X51763388Y-10399500D01*
X51592301Y-10426597D01*
X51592288Y-10426600D01*
X51427557Y-10480125D01*
X51427553Y-10480127D01*
X51273212Y-10558767D01*
X51133076Y-10660582D01*
X51010582Y-10783076D01*
X50908767Y-10923211D01*
X50830123Y-11077562D01*
X50823364Y-11098367D01*
X50786581Y-11141435D01*
X50752986Y-11149500D01*
X44397854Y-11149500D01*
X44308715Y-11173384D01*
X44308710Y-11173386D01*
X44228787Y-11219530D01*
X39090492Y-16357826D01*
X39038166Y-16379500D01*
X37121922Y-16379500D01*
X37069596Y-16357826D01*
X37047922Y-16305500D01*
X37069596Y-16253174D01*
X37107486Y-16232922D01*
X37112754Y-16231873D01*
X37123497Y-16229737D01*
X37269179Y-16169394D01*
X37400289Y-16081789D01*
X37511789Y-15970289D01*
X37599394Y-15839179D01*
X37659737Y-15693497D01*
X37690500Y-15538842D01*
X37690500Y-15381158D01*
X37659737Y-15226503D01*
X37634682Y-15166014D01*
X37599396Y-15080825D01*
X37599395Y-15080823D01*
X37599394Y-15080821D01*
X37511789Y-14949711D01*
X37400289Y-14838211D01*
X37269179Y-14750606D01*
X37269175Y-14750604D01*
X37269173Y-14750603D01*
X37269174Y-14750603D01*
X37123501Y-14690264D01*
X37123491Y-14690261D01*
X37019925Y-14669661D01*
X36968842Y-14659500D01*
X36811158Y-14659500D01*
X36767315Y-14668220D01*
X36656508Y-14690261D01*
X36656498Y-14690264D01*
X36510825Y-14750603D01*
X36379711Y-14838210D01*
X36379710Y-14838212D01*
X36268212Y-14949710D01*
X36268210Y-14949711D01*
X36180603Y-15080825D01*
X36120264Y-15226498D01*
X36120261Y-15226508D01*
X36089500Y-15381159D01*
X36089500Y-15538840D01*
X36120261Y-15693491D01*
X36120264Y-15693501D01*
X36180603Y-15839174D01*
X36241542Y-15930377D01*
X36268211Y-15970289D01*
X36379711Y-16081789D01*
X36510821Y-16169394D01*
X36510826Y-16169396D01*
X36510825Y-16169396D01*
X36656498Y-16229735D01*
X36656503Y-16229737D01*
X36664530Y-16231333D01*
X36672514Y-16232922D01*
X36719607Y-16264387D01*
X36730656Y-16319936D01*
X36699191Y-16367029D01*
X36658078Y-16379500D01*
X33097854Y-16379500D01*
X33008715Y-16403384D01*
X33008710Y-16403386D01*
X32928787Y-16449530D01*
X24130492Y-25247826D01*
X24078166Y-25269500D01*
X19878111Y-25269500D01*
X19825785Y-25247826D01*
X19816582Y-25236612D01*
X19731789Y-25109711D01*
X19620288Y-24998210D01*
X19587842Y-24976530D01*
X19489179Y-24910606D01*
X19489175Y-24910604D01*
X19489173Y-24910603D01*
X19489174Y-24910603D01*
X19343501Y-24850264D01*
X19343491Y-24850261D01*
X19239925Y-24829661D01*
X19188842Y-24819500D01*
X19031158Y-24819500D01*
X18987315Y-24828220D01*
X18876508Y-24850261D01*
X18876498Y-24850264D01*
X18730825Y-24910603D01*
X18599711Y-24998210D01*
X18599710Y-24998212D01*
X18488212Y-25109710D01*
X18488210Y-25109711D01*
X18400603Y-25240825D01*
X18340264Y-25386498D01*
X18340261Y-25386508D01*
X18309500Y-25541159D01*
X18309500Y-25698840D01*
X18340261Y-25853491D01*
X18340264Y-25853501D01*
X18400603Y-25999174D01*
X18400605Y-25999177D01*
X18400606Y-25999179D01*
X18488211Y-26130289D01*
X18599711Y-26241789D01*
X18730821Y-26329394D01*
X18730826Y-26329396D01*
X18730825Y-26329396D01*
X18738988Y-26332777D01*
X18876503Y-26389737D01*
X19031158Y-26420500D01*
X19031160Y-26420500D01*
X19188840Y-26420500D01*
X19188842Y-26420500D01*
X19343497Y-26389737D01*
X19489179Y-26329394D01*
X19620289Y-26241789D01*
X19731789Y-26130289D01*
X19816582Y-26003388D01*
X19863675Y-25971922D01*
X19878111Y-25970500D01*
X24300146Y-25970500D01*
X24300146Y-25970499D01*
X24389288Y-25946614D01*
X24469212Y-25900470D01*
X33267508Y-17102174D01*
X33319834Y-17080500D01*
X36658078Y-17080500D01*
X36710404Y-17102174D01*
X36732078Y-17154500D01*
X36710404Y-17206826D01*
X36672514Y-17227078D01*
X36656509Y-17230261D01*
X36656498Y-17230264D01*
X36510825Y-17290603D01*
X36379711Y-17378210D01*
X36379710Y-17378212D01*
X36268212Y-17489710D01*
X36268210Y-17489711D01*
X36180603Y-17620825D01*
X36120264Y-17766498D01*
X36120261Y-17766508D01*
X36094580Y-17895616D01*
X36090643Y-17915415D01*
X36089500Y-17921159D01*
X36089500Y-18078840D01*
X36120261Y-18233491D01*
X36120264Y-18233501D01*
X36180603Y-18379174D01*
X36180605Y-18379177D01*
X36180606Y-18379179D01*
X36268211Y-18510289D01*
X36379711Y-18621789D01*
X36510821Y-18709394D01*
X36510826Y-18709396D01*
X36510825Y-18709396D01*
X36567444Y-18732848D01*
X36656503Y-18769737D01*
X36664530Y-18771333D01*
X36672514Y-18772922D01*
X36719607Y-18804387D01*
X36730656Y-18859936D01*
X36699191Y-18907029D01*
X36658078Y-18919500D01*
X33243554Y-18919500D01*
X33154415Y-18943384D01*
X33154410Y-18943386D01*
X33074487Y-18989530D01*
X24276192Y-27787826D01*
X24223866Y-27809500D01*
X19878111Y-27809500D01*
X19825785Y-27787826D01*
X19816582Y-27776612D01*
X19731789Y-27649711D01*
X19620288Y-27538210D01*
X19581449Y-27512259D01*
X19489179Y-27450606D01*
X19489175Y-27450604D01*
X19489173Y-27450603D01*
X19489174Y-27450603D01*
X19343501Y-27390264D01*
X19343491Y-27390261D01*
X19239472Y-27369571D01*
X19188842Y-27359500D01*
X19031158Y-27359500D01*
X18987315Y-27368220D01*
X18876508Y-27390261D01*
X18876498Y-27390264D01*
X18730825Y-27450603D01*
X18599711Y-27538210D01*
X18599710Y-27538212D01*
X18488212Y-27649710D01*
X18488210Y-27649711D01*
X18400604Y-27780824D01*
X18340298Y-27926416D01*
X18300249Y-27966464D01*
X18243612Y-27966464D01*
X18219605Y-27950423D01*
X13270341Y-23001159D01*
X18309500Y-23001159D01*
X18309500Y-23158840D01*
X18340261Y-23313491D01*
X18340264Y-23313501D01*
X18400603Y-23459174D01*
X18400605Y-23459177D01*
X18400606Y-23459179D01*
X18488211Y-23590289D01*
X18599711Y-23701789D01*
X18730821Y-23789394D01*
X18730826Y-23789396D01*
X18730825Y-23789396D01*
X18876498Y-23849735D01*
X18876503Y-23849737D01*
X19031158Y-23880500D01*
X19031160Y-23880500D01*
X19188840Y-23880500D01*
X19188842Y-23880500D01*
X19343497Y-23849737D01*
X19489179Y-23789394D01*
X19620289Y-23701789D01*
X19731789Y-23590289D01*
X19819394Y-23459179D01*
X19879737Y-23313497D01*
X19910500Y-23158842D01*
X19910500Y-23001158D01*
X19879737Y-22846503D01*
X19834551Y-22737413D01*
X19819396Y-22700825D01*
X19819395Y-22700823D01*
X19819394Y-22700821D01*
X19731789Y-22569711D01*
X19620289Y-22458211D01*
X19489179Y-22370606D01*
X19489175Y-22370604D01*
X19489173Y-22370603D01*
X19489174Y-22370603D01*
X19343501Y-22310264D01*
X19343491Y-22310261D01*
X19239925Y-22289661D01*
X19188842Y-22279500D01*
X19031158Y-22279500D01*
X18987315Y-22288220D01*
X18876508Y-22310261D01*
X18876498Y-22310264D01*
X18730825Y-22370603D01*
X18599711Y-22458210D01*
X18599710Y-22458212D01*
X18488212Y-22569710D01*
X18488210Y-22569711D01*
X18400603Y-22700825D01*
X18340264Y-22846498D01*
X18340261Y-22846508D01*
X18309500Y-23001159D01*
X13270341Y-23001159D01*
X9708374Y-19439192D01*
X9686700Y-19386866D01*
X9686700Y-18036076D01*
X9708374Y-17983750D01*
X9710536Y-17981588D01*
X9776709Y-17915415D01*
X9849184Y-17789885D01*
X9886699Y-17649877D01*
X9886700Y-17649877D01*
X9886700Y-17504923D01*
X9886699Y-17504922D01*
X9880928Y-17483386D01*
X9852747Y-17378211D01*
X9849185Y-17364918D01*
X9849183Y-17364913D01*
X9829763Y-17331276D01*
X9776709Y-17239385D01*
X9674215Y-17136891D01*
X9598144Y-17092971D01*
X9548686Y-17064416D01*
X9548681Y-17064414D01*
X9408677Y-17026900D01*
X9408675Y-17026900D01*
X9263725Y-17026900D01*
X9263723Y-17026900D01*
X9123718Y-17064414D01*
X9123713Y-17064416D01*
X8998184Y-17136891D01*
X8895691Y-17239384D01*
X8823216Y-17364913D01*
X8823214Y-17364918D01*
X8785700Y-17504922D01*
X6754818Y-17504922D01*
X6719792Y-17469896D01*
X6634145Y-17407670D01*
X6547816Y-17344948D01*
X6358406Y-17248440D01*
X6156253Y-17182756D01*
X6156240Y-17182753D01*
X5946289Y-17149500D01*
X5946287Y-17149500D01*
X5733713Y-17149500D01*
X5733711Y-17149500D01*
X5523759Y-17182753D01*
X5523746Y-17182756D01*
X5321593Y-17248440D01*
X5132183Y-17344948D01*
X4983481Y-17452987D01*
X4960208Y-17469896D01*
X4809896Y-17620208D01*
X4809893Y-17620211D01*
X4809893Y-17620212D01*
X4684948Y-17792183D01*
X4588440Y-17981593D01*
X4522756Y-18183746D01*
X4522753Y-18183759D01*
X4489500Y-18393711D01*
X500500Y-18393711D01*
X500500Y-15785422D01*
X3786400Y-15785422D01*
X3786400Y-15930377D01*
X3823914Y-16070381D01*
X3823916Y-16070386D01*
X3864051Y-16139901D01*
X3896391Y-16195915D01*
X3998885Y-16298409D01*
X4124415Y-16370884D01*
X4124416Y-16370884D01*
X4124418Y-16370885D01*
X4156570Y-16379500D01*
X4264422Y-16408399D01*
X4264423Y-16408400D01*
X4264425Y-16408400D01*
X4409377Y-16408400D01*
X4409377Y-16408399D01*
X4549385Y-16370884D01*
X4674915Y-16298409D01*
X4743250Y-16230074D01*
X4795576Y-16208400D01*
X13182066Y-16208400D01*
X13234392Y-16230074D01*
X14627826Y-17623508D01*
X14649500Y-17675834D01*
X14649500Y-19397874D01*
X14655909Y-19457483D01*
X14655910Y-19457488D01*
X14706203Y-19592329D01*
X14706203Y-19592330D01*
X14771880Y-19680064D01*
X14792453Y-19707547D01*
X14907669Y-19793796D01*
X15042516Y-19844091D01*
X15096338Y-19849877D01*
X15102125Y-19850500D01*
X15102126Y-19850500D01*
X16897875Y-19850500D01*
X16903149Y-19849932D01*
X16957484Y-19844091D01*
X17092331Y-19793796D01*
X17207547Y-19707547D01*
X17293796Y-19592331D01*
X17344091Y-19457484D01*
X17350500Y-19397874D01*
X17350500Y-17622056D01*
X17945400Y-17622056D01*
X17945400Y-17627987D01*
X17945400Y-19772046D01*
X17961091Y-19830604D01*
X17961091Y-19830605D01*
X17969284Y-19861183D01*
X17969286Y-19861188D01*
X18002902Y-19919414D01*
X18015430Y-19941112D01*
X18188829Y-20114510D01*
X18319023Y-20244704D01*
X18340697Y-20297030D01*
X18339275Y-20311466D01*
X18309500Y-20461158D01*
X18309500Y-20618840D01*
X18340261Y-20773491D01*
X18340264Y-20773501D01*
X18400603Y-20919174D01*
X18483481Y-21043211D01*
X18488211Y-21050289D01*
X18599711Y-21161789D01*
X18730821Y-21249394D01*
X18730826Y-21249396D01*
X18730825Y-21249396D01*
X18837028Y-21293386D01*
X18876503Y-21309737D01*
X19031158Y-21340500D01*
X19031160Y-21340500D01*
X19188840Y-21340500D01*
X19188842Y-21340500D01*
X19343497Y-21309737D01*
X19489179Y-21249394D01*
X19620289Y-21161789D01*
X19731789Y-21050289D01*
X19819394Y-20919179D01*
X19879737Y-20773497D01*
X19910500Y-20618842D01*
X19910500Y-20461158D01*
X19879737Y-20306503D01*
X19875813Y-20297030D01*
X19819396Y-20160825D01*
X19819395Y-20160823D01*
X19819394Y-20160821D01*
X19731789Y-20029711D01*
X19620289Y-19918211D01*
X19489179Y-19830606D01*
X19489175Y-19830604D01*
X19489173Y-19830603D01*
X19489174Y-19830603D01*
X19343501Y-19770264D01*
X19343491Y-19770261D01*
X19236717Y-19749023D01*
X19188842Y-19739500D01*
X19031158Y-19739500D01*
X19001087Y-19745481D01*
X18881466Y-19769275D01*
X18825918Y-19758226D01*
X18814704Y-19749023D01*
X18745745Y-19680064D01*
X18668074Y-19602392D01*
X18646400Y-19550066D01*
X18646400Y-18785174D01*
X18668074Y-18732848D01*
X18720400Y-18711174D01*
X18748717Y-18716806D01*
X18876503Y-18769737D01*
X19031158Y-18800500D01*
X19031160Y-18800500D01*
X19188840Y-18800500D01*
X19188842Y-18800500D01*
X19343497Y-18769737D01*
X19489179Y-18709394D01*
X19620289Y-18621789D01*
X19731789Y-18510289D01*
X19816582Y-18383388D01*
X19863675Y-18351922D01*
X19878111Y-18350500D01*
X30666146Y-18350500D01*
X30666146Y-18350499D01*
X30755288Y-18326614D01*
X30835212Y-18280470D01*
X35324705Y-13790975D01*
X35377030Y-13769302D01*
X35391462Y-13770723D01*
X35541158Y-13800500D01*
X35541160Y-13800500D01*
X35698840Y-13800500D01*
X35698842Y-13800500D01*
X35853497Y-13769737D01*
X35999179Y-13709394D01*
X36130289Y-13621789D01*
X36241789Y-13510289D01*
X36241790Y-13510288D01*
X36242674Y-13509404D01*
X36295000Y-13487730D01*
X36347326Y-13509404D01*
X36379711Y-13541789D01*
X36510821Y-13629394D01*
X36510826Y-13629396D01*
X36510825Y-13629396D01*
X36656498Y-13689735D01*
X36656503Y-13689737D01*
X36811158Y-13720500D01*
X36811160Y-13720500D01*
X36968840Y-13720500D01*
X36968842Y-13720500D01*
X37123497Y-13689737D01*
X37269179Y-13629394D01*
X37400289Y-13541789D01*
X37511789Y-13430289D01*
X37599394Y-13299179D01*
X37659737Y-13153497D01*
X37690500Y-12998842D01*
X37690500Y-12841158D01*
X37659737Y-12686503D01*
X37659735Y-12686498D01*
X37599396Y-12540825D01*
X37599395Y-12540823D01*
X37599394Y-12540821D01*
X37511789Y-12409711D01*
X37400289Y-12298211D01*
X37388907Y-12290606D01*
X37367842Y-12276530D01*
X37269179Y-12210606D01*
X37269175Y-12210604D01*
X37269173Y-12210603D01*
X37269174Y-12210603D01*
X37123501Y-12150264D01*
X37123491Y-12150261D01*
X37019925Y-12129661D01*
X36968842Y-12119500D01*
X36811158Y-12119500D01*
X36767315Y-12128220D01*
X36656508Y-12150261D01*
X36656498Y-12150264D01*
X36510825Y-12210603D01*
X36379711Y-12298210D01*
X36379710Y-12298212D01*
X36267326Y-12410596D01*
X36215000Y-12432270D01*
X36162674Y-12410596D01*
X36130288Y-12378210D01*
X36097842Y-12356530D01*
X35999179Y-12290606D01*
X35999175Y-12290604D01*
X35999173Y-12290603D01*
X35999174Y-12290603D01*
X35853501Y-12230264D01*
X35853491Y-12230261D01*
X35749925Y-12209661D01*
X35698842Y-12199500D01*
X35541158Y-12199500D01*
X35497315Y-12208220D01*
X35386508Y-12230261D01*
X35386498Y-12230264D01*
X35240825Y-12290603D01*
X35109711Y-12378210D01*
X35109710Y-12378212D01*
X34998212Y-12489710D01*
X34998210Y-12489711D01*
X34910603Y-12620825D01*
X34850264Y-12766498D01*
X34850261Y-12766508D01*
X34828119Y-12877826D01*
X34819500Y-12921158D01*
X34819500Y-13078842D01*
X34828747Y-13125327D01*
X34849275Y-13228530D01*
X34838226Y-13284079D01*
X34829023Y-13295293D01*
X30496492Y-17627826D01*
X30444166Y-17649500D01*
X19878111Y-17649500D01*
X19825785Y-17627826D01*
X19816582Y-17616612D01*
X19731789Y-17489711D01*
X19620288Y-17378210D01*
X19570507Y-17344948D01*
X19489179Y-17290606D01*
X19489175Y-17290604D01*
X19489173Y-17290603D01*
X19489174Y-17290603D01*
X19378066Y-17244581D01*
X19365219Y-17239260D01*
X19325171Y-17199213D01*
X19325171Y-17142576D01*
X19341209Y-17118571D01*
X21248207Y-15211574D01*
X21300533Y-15189900D01*
X26206746Y-15189900D01*
X26206746Y-15189899D01*
X26295888Y-15166014D01*
X26375812Y-15119870D01*
X27704704Y-13790975D01*
X27757029Y-13769302D01*
X27771463Y-13770723D01*
X27921158Y-13800500D01*
X27921160Y-13800500D01*
X28078840Y-13800500D01*
X28078842Y-13800500D01*
X28233497Y-13769737D01*
X28379179Y-13709394D01*
X28510289Y-13621789D01*
X28621789Y-13510289D01*
X28709394Y-13379179D01*
X28769737Y-13233497D01*
X28800500Y-13078842D01*
X28800500Y-12921159D01*
X29739500Y-12921159D01*
X29739500Y-13078840D01*
X29770261Y-13233491D01*
X29770264Y-13233501D01*
X29830603Y-13379174D01*
X29917619Y-13509404D01*
X29918211Y-13510289D01*
X30029711Y-13621789D01*
X30160821Y-13709394D01*
X30160826Y-13709396D01*
X30160825Y-13709396D01*
X30183611Y-13718834D01*
X30306503Y-13769737D01*
X30461158Y-13800500D01*
X30461160Y-13800500D01*
X30618840Y-13800500D01*
X30618842Y-13800500D01*
X30773497Y-13769737D01*
X30919179Y-13709394D01*
X31050289Y-13621789D01*
X31161789Y-13510289D01*
X31249394Y-13379179D01*
X31309737Y-13233497D01*
X31340500Y-13078842D01*
X31340500Y-12921159D01*
X32279500Y-12921159D01*
X32279500Y-13078840D01*
X32310261Y-13233491D01*
X32310264Y-13233501D01*
X32370603Y-13379174D01*
X32457619Y-13509404D01*
X32458211Y-13510289D01*
X32569711Y-13621789D01*
X32700821Y-13709394D01*
X32700826Y-13709396D01*
X32700825Y-13709396D01*
X32723611Y-13718834D01*
X32846503Y-13769737D01*
X33001158Y-13800500D01*
X33001160Y-13800500D01*
X33158840Y-13800500D01*
X33158842Y-13800500D01*
X33313497Y-13769737D01*
X33459179Y-13709394D01*
X33590289Y-13621789D01*
X33701789Y-13510289D01*
X33789394Y-13379179D01*
X33849737Y-13233497D01*
X33880500Y-13078842D01*
X33880500Y-12921158D01*
X33849737Y-12766503D01*
X33789394Y-12620821D01*
X33701789Y-12489711D01*
X33590289Y-12378211D01*
X33459179Y-12290606D01*
X33459175Y-12290604D01*
X33459173Y-12290603D01*
X33459174Y-12290603D01*
X33313501Y-12230264D01*
X33313491Y-12230261D01*
X33209925Y-12209661D01*
X33158842Y-12199500D01*
X33001158Y-12199500D01*
X32957315Y-12208220D01*
X32846508Y-12230261D01*
X32846498Y-12230264D01*
X32700825Y-12290603D01*
X32569711Y-12378210D01*
X32569710Y-12378212D01*
X32458212Y-12489710D01*
X32458210Y-12489711D01*
X32370603Y-12620825D01*
X32310264Y-12766498D01*
X32310261Y-12766508D01*
X32279500Y-12921159D01*
X31340500Y-12921159D01*
X31340500Y-12921158D01*
X31309737Y-12766503D01*
X31249394Y-12620821D01*
X31161789Y-12489711D01*
X31050289Y-12378211D01*
X30919179Y-12290606D01*
X30919175Y-12290604D01*
X30919173Y-12290603D01*
X30919174Y-12290603D01*
X30773501Y-12230264D01*
X30773491Y-12230261D01*
X30669925Y-12209661D01*
X30618842Y-12199500D01*
X30461158Y-12199500D01*
X30417315Y-12208220D01*
X30306508Y-12230261D01*
X30306498Y-12230264D01*
X30160825Y-12290603D01*
X30029711Y-12378210D01*
X30029710Y-12378212D01*
X29918212Y-12489710D01*
X29918210Y-12489711D01*
X29830603Y-12620825D01*
X29770264Y-12766498D01*
X29770261Y-12766508D01*
X29739500Y-12921159D01*
X28800500Y-12921159D01*
X28800500Y-12921158D01*
X28769737Y-12766503D01*
X28709394Y-12620821D01*
X28621789Y-12489711D01*
X28510289Y-12378211D01*
X28379179Y-12290606D01*
X28379175Y-12290604D01*
X28379173Y-12290603D01*
X28379174Y-12290603D01*
X28233501Y-12230264D01*
X28233491Y-12230261D01*
X28129925Y-12209661D01*
X28078842Y-12199500D01*
X27921158Y-12199500D01*
X27877315Y-12208220D01*
X27766508Y-12230261D01*
X27766498Y-12230264D01*
X27620825Y-12290603D01*
X27489711Y-12378210D01*
X27489710Y-12378212D01*
X27378212Y-12489710D01*
X27378210Y-12489711D01*
X27290603Y-12620825D01*
X27230264Y-12766498D01*
X27230261Y-12766508D01*
X27208119Y-12877826D01*
X27199500Y-12921158D01*
X27199500Y-13078842D01*
X27208747Y-13125327D01*
X27229275Y-13228531D01*
X27218226Y-13284080D01*
X27209023Y-13295294D01*
X26037092Y-14467226D01*
X25984766Y-14488900D01*
X21078554Y-14488900D01*
X20989415Y-14512784D01*
X20989410Y-14512786D01*
X20909491Y-14558928D01*
X20036826Y-15431592D01*
X19984500Y-15453266D01*
X19932174Y-15431592D01*
X19912708Y-15384596D01*
X19910857Y-15384779D01*
X19910500Y-15381163D01*
X19910500Y-15381158D01*
X19879737Y-15226503D01*
X19854682Y-15166014D01*
X19819396Y-15080825D01*
X19819395Y-15080823D01*
X19819394Y-15080821D01*
X19731789Y-14949711D01*
X19620289Y-14838211D01*
X19489179Y-14750606D01*
X19489175Y-14750604D01*
X19489173Y-14750603D01*
X19489174Y-14750603D01*
X19343501Y-14690264D01*
X19343491Y-14690261D01*
X19239925Y-14669661D01*
X19188842Y-14659500D01*
X19031158Y-14659500D01*
X18987315Y-14668220D01*
X18876508Y-14690261D01*
X18876498Y-14690264D01*
X18730825Y-14750603D01*
X18599711Y-14838210D01*
X18599710Y-14838212D01*
X18488212Y-14949710D01*
X18488210Y-14949711D01*
X18400603Y-15080825D01*
X18340264Y-15226498D01*
X18340261Y-15226508D01*
X18309500Y-15381159D01*
X18309500Y-15538840D01*
X18340261Y-15693491D01*
X18340264Y-15693501D01*
X18400603Y-15839174D01*
X18461542Y-15930377D01*
X18488211Y-15970289D01*
X18599711Y-16081789D01*
X18730821Y-16169394D01*
X18730826Y-16169396D01*
X18730825Y-16169396D01*
X18876498Y-16229735D01*
X18876503Y-16229737D01*
X19031158Y-16260500D01*
X19031163Y-16260500D01*
X19034779Y-16260857D01*
X19034596Y-16262708D01*
X19081592Y-16282174D01*
X19103266Y-16334500D01*
X19081592Y-16386826D01*
X18015430Y-17452987D01*
X17985444Y-17504925D01*
X17974043Y-17524673D01*
X17969286Y-17532912D01*
X17945400Y-17622056D01*
X17350500Y-17622056D01*
X17350500Y-17602126D01*
X17344091Y-17542516D01*
X17293796Y-17407669D01*
X17207547Y-17292453D01*
X17136655Y-17239384D01*
X17092330Y-17206203D01*
X16957488Y-17155910D01*
X16957485Y-17155909D01*
X16957484Y-17155909D01*
X16927679Y-17152704D01*
X16897875Y-17149500D01*
X16897874Y-17149500D01*
X15175834Y-17149500D01*
X15123508Y-17127826D01*
X13573112Y-15577430D01*
X13493189Y-15531286D01*
X13493184Y-15531284D01*
X13404046Y-15507400D01*
X13404044Y-15507400D01*
X4795576Y-15507400D01*
X4743250Y-15485726D01*
X4674915Y-15417391D01*
X4549386Y-15344916D01*
X4549381Y-15344914D01*
X4409377Y-15307400D01*
X4409375Y-15307400D01*
X4264425Y-15307400D01*
X4264423Y-15307400D01*
X4124418Y-15344914D01*
X4124413Y-15344916D01*
X3998884Y-15417391D01*
X3896391Y-15519884D01*
X3823916Y-15645413D01*
X3823914Y-15645418D01*
X3786400Y-15785422D01*
X500500Y-15785422D01*
X500500Y-12841159D01*
X18309500Y-12841159D01*
X18309500Y-12998840D01*
X18340261Y-13153491D01*
X18340264Y-13153501D01*
X18400603Y-13299174D01*
X18400605Y-13299177D01*
X18400606Y-13299179D01*
X18488211Y-13430289D01*
X18599711Y-13541789D01*
X18730821Y-13629394D01*
X18730826Y-13629396D01*
X18730825Y-13629396D01*
X18876498Y-13689735D01*
X18876503Y-13689737D01*
X19031158Y-13720500D01*
X19031160Y-13720500D01*
X19188840Y-13720500D01*
X19188842Y-13720500D01*
X19343497Y-13689737D01*
X19489179Y-13629394D01*
X19620289Y-13541789D01*
X19731789Y-13430289D01*
X19819394Y-13299179D01*
X19879737Y-13153497D01*
X19910500Y-12998842D01*
X19910500Y-12921159D01*
X22119500Y-12921159D01*
X22119500Y-13078840D01*
X22150261Y-13233491D01*
X22150264Y-13233501D01*
X22210603Y-13379174D01*
X22297619Y-13509404D01*
X22298211Y-13510289D01*
X22409711Y-13621789D01*
X22540821Y-13709394D01*
X22540826Y-13709396D01*
X22540825Y-13709396D01*
X22563611Y-13718834D01*
X22686503Y-13769737D01*
X22841158Y-13800500D01*
X22841160Y-13800500D01*
X22998840Y-13800500D01*
X22998842Y-13800500D01*
X23153497Y-13769737D01*
X23299179Y-13709394D01*
X23430289Y-13621789D01*
X23541789Y-13510289D01*
X23629394Y-13379179D01*
X23689737Y-13233497D01*
X23720500Y-13078842D01*
X23720500Y-12921159D01*
X24659500Y-12921159D01*
X24659500Y-13078840D01*
X24690261Y-13233491D01*
X24690264Y-13233501D01*
X24750603Y-13379174D01*
X24837619Y-13509404D01*
X24838211Y-13510289D01*
X24949711Y-13621789D01*
X25080821Y-13709394D01*
X25080826Y-13709396D01*
X25080825Y-13709396D01*
X25103611Y-13718834D01*
X25226503Y-13769737D01*
X25381158Y-13800500D01*
X25381160Y-13800500D01*
X25538840Y-13800500D01*
X25538842Y-13800500D01*
X25693497Y-13769737D01*
X25839179Y-13709394D01*
X25970289Y-13621789D01*
X26081789Y-13510289D01*
X26169394Y-13379179D01*
X26229737Y-13233497D01*
X26260500Y-13078842D01*
X26260500Y-12921158D01*
X26229737Y-12766503D01*
X26169394Y-12620821D01*
X26081789Y-12489711D01*
X25970289Y-12378211D01*
X25839179Y-12290606D01*
X25839175Y-12290604D01*
X25839173Y-12290603D01*
X25839174Y-12290603D01*
X25693501Y-12230264D01*
X25693491Y-12230261D01*
X25589925Y-12209661D01*
X25538842Y-12199500D01*
X25381158Y-12199500D01*
X25337315Y-12208220D01*
X25226508Y-12230261D01*
X25226498Y-12230264D01*
X25080825Y-12290603D01*
X24949711Y-12378210D01*
X24949710Y-12378212D01*
X24838212Y-12489710D01*
X24838210Y-12489711D01*
X24750603Y-12620825D01*
X24690264Y-12766498D01*
X24690261Y-12766508D01*
X24659500Y-12921159D01*
X23720500Y-12921159D01*
X23720500Y-12921158D01*
X23689737Y-12766503D01*
X23629394Y-12620821D01*
X23541789Y-12489711D01*
X23430289Y-12378211D01*
X23299179Y-12290606D01*
X23299175Y-12290604D01*
X23299173Y-12290603D01*
X23299174Y-12290603D01*
X23153501Y-12230264D01*
X23153491Y-12230261D01*
X23049925Y-12209661D01*
X22998842Y-12199500D01*
X22841158Y-12199500D01*
X22797315Y-12208220D01*
X22686508Y-12230261D01*
X22686498Y-12230264D01*
X22540825Y-12290603D01*
X22409711Y-12378210D01*
X22409710Y-12378212D01*
X22298212Y-12489710D01*
X22298210Y-12489711D01*
X22210603Y-12620825D01*
X22150264Y-12766498D01*
X22150261Y-12766508D01*
X22119500Y-12921159D01*
X19910500Y-12921159D01*
X19910500Y-12841158D01*
X19879737Y-12686503D01*
X19879735Y-12686498D01*
X19819396Y-12540825D01*
X19819395Y-12540823D01*
X19819394Y-12540821D01*
X19731789Y-12409711D01*
X19620289Y-12298211D01*
X19608907Y-12290606D01*
X19587842Y-12276530D01*
X19489179Y-12210606D01*
X19489175Y-12210604D01*
X19489173Y-12210603D01*
X19489174Y-12210603D01*
X19343501Y-12150264D01*
X19343491Y-12150261D01*
X19239925Y-12129661D01*
X19188842Y-12119500D01*
X19031158Y-12119500D01*
X18987315Y-12128220D01*
X18876508Y-12150261D01*
X18876498Y-12150264D01*
X18730825Y-12210603D01*
X18599711Y-12298210D01*
X18599710Y-12298212D01*
X18488212Y-12409710D01*
X18488210Y-12409711D01*
X18400603Y-12540825D01*
X18340264Y-12686498D01*
X18340261Y-12686508D01*
X18309500Y-12841159D01*
X500500Y-12841159D01*
X500500Y-10301158D01*
X18309500Y-10301158D01*
X18309500Y-10458842D01*
X18313734Y-10480127D01*
X18340261Y-10613491D01*
X18340264Y-10613501D01*
X18400603Y-10759174D01*
X18400605Y-10759177D01*
X18400606Y-10759179D01*
X18488211Y-10890289D01*
X18599711Y-11001789D01*
X18730821Y-11089394D01*
X18730826Y-11089396D01*
X18730825Y-11089396D01*
X18856460Y-11141435D01*
X18876503Y-11149737D01*
X19031158Y-11180500D01*
X19031160Y-11180500D01*
X19188840Y-11180500D01*
X19188842Y-11180500D01*
X19343497Y-11149737D01*
X19489179Y-11089394D01*
X19620289Y-11001789D01*
X19731789Y-10890289D01*
X19819394Y-10759179D01*
X19879737Y-10613497D01*
X19910500Y-10458842D01*
X19910500Y-10301158D01*
X36089500Y-10301158D01*
X36089500Y-10458842D01*
X36093734Y-10480127D01*
X36120261Y-10613491D01*
X36120264Y-10613501D01*
X36180603Y-10759174D01*
X36180605Y-10759177D01*
X36180606Y-10759179D01*
X36268211Y-10890289D01*
X36379711Y-11001789D01*
X36510821Y-11089394D01*
X36510826Y-11089396D01*
X36510825Y-11089396D01*
X36636460Y-11141435D01*
X36656503Y-11149737D01*
X36811158Y-11180500D01*
X36811160Y-11180500D01*
X36968840Y-11180500D01*
X36968842Y-11180500D01*
X37123497Y-11149737D01*
X37269179Y-11089394D01*
X37400289Y-11001789D01*
X37511789Y-10890289D01*
X37599394Y-10759179D01*
X37659737Y-10613497D01*
X37690500Y-10458842D01*
X37690500Y-10301158D01*
X37659737Y-10146503D01*
X37599394Y-10000821D01*
X37511789Y-9869711D01*
X37400289Y-9758211D01*
X37269179Y-9670606D01*
X37269175Y-9670604D01*
X37269173Y-9670603D01*
X37269174Y-9670603D01*
X37123501Y-9610264D01*
X37123491Y-9610261D01*
X37019925Y-9589661D01*
X36968842Y-9579500D01*
X36811158Y-9579500D01*
X36767315Y-9588220D01*
X36656508Y-9610261D01*
X36656498Y-9610264D01*
X36510825Y-9670603D01*
X36379711Y-9758210D01*
X36379710Y-9758212D01*
X36268212Y-9869710D01*
X36268210Y-9869711D01*
X36180603Y-10000825D01*
X36120264Y-10146498D01*
X36120261Y-10146508D01*
X36094580Y-10275616D01*
X36089500Y-10301158D01*
X19910500Y-10301158D01*
X19879737Y-10146503D01*
X19819394Y-10000821D01*
X19731789Y-9869711D01*
X19620289Y-9758211D01*
X19489179Y-9670606D01*
X19489175Y-9670604D01*
X19489173Y-9670603D01*
X19489174Y-9670603D01*
X19343501Y-9610264D01*
X19343491Y-9610261D01*
X19239925Y-9589661D01*
X19188842Y-9579500D01*
X19031158Y-9579500D01*
X18987315Y-9588220D01*
X18876508Y-9610261D01*
X18876498Y-9610264D01*
X18730825Y-9670603D01*
X18599711Y-9758210D01*
X18599710Y-9758212D01*
X18488212Y-9869710D01*
X18488210Y-9869711D01*
X18400603Y-10000825D01*
X18340264Y-10146498D01*
X18340261Y-10146508D01*
X18314580Y-10275616D01*
X18309500Y-10301158D01*
X500500Y-10301158D01*
X500500Y-7761159D01*
X18309500Y-7761159D01*
X18309500Y-7918840D01*
X18340261Y-8073491D01*
X18340264Y-8073501D01*
X18400603Y-8219174D01*
X18400605Y-8219177D01*
X18400606Y-8219179D01*
X18488211Y-8350289D01*
X18599711Y-8461789D01*
X18730821Y-8549394D01*
X18730826Y-8549396D01*
X18730825Y-8549396D01*
X18876498Y-8609735D01*
X18876503Y-8609737D01*
X19031158Y-8640500D01*
X19031160Y-8640500D01*
X19188840Y-8640500D01*
X19188842Y-8640500D01*
X19343497Y-8609737D01*
X19489179Y-8549394D01*
X19620289Y-8461789D01*
X19731789Y-8350289D01*
X19819394Y-8219179D01*
X19879737Y-8073497D01*
X19910500Y-7918842D01*
X19910500Y-7761159D01*
X36089500Y-7761159D01*
X36089500Y-7918840D01*
X36120261Y-8073491D01*
X36120264Y-8073501D01*
X36180603Y-8219174D01*
X36180605Y-8219177D01*
X36180606Y-8219179D01*
X36268211Y-8350289D01*
X36379711Y-8461789D01*
X36510821Y-8549394D01*
X36510826Y-8549396D01*
X36510825Y-8549396D01*
X36656498Y-8609735D01*
X36656503Y-8609737D01*
X36811158Y-8640500D01*
X36811160Y-8640500D01*
X36968840Y-8640500D01*
X36968842Y-8640500D01*
X37123497Y-8609737D01*
X37269179Y-8549394D01*
X37400289Y-8461789D01*
X37511789Y-8350289D01*
X37599394Y-8219179D01*
X37659737Y-8073497D01*
X37690500Y-7918842D01*
X37690500Y-7761158D01*
X37659737Y-7606503D01*
X37599394Y-7460821D01*
X37511789Y-7329711D01*
X37400289Y-7218211D01*
X37269179Y-7130606D01*
X37269175Y-7130604D01*
X37269173Y-7130603D01*
X37269174Y-7130603D01*
X37123501Y-7070264D01*
X37123491Y-7070261D01*
X37019925Y-7049661D01*
X36968842Y-7039500D01*
X36811158Y-7039500D01*
X36767315Y-7048220D01*
X36656508Y-7070261D01*
X36656498Y-7070264D01*
X36510825Y-7130603D01*
X36379711Y-7218210D01*
X36379710Y-7218212D01*
X36268212Y-7329710D01*
X36268210Y-7329711D01*
X36180603Y-7460825D01*
X36120264Y-7606498D01*
X36120261Y-7606508D01*
X36089500Y-7761159D01*
X19910500Y-7761159D01*
X19910500Y-7761158D01*
X19879737Y-7606503D01*
X19819394Y-7460821D01*
X19731789Y-7329711D01*
X19620289Y-7218211D01*
X19489179Y-7130606D01*
X19489175Y-7130604D01*
X19489173Y-7130603D01*
X19489174Y-7130603D01*
X19343501Y-7070264D01*
X19343491Y-7070261D01*
X19239925Y-7049661D01*
X19188842Y-7039500D01*
X19031158Y-7039500D01*
X18987315Y-7048220D01*
X18876508Y-7070261D01*
X18876498Y-7070264D01*
X18730825Y-7130603D01*
X18599711Y-7218210D01*
X18599710Y-7218212D01*
X18488212Y-7329710D01*
X18488210Y-7329711D01*
X18400603Y-7460825D01*
X18340264Y-7606498D01*
X18340261Y-7606508D01*
X18309500Y-7761159D01*
X500500Y-7761159D01*
X500500Y-5897646D01*
X5699500Y-5897646D01*
X5699500Y-6102353D01*
X5731522Y-6304531D01*
X5731525Y-6304544D01*
X5794777Y-6499213D01*
X5887712Y-6681610D01*
X5961406Y-6783040D01*
X6008034Y-6847219D01*
X6152781Y-6991966D01*
X6244695Y-7058745D01*
X6318389Y-7112287D01*
X6406300Y-7157079D01*
X6500781Y-7205220D01*
X6500783Y-7205220D01*
X6500786Y-7205222D01*
X6695455Y-7268474D01*
X6695461Y-7268475D01*
X6695466Y-7268477D01*
X6796557Y-7284488D01*
X6897646Y-7300500D01*
X6897648Y-7300500D01*
X7102354Y-7300500D01*
X7183224Y-7287690D01*
X7304534Y-7268477D01*
X7304541Y-7268474D01*
X7304544Y-7268474D01*
X7499213Y-7205222D01*
X7499213Y-7205221D01*
X7499219Y-7205220D01*
X7681610Y-7112287D01*
X7847219Y-6991966D01*
X7991966Y-6847219D01*
X8112287Y-6681610D01*
X8205220Y-6499219D01*
X8268477Y-6304534D01*
X8300500Y-6102352D01*
X8300500Y-5897648D01*
X8300500Y-5897646D01*
X46699500Y-5897646D01*
X46699500Y-6102353D01*
X46731522Y-6304531D01*
X46731525Y-6304544D01*
X46794777Y-6499213D01*
X46887712Y-6681610D01*
X46961406Y-6783040D01*
X47008034Y-6847219D01*
X47152781Y-6991966D01*
X47244695Y-7058745D01*
X47318389Y-7112287D01*
X47406300Y-7157079D01*
X47500781Y-7205220D01*
X47500783Y-7205220D01*
X47500786Y-7205222D01*
X47695455Y-7268474D01*
X47695461Y-7268475D01*
X47695466Y-7268477D01*
X47796557Y-7284488D01*
X47897646Y-7300500D01*
X47897648Y-7300500D01*
X48102354Y-7300500D01*
X48183224Y-7287690D01*
X48304534Y-7268477D01*
X48304541Y-7268474D01*
X48304544Y-7268474D01*
X48499213Y-7205222D01*
X48499213Y-7205221D01*
X48499219Y-7205220D01*
X48681610Y-7112287D01*
X48847219Y-6991966D01*
X48991966Y-6847219D01*
X49112287Y-6681610D01*
X49205220Y-6499219D01*
X49268477Y-6304534D01*
X49300500Y-6102352D01*
X49300500Y-5897648D01*
X49268477Y-5695466D01*
X49268475Y-5695461D01*
X49268474Y-5695455D01*
X49205222Y-5500786D01*
X49205220Y-5500783D01*
X49205220Y-5500781D01*
X49157079Y-5406300D01*
X49112287Y-5318389D01*
X49058745Y-5244695D01*
X48991966Y-5152781D01*
X48847219Y-5008034D01*
X48771172Y-4952783D01*
X48681610Y-4887712D01*
X48499213Y-4794777D01*
X48304544Y-4731525D01*
X48304531Y-4731522D01*
X48102354Y-4699500D01*
X48102352Y-4699500D01*
X47897648Y-4699500D01*
X47897646Y-4699500D01*
X47695468Y-4731522D01*
X47695455Y-4731525D01*
X47500786Y-4794777D01*
X47318389Y-4887712D01*
X47162877Y-5000699D01*
X47152781Y-5008034D01*
X47008034Y-5152781D01*
X47008031Y-5152784D01*
X47008031Y-5152785D01*
X46887712Y-5318389D01*
X46794777Y-5500786D01*
X46731525Y-5695455D01*
X46731522Y-5695468D01*
X46699500Y-5897646D01*
X8300500Y-5897646D01*
X8268477Y-5695466D01*
X8268475Y-5695461D01*
X8268474Y-5695455D01*
X8205222Y-5500786D01*
X8205220Y-5500783D01*
X8205220Y-5500781D01*
X8157079Y-5406300D01*
X8112287Y-5318389D01*
X8058745Y-5244695D01*
X7991966Y-5152781D01*
X7847219Y-5008034D01*
X7771172Y-4952783D01*
X7681610Y-4887712D01*
X7499213Y-4794777D01*
X7304544Y-4731525D01*
X7304531Y-4731522D01*
X7102354Y-4699500D01*
X7102352Y-4699500D01*
X6897648Y-4699500D01*
X6897646Y-4699500D01*
X6695468Y-4731522D01*
X6695455Y-4731525D01*
X6500786Y-4794777D01*
X6318389Y-4887712D01*
X6162877Y-5000699D01*
X6152781Y-5008034D01*
X6008034Y-5152781D01*
X6008031Y-5152784D01*
X6008031Y-5152785D01*
X5887712Y-5318389D01*
X5794777Y-5500786D01*
X5731525Y-5695455D01*
X5731522Y-5695468D01*
X5699500Y-5897646D01*
X500500Y-5897646D01*
X500500Y-4367322D01*
X28274500Y-4367322D01*
X28274500Y-4512277D01*
X28312014Y-4652281D01*
X28312016Y-4652286D01*
X28357764Y-4731523D01*
X28384491Y-4777815D01*
X28486985Y-4880309D01*
X28612515Y-4952784D01*
X28612516Y-4952784D01*
X28612518Y-4952785D01*
X28682520Y-4971542D01*
X28752522Y-4990299D01*
X28752523Y-4990300D01*
X28752525Y-4990300D01*
X28897477Y-4990300D01*
X28897477Y-4990299D01*
X29037485Y-4952784D01*
X29163015Y-4880309D01*
X29265509Y-4777815D01*
X29337984Y-4652285D01*
X29375499Y-4512277D01*
X29375500Y-4512277D01*
X29375500Y-4377722D01*
X34274500Y-4377722D01*
X34274500Y-4522677D01*
X34312014Y-4662681D01*
X34312016Y-4662686D01*
X34384491Y-4788215D01*
X34486985Y-4890709D01*
X34612515Y-4963184D01*
X34612516Y-4963184D01*
X34612518Y-4963185D01*
X34682520Y-4981942D01*
X34752522Y-5000699D01*
X34752523Y-5000700D01*
X34752525Y-5000700D01*
X34897477Y-5000700D01*
X34897477Y-5000699D01*
X35037485Y-4963184D01*
X35163015Y-4890709D01*
X35265509Y-4788215D01*
X35337984Y-4662685D01*
X35375499Y-4522677D01*
X35375500Y-4522677D01*
X35375500Y-4377723D01*
X35375499Y-4377722D01*
X35337985Y-4237718D01*
X35337983Y-4237713D01*
X35265508Y-4112184D01*
X35163015Y-4009691D01*
X35037486Y-3937216D01*
X35037481Y-3937214D01*
X34897477Y-3899700D01*
X34897475Y-3899700D01*
X34752525Y-3899700D01*
X34752523Y-3899700D01*
X34612518Y-3937214D01*
X34612513Y-3937216D01*
X34486984Y-4009691D01*
X34384491Y-4112184D01*
X34312016Y-4237713D01*
X34312014Y-4237718D01*
X34274500Y-4377722D01*
X29375500Y-4377722D01*
X29375500Y-4367323D01*
X29375499Y-4367322D01*
X29337985Y-4227318D01*
X29337983Y-4227313D01*
X29265508Y-4101784D01*
X29163015Y-3999291D01*
X29037486Y-3926816D01*
X29037481Y-3926814D01*
X28897477Y-3889300D01*
X28897475Y-3889300D01*
X28752525Y-3889300D01*
X28752523Y-3889300D01*
X28612518Y-3926814D01*
X28612513Y-3926816D01*
X28486984Y-3999291D01*
X28384491Y-4101784D01*
X28312016Y-4227313D01*
X28312014Y-4227318D01*
X28274500Y-4367322D01*
X500500Y-4367322D01*
X500500Y-574500D01*
X522174Y-522174D01*
X574500Y-500500D01*
X55425500Y-500500D01*
X55477826Y-522174D01*
G37*
%TD.AperFunction*%
%TD*%
M02*
