%TF.GenerationSoftware,KiCad,Pcbnew,9.0.2+dfsg-1*%
%TF.CreationDate,2026-06-04T18:47:44-04:00*%
%TF.ProjectId,autofeeder,6175746f-6665-4656-9465-722e6b696361,rev?*%
%TF.SameCoordinates,Original*%
%TF.FileFunction,Paste,Bot*%
%TF.FilePolarity,Positive*%
%FSLAX46Y46*%
G04 Gerber Fmt 4.6, Leading zero omitted, Abs format (unit mm)*
G04 Created by KiCad (PCBNEW 9.0.2+dfsg-1) date 2026-06-04 18:47:44*
%MOMM*%
%LPD*%
G01*
G04 APERTURE LIST*
G04 Aperture macros list*
%AMRoundRect*
0 Rectangle with rounded corners*
0 $1 Rounding radius*
0 $2 $3 $4 $5 $6 $7 $8 $9 X,Y pos of 4 corners*
0 Add a 4 corners polygon primitive as box body*
4,1,4,$2,$3,$4,$5,$6,$7,$8,$9,$2,$3,0*
0 Add four circle primitives for the rounded corners*
1,1,$1+$1,$2,$3*
1,1,$1+$1,$4,$5*
1,1,$1+$1,$6,$7*
1,1,$1+$1,$8,$9*
0 Add four rect primitives between the rounded corners*
20,1,$1+$1,$2,$3,$4,$5,0*
20,1,$1+$1,$4,$5,$6,$7,0*
20,1,$1+$1,$6,$7,$8,$9,0*
20,1,$1+$1,$8,$9,$2,$3,0*%
G04 Aperture macros list end*
%ADD10RoundRect,0.200000X0.200000X0.275000X-0.200000X0.275000X-0.200000X-0.275000X0.200000X-0.275000X0*%
%ADD11RoundRect,0.150000X0.825000X0.150000X-0.825000X0.150000X-0.825000X-0.150000X0.825000X-0.150000X0*%
%ADD12RoundRect,0.162500X0.617500X0.162500X-0.617500X0.162500X-0.617500X-0.162500X0.617500X-0.162500X0*%
%ADD13RoundRect,0.225000X0.225000X0.250000X-0.225000X0.250000X-0.225000X-0.250000X0.225000X-0.250000X0*%
%ADD14RoundRect,0.218750X0.218750X0.256250X-0.218750X0.256250X-0.218750X-0.256250X0.218750X-0.256250X0*%
%ADD15R,0.600000X1.450000*%
%ADD16R,0.300000X1.450000*%
%ADD17RoundRect,0.218750X0.218750X0.381250X-0.218750X0.381250X-0.218750X-0.381250X0.218750X-0.381250X0*%
%ADD18RoundRect,0.250000X0.250000X0.475000X-0.250000X0.475000X-0.250000X-0.475000X0.250000X-0.475000X0*%
%ADD19RoundRect,0.120000X0.120000X0.285000X-0.120000X0.285000X-0.120000X-0.285000X0.120000X-0.285000X0*%
%ADD20RoundRect,0.062500X0.350000X0.062500X-0.350000X0.062500X-0.350000X-0.062500X0.350000X-0.062500X0*%
%ADD21RoundRect,0.250000X0.312500X1.450000X-0.312500X1.450000X-0.312500X-1.450000X0.312500X-1.450000X0*%
G04 APERTURE END LIST*
D10*
%TO.C,R5*%
X48825000Y-46000000D03*
X47175000Y-46000000D03*
%TD*%
%TO.C,R2_C1*%
X16825000Y-22000000D03*
X15175000Y-22000000D03*
%TD*%
D11*
%TO.C,U6*%
X43475000Y-43095000D03*
X43475000Y-44365000D03*
X43475000Y-45635000D03*
X43475000Y-46905000D03*
X38525000Y-46905000D03*
X38525000Y-45635000D03*
X38525000Y-44365000D03*
X38525000Y-43095000D03*
%TD*%
D12*
%TO.C,U8*%
X20350000Y-34050000D03*
X20350000Y-35000000D03*
X20350000Y-35950000D03*
X17650000Y-35950000D03*
X17650000Y-35000000D03*
X17650000Y-34050000D03*
%TD*%
D13*
%TO.C,C1*%
X40775000Y-23000000D03*
X39225000Y-23000000D03*
%TD*%
D14*
%TO.C,LED_CHG1*%
X8787500Y-22000000D03*
X7212500Y-22000000D03*
%TD*%
D12*
%TO.C,U3*%
X11350000Y-27050000D03*
X11350000Y-28000000D03*
X11350000Y-28950000D03*
X8650000Y-28950000D03*
X8650000Y-28000000D03*
X8650000Y-27050000D03*
%TD*%
D15*
%TO.C,J3*%
X33250000Y-47455000D03*
X32450000Y-47455000D03*
D16*
X31250000Y-47455000D03*
X30250000Y-47455000D03*
X29750000Y-47455000D03*
X28750000Y-47455000D03*
D15*
X27550000Y-47455000D03*
X26750000Y-47455000D03*
X26750000Y-47455000D03*
X27550000Y-47455000D03*
D16*
X28250000Y-47455000D03*
X29250000Y-47455000D03*
X30750000Y-47455000D03*
X31750000Y-47455000D03*
D15*
X32450000Y-47455000D03*
X33250000Y-47455000D03*
%TD*%
D17*
%TO.C,L1*%
X7062500Y-36000000D03*
X4937500Y-36000000D03*
%TD*%
D11*
%TO.C,U5*%
X38475000Y-36095000D03*
X38475000Y-37365000D03*
X38475000Y-38635000D03*
X38475000Y-39905000D03*
X33525000Y-39905000D03*
X33525000Y-38635000D03*
X33525000Y-37365000D03*
X33525000Y-36095000D03*
%TD*%
D10*
%TO.C,R10*%
X46825000Y-50000000D03*
X45175000Y-50000000D03*
%TD*%
D18*
%TO.C,C4*%
X12950000Y-42000000D03*
X11050000Y-42000000D03*
%TD*%
%TO.C,C5*%
X20950000Y-42000000D03*
X19050000Y-42000000D03*
%TD*%
D10*
%TO.C,R4*%
X11825000Y-50000000D03*
X10175000Y-50000000D03*
%TD*%
%TO.C,R3*%
X11825000Y-46000000D03*
X10175000Y-46000000D03*
%TD*%
D11*
%TO.C,U2*%
X16475000Y-12095000D03*
X16475000Y-13365000D03*
X16475000Y-14635000D03*
X16475000Y-15905000D03*
X11525000Y-15905000D03*
X11525000Y-14635000D03*
X11525000Y-13365000D03*
X11525000Y-12095000D03*
%TD*%
D13*
%TO.C,C6*%
X46775000Y-40000000D03*
X45225000Y-40000000D03*
%TD*%
D10*
%TO.C,R6*%
X42825000Y-49000000D03*
X41175000Y-49000000D03*
%TD*%
D13*
%TO.C,C3*%
X35775000Y-33000000D03*
X34225000Y-33000000D03*
%TD*%
D19*
%TO.C,U4*%
X13300000Y-36500000D03*
X13300000Y-35500000D03*
X12700000Y-36500000D03*
X12700000Y-35500000D03*
D20*
X14212500Y-35000000D03*
X14212500Y-35500000D03*
X14212500Y-36000000D03*
X14212500Y-36500000D03*
X14212500Y-37000000D03*
X11787500Y-37000000D03*
X11787500Y-36500000D03*
X11787500Y-36000000D03*
X11787500Y-35500000D03*
X11787500Y-35000000D03*
%TD*%
D18*
%TO.C,C2*%
X40950000Y-26000000D03*
X39050000Y-26000000D03*
%TD*%
D21*
%TO.C,F1*%
X9137500Y-13000000D03*
X4862500Y-13000000D03*
%TD*%
D10*
%TO.C,R13*%
X44825000Y-8000000D03*
X43175000Y-8000000D03*
%TD*%
%TO.C,R_CC1*%
X28825000Y-3500000D03*
X27175000Y-3500000D03*
%TD*%
%TO.C,R_CC2*%
X34825000Y-3500000D03*
X33175000Y-3500000D03*
%TD*%
M02*
