M48
; DRILL file {KiCad 9.0.2+dfsg-1} date 2026-07-13T23:30:14-0400
; FORMAT={-:-/ absolute / metric / decimal}
; #@! TF.CreationDate,2026-07-13T23:30:14-04:00
; #@! TF.GenerationSoftware,Kicad,Pcbnew,9.0.2+dfsg-1
; #@! TF.FileFunction,MixedPlating,1,4
FMAT,2
METRIC
; #@! TA.AperFunction,Plated,PTH,ViaDrill
T1C0.300
; #@! TA.AperFunction,Plated,PTH,ComponentDrill
T2C0.600
; #@! TA.AperFunction,Plated,PTH,ComponentDrill
T3C0.800
; #@! TA.AperFunction,Plated,PTH,ComponentDrill
T4C1.000
; #@! TA.AperFunction,Plated,PTH,ComponentDrill
T5C1.100
; #@! TA.AperFunction,NonPlated,NPTH,ComponentDrill
T6C0.650
; #@! TA.AperFunction,NonPlated,NPTH,ComponentDrill
T7C2.100
%
G90
G05
T1
X2.15Y-2.15
X2.15Y-4.35
X2.15Y-6.55
X2.15Y-8.75
X2.15Y-10.95
X2.15Y-13.15
X2.15Y-15.35
X2.15Y-17.55
X2.15Y-19.75
X2.15Y-21.95
X2.15Y-24.15
X2.15Y-26.35
X2.15Y-28.55
X2.15Y-30.75
X2.15Y-41.75
X2.15Y-43.95
X2.15Y-46.15
X2.15Y-48.35
X2.15Y-50.55
X2.15Y-52.75
X4.35Y-2.15
X4.35Y-4.35
X4.35Y-6.55
X4.35Y-8.75
X4.35Y-19.75
X4.35Y-21.95
X4.35Y-24.15
X4.35Y-26.35
X4.35Y-28.55
X4.35Y-30.75
X4.35Y-37.35
X4.35Y-39.55
X4.35Y-41.75
X4.35Y-43.95
X4.35Y-46.15
X4.35Y-48.35
X4.35Y-50.55
X4.35Y-52.75
X5.883Y-14.276
X6.55Y-2.15
X6.55Y-8.75
X6.55Y-10.95
X6.55Y-13.15
X6.55Y-26.35
X6.55Y-28.55
X6.55Y-30.75
X6.55Y-32.95
X6.55Y-46.15
X6.55Y-48.35
X6.55Y-50.55
X6.55Y-52.75
X8.75Y-2.15
X8.75Y-4.35
X8.75Y-8.75
X8.75Y-24.15
X8.75Y-30.75
X8.75Y-32.95
X8.75Y-35.15
X8.75Y-37.35
X8.75Y-43.95
X8.75Y-46.15
X8.75Y-52.75
X9.907Y-29.124
X9.985Y-14.951
X10.95Y-2.15
X10.95Y-8.75
X10.95Y-10.95
X10.95Y-19.75
X10.95Y-21.95
X10.95Y-24.15
X10.95Y-48.35
X10.95Y-52.75
X11.48Y-34.416
X11.525Y-16.666
X11.667Y-37.975
X12.698Y-50.0
X13.063Y-34.543
X13.15Y-2.15
X13.15Y-8.75
X13.15Y-10.95
X13.15Y-17.55
X13.15Y-19.75
X13.15Y-21.95
X13.15Y-24.15
X13.15Y-46.15
X13.15Y-52.75
X13.797Y-41.123
X14.973Y-5.835
X15.35Y-2.15
X15.35Y-4.35
X15.35Y-8.75
X15.35Y-43.95
X15.35Y-50.55
X15.35Y-52.75
X16.56Y-23.833
X17.55Y-2.15
X17.55Y-4.35
X17.55Y-8.75
X17.55Y-24.15
X17.55Y-41.75
X17.55Y-48.35
X17.55Y-50.55
X17.55Y-52.75
X19.5Y-33.3
X19.75Y-2.15
X19.75Y-4.35
X19.75Y-46.15
X19.75Y-48.35
X19.75Y-50.55
X19.75Y-52.75
X19.82Y-40.66
X21.2Y-33.3
X21.556Y-35.486
X21.95Y-2.15
X21.95Y-4.35
X21.95Y-8.75
X21.95Y-28.55
X21.95Y-37.35
X21.95Y-39.55
X21.95Y-43.95
X21.95Y-46.15
X21.95Y-48.35
X21.95Y-50.55
X21.95Y-52.75
X24.15Y-2.15
X24.15Y-4.35
X24.15Y-8.75
X24.15Y-15.35
X24.15Y-19.75
X24.15Y-35.15
X24.15Y-37.35
X24.15Y-39.55
X24.15Y-41.75
X24.15Y-43.95
X24.15Y-46.15
X24.15Y-48.35
X24.15Y-50.55
X24.15Y-52.75
X26.35Y-2.15
X26.35Y-8.75
X26.35Y-10.95
X26.35Y-19.75
X26.35Y-50.55
X28.55Y-2.15
X28.55Y-50.55
X28.55Y-52.75
X28.776Y-43.195
X28.894Y-4.458
X29.893Y-45.96
X29.92Y-48.728
X30.75Y-2.15
X30.75Y-8.75
X30.75Y-10.95
X30.75Y-15.35
X30.75Y-24.15
X30.75Y-26.35
X30.75Y-37.35
X30.75Y-39.55
X30.75Y-52.75
X30.846Y-48.634
X31.268Y-6.624
X32.95Y-2.15
X32.95Y-4.35
X32.95Y-35.15
X32.95Y-52.75
X34.66Y-38.416
X34.818Y-11.498
X34.825Y-4.45
X35.15Y-2.15
X35.15Y-6.55
X35.15Y-41.75
X35.15Y-46.15
X35.15Y-48.35
X35.15Y-52.75
X37.35Y-2.15
X37.35Y-4.35
X37.35Y-6.55
X37.35Y-26.35
X37.35Y-35.15
X37.35Y-39.55
X37.35Y-48.35
X37.35Y-52.75
X38.151Y-14.707
X39.176Y-42.195
X39.55Y-2.15
X39.55Y-30.75
X39.55Y-48.35
X39.55Y-52.75
X40.295Y-49.235
X40.603Y-7.752
X41.75Y-2.15
X41.75Y-6.55
X41.75Y-10.95
X41.75Y-39.55
X41.75Y-52.75
X42.005Y-43.095
X43.95Y-2.15
X43.95Y-10.95
X43.95Y-26.35
X43.95Y-28.55
X43.95Y-35.15
X43.95Y-37.35
X43.95Y-39.55
X43.95Y-52.75
X46.15Y-2.15
X46.15Y-4.35
X46.15Y-6.55
X46.15Y-8.75
X46.15Y-10.95
X46.15Y-30.75
X46.15Y-35.15
X46.15Y-37.35
X46.15Y-52.75
X48.211Y-17.81
X48.35Y-2.15
X48.35Y-8.75
X48.35Y-10.95
X48.35Y-13.15
X48.35Y-19.75
X48.35Y-21.95
X48.35Y-26.35
X48.35Y-28.55
X48.35Y-37.35
X48.35Y-48.35
X48.35Y-50.55
X48.35Y-52.75
X50.55Y-2.15
X50.55Y-4.35
X50.55Y-6.55
X50.55Y-8.75
X50.55Y-17.55
X50.55Y-19.75
X50.55Y-21.95
X50.55Y-26.35
X50.55Y-28.55
X50.55Y-41.75
X50.55Y-43.95
X50.55Y-46.15
X50.55Y-48.35
X50.55Y-50.55
X50.55Y-52.75
X52.75Y-2.15
X52.75Y-4.35
X52.75Y-6.55
X52.75Y-8.75
X52.75Y-17.55
X52.75Y-19.75
X52.75Y-26.35
X52.75Y-28.55
X52.75Y-37.35
X52.75Y-48.35
X52.75Y-50.55
X52.75Y-52.75
X54.95Y-2.15
X54.95Y-4.35
X54.95Y-6.55
X54.95Y-8.75
X54.95Y-10.95
X54.95Y-13.15
X54.95Y-15.35
X54.95Y-17.55
X54.95Y-19.75
X54.95Y-21.95
X54.95Y-24.15
X54.95Y-26.35
X54.95Y-28.55
X54.95Y-30.75
X54.95Y-32.95
X54.95Y-35.15
X54.95Y-37.35
X54.95Y-39.55
X54.95Y-41.75
X54.95Y-43.95
X54.95Y-46.15
X54.95Y-48.35
X54.95Y-50.55
X54.95Y-52.75
T3
X19.11Y-7.84
X19.11Y-10.38
X19.11Y-12.92
X19.11Y-15.46
X19.11Y-18.0
X19.11Y-20.54
X19.11Y-23.08
X19.11Y-25.62
X19.11Y-28.16
X20.38Y-13.0
X22.92Y-13.0
X25.46Y-13.0
X28.0Y-13.0
X30.54Y-13.0
X33.08Y-13.0
X35.62Y-13.0
X36.89Y-7.84
X36.89Y-10.38
X36.89Y-12.92
X36.89Y-15.46
X36.89Y-18.0
X36.89Y-20.54
X36.89Y-23.08
X36.89Y-25.62
X36.89Y-28.16
T4
X20.38Y-30.7
X22.92Y-30.7
X25.46Y-30.7
X28.0Y-30.7
X30.54Y-30.7
X33.08Y-30.7
X35.62Y-30.7
X42.0Y-30.0
X42.0Y-32.54
X42.0Y-35.08
X42.0Y-37.62
X44.0Y-14.0
X44.0Y-16.54
X44.0Y-19.08
X44.0Y-21.62
X52.0Y-11.5
X52.0Y-14.0
X52.0Y-21.5
X52.0Y-24.0
X52.0Y-31.5
X52.0Y-34.0
X53.0Y-39.0
X53.0Y-41.54
X53.0Y-44.08
X53.0Y-46.62
T5
X5.84Y-18.5
X16.0Y-18.5
T6
X27.11Y-48.9
X32.89Y-48.9
T7
X7.0Y-6.0
X7.0Y-43.0
X48.0Y-6.0
X48.0Y-43.0
T2
X25.68Y-48.92G85X25.68Y-47.82
G05
X25.68Y-52.85G85X25.68Y-52.25
G05
X34.32Y-48.92G85X34.32Y-47.82
G05
X34.32Y-52.85G85X34.32Y-52.25
G05
M30
