%TF.GenerationSoftware,KiCad,Pcbnew,9.0.2+dfsg-1*%
%TF.CreationDate,2026-06-03T13:13:35-04:00*%
%TF.ProjectId,autofeeder,6175746f-6665-4656-9465-722e6b696361,rev?*%
%TF.SameCoordinates,Original*%
%TF.FileFunction,Legend,Bot*%
%TF.FilePolarity,Positive*%
%FSLAX46Y46*%
G04 Gerber Fmt 4.6, Leading zero omitted, Abs format (unit mm)*
G04 Created by KiCad (PCBNEW 9.0.2+dfsg-1) date 2026-06-03 13:13:35*
%MOMM*%
%LPD*%
G01*
G04 APERTURE LIST*
%ADD10C,0.150000*%
%ADD11C,0.120000*%
%ADD12C,0.900000*%
G04 APERTURE END LIST*
D10*
X44785714Y-15452657D02*
X44785714Y-16652657D01*
X44785714Y-16652657D02*
X45185714Y-15795514D01*
X45185714Y-15795514D02*
X45585714Y-16652657D01*
X45585714Y-16652657D02*
X45585714Y-15452657D01*
X46385714Y-16652657D02*
X46614286Y-16652657D01*
X46614286Y-16652657D02*
X46728571Y-16595514D01*
X46728571Y-16595514D02*
X46842857Y-16481228D01*
X46842857Y-16481228D02*
X46900000Y-16252657D01*
X46900000Y-16252657D02*
X46900000Y-15852657D01*
X46900000Y-15852657D02*
X46842857Y-15624085D01*
X46842857Y-15624085D02*
X46728571Y-15509800D01*
X46728571Y-15509800D02*
X46614286Y-15452657D01*
X46614286Y-15452657D02*
X46385714Y-15452657D01*
X46385714Y-15452657D02*
X46271429Y-15509800D01*
X46271429Y-15509800D02*
X46157143Y-15624085D01*
X46157143Y-15624085D02*
X46100000Y-15852657D01*
X46100000Y-15852657D02*
X46100000Y-16252657D01*
X46100000Y-16252657D02*
X46157143Y-16481228D01*
X46157143Y-16481228D02*
X46271429Y-16595514D01*
X46271429Y-16595514D02*
X46385714Y-16652657D01*
X47242857Y-16652657D02*
X47928572Y-16652657D01*
X47585714Y-15452657D02*
X47585714Y-16652657D01*
X48557143Y-16652657D02*
X48785715Y-16652657D01*
X48785715Y-16652657D02*
X48900000Y-16595514D01*
X48900000Y-16595514D02*
X49014286Y-16481228D01*
X49014286Y-16481228D02*
X49071429Y-16252657D01*
X49071429Y-16252657D02*
X49071429Y-15852657D01*
X49071429Y-15852657D02*
X49014286Y-15624085D01*
X49014286Y-15624085D02*
X48900000Y-15509800D01*
X48900000Y-15509800D02*
X48785715Y-15452657D01*
X48785715Y-15452657D02*
X48557143Y-15452657D01*
X48557143Y-15452657D02*
X48442858Y-15509800D01*
X48442858Y-15509800D02*
X48328572Y-15624085D01*
X48328572Y-15624085D02*
X48271429Y-15852657D01*
X48271429Y-15852657D02*
X48271429Y-16252657D01*
X48271429Y-16252657D02*
X48328572Y-16481228D01*
X48328572Y-16481228D02*
X48442858Y-16595514D01*
X48442858Y-16595514D02*
X48557143Y-16652657D01*
X50271429Y-15452657D02*
X49871429Y-16024085D01*
X49585715Y-15452657D02*
X49585715Y-16652657D01*
X49585715Y-16652657D02*
X50042858Y-16652657D01*
X50042858Y-16652657D02*
X50157143Y-16595514D01*
X50157143Y-16595514D02*
X50214286Y-16538371D01*
X50214286Y-16538371D02*
X50271429Y-16424085D01*
X50271429Y-16424085D02*
X50271429Y-16252657D01*
X50271429Y-16252657D02*
X50214286Y-16138371D01*
X50214286Y-16138371D02*
X50157143Y-16081228D01*
X50157143Y-16081228D02*
X50042858Y-16024085D01*
X50042858Y-16024085D02*
X49585715Y-16024085D01*
X46157143Y-30081228D02*
X46328571Y-30024085D01*
X46328571Y-30024085D02*
X46385714Y-29966942D01*
X46385714Y-29966942D02*
X46442857Y-29852657D01*
X46442857Y-29852657D02*
X46442857Y-29681228D01*
X46442857Y-29681228D02*
X46385714Y-29566942D01*
X46385714Y-29566942D02*
X46328571Y-29509800D01*
X46328571Y-29509800D02*
X46214286Y-29452657D01*
X46214286Y-29452657D02*
X45757143Y-29452657D01*
X45757143Y-29452657D02*
X45757143Y-30652657D01*
X45757143Y-30652657D02*
X46157143Y-30652657D01*
X46157143Y-30652657D02*
X46271429Y-30595514D01*
X46271429Y-30595514D02*
X46328571Y-30538371D01*
X46328571Y-30538371D02*
X46385714Y-30424085D01*
X46385714Y-30424085D02*
X46385714Y-30309800D01*
X46385714Y-30309800D02*
X46328571Y-30195514D01*
X46328571Y-30195514D02*
X46271429Y-30138371D01*
X46271429Y-30138371D02*
X46157143Y-30081228D01*
X46157143Y-30081228D02*
X45757143Y-30081228D01*
X46900000Y-29795514D02*
X47471429Y-29795514D01*
X46785714Y-29452657D02*
X47185714Y-30652657D01*
X47185714Y-30652657D02*
X47585714Y-29452657D01*
X47814285Y-30652657D02*
X48500000Y-30652657D01*
X48157142Y-29452657D02*
X48157142Y-30652657D01*
X48728571Y-30652657D02*
X49414286Y-30652657D01*
X49071428Y-29452657D02*
X49071428Y-30652657D01*
X12166666Y-40679580D02*
X12214285Y-40727200D01*
X12214285Y-40727200D02*
X12357142Y-40774819D01*
X12357142Y-40774819D02*
X12452380Y-40774819D01*
X12452380Y-40774819D02*
X12595237Y-40727200D01*
X12595237Y-40727200D02*
X12690475Y-40631961D01*
X12690475Y-40631961D02*
X12738094Y-40536723D01*
X12738094Y-40536723D02*
X12785713Y-40346247D01*
X12785713Y-40346247D02*
X12785713Y-40203390D01*
X12785713Y-40203390D02*
X12738094Y-40012914D01*
X12738094Y-40012914D02*
X12690475Y-39917676D01*
X12690475Y-39917676D02*
X12595237Y-39822438D01*
X12595237Y-39822438D02*
X12452380Y-39774819D01*
X12452380Y-39774819D02*
X12357142Y-39774819D01*
X12357142Y-39774819D02*
X12214285Y-39822438D01*
X12214285Y-39822438D02*
X12166666Y-39870057D01*
X11309523Y-40108152D02*
X11309523Y-40774819D01*
X11547618Y-39727200D02*
X11785713Y-40441485D01*
X11785713Y-40441485D02*
X11166666Y-40441485D01*
X14761904Y-10054819D02*
X14761904Y-10864342D01*
X14761904Y-10864342D02*
X14714285Y-10959580D01*
X14714285Y-10959580D02*
X14666666Y-11007200D01*
X14666666Y-11007200D02*
X14571428Y-11054819D01*
X14571428Y-11054819D02*
X14380952Y-11054819D01*
X14380952Y-11054819D02*
X14285714Y-11007200D01*
X14285714Y-11007200D02*
X14238095Y-10959580D01*
X14238095Y-10959580D02*
X14190476Y-10864342D01*
X14190476Y-10864342D02*
X14190476Y-10054819D01*
X13761904Y-10150057D02*
X13714285Y-10102438D01*
X13714285Y-10102438D02*
X13619047Y-10054819D01*
X13619047Y-10054819D02*
X13380952Y-10054819D01*
X13380952Y-10054819D02*
X13285714Y-10102438D01*
X13285714Y-10102438D02*
X13238095Y-10150057D01*
X13238095Y-10150057D02*
X13190476Y-10245295D01*
X13190476Y-10245295D02*
X13190476Y-10340533D01*
X13190476Y-10340533D02*
X13238095Y-10483390D01*
X13238095Y-10483390D02*
X13809523Y-11054819D01*
X13809523Y-11054819D02*
X13190476Y-11054819D01*
X11166666Y-45024819D02*
X11499999Y-44548628D01*
X11738094Y-45024819D02*
X11738094Y-44024819D01*
X11738094Y-44024819D02*
X11357142Y-44024819D01*
X11357142Y-44024819D02*
X11261904Y-44072438D01*
X11261904Y-44072438D02*
X11214285Y-44120057D01*
X11214285Y-44120057D02*
X11166666Y-44215295D01*
X11166666Y-44215295D02*
X11166666Y-44358152D01*
X11166666Y-44358152D02*
X11214285Y-44453390D01*
X11214285Y-44453390D02*
X11261904Y-44501009D01*
X11261904Y-44501009D02*
X11357142Y-44548628D01*
X11357142Y-44548628D02*
X11738094Y-44548628D01*
X10833332Y-44024819D02*
X10214285Y-44024819D01*
X10214285Y-44024819D02*
X10547618Y-44405771D01*
X10547618Y-44405771D02*
X10404761Y-44405771D01*
X10404761Y-44405771D02*
X10309523Y-44453390D01*
X10309523Y-44453390D02*
X10261904Y-44501009D01*
X10261904Y-44501009D02*
X10214285Y-44596247D01*
X10214285Y-44596247D02*
X10214285Y-44834342D01*
X10214285Y-44834342D02*
X10261904Y-44929580D01*
X10261904Y-44929580D02*
X10309523Y-44977200D01*
X10309523Y-44977200D02*
X10404761Y-45024819D01*
X10404761Y-45024819D02*
X10690475Y-45024819D01*
X10690475Y-45024819D02*
X10785713Y-44977200D01*
X10785713Y-44977200D02*
X10833332Y-44929580D01*
X32166666Y-24679580D02*
X32214285Y-24727200D01*
X32214285Y-24727200D02*
X32357142Y-24774819D01*
X32357142Y-24774819D02*
X32452380Y-24774819D01*
X32452380Y-24774819D02*
X32595237Y-24727200D01*
X32595237Y-24727200D02*
X32690475Y-24631961D01*
X32690475Y-24631961D02*
X32738094Y-24536723D01*
X32738094Y-24536723D02*
X32785713Y-24346247D01*
X32785713Y-24346247D02*
X32785713Y-24203390D01*
X32785713Y-24203390D02*
X32738094Y-24012914D01*
X32738094Y-24012914D02*
X32690475Y-23917676D01*
X32690475Y-23917676D02*
X32595237Y-23822438D01*
X32595237Y-23822438D02*
X32452380Y-23774819D01*
X32452380Y-23774819D02*
X32357142Y-23774819D01*
X32357142Y-23774819D02*
X32214285Y-23822438D01*
X32214285Y-23822438D02*
X32166666Y-23870057D01*
X31785713Y-23870057D02*
X31738094Y-23822438D01*
X31738094Y-23822438D02*
X31642856Y-23774819D01*
X31642856Y-23774819D02*
X31404761Y-23774819D01*
X31404761Y-23774819D02*
X31309523Y-23822438D01*
X31309523Y-23822438D02*
X31261904Y-23870057D01*
X31261904Y-23870057D02*
X31214285Y-23965295D01*
X31214285Y-23965295D02*
X31214285Y-24060533D01*
X31214285Y-24060533D02*
X31261904Y-24203390D01*
X31261904Y-24203390D02*
X31833332Y-24774819D01*
X31833332Y-24774819D02*
X31214285Y-24774819D01*
X35166666Y-31929580D02*
X35214285Y-31977200D01*
X35214285Y-31977200D02*
X35357142Y-32024819D01*
X35357142Y-32024819D02*
X35452380Y-32024819D01*
X35452380Y-32024819D02*
X35595237Y-31977200D01*
X35595237Y-31977200D02*
X35690475Y-31881961D01*
X35690475Y-31881961D02*
X35738094Y-31786723D01*
X35738094Y-31786723D02*
X35785713Y-31596247D01*
X35785713Y-31596247D02*
X35785713Y-31453390D01*
X35785713Y-31453390D02*
X35738094Y-31262914D01*
X35738094Y-31262914D02*
X35690475Y-31167676D01*
X35690475Y-31167676D02*
X35595237Y-31072438D01*
X35595237Y-31072438D02*
X35452380Y-31024819D01*
X35452380Y-31024819D02*
X35357142Y-31024819D01*
X35357142Y-31024819D02*
X35214285Y-31072438D01*
X35214285Y-31072438D02*
X35166666Y-31120057D01*
X34833332Y-31024819D02*
X34214285Y-31024819D01*
X34214285Y-31024819D02*
X34547618Y-31405771D01*
X34547618Y-31405771D02*
X34404761Y-31405771D01*
X34404761Y-31405771D02*
X34309523Y-31453390D01*
X34309523Y-31453390D02*
X34261904Y-31501009D01*
X34261904Y-31501009D02*
X34214285Y-31596247D01*
X34214285Y-31596247D02*
X34214285Y-31834342D01*
X34214285Y-31834342D02*
X34261904Y-31929580D01*
X34261904Y-31929580D02*
X34309523Y-31977200D01*
X34309523Y-31977200D02*
X34404761Y-32024819D01*
X34404761Y-32024819D02*
X34690475Y-32024819D01*
X34690475Y-32024819D02*
X34785713Y-31977200D01*
X34785713Y-31977200D02*
X34833332Y-31929580D01*
X29547619Y-2524819D02*
X29880952Y-2048628D01*
X30119047Y-2524819D02*
X30119047Y-1524819D01*
X30119047Y-1524819D02*
X29738095Y-1524819D01*
X29738095Y-1524819D02*
X29642857Y-1572438D01*
X29642857Y-1572438D02*
X29595238Y-1620057D01*
X29595238Y-1620057D02*
X29547619Y-1715295D01*
X29547619Y-1715295D02*
X29547619Y-1858152D01*
X29547619Y-1858152D02*
X29595238Y-1953390D01*
X29595238Y-1953390D02*
X29642857Y-2001009D01*
X29642857Y-2001009D02*
X29738095Y-2048628D01*
X29738095Y-2048628D02*
X30119047Y-2048628D01*
X29357143Y-2620057D02*
X28595238Y-2620057D01*
X27785714Y-2429580D02*
X27833333Y-2477200D01*
X27833333Y-2477200D02*
X27976190Y-2524819D01*
X27976190Y-2524819D02*
X28071428Y-2524819D01*
X28071428Y-2524819D02*
X28214285Y-2477200D01*
X28214285Y-2477200D02*
X28309523Y-2381961D01*
X28309523Y-2381961D02*
X28357142Y-2286723D01*
X28357142Y-2286723D02*
X28404761Y-2096247D01*
X28404761Y-2096247D02*
X28404761Y-1953390D01*
X28404761Y-1953390D02*
X28357142Y-1762914D01*
X28357142Y-1762914D02*
X28309523Y-1667676D01*
X28309523Y-1667676D02*
X28214285Y-1572438D01*
X28214285Y-1572438D02*
X28071428Y-1524819D01*
X28071428Y-1524819D02*
X27976190Y-1524819D01*
X27976190Y-1524819D02*
X27833333Y-1572438D01*
X27833333Y-1572438D02*
X27785714Y-1620057D01*
X26785714Y-2429580D02*
X26833333Y-2477200D01*
X26833333Y-2477200D02*
X26976190Y-2524819D01*
X26976190Y-2524819D02*
X27071428Y-2524819D01*
X27071428Y-2524819D02*
X27214285Y-2477200D01*
X27214285Y-2477200D02*
X27309523Y-2381961D01*
X27309523Y-2381961D02*
X27357142Y-2286723D01*
X27357142Y-2286723D02*
X27404761Y-2096247D01*
X27404761Y-2096247D02*
X27404761Y-1953390D01*
X27404761Y-1953390D02*
X27357142Y-1762914D01*
X27357142Y-1762914D02*
X27309523Y-1667676D01*
X27309523Y-1667676D02*
X27214285Y-1572438D01*
X27214285Y-1572438D02*
X27071428Y-1524819D01*
X27071428Y-1524819D02*
X26976190Y-1524819D01*
X26976190Y-1524819D02*
X26833333Y-1572438D01*
X26833333Y-1572438D02*
X26785714Y-1620057D01*
X25833333Y-2524819D02*
X26404761Y-2524819D01*
X26119047Y-2524819D02*
X26119047Y-1524819D01*
X26119047Y-1524819D02*
X26214285Y-1667676D01*
X26214285Y-1667676D02*
X26309523Y-1762914D01*
X26309523Y-1762914D02*
X26404761Y-1810533D01*
X11166666Y-49024819D02*
X11499999Y-48548628D01*
X11738094Y-49024819D02*
X11738094Y-48024819D01*
X11738094Y-48024819D02*
X11357142Y-48024819D01*
X11357142Y-48024819D02*
X11261904Y-48072438D01*
X11261904Y-48072438D02*
X11214285Y-48120057D01*
X11214285Y-48120057D02*
X11166666Y-48215295D01*
X11166666Y-48215295D02*
X11166666Y-48358152D01*
X11166666Y-48358152D02*
X11214285Y-48453390D01*
X11214285Y-48453390D02*
X11261904Y-48501009D01*
X11261904Y-48501009D02*
X11357142Y-48548628D01*
X11357142Y-48548628D02*
X11738094Y-48548628D01*
X10309523Y-48358152D02*
X10309523Y-49024819D01*
X10547618Y-47977200D02*
X10785713Y-48691485D01*
X10785713Y-48691485D02*
X10166666Y-48691485D01*
X6166666Y-34904819D02*
X6642856Y-34904819D01*
X6642856Y-34904819D02*
X6642856Y-33904819D01*
X5309523Y-34904819D02*
X5880951Y-34904819D01*
X5595237Y-34904819D02*
X5595237Y-33904819D01*
X5595237Y-33904819D02*
X5690475Y-34047676D01*
X5690475Y-34047676D02*
X5785713Y-34142914D01*
X5785713Y-34142914D02*
X5880951Y-34190533D01*
X32166666Y-21929580D02*
X32214285Y-21977200D01*
X32214285Y-21977200D02*
X32357142Y-22024819D01*
X32357142Y-22024819D02*
X32452380Y-22024819D01*
X32452380Y-22024819D02*
X32595237Y-21977200D01*
X32595237Y-21977200D02*
X32690475Y-21881961D01*
X32690475Y-21881961D02*
X32738094Y-21786723D01*
X32738094Y-21786723D02*
X32785713Y-21596247D01*
X32785713Y-21596247D02*
X32785713Y-21453390D01*
X32785713Y-21453390D02*
X32738094Y-21262914D01*
X32738094Y-21262914D02*
X32690475Y-21167676D01*
X32690475Y-21167676D02*
X32595237Y-21072438D01*
X32595237Y-21072438D02*
X32452380Y-21024819D01*
X32452380Y-21024819D02*
X32357142Y-21024819D01*
X32357142Y-21024819D02*
X32214285Y-21072438D01*
X32214285Y-21072438D02*
X32166666Y-21120057D01*
X31214285Y-22024819D02*
X31785713Y-22024819D01*
X31499999Y-22024819D02*
X31499999Y-21024819D01*
X31499999Y-21024819D02*
X31595237Y-21167676D01*
X31595237Y-21167676D02*
X31690475Y-21262914D01*
X31690475Y-21262914D02*
X31785713Y-21310533D01*
X7333333Y-10281009D02*
X7666666Y-10281009D01*
X7666666Y-10804819D02*
X7666666Y-9804819D01*
X7666666Y-9804819D02*
X7190476Y-9804819D01*
X6285714Y-10804819D02*
X6857142Y-10804819D01*
X6571428Y-10804819D02*
X6571428Y-9804819D01*
X6571428Y-9804819D02*
X6666666Y-9947676D01*
X6666666Y-9947676D02*
X6761904Y-10042914D01*
X6761904Y-10042914D02*
X6857142Y-10090533D01*
X46642857Y-49024819D02*
X46976190Y-48548628D01*
X47214285Y-49024819D02*
X47214285Y-48024819D01*
X47214285Y-48024819D02*
X46833333Y-48024819D01*
X46833333Y-48024819D02*
X46738095Y-48072438D01*
X46738095Y-48072438D02*
X46690476Y-48120057D01*
X46690476Y-48120057D02*
X46642857Y-48215295D01*
X46642857Y-48215295D02*
X46642857Y-48358152D01*
X46642857Y-48358152D02*
X46690476Y-48453390D01*
X46690476Y-48453390D02*
X46738095Y-48501009D01*
X46738095Y-48501009D02*
X46833333Y-48548628D01*
X46833333Y-48548628D02*
X47214285Y-48548628D01*
X45690476Y-49024819D02*
X46261904Y-49024819D01*
X45976190Y-49024819D02*
X45976190Y-48024819D01*
X45976190Y-48024819D02*
X46071428Y-48167676D01*
X46071428Y-48167676D02*
X46166666Y-48262914D01*
X46166666Y-48262914D02*
X46261904Y-48310533D01*
X45071428Y-48024819D02*
X44976190Y-48024819D01*
X44976190Y-48024819D02*
X44880952Y-48072438D01*
X44880952Y-48072438D02*
X44833333Y-48120057D01*
X44833333Y-48120057D02*
X44785714Y-48215295D01*
X44785714Y-48215295D02*
X44738095Y-48405771D01*
X44738095Y-48405771D02*
X44738095Y-48643866D01*
X44738095Y-48643866D02*
X44785714Y-48834342D01*
X44785714Y-48834342D02*
X44833333Y-48929580D01*
X44833333Y-48929580D02*
X44880952Y-48977200D01*
X44880952Y-48977200D02*
X44976190Y-49024819D01*
X44976190Y-49024819D02*
X45071428Y-49024819D01*
X45071428Y-49024819D02*
X45166666Y-48977200D01*
X45166666Y-48977200D02*
X45214285Y-48929580D01*
X45214285Y-48929580D02*
X45261904Y-48834342D01*
X45261904Y-48834342D02*
X45309523Y-48643866D01*
X45309523Y-48643866D02*
X45309523Y-48405771D01*
X45309523Y-48405771D02*
X45261904Y-48215295D01*
X45261904Y-48215295D02*
X45214285Y-48120057D01*
X45214285Y-48120057D02*
X45166666Y-48072438D01*
X45166666Y-48072438D02*
X45071428Y-48024819D01*
X11023809Y-21024819D02*
X11499999Y-21024819D01*
X11499999Y-21024819D02*
X11499999Y-20024819D01*
X10690475Y-20501009D02*
X10357142Y-20501009D01*
X10214285Y-21024819D02*
X10690475Y-21024819D01*
X10690475Y-21024819D02*
X10690475Y-20024819D01*
X10690475Y-20024819D02*
X10214285Y-20024819D01*
X9785713Y-21024819D02*
X9785713Y-20024819D01*
X9785713Y-20024819D02*
X9547618Y-20024819D01*
X9547618Y-20024819D02*
X9404761Y-20072438D01*
X9404761Y-20072438D02*
X9309523Y-20167676D01*
X9309523Y-20167676D02*
X9261904Y-20262914D01*
X9261904Y-20262914D02*
X9214285Y-20453390D01*
X9214285Y-20453390D02*
X9214285Y-20596247D01*
X9214285Y-20596247D02*
X9261904Y-20786723D01*
X9261904Y-20786723D02*
X9309523Y-20881961D01*
X9309523Y-20881961D02*
X9404761Y-20977200D01*
X9404761Y-20977200D02*
X9547618Y-21024819D01*
X9547618Y-21024819D02*
X9785713Y-21024819D01*
X9023809Y-21120057D02*
X8261904Y-21120057D01*
X7452380Y-20929580D02*
X7499999Y-20977200D01*
X7499999Y-20977200D02*
X7642856Y-21024819D01*
X7642856Y-21024819D02*
X7738094Y-21024819D01*
X7738094Y-21024819D02*
X7880951Y-20977200D01*
X7880951Y-20977200D02*
X7976189Y-20881961D01*
X7976189Y-20881961D02*
X8023808Y-20786723D01*
X8023808Y-20786723D02*
X8071427Y-20596247D01*
X8071427Y-20596247D02*
X8071427Y-20453390D01*
X8071427Y-20453390D02*
X8023808Y-20262914D01*
X8023808Y-20262914D02*
X7976189Y-20167676D01*
X7976189Y-20167676D02*
X7880951Y-20072438D01*
X7880951Y-20072438D02*
X7738094Y-20024819D01*
X7738094Y-20024819D02*
X7642856Y-20024819D01*
X7642856Y-20024819D02*
X7499999Y-20072438D01*
X7499999Y-20072438D02*
X7452380Y-20120057D01*
X7023808Y-21024819D02*
X7023808Y-20024819D01*
X7023808Y-20501009D02*
X6452380Y-20501009D01*
X6452380Y-21024819D02*
X6452380Y-20024819D01*
X5452380Y-20072438D02*
X5547618Y-20024819D01*
X5547618Y-20024819D02*
X5690475Y-20024819D01*
X5690475Y-20024819D02*
X5833332Y-20072438D01*
X5833332Y-20072438D02*
X5928570Y-20167676D01*
X5928570Y-20167676D02*
X5976189Y-20262914D01*
X5976189Y-20262914D02*
X6023808Y-20453390D01*
X6023808Y-20453390D02*
X6023808Y-20596247D01*
X6023808Y-20596247D02*
X5976189Y-20786723D01*
X5976189Y-20786723D02*
X5928570Y-20881961D01*
X5928570Y-20881961D02*
X5833332Y-20977200D01*
X5833332Y-20977200D02*
X5690475Y-21024819D01*
X5690475Y-21024819D02*
X5595237Y-21024819D01*
X5595237Y-21024819D02*
X5452380Y-20977200D01*
X5452380Y-20977200D02*
X5404761Y-20929580D01*
X5404761Y-20929580D02*
X5404761Y-20596247D01*
X5404761Y-20596247D02*
X5595237Y-20596247D01*
X4452380Y-21024819D02*
X5023808Y-21024819D01*
X4738094Y-21024819D02*
X4738094Y-20024819D01*
X4738094Y-20024819D02*
X4833332Y-20167676D01*
X4833332Y-20167676D02*
X4928570Y-20262914D01*
X4928570Y-20262914D02*
X5023808Y-20310533D01*
X17761904Y-28554819D02*
X17761904Y-29364342D01*
X17761904Y-29364342D02*
X17714285Y-29459580D01*
X17714285Y-29459580D02*
X17666666Y-29507200D01*
X17666666Y-29507200D02*
X17571428Y-29554819D01*
X17571428Y-29554819D02*
X17380952Y-29554819D01*
X17380952Y-29554819D02*
X17285714Y-29507200D01*
X17285714Y-29507200D02*
X17238095Y-29459580D01*
X17238095Y-29459580D02*
X17190476Y-29364342D01*
X17190476Y-29364342D02*
X17190476Y-28554819D01*
X16571428Y-28983390D02*
X16666666Y-28935771D01*
X16666666Y-28935771D02*
X16714285Y-28888152D01*
X16714285Y-28888152D02*
X16761904Y-28792914D01*
X16761904Y-28792914D02*
X16761904Y-28745295D01*
X16761904Y-28745295D02*
X16714285Y-28650057D01*
X16714285Y-28650057D02*
X16666666Y-28602438D01*
X16666666Y-28602438D02*
X16571428Y-28554819D01*
X16571428Y-28554819D02*
X16380952Y-28554819D01*
X16380952Y-28554819D02*
X16285714Y-28602438D01*
X16285714Y-28602438D02*
X16238095Y-28650057D01*
X16238095Y-28650057D02*
X16190476Y-28745295D01*
X16190476Y-28745295D02*
X16190476Y-28792914D01*
X16190476Y-28792914D02*
X16238095Y-28888152D01*
X16238095Y-28888152D02*
X16285714Y-28935771D01*
X16285714Y-28935771D02*
X16380952Y-28983390D01*
X16380952Y-28983390D02*
X16571428Y-28983390D01*
X16571428Y-28983390D02*
X16666666Y-29031009D01*
X16666666Y-29031009D02*
X16714285Y-29078628D01*
X16714285Y-29078628D02*
X16761904Y-29173866D01*
X16761904Y-29173866D02*
X16761904Y-29364342D01*
X16761904Y-29364342D02*
X16714285Y-29459580D01*
X16714285Y-29459580D02*
X16666666Y-29507200D01*
X16666666Y-29507200D02*
X16571428Y-29554819D01*
X16571428Y-29554819D02*
X16380952Y-29554819D01*
X16380952Y-29554819D02*
X16285714Y-29507200D01*
X16285714Y-29507200D02*
X16238095Y-29459580D01*
X16238095Y-29459580D02*
X16190476Y-29364342D01*
X16190476Y-29364342D02*
X16190476Y-29173866D01*
X16190476Y-29173866D02*
X16238095Y-29078628D01*
X16238095Y-29078628D02*
X16285714Y-29031009D01*
X16285714Y-29031009D02*
X16380952Y-28983390D01*
X55004819Y-28416666D02*
X55719104Y-28416666D01*
X55719104Y-28416666D02*
X55861961Y-28369047D01*
X55861961Y-28369047D02*
X55957200Y-28273809D01*
X55957200Y-28273809D02*
X56004819Y-28130952D01*
X56004819Y-28130952D02*
X56004819Y-28035714D01*
X56004819Y-29416666D02*
X56004819Y-28845238D01*
X56004819Y-29130952D02*
X55004819Y-29130952D01*
X55004819Y-29130952D02*
X55147676Y-29035714D01*
X55147676Y-29035714D02*
X55242914Y-28940476D01*
X55242914Y-28940476D02*
X55290533Y-28845238D01*
X55004819Y-14416666D02*
X55719104Y-14416666D01*
X55719104Y-14416666D02*
X55861961Y-14369047D01*
X55861961Y-14369047D02*
X55957200Y-14273809D01*
X55957200Y-14273809D02*
X56004819Y-14130952D01*
X56004819Y-14130952D02*
X56004819Y-14035714D01*
X55100057Y-14845238D02*
X55052438Y-14892857D01*
X55052438Y-14892857D02*
X55004819Y-14988095D01*
X55004819Y-14988095D02*
X55004819Y-15226190D01*
X55004819Y-15226190D02*
X55052438Y-15321428D01*
X55052438Y-15321428D02*
X55100057Y-15369047D01*
X55100057Y-15369047D02*
X55195295Y-15416666D01*
X55195295Y-15416666D02*
X55290533Y-15416666D01*
X55290533Y-15416666D02*
X55433390Y-15369047D01*
X55433390Y-15369047D02*
X56004819Y-14797619D01*
X56004819Y-14797619D02*
X56004819Y-15416666D01*
X28761904Y-2214819D02*
X28761904Y-3024342D01*
X28761904Y-3024342D02*
X28714285Y-3119580D01*
X28714285Y-3119580D02*
X28666666Y-3167200D01*
X28666666Y-3167200D02*
X28571428Y-3214819D01*
X28571428Y-3214819D02*
X28380952Y-3214819D01*
X28380952Y-3214819D02*
X28285714Y-3167200D01*
X28285714Y-3167200D02*
X28238095Y-3119580D01*
X28238095Y-3119580D02*
X28190476Y-3024342D01*
X28190476Y-3024342D02*
X28190476Y-2214819D01*
X27190476Y-3214819D02*
X27761904Y-3214819D01*
X27476190Y-3214819D02*
X27476190Y-2214819D01*
X27476190Y-2214819D02*
X27571428Y-2357676D01*
X27571428Y-2357676D02*
X27666666Y-2452914D01*
X27666666Y-2452914D02*
X27761904Y-2500533D01*
X10761904Y-24554819D02*
X10761904Y-25364342D01*
X10761904Y-25364342D02*
X10714285Y-25459580D01*
X10714285Y-25459580D02*
X10666666Y-25507200D01*
X10666666Y-25507200D02*
X10571428Y-25554819D01*
X10571428Y-25554819D02*
X10380952Y-25554819D01*
X10380952Y-25554819D02*
X10285714Y-25507200D01*
X10285714Y-25507200D02*
X10238095Y-25459580D01*
X10238095Y-25459580D02*
X10190476Y-25364342D01*
X10190476Y-25364342D02*
X10190476Y-24554819D01*
X9809523Y-24554819D02*
X9190476Y-24554819D01*
X9190476Y-24554819D02*
X9523809Y-24935771D01*
X9523809Y-24935771D02*
X9380952Y-24935771D01*
X9380952Y-24935771D02*
X9285714Y-24983390D01*
X9285714Y-24983390D02*
X9238095Y-25031009D01*
X9238095Y-25031009D02*
X9190476Y-25126247D01*
X9190476Y-25126247D02*
X9190476Y-25364342D01*
X9190476Y-25364342D02*
X9238095Y-25459580D01*
X9238095Y-25459580D02*
X9285714Y-25507200D01*
X9285714Y-25507200D02*
X9380952Y-25554819D01*
X9380952Y-25554819D02*
X9666666Y-25554819D01*
X9666666Y-25554819D02*
X9761904Y-25507200D01*
X9761904Y-25507200D02*
X9809523Y-25459580D01*
X53333333Y-34074819D02*
X53333333Y-34789104D01*
X53333333Y-34789104D02*
X53380952Y-34931961D01*
X53380952Y-34931961D02*
X53476190Y-35027200D01*
X53476190Y-35027200D02*
X53619047Y-35074819D01*
X53619047Y-35074819D02*
X53714285Y-35074819D01*
X52428571Y-34408152D02*
X52428571Y-35074819D01*
X52666666Y-34027200D02*
X52904761Y-34741485D01*
X52904761Y-34741485D02*
X52285714Y-34741485D01*
X20642857Y-37024819D02*
X20976190Y-36548628D01*
X21214285Y-37024819D02*
X21214285Y-36024819D01*
X21214285Y-36024819D02*
X20833333Y-36024819D01*
X20833333Y-36024819D02*
X20738095Y-36072438D01*
X20738095Y-36072438D02*
X20690476Y-36120057D01*
X20690476Y-36120057D02*
X20642857Y-36215295D01*
X20642857Y-36215295D02*
X20642857Y-36358152D01*
X20642857Y-36358152D02*
X20690476Y-36453390D01*
X20690476Y-36453390D02*
X20738095Y-36501009D01*
X20738095Y-36501009D02*
X20833333Y-36548628D01*
X20833333Y-36548628D02*
X21214285Y-36548628D01*
X19690476Y-37024819D02*
X20261904Y-37024819D01*
X19976190Y-37024819D02*
X19976190Y-36024819D01*
X19976190Y-36024819D02*
X20071428Y-36167676D01*
X20071428Y-36167676D02*
X20166666Y-36262914D01*
X20166666Y-36262914D02*
X20261904Y-36310533D01*
X19309523Y-36120057D02*
X19261904Y-36072438D01*
X19261904Y-36072438D02*
X19166666Y-36024819D01*
X19166666Y-36024819D02*
X18928571Y-36024819D01*
X18928571Y-36024819D02*
X18833333Y-36072438D01*
X18833333Y-36072438D02*
X18785714Y-36120057D01*
X18785714Y-36120057D02*
X18738095Y-36215295D01*
X18738095Y-36215295D02*
X18738095Y-36310533D01*
X18738095Y-36310533D02*
X18785714Y-36453390D01*
X18785714Y-36453390D02*
X19357142Y-37024819D01*
X19357142Y-37024819D02*
X18738095Y-37024819D01*
X41761904Y-41054819D02*
X41761904Y-41864342D01*
X41761904Y-41864342D02*
X41714285Y-41959580D01*
X41714285Y-41959580D02*
X41666666Y-42007200D01*
X41666666Y-42007200D02*
X41571428Y-42054819D01*
X41571428Y-42054819D02*
X41380952Y-42054819D01*
X41380952Y-42054819D02*
X41285714Y-42007200D01*
X41285714Y-42007200D02*
X41238095Y-41959580D01*
X41238095Y-41959580D02*
X41190476Y-41864342D01*
X41190476Y-41864342D02*
X41190476Y-41054819D01*
X40285714Y-41054819D02*
X40476190Y-41054819D01*
X40476190Y-41054819D02*
X40571428Y-41102438D01*
X40571428Y-41102438D02*
X40619047Y-41150057D01*
X40619047Y-41150057D02*
X40714285Y-41292914D01*
X40714285Y-41292914D02*
X40761904Y-41483390D01*
X40761904Y-41483390D02*
X40761904Y-41864342D01*
X40761904Y-41864342D02*
X40714285Y-41959580D01*
X40714285Y-41959580D02*
X40666666Y-42007200D01*
X40666666Y-42007200D02*
X40571428Y-42054819D01*
X40571428Y-42054819D02*
X40380952Y-42054819D01*
X40380952Y-42054819D02*
X40285714Y-42007200D01*
X40285714Y-42007200D02*
X40238095Y-41959580D01*
X40238095Y-41959580D02*
X40190476Y-41864342D01*
X40190476Y-41864342D02*
X40190476Y-41626247D01*
X40190476Y-41626247D02*
X40238095Y-41531009D01*
X40238095Y-41531009D02*
X40285714Y-41483390D01*
X40285714Y-41483390D02*
X40380952Y-41435771D01*
X40380952Y-41435771D02*
X40571428Y-41435771D01*
X40571428Y-41435771D02*
X40666666Y-41483390D01*
X40666666Y-41483390D02*
X40714285Y-41531009D01*
X40714285Y-41531009D02*
X40761904Y-41626247D01*
X39166666Y-39929580D02*
X39214285Y-39977200D01*
X39214285Y-39977200D02*
X39357142Y-40024819D01*
X39357142Y-40024819D02*
X39452380Y-40024819D01*
X39452380Y-40024819D02*
X39595237Y-39977200D01*
X39595237Y-39977200D02*
X39690475Y-39881961D01*
X39690475Y-39881961D02*
X39738094Y-39786723D01*
X39738094Y-39786723D02*
X39785713Y-39596247D01*
X39785713Y-39596247D02*
X39785713Y-39453390D01*
X39785713Y-39453390D02*
X39738094Y-39262914D01*
X39738094Y-39262914D02*
X39690475Y-39167676D01*
X39690475Y-39167676D02*
X39595237Y-39072438D01*
X39595237Y-39072438D02*
X39452380Y-39024819D01*
X39452380Y-39024819D02*
X39357142Y-39024819D01*
X39357142Y-39024819D02*
X39214285Y-39072438D01*
X39214285Y-39072438D02*
X39166666Y-39120057D01*
X38309523Y-39024819D02*
X38499999Y-39024819D01*
X38499999Y-39024819D02*
X38595237Y-39072438D01*
X38595237Y-39072438D02*
X38642856Y-39120057D01*
X38642856Y-39120057D02*
X38738094Y-39262914D01*
X38738094Y-39262914D02*
X38785713Y-39453390D01*
X38785713Y-39453390D02*
X38785713Y-39834342D01*
X38785713Y-39834342D02*
X38738094Y-39929580D01*
X38738094Y-39929580D02*
X38690475Y-39977200D01*
X38690475Y-39977200D02*
X38595237Y-40024819D01*
X38595237Y-40024819D02*
X38404761Y-40024819D01*
X38404761Y-40024819D02*
X38309523Y-39977200D01*
X38309523Y-39977200D02*
X38261904Y-39929580D01*
X38261904Y-39929580D02*
X38214285Y-39834342D01*
X38214285Y-39834342D02*
X38214285Y-39596247D01*
X38214285Y-39596247D02*
X38261904Y-39501009D01*
X38261904Y-39501009D02*
X38309523Y-39453390D01*
X38309523Y-39453390D02*
X38404761Y-39405771D01*
X38404761Y-39405771D02*
X38595237Y-39405771D01*
X38595237Y-39405771D02*
X38690475Y-39453390D01*
X38690475Y-39453390D02*
X38738094Y-39501009D01*
X38738094Y-39501009D02*
X38785713Y-39596247D01*
X8261904Y-16354819D02*
X8261904Y-15354819D01*
X7690476Y-16354819D02*
X8119047Y-15783390D01*
X7690476Y-15354819D02*
X8261904Y-15926247D01*
X17523809Y-21024819D02*
X17857142Y-20548628D01*
X18095237Y-21024819D02*
X18095237Y-20024819D01*
X18095237Y-20024819D02*
X17714285Y-20024819D01*
X17714285Y-20024819D02*
X17619047Y-20072438D01*
X17619047Y-20072438D02*
X17571428Y-20120057D01*
X17571428Y-20120057D02*
X17523809Y-20215295D01*
X17523809Y-20215295D02*
X17523809Y-20358152D01*
X17523809Y-20358152D02*
X17571428Y-20453390D01*
X17571428Y-20453390D02*
X17619047Y-20501009D01*
X17619047Y-20501009D02*
X17714285Y-20548628D01*
X17714285Y-20548628D02*
X18095237Y-20548628D01*
X17142856Y-20120057D02*
X17095237Y-20072438D01*
X17095237Y-20072438D02*
X16999999Y-20024819D01*
X16999999Y-20024819D02*
X16761904Y-20024819D01*
X16761904Y-20024819D02*
X16666666Y-20072438D01*
X16666666Y-20072438D02*
X16619047Y-20120057D01*
X16619047Y-20120057D02*
X16571428Y-20215295D01*
X16571428Y-20215295D02*
X16571428Y-20310533D01*
X16571428Y-20310533D02*
X16619047Y-20453390D01*
X16619047Y-20453390D02*
X17190475Y-21024819D01*
X17190475Y-21024819D02*
X16571428Y-21024819D01*
X16380952Y-21120057D02*
X15619047Y-21120057D01*
X14809523Y-20929580D02*
X14857142Y-20977200D01*
X14857142Y-20977200D02*
X14999999Y-21024819D01*
X14999999Y-21024819D02*
X15095237Y-21024819D01*
X15095237Y-21024819D02*
X15238094Y-20977200D01*
X15238094Y-20977200D02*
X15333332Y-20881961D01*
X15333332Y-20881961D02*
X15380951Y-20786723D01*
X15380951Y-20786723D02*
X15428570Y-20596247D01*
X15428570Y-20596247D02*
X15428570Y-20453390D01*
X15428570Y-20453390D02*
X15380951Y-20262914D01*
X15380951Y-20262914D02*
X15333332Y-20167676D01*
X15333332Y-20167676D02*
X15238094Y-20072438D01*
X15238094Y-20072438D02*
X15095237Y-20024819D01*
X15095237Y-20024819D02*
X14999999Y-20024819D01*
X14999999Y-20024819D02*
X14857142Y-20072438D01*
X14857142Y-20072438D02*
X14809523Y-20120057D01*
X13857142Y-21024819D02*
X14428570Y-21024819D01*
X14142856Y-21024819D02*
X14142856Y-20024819D01*
X14142856Y-20024819D02*
X14238094Y-20167676D01*
X14238094Y-20167676D02*
X14333332Y-20262914D01*
X14333332Y-20262914D02*
X14428570Y-20310533D01*
X20166666Y-40679580D02*
X20214285Y-40727200D01*
X20214285Y-40727200D02*
X20357142Y-40774819D01*
X20357142Y-40774819D02*
X20452380Y-40774819D01*
X20452380Y-40774819D02*
X20595237Y-40727200D01*
X20595237Y-40727200D02*
X20690475Y-40631961D01*
X20690475Y-40631961D02*
X20738094Y-40536723D01*
X20738094Y-40536723D02*
X20785713Y-40346247D01*
X20785713Y-40346247D02*
X20785713Y-40203390D01*
X20785713Y-40203390D02*
X20738094Y-40012914D01*
X20738094Y-40012914D02*
X20690475Y-39917676D01*
X20690475Y-39917676D02*
X20595237Y-39822438D01*
X20595237Y-39822438D02*
X20452380Y-39774819D01*
X20452380Y-39774819D02*
X20357142Y-39774819D01*
X20357142Y-39774819D02*
X20214285Y-39822438D01*
X20214285Y-39822438D02*
X20166666Y-39870057D01*
X19261904Y-39774819D02*
X19738094Y-39774819D01*
X19738094Y-39774819D02*
X19785713Y-40251009D01*
X19785713Y-40251009D02*
X19738094Y-40203390D01*
X19738094Y-40203390D02*
X19642856Y-40155771D01*
X19642856Y-40155771D02*
X19404761Y-40155771D01*
X19404761Y-40155771D02*
X19309523Y-40203390D01*
X19309523Y-40203390D02*
X19261904Y-40251009D01*
X19261904Y-40251009D02*
X19214285Y-40346247D01*
X19214285Y-40346247D02*
X19214285Y-40584342D01*
X19214285Y-40584342D02*
X19261904Y-40679580D01*
X19261904Y-40679580D02*
X19309523Y-40727200D01*
X19309523Y-40727200D02*
X19404761Y-40774819D01*
X19404761Y-40774819D02*
X19642856Y-40774819D01*
X19642856Y-40774819D02*
X19738094Y-40727200D01*
X19738094Y-40727200D02*
X19785713Y-40679580D01*
X35547619Y-2524819D02*
X35880952Y-2048628D01*
X36119047Y-2524819D02*
X36119047Y-1524819D01*
X36119047Y-1524819D02*
X35738095Y-1524819D01*
X35738095Y-1524819D02*
X35642857Y-1572438D01*
X35642857Y-1572438D02*
X35595238Y-1620057D01*
X35595238Y-1620057D02*
X35547619Y-1715295D01*
X35547619Y-1715295D02*
X35547619Y-1858152D01*
X35547619Y-1858152D02*
X35595238Y-1953390D01*
X35595238Y-1953390D02*
X35642857Y-2001009D01*
X35642857Y-2001009D02*
X35738095Y-2048628D01*
X35738095Y-2048628D02*
X36119047Y-2048628D01*
X35357143Y-2620057D02*
X34595238Y-2620057D01*
X33785714Y-2429580D02*
X33833333Y-2477200D01*
X33833333Y-2477200D02*
X33976190Y-2524819D01*
X33976190Y-2524819D02*
X34071428Y-2524819D01*
X34071428Y-2524819D02*
X34214285Y-2477200D01*
X34214285Y-2477200D02*
X34309523Y-2381961D01*
X34309523Y-2381961D02*
X34357142Y-2286723D01*
X34357142Y-2286723D02*
X34404761Y-2096247D01*
X34404761Y-2096247D02*
X34404761Y-1953390D01*
X34404761Y-1953390D02*
X34357142Y-1762914D01*
X34357142Y-1762914D02*
X34309523Y-1667676D01*
X34309523Y-1667676D02*
X34214285Y-1572438D01*
X34214285Y-1572438D02*
X34071428Y-1524819D01*
X34071428Y-1524819D02*
X33976190Y-1524819D01*
X33976190Y-1524819D02*
X33833333Y-1572438D01*
X33833333Y-1572438D02*
X33785714Y-1620057D01*
X32785714Y-2429580D02*
X32833333Y-2477200D01*
X32833333Y-2477200D02*
X32976190Y-2524819D01*
X32976190Y-2524819D02*
X33071428Y-2524819D01*
X33071428Y-2524819D02*
X33214285Y-2477200D01*
X33214285Y-2477200D02*
X33309523Y-2381961D01*
X33309523Y-2381961D02*
X33357142Y-2286723D01*
X33357142Y-2286723D02*
X33404761Y-2096247D01*
X33404761Y-2096247D02*
X33404761Y-1953390D01*
X33404761Y-1953390D02*
X33357142Y-1762914D01*
X33357142Y-1762914D02*
X33309523Y-1667676D01*
X33309523Y-1667676D02*
X33214285Y-1572438D01*
X33214285Y-1572438D02*
X33071428Y-1524819D01*
X33071428Y-1524819D02*
X32976190Y-1524819D01*
X32976190Y-1524819D02*
X32833333Y-1572438D01*
X32833333Y-1572438D02*
X32785714Y-1620057D01*
X32404761Y-1620057D02*
X32357142Y-1572438D01*
X32357142Y-1572438D02*
X32261904Y-1524819D01*
X32261904Y-1524819D02*
X32023809Y-1524819D01*
X32023809Y-1524819D02*
X31928571Y-1572438D01*
X31928571Y-1572438D02*
X31880952Y-1620057D01*
X31880952Y-1620057D02*
X31833333Y-1715295D01*
X31833333Y-1715295D02*
X31833333Y-1810533D01*
X31833333Y-1810533D02*
X31880952Y-1953390D01*
X31880952Y-1953390D02*
X32452380Y-2524819D01*
X32452380Y-2524819D02*
X31833333Y-2524819D01*
X13761904Y-32554819D02*
X13761904Y-33364342D01*
X13761904Y-33364342D02*
X13714285Y-33459580D01*
X13714285Y-33459580D02*
X13666666Y-33507200D01*
X13666666Y-33507200D02*
X13571428Y-33554819D01*
X13571428Y-33554819D02*
X13380952Y-33554819D01*
X13380952Y-33554819D02*
X13285714Y-33507200D01*
X13285714Y-33507200D02*
X13238095Y-33459580D01*
X13238095Y-33459580D02*
X13190476Y-33364342D01*
X13190476Y-33364342D02*
X13190476Y-32554819D01*
X12285714Y-32888152D02*
X12285714Y-33554819D01*
X12523809Y-32507200D02*
X12761904Y-33221485D01*
X12761904Y-33221485D02*
X12142857Y-33221485D01*
X36761904Y-34054819D02*
X36761904Y-34864342D01*
X36761904Y-34864342D02*
X36714285Y-34959580D01*
X36714285Y-34959580D02*
X36666666Y-35007200D01*
X36666666Y-35007200D02*
X36571428Y-35054819D01*
X36571428Y-35054819D02*
X36380952Y-35054819D01*
X36380952Y-35054819D02*
X36285714Y-35007200D01*
X36285714Y-35007200D02*
X36238095Y-34959580D01*
X36238095Y-34959580D02*
X36190476Y-34864342D01*
X36190476Y-34864342D02*
X36190476Y-34054819D01*
X35238095Y-34054819D02*
X35714285Y-34054819D01*
X35714285Y-34054819D02*
X35761904Y-34531009D01*
X35761904Y-34531009D02*
X35714285Y-34483390D01*
X35714285Y-34483390D02*
X35619047Y-34435771D01*
X35619047Y-34435771D02*
X35380952Y-34435771D01*
X35380952Y-34435771D02*
X35285714Y-34483390D01*
X35285714Y-34483390D02*
X35238095Y-34531009D01*
X35238095Y-34531009D02*
X35190476Y-34626247D01*
X35190476Y-34626247D02*
X35190476Y-34864342D01*
X35190476Y-34864342D02*
X35238095Y-34959580D01*
X35238095Y-34959580D02*
X35285714Y-35007200D01*
X35285714Y-35007200D02*
X35380952Y-35054819D01*
X35380952Y-35054819D02*
X35619047Y-35054819D01*
X35619047Y-35054819D02*
X35714285Y-35007200D01*
X35714285Y-35007200D02*
X35761904Y-34959580D01*
X20642857Y-33024819D02*
X20976190Y-32548628D01*
X21214285Y-33024819D02*
X21214285Y-32024819D01*
X21214285Y-32024819D02*
X20833333Y-32024819D01*
X20833333Y-32024819D02*
X20738095Y-32072438D01*
X20738095Y-32072438D02*
X20690476Y-32120057D01*
X20690476Y-32120057D02*
X20642857Y-32215295D01*
X20642857Y-32215295D02*
X20642857Y-32358152D01*
X20642857Y-32358152D02*
X20690476Y-32453390D01*
X20690476Y-32453390D02*
X20738095Y-32501009D01*
X20738095Y-32501009D02*
X20833333Y-32548628D01*
X20833333Y-32548628D02*
X21214285Y-32548628D01*
X19690476Y-33024819D02*
X20261904Y-33024819D01*
X19976190Y-33024819D02*
X19976190Y-32024819D01*
X19976190Y-32024819D02*
X20071428Y-32167676D01*
X20071428Y-32167676D02*
X20166666Y-32262914D01*
X20166666Y-32262914D02*
X20261904Y-32310533D01*
X18738095Y-33024819D02*
X19309523Y-33024819D01*
X19023809Y-33024819D02*
X19023809Y-32024819D01*
X19023809Y-32024819D02*
X19119047Y-32167676D01*
X19119047Y-32167676D02*
X19214285Y-32262914D01*
X19214285Y-32262914D02*
X19309523Y-32310533D01*
X44642857Y-7024819D02*
X44976190Y-6548628D01*
X45214285Y-7024819D02*
X45214285Y-6024819D01*
X45214285Y-6024819D02*
X44833333Y-6024819D01*
X44833333Y-6024819D02*
X44738095Y-6072438D01*
X44738095Y-6072438D02*
X44690476Y-6120057D01*
X44690476Y-6120057D02*
X44642857Y-6215295D01*
X44642857Y-6215295D02*
X44642857Y-6358152D01*
X44642857Y-6358152D02*
X44690476Y-6453390D01*
X44690476Y-6453390D02*
X44738095Y-6501009D01*
X44738095Y-6501009D02*
X44833333Y-6548628D01*
X44833333Y-6548628D02*
X45214285Y-6548628D01*
X43690476Y-7024819D02*
X44261904Y-7024819D01*
X43976190Y-7024819D02*
X43976190Y-6024819D01*
X43976190Y-6024819D02*
X44071428Y-6167676D01*
X44071428Y-6167676D02*
X44166666Y-6262914D01*
X44166666Y-6262914D02*
X44261904Y-6310533D01*
X43357142Y-6024819D02*
X42738095Y-6024819D01*
X42738095Y-6024819D02*
X43071428Y-6405771D01*
X43071428Y-6405771D02*
X42928571Y-6405771D01*
X42928571Y-6405771D02*
X42833333Y-6453390D01*
X42833333Y-6453390D02*
X42785714Y-6501009D01*
X42785714Y-6501009D02*
X42738095Y-6596247D01*
X42738095Y-6596247D02*
X42738095Y-6834342D01*
X42738095Y-6834342D02*
X42785714Y-6929580D01*
X42785714Y-6929580D02*
X42833333Y-6977200D01*
X42833333Y-6977200D02*
X42928571Y-7024819D01*
X42928571Y-7024819D02*
X43214285Y-7024819D01*
X43214285Y-7024819D02*
X43309523Y-6977200D01*
X43309523Y-6977200D02*
X43357142Y-6929580D01*
D11*
%TO.C,C4*%
X12261252Y-41265000D02*
X11738748Y-41265000D01*
X12261252Y-42735000D02*
X11738748Y-42735000D01*
%TO.C,U2*%
X14000000Y-11440000D02*
X12050000Y-11440000D01*
X14000000Y-11440000D02*
X15950000Y-11440000D01*
X14000000Y-16560000D02*
X12050000Y-16560000D01*
X14000000Y-16560000D02*
X15950000Y-16560000D01*
X16700000Y-11535000D02*
X16460000Y-11205000D01*
X16940000Y-11205000D01*
X16700000Y-11535000D01*
G36*
X16700000Y-11535000D02*
G01*
X16460000Y-11205000D01*
X16940000Y-11205000D01*
X16700000Y-11535000D01*
G37*
%TO.C,R3*%
X11237258Y-45477500D02*
X10762742Y-45477500D01*
X11237258Y-46522500D02*
X10762742Y-46522500D01*
%TO.C,C2*%
X32261252Y-25265000D02*
X31738748Y-25265000D01*
X32261252Y-26735000D02*
X31738748Y-26735000D01*
%TO.C,C3*%
X35140580Y-32490000D02*
X34859420Y-32490000D01*
X35140580Y-33510000D02*
X34859420Y-33510000D01*
%TO.C,R_CC1*%
X28237258Y-2977500D02*
X27762742Y-2977500D01*
X28237258Y-4022500D02*
X27762742Y-4022500D01*
%TO.C,R5*%
X48237258Y-45477500D02*
X47762742Y-45477500D01*
X48237258Y-46522500D02*
X47762742Y-46522500D01*
%TO.C,R4*%
X11237258Y-49477500D02*
X10762742Y-49477500D01*
X11237258Y-50522500D02*
X10762742Y-50522500D01*
%TO.C,L1*%
X6399622Y-35440000D02*
X5600378Y-35440000D01*
X6399622Y-36560000D02*
X5600378Y-36560000D01*
%TO.C,C1*%
X32140580Y-22490000D02*
X31859420Y-22490000D01*
X32140580Y-23510000D02*
X31859420Y-23510000D01*
%TO.C,F1*%
X8386252Y-11290000D02*
X5613748Y-11290000D01*
X8386252Y-14710000D02*
X5613748Y-14710000D01*
%TO.C,R10*%
X46237258Y-49477500D02*
X45762742Y-49477500D01*
X46237258Y-50522500D02*
X45762742Y-50522500D01*
%TO.C,LED_CHG1*%
X7200000Y-21265000D02*
X9485000Y-21265000D01*
X9485000Y-21265000D02*
X9485000Y-22735000D01*
X9485000Y-22735000D02*
X7200000Y-22735000D01*
%TO.C,U8*%
X16900000Y-30390000D02*
X16100000Y-30390000D01*
X16900000Y-30390000D02*
X17700000Y-30390000D01*
X17900000Y-33610000D02*
X16100000Y-33610000D01*
X18200000Y-30440000D02*
X17960000Y-30110000D01*
X18440000Y-30110000D01*
X18200000Y-30440000D01*
G36*
X18200000Y-30440000D02*
G01*
X17960000Y-30110000D01*
X18440000Y-30110000D01*
X18200000Y-30440000D01*
G37*
%TO.C,J1*%
X48490000Y-24940000D02*
X54460000Y-24940000D01*
X48490000Y-32560000D02*
X48490000Y-24940000D01*
X49250000Y-25700000D02*
X49250000Y-28750000D01*
X49250000Y-31800000D02*
X49250000Y-28750000D01*
X52200000Y-24950000D02*
X52200000Y-25700000D01*
X52200000Y-25700000D02*
X49250000Y-25700000D01*
X52200000Y-31800000D02*
X49250000Y-31800000D01*
X52200000Y-32550000D02*
X52200000Y-31800000D01*
X53700000Y-24950000D02*
X54450000Y-24950000D01*
X53700000Y-26750000D02*
X53700000Y-24950000D01*
X53700000Y-28250000D02*
X54450000Y-28250000D01*
X53700000Y-29250000D02*
X53700000Y-28250000D01*
X53700000Y-30750000D02*
X54450000Y-30750000D01*
X53700000Y-32550000D02*
X53700000Y-30750000D01*
X54450000Y-24950000D02*
X54450000Y-26750000D01*
X54450000Y-26750000D02*
X53700000Y-26750000D01*
X54450000Y-28250000D02*
X54450000Y-29250000D01*
X54450000Y-29250000D02*
X53700000Y-29250000D01*
X54450000Y-30750000D02*
X54450000Y-32550000D01*
X54450000Y-32550000D02*
X53700000Y-32550000D01*
X54460000Y-24940000D02*
X54460000Y-32560000D01*
X54460000Y-32560000D02*
X48490000Y-32560000D01*
X54750000Y-31600000D02*
X54750000Y-32850000D01*
X54750000Y-32850000D02*
X53500000Y-32850000D01*
%TO.C,J2*%
X48490000Y-10940000D02*
X54460000Y-10940000D01*
X48490000Y-18560000D02*
X48490000Y-10940000D01*
X49250000Y-11700000D02*
X49250000Y-14750000D01*
X49250000Y-17800000D02*
X49250000Y-14750000D01*
X52200000Y-10950000D02*
X52200000Y-11700000D01*
X52200000Y-11700000D02*
X49250000Y-11700000D01*
X52200000Y-17800000D02*
X49250000Y-17800000D01*
X52200000Y-18550000D02*
X52200000Y-17800000D01*
X53700000Y-10950000D02*
X54450000Y-10950000D01*
X53700000Y-12750000D02*
X53700000Y-10950000D01*
X53700000Y-14250000D02*
X54450000Y-14250000D01*
X53700000Y-15250000D02*
X53700000Y-14250000D01*
X53700000Y-16750000D02*
X54450000Y-16750000D01*
X53700000Y-18550000D02*
X53700000Y-16750000D01*
X54450000Y-10950000D02*
X54450000Y-12750000D01*
X54450000Y-12750000D02*
X53700000Y-12750000D01*
X54450000Y-14250000D02*
X54450000Y-15250000D01*
X54450000Y-15250000D02*
X53700000Y-15250000D01*
X54450000Y-16750000D02*
X54450000Y-18550000D01*
X54450000Y-18550000D02*
X53700000Y-18550000D01*
X54460000Y-10940000D02*
X54460000Y-18560000D01*
X54460000Y-18560000D02*
X48490000Y-18560000D01*
X54750000Y-17600000D02*
X54750000Y-18850000D01*
X54750000Y-18850000D02*
X53500000Y-18850000D01*
%TO.C,U1*%
X35620000Y-29430000D02*
X20380000Y-29430000D01*
X37890000Y-6570000D02*
X18110000Y-6570000D01*
X18110000Y-29430000D01*
X37890000Y-29430000D01*
X37890000Y-6570000D01*
D12*
X37340000Y-28160000D02*
G75*
G02*
X36440000Y-28160000I-450000J0D01*
G01*
X36440000Y-28160000D02*
G75*
G02*
X37340000Y-28160000I450000J0D01*
G01*
D11*
%TO.C,U3*%
X9900000Y-26390000D02*
X9100000Y-26390000D01*
X9900000Y-26390000D02*
X10700000Y-26390000D01*
X10900000Y-29610000D02*
X9100000Y-29610000D01*
X11200000Y-26440000D02*
X10960000Y-26110000D01*
X11440000Y-26110000D01*
X11200000Y-26440000D01*
G36*
X11200000Y-26440000D02*
G01*
X10960000Y-26110000D01*
X11440000Y-26110000D01*
X11200000Y-26440000D01*
G37*
%TO.C,J4*%
X51620000Y-38270000D02*
X51620000Y-46000000D01*
X54380000Y-35620000D02*
X53000000Y-35620000D01*
X54380000Y-37000000D02*
X54380000Y-35620000D01*
X54380000Y-38270000D02*
X51620000Y-38270000D01*
X54380000Y-38270000D02*
X54380000Y-46000000D01*
X54380000Y-46000000D02*
X51620000Y-46000000D01*
%TO.C,R12*%
X20237258Y-37477500D02*
X19762742Y-37477500D01*
X20237258Y-38522500D02*
X19762742Y-38522500D01*
%TO.C,R6*%
X42237258Y-48477500D02*
X41762742Y-48477500D01*
X42237258Y-49522500D02*
X41762742Y-49522500D01*
%TO.C,U6*%
X41000000Y-42440000D02*
X39050000Y-42440000D01*
X41000000Y-42440000D02*
X42950000Y-42440000D01*
X41000000Y-47560000D02*
X39050000Y-47560000D01*
X41000000Y-47560000D02*
X42950000Y-47560000D01*
X43700000Y-42535000D02*
X43460000Y-42205000D01*
X43940000Y-42205000D01*
X43700000Y-42535000D01*
G36*
X43700000Y-42535000D02*
G01*
X43460000Y-42205000D01*
X43940000Y-42205000D01*
X43700000Y-42535000D01*
G37*
%TO.C,C6*%
X39140580Y-40490000D02*
X38859420Y-40490000D01*
X39140580Y-41510000D02*
X38859420Y-41510000D01*
%TO.C,R2_C1*%
X16237258Y-21477500D02*
X15762742Y-21477500D01*
X16237258Y-22522500D02*
X15762742Y-22522500D01*
%TO.C,C5*%
X20261252Y-41265000D02*
X19738748Y-41265000D01*
X20261252Y-42735000D02*
X19738748Y-42735000D01*
%TO.C,R_CC2*%
X34237258Y-2977500D02*
X33762742Y-2977500D01*
X34237258Y-4022500D02*
X33762742Y-4022500D01*
%TO.C,U4*%
X12900000Y-34390000D02*
X12100000Y-34390000D01*
X12900000Y-34390000D02*
X13700000Y-34390000D01*
X13900000Y-37610000D02*
X12100000Y-37610000D01*
X14200000Y-34440000D02*
X13960000Y-34110000D01*
X14440000Y-34110000D01*
X14200000Y-34440000D01*
G36*
X14200000Y-34440000D02*
G01*
X13960000Y-34110000D01*
X14440000Y-34110000D01*
X14200000Y-34440000D01*
G37*
%TO.C,U5*%
X36000000Y-35440000D02*
X34050000Y-35440000D01*
X36000000Y-35440000D02*
X37950000Y-35440000D01*
X36000000Y-40560000D02*
X34050000Y-40560000D01*
X36000000Y-40560000D02*
X37950000Y-40560000D01*
X38700000Y-35535000D02*
X38460000Y-35205000D01*
X38940000Y-35205000D01*
X38700000Y-35535000D01*
G36*
X38700000Y-35535000D02*
G01*
X38460000Y-35205000D01*
X38940000Y-35205000D01*
X38700000Y-35535000D01*
G37*
%TO.C,R11*%
X20237258Y-33477500D02*
X19762742Y-33477500D01*
X20237258Y-34522500D02*
X19762742Y-34522500D01*
%TO.C,R13*%
X44237258Y-7477500D02*
X43762742Y-7477500D01*
X44237258Y-8522500D02*
X43762742Y-8522500D01*
%TD*%
M02*
