%TF.GenerationSoftware,KiCad,Pcbnew,9.0.2+dfsg-1*%
%TF.CreationDate,2026-07-13T18:07:25-04:00*%
%TF.ProjectId,autofeeder,6175746f-6665-4656-9465-722e6b696361,rev?*%
%TF.SameCoordinates,Original*%
%TF.FileFunction,Copper,L2,Inr*%
%TF.FilePolarity,Positive*%
%FSLAX46Y46*%
G04 Gerber Fmt 4.6, Leading zero omitted, Abs format (unit mm)*
G04 Created by KiCad (PCBNEW 9.0.2+dfsg-1) date 2026-07-13 18:07:25*
%MOMM*%
%LPD*%
G01*
G04 APERTURE LIST*
G04 Aperture macros list*
%AMRoundRect*
0 Rectangle with rounded corners*
0 $1 Rounding radius*
0 $2 $3 $4 $5 $6 $7 $8 $9 X,Y pos of 4 corners*
0 Add a 4 corners polygon primitive as box body*
4,1,4,$2,$3,$4,$5,$6,$7,$8,$9,$2,$3,0*
0 Add four circle primitives for the rounded corners*
1,1,$1+$1,$2,$3*
1,1,$1+$1,$4,$5*
1,1,$1+$1,$6,$7*
1,1,$1+$1,$8,$9*
0 Add four rect primitives between the rounded corners*
20,1,$1+$1,$2,$3,$4,$5,0*
20,1,$1+$1,$4,$5,$6,$7,0*
20,1,$1+$1,$6,$7,$8,$9,0*
20,1,$1+$1,$8,$9,$2,$3,0*%
G04 Aperture macros list end*
%TA.AperFunction,ComponentPad*%
%ADD10C,1.100000*%
%TD*%
%TA.AperFunction,ComponentPad*%
%ADD11R,1.100000X1.100000*%
%TD*%
%TA.AperFunction,ComponentPad*%
%ADD12RoundRect,0.250000X0.750000X-0.600000X0.750000X0.600000X-0.750000X0.600000X-0.750000X-0.600000X0*%
%TD*%
%TA.AperFunction,ComponentPad*%
%ADD13O,2.000000X1.700000*%
%TD*%
%TA.AperFunction,HeatsinkPad*%
%ADD14O,1.000000X1.600000*%
%TD*%
%TA.AperFunction,HeatsinkPad*%
%ADD15O,1.000000X2.100000*%
%TD*%
%TA.AperFunction,ComponentPad*%
%ADD16R,1.700000X1.700000*%
%TD*%
%TA.AperFunction,ComponentPad*%
%ADD17C,1.700000*%
%TD*%
%TA.AperFunction,ComponentPad*%
%ADD18C,1.400000*%
%TD*%
%TA.AperFunction,ComponentPad*%
%ADD19RoundRect,0.249999X0.850001X0.850001X-0.850001X0.850001X-0.850001X-0.850001X0.850001X-0.850001X0*%
%TD*%
%TA.AperFunction,ComponentPad*%
%ADD20C,2.200000*%
%TD*%
%TA.AperFunction,ViaPad*%
%ADD21C,0.600000*%
%TD*%
%TA.AperFunction,Conductor*%
%ADD22C,0.200000*%
%TD*%
G04 APERTURE END LIST*
D10*
%TO.N,/VCC_3V3*%
%TO.C,DISP1*%
X22920000Y-13000000D03*
D11*
%TO.N,GND*%
X20380000Y-13000000D03*
D10*
%TO.N,/DISP_CS*%
X35620000Y-13000000D03*
%TO.N,/DISP_DC*%
X33080000Y-13000000D03*
%TO.N,/DISP_RST*%
X30540000Y-13000000D03*
%TO.N,/DISP_SCK*%
X25460000Y-13000000D03*
%TO.N,/DISP_MOSI*%
X28000000Y-13000000D03*
%TD*%
D12*
%TO.N,/BATT_P*%
%TO.C,J1*%
X52000000Y-34000000D03*
D13*
%TO.N,/BATT_N*%
X52000000Y-31500000D03*
%TD*%
D14*
%TO.N,GND*%
%TO.C,J3*%
X34320000Y-52550000D03*
D15*
X34320000Y-48370000D03*
D14*
X25680000Y-52550000D03*
D15*
X25680000Y-48370000D03*
%TD*%
D12*
%TO.N,/MOTOR_IN1*%
%TO.C,J_MOTOR_CTRL1*%
X52000000Y-14000000D03*
D13*
%TO.N,/MOTOR_IN2*%
X52000000Y-11500000D03*
%TD*%
D12*
%TO.N,/BATT_PROT*%
%TO.C,J_MOTOR_PWR1*%
X52000000Y-24000000D03*
D13*
%TO.N,GND*%
X52000000Y-21500000D03*
%TD*%
D16*
%TO.N,/VCC_3V3*%
%TO.C,J4*%
X53000000Y-39000000D03*
D17*
%TO.N,unconnected-(J4-Pin_2-Pad2)*%
X53000000Y-41540000D03*
%TO.N,unconnected-(J4-Pin_3-Pad3)*%
X53000000Y-44080000D03*
%TO.N,GND*%
X53000000Y-46620000D03*
%TD*%
D11*
%TO.N,unconnected-(U1-5V-Pad1)*%
%TO.C,U1*%
X36890000Y-28160000D03*
D10*
%TO.N,GND*%
X36890000Y-25620000D03*
%TO.N,/VCC_3V3*%
X36890000Y-23080000D03*
%TO.N,/BUTTON_POWER*%
X36890000Y-20540000D03*
%TO.N,/BUTTON_TIMER*%
X36890000Y-18000000D03*
%TO.N,/BUTTON_MANUAL*%
X36890000Y-15460000D03*
%TO.N,/BUTTON_SETTINGS*%
X36890000Y-12920000D03*
%TO.N,/BUTTON_UP*%
X36890000Y-10380000D03*
%TO.N,/BUTTON_DOWN*%
X36890000Y-7840000D03*
%TO.N,/MOTOR_IN1*%
X19110000Y-28160000D03*
%TO.N,/MOTOR_IN2*%
X19110000Y-25620000D03*
%TO.N,/DISP_SCK*%
X19110000Y-23080000D03*
%TO.N,/DISP_MOSI*%
X19110000Y-20540000D03*
%TO.N,/DISP_CS*%
X19110000Y-18000000D03*
%TO.N,unconnected-(U1-GP19-Pad15)*%
X19110000Y-15460000D03*
%TO.N,unconnected-(U1-GP20-Pad16)*%
X19110000Y-12920000D03*
%TO.N,/CAN_TX*%
X19110000Y-10380000D03*
%TO.N,/CAN_RX*%
X19110000Y-7840000D03*
D18*
%TO.N,/I2C_SDA*%
X35620000Y-30700000D03*
%TO.N,/DISP_DC*%
X33080000Y-30700000D03*
%TO.N,/I2C_SCL*%
X30540000Y-30700000D03*
%TO.N,/CAN_RS*%
X28000000Y-30700000D03*
%TO.N,/GPS_RX*%
X25460000Y-30700000D03*
%TO.N,/GPS_TX*%
X22920000Y-30700000D03*
%TO.N,/BAT_MON*%
X20380000Y-30700000D03*
%TD*%
D19*
%TO.N,/BATT_PROT*%
%TO.C,D1*%
X16000000Y-18500000D03*
D20*
%TO.N,/BATT_N*%
X5840000Y-18500000D03*
%TD*%
D16*
%TO.N,/VCC_3V3*%
%TO.C,J_GPS1*%
X44000000Y-14000000D03*
D17*
%TO.N,GND*%
X44000000Y-16540000D03*
%TO.N,/GPS_RX*%
X44000000Y-19080000D03*
%TO.N,/GPS_TX*%
X44000000Y-21620000D03*
%TD*%
D16*
%TO.N,/VCC_3V3*%
%TO.C,J_RTC1*%
X42000000Y-30000000D03*
D17*
%TO.N,GND*%
X42000000Y-32540000D03*
%TO.N,/I2C_SDA*%
X42000000Y-35080000D03*
%TO.N,/I2C_SCL*%
X42000000Y-37620000D03*
%TD*%
D21*
%TO.N,/BATT_N*%
X8230600Y-26269200D03*
X21556100Y-35486300D03*
%TO.N,/BATT_P*%
X9449300Y-20552700D03*
%TO.N,/BATT_PROT*%
X7194900Y-15588500D03*
X11825000Y-44759100D03*
X10900100Y-37091100D03*
%TO.N,/BAT_MON*%
X12685800Y-50000000D03*
%TO.N,/BUTTON_DOWN*%
X39312500Y-42194600D03*
%TO.N,/BUTTON_POWER*%
X32708500Y-15236500D03*
X14973100Y-5835000D03*
%TO.N,/BUTTON_UP*%
X30953300Y-42200000D03*
%TO.N,/CAN_H_PROT*%
X40305000Y-49215800D03*
X28821300Y-48956400D03*
%TO.N,/CAN_RX*%
X31726900Y-20875300D03*
%TO.N,/CAN_TX*%
X30205700Y-17559000D03*
X43442200Y-41645200D03*
%TO.N,/CC1*%
X31028100Y-48657600D03*
X28825000Y-22015300D03*
%TO.N,/CC2*%
X34825000Y-4448600D03*
X24713500Y-49067600D03*
%TO.N,/MOTOR_IN2*%
X23258200Y-19276600D03*
%TO.N,/VCC_3V3*%
X20950000Y-40559800D03*
X37912400Y-32410600D03*
X13210600Y-34537700D03*
%TO.N,GND*%
X8750000Y-8750000D03*
X54950000Y-10950000D03*
X54950000Y-19750000D03*
X4350000Y-4350000D03*
X15350000Y-43950000D03*
X10950000Y-48350000D03*
X26350000Y-2150000D03*
X4350000Y-19750000D03*
X35150000Y-46150000D03*
X21950000Y-39550000D03*
X13150000Y-2150000D03*
X28550000Y-35150000D03*
X52750000Y-28550000D03*
X35150000Y-41750000D03*
X28550000Y-52750000D03*
X54950000Y-32950000D03*
X17550000Y-52750000D03*
X28550000Y-37350000D03*
X28550000Y-2150000D03*
X8750000Y-32950000D03*
X50550000Y-43950000D03*
X40482400Y-7781300D03*
X54950000Y-30750000D03*
X32950000Y-39550000D03*
X10609200Y-21236500D03*
X41750000Y-52750000D03*
X35150000Y-43950000D03*
X54950000Y-26350000D03*
X54950000Y-21950000D03*
X28550000Y-50550000D03*
X21950000Y-37350000D03*
X46150000Y-2150000D03*
X52750000Y-26350000D03*
X46150000Y-21950000D03*
X15350000Y-2150000D03*
X46150000Y-37350000D03*
X24150000Y-2150000D03*
X21950000Y-50550000D03*
X11372900Y-43513300D03*
X4350000Y-6550000D03*
X32950000Y-2150000D03*
X46150000Y-30750000D03*
X30750000Y-52750000D03*
X8750000Y-48350000D03*
X48350000Y-2150000D03*
X50550000Y-8750000D03*
X2150000Y-26350000D03*
X54950000Y-2150000D03*
X41750000Y-6550000D03*
X2150000Y-4350000D03*
X4350000Y-2150000D03*
X48350000Y-13150000D03*
X4350000Y-21950000D03*
X50550000Y-41750000D03*
X17550000Y-46150000D03*
X4350000Y-43950000D03*
X2150000Y-30750000D03*
X17550000Y-41750000D03*
X39550000Y-2150000D03*
X10950000Y-52750000D03*
X54950000Y-8750000D03*
X8750000Y-2150000D03*
X2150000Y-43950000D03*
X4350000Y-24150000D03*
X50550000Y-28550000D03*
X50550000Y-2150000D03*
X43950000Y-52750000D03*
X2150000Y-13150000D03*
X8750000Y-46150000D03*
X37350000Y-4350000D03*
X19750000Y-4350000D03*
X43950000Y-39550000D03*
X37350000Y-35150000D03*
X15350000Y-10950000D03*
X2150000Y-17550000D03*
X2150000Y-46150000D03*
X4350000Y-41750000D03*
X35150000Y-2150000D03*
X24150000Y-8750000D03*
X48350000Y-15350000D03*
X52750000Y-52750000D03*
X17550000Y-48350000D03*
X13150000Y-8750000D03*
X4350000Y-48350000D03*
X37350000Y-30750000D03*
X8750000Y-4350000D03*
X2150000Y-8750000D03*
X54950000Y-43950000D03*
X28550000Y-43950000D03*
X52750000Y-17550000D03*
X42016700Y-43800000D03*
X54950000Y-41750000D03*
X50550000Y-50550000D03*
X46150000Y-24150000D03*
X6550000Y-32950000D03*
X37350000Y-2150000D03*
X17550000Y-2150000D03*
X15350000Y-48350000D03*
X2150000Y-21950000D03*
X46150000Y-26350000D03*
X4350000Y-26350000D03*
X21950000Y-43950000D03*
X2150000Y-52750000D03*
X35150000Y-39550000D03*
X50550000Y-4350000D03*
X21950000Y-2150000D03*
X21950000Y-10950000D03*
X39550000Y-48350000D03*
X4350000Y-52750000D03*
X26350000Y-39550000D03*
X6550000Y-30750000D03*
X54950000Y-24150000D03*
X37350000Y-6550000D03*
X4350000Y-39550000D03*
X48350000Y-26350000D03*
X32950000Y-52750000D03*
X46150000Y-8750000D03*
X50550000Y-6550000D03*
X41750000Y-10950000D03*
X35150000Y-48350000D03*
X19750000Y-48350000D03*
X37350000Y-41750000D03*
X19750000Y-50550000D03*
X6550000Y-13150000D03*
X8750000Y-35150000D03*
X13150000Y-10950000D03*
X54950000Y-17550000D03*
X50550000Y-48350000D03*
X6550000Y-50550000D03*
X21950000Y-52750000D03*
X50550000Y-21950000D03*
X2150000Y-24150000D03*
X32950000Y-43950000D03*
X48350000Y-8750000D03*
X26350000Y-10950000D03*
X46150000Y-6550000D03*
X54950000Y-35150000D03*
X39550000Y-52750000D03*
X54950000Y-52750000D03*
X48350000Y-21950000D03*
X50550000Y-19750000D03*
X52750000Y-4350000D03*
X46150000Y-19750000D03*
X52750000Y-8750000D03*
X8750000Y-52750000D03*
X8750000Y-30750000D03*
X48350000Y-19750000D03*
X43950000Y-26350000D03*
X4350000Y-30750000D03*
X54950000Y-48350000D03*
X50550000Y-52750000D03*
X52750000Y-6550000D03*
X54950000Y-50550000D03*
X8750000Y-37350000D03*
X15350000Y-52750000D03*
X24150000Y-52750000D03*
X15350000Y-4350000D03*
X6550000Y-24150000D03*
X2150000Y-19750000D03*
X2150000Y-2150000D03*
X48350000Y-37350000D03*
X21950000Y-6550000D03*
X6550000Y-8750000D03*
X15350000Y-50550000D03*
X50550000Y-17550000D03*
X19750000Y-52750000D03*
X43950000Y-35150000D03*
X2150000Y-6550000D03*
X43950000Y-2150000D03*
X6550000Y-46150000D03*
X41750000Y-43950000D03*
X32950000Y-37350000D03*
X37350000Y-48350000D03*
X52750000Y-37350000D03*
X4350000Y-8750000D03*
X54950000Y-37350000D03*
X6550000Y-48350000D03*
X41750000Y-2150000D03*
X48350000Y-28550000D03*
X46150000Y-4350000D03*
X35150000Y-26350000D03*
X37350000Y-26350000D03*
X17550000Y-4350000D03*
X32950000Y-41750000D03*
X24150000Y-6550000D03*
X46150000Y-15350000D03*
X54950000Y-28550000D03*
X4350000Y-46150000D03*
X15350000Y-8750000D03*
X54950000Y-46150000D03*
X54950000Y-4350000D03*
X21950000Y-4350000D03*
X54950000Y-15350000D03*
X35150000Y-6550000D03*
X19750000Y-2150000D03*
X26350000Y-35150000D03*
X52750000Y-50550000D03*
X8750000Y-50550000D03*
X21950000Y-46150000D03*
X17550000Y-50550000D03*
X52750000Y-19750000D03*
X19750000Y-46150000D03*
X13150000Y-19750000D03*
X13150000Y-17550000D03*
X10950000Y-2150000D03*
X6550000Y-52750000D03*
X19750000Y-43950000D03*
X48350000Y-52750000D03*
X52750000Y-2150000D03*
X48350000Y-24150000D03*
X2150000Y-10950000D03*
X6550000Y-26350000D03*
X26350000Y-8750000D03*
X35150000Y-52750000D03*
X32950000Y-4350000D03*
X6550000Y-28550000D03*
X2150000Y-41750000D03*
X15175000Y-21068900D03*
X2150000Y-15350000D03*
X6550000Y-10950000D03*
X4350000Y-50550000D03*
X2150000Y-50550000D03*
X4350000Y-37350000D03*
X46150000Y-52750000D03*
X52750000Y-48350000D03*
X48350000Y-50550000D03*
X37350000Y-52750000D03*
X54950000Y-13150000D03*
X21950000Y-48350000D03*
X2150000Y-48350000D03*
X30750000Y-2150000D03*
X8750000Y-43950000D03*
X30750000Y-10950000D03*
X10950000Y-8750000D03*
X4350000Y-28550000D03*
X50550000Y-46150000D03*
X6550000Y-2150000D03*
X24150000Y-50550000D03*
X10950000Y-10950000D03*
X48350000Y-48350000D03*
X21950000Y-15350000D03*
X24150000Y-4350000D03*
X13150000Y-52750000D03*
X54950000Y-6550000D03*
X17550000Y-43950000D03*
X2150000Y-28550000D03*
X15350000Y-46150000D03*
X46150000Y-13150000D03*
X54950000Y-39550000D03*
%TD*%
D22*
%TO.N,/BATT_N*%
X8230600Y-20890600D02*
X8230600Y-26269200D01*
X5840000Y-18500000D02*
X8230600Y-20890600D01*
%TO.N,/BATT_PROT*%
X10821200Y-43755300D02*
X11825000Y-44759100D01*
X10900100Y-23599900D02*
X16000000Y-18500000D01*
X10821200Y-37170000D02*
X10821200Y-43755300D01*
X10900100Y-37091100D02*
X10900100Y-23599900D01*
X10900100Y-37091100D02*
X10821200Y-37170000D01*
%TO.N,/BAT_MON*%
X12685800Y-38394200D02*
X12685800Y-50000000D01*
X20380000Y-30700000D02*
X12685800Y-38394200D01*
%TO.N,/BUTTON_DOWN*%
X39312500Y-36192900D02*
X39312500Y-42194600D01*
X36890000Y-7840000D02*
X40701200Y-11651200D01*
X41695400Y-33810000D02*
X39312500Y-36192900D01*
X40701200Y-14804300D02*
X43706900Y-17810000D01*
X43706900Y-17810000D02*
X44316500Y-17810000D01*
X40701200Y-11651200D02*
X40701200Y-14804300D01*
X42366200Y-33810000D02*
X41695400Y-33810000D01*
X45121100Y-31055100D02*
X42366200Y-33810000D01*
X45121100Y-18614600D02*
X45121100Y-31055100D01*
X44316500Y-17810000D02*
X45121100Y-18614600D01*
%TO.N,/BUTTON_POWER*%
X36890000Y-20540000D02*
X32708500Y-16358500D01*
X32708500Y-16358500D02*
X32708500Y-15236500D01*
%TO.N,/BUTTON_UP*%
X24475900Y-35722600D02*
X30953300Y-42200000D01*
X36890000Y-10380000D02*
X32585200Y-14684800D01*
X24475900Y-22508700D02*
X24475900Y-35722600D01*
X32585200Y-14684800D02*
X32299800Y-14684800D01*
X32299800Y-14684800D02*
X24475900Y-22508700D01*
%TO.N,/CAN_TX*%
X38465500Y-42173100D02*
X39081900Y-42789500D01*
X30205700Y-17559000D02*
X38465500Y-25818800D01*
X39081900Y-42789500D02*
X42297900Y-42789500D01*
X38465500Y-25818800D02*
X38465500Y-42173100D01*
X42297900Y-42789500D02*
X43442200Y-41645200D01*
%TO.N,/CC1*%
X31527100Y-24717400D02*
X28825000Y-22015300D01*
X31527100Y-48158600D02*
X31527100Y-24717400D01*
X31028100Y-48657600D02*
X31527100Y-48158600D01*
%TO.N,/CC2*%
X29270100Y-13138200D02*
X29270100Y-10003500D01*
X24124200Y-48478300D02*
X24124200Y-18284100D01*
X24713500Y-49067600D02*
X24124200Y-48478300D01*
X24124200Y-18284100D02*
X29270100Y-13138200D01*
X29270100Y-10003500D02*
X34825000Y-4448600D01*
%TO.N,/DISP_SCK*%
X25460000Y-16294600D02*
X19110000Y-22644600D01*
X25460000Y-13000000D02*
X25460000Y-16294600D01*
X19110000Y-22644600D02*
X19110000Y-23080000D01*
%TO.N,/MOTOR_IN2*%
X19110000Y-25620000D02*
X23258200Y-21471800D01*
X23258200Y-21471800D02*
X23258200Y-19276600D01*
%TO.N,/VCC_3V3*%
X13210600Y-27713500D02*
X13210600Y-34537700D01*
X22920000Y-13000000D02*
X22920000Y-18004100D01*
X22920000Y-18004100D02*
X13210600Y-27713500D01*
%TO.N,GND*%
X34320000Y-52550000D02*
X34320000Y-48370000D01*
X18308300Y-18677300D02*
X15916700Y-21068900D01*
X44000000Y-16540000D02*
X48960000Y-21500000D01*
X19578300Y-13801700D02*
X18308300Y-15071700D01*
X25680000Y-52550000D02*
X25680000Y-48370000D01*
X15916700Y-21068900D02*
X15175000Y-21068900D01*
X48960000Y-21500000D02*
X52000000Y-21500000D01*
X18308300Y-15071700D02*
X18308300Y-18677300D01*
X20380000Y-13801700D02*
X19578300Y-13801700D01*
X20380000Y-13000000D02*
X20380000Y-13801700D01*
%TD*%
%TA.AperFunction,Conductor*%
%TO.N,GND*%
G36*
X55477826Y-522174D02*
G01*
X55499500Y-574500D01*
X55499500Y-53425500D01*
X55477826Y-53477826D01*
X55425500Y-53499500D01*
X574500Y-53499500D01*
X522174Y-53477826D01*
X500500Y-53425500D01*
X500500Y-42897646D01*
X5699500Y-42897646D01*
X5699500Y-43102353D01*
X5731522Y-43304531D01*
X5731525Y-43304544D01*
X5794777Y-43499213D01*
X5887712Y-43681610D01*
X5961406Y-43783040D01*
X6008034Y-43847219D01*
X6152781Y-43991966D01*
X6244695Y-44058745D01*
X6318389Y-44112287D01*
X6406300Y-44157079D01*
X6500781Y-44205220D01*
X6500783Y-44205220D01*
X6500786Y-44205222D01*
X6695455Y-44268474D01*
X6695461Y-44268475D01*
X6695466Y-44268477D01*
X6796557Y-44284488D01*
X6897646Y-44300500D01*
X6897648Y-44300500D01*
X7102354Y-44300500D01*
X7183224Y-44287690D01*
X7304534Y-44268477D01*
X7304541Y-44268474D01*
X7304544Y-44268474D01*
X7499213Y-44205222D01*
X7499213Y-44205221D01*
X7499219Y-44205220D01*
X7681610Y-44112287D01*
X7847219Y-43991966D01*
X7991966Y-43847219D01*
X8112287Y-43681610D01*
X8205220Y-43499219D01*
X8249457Y-43363072D01*
X8268474Y-43304544D01*
X8268474Y-43304541D01*
X8268477Y-43304534D01*
X8298320Y-43116114D01*
X8300500Y-43102353D01*
X8300500Y-42897646D01*
X8277194Y-42750500D01*
X8268477Y-42695466D01*
X8268475Y-42695461D01*
X8268474Y-42695455D01*
X8205222Y-42500786D01*
X8205220Y-42500783D01*
X8205220Y-42500781D01*
X8126277Y-42345847D01*
X8112287Y-42318389D01*
X8023147Y-42195699D01*
X7991966Y-42152781D01*
X7847219Y-42008034D01*
X7783040Y-41961406D01*
X7681610Y-41887712D01*
X7499213Y-41794777D01*
X7304544Y-41731525D01*
X7304531Y-41731522D01*
X7102354Y-41699500D01*
X7102352Y-41699500D01*
X6897648Y-41699500D01*
X6897646Y-41699500D01*
X6695468Y-41731522D01*
X6695455Y-41731525D01*
X6500786Y-41794777D01*
X6318389Y-41887712D01*
X6152785Y-42008031D01*
X6152781Y-42008034D01*
X6008034Y-42152781D01*
X6008031Y-42152784D01*
X6008031Y-42152785D01*
X5887712Y-42318389D01*
X5794777Y-42500786D01*
X5731525Y-42695455D01*
X5731522Y-42695468D01*
X5699500Y-42897646D01*
X500500Y-42897646D01*
X500500Y-37018622D01*
X10349600Y-37018622D01*
X10349600Y-37163577D01*
X10387114Y-37303581D01*
X10387116Y-37303586D01*
X10460786Y-37431184D01*
X10470700Y-37468184D01*
X10470700Y-43801446D01*
X10494584Y-43890584D01*
X10494586Y-43890589D01*
X10540730Y-43970512D01*
X11252826Y-44682608D01*
X11274500Y-44734934D01*
X11274500Y-44831577D01*
X11312014Y-44971581D01*
X11312016Y-44971586D01*
X11384491Y-45097115D01*
X11486985Y-45199609D01*
X11612515Y-45272084D01*
X11612516Y-45272084D01*
X11612518Y-45272085D01*
X11682520Y-45290842D01*
X11752522Y-45309599D01*
X11752523Y-45309600D01*
X11752525Y-45309600D01*
X11897477Y-45309600D01*
X11897477Y-45309599D01*
X12037485Y-45272084D01*
X12163015Y-45199609D01*
X12208974Y-45153650D01*
X12261300Y-45131976D01*
X12313626Y-45153650D01*
X12335300Y-45205976D01*
X12335300Y-49541324D01*
X12313626Y-49593650D01*
X12245291Y-49661984D01*
X12172816Y-49787513D01*
X12172814Y-49787518D01*
X12135300Y-49927522D01*
X12135300Y-50072477D01*
X12172814Y-50212481D01*
X12172816Y-50212486D01*
X12245291Y-50338015D01*
X12347785Y-50440509D01*
X12473315Y-50512984D01*
X12473316Y-50512984D01*
X12473318Y-50512985D01*
X12543320Y-50531742D01*
X12613322Y-50550499D01*
X12613323Y-50550500D01*
X12613325Y-50550500D01*
X12758277Y-50550500D01*
X12758277Y-50550499D01*
X12898285Y-50512984D01*
X13023815Y-50440509D01*
X13126309Y-50338015D01*
X13198784Y-50212485D01*
X13236299Y-50072477D01*
X13236300Y-50072477D01*
X13236300Y-49927523D01*
X13236299Y-49927522D01*
X13198785Y-49787518D01*
X13198783Y-49787513D01*
X13164876Y-49728785D01*
X13126309Y-49661985D01*
X13057974Y-49593650D01*
X13036300Y-49541324D01*
X13036300Y-40487322D01*
X20399500Y-40487322D01*
X20399500Y-40632277D01*
X20437014Y-40772281D01*
X20437016Y-40772286D01*
X20466335Y-40823067D01*
X20509491Y-40897815D01*
X20611985Y-41000309D01*
X20737515Y-41072784D01*
X20737516Y-41072784D01*
X20737518Y-41072785D01*
X20807520Y-41091542D01*
X20877522Y-41110299D01*
X20877523Y-41110300D01*
X20877525Y-41110300D01*
X21022477Y-41110300D01*
X21022477Y-41110299D01*
X21162485Y-41072784D01*
X21288015Y-41000309D01*
X21390509Y-40897815D01*
X21462984Y-40772285D01*
X21500499Y-40632277D01*
X21500500Y-40632277D01*
X21500500Y-40487323D01*
X21500499Y-40487322D01*
X21462985Y-40347318D01*
X21462983Y-40347313D01*
X21390508Y-40221784D01*
X21288015Y-40119291D01*
X21162486Y-40046816D01*
X21162481Y-40046814D01*
X21022477Y-40009300D01*
X21022475Y-40009300D01*
X20877525Y-40009300D01*
X20877523Y-40009300D01*
X20737518Y-40046814D01*
X20737513Y-40046816D01*
X20611984Y-40119291D01*
X20509491Y-40221784D01*
X20437016Y-40347313D01*
X20437014Y-40347318D01*
X20399500Y-40487322D01*
X13036300Y-40487322D01*
X13036300Y-38570033D01*
X13057973Y-38517708D01*
X16161859Y-35413822D01*
X21005600Y-35413822D01*
X21005600Y-35558777D01*
X21043114Y-35698781D01*
X21043116Y-35698786D01*
X21099776Y-35796923D01*
X21115591Y-35824315D01*
X21218085Y-35926809D01*
X21343615Y-35999284D01*
X21343616Y-35999284D01*
X21343618Y-35999285D01*
X21413620Y-36018042D01*
X21483622Y-36036799D01*
X21483623Y-36036800D01*
X21483625Y-36036800D01*
X21628577Y-36036800D01*
X21628577Y-36036799D01*
X21768585Y-35999284D01*
X21894115Y-35926809D01*
X21996609Y-35824315D01*
X22069084Y-35698785D01*
X22106599Y-35558777D01*
X22106600Y-35558777D01*
X22106600Y-35413823D01*
X22106599Y-35413822D01*
X22069085Y-35273818D01*
X22069083Y-35273813D01*
X22021556Y-35191494D01*
X21996609Y-35148285D01*
X21894115Y-35045791D01*
X21890660Y-35043796D01*
X21768586Y-34973316D01*
X21768581Y-34973314D01*
X21628577Y-34935800D01*
X21628575Y-34935800D01*
X21483625Y-34935800D01*
X21483623Y-34935800D01*
X21343618Y-34973314D01*
X21343613Y-34973316D01*
X21218084Y-35045791D01*
X21115591Y-35148284D01*
X21043116Y-35273813D01*
X21043114Y-35273818D01*
X21005600Y-35413822D01*
X16161859Y-35413822D01*
X19968056Y-31607624D01*
X20020381Y-31585951D01*
X20048694Y-31591582D01*
X20102749Y-31613973D01*
X20286384Y-31650500D01*
X20286385Y-31650500D01*
X20473615Y-31650500D01*
X20473616Y-31650500D01*
X20657251Y-31613973D01*
X20830231Y-31542322D01*
X20985908Y-31438302D01*
X21118302Y-31305908D01*
X21222322Y-31150231D01*
X21293973Y-30977251D01*
X21330500Y-30793616D01*
X21330500Y-30606384D01*
X21293973Y-30422749D01*
X21222322Y-30249769D01*
X21118302Y-30094092D01*
X20985908Y-29961698D01*
X20830231Y-29857678D01*
X20830228Y-29857676D01*
X20830227Y-29857676D01*
X20657251Y-29786027D01*
X20657244Y-29786025D01*
X20518902Y-29758507D01*
X20473616Y-29749500D01*
X20286384Y-29749500D01*
X20250056Y-29756725D01*
X20102755Y-29786025D01*
X20102748Y-29786027D01*
X19929772Y-29857676D01*
X19774092Y-29961697D01*
X19774091Y-29961699D01*
X19641699Y-30094091D01*
X19641697Y-30094092D01*
X19537676Y-30249772D01*
X19466027Y-30422748D01*
X19466025Y-30422755D01*
X19429500Y-30606384D01*
X19429500Y-30793615D01*
X19466025Y-30977244D01*
X19466028Y-30977255D01*
X19488414Y-31031299D01*
X19488414Y-31087936D01*
X19472373Y-31111943D01*
X12405330Y-38178987D01*
X12364620Y-38249500D01*
X12359187Y-38258909D01*
X12359184Y-38258916D01*
X12335300Y-38348053D01*
X12335300Y-44312224D01*
X12313626Y-44364550D01*
X12261300Y-44386224D01*
X12208974Y-44364550D01*
X12163015Y-44318591D01*
X12037486Y-44246116D01*
X12037481Y-44246114D01*
X11897477Y-44208600D01*
X11897475Y-44208600D01*
X11800834Y-44208600D01*
X11748508Y-44186926D01*
X11193374Y-43631792D01*
X11171700Y-43579466D01*
X11171700Y-37612677D01*
X11193374Y-37560351D01*
X11208701Y-37548591D01*
X11214349Y-37545329D01*
X11238115Y-37531609D01*
X11340609Y-37429115D01*
X11413084Y-37303585D01*
X11450599Y-37163577D01*
X11450600Y-37163577D01*
X11450600Y-37018623D01*
X11450599Y-37018622D01*
X11413085Y-36878618D01*
X11413083Y-36878613D01*
X11393663Y-36844976D01*
X11340609Y-36753085D01*
X11272274Y-36684750D01*
X11250600Y-36632424D01*
X11250600Y-34465222D01*
X12660100Y-34465222D01*
X12660100Y-34610177D01*
X12697614Y-34750181D01*
X12697616Y-34750186D01*
X12750816Y-34842330D01*
X12770091Y-34875715D01*
X12872585Y-34978209D01*
X12964476Y-35031263D01*
X12986184Y-35043796D01*
X12998115Y-35050684D01*
X12998116Y-35050684D01*
X12998118Y-35050685D01*
X13068120Y-35069442D01*
X13138122Y-35088199D01*
X13138123Y-35088200D01*
X13138125Y-35088200D01*
X13283077Y-35088200D01*
X13283077Y-35088199D01*
X13423085Y-35050684D01*
X13548615Y-34978209D01*
X13651109Y-34875715D01*
X13723584Y-34750185D01*
X13761099Y-34610177D01*
X13761100Y-34610177D01*
X13761100Y-34465223D01*
X13761099Y-34465222D01*
X13723585Y-34325218D01*
X13723583Y-34325213D01*
X13674723Y-34240586D01*
X13651109Y-34199685D01*
X13582774Y-34131350D01*
X13561100Y-34079024D01*
X13561100Y-28081159D01*
X18309500Y-28081159D01*
X18309500Y-28238840D01*
X18340261Y-28393491D01*
X18340264Y-28393501D01*
X18400603Y-28539174D01*
X18400605Y-28539177D01*
X18400606Y-28539179D01*
X18488211Y-28670289D01*
X18599711Y-28781789D01*
X18730821Y-28869394D01*
X18730826Y-28869396D01*
X18730825Y-28869396D01*
X18838592Y-28914034D01*
X18876503Y-28929737D01*
X19031158Y-28960500D01*
X19031160Y-28960500D01*
X19188840Y-28960500D01*
X19188842Y-28960500D01*
X19343497Y-28929737D01*
X19489179Y-28869394D01*
X19620289Y-28781789D01*
X19731789Y-28670289D01*
X19819394Y-28539179D01*
X19879737Y-28393497D01*
X19910500Y-28238842D01*
X19910500Y-28081158D01*
X19879737Y-27926503D01*
X19819394Y-27780821D01*
X19731789Y-27649711D01*
X19620289Y-27538211D01*
X19489179Y-27450606D01*
X19489175Y-27450604D01*
X19489173Y-27450603D01*
X19489174Y-27450603D01*
X19343501Y-27390264D01*
X19343491Y-27390261D01*
X19239925Y-27369661D01*
X19188842Y-27359500D01*
X19031158Y-27359500D01*
X18987315Y-27368220D01*
X18876508Y-27390261D01*
X18876498Y-27390264D01*
X18730825Y-27450603D01*
X18599711Y-27538210D01*
X18599710Y-27538212D01*
X18488212Y-27649710D01*
X18488210Y-27649711D01*
X18400603Y-27780825D01*
X18340264Y-27926498D01*
X18340261Y-27926508D01*
X18309500Y-28081159D01*
X13561100Y-28081159D01*
X13561100Y-27889334D01*
X13582774Y-27837008D01*
X15878624Y-25541158D01*
X18203549Y-23216232D01*
X18255874Y-23194559D01*
X18308200Y-23216233D01*
X18328452Y-23254122D01*
X18340261Y-23313491D01*
X18340264Y-23313501D01*
X18400603Y-23459174D01*
X18400605Y-23459177D01*
X18400606Y-23459179D01*
X18488211Y-23590289D01*
X18599711Y-23701789D01*
X18730821Y-23789394D01*
X18730826Y-23789396D01*
X18730825Y-23789396D01*
X18867080Y-23845834D01*
X18876503Y-23849737D01*
X19031158Y-23880500D01*
X19031160Y-23880500D01*
X19188840Y-23880500D01*
X19188842Y-23880500D01*
X19343497Y-23849737D01*
X19489179Y-23789394D01*
X19620289Y-23701789D01*
X19731789Y-23590289D01*
X19819394Y-23459179D01*
X19879737Y-23313497D01*
X19910500Y-23158842D01*
X19910500Y-23001158D01*
X19879737Y-22846503D01*
X19875835Y-22837082D01*
X19819396Y-22700825D01*
X19819395Y-22700823D01*
X19819394Y-22700821D01*
X19745012Y-22589501D01*
X19733964Y-22533954D01*
X19754214Y-22496067D01*
X22682873Y-19567407D01*
X22735198Y-19545734D01*
X22787524Y-19567408D01*
X22799284Y-19582734D01*
X22817688Y-19614611D01*
X22817689Y-19614612D01*
X22817691Y-19614615D01*
X22886026Y-19682950D01*
X22907700Y-19735275D01*
X22907700Y-21295965D01*
X22886026Y-21348291D01*
X19405293Y-24829023D01*
X19352967Y-24850697D01*
X19338530Y-24849275D01*
X19303610Y-24842329D01*
X19188842Y-24819500D01*
X19031158Y-24819500D01*
X18987315Y-24828220D01*
X18876508Y-24850261D01*
X18876498Y-24850264D01*
X18730825Y-24910603D01*
X18599711Y-24998210D01*
X18599710Y-24998212D01*
X18488212Y-25109710D01*
X18488210Y-25109711D01*
X18400603Y-25240825D01*
X18340264Y-25386498D01*
X18340261Y-25386508D01*
X18309500Y-25541159D01*
X18309500Y-25698840D01*
X18340261Y-25853491D01*
X18340264Y-25853501D01*
X18400603Y-25999174D01*
X18400605Y-25999177D01*
X18400606Y-25999179D01*
X18488211Y-26130289D01*
X18599711Y-26241789D01*
X18730821Y-26329394D01*
X18730826Y-26329396D01*
X18730825Y-26329396D01*
X18876498Y-26389735D01*
X18876503Y-26389737D01*
X19031158Y-26420500D01*
X19031160Y-26420500D01*
X19188840Y-26420500D01*
X19188842Y-26420500D01*
X19343497Y-26389737D01*
X19489179Y-26329394D01*
X19620289Y-26241789D01*
X19731789Y-26130289D01*
X19819394Y-25999179D01*
X19879737Y-25853497D01*
X19910500Y-25698842D01*
X19910500Y-25541158D01*
X19880724Y-25391465D01*
X19891773Y-25335918D01*
X19900971Y-25324709D01*
X23538670Y-21687012D01*
X23584814Y-21607088D01*
X23601160Y-21546082D01*
X23608700Y-21517944D01*
X23608700Y-19735275D01*
X23630374Y-19682950D01*
X23647374Y-19665950D01*
X23699700Y-19644276D01*
X23752026Y-19665950D01*
X23773700Y-19718276D01*
X23773700Y-30030838D01*
X23752026Y-30083164D01*
X23699700Y-30104838D01*
X23647374Y-30083164D01*
X23525907Y-29961697D01*
X23474482Y-29927336D01*
X23370231Y-29857678D01*
X23370228Y-29857676D01*
X23370227Y-29857676D01*
X23197251Y-29786027D01*
X23197244Y-29786025D01*
X23058902Y-29758507D01*
X23013616Y-29749500D01*
X22826384Y-29749500D01*
X22790056Y-29756725D01*
X22642755Y-29786025D01*
X22642748Y-29786027D01*
X22469772Y-29857676D01*
X22314092Y-29961697D01*
X22314091Y-29961699D01*
X22181699Y-30094091D01*
X22181697Y-30094092D01*
X22077676Y-30249772D01*
X22006027Y-30422748D01*
X22006025Y-30422755D01*
X21969500Y-30606384D01*
X21969500Y-30793615D01*
X22006025Y-30977244D01*
X22006027Y-30977251D01*
X22075304Y-31144501D01*
X22077678Y-31150231D01*
X22139196Y-31242299D01*
X22174517Y-31295162D01*
X22181698Y-31305908D01*
X22314092Y-31438302D01*
X22469769Y-31542322D01*
X22642749Y-31613973D01*
X22826384Y-31650500D01*
X22826385Y-31650500D01*
X23013615Y-31650500D01*
X23013616Y-31650500D01*
X23197251Y-31613973D01*
X23370231Y-31542322D01*
X23525908Y-31438302D01*
X23647374Y-31316836D01*
X23699700Y-31295162D01*
X23752026Y-31316836D01*
X23773700Y-31369162D01*
X23773700Y-48524446D01*
X23795250Y-48604870D01*
X23795250Y-48604875D01*
X23795252Y-48604875D01*
X23797585Y-48613587D01*
X23843730Y-48693512D01*
X24141326Y-48991108D01*
X24163000Y-49043434D01*
X24163000Y-49140077D01*
X24200514Y-49280081D01*
X24200516Y-49280086D01*
X24208789Y-49294415D01*
X24272991Y-49405615D01*
X24375485Y-49508109D01*
X24433015Y-49541324D01*
X24486105Y-49571976D01*
X24501015Y-49580584D01*
X24501016Y-49580584D01*
X24501018Y-49580585D01*
X24549777Y-49593650D01*
X24641022Y-49618099D01*
X24641023Y-49618100D01*
X24641025Y-49618100D01*
X24785977Y-49618100D01*
X24785977Y-49618099D01*
X24925985Y-49580584D01*
X25051515Y-49508109D01*
X25154009Y-49405615D01*
X25226484Y-49280085D01*
X25263999Y-49140077D01*
X25264000Y-49140077D01*
X25264000Y-48995123D01*
X25263999Y-48995122D01*
X25262923Y-48991108D01*
X25234203Y-48883922D01*
X25226485Y-48855118D01*
X25226482Y-48855111D01*
X25208653Y-48824231D01*
X26534500Y-48824231D01*
X26534500Y-48975768D01*
X26573717Y-49122130D01*
X26573721Y-49122139D01*
X26623351Y-49208100D01*
X26649485Y-49253365D01*
X26756635Y-49360515D01*
X26887865Y-49436281D01*
X27034231Y-49475499D01*
X27034232Y-49475500D01*
X27034234Y-49475500D01*
X27185768Y-49475500D01*
X27185768Y-49475499D01*
X27332135Y-49436281D01*
X27463365Y-49360515D01*
X27570515Y-49253365D01*
X27646281Y-49122135D01*
X27685499Y-48975768D01*
X27685500Y-48975768D01*
X27685500Y-48883922D01*
X28270800Y-48883922D01*
X28270800Y-49028877D01*
X28308314Y-49168881D01*
X28308316Y-49168886D01*
X28372518Y-49280086D01*
X28380791Y-49294415D01*
X28483285Y-49396909D01*
X28608815Y-49469384D01*
X28608816Y-49469384D01*
X28608818Y-49469385D01*
X28678820Y-49488142D01*
X28748822Y-49506899D01*
X28748823Y-49506900D01*
X28748825Y-49506900D01*
X28893777Y-49506900D01*
X28893777Y-49506899D01*
X29033785Y-49469384D01*
X29159315Y-49396909D01*
X29261809Y-49294415D01*
X29334284Y-49168885D01*
X29371799Y-49028877D01*
X29371800Y-49028877D01*
X29371800Y-48883923D01*
X29371799Y-48883922D01*
X29370154Y-48877784D01*
X29334284Y-48743915D01*
X29326293Y-48730075D01*
X29288895Y-48665300D01*
X29261809Y-48618385D01*
X29159315Y-48515891D01*
X29123869Y-48495426D01*
X29033786Y-48443416D01*
X29033781Y-48443414D01*
X28893777Y-48405900D01*
X28893775Y-48405900D01*
X28748825Y-48405900D01*
X28748823Y-48405900D01*
X28608818Y-48443414D01*
X28608813Y-48443416D01*
X28483284Y-48515891D01*
X28380791Y-48618384D01*
X28308316Y-48743913D01*
X28308314Y-48743918D01*
X28270800Y-48883922D01*
X27685500Y-48883922D01*
X27685500Y-48824232D01*
X27685499Y-48824231D01*
X27652966Y-48702816D01*
X27646281Y-48677865D01*
X27570515Y-48546635D01*
X27463365Y-48439485D01*
X27463362Y-48439483D01*
X27332139Y-48363721D01*
X27332130Y-48363717D01*
X27185768Y-48324500D01*
X27185766Y-48324500D01*
X27034234Y-48324500D01*
X27034232Y-48324500D01*
X26887869Y-48363717D01*
X26887860Y-48363721D01*
X26756637Y-48439483D01*
X26649483Y-48546637D01*
X26573721Y-48677860D01*
X26573717Y-48677869D01*
X26534500Y-48824231D01*
X25208653Y-48824231D01*
X25154293Y-48730077D01*
X25154009Y-48729585D01*
X25051515Y-48627091D01*
X25028127Y-48613588D01*
X24925986Y-48554616D01*
X24925981Y-48554614D01*
X24785977Y-48517100D01*
X24785975Y-48517100D01*
X24689334Y-48517100D01*
X24637008Y-48495426D01*
X24496374Y-48354792D01*
X24474700Y-48302466D01*
X24474700Y-36395734D01*
X24496374Y-36343408D01*
X24548700Y-36321734D01*
X24601026Y-36343408D01*
X30381126Y-42123508D01*
X30402800Y-42175834D01*
X30402800Y-42272477D01*
X30440314Y-42412481D01*
X30440316Y-42412486D01*
X30455624Y-42439000D01*
X30512791Y-42538015D01*
X30615285Y-42640509D01*
X30740815Y-42712984D01*
X30740816Y-42712984D01*
X30740818Y-42712985D01*
X30810820Y-42731742D01*
X30880822Y-42750499D01*
X30880823Y-42750500D01*
X30880825Y-42750500D01*
X31025777Y-42750500D01*
X31025777Y-42750499D01*
X31058880Y-42741629D01*
X31083447Y-42735047D01*
X31139600Y-42742439D01*
X31174078Y-42787372D01*
X31176600Y-42806525D01*
X31176600Y-47982766D01*
X31154926Y-48035092D01*
X31104592Y-48085426D01*
X31052266Y-48107100D01*
X30955623Y-48107100D01*
X30815618Y-48144614D01*
X30815613Y-48144616D01*
X30690084Y-48217091D01*
X30587591Y-48319584D01*
X30515116Y-48445113D01*
X30515114Y-48445118D01*
X30477600Y-48585122D01*
X30477600Y-48730077D01*
X30515114Y-48870081D01*
X30515116Y-48870086D01*
X30576130Y-48975764D01*
X30587591Y-48995615D01*
X30690085Y-49098109D01*
X30815615Y-49170584D01*
X30815616Y-49170584D01*
X30815618Y-49170585D01*
X30885620Y-49189342D01*
X30955622Y-49208099D01*
X30955623Y-49208100D01*
X30955625Y-49208100D01*
X31100577Y-49208100D01*
X31100577Y-49208099D01*
X31240585Y-49170584D01*
X31366115Y-49098109D01*
X31468609Y-48995615D01*
X31541084Y-48870085D01*
X31553370Y-48824234D01*
X31553371Y-48824231D01*
X32314500Y-48824231D01*
X32314500Y-48975768D01*
X32353717Y-49122130D01*
X32353721Y-49122139D01*
X32403351Y-49208100D01*
X32429485Y-49253365D01*
X32536635Y-49360515D01*
X32667865Y-49436281D01*
X32814231Y-49475499D01*
X32814232Y-49475500D01*
X32814234Y-49475500D01*
X32965768Y-49475500D01*
X32965768Y-49475499D01*
X33112135Y-49436281D01*
X33243365Y-49360515D01*
X33350515Y-49253365D01*
X33414049Y-49143322D01*
X39754500Y-49143322D01*
X39754500Y-49288277D01*
X39792014Y-49428281D01*
X39792016Y-49428286D01*
X39857279Y-49541324D01*
X39864491Y-49553815D01*
X39966985Y-49656309D01*
X40092515Y-49728784D01*
X40092516Y-49728784D01*
X40092518Y-49728785D01*
X40162520Y-49747542D01*
X40232522Y-49766299D01*
X40232523Y-49766300D01*
X40232525Y-49766300D01*
X40377477Y-49766300D01*
X40377477Y-49766299D01*
X40517485Y-49728784D01*
X40643015Y-49656309D01*
X40745509Y-49553815D01*
X40817984Y-49428285D01*
X40855499Y-49288277D01*
X40855500Y-49288277D01*
X40855500Y-49143323D01*
X40855499Y-49143322D01*
X40817985Y-49003318D01*
X40817983Y-49003313D01*
X40749054Y-48883925D01*
X40745509Y-48877785D01*
X40643015Y-48775291D01*
X40588676Y-48743918D01*
X40517486Y-48702816D01*
X40517481Y-48702814D01*
X40377477Y-48665300D01*
X40377475Y-48665300D01*
X40232525Y-48665300D01*
X40232523Y-48665300D01*
X40092518Y-48702814D01*
X40092513Y-48702816D01*
X39966984Y-48775291D01*
X39864491Y-48877784D01*
X39792016Y-49003313D01*
X39792014Y-49003318D01*
X39754500Y-49143322D01*
X33414049Y-49143322D01*
X33426281Y-49122135D01*
X33465500Y-48975766D01*
X33465500Y-48824234D01*
X33465500Y-48824232D01*
X33465499Y-48824231D01*
X33432966Y-48702816D01*
X33426281Y-48677865D01*
X33350515Y-48546635D01*
X33243365Y-48439485D01*
X33243362Y-48439483D01*
X33112139Y-48363721D01*
X33112130Y-48363717D01*
X32965768Y-48324500D01*
X32965766Y-48324500D01*
X32814234Y-48324500D01*
X32814232Y-48324500D01*
X32667869Y-48363717D01*
X32667860Y-48363721D01*
X32536637Y-48439483D01*
X32429483Y-48546637D01*
X32353721Y-48677860D01*
X32353717Y-48677869D01*
X32314500Y-48824231D01*
X31553371Y-48824231D01*
X31559802Y-48800231D01*
X31569166Y-48765279D01*
X31578599Y-48730077D01*
X31578600Y-48730077D01*
X31578600Y-48633434D01*
X31600274Y-48581108D01*
X31685956Y-48495426D01*
X31807570Y-48373812D01*
X31853714Y-48293888D01*
X31863571Y-48257100D01*
X31877600Y-48204744D01*
X31877600Y-46529491D01*
X51850000Y-46529491D01*
X51850000Y-46710508D01*
X51878316Y-46889289D01*
X51878319Y-46889302D01*
X51934251Y-47061443D01*
X52016431Y-47222728D01*
X52057668Y-47279487D01*
X52531980Y-46805174D01*
X52534075Y-46812993D01*
X52599901Y-46927007D01*
X52692993Y-47020099D01*
X52807007Y-47085925D01*
X52814822Y-47088019D01*
X52340511Y-47562331D01*
X52397266Y-47603566D01*
X52558556Y-47685748D01*
X52558555Y-47685748D01*
X52730697Y-47741680D01*
X52730710Y-47741683D01*
X52909491Y-47770000D01*
X53090509Y-47770000D01*
X53269289Y-47741683D01*
X53269302Y-47741680D01*
X53441443Y-47685748D01*
X53602729Y-47603568D01*
X53659487Y-47562331D01*
X53185176Y-47088019D01*
X53192993Y-47085925D01*
X53307007Y-47020099D01*
X53400099Y-46927007D01*
X53465925Y-46812993D01*
X53468019Y-46805176D01*
X53942331Y-47279487D01*
X53983568Y-47222729D01*
X54065748Y-47061443D01*
X54121680Y-46889302D01*
X54121683Y-46889289D01*
X54150000Y-46710508D01*
X54150000Y-46529491D01*
X54121683Y-46350710D01*
X54121680Y-46350697D01*
X54065748Y-46178556D01*
X53983566Y-46017267D01*
X53983566Y-46017266D01*
X53942331Y-45960511D01*
X53468019Y-46434822D01*
X53465925Y-46427007D01*
X53400099Y-46312993D01*
X53307007Y-46219901D01*
X53192993Y-46154075D01*
X53185174Y-46151980D01*
X53659487Y-45677668D01*
X53602728Y-45636431D01*
X53441443Y-45554251D01*
X53441444Y-45554251D01*
X53269302Y-45498319D01*
X53269289Y-45498316D01*
X53090509Y-45470000D01*
X52909491Y-45470000D01*
X52730710Y-45498316D01*
X52730697Y-45498319D01*
X52558558Y-45554250D01*
X52397268Y-45636431D01*
X52340511Y-45677667D01*
X52340511Y-45677668D01*
X52814823Y-46151980D01*
X52807007Y-46154075D01*
X52692993Y-46219901D01*
X52599901Y-46312993D01*
X52534075Y-46427007D01*
X52531980Y-46434823D01*
X52057668Y-45960511D01*
X52057667Y-45960511D01*
X52016431Y-46017268D01*
X51934250Y-46178558D01*
X51878319Y-46350697D01*
X51878316Y-46350710D01*
X51850000Y-46529491D01*
X31877600Y-46529491D01*
X31877600Y-30606384D01*
X32129500Y-30606384D01*
X32129500Y-30793615D01*
X32166025Y-30977244D01*
X32166027Y-30977251D01*
X32235304Y-31144501D01*
X32237678Y-31150231D01*
X32299196Y-31242299D01*
X32334517Y-31295162D01*
X32341698Y-31305908D01*
X32474092Y-31438302D01*
X32629769Y-31542322D01*
X32802749Y-31613973D01*
X32986384Y-31650500D01*
X32986385Y-31650500D01*
X33173615Y-31650500D01*
X33173616Y-31650500D01*
X33357251Y-31613973D01*
X33530231Y-31542322D01*
X33685908Y-31438302D01*
X33818302Y-31305908D01*
X33922322Y-31150231D01*
X33993973Y-30977251D01*
X34030500Y-30793616D01*
X34030500Y-30606384D01*
X34669500Y-30606384D01*
X34669500Y-30793615D01*
X34706025Y-30977244D01*
X34706027Y-30977251D01*
X34775304Y-31144501D01*
X34777678Y-31150231D01*
X34839196Y-31242299D01*
X34874517Y-31295162D01*
X34881698Y-31305908D01*
X35014092Y-31438302D01*
X35169769Y-31542322D01*
X35342749Y-31613973D01*
X35526384Y-31650500D01*
X35526385Y-31650500D01*
X35713615Y-31650500D01*
X35713616Y-31650500D01*
X35897251Y-31613973D01*
X36070231Y-31542322D01*
X36225908Y-31438302D01*
X36358302Y-31305908D01*
X36462322Y-31150231D01*
X36533973Y-30977251D01*
X36570500Y-30793616D01*
X36570500Y-30606384D01*
X36533973Y-30422749D01*
X36462322Y-30249769D01*
X36358302Y-30094092D01*
X36225908Y-29961698D01*
X36070231Y-29857678D01*
X36070228Y-29857676D01*
X36070227Y-29857676D01*
X35897251Y-29786027D01*
X35897244Y-29786025D01*
X35758902Y-29758507D01*
X35713616Y-29749500D01*
X35526384Y-29749500D01*
X35490056Y-29756725D01*
X35342755Y-29786025D01*
X35342748Y-29786027D01*
X35169772Y-29857676D01*
X35014092Y-29961697D01*
X35014091Y-29961699D01*
X34881699Y-30094091D01*
X34881697Y-30094092D01*
X34777676Y-30249772D01*
X34706027Y-30422748D01*
X34706025Y-30422755D01*
X34669500Y-30606384D01*
X34030500Y-30606384D01*
X33993973Y-30422749D01*
X33922322Y-30249769D01*
X33818302Y-30094092D01*
X33685908Y-29961698D01*
X33530231Y-29857678D01*
X33530228Y-29857676D01*
X33530227Y-29857676D01*
X33357251Y-29786027D01*
X33357244Y-29786025D01*
X33218902Y-29758507D01*
X33173616Y-29749500D01*
X32986384Y-29749500D01*
X32950056Y-29756725D01*
X32802755Y-29786025D01*
X32802748Y-29786027D01*
X32629772Y-29857676D01*
X32474092Y-29961697D01*
X32474091Y-29961699D01*
X32341699Y-30094091D01*
X32341697Y-30094092D01*
X32237676Y-30249772D01*
X32166027Y-30422748D01*
X32166025Y-30422755D01*
X32129500Y-30606384D01*
X31877600Y-30606384D01*
X31877600Y-27585327D01*
X36089500Y-27585327D01*
X36089500Y-28734672D01*
X36104034Y-28807740D01*
X36145230Y-28869396D01*
X36159399Y-28890601D01*
X36242260Y-28945966D01*
X36315326Y-28960500D01*
X36315328Y-28960500D01*
X37464672Y-28960500D01*
X37464674Y-28960500D01*
X37537740Y-28945966D01*
X37620601Y-28890601D01*
X37675966Y-28807740D01*
X37690500Y-28734674D01*
X37690500Y-27585326D01*
X37675966Y-27512260D01*
X37620601Y-27429399D01*
X37537740Y-27374034D01*
X37464674Y-27359500D01*
X36315326Y-27359500D01*
X36266615Y-27369189D01*
X36242259Y-27374034D01*
X36159399Y-27429398D01*
X36159398Y-27429399D01*
X36104034Y-27512259D01*
X36104034Y-27512260D01*
X36090915Y-27578215D01*
X36089500Y-27585327D01*
X31877600Y-27585327D01*
X31877600Y-24671256D01*
X31877600Y-24671254D01*
X31877599Y-24671253D01*
X31871334Y-24647873D01*
X31853714Y-24582112D01*
X31807569Y-24502187D01*
X29397174Y-22091792D01*
X29375500Y-22039466D01*
X29375500Y-21942823D01*
X29375499Y-21942822D01*
X29337985Y-21802818D01*
X29337983Y-21802813D01*
X29265508Y-21677284D01*
X29163015Y-21574791D01*
X29037486Y-21502316D01*
X29037481Y-21502314D01*
X28897477Y-21464800D01*
X28897475Y-21464800D01*
X28752525Y-21464800D01*
X28752523Y-21464800D01*
X28612518Y-21502314D01*
X28612513Y-21502316D01*
X28486984Y-21574791D01*
X28384491Y-21677284D01*
X28312016Y-21802813D01*
X28312014Y-21802818D01*
X28274500Y-21942822D01*
X28274500Y-22087777D01*
X28312014Y-22227781D01*
X28312016Y-22227786D01*
X28359635Y-22310263D01*
X28384491Y-22353315D01*
X28486985Y-22455809D01*
X28550643Y-22492562D01*
X28601897Y-22522154D01*
X28612515Y-22528284D01*
X28612516Y-22528284D01*
X28612518Y-22528285D01*
X28633675Y-22533954D01*
X28752522Y-22565799D01*
X28752523Y-22565800D01*
X28752525Y-22565800D01*
X28849166Y-22565800D01*
X28901492Y-22587474D01*
X31154926Y-24840908D01*
X31176600Y-24893234D01*
X31176600Y-29843761D01*
X31154926Y-29896087D01*
X31102600Y-29917761D01*
X31061489Y-29905290D01*
X30990231Y-29857678D01*
X30990229Y-29857677D01*
X30817251Y-29786027D01*
X30817244Y-29786025D01*
X30678902Y-29758507D01*
X30633616Y-29749500D01*
X30446384Y-29749500D01*
X30410056Y-29756725D01*
X30262755Y-29786025D01*
X30262748Y-29786027D01*
X30089772Y-29857676D01*
X29934092Y-29961697D01*
X29934091Y-29961699D01*
X29801699Y-30094091D01*
X29801697Y-30094092D01*
X29697676Y-30249772D01*
X29626027Y-30422748D01*
X29626025Y-30422755D01*
X29589500Y-30606384D01*
X29589500Y-30793615D01*
X29626025Y-30977244D01*
X29626027Y-30977251D01*
X29695304Y-31144501D01*
X29697678Y-31150231D01*
X29759196Y-31242299D01*
X29794517Y-31295162D01*
X29801698Y-31305908D01*
X29934092Y-31438302D01*
X30089769Y-31542322D01*
X30262749Y-31613973D01*
X30446384Y-31650500D01*
X30446385Y-31650500D01*
X30633615Y-31650500D01*
X30633616Y-31650500D01*
X30817251Y-31613973D01*
X30990231Y-31542322D01*
X31061489Y-31494708D01*
X31117037Y-31483660D01*
X31164129Y-31515126D01*
X31176600Y-31556238D01*
X31176600Y-41593474D01*
X31154926Y-41645800D01*
X31102600Y-41667474D01*
X31083448Y-41664953D01*
X31025775Y-41649500D01*
X30929134Y-41649500D01*
X30876808Y-41627826D01*
X24848074Y-35599092D01*
X24826400Y-35546766D01*
X24826400Y-31558242D01*
X24848074Y-31505916D01*
X24900400Y-31484242D01*
X24941508Y-31496712D01*
X25009769Y-31542322D01*
X25182749Y-31613973D01*
X25366384Y-31650500D01*
X25366385Y-31650500D01*
X25553615Y-31650500D01*
X25553616Y-31650500D01*
X25737251Y-31613973D01*
X25910231Y-31542322D01*
X26065908Y-31438302D01*
X26198302Y-31305908D01*
X26302322Y-31150231D01*
X26373973Y-30977251D01*
X26410500Y-30793616D01*
X26410500Y-30606384D01*
X27049500Y-30606384D01*
X27049500Y-30793615D01*
X27086025Y-30977244D01*
X27086027Y-30977251D01*
X27155304Y-31144501D01*
X27157678Y-31150231D01*
X27219196Y-31242299D01*
X27254517Y-31295162D01*
X27261698Y-31305908D01*
X27394092Y-31438302D01*
X27549769Y-31542322D01*
X27722749Y-31613973D01*
X27906384Y-31650500D01*
X27906385Y-31650500D01*
X28093615Y-31650500D01*
X28093616Y-31650500D01*
X28277251Y-31613973D01*
X28450231Y-31542322D01*
X28605908Y-31438302D01*
X28738302Y-31305908D01*
X28842322Y-31150231D01*
X28913973Y-30977251D01*
X28950500Y-30793616D01*
X28950500Y-30606384D01*
X28913973Y-30422749D01*
X28842322Y-30249769D01*
X28738302Y-30094092D01*
X28605908Y-29961698D01*
X28450231Y-29857678D01*
X28450228Y-29857676D01*
X28450227Y-29857676D01*
X28277251Y-29786027D01*
X28277244Y-29786025D01*
X28138902Y-29758507D01*
X28093616Y-29749500D01*
X27906384Y-29749500D01*
X27870056Y-29756725D01*
X27722755Y-29786025D01*
X27722748Y-29786027D01*
X27549772Y-29857676D01*
X27394092Y-29961697D01*
X27394091Y-29961699D01*
X27261699Y-30094091D01*
X27261697Y-30094092D01*
X27157676Y-30249772D01*
X27086027Y-30422748D01*
X27086025Y-30422755D01*
X27049500Y-30606384D01*
X26410500Y-30606384D01*
X26373973Y-30422749D01*
X26302322Y-30249769D01*
X26198302Y-30094092D01*
X26065908Y-29961698D01*
X25910231Y-29857678D01*
X25910228Y-29857676D01*
X25910227Y-29857676D01*
X25737251Y-29786027D01*
X25737244Y-29786025D01*
X25598902Y-29758507D01*
X25553616Y-29749500D01*
X25366384Y-29749500D01*
X25330056Y-29756725D01*
X25182755Y-29786025D01*
X25182748Y-29786027D01*
X25009772Y-29857676D01*
X24941512Y-29903286D01*
X24885963Y-29914335D01*
X24838871Y-29882869D01*
X24826400Y-29841757D01*
X24826400Y-22684533D01*
X24848073Y-22632208D01*
X26677459Y-20802822D01*
X31176400Y-20802822D01*
X31176400Y-20947777D01*
X31213914Y-21087781D01*
X31213916Y-21087786D01*
X31256642Y-21161788D01*
X31286391Y-21213315D01*
X31388885Y-21315809D01*
X31514415Y-21388284D01*
X31514416Y-21388284D01*
X31514418Y-21388285D01*
X31584420Y-21407042D01*
X31654422Y-21425799D01*
X31654423Y-21425800D01*
X31654425Y-21425800D01*
X31799377Y-21425800D01*
X31799377Y-21425799D01*
X31939385Y-21388284D01*
X32064915Y-21315809D01*
X32167409Y-21213315D01*
X32239884Y-21087785D01*
X32277399Y-20947777D01*
X32277400Y-20947777D01*
X32277400Y-20802823D01*
X32277399Y-20802822D01*
X32269542Y-20773501D01*
X32244159Y-20678768D01*
X32239885Y-20662818D01*
X32239883Y-20662813D01*
X32172787Y-20546600D01*
X32167409Y-20537285D01*
X32064915Y-20434791D01*
X32060566Y-20432280D01*
X31939386Y-20362316D01*
X31939381Y-20362314D01*
X31799377Y-20324800D01*
X31799375Y-20324800D01*
X31654425Y-20324800D01*
X31654423Y-20324800D01*
X31514418Y-20362314D01*
X31514413Y-20362316D01*
X31388884Y-20434791D01*
X31286391Y-20537284D01*
X31213916Y-20662813D01*
X31213914Y-20662818D01*
X31176400Y-20802822D01*
X26677459Y-20802822D01*
X29630410Y-17849870D01*
X29682735Y-17828197D01*
X29735061Y-17849871D01*
X29746820Y-17865196D01*
X29765191Y-17897015D01*
X29867685Y-17999509D01*
X29993215Y-18071984D01*
X29993216Y-18071984D01*
X29993218Y-18071985D01*
X30018809Y-18078842D01*
X30133222Y-18109499D01*
X30133223Y-18109500D01*
X30133225Y-18109500D01*
X30229866Y-18109500D01*
X30282192Y-18131174D01*
X38093326Y-25942308D01*
X38115000Y-25994634D01*
X38115000Y-31798528D01*
X38093326Y-31850854D01*
X38041000Y-31872528D01*
X38021847Y-31870006D01*
X37984877Y-31860100D01*
X37984875Y-31860100D01*
X37839925Y-31860100D01*
X37839923Y-31860100D01*
X37699918Y-31897614D01*
X37699913Y-31897616D01*
X37574384Y-31970091D01*
X37471891Y-32072584D01*
X37399416Y-32198113D01*
X37399414Y-32198118D01*
X37361900Y-32338122D01*
X37361900Y-32483077D01*
X37399414Y-32623081D01*
X37399416Y-32623086D01*
X37462872Y-32732993D01*
X37471891Y-32748615D01*
X37574385Y-32851109D01*
X37699915Y-32923584D01*
X37699916Y-32923584D01*
X37699918Y-32923585D01*
X37709797Y-32926232D01*
X37839922Y-32961099D01*
X37839923Y-32961100D01*
X37839925Y-32961100D01*
X37984876Y-32961100D01*
X38001315Y-32956694D01*
X38021846Y-32951193D01*
X38077999Y-32958584D01*
X38112478Y-33003517D01*
X38115000Y-33022671D01*
X38115000Y-42219243D01*
X38129263Y-42272477D01*
X38134093Y-42290500D01*
X38138886Y-42308388D01*
X38185030Y-42388312D01*
X38801431Y-43004712D01*
X38866688Y-43069969D01*
X38866690Y-43069970D01*
X38866691Y-43069971D01*
X38946610Y-43116113D01*
X38946612Y-43116114D01*
X38946613Y-43116114D01*
X38946615Y-43116115D01*
X38991184Y-43128057D01*
X39035753Y-43139999D01*
X39035754Y-43140000D01*
X39035756Y-43140000D01*
X42344046Y-43140000D01*
X42344046Y-43139999D01*
X42433188Y-43116114D01*
X42513112Y-43069970D01*
X42685436Y-42897646D01*
X46699500Y-42897646D01*
X46699500Y-43102353D01*
X46731522Y-43304531D01*
X46731525Y-43304544D01*
X46794777Y-43499213D01*
X46887712Y-43681610D01*
X46961406Y-43783040D01*
X47008034Y-43847219D01*
X47152781Y-43991966D01*
X47244695Y-44058745D01*
X47318389Y-44112287D01*
X47406300Y-44157079D01*
X47500781Y-44205220D01*
X47500783Y-44205220D01*
X47500786Y-44205222D01*
X47695455Y-44268474D01*
X47695461Y-44268475D01*
X47695466Y-44268477D01*
X47796557Y-44284488D01*
X47897646Y-44300500D01*
X47897648Y-44300500D01*
X48102354Y-44300500D01*
X48183224Y-44287690D01*
X48304534Y-44268477D01*
X48304541Y-44268474D01*
X48304544Y-44268474D01*
X48499213Y-44205222D01*
X48499213Y-44205221D01*
X48499219Y-44205220D01*
X48681610Y-44112287D01*
X48845262Y-43993388D01*
X51899500Y-43993388D01*
X51899500Y-44166611D01*
X51926597Y-44337698D01*
X51926600Y-44337711D01*
X51980125Y-44502442D01*
X51980127Y-44502446D01*
X52058767Y-44656787D01*
X52115544Y-44734934D01*
X52160586Y-44796928D01*
X52283072Y-44919414D01*
X52283075Y-44919416D01*
X52283076Y-44919417D01*
X52423212Y-45021232D01*
X52577553Y-45099872D01*
X52577557Y-45099874D01*
X52742288Y-45153399D01*
X52742294Y-45153400D01*
X52742299Y-45153402D01*
X52856359Y-45171467D01*
X52913388Y-45180500D01*
X52913389Y-45180500D01*
X53086612Y-45180500D01*
X53129383Y-45173725D01*
X53257701Y-45153402D01*
X53257708Y-45153399D01*
X53257711Y-45153399D01*
X53422442Y-45099874D01*
X53422442Y-45099873D01*
X53422445Y-45099873D01*
X53576788Y-45021232D01*
X53716928Y-44919414D01*
X53839414Y-44796928D01*
X53941232Y-44656788D01*
X54019873Y-44502445D01*
X54073402Y-44337701D01*
X54100500Y-44166611D01*
X54100500Y-43993389D01*
X54073402Y-43822299D01*
X54073400Y-43822294D01*
X54073399Y-43822288D01*
X54019874Y-43657557D01*
X54019872Y-43657553D01*
X53941232Y-43503212D01*
X53839417Y-43363076D01*
X53839416Y-43363075D01*
X53839414Y-43363072D01*
X53716928Y-43240586D01*
X53716925Y-43240583D01*
X53716923Y-43240582D01*
X53576787Y-43138767D01*
X53422446Y-43060127D01*
X53422442Y-43060125D01*
X53257711Y-43006600D01*
X53257698Y-43006597D01*
X53086612Y-42979500D01*
X53086611Y-42979500D01*
X52913389Y-42979500D01*
X52913388Y-42979500D01*
X52742301Y-43006597D01*
X52742288Y-43006600D01*
X52577557Y-43060125D01*
X52577553Y-43060127D01*
X52423212Y-43138767D01*
X52283076Y-43240582D01*
X52160582Y-43363076D01*
X52058767Y-43503212D01*
X51980127Y-43657553D01*
X51980125Y-43657557D01*
X51926600Y-43822288D01*
X51926597Y-43822301D01*
X51899500Y-43993388D01*
X48845262Y-43993388D01*
X48847219Y-43991966D01*
X48991966Y-43847219D01*
X49112287Y-43681610D01*
X49205220Y-43499219D01*
X49249457Y-43363072D01*
X49268474Y-43304544D01*
X49268474Y-43304541D01*
X49268477Y-43304534D01*
X49298320Y-43116114D01*
X49300500Y-43102353D01*
X49300500Y-42897646D01*
X49277194Y-42750500D01*
X49268477Y-42695466D01*
X49268475Y-42695461D01*
X49268474Y-42695455D01*
X49205222Y-42500786D01*
X49205220Y-42500783D01*
X49205220Y-42500781D01*
X49126277Y-42345847D01*
X49112287Y-42318389D01*
X49023147Y-42195699D01*
X48991966Y-42152781D01*
X48847219Y-42008034D01*
X48783040Y-41961406D01*
X48681610Y-41887712D01*
X48499213Y-41794777D01*
X48304544Y-41731525D01*
X48304531Y-41731522D01*
X48102354Y-41699500D01*
X48102352Y-41699500D01*
X47897648Y-41699500D01*
X47897646Y-41699500D01*
X47695468Y-41731522D01*
X47695455Y-41731525D01*
X47500786Y-41794777D01*
X47318389Y-41887712D01*
X47152785Y-42008031D01*
X47152781Y-42008034D01*
X47008034Y-42152781D01*
X47008031Y-42152784D01*
X47008031Y-42152785D01*
X46887712Y-42318389D01*
X46794777Y-42500786D01*
X46731525Y-42695455D01*
X46731522Y-42695468D01*
X46699500Y-42897646D01*
X42685436Y-42897646D01*
X43365708Y-42217374D01*
X43418034Y-42195700D01*
X43514677Y-42195700D01*
X43514677Y-42195699D01*
X43654685Y-42158184D01*
X43780215Y-42085709D01*
X43882709Y-41983215D01*
X43955184Y-41857685D01*
X43992699Y-41717677D01*
X43992700Y-41717677D01*
X43992700Y-41572723D01*
X43992699Y-41572722D01*
X43960723Y-41453388D01*
X51899500Y-41453388D01*
X51899500Y-41626611D01*
X51926597Y-41797698D01*
X51926600Y-41797711D01*
X51980125Y-41962442D01*
X51980127Y-41962446D01*
X52058767Y-42116787D01*
X52101667Y-42175834D01*
X52160586Y-42256928D01*
X52283072Y-42379414D01*
X52283075Y-42379416D01*
X52283076Y-42379417D01*
X52423212Y-42481232D01*
X52577553Y-42559872D01*
X52577557Y-42559874D01*
X52742288Y-42613399D01*
X52742294Y-42613400D01*
X52742299Y-42613402D01*
X52856359Y-42631467D01*
X52913388Y-42640500D01*
X52913389Y-42640500D01*
X53086612Y-42640500D01*
X53129383Y-42633725D01*
X53257701Y-42613402D01*
X53257708Y-42613399D01*
X53257711Y-42613399D01*
X53422442Y-42559874D01*
X53422442Y-42559873D01*
X53422445Y-42559873D01*
X53576788Y-42481232D01*
X53716928Y-42379414D01*
X53839414Y-42256928D01*
X53941232Y-42116788D01*
X54019873Y-41962445D01*
X54044155Y-41887713D01*
X54073399Y-41797711D01*
X54073399Y-41797708D01*
X54073402Y-41797701D01*
X54100500Y-41626611D01*
X54100500Y-41453389D01*
X54073402Y-41282299D01*
X54073400Y-41282294D01*
X54073399Y-41282288D01*
X54019874Y-41117557D01*
X54019872Y-41117553D01*
X53941232Y-40963212D01*
X53839417Y-40823076D01*
X53839416Y-40823075D01*
X53839414Y-40823072D01*
X53716928Y-40700586D01*
X53716925Y-40700583D01*
X53716923Y-40700582D01*
X53576787Y-40598767D01*
X53422446Y-40520127D01*
X53422442Y-40520125D01*
X53257711Y-40466600D01*
X53257698Y-40466597D01*
X53086612Y-40439500D01*
X53086611Y-40439500D01*
X52913389Y-40439500D01*
X52913388Y-40439500D01*
X52742301Y-40466597D01*
X52742288Y-40466600D01*
X52577557Y-40520125D01*
X52577553Y-40520127D01*
X52423212Y-40598767D01*
X52283076Y-40700582D01*
X52160582Y-40823076D01*
X52058767Y-40963212D01*
X51980127Y-41117553D01*
X51980125Y-41117557D01*
X51926600Y-41282288D01*
X51926597Y-41282301D01*
X51899500Y-41453388D01*
X43960723Y-41453388D01*
X43955184Y-41432715D01*
X43882709Y-41307185D01*
X43780215Y-41204691D01*
X43654686Y-41132216D01*
X43654681Y-41132214D01*
X43514677Y-41094700D01*
X43514675Y-41094700D01*
X43369725Y-41094700D01*
X43369723Y-41094700D01*
X43229718Y-41132214D01*
X43229713Y-41132216D01*
X43104184Y-41204691D01*
X43001691Y-41307184D01*
X42929216Y-41432713D01*
X42929214Y-41432718D01*
X42891700Y-41572722D01*
X42891700Y-41669366D01*
X42870026Y-41721692D01*
X42174392Y-42417326D01*
X42122066Y-42439000D01*
X39913371Y-42439000D01*
X39861045Y-42417326D01*
X39839371Y-42365000D01*
X39841893Y-42345847D01*
X39856723Y-42290500D01*
X39862999Y-42267077D01*
X39863000Y-42267077D01*
X39863000Y-42122123D01*
X39862999Y-42122122D01*
X39861569Y-42116787D01*
X39844242Y-42052120D01*
X39825485Y-41982118D01*
X39825483Y-41982113D01*
X39770980Y-41887712D01*
X39753009Y-41856585D01*
X39684674Y-41788250D01*
X39663000Y-41735924D01*
X39663000Y-37533388D01*
X40899500Y-37533388D01*
X40899500Y-37706611D01*
X40926597Y-37877698D01*
X40926600Y-37877711D01*
X40980125Y-38042442D01*
X40980127Y-38042446D01*
X41058767Y-38196787D01*
X41103906Y-38258916D01*
X41160586Y-38336928D01*
X41283072Y-38459414D01*
X41283075Y-38459416D01*
X41283076Y-38459417D01*
X41423212Y-38561232D01*
X41577553Y-38639872D01*
X41577557Y-38639874D01*
X41742288Y-38693399D01*
X41742294Y-38693400D01*
X41742299Y-38693402D01*
X41856359Y-38711467D01*
X41913388Y-38720500D01*
X41913389Y-38720500D01*
X42086612Y-38720500D01*
X42129383Y-38713725D01*
X42257701Y-38693402D01*
X42257708Y-38693399D01*
X42257711Y-38693399D01*
X42422442Y-38639874D01*
X42422442Y-38639873D01*
X42422445Y-38639873D01*
X42576788Y-38561232D01*
X42716928Y-38459414D01*
X42839414Y-38336928D01*
X42941232Y-38196788D01*
X42977643Y-38125326D01*
X51899500Y-38125326D01*
X51899500Y-39874674D01*
X51914034Y-39947740D01*
X51969399Y-40030601D01*
X52052260Y-40085966D01*
X52125326Y-40100500D01*
X52125328Y-40100500D01*
X53874672Y-40100500D01*
X53874674Y-40100500D01*
X53947740Y-40085966D01*
X54030601Y-40030601D01*
X54085966Y-39947740D01*
X54100500Y-39874674D01*
X54100500Y-38125326D01*
X54085966Y-38052260D01*
X54030601Y-37969399D01*
X53947740Y-37914034D01*
X53874674Y-37899500D01*
X52125326Y-37899500D01*
X52076615Y-37909189D01*
X52052259Y-37914034D01*
X51969399Y-37969398D01*
X51969398Y-37969399D01*
X51914034Y-38052259D01*
X51914034Y-38052260D01*
X51899500Y-38125326D01*
X42977643Y-38125326D01*
X42996614Y-38088094D01*
X43019868Y-38042456D01*
X43019874Y-38042442D01*
X43073399Y-37877711D01*
X43073399Y-37877708D01*
X43073402Y-37877701D01*
X43100500Y-37706611D01*
X43100500Y-37533389D01*
X43073402Y-37362299D01*
X43073400Y-37362294D01*
X43073399Y-37362288D01*
X43019874Y-37197557D01*
X43019872Y-37197553D01*
X42941232Y-37043212D01*
X42839417Y-36903076D01*
X42839416Y-36903075D01*
X42839414Y-36903072D01*
X42716928Y-36780586D01*
X42716925Y-36780583D01*
X42716923Y-36780582D01*
X42576787Y-36678767D01*
X42422446Y-36600127D01*
X42422442Y-36600125D01*
X42257711Y-36546600D01*
X42257698Y-36546597D01*
X42086612Y-36519500D01*
X42086611Y-36519500D01*
X41913389Y-36519500D01*
X41913388Y-36519500D01*
X41742301Y-36546597D01*
X41742288Y-36546600D01*
X41577557Y-36600125D01*
X41577553Y-36600127D01*
X41423212Y-36678767D01*
X41283076Y-36780582D01*
X41160582Y-36903076D01*
X41058767Y-37043212D01*
X40980127Y-37197553D01*
X40980125Y-37197557D01*
X40926600Y-37362288D01*
X40926597Y-37362301D01*
X40899500Y-37533388D01*
X39663000Y-37533388D01*
X39663000Y-36368734D01*
X39684674Y-36316408D01*
X40204159Y-35796923D01*
X40787914Y-35213167D01*
X40840239Y-35191494D01*
X40892565Y-35213168D01*
X40913328Y-35253918D01*
X40926597Y-35337698D01*
X40926600Y-35337711D01*
X40980125Y-35502442D01*
X40980127Y-35502446D01*
X41058767Y-35656787D01*
X41089280Y-35698785D01*
X41160586Y-35796928D01*
X41283072Y-35919414D01*
X41283075Y-35919416D01*
X41283076Y-35919417D01*
X41423212Y-36021232D01*
X41577553Y-36099872D01*
X41577557Y-36099874D01*
X41742288Y-36153399D01*
X41742294Y-36153400D01*
X41742299Y-36153402D01*
X41825300Y-36166548D01*
X41913388Y-36180500D01*
X41913389Y-36180500D01*
X42086612Y-36180500D01*
X42129383Y-36173725D01*
X42257701Y-36153402D01*
X42257708Y-36153399D01*
X42257711Y-36153399D01*
X42422442Y-36099874D01*
X42422442Y-36099873D01*
X42422445Y-36099873D01*
X42576788Y-36021232D01*
X42716928Y-35919414D01*
X42839414Y-35796928D01*
X42941232Y-35656788D01*
X43019873Y-35502445D01*
X43048669Y-35413822D01*
X43073399Y-35337711D01*
X43073399Y-35337708D01*
X43073402Y-35337701D01*
X43100500Y-35166611D01*
X43100500Y-34993389D01*
X43097320Y-34973314D01*
X43081862Y-34875715D01*
X43073402Y-34822299D01*
X43073400Y-34822294D01*
X43073399Y-34822288D01*
X43019874Y-34657557D01*
X43019872Y-34657553D01*
X42941232Y-34503212D01*
X42839417Y-34363076D01*
X42839416Y-34363075D01*
X42839414Y-34363072D01*
X42716928Y-34240586D01*
X42621586Y-34171316D01*
X42591994Y-34123026D01*
X42605216Y-34067954D01*
X42612751Y-34059130D01*
X43319755Y-33352126D01*
X50749500Y-33352126D01*
X50749500Y-34647873D01*
X50755909Y-34707485D01*
X50806202Y-34842329D01*
X50806203Y-34842330D01*
X50806204Y-34842331D01*
X50892454Y-34957546D01*
X51007669Y-35043796D01*
X51007670Y-35043797D01*
X51118605Y-35085172D01*
X51142517Y-35094091D01*
X51202127Y-35100500D01*
X52797872Y-35100499D01*
X52857483Y-35094091D01*
X52973861Y-35050685D01*
X52992329Y-35043797D01*
X52992329Y-35043796D01*
X52992331Y-35043796D01*
X53107546Y-34957546D01*
X53193796Y-34842331D01*
X53201268Y-34822299D01*
X53228164Y-34750185D01*
X53244091Y-34707483D01*
X53250500Y-34647873D01*
X53250499Y-33352128D01*
X53244091Y-33292517D01*
X53244089Y-33292512D01*
X53193797Y-33157670D01*
X53193796Y-33157669D01*
X53182611Y-33142728D01*
X53107546Y-33042454D01*
X52998870Y-32961099D01*
X52992330Y-32956203D01*
X52992329Y-32956202D01*
X52857487Y-32905910D01*
X52857484Y-32905909D01*
X52857483Y-32905909D01*
X52797873Y-32899500D01*
X51202126Y-32899500D01*
X51142514Y-32905909D01*
X51007670Y-32956202D01*
X51007669Y-32956203D01*
X50892454Y-33042454D01*
X50806203Y-33157669D01*
X50806202Y-33157670D01*
X50755910Y-33292512D01*
X50755909Y-33292517D01*
X50749500Y-33352126D01*
X43319755Y-33352126D01*
X45258494Y-31413388D01*
X50749500Y-31413388D01*
X50749500Y-31586611D01*
X50776597Y-31757698D01*
X50776600Y-31757711D01*
X50830125Y-31922442D01*
X50830127Y-31922446D01*
X50908767Y-32076787D01*
X50996919Y-32198118D01*
X51010586Y-32216928D01*
X51133072Y-32339414D01*
X51133075Y-32339416D01*
X51133076Y-32339417D01*
X51273212Y-32441232D01*
X51427553Y-32519872D01*
X51427557Y-32519874D01*
X51592288Y-32573399D01*
X51592294Y-32573400D01*
X51592299Y-32573402D01*
X51706359Y-32591467D01*
X51763388Y-32600500D01*
X51763389Y-32600500D01*
X52236612Y-32600500D01*
X52279383Y-32593725D01*
X52407701Y-32573402D01*
X52407708Y-32573399D01*
X52407711Y-32573399D01*
X52572442Y-32519874D01*
X52572442Y-32519873D01*
X52572445Y-32519873D01*
X52726788Y-32441232D01*
X52866928Y-32339414D01*
X52989414Y-32216928D01*
X53091232Y-32076788D01*
X53169873Y-31922445D01*
X53169874Y-31922442D01*
X53223399Y-31757711D01*
X53223399Y-31757708D01*
X53223402Y-31757701D01*
X53250500Y-31586611D01*
X53250500Y-31413389D01*
X53223402Y-31242299D01*
X53223400Y-31242294D01*
X53223399Y-31242288D01*
X53169874Y-31077557D01*
X53169872Y-31077553D01*
X53091232Y-30923212D01*
X52989417Y-30783076D01*
X52989416Y-30783075D01*
X52989414Y-30783072D01*
X52866928Y-30660586D01*
X52866925Y-30660583D01*
X52866923Y-30660582D01*
X52726787Y-30558767D01*
X52572446Y-30480127D01*
X52572442Y-30480125D01*
X52407711Y-30426600D01*
X52407698Y-30426597D01*
X52236612Y-30399500D01*
X52236611Y-30399500D01*
X51763389Y-30399500D01*
X51763388Y-30399500D01*
X51592301Y-30426597D01*
X51592288Y-30426600D01*
X51427557Y-30480125D01*
X51427553Y-30480127D01*
X51273212Y-30558767D01*
X51133076Y-30660582D01*
X51010582Y-30783076D01*
X50908767Y-30923212D01*
X50830127Y-31077553D01*
X50830125Y-31077557D01*
X50776600Y-31242288D01*
X50776597Y-31242301D01*
X50749500Y-31413388D01*
X45258494Y-31413388D01*
X45401570Y-31270312D01*
X45447714Y-31190388D01*
X45460008Y-31144505D01*
X45471600Y-31101244D01*
X45471600Y-23352126D01*
X50749500Y-23352126D01*
X50749500Y-24647873D01*
X50755909Y-24707485D01*
X50806202Y-24842329D01*
X50806203Y-24842330D01*
X50821364Y-24862582D01*
X50892454Y-24957546D01*
X50946777Y-24998212D01*
X51007669Y-25043796D01*
X51007670Y-25043797D01*
X51118605Y-25085172D01*
X51142517Y-25094091D01*
X51202127Y-25100500D01*
X52797872Y-25100499D01*
X52857483Y-25094091D01*
X52924907Y-25068943D01*
X52992329Y-25043797D01*
X52992329Y-25043796D01*
X52992331Y-25043796D01*
X53107546Y-24957546D01*
X53193796Y-24842331D01*
X53202312Y-24819500D01*
X53210561Y-24797381D01*
X53244091Y-24707483D01*
X53250500Y-24647873D01*
X53250499Y-23352128D01*
X53244091Y-23292517D01*
X53215639Y-23216233D01*
X53193797Y-23157670D01*
X53193796Y-23157669D01*
X53158322Y-23110282D01*
X53107546Y-23042454D01*
X52992331Y-22956204D01*
X52992330Y-22956203D01*
X52992329Y-22956202D01*
X52857487Y-22905910D01*
X52857484Y-22905909D01*
X52857483Y-22905909D01*
X52797873Y-22899500D01*
X51202126Y-22899500D01*
X51142514Y-22905909D01*
X51007670Y-22956202D01*
X51007669Y-22956203D01*
X50892454Y-23042454D01*
X50806203Y-23157669D01*
X50806202Y-23157670D01*
X50755910Y-23292512D01*
X50755909Y-23292517D01*
X50749500Y-23352126D01*
X45471600Y-23352126D01*
X45471600Y-18568456D01*
X45471600Y-18568454D01*
X45471599Y-18568453D01*
X45447715Y-18479315D01*
X45447713Y-18479310D01*
X45401571Y-18399391D01*
X45401570Y-18399390D01*
X45401569Y-18399388D01*
X45336312Y-18334131D01*
X44619409Y-17617227D01*
X44597735Y-17564901D01*
X44619409Y-17512575D01*
X44628239Y-17505033D01*
X44659486Y-17482330D01*
X44185176Y-17008019D01*
X44192993Y-17005925D01*
X44307007Y-16940099D01*
X44400099Y-16847007D01*
X44465925Y-16732993D01*
X44468019Y-16725176D01*
X44942331Y-17199487D01*
X44983568Y-17142729D01*
X45065748Y-16981443D01*
X45121680Y-16809302D01*
X45121683Y-16809289D01*
X45150000Y-16630508D01*
X45150000Y-16449491D01*
X45121683Y-16270710D01*
X45121680Y-16270697D01*
X45065748Y-16098556D01*
X44983566Y-15937267D01*
X44983566Y-15937266D01*
X44942331Y-15880511D01*
X44468019Y-16354822D01*
X44465925Y-16347007D01*
X44400099Y-16232993D01*
X44307007Y-16139901D01*
X44192993Y-16074075D01*
X44185174Y-16071980D01*
X44659487Y-15597668D01*
X44602728Y-15556431D01*
X44441443Y-15474251D01*
X44441444Y-15474251D01*
X44269302Y-15418319D01*
X44269289Y-15418316D01*
X44090509Y-15390000D01*
X43909491Y-15390000D01*
X43730710Y-15418316D01*
X43730697Y-15418319D01*
X43558558Y-15474250D01*
X43397268Y-15556431D01*
X43340511Y-15597667D01*
X43340511Y-15597668D01*
X43814823Y-16071980D01*
X43807007Y-16074075D01*
X43692993Y-16139901D01*
X43599901Y-16232993D01*
X43534075Y-16347007D01*
X43531980Y-16354822D01*
X43057668Y-15880511D01*
X43057667Y-15880511D01*
X43016431Y-15937268D01*
X42934250Y-16098558D01*
X42878319Y-16270697D01*
X42878317Y-16270708D01*
X42871636Y-16312890D01*
X42842043Y-16361181D01*
X42786970Y-16374402D01*
X42746221Y-16353639D01*
X41073374Y-14680792D01*
X41051700Y-14628466D01*
X41051700Y-13125326D01*
X42899500Y-13125326D01*
X42899500Y-14874674D01*
X42912412Y-14939586D01*
X42914034Y-14947740D01*
X42961989Y-15019512D01*
X42969399Y-15030601D01*
X43052260Y-15085966D01*
X43125326Y-15100500D01*
X43125328Y-15100500D01*
X44874672Y-15100500D01*
X44874674Y-15100500D01*
X44947740Y-15085966D01*
X45030601Y-15030601D01*
X45085966Y-14947740D01*
X45100500Y-14874674D01*
X45100500Y-13352126D01*
X50749500Y-13352126D01*
X50749500Y-14647873D01*
X50755909Y-14707485D01*
X50806202Y-14842329D01*
X50806203Y-14842330D01*
X50812277Y-14850444D01*
X50892454Y-14957546D01*
X50990043Y-15030601D01*
X51007669Y-15043796D01*
X51007670Y-15043797D01*
X51106938Y-15080821D01*
X51142517Y-15094091D01*
X51202127Y-15100500D01*
X52797872Y-15100499D01*
X52857483Y-15094091D01*
X52924907Y-15068943D01*
X52992329Y-15043797D01*
X52992329Y-15043796D01*
X52992331Y-15043796D01*
X53107546Y-14957546D01*
X53193796Y-14842331D01*
X53195333Y-14838212D01*
X53228008Y-14750603D01*
X53244091Y-14707483D01*
X53250500Y-14647873D01*
X53250499Y-13352128D01*
X53244091Y-13292517D01*
X53244089Y-13292512D01*
X53193797Y-13157670D01*
X53193796Y-13157669D01*
X53179777Y-13138942D01*
X53107546Y-13042454D01*
X52992331Y-12956204D01*
X52992330Y-12956203D01*
X52992329Y-12956202D01*
X52857487Y-12905910D01*
X52857484Y-12905909D01*
X52857483Y-12905909D01*
X52797873Y-12899500D01*
X51202126Y-12899500D01*
X51142514Y-12905909D01*
X51007670Y-12956202D01*
X51007669Y-12956203D01*
X50892454Y-13042454D01*
X50806203Y-13157669D01*
X50806202Y-13157670D01*
X50755910Y-13292512D01*
X50755909Y-13292517D01*
X50749500Y-13352126D01*
X45100500Y-13352126D01*
X45100500Y-13125326D01*
X45085966Y-13052260D01*
X45030601Y-12969399D01*
X45010851Y-12956203D01*
X44947740Y-12914034D01*
X44874674Y-12899500D01*
X43125326Y-12899500D01*
X43076615Y-12909189D01*
X43052259Y-12914034D01*
X42969399Y-12969398D01*
X42969398Y-12969399D01*
X42914034Y-13052259D01*
X42914034Y-13052260D01*
X42899500Y-13125326D01*
X41051700Y-13125326D01*
X41051700Y-11605054D01*
X41051699Y-11605053D01*
X41027815Y-11515915D01*
X41027813Y-11515910D01*
X40988306Y-11447482D01*
X40981669Y-11435987D01*
X40959070Y-11413388D01*
X50749500Y-11413388D01*
X50749500Y-11586611D01*
X50776597Y-11757698D01*
X50776600Y-11757711D01*
X50830125Y-11922442D01*
X50830127Y-11922446D01*
X50908767Y-12076787D01*
X51005992Y-12210606D01*
X51010586Y-12216928D01*
X51133072Y-12339414D01*
X51133075Y-12339416D01*
X51133076Y-12339417D01*
X51273212Y-12441232D01*
X51427553Y-12519872D01*
X51427557Y-12519874D01*
X51592288Y-12573399D01*
X51592294Y-12573400D01*
X51592299Y-12573402D01*
X51706359Y-12591467D01*
X51763388Y-12600500D01*
X51763389Y-12600500D01*
X52236612Y-12600500D01*
X52279383Y-12593725D01*
X52407701Y-12573402D01*
X52407708Y-12573399D01*
X52407711Y-12573399D01*
X52572442Y-12519874D01*
X52572442Y-12519873D01*
X52572445Y-12519873D01*
X52726788Y-12441232D01*
X52866928Y-12339414D01*
X52989414Y-12216928D01*
X53091232Y-12076788D01*
X53169873Y-11922445D01*
X53223402Y-11757701D01*
X53250500Y-11586611D01*
X53250500Y-11413389D01*
X53223402Y-11242299D01*
X53223400Y-11242294D01*
X53223399Y-11242288D01*
X53169874Y-11077557D01*
X53169872Y-11077553D01*
X53091232Y-10923212D01*
X52989417Y-10783076D01*
X52989416Y-10783075D01*
X52989414Y-10783072D01*
X52866928Y-10660586D01*
X52866925Y-10660583D01*
X52866923Y-10660582D01*
X52726787Y-10558767D01*
X52572446Y-10480127D01*
X52572442Y-10480125D01*
X52407711Y-10426600D01*
X52407698Y-10426597D01*
X52236612Y-10399500D01*
X52236611Y-10399500D01*
X51763389Y-10399500D01*
X51763388Y-10399500D01*
X51592301Y-10426597D01*
X51592288Y-10426600D01*
X51427557Y-10480125D01*
X51427553Y-10480127D01*
X51273212Y-10558767D01*
X51133076Y-10660582D01*
X51010582Y-10783076D01*
X50908767Y-10923212D01*
X50830127Y-11077553D01*
X50830125Y-11077557D01*
X50776600Y-11242288D01*
X50776597Y-11242301D01*
X50749500Y-11413388D01*
X40959070Y-11413388D01*
X37680976Y-8135294D01*
X37659302Y-8082968D01*
X37660723Y-8068539D01*
X37690500Y-7918842D01*
X37690500Y-7761158D01*
X37659737Y-7606503D01*
X37599394Y-7460821D01*
X37511789Y-7329711D01*
X37400289Y-7218211D01*
X37269179Y-7130606D01*
X37269175Y-7130604D01*
X37269173Y-7130603D01*
X37269174Y-7130603D01*
X37123501Y-7070264D01*
X37123491Y-7070261D01*
X37019925Y-7049661D01*
X36968842Y-7039500D01*
X36811158Y-7039500D01*
X36767315Y-7048220D01*
X36656508Y-7070261D01*
X36656498Y-7070264D01*
X36510825Y-7130603D01*
X36379711Y-7218210D01*
X36379710Y-7218212D01*
X36268212Y-7329710D01*
X36268210Y-7329711D01*
X36180603Y-7460825D01*
X36120264Y-7606498D01*
X36120261Y-7606508D01*
X36089500Y-7761159D01*
X36089500Y-7918840D01*
X36120261Y-8073491D01*
X36120264Y-8073501D01*
X36180603Y-8219174D01*
X36180605Y-8219177D01*
X36180606Y-8219179D01*
X36268211Y-8350289D01*
X36379711Y-8461789D01*
X36510821Y-8549394D01*
X36510826Y-8549396D01*
X36510825Y-8549396D01*
X36627822Y-8597857D01*
X36656503Y-8609737D01*
X36811158Y-8640500D01*
X36811160Y-8640500D01*
X36968840Y-8640500D01*
X36968842Y-8640500D01*
X37118533Y-8610724D01*
X37174080Y-8621773D01*
X37185294Y-8630976D01*
X40329026Y-11774708D01*
X40350700Y-11827034D01*
X40350700Y-14850443D01*
X40368270Y-14916018D01*
X40374585Y-14939586D01*
X40374588Y-14939592D01*
X40420730Y-15019512D01*
X43429580Y-18028362D01*
X43451254Y-18080688D01*
X43429580Y-18133014D01*
X43420751Y-18140555D01*
X43283070Y-18240587D01*
X43283067Y-18240591D01*
X43160582Y-18363076D01*
X43058767Y-18503212D01*
X42980127Y-18657553D01*
X42980125Y-18657557D01*
X42926600Y-18822288D01*
X42926597Y-18822301D01*
X42899500Y-18993388D01*
X42899500Y-19166611D01*
X42926597Y-19337698D01*
X42926600Y-19337711D01*
X42980125Y-19502442D01*
X42980127Y-19502446D01*
X43058767Y-19656787D01*
X43141212Y-19770263D01*
X43160586Y-19796928D01*
X43283072Y-19919414D01*
X43283075Y-19919416D01*
X43283076Y-19919417D01*
X43423212Y-20021232D01*
X43577553Y-20099872D01*
X43577557Y-20099874D01*
X43742288Y-20153399D01*
X43742294Y-20153400D01*
X43742299Y-20153402D01*
X43856359Y-20171467D01*
X43913388Y-20180500D01*
X43913389Y-20180500D01*
X44086612Y-20180500D01*
X44129383Y-20173725D01*
X44257701Y-20153402D01*
X44257708Y-20153399D01*
X44257711Y-20153399D01*
X44422442Y-20099874D01*
X44422442Y-20099873D01*
X44422445Y-20099873D01*
X44576788Y-20021232D01*
X44653106Y-19965783D01*
X44708175Y-19952562D01*
X44756467Y-19982154D01*
X44770600Y-20025651D01*
X44770600Y-20674348D01*
X44748926Y-20726674D01*
X44696600Y-20748348D01*
X44653104Y-20734215D01*
X44576787Y-20678767D01*
X44422446Y-20600127D01*
X44422442Y-20600125D01*
X44257711Y-20546600D01*
X44257698Y-20546597D01*
X44086612Y-20519500D01*
X44086611Y-20519500D01*
X43913389Y-20519500D01*
X43913388Y-20519500D01*
X43742301Y-20546597D01*
X43742288Y-20546600D01*
X43577557Y-20600125D01*
X43577553Y-20600127D01*
X43423212Y-20678767D01*
X43283076Y-20780582D01*
X43160582Y-20903076D01*
X43058767Y-21043212D01*
X42980127Y-21197553D01*
X42980125Y-21197557D01*
X42926600Y-21362288D01*
X42926597Y-21362301D01*
X42899500Y-21533388D01*
X42899500Y-21706611D01*
X42926597Y-21877698D01*
X42926600Y-21877711D01*
X42980125Y-22042442D01*
X42980127Y-22042446D01*
X43058767Y-22196787D01*
X43141212Y-22310263D01*
X43160586Y-22336928D01*
X43283072Y-22459414D01*
X43283075Y-22459416D01*
X43283076Y-22459417D01*
X43423212Y-22561232D01*
X43577553Y-22639872D01*
X43577557Y-22639874D01*
X43742288Y-22693399D01*
X43742294Y-22693400D01*
X43742299Y-22693402D01*
X43856359Y-22711467D01*
X43913388Y-22720500D01*
X43913389Y-22720500D01*
X44086612Y-22720500D01*
X44129383Y-22713725D01*
X44257701Y-22693402D01*
X44257708Y-22693399D01*
X44257711Y-22693399D01*
X44422442Y-22639874D01*
X44422442Y-22639873D01*
X44422445Y-22639873D01*
X44576788Y-22561232D01*
X44653106Y-22505783D01*
X44708175Y-22492562D01*
X44756467Y-22522154D01*
X44770600Y-22565651D01*
X44770600Y-30879266D01*
X44748926Y-30931592D01*
X43263773Y-32416744D01*
X43211447Y-32438418D01*
X43159121Y-32416744D01*
X43138358Y-32375994D01*
X43121683Y-32270710D01*
X43121680Y-32270697D01*
X43065748Y-32098556D01*
X42983566Y-31937267D01*
X42983566Y-31937266D01*
X42942331Y-31880511D01*
X42468019Y-32354822D01*
X42465925Y-32347007D01*
X42400099Y-32232993D01*
X42307007Y-32139901D01*
X42192993Y-32074075D01*
X42185174Y-32071980D01*
X42659487Y-31597668D01*
X42602728Y-31556431D01*
X42441443Y-31474251D01*
X42441444Y-31474251D01*
X42269302Y-31418319D01*
X42269289Y-31418316D01*
X42090509Y-31390000D01*
X41909491Y-31390000D01*
X41730710Y-31418316D01*
X41730697Y-31418319D01*
X41558558Y-31474250D01*
X41397268Y-31556431D01*
X41340511Y-31597667D01*
X41340511Y-31597668D01*
X41814823Y-32071980D01*
X41807007Y-32074075D01*
X41692993Y-32139901D01*
X41599901Y-32232993D01*
X41534075Y-32347007D01*
X41531980Y-32354823D01*
X41057668Y-31880511D01*
X41057667Y-31880511D01*
X41016431Y-31937268D01*
X40934250Y-32098558D01*
X40878319Y-32270697D01*
X40878316Y-32270710D01*
X40850000Y-32449491D01*
X40850000Y-32630508D01*
X40878316Y-32809289D01*
X40878319Y-32809302D01*
X40934251Y-32981443D01*
X41016431Y-33142728D01*
X41057668Y-33199487D01*
X41531980Y-32725174D01*
X41534075Y-32732993D01*
X41599901Y-32847007D01*
X41692993Y-32940099D01*
X41807007Y-33005925D01*
X41814822Y-33008019D01*
X41340511Y-33482331D01*
X41378652Y-33510042D01*
X41408244Y-33558333D01*
X41395022Y-33613406D01*
X41387481Y-33622235D01*
X39032030Y-35977687D01*
X39006890Y-36021232D01*
X38985886Y-36057610D01*
X38985884Y-36057615D01*
X38961478Y-36148701D01*
X38927000Y-36193634D01*
X38870847Y-36201026D01*
X38825914Y-36166548D01*
X38816000Y-36129548D01*
X38816000Y-29125326D01*
X40899500Y-29125326D01*
X40899500Y-30874674D01*
X40906511Y-30909918D01*
X40914034Y-30947740D01*
X40933747Y-30977244D01*
X40969399Y-31030601D01*
X41052260Y-31085966D01*
X41125326Y-31100500D01*
X41125328Y-31100500D01*
X42874672Y-31100500D01*
X42874674Y-31100500D01*
X42947740Y-31085966D01*
X43030601Y-31030601D01*
X43085966Y-30947740D01*
X43100500Y-30874674D01*
X43100500Y-29125326D01*
X43085966Y-29052260D01*
X43030601Y-28969399D01*
X43017282Y-28960500D01*
X42947740Y-28914034D01*
X42874674Y-28899500D01*
X41125326Y-28899500D01*
X41076615Y-28909189D01*
X41052259Y-28914034D01*
X40969399Y-28969398D01*
X40969398Y-28969399D01*
X40914034Y-29052259D01*
X40914034Y-29052260D01*
X40899500Y-29125326D01*
X38816000Y-29125326D01*
X38816000Y-25772654D01*
X38815999Y-25772653D01*
X38792115Y-25683515D01*
X38792113Y-25683510D01*
X38745969Y-25603587D01*
X37108909Y-23966527D01*
X37087235Y-23914201D01*
X37108909Y-23861875D01*
X37132912Y-23845836D01*
X37269179Y-23789394D01*
X37400289Y-23701789D01*
X37511789Y-23590289D01*
X37599394Y-23459179D01*
X37659737Y-23313497D01*
X37690500Y-23158842D01*
X37690500Y-23001158D01*
X37659737Y-22846503D01*
X37655835Y-22837082D01*
X37599396Y-22700825D01*
X37599395Y-22700823D01*
X37599394Y-22700821D01*
X37511789Y-22569711D01*
X37400289Y-22458211D01*
X37396694Y-22455809D01*
X37367842Y-22436530D01*
X37269179Y-22370606D01*
X37269175Y-22370604D01*
X37269173Y-22370603D01*
X37269174Y-22370603D01*
X37123501Y-22310264D01*
X37123491Y-22310261D01*
X37019925Y-22289661D01*
X36968842Y-22279500D01*
X36811158Y-22279500D01*
X36767315Y-22288220D01*
X36656508Y-22310261D01*
X36656498Y-22310264D01*
X36510825Y-22370603D01*
X36379711Y-22458210D01*
X36379710Y-22458212D01*
X36268212Y-22569710D01*
X36268210Y-22569711D01*
X36180603Y-22700825D01*
X36124165Y-22837082D01*
X36084117Y-22877131D01*
X36027480Y-22877131D01*
X36003472Y-22861090D01*
X30777874Y-17635492D01*
X30756200Y-17583166D01*
X30756200Y-17486523D01*
X30756199Y-17486522D01*
X30751745Y-17469901D01*
X30718684Y-17346515D01*
X30646209Y-17220985D01*
X30543715Y-17118491D01*
X30511896Y-17100120D01*
X30477418Y-17055188D01*
X30484811Y-16999035D01*
X30496567Y-16983713D01*
X32070182Y-15410098D01*
X32122507Y-15388425D01*
X32174833Y-15410099D01*
X32193984Y-15443271D01*
X32195007Y-15447088D01*
X32195516Y-15448986D01*
X32267991Y-15574515D01*
X32336326Y-15642850D01*
X32358000Y-15695176D01*
X32358000Y-16404646D01*
X32381884Y-16493784D01*
X32381886Y-16493789D01*
X32428030Y-16573712D01*
X36099023Y-20244705D01*
X36120697Y-20297031D01*
X36119275Y-20311467D01*
X36089500Y-20461158D01*
X36089500Y-20618840D01*
X36120261Y-20773491D01*
X36120264Y-20773501D01*
X36180603Y-20919174D01*
X36258517Y-21035782D01*
X36268211Y-21050289D01*
X36379711Y-21161789D01*
X36510821Y-21249394D01*
X36510826Y-21249396D01*
X36510825Y-21249396D01*
X36623254Y-21295965D01*
X36656503Y-21309737D01*
X36811158Y-21340500D01*
X36811160Y-21340500D01*
X36968840Y-21340500D01*
X36968842Y-21340500D01*
X37123497Y-21309737D01*
X37269179Y-21249394D01*
X37400289Y-21161789D01*
X37511789Y-21050289D01*
X37599394Y-20919179D01*
X37659737Y-20773497D01*
X37690500Y-20618842D01*
X37690500Y-20461158D01*
X37659737Y-20306503D01*
X37621705Y-20214684D01*
X37599396Y-20160825D01*
X37599395Y-20160823D01*
X37599394Y-20160821D01*
X37511789Y-20029711D01*
X37400289Y-19918211D01*
X37269179Y-19830606D01*
X37269175Y-19830604D01*
X37269173Y-19830603D01*
X37269174Y-19830603D01*
X37123501Y-19770264D01*
X37123491Y-19770261D01*
X37016717Y-19749023D01*
X36968842Y-19739500D01*
X36811158Y-19739500D01*
X36773527Y-19746985D01*
X36661467Y-19769275D01*
X36605919Y-19758226D01*
X36594705Y-19749023D01*
X34766840Y-17921158D01*
X36089500Y-17921158D01*
X36089500Y-18078842D01*
X36091813Y-18090470D01*
X36120261Y-18233491D01*
X36120264Y-18233501D01*
X36180603Y-18379174D01*
X36180605Y-18379177D01*
X36180606Y-18379179D01*
X36268211Y-18510289D01*
X36379711Y-18621789D01*
X36510821Y-18709394D01*
X36510826Y-18709396D01*
X36510825Y-18709396D01*
X36655846Y-18769465D01*
X36656503Y-18769737D01*
X36811158Y-18800500D01*
X36811160Y-18800500D01*
X36968840Y-18800500D01*
X36968842Y-18800500D01*
X37123497Y-18769737D01*
X37269179Y-18709394D01*
X37400289Y-18621789D01*
X37511789Y-18510289D01*
X37599394Y-18379179D01*
X37659737Y-18233497D01*
X37690500Y-18078842D01*
X37690500Y-17921158D01*
X37659737Y-17766503D01*
X37599394Y-17620821D01*
X37511789Y-17489711D01*
X37400289Y-17378211D01*
X37269179Y-17290606D01*
X37269175Y-17290604D01*
X37269173Y-17290603D01*
X37269174Y-17290603D01*
X37123501Y-17230264D01*
X37123491Y-17230261D01*
X37019925Y-17209661D01*
X36968842Y-17199500D01*
X36811158Y-17199500D01*
X36777460Y-17206203D01*
X36656508Y-17230261D01*
X36656498Y-17230264D01*
X36510825Y-17290603D01*
X36379711Y-17378210D01*
X36379710Y-17378212D01*
X36268212Y-17489710D01*
X36268210Y-17489711D01*
X36180603Y-17620825D01*
X36120264Y-17766498D01*
X36120261Y-17766508D01*
X36111657Y-17809766D01*
X36089500Y-17921158D01*
X34766840Y-17921158D01*
X33080674Y-16234992D01*
X33059000Y-16182666D01*
X33059000Y-15695176D01*
X33080674Y-15642850D01*
X33149009Y-15574515D01*
X33221484Y-15448985D01*
X33231904Y-15410099D01*
X33239659Y-15381159D01*
X36089500Y-15381159D01*
X36089500Y-15538840D01*
X36120261Y-15693491D01*
X36120264Y-15693501D01*
X36180603Y-15839174D01*
X36180605Y-15839177D01*
X36180606Y-15839179D01*
X36268211Y-15970289D01*
X36379711Y-16081789D01*
X36510821Y-16169394D01*
X36510826Y-16169396D01*
X36510825Y-16169396D01*
X36656498Y-16229735D01*
X36656503Y-16229737D01*
X36811158Y-16260500D01*
X36811160Y-16260500D01*
X36968840Y-16260500D01*
X36968842Y-16260500D01*
X37123497Y-16229737D01*
X37269179Y-16169394D01*
X37400289Y-16081789D01*
X37511789Y-15970289D01*
X37599394Y-15839179D01*
X37659737Y-15693497D01*
X37690500Y-15538842D01*
X37690500Y-15381158D01*
X37659737Y-15226503D01*
X37627217Y-15147991D01*
X37599396Y-15080825D01*
X37599395Y-15080823D01*
X37599394Y-15080821D01*
X37511789Y-14949711D01*
X37400289Y-14838211D01*
X37269179Y-14750606D01*
X37269175Y-14750604D01*
X37269173Y-14750603D01*
X37269174Y-14750603D01*
X37123501Y-14690264D01*
X37123491Y-14690261D01*
X37019925Y-14669661D01*
X36968842Y-14659500D01*
X36811158Y-14659500D01*
X36767315Y-14668220D01*
X36656508Y-14690261D01*
X36656498Y-14690264D01*
X36510825Y-14750603D01*
X36379711Y-14838210D01*
X36379710Y-14838212D01*
X36268212Y-14949710D01*
X36268210Y-14949711D01*
X36180603Y-15080825D01*
X36120264Y-15226498D01*
X36120261Y-15226508D01*
X36101771Y-15319469D01*
X36090523Y-15376018D01*
X36089500Y-15381159D01*
X33239659Y-15381159D01*
X33245765Y-15358370D01*
X33258999Y-15308977D01*
X33259000Y-15308977D01*
X33259000Y-15164023D01*
X33258999Y-15164022D01*
X33221485Y-15024018D01*
X33221483Y-15024013D01*
X33159133Y-14916020D01*
X33149009Y-14898485D01*
X33060428Y-14809904D01*
X33038754Y-14757578D01*
X33060427Y-14705253D01*
X34699596Y-13066085D01*
X34751921Y-13044412D01*
X34804247Y-13066086D01*
X34824499Y-13103975D01*
X34850261Y-13233491D01*
X34850264Y-13233501D01*
X34910603Y-13379174D01*
X34997619Y-13509404D01*
X34998211Y-13510289D01*
X35109711Y-13621789D01*
X35240821Y-13709394D01*
X35240826Y-13709396D01*
X35240825Y-13709396D01*
X35382575Y-13768110D01*
X35386503Y-13769737D01*
X35541158Y-13800500D01*
X35541160Y-13800500D01*
X35698840Y-13800500D01*
X35698842Y-13800500D01*
X35853497Y-13769737D01*
X35999179Y-13709394D01*
X36130289Y-13621789D01*
X36241789Y-13510289D01*
X36241790Y-13510288D01*
X36242674Y-13509404D01*
X36295000Y-13487730D01*
X36347326Y-13509404D01*
X36379711Y-13541789D01*
X36510821Y-13629394D01*
X36510826Y-13629396D01*
X36510825Y-13629396D01*
X36656498Y-13689735D01*
X36656503Y-13689737D01*
X36811158Y-13720500D01*
X36811160Y-13720500D01*
X36968840Y-13720500D01*
X36968842Y-13720500D01*
X37123497Y-13689737D01*
X37269179Y-13629394D01*
X37400289Y-13541789D01*
X37511789Y-13430289D01*
X37599394Y-13299179D01*
X37659737Y-13153497D01*
X37690500Y-12998842D01*
X37690500Y-12841158D01*
X37659737Y-12686503D01*
X37659735Y-12686498D01*
X37599396Y-12540825D01*
X37599395Y-12540823D01*
X37599394Y-12540821D01*
X37511789Y-12409711D01*
X37400289Y-12298211D01*
X37388907Y-12290606D01*
X37367842Y-12276530D01*
X37269179Y-12210606D01*
X37269175Y-12210604D01*
X37269173Y-12210603D01*
X37269174Y-12210603D01*
X37123501Y-12150264D01*
X37123491Y-12150261D01*
X37019925Y-12129661D01*
X36968842Y-12119500D01*
X36811158Y-12119500D01*
X36767315Y-12128220D01*
X36656508Y-12150261D01*
X36656498Y-12150264D01*
X36510825Y-12210603D01*
X36379711Y-12298210D01*
X36379710Y-12298212D01*
X36267326Y-12410596D01*
X36215000Y-12432270D01*
X36162674Y-12410596D01*
X36130288Y-12378210D01*
X36097842Y-12356530D01*
X35999179Y-12290606D01*
X35999175Y-12290604D01*
X35999173Y-12290603D01*
X35999174Y-12290603D01*
X35853501Y-12230264D01*
X35853491Y-12230261D01*
X35723975Y-12204499D01*
X35676883Y-12173033D01*
X35665834Y-12117484D01*
X35686084Y-12079596D01*
X36594705Y-11170975D01*
X36647030Y-11149302D01*
X36661462Y-11150723D01*
X36811158Y-11180500D01*
X36811160Y-11180500D01*
X36968840Y-11180500D01*
X36968842Y-11180500D01*
X37123497Y-11149737D01*
X37269179Y-11089394D01*
X37400289Y-11001789D01*
X37511789Y-10890289D01*
X37599394Y-10759179D01*
X37659737Y-10613497D01*
X37690500Y-10458842D01*
X37690500Y-10301158D01*
X37659737Y-10146503D01*
X37599394Y-10000821D01*
X37511789Y-9869711D01*
X37400289Y-9758211D01*
X37269179Y-9670606D01*
X37269175Y-9670604D01*
X37269173Y-9670603D01*
X37269174Y-9670603D01*
X37123501Y-9610264D01*
X37123491Y-9610261D01*
X37019925Y-9589661D01*
X36968842Y-9579500D01*
X36811158Y-9579500D01*
X36767315Y-9588220D01*
X36656508Y-9610261D01*
X36656498Y-9610264D01*
X36510825Y-9670603D01*
X36379711Y-9758210D01*
X36379710Y-9758212D01*
X36268212Y-9869710D01*
X36268210Y-9869711D01*
X36180603Y-10000825D01*
X36120264Y-10146498D01*
X36120261Y-10146508D01*
X36113732Y-10179334D01*
X36089500Y-10301158D01*
X36089500Y-10458842D01*
X36109377Y-10558768D01*
X36119275Y-10608530D01*
X36108226Y-10664079D01*
X36099023Y-10675293D01*
X33973829Y-12800487D01*
X33921503Y-12822161D01*
X33869177Y-12800487D01*
X33850691Y-12769646D01*
X33849738Y-12766505D01*
X33789396Y-12620825D01*
X33789395Y-12620823D01*
X33789394Y-12620821D01*
X33701789Y-12489711D01*
X33590289Y-12378211D01*
X33459179Y-12290606D01*
X33459175Y-12290604D01*
X33459173Y-12290603D01*
X33459174Y-12290603D01*
X33313501Y-12230264D01*
X33313491Y-12230261D01*
X33209925Y-12209661D01*
X33158842Y-12199500D01*
X33001158Y-12199500D01*
X32957315Y-12208220D01*
X32846508Y-12230261D01*
X32846498Y-12230264D01*
X32700825Y-12290603D01*
X32569711Y-12378210D01*
X32569710Y-12378212D01*
X32458212Y-12489710D01*
X32458210Y-12489711D01*
X32370603Y-12620825D01*
X32310264Y-12766498D01*
X32310261Y-12766508D01*
X32295130Y-12842580D01*
X32279500Y-12921158D01*
X32279500Y-13078842D01*
X32288746Y-13125326D01*
X32310261Y-13233491D01*
X32310264Y-13233501D01*
X32370603Y-13379174D01*
X32457619Y-13509404D01*
X32458211Y-13510289D01*
X32569711Y-13621789D01*
X32700821Y-13709394D01*
X32700826Y-13709396D01*
X32700825Y-13709396D01*
X32846500Y-13769736D01*
X32849645Y-13770690D01*
X32893425Y-13806621D01*
X32898975Y-13862986D01*
X32880488Y-13893829D01*
X32461692Y-14312626D01*
X32409366Y-14334300D01*
X32253656Y-14334300D01*
X32174557Y-14355493D01*
X32174558Y-14355494D01*
X32164511Y-14358186D01*
X32164510Y-14358186D01*
X32084590Y-14404328D01*
X24601026Y-21887892D01*
X24548700Y-21909566D01*
X24496374Y-21887892D01*
X24474700Y-21835566D01*
X24474700Y-18459934D01*
X24496374Y-18407608D01*
X27023471Y-15880511D01*
X29550570Y-13353412D01*
X29596714Y-13273488D01*
X29618745Y-13191266D01*
X29653223Y-13146335D01*
X29709376Y-13138942D01*
X29754309Y-13173421D01*
X29762801Y-13195984D01*
X29770261Y-13233491D01*
X29770264Y-13233501D01*
X29830603Y-13379174D01*
X29917619Y-13509404D01*
X29918211Y-13510289D01*
X30029711Y-13621789D01*
X30160821Y-13709394D01*
X30160826Y-13709396D01*
X30160825Y-13709396D01*
X30302575Y-13768110D01*
X30306503Y-13769737D01*
X30461158Y-13800500D01*
X30461160Y-13800500D01*
X30618840Y-13800500D01*
X30618842Y-13800500D01*
X30773497Y-13769737D01*
X30919179Y-13709394D01*
X31050289Y-13621789D01*
X31161789Y-13510289D01*
X31249394Y-13379179D01*
X31309737Y-13233497D01*
X31340500Y-13078842D01*
X31340500Y-12921158D01*
X31309737Y-12766503D01*
X31249394Y-12620821D01*
X31161789Y-12489711D01*
X31050289Y-12378211D01*
X30919179Y-12290606D01*
X30919175Y-12290604D01*
X30919173Y-12290603D01*
X30919174Y-12290603D01*
X30773501Y-12230264D01*
X30773491Y-12230261D01*
X30669925Y-12209661D01*
X30618842Y-12199500D01*
X30461158Y-12199500D01*
X30417315Y-12208220D01*
X30306508Y-12230261D01*
X30306498Y-12230264D01*
X30160825Y-12290603D01*
X30029711Y-12378210D01*
X30029710Y-12378212D01*
X29918212Y-12489710D01*
X29918210Y-12489711D01*
X29830603Y-12620825D01*
X29770264Y-12766498D01*
X29770261Y-12766508D01*
X29767178Y-12782011D01*
X29735712Y-12829103D01*
X29680163Y-12840152D01*
X29633071Y-12808686D01*
X29620600Y-12767574D01*
X29620600Y-10179334D01*
X29642274Y-10127008D01*
X33871636Y-5897646D01*
X46699500Y-5897646D01*
X46699500Y-6102353D01*
X46731522Y-6304531D01*
X46731525Y-6304544D01*
X46794777Y-6499213D01*
X46887712Y-6681610D01*
X46961406Y-6783040D01*
X47008034Y-6847219D01*
X47152781Y-6991966D01*
X47244695Y-7058745D01*
X47318389Y-7112287D01*
X47406300Y-7157079D01*
X47500781Y-7205220D01*
X47500783Y-7205220D01*
X47500786Y-7205222D01*
X47695455Y-7268474D01*
X47695461Y-7268475D01*
X47695466Y-7268477D01*
X47796557Y-7284488D01*
X47897646Y-7300500D01*
X47897648Y-7300500D01*
X48102354Y-7300500D01*
X48183224Y-7287690D01*
X48304534Y-7268477D01*
X48304541Y-7268474D01*
X48304544Y-7268474D01*
X48499213Y-7205222D01*
X48499213Y-7205221D01*
X48499219Y-7205220D01*
X48681610Y-7112287D01*
X48847219Y-6991966D01*
X48991966Y-6847219D01*
X49112287Y-6681610D01*
X49205220Y-6499219D01*
X49268477Y-6304534D01*
X49300500Y-6102352D01*
X49300500Y-5897648D01*
X49268477Y-5695466D01*
X49268475Y-5695461D01*
X49268474Y-5695455D01*
X49205222Y-5500786D01*
X49205220Y-5500783D01*
X49205220Y-5500781D01*
X49157079Y-5406300D01*
X49112287Y-5318389D01*
X49058745Y-5244695D01*
X48991966Y-5152781D01*
X48847219Y-5008034D01*
X48783040Y-4961406D01*
X48681610Y-4887712D01*
X48499213Y-4794777D01*
X48304544Y-4731525D01*
X48304531Y-4731522D01*
X48102354Y-4699500D01*
X48102352Y-4699500D01*
X47897648Y-4699500D01*
X47897646Y-4699500D01*
X47695468Y-4731522D01*
X47695455Y-4731525D01*
X47500786Y-4794777D01*
X47318389Y-4887712D01*
X47152785Y-5008031D01*
X47152781Y-5008034D01*
X47008034Y-5152781D01*
X47008031Y-5152784D01*
X47008031Y-5152785D01*
X46887712Y-5318389D01*
X46794777Y-5500786D01*
X46731525Y-5695455D01*
X46731522Y-5695468D01*
X46699500Y-5897646D01*
X33871636Y-5897646D01*
X34748508Y-5020774D01*
X34800834Y-4999100D01*
X34897477Y-4999100D01*
X34897477Y-4999099D01*
X35037485Y-4961584D01*
X35163015Y-4889109D01*
X35265509Y-4786615D01*
X35337984Y-4661085D01*
X35375499Y-4521077D01*
X35375500Y-4521077D01*
X35375500Y-4376123D01*
X35375499Y-4376122D01*
X35337985Y-4236118D01*
X35337983Y-4236113D01*
X35265508Y-4110584D01*
X35163015Y-4008091D01*
X35037486Y-3935616D01*
X35037481Y-3935614D01*
X34897477Y-3898100D01*
X34897475Y-3898100D01*
X34752525Y-3898100D01*
X34752523Y-3898100D01*
X34612518Y-3935614D01*
X34612513Y-3935616D01*
X34486984Y-4008091D01*
X34384491Y-4110584D01*
X34312016Y-4236113D01*
X34312014Y-4236118D01*
X34274500Y-4376122D01*
X34274500Y-4472766D01*
X34252826Y-4525092D01*
X28989630Y-9788287D01*
X28943486Y-9868210D01*
X28943484Y-9868215D01*
X28919600Y-9957353D01*
X28919600Y-12768580D01*
X28897926Y-12820906D01*
X28845600Y-12842580D01*
X28793274Y-12820906D01*
X28773022Y-12783017D01*
X28769738Y-12766508D01*
X28769737Y-12766505D01*
X28769737Y-12766503D01*
X28709394Y-12620821D01*
X28621789Y-12489711D01*
X28510289Y-12378211D01*
X28379179Y-12290606D01*
X28379175Y-12290604D01*
X28379173Y-12290603D01*
X28379174Y-12290603D01*
X28233501Y-12230264D01*
X28233491Y-12230261D01*
X28129925Y-12209661D01*
X28078842Y-12199500D01*
X27921158Y-12199500D01*
X27877315Y-12208220D01*
X27766508Y-12230261D01*
X27766498Y-12230264D01*
X27620825Y-12290603D01*
X27489711Y-12378210D01*
X27489710Y-12378212D01*
X27378212Y-12489710D01*
X27378210Y-12489711D01*
X27290603Y-12620825D01*
X27230264Y-12766498D01*
X27230261Y-12766508D01*
X27215130Y-12842580D01*
X27199500Y-12921158D01*
X27199500Y-13078842D01*
X27208746Y-13125326D01*
X27230261Y-13233491D01*
X27230264Y-13233501D01*
X27290603Y-13379174D01*
X27377619Y-13509404D01*
X27378211Y-13510289D01*
X27489711Y-13621789D01*
X27620821Y-13709394D01*
X27620826Y-13709396D01*
X27620825Y-13709396D01*
X27762575Y-13768110D01*
X27766503Y-13769737D01*
X27921158Y-13800500D01*
X27921160Y-13800500D01*
X27933465Y-13800500D01*
X27985791Y-13822174D01*
X28007465Y-13874500D01*
X27985791Y-13926826D01*
X25936826Y-15975791D01*
X25884500Y-15997465D01*
X25832174Y-15975791D01*
X25810500Y-15923465D01*
X25810500Y-13768110D01*
X25832174Y-13715784D01*
X25843383Y-13706584D01*
X25970289Y-13621789D01*
X26081789Y-13510289D01*
X26169394Y-13379179D01*
X26229737Y-13233497D01*
X26260500Y-13078842D01*
X26260500Y-12921158D01*
X26229737Y-12766503D01*
X26169394Y-12620821D01*
X26081789Y-12489711D01*
X25970289Y-12378211D01*
X25839179Y-12290606D01*
X25839175Y-12290604D01*
X25839173Y-12290603D01*
X25839174Y-12290603D01*
X25693501Y-12230264D01*
X25693491Y-12230261D01*
X25589925Y-12209661D01*
X25538842Y-12199500D01*
X25381158Y-12199500D01*
X25337315Y-12208220D01*
X25226508Y-12230261D01*
X25226498Y-12230264D01*
X25080825Y-12290603D01*
X24949711Y-12378210D01*
X24949710Y-12378212D01*
X24838212Y-12489710D01*
X24838210Y-12489711D01*
X24750603Y-12620825D01*
X24690264Y-12766498D01*
X24690261Y-12766508D01*
X24675130Y-12842580D01*
X24659500Y-12921158D01*
X24659500Y-13078842D01*
X24668746Y-13125326D01*
X24690261Y-13233491D01*
X24690264Y-13233501D01*
X24750603Y-13379174D01*
X24837619Y-13509404D01*
X24838211Y-13510289D01*
X24949711Y-13621789D01*
X25076612Y-13706582D01*
X25108078Y-13753673D01*
X25109500Y-13768110D01*
X25109500Y-16118766D01*
X25087826Y-16171092D01*
X23396826Y-17862092D01*
X23344500Y-17883766D01*
X23292174Y-17862092D01*
X23270500Y-17809766D01*
X23270500Y-13768110D01*
X23292174Y-13715784D01*
X23303383Y-13706584D01*
X23430289Y-13621789D01*
X23541789Y-13510289D01*
X23629394Y-13379179D01*
X23689737Y-13233497D01*
X23720500Y-13078842D01*
X23720500Y-12921158D01*
X23689737Y-12766503D01*
X23629394Y-12620821D01*
X23541789Y-12489711D01*
X23430289Y-12378211D01*
X23299179Y-12290606D01*
X23299175Y-12290604D01*
X23299173Y-12290603D01*
X23299174Y-12290603D01*
X23153501Y-12230264D01*
X23153491Y-12230261D01*
X23049925Y-12209661D01*
X22998842Y-12199500D01*
X22841158Y-12199500D01*
X22797315Y-12208220D01*
X22686508Y-12230261D01*
X22686498Y-12230264D01*
X22540825Y-12290603D01*
X22409711Y-12378210D01*
X22409710Y-12378212D01*
X22298212Y-12489710D01*
X22298210Y-12489711D01*
X22210603Y-12620825D01*
X22150264Y-12766498D01*
X22150261Y-12766508D01*
X22135130Y-12842580D01*
X22119500Y-12921158D01*
X22119500Y-13078842D01*
X22128746Y-13125326D01*
X22150261Y-13233491D01*
X22150264Y-13233501D01*
X22210603Y-13379174D01*
X22297619Y-13509404D01*
X22298211Y-13510289D01*
X22409711Y-13621789D01*
X22536612Y-13706582D01*
X22568078Y-13753673D01*
X22569500Y-13768110D01*
X22569500Y-17828266D01*
X22547826Y-17880592D01*
X20017811Y-20410606D01*
X19965485Y-20432280D01*
X19913159Y-20410606D01*
X19892908Y-20372718D01*
X19879737Y-20306503D01*
X19841705Y-20214684D01*
X19819396Y-20160825D01*
X19819395Y-20160823D01*
X19819394Y-20160821D01*
X19731789Y-20029711D01*
X19620289Y-19918211D01*
X19489179Y-19830606D01*
X19489175Y-19830604D01*
X19489173Y-19830603D01*
X19489174Y-19830603D01*
X19343501Y-19770264D01*
X19343491Y-19770261D01*
X19236717Y-19749023D01*
X19188842Y-19739500D01*
X19031158Y-19739500D01*
X18987315Y-19748220D01*
X18876508Y-19770261D01*
X18876498Y-19770264D01*
X18730825Y-19830603D01*
X18599711Y-19918210D01*
X18599710Y-19918212D01*
X18488212Y-20029710D01*
X18488210Y-20029711D01*
X18400603Y-20160825D01*
X18340264Y-20306498D01*
X18340261Y-20306508D01*
X18309500Y-20461159D01*
X18309500Y-20618840D01*
X18340261Y-20773491D01*
X18340264Y-20773501D01*
X18400603Y-20919174D01*
X18478517Y-21035782D01*
X18488211Y-21050289D01*
X18599711Y-21161789D01*
X18730821Y-21249394D01*
X18730826Y-21249396D01*
X18730825Y-21249396D01*
X18843254Y-21295965D01*
X18876503Y-21309737D01*
X18942717Y-21322907D01*
X18989808Y-21354372D01*
X19000858Y-21409921D01*
X18980606Y-21447811D01*
X12930130Y-27498287D01*
X12909224Y-27534499D01*
X12883986Y-27578210D01*
X12883984Y-27578215D01*
X12860100Y-27667353D01*
X12860100Y-34079024D01*
X12838426Y-34131350D01*
X12770091Y-34199684D01*
X12697616Y-34325213D01*
X12697614Y-34325218D01*
X12660100Y-34465222D01*
X11250600Y-34465222D01*
X11250600Y-23775734D01*
X11272274Y-23723408D01*
X15123508Y-19872174D01*
X15175834Y-19850500D01*
X16897875Y-19850500D01*
X16903149Y-19849932D01*
X16957484Y-19844091D01*
X17092331Y-19793796D01*
X17207547Y-19707547D01*
X17293796Y-19592331D01*
X17344091Y-19457484D01*
X17350500Y-19397874D01*
X17350500Y-17921158D01*
X18309500Y-17921158D01*
X18309500Y-18078842D01*
X18311813Y-18090470D01*
X18340261Y-18233491D01*
X18340264Y-18233501D01*
X18400603Y-18379174D01*
X18400605Y-18379177D01*
X18400606Y-18379179D01*
X18488211Y-18510289D01*
X18599711Y-18621789D01*
X18730821Y-18709394D01*
X18730826Y-18709396D01*
X18730825Y-18709396D01*
X18875846Y-18769465D01*
X18876503Y-18769737D01*
X19031158Y-18800500D01*
X19031160Y-18800500D01*
X19188840Y-18800500D01*
X19188842Y-18800500D01*
X19343497Y-18769737D01*
X19489179Y-18709394D01*
X19620289Y-18621789D01*
X19731789Y-18510289D01*
X19819394Y-18379179D01*
X19879737Y-18233497D01*
X19910500Y-18078842D01*
X19910500Y-17921158D01*
X19879737Y-17766503D01*
X19819394Y-17620821D01*
X19731789Y-17489711D01*
X19620289Y-17378211D01*
X19489179Y-17290606D01*
X19489175Y-17290604D01*
X19489173Y-17290603D01*
X19489174Y-17290603D01*
X19343501Y-17230264D01*
X19343491Y-17230261D01*
X19239925Y-17209661D01*
X19188842Y-17199500D01*
X19031158Y-17199500D01*
X18997460Y-17206203D01*
X18876508Y-17230261D01*
X18876498Y-17230264D01*
X18730825Y-17290603D01*
X18599711Y-17378210D01*
X18599710Y-17378212D01*
X18488212Y-17489710D01*
X18488210Y-17489711D01*
X18400603Y-17620825D01*
X18340264Y-17766498D01*
X18340261Y-17766508D01*
X18331657Y-17809766D01*
X18309500Y-17921158D01*
X17350500Y-17921158D01*
X17350500Y-17602126D01*
X17344091Y-17542516D01*
X17293796Y-17407669D01*
X17207547Y-17292453D01*
X17124472Y-17230264D01*
X17092330Y-17206203D01*
X16957488Y-17155910D01*
X16957485Y-17155909D01*
X16957484Y-17155909D01*
X16927679Y-17152704D01*
X16897875Y-17149500D01*
X16897874Y-17149500D01*
X15102126Y-17149500D01*
X15102125Y-17149500D01*
X15042516Y-17155909D01*
X15042511Y-17155910D01*
X14907670Y-17206203D01*
X14907669Y-17206203D01*
X14792456Y-17292450D01*
X14792450Y-17292456D01*
X14706203Y-17407669D01*
X14706203Y-17407670D01*
X14655910Y-17542511D01*
X14655909Y-17542516D01*
X14649500Y-17602125D01*
X14649500Y-19324166D01*
X14627826Y-19376492D01*
X10619630Y-23384687D01*
X10593181Y-23430499D01*
X10573486Y-23464610D01*
X10573484Y-23464615D01*
X10549600Y-23553753D01*
X10549600Y-36632424D01*
X10527926Y-36684750D01*
X10459591Y-36753084D01*
X10387116Y-36878613D01*
X10387114Y-36878618D01*
X10349600Y-37018622D01*
X500500Y-37018622D01*
X500500Y-18393711D01*
X4489500Y-18393711D01*
X4489500Y-18606288D01*
X4522753Y-18816240D01*
X4522756Y-18816253D01*
X4588440Y-19018406D01*
X4684948Y-19207816D01*
X4761475Y-19313146D01*
X4809896Y-19379792D01*
X4960208Y-19530104D01*
X5045854Y-19592329D01*
X5132183Y-19655051D01*
X5186937Y-19682949D01*
X5321588Y-19751557D01*
X5321590Y-19751557D01*
X5321593Y-19751559D01*
X5523746Y-19817243D01*
X5523752Y-19817244D01*
X5523757Y-19817246D01*
X5628735Y-19833873D01*
X5733711Y-19850500D01*
X5733713Y-19850500D01*
X5946289Y-19850500D01*
X6030269Y-19837198D01*
X6156243Y-19817246D01*
X6156250Y-19817243D01*
X6156253Y-19817243D01*
X6358406Y-19751559D01*
X6358407Y-19751559D01*
X6358409Y-19751557D01*
X6358412Y-19751557D01*
X6467816Y-19695811D01*
X6524279Y-19691368D01*
X6553738Y-19709420D01*
X7858426Y-21014108D01*
X7880100Y-21066434D01*
X7880100Y-25810524D01*
X7858426Y-25862850D01*
X7790091Y-25931184D01*
X7717616Y-26056713D01*
X7717614Y-26056718D01*
X7680100Y-26196722D01*
X7680100Y-26341677D01*
X7717614Y-26481681D01*
X7717616Y-26481686D01*
X7790091Y-26607215D01*
X7892585Y-26709709D01*
X8018115Y-26782184D01*
X8018116Y-26782184D01*
X8018118Y-26782185D01*
X8088120Y-26800942D01*
X8158122Y-26819699D01*
X8158123Y-26819700D01*
X8158125Y-26819700D01*
X8303077Y-26819700D01*
X8303077Y-26819699D01*
X8443085Y-26782184D01*
X8568615Y-26709709D01*
X8671109Y-26607215D01*
X8743584Y-26481685D01*
X8781099Y-26341677D01*
X8781100Y-26341677D01*
X8781100Y-26196723D01*
X8781099Y-26196722D01*
X8743585Y-26056718D01*
X8743583Y-26056713D01*
X8710365Y-25999179D01*
X8671109Y-25931185D01*
X8602774Y-25862850D01*
X8581100Y-25810524D01*
X8581100Y-20844454D01*
X8581099Y-20844453D01*
X8569944Y-20802823D01*
X8559860Y-20765186D01*
X8557215Y-20755315D01*
X8557213Y-20755310D01*
X8537238Y-20720713D01*
X8513021Y-20678768D01*
X8511070Y-20675388D01*
X8315904Y-20480222D01*
X8898800Y-20480222D01*
X8898800Y-20625177D01*
X8936314Y-20765181D01*
X8936316Y-20765186D01*
X8982082Y-20844454D01*
X9008791Y-20890715D01*
X9111285Y-20993209D01*
X9236815Y-21065684D01*
X9236816Y-21065684D01*
X9236818Y-21065685D01*
X9306820Y-21084442D01*
X9376822Y-21103199D01*
X9376823Y-21103200D01*
X9376825Y-21103200D01*
X9521777Y-21103200D01*
X9521777Y-21103199D01*
X9661785Y-21065684D01*
X9787315Y-20993209D01*
X9889809Y-20890715D01*
X9962284Y-20765185D01*
X9999799Y-20625177D01*
X9999800Y-20625177D01*
X9999800Y-20480223D01*
X9999799Y-20480222D01*
X9962285Y-20340218D01*
X9962283Y-20340213D01*
X9889808Y-20214684D01*
X9787315Y-20112191D01*
X9661786Y-20039716D01*
X9661781Y-20039714D01*
X9521777Y-20002200D01*
X9521775Y-20002200D01*
X9376825Y-20002200D01*
X9376823Y-20002200D01*
X9236818Y-20039714D01*
X9236813Y-20039716D01*
X9111284Y-20112191D01*
X9008791Y-20214684D01*
X8936316Y-20340213D01*
X8936314Y-20340218D01*
X8898800Y-20480222D01*
X8315904Y-20480222D01*
X7049420Y-19213738D01*
X7027746Y-19161412D01*
X7035812Y-19127816D01*
X7063486Y-19073504D01*
X7091557Y-19018412D01*
X7099688Y-18993388D01*
X7157243Y-18816253D01*
X7157243Y-18816250D01*
X7157246Y-18816243D01*
X7190500Y-18606287D01*
X7190500Y-18393713D01*
X7188197Y-18379174D01*
X7157246Y-18183759D01*
X7157243Y-18183746D01*
X7091559Y-17981593D01*
X7091557Y-17981590D01*
X7091557Y-17981588D01*
X7013401Y-17828197D01*
X6995051Y-17792183D01*
X6881208Y-17635492D01*
X6870104Y-17620208D01*
X6719792Y-17469896D01*
X6634145Y-17407670D01*
X6547816Y-17344948D01*
X6358406Y-17248440D01*
X6156253Y-17182756D01*
X6156240Y-17182753D01*
X5946289Y-17149500D01*
X5946287Y-17149500D01*
X5733713Y-17149500D01*
X5733711Y-17149500D01*
X5523759Y-17182753D01*
X5523746Y-17182756D01*
X5321593Y-17248440D01*
X5132183Y-17344948D01*
X4974517Y-17459500D01*
X4960208Y-17469896D01*
X4809896Y-17620208D01*
X4809893Y-17620211D01*
X4809893Y-17620212D01*
X4684948Y-17792183D01*
X4588440Y-17981593D01*
X4522756Y-18183746D01*
X4522753Y-18183759D01*
X4489500Y-18393711D01*
X500500Y-18393711D01*
X500500Y-15516022D01*
X6644400Y-15516022D01*
X6644400Y-15660977D01*
X6681914Y-15800981D01*
X6681916Y-15800986D01*
X6703964Y-15839174D01*
X6754391Y-15926515D01*
X6856885Y-16029009D01*
X6875922Y-16040000D01*
X6977343Y-16098556D01*
X6982415Y-16101484D01*
X6982416Y-16101484D01*
X6982418Y-16101485D01*
X7052420Y-16120242D01*
X7122422Y-16138999D01*
X7122423Y-16139000D01*
X7122425Y-16139000D01*
X7267377Y-16139000D01*
X7267377Y-16138999D01*
X7407385Y-16101484D01*
X7532915Y-16029009D01*
X7635409Y-15926515D01*
X7707884Y-15800985D01*
X7745399Y-15660977D01*
X7745400Y-15660977D01*
X7745400Y-15516023D01*
X7745399Y-15516022D01*
X7713421Y-15396676D01*
X7709262Y-15381159D01*
X18309500Y-15381159D01*
X18309500Y-15538840D01*
X18340261Y-15693491D01*
X18340264Y-15693501D01*
X18400603Y-15839174D01*
X18400605Y-15839177D01*
X18400606Y-15839179D01*
X18488211Y-15970289D01*
X18599711Y-16081789D01*
X18730821Y-16169394D01*
X18730826Y-16169396D01*
X18730825Y-16169396D01*
X18876498Y-16229735D01*
X18876503Y-16229737D01*
X19031158Y-16260500D01*
X19031160Y-16260500D01*
X19188840Y-16260500D01*
X19188842Y-16260500D01*
X19343497Y-16229737D01*
X19489179Y-16169394D01*
X19620289Y-16081789D01*
X19731789Y-15970289D01*
X19819394Y-15839179D01*
X19879737Y-15693497D01*
X19910500Y-15538842D01*
X19910500Y-15381158D01*
X19879737Y-15226503D01*
X19847217Y-15147991D01*
X19819396Y-15080825D01*
X19819395Y-15080823D01*
X19819394Y-15080821D01*
X19731789Y-14949711D01*
X19620289Y-14838211D01*
X19489179Y-14750606D01*
X19489175Y-14750604D01*
X19489173Y-14750603D01*
X19489174Y-14750603D01*
X19343501Y-14690264D01*
X19343491Y-14690261D01*
X19239925Y-14669661D01*
X19188842Y-14659500D01*
X19031158Y-14659500D01*
X18987315Y-14668220D01*
X18876508Y-14690261D01*
X18876498Y-14690264D01*
X18730825Y-14750603D01*
X18599711Y-14838210D01*
X18599710Y-14838212D01*
X18488212Y-14949710D01*
X18488210Y-14949711D01*
X18400603Y-15080825D01*
X18340264Y-15226498D01*
X18340261Y-15226508D01*
X18321771Y-15319469D01*
X18310523Y-15376018D01*
X18309500Y-15381159D01*
X7709262Y-15381159D01*
X7709262Y-15381158D01*
X7707884Y-15376015D01*
X7635409Y-15250485D01*
X7532915Y-15147991D01*
X7407386Y-15075516D01*
X7407381Y-15075514D01*
X7267377Y-15038000D01*
X7267375Y-15038000D01*
X7122425Y-15038000D01*
X7122423Y-15038000D01*
X6982418Y-15075514D01*
X6982413Y-15075516D01*
X6856884Y-15147991D01*
X6754391Y-15250484D01*
X6681916Y-15376013D01*
X6681914Y-15376018D01*
X6644400Y-15516022D01*
X500500Y-15516022D01*
X500500Y-12841158D01*
X18309500Y-12841158D01*
X18309500Y-12998842D01*
X18319661Y-13049925D01*
X18340261Y-13153491D01*
X18340264Y-13153501D01*
X18400603Y-13299174D01*
X18400605Y-13299177D01*
X18400606Y-13299179D01*
X18488211Y-13430289D01*
X18599711Y-13541789D01*
X18730821Y-13629394D01*
X18730826Y-13629396D01*
X18730825Y-13629396D01*
X18876498Y-13689735D01*
X18876503Y-13689737D01*
X19031158Y-13720500D01*
X19031160Y-13720500D01*
X19188840Y-13720500D01*
X19188842Y-13720500D01*
X19343497Y-13689737D01*
X19489179Y-13629394D01*
X19620289Y-13541789D01*
X19731789Y-13430289D01*
X19819394Y-13299179D01*
X19879737Y-13153497D01*
X19910500Y-12998842D01*
X19910500Y-12841158D01*
X19879737Y-12686503D01*
X19879735Y-12686498D01*
X19819396Y-12540825D01*
X19819395Y-12540823D01*
X19819394Y-12540821D01*
X19731789Y-12409711D01*
X19620289Y-12298211D01*
X19608907Y-12290606D01*
X19587842Y-12276530D01*
X19489179Y-12210606D01*
X19489175Y-12210604D01*
X19489173Y-12210603D01*
X19489174Y-12210603D01*
X19343501Y-12150264D01*
X19343491Y-12150261D01*
X19239925Y-12129661D01*
X19188842Y-12119500D01*
X19031158Y-12119500D01*
X18987315Y-12128220D01*
X18876508Y-12150261D01*
X18876498Y-12150264D01*
X18730825Y-12210603D01*
X18599711Y-12298210D01*
X18599710Y-12298212D01*
X18488212Y-12409710D01*
X18488210Y-12409711D01*
X18400603Y-12540825D01*
X18340264Y-12686498D01*
X18340261Y-12686508D01*
X18321265Y-12782011D01*
X18309500Y-12841158D01*
X500500Y-12841158D01*
X500500Y-10301158D01*
X18309500Y-10301158D01*
X18309500Y-10458842D01*
X18313734Y-10480127D01*
X18340261Y-10613491D01*
X18340264Y-10613501D01*
X18400603Y-10759174D01*
X18400605Y-10759177D01*
X18400606Y-10759179D01*
X18488211Y-10890289D01*
X18599711Y-11001789D01*
X18730821Y-11089394D01*
X18730826Y-11089396D01*
X18730825Y-11089396D01*
X18847822Y-11137857D01*
X18876503Y-11149737D01*
X19031158Y-11180500D01*
X19031160Y-11180500D01*
X19188840Y-11180500D01*
X19188842Y-11180500D01*
X19343497Y-11149737D01*
X19489179Y-11089394D01*
X19620289Y-11001789D01*
X19731789Y-10890289D01*
X19819394Y-10759179D01*
X19879737Y-10613497D01*
X19910500Y-10458842D01*
X19910500Y-10301158D01*
X19879737Y-10146503D01*
X19819394Y-10000821D01*
X19731789Y-9869711D01*
X19620289Y-9758211D01*
X19489179Y-9670606D01*
X19489175Y-9670604D01*
X19489173Y-9670603D01*
X19489174Y-9670603D01*
X19343501Y-9610264D01*
X19343491Y-9610261D01*
X19239925Y-9589661D01*
X19188842Y-9579500D01*
X19031158Y-9579500D01*
X18987315Y-9588220D01*
X18876508Y-9610261D01*
X18876498Y-9610264D01*
X18730825Y-9670603D01*
X18599711Y-9758210D01*
X18599710Y-9758212D01*
X18488212Y-9869710D01*
X18488210Y-9869711D01*
X18400603Y-10000825D01*
X18340264Y-10146498D01*
X18340261Y-10146508D01*
X18333732Y-10179334D01*
X18309500Y-10301158D01*
X500500Y-10301158D01*
X500500Y-7761159D01*
X18309500Y-7761159D01*
X18309500Y-7918840D01*
X18340261Y-8073491D01*
X18340264Y-8073501D01*
X18400603Y-8219174D01*
X18400605Y-8219177D01*
X18400606Y-8219179D01*
X18488211Y-8350289D01*
X18599711Y-8461789D01*
X18730821Y-8549394D01*
X18730826Y-8549396D01*
X18730825Y-8549396D01*
X18847822Y-8597857D01*
X18876503Y-8609737D01*
X19031158Y-8640500D01*
X19031160Y-8640500D01*
X19188840Y-8640500D01*
X19188842Y-8640500D01*
X19343497Y-8609737D01*
X19489179Y-8549394D01*
X19620289Y-8461789D01*
X19731789Y-8350289D01*
X19819394Y-8219179D01*
X19879737Y-8073497D01*
X19910500Y-7918842D01*
X19910500Y-7761158D01*
X19879737Y-7606503D01*
X19819394Y-7460821D01*
X19731789Y-7329711D01*
X19620289Y-7218211D01*
X19489179Y-7130606D01*
X19489175Y-7130604D01*
X19489173Y-7130603D01*
X19489174Y-7130603D01*
X19343501Y-7070264D01*
X19343491Y-7070261D01*
X19239925Y-7049661D01*
X19188842Y-7039500D01*
X19031158Y-7039500D01*
X18987315Y-7048220D01*
X18876508Y-7070261D01*
X18876498Y-7070264D01*
X18730825Y-7130603D01*
X18599711Y-7218210D01*
X18599710Y-7218212D01*
X18488212Y-7329710D01*
X18488210Y-7329711D01*
X18400603Y-7460825D01*
X18340264Y-7606498D01*
X18340261Y-7606508D01*
X18309500Y-7761159D01*
X500500Y-7761159D01*
X500500Y-5897646D01*
X5699500Y-5897646D01*
X5699500Y-6102353D01*
X5731522Y-6304531D01*
X5731525Y-6304544D01*
X5794777Y-6499213D01*
X5887712Y-6681610D01*
X5961406Y-6783040D01*
X6008034Y-6847219D01*
X6152781Y-6991966D01*
X6244695Y-7058745D01*
X6318389Y-7112287D01*
X6406300Y-7157079D01*
X6500781Y-7205220D01*
X6500783Y-7205220D01*
X6500786Y-7205222D01*
X6695455Y-7268474D01*
X6695461Y-7268475D01*
X6695466Y-7268477D01*
X6796557Y-7284488D01*
X6897646Y-7300500D01*
X6897648Y-7300500D01*
X7102354Y-7300500D01*
X7183224Y-7287690D01*
X7304534Y-7268477D01*
X7304541Y-7268474D01*
X7304544Y-7268474D01*
X7499213Y-7205222D01*
X7499213Y-7205221D01*
X7499219Y-7205220D01*
X7681610Y-7112287D01*
X7847219Y-6991966D01*
X7991966Y-6847219D01*
X8112287Y-6681610D01*
X8205220Y-6499219D01*
X8268477Y-6304534D01*
X8300500Y-6102352D01*
X8300500Y-5897648D01*
X8279098Y-5762525D01*
X8279098Y-5762522D01*
X14422600Y-5762522D01*
X14422600Y-5907477D01*
X14460114Y-6047481D01*
X14460116Y-6047486D01*
X14491794Y-6102353D01*
X14532591Y-6173015D01*
X14635085Y-6275509D01*
X14760615Y-6347984D01*
X14760616Y-6347984D01*
X14760618Y-6347985D01*
X14830620Y-6366742D01*
X14900622Y-6385499D01*
X14900623Y-6385500D01*
X14900625Y-6385500D01*
X15045577Y-6385500D01*
X15045577Y-6385499D01*
X15185585Y-6347984D01*
X15311115Y-6275509D01*
X15413609Y-6173015D01*
X15486084Y-6047485D01*
X15523599Y-5907477D01*
X15523600Y-5907477D01*
X15523600Y-5762523D01*
X15523599Y-5762522D01*
X15486085Y-5622518D01*
X15486083Y-5622513D01*
X15466663Y-5588876D01*
X15413609Y-5496985D01*
X15311115Y-5394491D01*
X15185586Y-5322016D01*
X15185581Y-5322014D01*
X15045577Y-5284500D01*
X15045575Y-5284500D01*
X14900625Y-5284500D01*
X14900623Y-5284500D01*
X14760618Y-5322014D01*
X14760613Y-5322016D01*
X14635084Y-5394491D01*
X14532591Y-5496984D01*
X14460116Y-5622513D01*
X14460114Y-5622518D01*
X14422600Y-5762522D01*
X8279098Y-5762522D01*
X8276733Y-5747597D01*
X8268477Y-5695466D01*
X8268474Y-5695459D01*
X8268474Y-5695455D01*
X8205222Y-5500786D01*
X8205220Y-5500783D01*
X8205220Y-5500781D01*
X8157079Y-5406300D01*
X8112287Y-5318389D01*
X8058745Y-5244695D01*
X7991966Y-5152781D01*
X7847219Y-5008034D01*
X7783040Y-4961406D01*
X7681610Y-4887712D01*
X7499213Y-4794777D01*
X7304544Y-4731525D01*
X7304531Y-4731522D01*
X7102354Y-4699500D01*
X7102352Y-4699500D01*
X6897648Y-4699500D01*
X6897646Y-4699500D01*
X6695468Y-4731522D01*
X6695455Y-4731525D01*
X6500786Y-4794777D01*
X6318389Y-4887712D01*
X6152785Y-5008031D01*
X6152781Y-5008034D01*
X6008034Y-5152781D01*
X6008031Y-5152784D01*
X6008031Y-5152785D01*
X5887712Y-5318389D01*
X5794777Y-5500786D01*
X5731525Y-5695455D01*
X5731522Y-5695468D01*
X5699500Y-5897646D01*
X500500Y-5897646D01*
X500500Y-574500D01*
X522174Y-522174D01*
X574500Y-500500D01*
X55425500Y-500500D01*
X55477826Y-522174D01*
G37*
%TD.AperFunction*%
%TD*%
M02*
