%TF.GenerationSoftware,KiCad,Pcbnew,9.0.2+dfsg-1*%
%TF.CreationDate,2026-07-13T23:30:14-04:00*%
%TF.ProjectId,autofeeder,6175746f-6665-4656-9465-722e6b696361,rev?*%
%TF.SameCoordinates,Original*%
%TF.FileFunction,Copper,L4,Bot*%
%TF.FilePolarity,Positive*%
%FSLAX46Y46*%
G04 Gerber Fmt 4.6, Leading zero omitted, Abs format (unit mm)*
G04 Created by KiCad (PCBNEW 9.0.2+dfsg-1) date 2026-07-13 23:30:14*
%MOMM*%
%LPD*%
G01*
G04 APERTURE LIST*
G04 Aperture macros list*
%AMRoundRect*
0 Rectangle with rounded corners*
0 $1 Rounding radius*
0 $2 $3 $4 $5 $6 $7 $8 $9 X,Y pos of 4 corners*
0 Add a 4 corners polygon primitive as box body*
4,1,4,$2,$3,$4,$5,$6,$7,$8,$9,$2,$3,0*
0 Add four circle primitives for the rounded corners*
1,1,$1+$1,$2,$3*
1,1,$1+$1,$4,$5*
1,1,$1+$1,$6,$7*
1,1,$1+$1,$8,$9*
0 Add four rect primitives between the rounded corners*
20,1,$1+$1,$2,$3,$4,$5,0*
20,1,$1+$1,$4,$5,$6,$7,0*
20,1,$1+$1,$6,$7,$8,$9,0*
20,1,$1+$1,$8,$9,$2,$3,0*%
G04 Aperture macros list end*
%TA.AperFunction,ComponentPad*%
%ADD10C,1.100000*%
%TD*%
%TA.AperFunction,ComponentPad*%
%ADD11R,1.100000X1.100000*%
%TD*%
%TA.AperFunction,ComponentPad*%
%ADD12C,1.400000*%
%TD*%
%TA.AperFunction,ComponentPad*%
%ADD13RoundRect,0.250000X0.750000X-0.600000X0.750000X0.600000X-0.750000X0.600000X-0.750000X-0.600000X0*%
%TD*%
%TA.AperFunction,ComponentPad*%
%ADD14O,2.000000X1.700000*%
%TD*%
%TA.AperFunction,SMDPad,CuDef*%
%ADD15RoundRect,0.200000X0.200000X0.275000X-0.200000X0.275000X-0.200000X-0.275000X0.200000X-0.275000X0*%
%TD*%
%TA.AperFunction,ComponentPad*%
%ADD16RoundRect,0.249999X0.850001X0.850001X-0.850001X0.850001X-0.850001X-0.850001X0.850001X-0.850001X0*%
%TD*%
%TA.AperFunction,ComponentPad*%
%ADD17C,2.200000*%
%TD*%
%TA.AperFunction,SMDPad,CuDef*%
%ADD18RoundRect,0.062500X0.350000X0.062500X-0.350000X0.062500X-0.350000X-0.062500X0.350000X-0.062500X0*%
%TD*%
%TA.AperFunction,HeatsinkPad*%
%ADD19R,1.200000X2.000000*%
%TD*%
%TA.AperFunction,SMDPad,CuDef*%
%ADD20RoundRect,0.218750X0.218750X0.256250X-0.218750X0.256250X-0.218750X-0.256250X0.218750X-0.256250X0*%
%TD*%
%TA.AperFunction,SMDPad,CuDef*%
%ADD21RoundRect,0.250000X0.250000X0.475000X-0.250000X0.475000X-0.250000X-0.475000X0.250000X-0.475000X0*%
%TD*%
%TA.AperFunction,SMDPad,CuDef*%
%ADD22RoundRect,0.218750X0.218750X0.381250X-0.218750X0.381250X-0.218750X-0.381250X0.218750X-0.381250X0*%
%TD*%
%TA.AperFunction,SMDPad,CuDef*%
%ADD23RoundRect,0.150000X0.825000X0.150000X-0.825000X0.150000X-0.825000X-0.150000X0.825000X-0.150000X0*%
%TD*%
%TA.AperFunction,SMDPad,CuDef*%
%ADD24RoundRect,0.250000X0.312500X1.450000X-0.312500X1.450000X-0.312500X-1.450000X0.312500X-1.450000X0*%
%TD*%
%TA.AperFunction,SMDPad,CuDef*%
%ADD25RoundRect,0.225000X0.225000X0.250000X-0.225000X0.250000X-0.225000X-0.250000X0.225000X-0.250000X0*%
%TD*%
%TA.AperFunction,ComponentPad*%
%ADD26R,1.700000X1.700000*%
%TD*%
%TA.AperFunction,ComponentPad*%
%ADD27C,1.700000*%
%TD*%
%TA.AperFunction,SMDPad,CuDef*%
%ADD28RoundRect,0.162500X0.617500X0.162500X-0.617500X0.162500X-0.617500X-0.162500X0.617500X-0.162500X0*%
%TD*%
%TA.AperFunction,SMDPad,CuDef*%
%ADD29R,0.600000X1.450000*%
%TD*%
%TA.AperFunction,SMDPad,CuDef*%
%ADD30R,0.300000X1.450000*%
%TD*%
%TA.AperFunction,HeatsinkPad*%
%ADD31O,1.000000X1.600000*%
%TD*%
%TA.AperFunction,HeatsinkPad*%
%ADD32O,1.000000X2.100000*%
%TD*%
%TA.AperFunction,ViaPad*%
%ADD33C,0.600000*%
%TD*%
%TA.AperFunction,Conductor*%
%ADD34C,0.200000*%
%TD*%
%TA.AperFunction,Conductor*%
%ADD35C,0.300000*%
%TD*%
G04 APERTURE END LIST*
D10*
%TO.P,DISP1,1*%
%TO.N,/VCC_3V3*%
X22920000Y-13000000D03*
D11*
%TO.P,DISP1,2*%
%TO.N,GND*%
X20380000Y-13000000D03*
D10*
%TO.P,DISP1,3*%
%TO.N,/DISP_CS*%
X35620000Y-13000000D03*
%TO.P,DISP1,4*%
%TO.N,/DISP_DC*%
X33080000Y-13000000D03*
%TO.P,DISP1,5*%
%TO.N,/DISP_RST*%
X30540000Y-13000000D03*
%TO.P,DISP1,6*%
%TO.N,/DISP_SCK*%
X25460000Y-13000000D03*
%TO.P,DISP1,7*%
%TO.N,/DISP_MOSI*%
X28000000Y-13000000D03*
%TD*%
D11*
%TO.P,U1,1*%
%TO.N,unconnected-(U1-5V-Pad1)*%
X36890000Y-28160000D03*
D10*
%TO.P,U1,2*%
%TO.N,GND*%
X36890000Y-25620000D03*
%TO.P,U1,3*%
%TO.N,/VCC_3V3*%
X36890000Y-23080000D03*
%TO.P,U1,4*%
%TO.N,/BUTTON_POWER*%
X36890000Y-20540000D03*
%TO.P,U1,5*%
%TO.N,/BUTTON_TIMER*%
X36890000Y-18000000D03*
%TO.P,U1,6*%
%TO.N,/BUTTON_MANUAL*%
X36890000Y-15460000D03*
%TO.P,U1,7*%
%TO.N,/BUTTON_SETTINGS*%
X36890000Y-12920000D03*
%TO.P,U1,8*%
%TO.N,/BUTTON_UP*%
X36890000Y-10380000D03*
%TO.P,U1,9*%
%TO.N,/BUTTON_DOWN*%
X36890000Y-7840000D03*
%TO.P,U1,10*%
%TO.N,/MOTOR_IN1*%
X19110000Y-28160000D03*
%TO.P,U1,11*%
%TO.N,/MOTOR_IN2*%
X19110000Y-25620000D03*
%TO.P,U1,12*%
%TO.N,/DISP_SCK*%
X19110000Y-23080000D03*
%TO.P,U1,13*%
%TO.N,/DISP_MOSI*%
X19110000Y-20540000D03*
%TO.P,U1,14*%
%TO.N,/DISP_CS*%
X19110000Y-18000000D03*
%TO.P,U1,15*%
%TO.N,unconnected-(U1-GP19-Pad15)*%
X19110000Y-15460000D03*
%TO.P,U1,16*%
%TO.N,unconnected-(U1-GP20-Pad16)*%
X19110000Y-12920000D03*
%TO.P,U1,17*%
%TO.N,/CAN_TX*%
X19110000Y-10380000D03*
%TO.P,U1,18*%
%TO.N,/CAN_RX*%
X19110000Y-7840000D03*
D12*
%TO.P,U1,19*%
%TO.N,/I2C_SDA*%
X35620000Y-30700000D03*
%TO.P,U1,20*%
%TO.N,/DISP_DC*%
X33080000Y-30700000D03*
%TO.P,U1,21*%
%TO.N,/I2C_SCL*%
X30540000Y-30700000D03*
%TO.P,U1,22*%
%TO.N,/CAN_RS*%
X28000000Y-30700000D03*
%TO.P,U1,23*%
%TO.N,/GPS_RX*%
X25460000Y-30700000D03*
%TO.P,U1,24*%
%TO.N,/GPS_TX*%
X22920000Y-30700000D03*
%TO.P,U1,25*%
%TO.N,/BAT_MON*%
X20380000Y-30700000D03*
%TD*%
D13*
%TO.P,J_MOTOR_PWR1,1*%
%TO.N,/BATT_PROT*%
X52000000Y-24000000D03*
D14*
%TO.P,J_MOTOR_PWR1,2*%
%TO.N,GND*%
X52000000Y-21500000D03*
%TD*%
D15*
%TO.P,R6,1*%
%TO.N,/CAN_H*%
X42825000Y-49000000D03*
%TO.P,R6,2*%
%TO.N,/CAN_H_PROT*%
X41175000Y-49000000D03*
%TD*%
D16*
%TO.P,D1,1*%
%TO.N,/BATT_PROT*%
X16000000Y-18500000D03*
D17*
%TO.P,D1,2*%
%TO.N,/BATT_N*%
X5840000Y-18500000D03*
%TD*%
D18*
%TO.P,U4,1*%
%TO.N,/VCC_3V3*%
X14212500Y-35000000D03*
%TO.P,U4,2*%
%TO.N,/L2_NODE*%
X14212500Y-35500000D03*
%TO.P,U4,3*%
%TO.N,GND*%
X14212500Y-36000000D03*
%TO.P,U4,4*%
%TO.N,/L1_NODE*%
X14212500Y-36500000D03*
%TO.P,U4,5*%
%TO.N,/BATT_PROT*%
X14212500Y-37000000D03*
%TO.P,U4,6*%
X11787500Y-37000000D03*
%TO.P,U4,7*%
%TO.N,GND*%
X11787500Y-36500000D03*
%TO.P,U4,8*%
%TO.N,/BATT_PROT*%
X11787500Y-36000000D03*
%TO.P,U4,9*%
%TO.N,GND*%
X11787500Y-35500000D03*
%TO.P,U4,10*%
%TO.N,/VCC_3V3*%
X11787500Y-35000000D03*
D19*
%TO.P,U4,11*%
%TO.N,GND*%
X13000000Y-36000000D03*
%TD*%
D20*
%TO.P,LED_CHG1,1*%
%TO.N,/CHRG_L*%
X8787500Y-22000000D03*
%TO.P,LED_CHG1,2*%
%TO.N,GND*%
X7212500Y-22000000D03*
%TD*%
D15*
%TO.P,R_CC2,1*%
%TO.N,/CC2*%
X34825000Y-3500000D03*
%TO.P,R_CC2,2*%
%TO.N,GND*%
X33175000Y-3500000D03*
%TD*%
D13*
%TO.P,J_MOTOR_CTRL1,1*%
%TO.N,/MOTOR_IN1*%
X52000000Y-14000000D03*
D14*
%TO.P,J_MOTOR_CTRL1,2*%
%TO.N,/MOTOR_IN2*%
X52000000Y-11500000D03*
%TD*%
D21*
%TO.P,C2,1*%
%TO.N,/VCC_3V3*%
X40950000Y-26000000D03*
%TO.P,C2,2*%
%TO.N,GND*%
X39050000Y-26000000D03*
%TD*%
D22*
%TO.P,L1,1*%
%TO.N,/L1_NODE*%
X7062500Y-36000000D03*
%TO.P,L1,2*%
%TO.N,/L2_NODE*%
X4937500Y-36000000D03*
%TD*%
D13*
%TO.P,J1,1*%
%TO.N,/BATT_P*%
X52000000Y-34000000D03*
D14*
%TO.P,J1,2*%
%TO.N,/BATT_N*%
X52000000Y-31500000D03*
%TD*%
D21*
%TO.P,C4,1*%
%TO.N,/BATT_PROT*%
X12950000Y-42000000D03*
%TO.P,C4,2*%
%TO.N,GND*%
X11050000Y-42000000D03*
%TD*%
D23*
%TO.P,U6,1*%
%TO.N,/CAN_TX*%
X43475000Y-43095000D03*
%TO.P,U6,2*%
%TO.N,GND*%
X43475000Y-44365000D03*
%TO.P,U6,3*%
%TO.N,/VCC_3V3*%
X43475000Y-45635000D03*
%TO.P,U6,4*%
%TO.N,/CAN_RX*%
X43475000Y-46905000D03*
%TO.P,U6,5*%
%TO.N,/VREF_NC*%
X38525000Y-46905000D03*
%TO.P,U6,6*%
%TO.N,/CAN_L*%
X38525000Y-45635000D03*
%TO.P,U6,7*%
%TO.N,/CAN_H*%
X38525000Y-44365000D03*
%TO.P,U6,8*%
%TO.N,/CAN_RS*%
X38525000Y-43095000D03*
%TD*%
D15*
%TO.P,R3,1*%
%TO.N,/BATT_PROT*%
X11825000Y-46000000D03*
%TO.P,R3,2*%
%TO.N,/BAT_MON*%
X10175000Y-46000000D03*
%TD*%
D24*
%TO.P,F1,1*%
%TO.N,/BATT_P*%
X9137500Y-13000000D03*
%TO.P,F1,2*%
%TO.N,/BATT_PROT*%
X4862500Y-13000000D03*
%TD*%
D25*
%TO.P,C1,1*%
%TO.N,/VCC_3V3*%
X40775000Y-23000000D03*
%TO.P,C1,2*%
%TO.N,GND*%
X39225000Y-23000000D03*
%TD*%
D15*
%TO.P,R2_C1,1*%
%TO.N,/PROG*%
X16825000Y-22000000D03*
%TO.P,R2_C1,2*%
%TO.N,GND*%
X15175000Y-22000000D03*
%TD*%
D26*
%TO.P,J4,1*%
%TO.N,/VCC_3V3*%
X53000000Y-39000000D03*
D27*
%TO.P,J4,2*%
%TO.N,unconnected-(J4-Pin_2-Pad2)*%
X53000000Y-41540000D03*
%TO.P,J4,3*%
%TO.N,unconnected-(J4-Pin_3-Pad3)*%
X53000000Y-44080000D03*
%TO.P,J4,4*%
%TO.N,GND*%
X53000000Y-46620000D03*
%TD*%
D28*
%TO.P,U8,1*%
%TO.N,/OD_GATE*%
X20350000Y-34050000D03*
%TO.P,U8,2*%
%TO.N,/BATT_N*%
X20350000Y-35000000D03*
%TO.P,U8,3*%
X20350000Y-35950000D03*
%TO.P,U8,4*%
%TO.N,/OC_GATE*%
X17650000Y-35950000D03*
%TO.P,U8,5*%
%TO.N,GND*%
X17650000Y-35000000D03*
%TO.P,U8,6*%
%TO.N,unconnected-(U8-NC-Pad6)*%
X17650000Y-34050000D03*
%TD*%
D25*
%TO.P,C6,1*%
%TO.N,/VCC_3V3*%
X46775000Y-40000000D03*
%TO.P,C6,2*%
%TO.N,GND*%
X45225000Y-40000000D03*
%TD*%
D15*
%TO.P,R4,1*%
%TO.N,/BAT_MON*%
X11825000Y-50000000D03*
%TO.P,R4,2*%
%TO.N,GND*%
X10175000Y-50000000D03*
%TD*%
%TO.P,R10,1*%
%TO.N,/CAN_L*%
X46825000Y-50000000D03*
%TO.P,R10,2*%
%TO.N,/CAN_L_PROT*%
X45175000Y-50000000D03*
%TD*%
D25*
%TO.P,C3,1*%
%TO.N,/VCC_3V3*%
X35775000Y-33000000D03*
%TO.P,C3,2*%
%TO.N,GND*%
X34225000Y-33000000D03*
%TD*%
D26*
%TO.P,J_GPS1,1*%
%TO.N,/VCC_3V3*%
X44000000Y-14000000D03*
D27*
%TO.P,J_GPS1,2*%
%TO.N,GND*%
X44000000Y-16540000D03*
%TO.P,J_GPS1,3*%
%TO.N,/GPS_RX*%
X44000000Y-19080000D03*
%TO.P,J_GPS1,4*%
%TO.N,/GPS_TX*%
X44000000Y-21620000D03*
%TD*%
D29*
%TO.P,J3,A1*%
%TO.N,GND*%
X33250000Y-47455000D03*
%TO.P,J3,A4*%
%TO.N,/VBUS*%
X32450000Y-47455000D03*
D30*
%TO.P,J3,A5*%
%TO.N,/CC1*%
X31250000Y-47455000D03*
%TO.P,J3,A6*%
%TO.N,unconnected-(J3-D+-PadA6)*%
X30250000Y-47455000D03*
%TO.P,J3,A7*%
%TO.N,unconnected-(J3-D--PadA7)*%
X29750000Y-47455000D03*
%TO.P,J3,A8*%
%TO.N,/CAN_H_PROT*%
X28750000Y-47455000D03*
D29*
%TO.P,J3,A9*%
%TO.N,/VBUS*%
X27550000Y-47455000D03*
%TO.P,J3,A12*%
%TO.N,GND*%
X26750000Y-47455000D03*
%TO.P,J3,B1*%
X26750000Y-47455000D03*
%TO.P,J3,B4*%
%TO.N,/VBUS*%
X27550000Y-47455000D03*
D30*
%TO.P,J3,B5*%
%TO.N,/CC2*%
X28250000Y-47455000D03*
%TO.P,J3,B6*%
%TO.N,unconnected-(J3-D+-PadB6)*%
X29250000Y-47455000D03*
%TO.P,J3,B7*%
%TO.N,unconnected-(J3-D--PadB7)*%
X30750000Y-47455000D03*
%TO.P,J3,B8*%
%TO.N,/CAN_L_PROT*%
X31750000Y-47455000D03*
D29*
%TO.P,J3,B9*%
%TO.N,/VBUS*%
X32450000Y-47455000D03*
%TO.P,J3,B12*%
%TO.N,GND*%
X33250000Y-47455000D03*
D31*
%TO.P,J3,S1*%
X34320000Y-52550000D03*
D32*
X34320000Y-48370000D03*
D31*
X25680000Y-52550000D03*
D32*
X25680000Y-48370000D03*
%TD*%
D15*
%TO.P,R_CC1,1*%
%TO.N,/CC1*%
X28825000Y-3500000D03*
%TO.P,R_CC1,2*%
%TO.N,GND*%
X27175000Y-3500000D03*
%TD*%
D26*
%TO.P,J_RTC1,1*%
%TO.N,/VCC_3V3*%
X42000000Y-30000000D03*
D27*
%TO.P,J_RTC1,2*%
%TO.N,GND*%
X42000000Y-32540000D03*
%TO.P,J_RTC1,3*%
%TO.N,/I2C_SDA*%
X42000000Y-35080000D03*
%TO.P,J_RTC1,4*%
%TO.N,/I2C_SCL*%
X42000000Y-37620000D03*
%TD*%
D23*
%TO.P,U2,1*%
%TO.N,/CHRG_L*%
X16475000Y-12095000D03*
%TO.P,U2,2*%
%TO.N,/PROG*%
X16475000Y-13365000D03*
%TO.P,U2,3*%
%TO.N,GND*%
X16475000Y-14635000D03*
%TO.P,U2,4*%
%TO.N,/VBUS*%
X16475000Y-15905000D03*
%TO.P,U2,5*%
%TO.N,/BATT_CHG*%
X11525000Y-15905000D03*
%TO.P,U2,6*%
%TO.N,/TEMP_NC*%
X11525000Y-14635000D03*
%TO.P,U2,7*%
%TO.N,/VBUS*%
X11525000Y-13365000D03*
%TO.P,U2,8*%
%TO.N,/STDBY_L*%
X11525000Y-12095000D03*
%TD*%
D15*
%TO.P,R13,1*%
%TO.N,/VCC_3V3*%
X44825000Y-8000000D03*
%TO.P,R13,2*%
%TO.N,/DISP_RST*%
X43175000Y-8000000D03*
%TD*%
D28*
%TO.P,U3,1*%
%TO.N,/OD_GATE*%
X11350000Y-27050000D03*
%TO.P,U3,2*%
%TO.N,/BATT_N*%
X11350000Y-28000000D03*
%TO.P,U3,3*%
%TO.N,/OC_GATE*%
X11350000Y-28950000D03*
%TO.P,U3,4*%
%TO.N,unconnected-(U3-TD-Pad4)*%
X8650000Y-28950000D03*
%TO.P,U3,5*%
%TO.N,/BATT_CHG*%
X8650000Y-28000000D03*
%TO.P,U3,6*%
%TO.N,/BATT_N*%
X8650000Y-27050000D03*
%TD*%
D21*
%TO.P,C5,1*%
%TO.N,/VCC_3V3*%
X20950000Y-42000000D03*
%TO.P,C5,2*%
%TO.N,GND*%
X19050000Y-42000000D03*
%TD*%
D15*
%TO.P,R5,1*%
%TO.N,/CAN_H*%
X48825000Y-46000000D03*
%TO.P,R5,2*%
%TO.N,/CAN_L*%
X47175000Y-46000000D03*
%TD*%
D33*
%TO.N,/BATT_CHG*%
X9907000Y-29124400D03*
X11525000Y-16665700D03*
%TO.N,/BATT_N*%
X21556100Y-35486300D03*
X19500000Y-33300000D03*
X21200000Y-33300000D03*
%TO.N,/BATT_P*%
X9984800Y-14951000D03*
X38150600Y-14707500D03*
%TO.N,/BATT_PROT*%
X11480400Y-34415800D03*
X13796600Y-41122800D03*
X5882900Y-14276500D03*
%TO.N,/BAT_MON*%
X12697800Y-50000000D03*
%TO.N,/BUTTON_DOWN*%
X39176400Y-42194600D03*
%TO.N,/BUTTON_POWER*%
X14973100Y-5835000D03*
X34818300Y-11498400D03*
%TO.N,/BUTTON_UP*%
X34660300Y-38416300D03*
%TO.N,/CAN_H_PROT*%
X40294700Y-49235200D03*
X29920300Y-48728200D03*
%TO.N,/CAN_TX*%
X42004600Y-43095000D03*
X28776200Y-43194600D03*
%TO.N,/CC1*%
X30846000Y-48633600D03*
X28893700Y-4458000D03*
%TO.N,/CC2*%
X34825000Y-4450200D03*
X29893000Y-45960100D03*
%TO.N,/MOTOR_IN1*%
X48210900Y-17810000D03*
%TO.N,/VCC_3V3*%
X19819600Y-40659800D03*
X13062600Y-34542800D03*
%TO.N,GND*%
X2150000Y-30750000D03*
X39550000Y-52750000D03*
X54950000Y-28550000D03*
X13150000Y-2150000D03*
X4350000Y-28550000D03*
X43950000Y-52750000D03*
X52750000Y-4350000D03*
X2150000Y-8750000D03*
X52750000Y-8750000D03*
X32950000Y-52750000D03*
X2150000Y-13150000D03*
X54950000Y-46150000D03*
X26350000Y-8750000D03*
X2150000Y-15350000D03*
X13150000Y-21950000D03*
X8750000Y-30750000D03*
X21950000Y-37350000D03*
X21950000Y-48350000D03*
X13150000Y-24150000D03*
X52750000Y-52750000D03*
X46150000Y-37350000D03*
X24150000Y-46150000D03*
X50550000Y-21950000D03*
X6550000Y-28550000D03*
X54950000Y-17550000D03*
X13150000Y-8750000D03*
X10950000Y-48350000D03*
X43950000Y-10950000D03*
X8750000Y-32950000D03*
X54950000Y-6550000D03*
X37350000Y-4350000D03*
X48350000Y-2150000D03*
X8750000Y-35150000D03*
X54950000Y-15350000D03*
X35150000Y-48350000D03*
X17550000Y-24150000D03*
X4350000Y-21950000D03*
X17550000Y-41750000D03*
X37350000Y-2150000D03*
X39550000Y-48350000D03*
X30750000Y-39550000D03*
X48350000Y-28550000D03*
X10950000Y-8750000D03*
X50550000Y-4350000D03*
X21950000Y-46150000D03*
X54950000Y-41750000D03*
X41750000Y-10950000D03*
X35150000Y-52750000D03*
X11667500Y-37975100D03*
X2150000Y-46150000D03*
X2150000Y-26350000D03*
X54950000Y-10950000D03*
X31268400Y-6624200D03*
X21950000Y-52750000D03*
X6550000Y-8750000D03*
X54950000Y-24150000D03*
X46150000Y-30750000D03*
X52750000Y-48350000D03*
X6550000Y-52750000D03*
X28550000Y-52750000D03*
X54950000Y-13150000D03*
X21950000Y-43950000D03*
X50550000Y-19750000D03*
X50550000Y-17550000D03*
X24150000Y-37350000D03*
X28550000Y-50550000D03*
X4350000Y-46150000D03*
X6550000Y-30750000D03*
X2150000Y-41750000D03*
X8750000Y-2150000D03*
X2150000Y-6550000D03*
X35150000Y-6550000D03*
X13150000Y-17550000D03*
X17550000Y-50550000D03*
X2150000Y-52750000D03*
X13150000Y-10950000D03*
X15350000Y-52750000D03*
X54950000Y-19750000D03*
X50550000Y-2150000D03*
X2150000Y-24150000D03*
X54950000Y-35150000D03*
X4350000Y-52750000D03*
X48350000Y-13150000D03*
X8750000Y-4350000D03*
X54950000Y-2150000D03*
X24150000Y-48350000D03*
X30750000Y-26350000D03*
X37350000Y-39550000D03*
X10950000Y-21950000D03*
X35150000Y-41750000D03*
X26350000Y-19750000D03*
X43950000Y-28550000D03*
X10950000Y-2150000D03*
X32950000Y-35150000D03*
X6550000Y-10950000D03*
X50550000Y-48350000D03*
X4350000Y-24150000D03*
X17550000Y-8750000D03*
X52750000Y-37350000D03*
X41750000Y-2150000D03*
X2150000Y-10950000D03*
X8750000Y-46150000D03*
X17550000Y-2150000D03*
X50550000Y-50550000D03*
X28550000Y-2150000D03*
X54950000Y-50550000D03*
X4350000Y-8750000D03*
X15350000Y-50550000D03*
X6550000Y-48350000D03*
X30750000Y-37350000D03*
X46150000Y-10950000D03*
X10950000Y-52750000D03*
X8750000Y-37350000D03*
X52750000Y-2150000D03*
X50550000Y-6550000D03*
X26350000Y-10950000D03*
X8750000Y-43950000D03*
X24150000Y-19750000D03*
X24150000Y-43950000D03*
X54950000Y-8750000D03*
X19750000Y-46150000D03*
X54950000Y-52750000D03*
X46150000Y-4350000D03*
X10950000Y-19750000D03*
X40603400Y-7752200D03*
X24150000Y-39550000D03*
X13150000Y-52750000D03*
X48350000Y-50550000D03*
X43950000Y-26350000D03*
X15350000Y-43950000D03*
X21950000Y-8750000D03*
X48350000Y-10950000D03*
X19750000Y-52750000D03*
X37350000Y-6550000D03*
X39550000Y-2150000D03*
X48350000Y-19750000D03*
X4350000Y-39550000D03*
X24150000Y-2150000D03*
X2150000Y-19750000D03*
X4350000Y-43950000D03*
X2150000Y-17550000D03*
X21950000Y-2150000D03*
X52750000Y-26350000D03*
X6550000Y-26350000D03*
X13150000Y-46150000D03*
X4350000Y-41750000D03*
X54950000Y-39550000D03*
X46150000Y-52750000D03*
X21950000Y-39550000D03*
X2150000Y-21950000D03*
X2150000Y-50550000D03*
X6550000Y-46150000D03*
X37350000Y-48350000D03*
X35150000Y-46150000D03*
X10950000Y-24150000D03*
X54950000Y-37350000D03*
X24150000Y-41750000D03*
X50550000Y-8750000D03*
X30750000Y-15350000D03*
X46150000Y-8750000D03*
X43950000Y-35150000D03*
X8750000Y-24150000D03*
X48350000Y-52750000D03*
X17550000Y-4350000D03*
X2150000Y-28550000D03*
X52750000Y-28550000D03*
X24150000Y-52750000D03*
X46150000Y-2150000D03*
X4350000Y-2150000D03*
X32950000Y-2150000D03*
X26350000Y-2150000D03*
X30750000Y-2150000D03*
X50550000Y-26350000D03*
X21950000Y-50550000D03*
X37350000Y-35150000D03*
X54950000Y-43950000D03*
X24150000Y-50550000D03*
X17550000Y-48350000D03*
X37350000Y-52750000D03*
X39550000Y-30750000D03*
X2150000Y-43950000D03*
X54950000Y-48350000D03*
X19750000Y-4350000D03*
X54950000Y-32950000D03*
X16560300Y-23833200D03*
X50550000Y-46150000D03*
X6550000Y-50550000D03*
X48350000Y-8750000D03*
X15350000Y-2150000D03*
X46150000Y-6550000D03*
X4350000Y-30750000D03*
X19750000Y-50550000D03*
X48350000Y-26350000D03*
X30750000Y-8750000D03*
X6550000Y-2150000D03*
X21950000Y-28550000D03*
X41750000Y-52750000D03*
X54950000Y-30750000D03*
X24150000Y-15350000D03*
X43950000Y-2150000D03*
X19750000Y-48350000D03*
X19750000Y-2150000D03*
X4350000Y-19750000D03*
X24150000Y-4350000D03*
X54950000Y-4350000D03*
X15350000Y-4350000D03*
X41750000Y-6550000D03*
X2150000Y-48350000D03*
X46150000Y-35150000D03*
X41750000Y-39550000D03*
X52750000Y-6550000D03*
X8750000Y-8750000D03*
X43950000Y-39550000D03*
X24150000Y-8750000D03*
X8750000Y-52750000D03*
X10950000Y-10950000D03*
X4350000Y-26350000D03*
X48350000Y-48350000D03*
X13150000Y-19750000D03*
X48350000Y-21950000D03*
X2150000Y-2150000D03*
X17550000Y-52750000D03*
X43950000Y-37350000D03*
X30750000Y-52750000D03*
X37350000Y-26350000D03*
X30750000Y-10950000D03*
X6550000Y-13150000D03*
X50550000Y-28550000D03*
X35150000Y-2150000D03*
X52750000Y-19750000D03*
X50550000Y-52750000D03*
X54950000Y-21950000D03*
X32950000Y-4350000D03*
X52750000Y-50550000D03*
X52750000Y-17550000D03*
X4350000Y-4350000D03*
X6550000Y-32950000D03*
X4350000Y-37350000D03*
X21950000Y-4350000D03*
X30750000Y-24150000D03*
X54950000Y-26350000D03*
X4350000Y-48350000D03*
X48350000Y-37350000D03*
X50550000Y-43950000D03*
X24150000Y-35150000D03*
X4350000Y-6550000D03*
X50550000Y-41750000D03*
X4350000Y-50550000D03*
X2150000Y-4350000D03*
X26350000Y-50550000D03*
X15350000Y-8750000D03*
%TD*%
D34*
%TO.N,/BATT_CHG*%
X9504100Y-29527300D02*
X9907000Y-29124400D01*
X7795900Y-29527300D02*
X9504100Y-29527300D01*
X7617700Y-28550900D02*
X7617700Y-29349100D01*
X8168600Y-28000000D02*
X7617700Y-28550900D01*
X11525000Y-16665700D02*
X11525000Y-15905000D01*
X8650000Y-28000000D02*
X8168600Y-28000000D01*
X7617700Y-29349100D02*
X7795900Y-29527300D01*
%TO.N,/BATT_N*%
X5840000Y-24240000D02*
X8650000Y-27050000D01*
D35*
X22000000Y-33300000D02*
X22000000Y-35000000D01*
X17000000Y-28000000D02*
X17000000Y-33300000D01*
X21556100Y-35486300D02*
X20350000Y-35000000D01*
X22000000Y-35000000D02*
X20350000Y-35000000D01*
X17000000Y-33300000D02*
X19500000Y-33300000D01*
D34*
X5840000Y-18500000D02*
X5840000Y-24240000D01*
D35*
X8650000Y-27050000D02*
X11350000Y-28000000D01*
D34*
X20350000Y-35950000D02*
X20350000Y-35000000D01*
D35*
X11350000Y-28000000D02*
X17000000Y-28000000D01*
X21200000Y-33300000D02*
X22000000Y-33300000D01*
D34*
%TO.N,/BATT_P*%
X9137500Y-14103700D02*
X9137500Y-13000000D01*
X9984800Y-14951000D02*
X9137500Y-14103700D01*
%TO.N,/BATT_PROT*%
X12950000Y-42000000D02*
X13796600Y-41153400D01*
X12039200Y-37251700D02*
X12240900Y-37251700D01*
X11859700Y-38563100D02*
X12240900Y-38181900D01*
X13796600Y-41153400D02*
X13796600Y-41122800D01*
X12240900Y-38181900D02*
X12240900Y-37251700D01*
X11368200Y-36000000D02*
X10744900Y-36623300D01*
X13960800Y-37251700D02*
X14212500Y-37000000D01*
X12950000Y-42000000D02*
X12950000Y-44875000D01*
X11787500Y-36000000D02*
X11368200Y-36000000D01*
X10744900Y-37832800D02*
X11475200Y-38563100D01*
X12950000Y-44875000D02*
X11825000Y-46000000D01*
X11787500Y-37000000D02*
X12039200Y-37251700D01*
X12240900Y-37251700D02*
X13960800Y-37251700D01*
X11047500Y-34848700D02*
X11480400Y-34415800D01*
X4862500Y-13256100D02*
X4862500Y-13000000D01*
X5882900Y-14276500D02*
X4862500Y-13256100D01*
X11475200Y-38563100D02*
X11859700Y-38563100D01*
X11047500Y-35679300D02*
X11047500Y-34848700D01*
X11368200Y-36000000D02*
X11047500Y-35679300D01*
X10744900Y-36623300D02*
X10744900Y-37832800D01*
%TO.N,/BAT_MON*%
X11825000Y-50000000D02*
X11076300Y-50748700D01*
X11825000Y-50000000D02*
X12697800Y-50000000D01*
X9478000Y-50423900D02*
X9478000Y-46697000D01*
X9802800Y-50748700D02*
X9478000Y-50423900D01*
X9478000Y-46697000D02*
X10175000Y-46000000D01*
X11076300Y-50748700D02*
X9802800Y-50748700D01*
%TO.N,/BUTTON_POWER*%
X34818300Y-18468300D02*
X34818300Y-11498400D01*
X36890000Y-20540000D02*
X34818300Y-18468300D01*
%TO.N,/CAN_H*%
X48096200Y-45271200D02*
X46785100Y-45271200D01*
X38850500Y-44365000D02*
X42825000Y-48339500D01*
X48825000Y-46000000D02*
X48096200Y-45271200D01*
X38525000Y-44365000D02*
X38850500Y-44365000D01*
X42825000Y-48339500D02*
X42825000Y-49000000D01*
X43716800Y-48339500D02*
X42825000Y-48339500D01*
X46785100Y-45271200D02*
X43716800Y-48339500D01*
%TO.N,/CAN_H_PROT*%
X28750000Y-48431700D02*
X29623800Y-48431700D01*
X40294700Y-49235200D02*
X40939800Y-49235200D01*
X28750000Y-47455000D02*
X28750000Y-48431700D01*
X29623800Y-48431700D02*
X29920300Y-48728200D01*
X40939800Y-49235200D02*
X41175000Y-49000000D01*
%TO.N,/CAN_L*%
X42387800Y-49737400D02*
X43321000Y-49737400D01*
X38525000Y-45635000D02*
X39011800Y-45635000D01*
X46066300Y-47602900D02*
X46067800Y-47601400D01*
X39011800Y-45635000D02*
X42000000Y-48623200D01*
X42000000Y-49349600D02*
X42387800Y-49737400D01*
X43817100Y-49241300D02*
X46066300Y-49241300D01*
X46066300Y-49241300D02*
X46825000Y-50000000D01*
X42000000Y-48623200D02*
X42000000Y-49349600D01*
X43321000Y-49737400D02*
X43817100Y-49241300D01*
X46067800Y-47601400D02*
X46067800Y-47107200D01*
X46066300Y-49241300D02*
X46066300Y-47602900D01*
X46067800Y-47107200D02*
X47175000Y-46000000D01*
%TO.N,/CAN_L_PROT*%
X32970800Y-50175800D02*
X44999200Y-50175800D01*
X31750000Y-48955000D02*
X32970800Y-50175800D01*
X44999200Y-50175800D02*
X45175000Y-50000000D01*
X31750000Y-47455000D02*
X31750000Y-48955000D01*
%TO.N,/CAN_RS*%
X28000000Y-32570000D02*
X28000000Y-30700000D01*
X38525000Y-43095000D02*
X28000000Y-32570000D01*
%TO.N,/CAN_RX*%
X31810100Y-32190500D02*
X31810100Y-20540100D01*
X40899800Y-41280200D02*
X31810100Y-32190500D01*
X43161800Y-46905000D02*
X40899800Y-44643000D01*
X40899800Y-44643000D02*
X40899800Y-41280200D01*
X31810100Y-20540100D02*
X19110000Y-7840000D01*
X43475000Y-46905000D02*
X43161800Y-46905000D01*
%TO.N,/CAN_TX*%
X43475000Y-43095000D02*
X42004600Y-43095000D01*
%TO.N,/CC1*%
X31250000Y-47455000D02*
X31250000Y-48431700D01*
X28893700Y-3568700D02*
X28893700Y-4458000D01*
X30846000Y-48633600D02*
X31047900Y-48431700D01*
X31047900Y-48431700D02*
X31250000Y-48431700D01*
X28825000Y-3500000D02*
X28893700Y-3568700D01*
%TO.N,/CC2*%
X28250000Y-46478300D02*
X29374800Y-46478300D01*
X28250000Y-47455000D02*
X28250000Y-46478300D01*
X34825000Y-4450200D02*
X34825000Y-3500000D01*
X29374800Y-46478300D02*
X29893000Y-45960100D01*
%TO.N,/CHRG_L*%
X16475000Y-12095000D02*
X16191000Y-12095000D01*
X13016000Y-15270000D02*
X10561700Y-15270000D01*
X10561700Y-15270000D02*
X8787500Y-17044200D01*
X8787500Y-17044200D02*
X8787500Y-22000000D01*
X16191000Y-12095000D02*
X13016000Y-15270000D01*
%TO.N,/DISP_RST*%
X42316500Y-8858500D02*
X34681500Y-8858500D01*
X34681500Y-8858500D02*
X30540000Y-13000000D01*
X43175000Y-8000000D02*
X42316500Y-8858500D01*
D35*
%TO.N,/L1_NODE*%
X7062500Y-36000000D02*
X7062500Y-39000000D01*
X7062500Y-39000000D02*
X14950000Y-39000000D01*
X14950000Y-36500000D02*
X14212500Y-36500000D01*
X14950000Y-39000000D02*
X14950000Y-36500000D01*
%TO.N,/L2_NODE*%
X2000000Y-40500000D02*
X2000000Y-33000000D01*
X4937500Y-33000000D02*
X4937500Y-36000000D01*
X15500000Y-35500000D02*
X15500000Y-40500000D01*
X15500000Y-40500000D02*
X2000000Y-40500000D01*
X15500000Y-35500000D02*
X14210000Y-35500000D01*
X2000000Y-33000000D02*
X4937500Y-33000000D01*
%TO.N,/OC_GATE*%
X16200000Y-32500000D02*
X16200000Y-35950000D01*
X16200000Y-35950000D02*
X17650000Y-35950000D01*
X11350000Y-28950000D02*
X11350000Y-32500000D01*
X11350000Y-32500000D02*
X16200000Y-32500000D01*
%TO.N,/OD_GATE*%
X18000000Y-26200000D02*
X18000000Y-32500000D01*
X11350000Y-26200000D02*
X18000000Y-26200000D01*
X20350000Y-32500000D02*
X20350000Y-34050000D01*
X18000000Y-32500000D02*
X20350000Y-32500000D01*
X11350000Y-27050000D02*
X11350000Y-26200000D01*
D34*
%TO.N,/PROG*%
X14620100Y-14888500D02*
X14620100Y-19795100D01*
X16143600Y-13365000D02*
X14620100Y-14888500D01*
X16475000Y-13365000D02*
X16143600Y-13365000D01*
X14620100Y-19795100D02*
X16825000Y-22000000D01*
%TO.N,/VBUS*%
X16475000Y-15905000D02*
X18153600Y-17583500D01*
X27550000Y-47455000D02*
X27550000Y-46566600D01*
X31379600Y-45407900D02*
X28620400Y-45407900D01*
X13222900Y-13365000D02*
X15067400Y-11520500D01*
X11525000Y-13365000D02*
X13222900Y-13365000D01*
X18189500Y-18278700D02*
X26730100Y-26819300D01*
X27550000Y-46566600D02*
X27550000Y-46479800D01*
X21200900Y-14536200D02*
X18153600Y-17583500D01*
X21200900Y-12308900D02*
X21200900Y-14536200D01*
X32450000Y-46478300D02*
X31379600Y-45407900D01*
X28620400Y-45407900D02*
X27550000Y-46478300D01*
X26730100Y-45658400D02*
X27550000Y-46478300D01*
X15067400Y-11520500D02*
X20412500Y-11520500D01*
X20412500Y-11520500D02*
X21200900Y-12308900D01*
X26730100Y-26819300D02*
X26730100Y-45658400D01*
X27550000Y-46479800D02*
X27550000Y-46478300D01*
X18189500Y-17619500D02*
X18189500Y-18278700D01*
X18153600Y-17583500D02*
X18189500Y-17619500D01*
X32450000Y-47455000D02*
X32450000Y-46478300D01*
%TO.N,/VCC_3V3*%
X42000000Y-28898300D02*
X40950000Y-27848300D01*
X11787500Y-35000000D02*
X12039200Y-34748300D01*
X37710700Y-22259300D02*
X36890000Y-23080000D01*
X40775000Y-23000000D02*
X40950000Y-23175000D01*
X40950000Y-27848300D02*
X40950000Y-26000000D01*
X13062600Y-34748300D02*
X13062600Y-34542800D01*
X47775000Y-39000000D02*
X46775000Y-40000000D01*
X44825000Y-12073300D02*
X44825000Y-8000000D01*
X35798300Y-33000000D02*
X40950000Y-27848300D01*
X40775000Y-23000000D02*
X40034300Y-22259300D01*
X46094800Y-43371600D02*
X43831400Y-45635000D01*
X40950000Y-23175000D02*
X40950000Y-26000000D01*
X46094800Y-40680200D02*
X46094800Y-43371600D01*
X13062600Y-34748300D02*
X13960800Y-34748300D01*
X35775000Y-33000000D02*
X35798300Y-33000000D01*
X19819600Y-40659800D02*
X20950000Y-41790200D01*
X44000000Y-12898300D02*
X44825000Y-12073300D01*
X20950000Y-41790200D02*
X20950000Y-42000000D01*
X42000000Y-30000000D02*
X42000000Y-28898300D01*
X40034300Y-22259300D02*
X37710700Y-22259300D01*
X13960800Y-34748300D02*
X14212500Y-35000000D01*
X12039200Y-34748300D02*
X13062600Y-34748300D01*
X43831400Y-45635000D02*
X43475000Y-45635000D01*
X44000000Y-14000000D02*
X44000000Y-12898300D01*
X53000000Y-39000000D02*
X47775000Y-39000000D01*
X46775000Y-40000000D02*
X46094800Y-40680200D01*
%TO.N,GND*%
X25680000Y-47068300D02*
X26270000Y-46478300D01*
X12500000Y-35500000D02*
X11787500Y-35500000D01*
X11430200Y-36500000D02*
X11110800Y-36819400D01*
X34320000Y-47068300D02*
X33730000Y-46478300D01*
X13000000Y-36000000D02*
X12500000Y-35500000D01*
X45225000Y-42943800D02*
X43803800Y-44365000D01*
X12500000Y-36500000D02*
X13000000Y-36000000D01*
X34225000Y-28285000D02*
X34225000Y-33000000D01*
X33730000Y-46478300D02*
X33250000Y-46478300D01*
X11110800Y-37418400D02*
X11667500Y-37975100D01*
X11050000Y-49125000D02*
X10175000Y-50000000D01*
X18745000Y-14635000D02*
X20380000Y-13000000D01*
X30737600Y-2769100D02*
X31468500Y-3500000D01*
X26270000Y-46478300D02*
X26750000Y-46478300D01*
X17650000Y-35000000D02*
X18116200Y-35000000D01*
X43803800Y-44365000D02*
X43475000Y-44365000D01*
X19050000Y-42000000D02*
X24118300Y-47068300D01*
X31468500Y-6424100D02*
X31268400Y-6624200D01*
X34320000Y-48370000D02*
X34320000Y-47068300D01*
X11050000Y-46781200D02*
X14268800Y-46781200D01*
X31468500Y-3500000D02*
X33175000Y-3500000D01*
X39225000Y-25825000D02*
X39050000Y-26000000D01*
X39050000Y-26000000D02*
X37270000Y-26000000D01*
X31468500Y-3500000D02*
X31468500Y-6424100D01*
X11050000Y-46781200D02*
X11050000Y-49125000D01*
X19050000Y-35933800D02*
X19050000Y-42000000D01*
X7941100Y-22728600D02*
X14446400Y-22728600D01*
X45225000Y-40000000D02*
X45225000Y-42943800D01*
X45225000Y-40000000D02*
X45225000Y-35765000D01*
X11110800Y-36819400D02*
X11110800Y-37418400D01*
X36890000Y-25620000D02*
X34225000Y-28285000D01*
X26750000Y-47455000D02*
X26750000Y-46478300D01*
X16475000Y-14635000D02*
X18745000Y-14635000D01*
X15175000Y-22447900D02*
X15175000Y-22000000D01*
X14268800Y-46781200D02*
X19050000Y-42000000D01*
X27175000Y-3500000D02*
X27905900Y-2769100D01*
X13000000Y-36000000D02*
X14212500Y-36000000D01*
X33250000Y-47455000D02*
X33250000Y-46478300D01*
X45225000Y-35765000D02*
X42000000Y-32540000D01*
X11050000Y-42000000D02*
X11050000Y-46781200D01*
X11787500Y-36500000D02*
X11430200Y-36500000D01*
X37270000Y-26000000D02*
X36890000Y-25620000D01*
X7212500Y-22000000D02*
X7941100Y-22728600D01*
X24118300Y-47068300D02*
X25680000Y-47068300D01*
X27905900Y-2769100D02*
X30737600Y-2769100D01*
X16560300Y-23833200D02*
X15175000Y-22447900D01*
X18116200Y-35000000D02*
X19050000Y-35933800D01*
X11787500Y-36500000D02*
X12500000Y-36500000D01*
X14446400Y-22728600D02*
X15175000Y-22000000D01*
X39225000Y-23000000D02*
X39225000Y-25825000D01*
X25680000Y-48370000D02*
X25680000Y-47068300D01*
%TD*%
%TA.AperFunction,Conductor*%
%TO.N,GND*%
G36*
X20288992Y-11892674D02*
G01*
X20828726Y-12432408D01*
X20850400Y-12484734D01*
X20850400Y-14360365D01*
X20828726Y-14412691D01*
X19997640Y-15243776D01*
X19945314Y-15265450D01*
X19892988Y-15243776D01*
X19876947Y-15219768D01*
X19819396Y-15080825D01*
X19819395Y-15080823D01*
X19819394Y-15080821D01*
X19731789Y-14949711D01*
X19620289Y-14838211D01*
X19489179Y-14750606D01*
X19489175Y-14750604D01*
X19489173Y-14750603D01*
X19489174Y-14750603D01*
X19343501Y-14690264D01*
X19343491Y-14690261D01*
X19239925Y-14669661D01*
X19188842Y-14659500D01*
X19031158Y-14659500D01*
X18987315Y-14668220D01*
X18876508Y-14690261D01*
X18876498Y-14690264D01*
X18730825Y-14750603D01*
X18599711Y-14838210D01*
X18599710Y-14838212D01*
X18488212Y-14949710D01*
X18488210Y-14949711D01*
X18400603Y-15080825D01*
X18340264Y-15226498D01*
X18340261Y-15226508D01*
X18309500Y-15381159D01*
X18309500Y-15538840D01*
X18340261Y-15693491D01*
X18340264Y-15693501D01*
X18400603Y-15839174D01*
X18400605Y-15839177D01*
X18400606Y-15839179D01*
X18488211Y-15970289D01*
X18599711Y-16081789D01*
X18730821Y-16169394D01*
X18730826Y-16169396D01*
X18730825Y-16169396D01*
X18757160Y-16180304D01*
X18869768Y-16226947D01*
X18909817Y-16266995D01*
X18909817Y-16323632D01*
X18893776Y-16347640D01*
X18205915Y-17035501D01*
X18153589Y-17057175D01*
X18101266Y-17035502D01*
X17545887Y-16480156D01*
X17524212Y-16427833D01*
X17545885Y-16375507D01*
X17628050Y-16293342D01*
X17685646Y-16180304D01*
X17700500Y-16086519D01*
X17700499Y-15723482D01*
X17700498Y-15723477D01*
X17685646Y-15629695D01*
X17685645Y-15629693D01*
X17645278Y-15550470D01*
X17628050Y-15516658D01*
X17538342Y-15426950D01*
X17425304Y-15369354D01*
X17425302Y-15369353D01*
X17425301Y-15369353D01*
X17331519Y-15354500D01*
X15618480Y-15354500D01*
X15524695Y-15369353D01*
X15524693Y-15369354D01*
X15411657Y-15426950D01*
X15321951Y-15516656D01*
X15264353Y-15629698D01*
X15249500Y-15723480D01*
X15249500Y-16086519D01*
X15264353Y-16180304D01*
X15264354Y-16180306D01*
X15303512Y-16257156D01*
X15321950Y-16293342D01*
X15411658Y-16383050D01*
X15524696Y-16440646D01*
X15618481Y-16455500D01*
X16499185Y-16455499D01*
X16551507Y-16477170D01*
X17152017Y-17077643D01*
X17173692Y-17129967D01*
X17152020Y-17182293D01*
X17099694Y-17203969D01*
X17073832Y-17199304D01*
X17029464Y-17182756D01*
X16957484Y-17155909D01*
X16917744Y-17151636D01*
X16897875Y-17149500D01*
X16897874Y-17149500D01*
X15102126Y-17149500D01*
X15102124Y-17149500D01*
X15052510Y-17154834D01*
X14998167Y-17138877D01*
X14971024Y-17089168D01*
X14970600Y-17081258D01*
X14970600Y-15064332D01*
X14992273Y-15012007D01*
X16067107Y-13937172D01*
X16119433Y-13915499D01*
X17331519Y-13915499D01*
X17425304Y-13900646D01*
X17425306Y-13900645D01*
X17438683Y-13893829D01*
X17538342Y-13843050D01*
X17628050Y-13753342D01*
X17685646Y-13640304D01*
X17700500Y-13546519D01*
X17700499Y-13183482D01*
X17695750Y-13153497D01*
X17685646Y-13089695D01*
X17685645Y-13089693D01*
X17655770Y-13031061D01*
X17628050Y-12976658D01*
X17538342Y-12886950D01*
X17448473Y-12841159D01*
X18309500Y-12841159D01*
X18309500Y-12998840D01*
X18340261Y-13153491D01*
X18340264Y-13153501D01*
X18400603Y-13299174D01*
X18400605Y-13299177D01*
X18400606Y-13299179D01*
X18488211Y-13430289D01*
X18599711Y-13541789D01*
X18730821Y-13629394D01*
X18730826Y-13629396D01*
X18730825Y-13629396D01*
X18769632Y-13645470D01*
X18876503Y-13689737D01*
X19031158Y-13720500D01*
X19031160Y-13720500D01*
X19188840Y-13720500D01*
X19188842Y-13720500D01*
X19343497Y-13689737D01*
X19489179Y-13629394D01*
X19620289Y-13541789D01*
X19731789Y-13430289D01*
X19819394Y-13299179D01*
X19879737Y-13153497D01*
X19910500Y-12998842D01*
X19910500Y-12841158D01*
X19879737Y-12686503D01*
X19879735Y-12686498D01*
X19819396Y-12540825D01*
X19819395Y-12540823D01*
X19819394Y-12540821D01*
X19731789Y-12409711D01*
X19620289Y-12298211D01*
X19608907Y-12290606D01*
X19567222Y-12262753D01*
X19489179Y-12210606D01*
X19489175Y-12210604D01*
X19489173Y-12210603D01*
X19489174Y-12210603D01*
X19343501Y-12150264D01*
X19343491Y-12150261D01*
X19239925Y-12129661D01*
X19188842Y-12119500D01*
X19031158Y-12119500D01*
X18987315Y-12128220D01*
X18876508Y-12150261D01*
X18876498Y-12150264D01*
X18730825Y-12210603D01*
X18599711Y-12298210D01*
X18599710Y-12298212D01*
X18488212Y-12409710D01*
X18488210Y-12409711D01*
X18400603Y-12540825D01*
X18340264Y-12686498D01*
X18340261Y-12686508D01*
X18309500Y-12841159D01*
X17448473Y-12841159D01*
X17425304Y-12829354D01*
X17425302Y-12829353D01*
X17425301Y-12829353D01*
X17331520Y-12814500D01*
X17331519Y-12814500D01*
X16145833Y-12814500D01*
X16093507Y-12792826D01*
X16071833Y-12740500D01*
X16093507Y-12688174D01*
X16114508Y-12667173D01*
X16166834Y-12645499D01*
X17331519Y-12645499D01*
X17425304Y-12630646D01*
X17425306Y-12630645D01*
X17427419Y-12629568D01*
X17538342Y-12573050D01*
X17628050Y-12483342D01*
X17685646Y-12370304D01*
X17700500Y-12276519D01*
X17700499Y-11944999D01*
X17722173Y-11892674D01*
X17774499Y-11871000D01*
X20236666Y-11871000D01*
X20288992Y-11892674D01*
G37*
%TD.AperFunction*%
%TA.AperFunction,Conductor*%
G36*
X11221726Y-37289375D02*
G01*
X11255201Y-37322850D01*
X11355240Y-37369499D01*
X11400821Y-37375500D01*
X11636665Y-37375499D01*
X11688991Y-37397173D01*
X11823988Y-37532170D01*
X11853400Y-37549150D01*
X11887878Y-37594082D01*
X11890400Y-37613236D01*
X11890400Y-38006066D01*
X11868726Y-38058392D01*
X11736192Y-38190926D01*
X11683866Y-38212600D01*
X11651034Y-38212600D01*
X11598708Y-38190926D01*
X11117074Y-37709292D01*
X11095400Y-37656966D01*
X11095400Y-37341701D01*
X11117074Y-37289375D01*
X11169400Y-37267701D01*
X11221726Y-37289375D01*
G37*
%TD.AperFunction*%
%TA.AperFunction,Conductor*%
G36*
X13539252Y-35120474D02*
G01*
X13553993Y-35141526D01*
X13589992Y-35218726D01*
X13592462Y-35275309D01*
X13589992Y-35281273D01*
X13555501Y-35355239D01*
X13555500Y-35355241D01*
X13549500Y-35400822D01*
X13549500Y-35599177D01*
X13555500Y-35644758D01*
X13555501Y-35644760D01*
X13602150Y-35744799D01*
X13680201Y-35822850D01*
X13780240Y-35869499D01*
X13825821Y-35875500D01*
X14054228Y-35875499D01*
X14055043Y-35875836D01*
X14073381Y-35878021D01*
X14157270Y-35900499D01*
X14157271Y-35900500D01*
X14157273Y-35900500D01*
X15025500Y-35900500D01*
X15077826Y-35922174D01*
X15099500Y-35974500D01*
X15099500Y-36028991D01*
X15077826Y-36081317D01*
X15025500Y-36102991D01*
X15006352Y-36100471D01*
X15002727Y-36099500D01*
X14159773Y-36099500D01*
X14075875Y-36121979D01*
X14059249Y-36124167D01*
X14058552Y-36124477D01*
X14058131Y-36124314D01*
X14056724Y-36124500D01*
X13825822Y-36124500D01*
X13780241Y-36130500D01*
X13780239Y-36130501D01*
X13680200Y-36177150D01*
X13602150Y-36255200D01*
X13555500Y-36355241D01*
X13549500Y-36400822D01*
X13549500Y-36599177D01*
X13555500Y-36644758D01*
X13555501Y-36644761D01*
X13589992Y-36718726D01*
X13590141Y-36722158D01*
X13592462Y-36724690D01*
X13591357Y-36749999D01*
X13592462Y-36775309D01*
X13589992Y-36781273D01*
X13580913Y-36800744D01*
X13555501Y-36855240D01*
X13555500Y-36855241D01*
X13553994Y-36858473D01*
X13512237Y-36896737D01*
X13486927Y-36901200D01*
X12513074Y-36901200D01*
X12460748Y-36879526D01*
X12446007Y-36858474D01*
X12425402Y-36814287D01*
X12397850Y-36755201D01*
X12319799Y-36677150D01*
X12219760Y-36630501D01*
X12219758Y-36630500D01*
X12186179Y-36626079D01*
X12174179Y-36624500D01*
X12174177Y-36624500D01*
X11418031Y-36624500D01*
X11365705Y-36602826D01*
X11344031Y-36550500D01*
X11365704Y-36498176D01*
X11466707Y-36397172D01*
X11519033Y-36375499D01*
X12174178Y-36375499D01*
X12219760Y-36369499D01*
X12319799Y-36322850D01*
X12397850Y-36244799D01*
X12444499Y-36144760D01*
X12450500Y-36099179D01*
X12450499Y-35900822D01*
X12444499Y-35855240D01*
X12397850Y-35755201D01*
X12319799Y-35677150D01*
X12219760Y-35630501D01*
X12219758Y-35630500D01*
X12186179Y-35626079D01*
X12174179Y-35624500D01*
X12174177Y-35624500D01*
X11519034Y-35624500D01*
X11466708Y-35602826D01*
X11419674Y-35555792D01*
X11398000Y-35503466D01*
X11398000Y-35449499D01*
X11419674Y-35397173D01*
X11471997Y-35375499D01*
X12174178Y-35375499D01*
X12219760Y-35369499D01*
X12319799Y-35322850D01*
X12397850Y-35244799D01*
X12444499Y-35144760D01*
X12444499Y-35144758D01*
X12446006Y-35141527D01*
X12487763Y-35103263D01*
X12513073Y-35098800D01*
X13016456Y-35098800D01*
X13108744Y-35098800D01*
X13486926Y-35098800D01*
X13539252Y-35120474D01*
G37*
%TD.AperFunction*%
%TA.AperFunction,Conductor*%
G36*
X55477826Y-522174D02*
G01*
X55499500Y-574500D01*
X55499500Y-53425500D01*
X55477826Y-53477826D01*
X55425500Y-53499500D01*
X574500Y-53499500D01*
X522174Y-53477826D01*
X500500Y-53425500D01*
X500500Y-46650853D01*
X9127500Y-46650853D01*
X9127500Y-50470046D01*
X9142573Y-50526298D01*
X9142573Y-50526299D01*
X9151384Y-50559183D01*
X9151386Y-50559188D01*
X9197530Y-50639112D01*
X9587588Y-51029170D01*
X9667512Y-51075314D01*
X9667513Y-51075314D01*
X9667515Y-51075315D01*
X9712084Y-51087257D01*
X9756653Y-51099199D01*
X9756654Y-51099200D01*
X9756656Y-51099200D01*
X11122446Y-51099200D01*
X11122446Y-51099199D01*
X11211588Y-51075314D01*
X11291512Y-51029170D01*
X11573508Y-50747174D01*
X11625834Y-50725500D01*
X12079258Y-50725500D01*
X12079266Y-50725500D01*
X12109699Y-50722646D01*
X12237882Y-50677793D01*
X12347150Y-50597150D01*
X12392720Y-50535403D01*
X12441229Y-50506174D01*
X12479851Y-50513493D01*
X12480832Y-50511127D01*
X12485313Y-50512983D01*
X12485315Y-50512984D01*
X12485316Y-50512984D01*
X12485318Y-50512985D01*
X12535010Y-50526300D01*
X12625322Y-50550499D01*
X12625323Y-50550500D01*
X12625325Y-50550500D01*
X12770277Y-50550500D01*
X12770277Y-50550499D01*
X12910285Y-50512984D01*
X13035815Y-50440509D01*
X13138309Y-50338015D01*
X13210784Y-50212485D01*
X13248299Y-50072477D01*
X13248300Y-50072477D01*
X13248300Y-49927523D01*
X13248299Y-49927522D01*
X13210785Y-49787518D01*
X13210783Y-49787513D01*
X13178818Y-49732148D01*
X13138309Y-49661985D01*
X13035815Y-49559491D01*
X13018510Y-49549500D01*
X12910286Y-49487016D01*
X12910281Y-49487014D01*
X12770277Y-49449500D01*
X12770275Y-49449500D01*
X12625325Y-49449500D01*
X12625323Y-49449500D01*
X12485314Y-49487015D01*
X12480836Y-49488871D01*
X12479665Y-49486045D01*
X12432939Y-49492085D01*
X12392720Y-49464595D01*
X12347150Y-49402850D01*
X12347146Y-49402846D01*
X12237883Y-49322207D01*
X12237881Y-49322206D01*
X12109704Y-49277355D01*
X12109705Y-49277355D01*
X12109700Y-49277354D01*
X12109699Y-49277354D01*
X12079266Y-49274500D01*
X11570734Y-49274500D01*
X11540301Y-49277354D01*
X11540299Y-49277354D01*
X11540295Y-49277355D01*
X11412118Y-49322206D01*
X11412116Y-49322207D01*
X11302853Y-49402846D01*
X11302846Y-49402853D01*
X11222207Y-49512116D01*
X11222206Y-49512118D01*
X11177355Y-49640295D01*
X11177354Y-49640299D01*
X11177354Y-49640301D01*
X11174500Y-49670734D01*
X11174500Y-49670740D01*
X11174500Y-50124166D01*
X11152826Y-50176492D01*
X11001326Y-50327992D01*
X10949000Y-50349666D01*
X10896674Y-50327992D01*
X10875000Y-50275666D01*
X10875000Y-50200000D01*
X10249000Y-50200000D01*
X10196674Y-50178326D01*
X10175000Y-50126000D01*
X10175000Y-50000000D01*
X10049000Y-50000000D01*
X9996674Y-49978326D01*
X9975000Y-49926000D01*
X9975000Y-49800000D01*
X10375000Y-49800000D01*
X10875000Y-49800000D01*
X10875000Y-49677171D01*
X10868597Y-49617624D01*
X10868596Y-49617619D01*
X10818354Y-49482912D01*
X10818353Y-49482911D01*
X10732188Y-49367811D01*
X10617088Y-49281646D01*
X10617087Y-49281645D01*
X10482380Y-49231403D01*
X10482375Y-49231402D01*
X10422829Y-49225000D01*
X10375000Y-49225000D01*
X10375000Y-49800000D01*
X9975000Y-49800000D01*
X9975000Y-49225000D01*
X9927163Y-49225000D01*
X9910407Y-49226801D01*
X9856065Y-49210842D01*
X9828924Y-49161132D01*
X9828500Y-49153225D01*
X9828500Y-46872834D01*
X9850174Y-46820508D01*
X9923508Y-46747174D01*
X9975834Y-46725500D01*
X10429258Y-46725500D01*
X10429266Y-46725500D01*
X10459699Y-46722646D01*
X10587882Y-46677793D01*
X10697150Y-46597150D01*
X10777793Y-46487882D01*
X10822646Y-46359699D01*
X10825500Y-46329266D01*
X10825500Y-45670734D01*
X10822646Y-45640301D01*
X10777793Y-45512118D01*
X10746709Y-45470000D01*
X10697153Y-45402853D01*
X10697146Y-45402846D01*
X10587883Y-45322207D01*
X10587881Y-45322206D01*
X10459704Y-45277355D01*
X10459705Y-45277355D01*
X10459700Y-45277354D01*
X10459699Y-45277354D01*
X10429266Y-45274500D01*
X9920734Y-45274500D01*
X9890301Y-45277354D01*
X9890299Y-45277354D01*
X9890295Y-45277355D01*
X9762118Y-45322206D01*
X9762116Y-45322207D01*
X9652853Y-45402846D01*
X9652846Y-45402853D01*
X9572207Y-45512116D01*
X9572206Y-45512118D01*
X9527355Y-45640295D01*
X9527354Y-45640299D01*
X9527354Y-45640301D01*
X9524500Y-45670734D01*
X9524500Y-45670740D01*
X9524500Y-46124166D01*
X9502826Y-46176492D01*
X9197530Y-46481787D01*
X9189588Y-46495544D01*
X9172903Y-46524444D01*
X9160503Y-46545921D01*
X9151385Y-46561713D01*
X9151384Y-46561715D01*
X9127500Y-46650853D01*
X500500Y-46650853D01*
X500500Y-42897646D01*
X5699500Y-42897646D01*
X5699500Y-43102353D01*
X5731522Y-43304531D01*
X5731525Y-43304544D01*
X5794777Y-43499213D01*
X5887712Y-43681610D01*
X5948188Y-43764848D01*
X6008034Y-43847219D01*
X6152781Y-43991966D01*
X6244695Y-44058745D01*
X6318389Y-44112287D01*
X6406300Y-44157079D01*
X6500781Y-44205220D01*
X6500783Y-44205220D01*
X6500786Y-44205222D01*
X6695455Y-44268474D01*
X6695461Y-44268475D01*
X6695466Y-44268477D01*
X6796557Y-44284488D01*
X6897646Y-44300500D01*
X6897648Y-44300500D01*
X7102354Y-44300500D01*
X7183224Y-44287690D01*
X7304534Y-44268477D01*
X7304541Y-44268474D01*
X7304544Y-44268474D01*
X7499213Y-44205222D01*
X7499213Y-44205221D01*
X7499219Y-44205220D01*
X7681610Y-44112287D01*
X7847219Y-43991966D01*
X7991966Y-43847219D01*
X8112287Y-43681610D01*
X8205220Y-43499219D01*
X8235156Y-43407085D01*
X8268474Y-43304544D01*
X8268474Y-43304541D01*
X8268477Y-43304534D01*
X8300500Y-43102352D01*
X8300500Y-42897648D01*
X8268477Y-42695466D01*
X8268475Y-42695461D01*
X8268474Y-42695455D01*
X8210835Y-42518061D01*
X10250000Y-42518061D01*
X10260614Y-42606443D01*
X10316077Y-42747092D01*
X10407435Y-42867564D01*
X10527907Y-42958922D01*
X10668556Y-43014385D01*
X10756939Y-43025000D01*
X10850000Y-43025000D01*
X11250000Y-43025000D01*
X11343061Y-43025000D01*
X11431443Y-43014385D01*
X11572092Y-42958922D01*
X11692564Y-42867564D01*
X11783922Y-42747092D01*
X11839385Y-42606443D01*
X11850000Y-42518061D01*
X11850000Y-42200000D01*
X11250000Y-42200000D01*
X11250000Y-43025000D01*
X10850000Y-43025000D01*
X10850000Y-42200000D01*
X10250000Y-42200000D01*
X10250000Y-42518061D01*
X8210835Y-42518061D01*
X8205222Y-42500786D01*
X8205220Y-42500783D01*
X8205220Y-42500781D01*
X8143378Y-42379409D01*
X8112287Y-42318389D01*
X8035604Y-42212844D01*
X8026272Y-42200000D01*
X7991966Y-42152781D01*
X7847219Y-42008034D01*
X7783040Y-41961406D01*
X7681610Y-41887712D01*
X7499213Y-41794777D01*
X7304544Y-41731525D01*
X7304531Y-41731522D01*
X7102354Y-41699500D01*
X7102352Y-41699500D01*
X6897648Y-41699500D01*
X6897646Y-41699500D01*
X6695468Y-41731522D01*
X6695455Y-41731525D01*
X6500786Y-41794777D01*
X6318389Y-41887712D01*
X6152785Y-42008031D01*
X6152781Y-42008034D01*
X6008034Y-42152781D01*
X6008031Y-42152784D01*
X6008031Y-42152785D01*
X5887712Y-42318389D01*
X5794777Y-42500786D01*
X5731525Y-42695455D01*
X5731522Y-42695468D01*
X5699500Y-42897646D01*
X500500Y-42897646D01*
X500500Y-32947270D01*
X1599500Y-32947270D01*
X1599500Y-40552729D01*
X1626791Y-40654582D01*
X1626795Y-40654591D01*
X1643755Y-40683966D01*
X1679520Y-40745913D01*
X1754087Y-40820480D01*
X1845413Y-40873207D01*
X1947270Y-40900499D01*
X1947271Y-40900500D01*
X1947273Y-40900500D01*
X10495329Y-40900500D01*
X10547655Y-40922174D01*
X10569329Y-40974500D01*
X10547655Y-41026826D01*
X10531599Y-41039002D01*
X10527909Y-41041076D01*
X10407435Y-41132435D01*
X10316077Y-41252907D01*
X10260614Y-41393556D01*
X10250000Y-41481938D01*
X10250000Y-41800000D01*
X11850000Y-41800000D01*
X11850000Y-41481938D01*
X11839385Y-41393556D01*
X11783922Y-41252907D01*
X11692564Y-41132435D01*
X11572090Y-41041076D01*
X11568401Y-41039002D01*
X11533414Y-40994463D01*
X11540169Y-40938230D01*
X11584708Y-40903243D01*
X11604671Y-40900500D01*
X12532002Y-40900500D01*
X12584328Y-40922174D01*
X12606002Y-40974500D01*
X12584328Y-41026826D01*
X12557862Y-41043834D01*
X12457670Y-41081202D01*
X12457669Y-41081203D01*
X12342454Y-41167454D01*
X12256203Y-41282669D01*
X12256202Y-41282670D01*
X12205910Y-41417512D01*
X12205909Y-41417517D01*
X12199500Y-41477126D01*
X12199500Y-42522873D01*
X12205909Y-42582485D01*
X12256202Y-42717329D01*
X12256203Y-42717330D01*
X12256204Y-42717331D01*
X12342454Y-42832546D01*
X12457669Y-42918796D01*
X12457670Y-42918797D01*
X12551360Y-42953741D01*
X12592813Y-42992334D01*
X12599500Y-43023075D01*
X12599500Y-44699166D01*
X12577826Y-44751492D01*
X12076492Y-45252826D01*
X12024166Y-45274500D01*
X11570734Y-45274500D01*
X11540301Y-45277354D01*
X11540299Y-45277354D01*
X11540295Y-45277355D01*
X11412118Y-45322206D01*
X11412116Y-45322207D01*
X11302853Y-45402846D01*
X11302846Y-45402853D01*
X11222207Y-45512116D01*
X11222206Y-45512118D01*
X11177355Y-45640295D01*
X11177354Y-45640299D01*
X11177354Y-45640301D01*
X11174500Y-45670734D01*
X11174500Y-46329266D01*
X11177354Y-46359699D01*
X11177354Y-46359701D01*
X11177355Y-46359704D01*
X11222206Y-46487881D01*
X11222207Y-46487883D01*
X11302846Y-46597146D01*
X11302853Y-46597153D01*
X11412116Y-46677792D01*
X11412118Y-46677793D01*
X11540295Y-46722644D01*
X11540301Y-46722646D01*
X11570734Y-46725500D01*
X11570741Y-46725500D01*
X12079258Y-46725500D01*
X12079266Y-46725500D01*
X12109699Y-46722646D01*
X12237882Y-46677793D01*
X12347150Y-46597150D01*
X12427793Y-46487882D01*
X12472646Y-46359699D01*
X12475500Y-46329266D01*
X12475500Y-45875832D01*
X12497173Y-45823507D01*
X13230469Y-45090212D01*
X13276614Y-45010288D01*
X13281854Y-44990731D01*
X13300500Y-44921144D01*
X13300500Y-43023075D01*
X13322174Y-42970749D01*
X13348640Y-42953741D01*
X13442329Y-42918797D01*
X13442329Y-42918796D01*
X13442331Y-42918796D01*
X13557546Y-42832546D01*
X13643796Y-42717331D01*
X13694091Y-42582483D01*
X13700500Y-42522873D01*
X13700500Y-42518061D01*
X18250000Y-42518061D01*
X18260614Y-42606443D01*
X18316077Y-42747092D01*
X18407435Y-42867564D01*
X18527907Y-42958922D01*
X18668556Y-43014385D01*
X18756939Y-43025000D01*
X18850000Y-43025000D01*
X19250000Y-43025000D01*
X19343061Y-43025000D01*
X19431443Y-43014385D01*
X19572092Y-42958922D01*
X19692564Y-42867564D01*
X19783922Y-42747092D01*
X19839385Y-42606443D01*
X19850000Y-42518061D01*
X19850000Y-42200000D01*
X19250000Y-42200000D01*
X19250000Y-43025000D01*
X18850000Y-43025000D01*
X18850000Y-42200000D01*
X18250000Y-42200000D01*
X18250000Y-42518061D01*
X13700500Y-42518061D01*
X13700499Y-42122125D01*
X13700499Y-41775834D01*
X13722173Y-41723508D01*
X13722174Y-41723507D01*
X13750709Y-41694973D01*
X13756849Y-41692430D01*
X13803034Y-41673300D01*
X13869077Y-41673300D01*
X13869077Y-41673299D01*
X14009085Y-41635784D01*
X14134615Y-41563309D01*
X14215986Y-41481938D01*
X18250000Y-41481938D01*
X18250000Y-41800000D01*
X18850000Y-41800000D01*
X18850000Y-40983049D01*
X19250000Y-40983049D01*
X19250000Y-41800000D01*
X19850000Y-41800000D01*
X19850000Y-41481938D01*
X19839385Y-41393555D01*
X19839385Y-41393553D01*
X19827895Y-41364417D01*
X19828861Y-41307788D01*
X19869587Y-41268429D01*
X19926216Y-41269395D01*
X19949061Y-41284943D01*
X20177826Y-41513708D01*
X20199500Y-41566034D01*
X20199500Y-42522873D01*
X20205909Y-42582485D01*
X20256202Y-42717329D01*
X20256203Y-42717330D01*
X20256204Y-42717331D01*
X20342454Y-42832546D01*
X20457669Y-42918796D01*
X20457670Y-42918797D01*
X20551361Y-42953741D01*
X20592517Y-42969091D01*
X20652127Y-42975500D01*
X21247872Y-42975499D01*
X21307483Y-42969091D01*
X21374907Y-42943943D01*
X21442329Y-42918797D01*
X21442329Y-42918796D01*
X21442331Y-42918796D01*
X21557546Y-42832546D01*
X21643796Y-42717331D01*
X21694091Y-42582483D01*
X21700500Y-42522873D01*
X21700499Y-41477128D01*
X21694091Y-41417517D01*
X21663421Y-41335286D01*
X21643797Y-41282670D01*
X21643796Y-41282669D01*
X21607404Y-41234056D01*
X21557546Y-41167454D01*
X21442331Y-41081204D01*
X21442330Y-41081203D01*
X21442329Y-41081202D01*
X21307487Y-41030910D01*
X21307484Y-41030909D01*
X21307483Y-41030909D01*
X21252868Y-41025037D01*
X21247874Y-41024500D01*
X21247873Y-41024500D01*
X20710634Y-41024500D01*
X20658308Y-41002826D01*
X20391774Y-40736292D01*
X20370100Y-40683966D01*
X20370100Y-40587323D01*
X20370099Y-40587322D01*
X20332585Y-40447318D01*
X20332583Y-40447313D01*
X20277620Y-40352115D01*
X20260109Y-40321785D01*
X20157615Y-40219291D01*
X20032086Y-40146816D01*
X20032081Y-40146814D01*
X19892077Y-40109300D01*
X19892075Y-40109300D01*
X19747125Y-40109300D01*
X19747123Y-40109300D01*
X19607118Y-40146814D01*
X19607113Y-40146816D01*
X19481584Y-40219291D01*
X19379091Y-40321784D01*
X19306616Y-40447313D01*
X19306614Y-40447318D01*
X19269100Y-40587322D01*
X19269100Y-40732277D01*
X19306614Y-40872281D01*
X19306781Y-40872683D01*
X19306780Y-40872902D01*
X19307871Y-40876970D01*
X19306780Y-40877262D01*
X19306780Y-40893645D01*
X19311239Y-40914128D01*
X19306779Y-40921069D01*
X19306779Y-40929320D01*
X19291956Y-40944141D01*
X19280626Y-40961779D01*
X19250000Y-40983049D01*
X18850000Y-40983049D01*
X18850000Y-40975000D01*
X18756939Y-40975000D01*
X18668556Y-40985614D01*
X18527907Y-41041077D01*
X18407435Y-41132435D01*
X18316077Y-41252907D01*
X18260614Y-41393556D01*
X18250000Y-41481938D01*
X14215986Y-41481938D01*
X14237109Y-41460815D01*
X14309584Y-41335285D01*
X14347099Y-41195277D01*
X14347100Y-41195277D01*
X14347100Y-41050323D01*
X14347099Y-41050322D01*
X14331915Y-40993653D01*
X14339307Y-40937500D01*
X14384240Y-40903022D01*
X14403393Y-40900500D01*
X15552729Y-40900500D01*
X15552729Y-40900499D01*
X15654587Y-40873207D01*
X15745913Y-40820480D01*
X15820480Y-40745913D01*
X15873207Y-40654587D01*
X15900499Y-40552729D01*
X15900500Y-40552729D01*
X15900500Y-36367713D01*
X15922174Y-36315387D01*
X15974500Y-36293713D01*
X16011497Y-36303626D01*
X16045413Y-36323207D01*
X16147270Y-36350499D01*
X16147271Y-36350500D01*
X16147273Y-36350500D01*
X16252727Y-36350500D01*
X16655778Y-36350500D01*
X16708104Y-36372174D01*
X16786719Y-36450789D01*
X16903285Y-36510182D01*
X16999997Y-36525500D01*
X18300002Y-36525499D01*
X18396715Y-36510182D01*
X18513281Y-36450789D01*
X18605789Y-36358281D01*
X18665182Y-36241715D01*
X18680500Y-36145003D01*
X18680499Y-35754998D01*
X18665182Y-35658285D01*
X18605789Y-35541719D01*
X18513281Y-35449211D01*
X18443832Y-35413825D01*
X18396714Y-35389817D01*
X18300004Y-35374500D01*
X16999997Y-35374500D01*
X16903284Y-35389818D01*
X16786718Y-35449211D01*
X16726826Y-35509104D01*
X16674500Y-35530778D01*
X16622174Y-35509104D01*
X16600500Y-35456778D01*
X16600500Y-34543222D01*
X16622174Y-34490896D01*
X16674500Y-34469222D01*
X16726826Y-34490896D01*
X16786719Y-34550789D01*
X16903285Y-34610182D01*
X16999997Y-34625500D01*
X18300002Y-34625499D01*
X18396715Y-34610182D01*
X18513281Y-34550789D01*
X18605789Y-34458281D01*
X18665182Y-34341715D01*
X18680500Y-34245003D01*
X18680499Y-33854998D01*
X18669583Y-33786074D01*
X18682805Y-33731004D01*
X18731096Y-33701411D01*
X18742672Y-33700500D01*
X19091324Y-33700500D01*
X19143650Y-33722174D01*
X19161985Y-33740509D01*
X19282500Y-33810089D01*
X19316978Y-33855021D01*
X19319500Y-33874174D01*
X19319500Y-34245002D01*
X19334818Y-34341715D01*
X19394211Y-34458281D01*
X19408604Y-34472674D01*
X19430278Y-34525000D01*
X19408604Y-34577326D01*
X19394211Y-34591718D01*
X19334817Y-34708285D01*
X19319500Y-34804995D01*
X19319500Y-35195002D01*
X19334818Y-35291715D01*
X19394211Y-35408281D01*
X19408604Y-35422674D01*
X19430278Y-35475000D01*
X19408604Y-35527326D01*
X19394211Y-35541718D01*
X19334817Y-35658285D01*
X19319500Y-35754995D01*
X19319500Y-36145002D01*
X19330887Y-36216893D01*
X19334818Y-36241715D01*
X19394211Y-36358281D01*
X19486719Y-36450789D01*
X19603285Y-36510182D01*
X19699997Y-36525500D01*
X21000002Y-36525499D01*
X21096715Y-36510182D01*
X21213281Y-36450789D01*
X21305789Y-36358281D01*
X21365182Y-36241715D01*
X21380500Y-36145003D01*
X21380499Y-36105606D01*
X21402172Y-36053281D01*
X21454497Y-36031606D01*
X21473653Y-36034128D01*
X21483624Y-36036800D01*
X21483625Y-36036800D01*
X21628577Y-36036800D01*
X21628577Y-36036799D01*
X21768585Y-35999284D01*
X21894115Y-35926809D01*
X21996609Y-35824315D01*
X22069084Y-35698785D01*
X22106599Y-35558777D01*
X22106600Y-35558777D01*
X22106600Y-35442528D01*
X22128274Y-35390202D01*
X22152289Y-35374158D01*
X22154580Y-35373208D01*
X22154587Y-35373207D01*
X22245913Y-35320480D01*
X22320480Y-35245913D01*
X22373207Y-35154587D01*
X22400499Y-35052729D01*
X22400500Y-35052729D01*
X22400500Y-33247271D01*
X22400499Y-33247270D01*
X22373208Y-33145417D01*
X22373207Y-33145413D01*
X22320480Y-33054087D01*
X22245913Y-32979520D01*
X22237218Y-32974500D01*
X22154591Y-32926795D01*
X22154582Y-32926791D01*
X22052729Y-32899500D01*
X22052727Y-32899500D01*
X21608676Y-32899500D01*
X21556350Y-32877826D01*
X21538015Y-32859491D01*
X21412486Y-32787016D01*
X21412481Y-32787014D01*
X21272477Y-32749500D01*
X21272475Y-32749500D01*
X21127525Y-32749500D01*
X21127523Y-32749500D01*
X20987518Y-32787014D01*
X20987513Y-32787016D01*
X20861500Y-32859771D01*
X20805348Y-32867164D01*
X20760414Y-32832685D01*
X20750500Y-32795685D01*
X20750500Y-32447271D01*
X20750499Y-32447270D01*
X20723208Y-32345417D01*
X20723207Y-32345413D01*
X20670480Y-32254087D01*
X20595913Y-32179520D01*
X20527291Y-32139901D01*
X20504591Y-32126795D01*
X20504582Y-32126791D01*
X20402729Y-32099500D01*
X20402727Y-32099500D01*
X18474500Y-32099500D01*
X18422174Y-32077826D01*
X18400500Y-32025500D01*
X18400500Y-30606384D01*
X19429500Y-30606384D01*
X19429500Y-30793615D01*
X19466025Y-30977244D01*
X19466027Y-30977251D01*
X19517078Y-31100500D01*
X19537678Y-31150231D01*
X19599196Y-31242299D01*
X19623398Y-31278521D01*
X19641698Y-31305908D01*
X19774092Y-31438302D01*
X19929769Y-31542322D01*
X20102749Y-31613973D01*
X20286384Y-31650500D01*
X20286385Y-31650500D01*
X20473615Y-31650500D01*
X20473616Y-31650500D01*
X20657251Y-31613973D01*
X20830231Y-31542322D01*
X20985908Y-31438302D01*
X21118302Y-31305908D01*
X21222322Y-31150231D01*
X21293973Y-30977251D01*
X21330500Y-30793616D01*
X21330500Y-30606384D01*
X21969500Y-30606384D01*
X21969500Y-30793615D01*
X22006025Y-30977244D01*
X22006027Y-30977251D01*
X22057078Y-31100500D01*
X22077678Y-31150231D01*
X22139196Y-31242299D01*
X22163398Y-31278521D01*
X22181698Y-31305908D01*
X22314092Y-31438302D01*
X22469769Y-31542322D01*
X22642749Y-31613973D01*
X22826384Y-31650500D01*
X22826385Y-31650500D01*
X23013615Y-31650500D01*
X23013616Y-31650500D01*
X23197251Y-31613973D01*
X23370231Y-31542322D01*
X23525908Y-31438302D01*
X23658302Y-31305908D01*
X23762322Y-31150231D01*
X23833973Y-30977251D01*
X23870500Y-30793616D01*
X23870500Y-30606384D01*
X23833973Y-30422749D01*
X23762322Y-30249769D01*
X23658302Y-30094092D01*
X23525908Y-29961698D01*
X23370231Y-29857678D01*
X23370228Y-29857676D01*
X23370227Y-29857676D01*
X23197251Y-29786027D01*
X23197244Y-29786025D01*
X23058902Y-29758507D01*
X23013616Y-29749500D01*
X22826384Y-29749500D01*
X22790056Y-29756725D01*
X22642755Y-29786025D01*
X22642748Y-29786027D01*
X22469772Y-29857676D01*
X22314092Y-29961697D01*
X22314091Y-29961699D01*
X22181699Y-30094091D01*
X22181697Y-30094092D01*
X22077676Y-30249772D01*
X22006027Y-30422748D01*
X22006025Y-30422755D01*
X21969500Y-30606384D01*
X21330500Y-30606384D01*
X21293973Y-30422749D01*
X21222322Y-30249769D01*
X21118302Y-30094092D01*
X20985908Y-29961698D01*
X20830231Y-29857678D01*
X20830228Y-29857676D01*
X20830227Y-29857676D01*
X20657251Y-29786027D01*
X20657244Y-29786025D01*
X20518902Y-29758507D01*
X20473616Y-29749500D01*
X20286384Y-29749500D01*
X20250056Y-29756725D01*
X20102755Y-29786025D01*
X20102748Y-29786027D01*
X19929772Y-29857676D01*
X19774092Y-29961697D01*
X19774091Y-29961699D01*
X19641699Y-30094091D01*
X19641697Y-30094092D01*
X19537676Y-30249772D01*
X19466027Y-30422748D01*
X19466025Y-30422755D01*
X19429500Y-30606384D01*
X18400500Y-30606384D01*
X18400500Y-28761230D01*
X18422174Y-28708904D01*
X18474500Y-28687230D01*
X18526826Y-28708904D01*
X18599711Y-28781789D01*
X18730821Y-28869394D01*
X18730826Y-28869396D01*
X18730825Y-28869396D01*
X18838592Y-28914034D01*
X18876503Y-28929737D01*
X19031158Y-28960500D01*
X19031160Y-28960500D01*
X19188840Y-28960500D01*
X19188842Y-28960500D01*
X19343497Y-28929737D01*
X19489179Y-28869394D01*
X19620289Y-28781789D01*
X19731789Y-28670289D01*
X19819394Y-28539179D01*
X19879737Y-28393497D01*
X19910500Y-28238842D01*
X19910500Y-28081158D01*
X19879737Y-27926503D01*
X19879735Y-27926498D01*
X19819396Y-27780825D01*
X19819395Y-27780823D01*
X19819394Y-27780821D01*
X19731789Y-27649711D01*
X19620289Y-27538211D01*
X19600517Y-27525000D01*
X19581449Y-27512259D01*
X19489179Y-27450606D01*
X19489175Y-27450604D01*
X19489173Y-27450603D01*
X19489174Y-27450603D01*
X19343501Y-27390264D01*
X19343491Y-27390261D01*
X19239925Y-27369661D01*
X19188842Y-27359500D01*
X19031158Y-27359500D01*
X18987315Y-27368220D01*
X18876508Y-27390261D01*
X18876498Y-27390264D01*
X18730825Y-27450603D01*
X18599711Y-27538210D01*
X18599710Y-27538212D01*
X18526826Y-27611096D01*
X18474500Y-27632770D01*
X18422174Y-27611096D01*
X18400500Y-27558770D01*
X18400500Y-26221230D01*
X18422174Y-26168904D01*
X18474500Y-26147230D01*
X18526826Y-26168904D01*
X18599711Y-26241789D01*
X18730821Y-26329394D01*
X18730826Y-26329396D01*
X18730825Y-26329396D01*
X18876498Y-26389735D01*
X18876503Y-26389737D01*
X19031158Y-26420500D01*
X19031160Y-26420500D01*
X19188840Y-26420500D01*
X19188842Y-26420500D01*
X19343497Y-26389737D01*
X19489179Y-26329394D01*
X19620289Y-26241789D01*
X19731789Y-26130289D01*
X19819394Y-25999179D01*
X19879737Y-25853497D01*
X19910500Y-25698842D01*
X19910500Y-25541158D01*
X19879737Y-25386503D01*
X19879735Y-25386498D01*
X19819396Y-25240825D01*
X19819395Y-25240823D01*
X19819394Y-25240821D01*
X19731789Y-25109711D01*
X19620289Y-24998211D01*
X19489179Y-24910606D01*
X19489175Y-24910604D01*
X19489173Y-24910603D01*
X19489174Y-24910603D01*
X19343501Y-24850264D01*
X19343491Y-24850261D01*
X19239925Y-24829661D01*
X19188842Y-24819500D01*
X19031158Y-24819500D01*
X18987315Y-24828220D01*
X18876508Y-24850261D01*
X18876498Y-24850264D01*
X18730825Y-24910603D01*
X18599711Y-24998210D01*
X18599710Y-24998212D01*
X18488212Y-25109710D01*
X18488210Y-25109711D01*
X18400603Y-25240825D01*
X18340264Y-25386498D01*
X18340261Y-25386508D01*
X18309500Y-25541159D01*
X18309500Y-25698841D01*
X18326489Y-25784254D01*
X18315439Y-25839803D01*
X18268347Y-25871268D01*
X18216911Y-25862776D01*
X18200846Y-25853501D01*
X18177121Y-25839803D01*
X18154591Y-25826795D01*
X18154582Y-25826791D01*
X18052729Y-25799500D01*
X18052727Y-25799500D01*
X11402727Y-25799500D01*
X11297273Y-25799500D01*
X11297271Y-25799500D01*
X11195417Y-25826791D01*
X11195408Y-25826795D01*
X11104086Y-25879520D01*
X11029520Y-25954086D01*
X10976795Y-26045408D01*
X10976791Y-26045417D01*
X10949500Y-26147270D01*
X10949500Y-26400500D01*
X10927826Y-26452826D01*
X10875500Y-26474500D01*
X10699997Y-26474500D01*
X10603284Y-26489818D01*
X10486718Y-26549211D01*
X10394211Y-26641718D01*
X10334817Y-26758285D01*
X10319500Y-26854995D01*
X10319500Y-27108365D01*
X10297826Y-27160691D01*
X10245500Y-27182365D01*
X10220939Y-27178170D01*
X9729938Y-27005410D01*
X9687772Y-26967597D01*
X9680499Y-26935605D01*
X9680499Y-26854997D01*
X9667537Y-26773156D01*
X9665182Y-26758285D01*
X9605789Y-26641719D01*
X9513281Y-26549211D01*
X9492909Y-26538831D01*
X9396714Y-26489817D01*
X9300005Y-26474500D01*
X9300003Y-26474500D01*
X8600834Y-26474500D01*
X8548508Y-26452826D01*
X6212174Y-24116492D01*
X6190500Y-24064166D01*
X6190500Y-23001159D01*
X18309500Y-23001159D01*
X18309500Y-23158840D01*
X18340261Y-23313491D01*
X18340264Y-23313501D01*
X18400603Y-23459174D01*
X18400605Y-23459177D01*
X18400606Y-23459179D01*
X18444997Y-23525615D01*
X18487808Y-23589687D01*
X18488211Y-23590289D01*
X18599711Y-23701789D01*
X18730821Y-23789394D01*
X18730826Y-23789396D01*
X18730825Y-23789396D01*
X18876498Y-23849735D01*
X18876503Y-23849737D01*
X19031158Y-23880500D01*
X19031160Y-23880500D01*
X19188840Y-23880500D01*
X19188842Y-23880500D01*
X19343497Y-23849737D01*
X19489179Y-23789394D01*
X19620289Y-23701789D01*
X19731789Y-23590289D01*
X19819394Y-23459179D01*
X19879737Y-23313497D01*
X19910500Y-23158842D01*
X19910500Y-23001158D01*
X19879737Y-22846503D01*
X19845973Y-22764988D01*
X19819396Y-22700825D01*
X19819395Y-22700823D01*
X19819394Y-22700821D01*
X19731789Y-22569711D01*
X19620289Y-22458211D01*
X19489179Y-22370606D01*
X19489175Y-22370604D01*
X19489173Y-22370603D01*
X19489174Y-22370603D01*
X19343501Y-22310264D01*
X19343491Y-22310261D01*
X19236717Y-22289023D01*
X19188842Y-22279500D01*
X19031158Y-22279500D01*
X18987315Y-22288220D01*
X18876508Y-22310261D01*
X18876498Y-22310264D01*
X18730825Y-22370603D01*
X18599711Y-22458210D01*
X18599710Y-22458212D01*
X18488212Y-22569710D01*
X18488210Y-22569711D01*
X18400603Y-22700825D01*
X18340264Y-22846498D01*
X18340261Y-22846508D01*
X18328446Y-22905909D01*
X18309731Y-23000000D01*
X18309500Y-23001159D01*
X6190500Y-23001159D01*
X6190500Y-22296863D01*
X6475000Y-22296863D01*
X6485011Y-22380226D01*
X6537323Y-22512882D01*
X6623490Y-22626509D01*
X6737117Y-22712676D01*
X6869773Y-22764988D01*
X6953137Y-22775000D01*
X7012500Y-22775000D01*
X7412500Y-22775000D01*
X7471863Y-22775000D01*
X7555226Y-22764988D01*
X7687882Y-22712676D01*
X7801509Y-22626509D01*
X7887676Y-22512882D01*
X7939988Y-22380226D01*
X7950000Y-22296863D01*
X7950000Y-22200000D01*
X7412500Y-22200000D01*
X7412500Y-22775000D01*
X7012500Y-22775000D01*
X7012500Y-22200000D01*
X6475000Y-22200000D01*
X6475000Y-22296863D01*
X6190500Y-22296863D01*
X6190500Y-21703136D01*
X6475000Y-21703136D01*
X6475000Y-21800000D01*
X7012500Y-21800000D01*
X7412500Y-21800000D01*
X7950000Y-21800000D01*
X7950000Y-21703140D01*
X7949999Y-21703133D01*
X7949487Y-21698869D01*
X8099500Y-21698869D01*
X8099500Y-22301130D01*
X8105509Y-22357021D01*
X8105510Y-22357026D01*
X8152662Y-22483448D01*
X8152663Y-22483449D01*
X8152664Y-22483450D01*
X8233528Y-22591472D01*
X8308889Y-22647886D01*
X8341550Y-22672336D01*
X8341551Y-22672337D01*
X8427828Y-22704516D01*
X8467978Y-22719491D01*
X8518443Y-22724916D01*
X8523869Y-22725500D01*
X8523870Y-22725500D01*
X9051131Y-22725500D01*
X9056076Y-22724968D01*
X9107022Y-22719491D01*
X9202714Y-22683800D01*
X9233448Y-22672337D01*
X9233448Y-22672336D01*
X9233450Y-22672336D01*
X9341472Y-22591472D01*
X9422336Y-22483450D01*
X9469491Y-22357022D01*
X9473167Y-22322828D01*
X14475000Y-22322828D01*
X14481402Y-22382375D01*
X14481403Y-22382380D01*
X14531645Y-22517087D01*
X14531646Y-22517088D01*
X14617811Y-22632188D01*
X14732911Y-22718353D01*
X14732912Y-22718354D01*
X14867619Y-22768596D01*
X14867624Y-22768597D01*
X14927171Y-22775000D01*
X14975000Y-22775000D01*
X15375000Y-22775000D01*
X15422829Y-22775000D01*
X15482375Y-22768597D01*
X15482380Y-22768596D01*
X15617087Y-22718354D01*
X15617088Y-22718353D01*
X15732188Y-22632188D01*
X15818353Y-22517088D01*
X15818354Y-22517087D01*
X15868596Y-22382380D01*
X15868597Y-22382375D01*
X15875000Y-22322828D01*
X15875000Y-22200000D01*
X15375000Y-22200000D01*
X15375000Y-22775000D01*
X14975000Y-22775000D01*
X14975000Y-22200000D01*
X14475000Y-22200000D01*
X14475000Y-22322828D01*
X9473167Y-22322828D01*
X9475500Y-22301130D01*
X9475500Y-21698870D01*
X9474640Y-21690875D01*
X9473805Y-21683099D01*
X9473167Y-21677171D01*
X14475000Y-21677171D01*
X14475000Y-21800000D01*
X14975000Y-21800000D01*
X14975000Y-21225000D01*
X14927171Y-21225000D01*
X14867624Y-21231402D01*
X14867619Y-21231403D01*
X14732912Y-21281645D01*
X14732911Y-21281646D01*
X14617811Y-21367811D01*
X14531646Y-21482911D01*
X14531645Y-21482912D01*
X14481403Y-21617619D01*
X14481402Y-21617624D01*
X14475000Y-21677171D01*
X9473167Y-21677171D01*
X9472265Y-21668785D01*
X9469491Y-21642978D01*
X9460836Y-21619773D01*
X9422337Y-21516551D01*
X9422336Y-21516550D01*
X9397154Y-21482911D01*
X9341472Y-21408528D01*
X9233450Y-21327664D01*
X9233449Y-21327663D01*
X9233450Y-21327663D01*
X9186139Y-21310017D01*
X9144687Y-21271423D01*
X9138000Y-21240683D01*
X9138000Y-17220033D01*
X9159673Y-17167708D01*
X10188787Y-16138593D01*
X10241113Y-16116920D01*
X10293439Y-16138594D01*
X10311966Y-16174958D01*
X10312555Y-16174767D01*
X10313761Y-16178479D01*
X10314202Y-16179345D01*
X10314353Y-16180304D01*
X10314354Y-16180306D01*
X10353512Y-16257156D01*
X10371950Y-16293342D01*
X10461658Y-16383050D01*
X10574696Y-16440646D01*
X10668481Y-16455500D01*
X10914964Y-16455499D01*
X10967290Y-16477173D01*
X10988964Y-16529499D01*
X10986443Y-16548650D01*
X10974500Y-16593224D01*
X10974500Y-16738177D01*
X11012014Y-16878181D01*
X11012016Y-16878186D01*
X11013590Y-16880912D01*
X11084491Y-17003715D01*
X11186985Y-17106209D01*
X11312515Y-17178684D01*
X11312516Y-17178684D01*
X11312518Y-17178685D01*
X11352440Y-17189382D01*
X11452522Y-17216199D01*
X11452523Y-17216200D01*
X11452525Y-17216200D01*
X11597477Y-17216200D01*
X11597477Y-17216199D01*
X11737485Y-17178684D01*
X11863015Y-17106209D01*
X11965509Y-17003715D01*
X12037984Y-16878185D01*
X12075499Y-16738177D01*
X12075500Y-16738177D01*
X12075500Y-16593223D01*
X12075499Y-16593222D01*
X12063557Y-16548652D01*
X12070949Y-16492499D01*
X12115882Y-16458021D01*
X12135035Y-16455499D01*
X12381519Y-16455499D01*
X12475304Y-16440646D01*
X12475306Y-16440645D01*
X12477419Y-16439568D01*
X12588342Y-16383050D01*
X12678050Y-16293342D01*
X12735646Y-16180304D01*
X12750500Y-16086519D01*
X12750499Y-15723482D01*
X12749992Y-15720281D01*
X12747743Y-15706074D01*
X12760966Y-15651002D01*
X12809258Y-15621411D01*
X12820832Y-15620500D01*
X13062146Y-15620500D01*
X13062146Y-15620499D01*
X13151288Y-15596614D01*
X13231212Y-15550470D01*
X15150824Y-13630856D01*
X15161822Y-13626300D01*
X15169555Y-13617248D01*
X15186990Y-13615876D01*
X15203149Y-13609183D01*
X15214148Y-13613739D01*
X15226018Y-13612805D01*
X15239317Y-13624164D01*
X15255475Y-13630857D01*
X15269084Y-13649589D01*
X15276487Y-13664119D01*
X15280930Y-13720582D01*
X15262878Y-13750039D01*
X14339631Y-14673286D01*
X14339627Y-14673291D01*
X14329831Y-14690261D01*
X14329830Y-14690263D01*
X14293486Y-14753210D01*
X14293484Y-14753215D01*
X14269600Y-14842353D01*
X14269600Y-19841246D01*
X14289228Y-19914496D01*
X14289229Y-19914500D01*
X14293484Y-19930385D01*
X14339630Y-20010312D01*
X15427992Y-21098674D01*
X15449666Y-21151000D01*
X15427992Y-21203326D01*
X15375666Y-21225000D01*
X15375000Y-21225000D01*
X15375000Y-21800000D01*
X15875000Y-21800000D01*
X15875000Y-21724334D01*
X15896674Y-21672008D01*
X15949000Y-21650334D01*
X16001326Y-21672008D01*
X16152826Y-21823508D01*
X16174500Y-21875834D01*
X16174500Y-22329266D01*
X16177354Y-22359699D01*
X16177354Y-22359701D01*
X16177355Y-22359704D01*
X16222206Y-22487881D01*
X16222207Y-22487883D01*
X16302846Y-22597146D01*
X16302853Y-22597153D01*
X16412116Y-22677792D01*
X16412118Y-22677793D01*
X16540295Y-22722644D01*
X16540301Y-22722646D01*
X16570734Y-22725500D01*
X16570741Y-22725500D01*
X17079258Y-22725500D01*
X17079266Y-22725500D01*
X17109699Y-22722646D01*
X17237882Y-22677793D01*
X17347150Y-22597150D01*
X17427793Y-22487882D01*
X17472646Y-22359699D01*
X17475500Y-22329266D01*
X17475500Y-21670734D01*
X17472646Y-21640301D01*
X17427793Y-21512118D01*
X17409342Y-21487117D01*
X17347153Y-21402853D01*
X17347146Y-21402846D01*
X17237883Y-21322207D01*
X17237881Y-21322206D01*
X17109704Y-21277355D01*
X17109705Y-21277355D01*
X17109700Y-21277354D01*
X17109699Y-21277354D01*
X17079266Y-21274500D01*
X17079260Y-21274500D01*
X16625834Y-21274500D01*
X16573508Y-21252826D01*
X15297508Y-19976826D01*
X15275834Y-19924500D01*
X15297508Y-19872174D01*
X15349834Y-19850500D01*
X16897875Y-19850500D01*
X16903149Y-19849932D01*
X16957484Y-19844091D01*
X17092331Y-19793796D01*
X17207547Y-19707547D01*
X17293796Y-19592331D01*
X17344091Y-19457484D01*
X17350500Y-19397874D01*
X17350500Y-17602126D01*
X17344091Y-17542516D01*
X17321643Y-17482331D01*
X17300686Y-17426141D01*
X17302707Y-17369540D01*
X17344160Y-17330947D01*
X17400761Y-17332968D01*
X17422343Y-17347953D01*
X17811938Y-17737525D01*
X17817324Y-17742910D01*
X17839000Y-17795235D01*
X17839000Y-18324846D01*
X17862884Y-18413984D01*
X17862886Y-18413989D01*
X17909030Y-18493912D01*
X19036239Y-19621121D01*
X19057913Y-19673447D01*
X19036239Y-19725773D01*
X18998350Y-19746025D01*
X18876508Y-19770261D01*
X18876498Y-19770264D01*
X18730825Y-19830603D01*
X18599711Y-19918210D01*
X18599710Y-19918212D01*
X18488212Y-20029710D01*
X18488210Y-20029711D01*
X18400603Y-20160825D01*
X18340264Y-20306498D01*
X18340261Y-20306508D01*
X18309500Y-20461159D01*
X18309500Y-20618840D01*
X18340261Y-20773491D01*
X18340264Y-20773501D01*
X18400603Y-20919174D01*
X18400605Y-20919177D01*
X18400606Y-20919179D01*
X18488211Y-21050289D01*
X18599711Y-21161789D01*
X18730821Y-21249394D01*
X18730826Y-21249396D01*
X18730825Y-21249396D01*
X18876498Y-21309735D01*
X18876503Y-21309737D01*
X19031158Y-21340500D01*
X19031160Y-21340500D01*
X19188840Y-21340500D01*
X19188842Y-21340500D01*
X19343497Y-21309737D01*
X19489179Y-21249394D01*
X19620289Y-21161789D01*
X19731789Y-21050289D01*
X19819394Y-20919179D01*
X19879737Y-20773497D01*
X19903974Y-20651648D01*
X19935440Y-20604556D01*
X19990988Y-20593507D01*
X20028878Y-20613759D01*
X26357926Y-26942807D01*
X26379600Y-26995133D01*
X26379600Y-30121478D01*
X26357926Y-30173804D01*
X26305600Y-30195478D01*
X26253274Y-30173804D01*
X26244071Y-30162590D01*
X26198302Y-30094092D01*
X26065907Y-29961697D01*
X26014482Y-29927336D01*
X25910231Y-29857678D01*
X25910228Y-29857676D01*
X25910227Y-29857676D01*
X25737251Y-29786027D01*
X25737244Y-29786025D01*
X25598902Y-29758507D01*
X25553616Y-29749500D01*
X25366384Y-29749500D01*
X25330056Y-29756725D01*
X25182755Y-29786025D01*
X25182748Y-29786027D01*
X25009772Y-29857676D01*
X24854092Y-29961697D01*
X24854091Y-29961699D01*
X24721699Y-30094091D01*
X24721697Y-30094092D01*
X24617676Y-30249772D01*
X24546027Y-30422748D01*
X24546025Y-30422755D01*
X24509500Y-30606384D01*
X24509500Y-30793615D01*
X24546025Y-30977244D01*
X24546027Y-30977251D01*
X24597078Y-31100500D01*
X24617678Y-31150231D01*
X24679196Y-31242299D01*
X24703398Y-31278521D01*
X24721698Y-31305908D01*
X24854092Y-31438302D01*
X25009769Y-31542322D01*
X25182749Y-31613973D01*
X25366384Y-31650500D01*
X25366385Y-31650500D01*
X25553615Y-31650500D01*
X25553616Y-31650500D01*
X25737251Y-31613973D01*
X25910231Y-31542322D01*
X26065908Y-31438302D01*
X26198302Y-31305908D01*
X26244071Y-31237408D01*
X26291163Y-31205943D01*
X26346712Y-31216992D01*
X26378178Y-31264084D01*
X26379600Y-31278521D01*
X26379600Y-45704546D01*
X26391140Y-45747613D01*
X26391140Y-45747614D01*
X26403484Y-45793683D01*
X26403486Y-45793688D01*
X26449630Y-45873612D01*
X27048893Y-46472875D01*
X27070567Y-46525201D01*
X27058097Y-46566312D01*
X27014034Y-46632260D01*
X26999500Y-46705327D01*
X26999500Y-48204672D01*
X27010365Y-48259295D01*
X26999316Y-48314844D01*
X26956940Y-48345210D01*
X26887869Y-48363717D01*
X26887860Y-48363721D01*
X26756637Y-48439483D01*
X26649483Y-48546637D01*
X26573721Y-48677860D01*
X26573717Y-48677869D01*
X26534500Y-48824231D01*
X26534500Y-48975768D01*
X26573717Y-49122130D01*
X26573721Y-49122139D01*
X26642452Y-49241184D01*
X26649485Y-49253365D01*
X26756635Y-49360515D01*
X26887865Y-49436281D01*
X27034231Y-49475499D01*
X27034232Y-49475500D01*
X27034234Y-49475500D01*
X27185768Y-49475500D01*
X27185768Y-49475499D01*
X27332135Y-49436281D01*
X27463365Y-49360515D01*
X27570515Y-49253365D01*
X27646281Y-49122135D01*
X27685499Y-48975768D01*
X27685500Y-48975768D01*
X27685500Y-48824232D01*
X27685499Y-48824231D01*
X27680044Y-48803874D01*
X27646281Y-48677865D01*
X27570515Y-48546635D01*
X27570514Y-48546634D01*
X27568090Y-48542435D01*
X27570481Y-48541054D01*
X27558088Y-48494868D01*
X27586388Y-48445809D01*
X27631458Y-48430500D01*
X27874672Y-48430500D01*
X27874674Y-48430500D01*
X27947740Y-48415966D01*
X27947740Y-48415965D01*
X27954888Y-48414544D01*
X27955258Y-48416404D01*
X27994742Y-48416402D01*
X27995112Y-48414544D01*
X28002259Y-48415965D01*
X28002260Y-48415966D01*
X28075326Y-48430500D01*
X28330032Y-48430500D01*
X28382358Y-48452174D01*
X28401509Y-48485345D01*
X28417933Y-48546637D01*
X28423387Y-48566990D01*
X28469528Y-48646908D01*
X28469529Y-48646909D01*
X28469531Y-48646912D01*
X28534788Y-48712169D01*
X28534790Y-48712170D01*
X28534791Y-48712171D01*
X28600499Y-48750108D01*
X28614712Y-48758314D01*
X28614713Y-48758314D01*
X28614715Y-48758315D01*
X28635932Y-48764000D01*
X28703853Y-48782199D01*
X28703854Y-48782200D01*
X28703856Y-48782200D01*
X28796144Y-48782200D01*
X29308067Y-48782200D01*
X29360393Y-48803874D01*
X29379545Y-48837047D01*
X29407314Y-48940681D01*
X29407316Y-48940686D01*
X29461391Y-49034345D01*
X29479791Y-49066215D01*
X29582285Y-49168709D01*
X29707815Y-49241184D01*
X29707816Y-49241184D01*
X29707818Y-49241185D01*
X29777820Y-49259942D01*
X29847822Y-49278699D01*
X29847823Y-49278700D01*
X29847825Y-49278700D01*
X29992777Y-49278700D01*
X29992777Y-49278699D01*
X30132785Y-49241184D01*
X30258315Y-49168709D01*
X30360809Y-49066215D01*
X30363569Y-49061433D01*
X30408501Y-49026954D01*
X30464654Y-49034345D01*
X30479982Y-49046106D01*
X30507985Y-49074109D01*
X30633515Y-49146584D01*
X30633516Y-49146584D01*
X30633518Y-49146585D01*
X30658299Y-49153225D01*
X30773522Y-49184099D01*
X30773523Y-49184100D01*
X30773525Y-49184100D01*
X30918477Y-49184100D01*
X30918477Y-49184099D01*
X31058485Y-49146584D01*
X31184015Y-49074109D01*
X31278751Y-48979372D01*
X31296596Y-48971980D01*
X31311922Y-48960221D01*
X31321836Y-48961526D01*
X31331076Y-48957699D01*
X31348922Y-48965091D01*
X31368075Y-48967612D01*
X31374163Y-48975546D01*
X31383402Y-48979373D01*
X31402554Y-49012545D01*
X31413880Y-49054811D01*
X31413880Y-49054813D01*
X31423384Y-49090283D01*
X31423386Y-49090288D01*
X31469530Y-49170212D01*
X32755588Y-50456270D01*
X32810342Y-50487882D01*
X32835512Y-50502414D01*
X32835513Y-50502414D01*
X32835515Y-50502415D01*
X32868029Y-50511127D01*
X32924653Y-50526299D01*
X32924654Y-50526300D01*
X32924656Y-50526300D01*
X44563204Y-50526300D01*
X44615530Y-50547974D01*
X44622742Y-50556355D01*
X44624833Y-50559188D01*
X44652850Y-50597150D01*
X44652855Y-50597154D01*
X44762116Y-50677792D01*
X44762118Y-50677793D01*
X44890295Y-50722644D01*
X44890301Y-50722646D01*
X44920734Y-50725500D01*
X44920741Y-50725500D01*
X45429258Y-50725500D01*
X45429266Y-50725500D01*
X45459699Y-50722646D01*
X45587882Y-50677793D01*
X45697150Y-50597150D01*
X45777793Y-50487882D01*
X45822646Y-50359699D01*
X45825500Y-50329266D01*
X45825500Y-49674834D01*
X45847174Y-49622508D01*
X45899500Y-49600834D01*
X45951826Y-49622508D01*
X46152826Y-49823508D01*
X46174500Y-49875834D01*
X46174500Y-50329266D01*
X46177354Y-50359699D01*
X46177354Y-50359701D01*
X46177355Y-50359704D01*
X46222206Y-50487881D01*
X46222207Y-50487883D01*
X46302846Y-50597146D01*
X46302853Y-50597153D01*
X46412116Y-50677792D01*
X46412118Y-50677793D01*
X46540295Y-50722644D01*
X46540301Y-50722646D01*
X46570734Y-50725500D01*
X46570741Y-50725500D01*
X47079258Y-50725500D01*
X47079266Y-50725500D01*
X47109699Y-50722646D01*
X47237882Y-50677793D01*
X47347150Y-50597150D01*
X47427793Y-50487882D01*
X47472646Y-50359699D01*
X47475500Y-50329266D01*
X47475500Y-49670734D01*
X47472646Y-49640301D01*
X47461969Y-49609789D01*
X47427793Y-49512118D01*
X47427792Y-49512116D01*
X47347153Y-49402853D01*
X47347146Y-49402846D01*
X47237883Y-49322207D01*
X47237881Y-49322206D01*
X47109704Y-49277355D01*
X47109705Y-49277355D01*
X47109700Y-49277354D01*
X47109699Y-49277354D01*
X47079266Y-49274500D01*
X47079260Y-49274500D01*
X46625834Y-49274500D01*
X46573508Y-49252826D01*
X46438474Y-49117792D01*
X46416800Y-49065466D01*
X46416800Y-47662885D01*
X46416805Y-47662023D01*
X46416913Y-47652718D01*
X46418300Y-47647544D01*
X46418300Y-47283033D01*
X46439974Y-47230707D01*
X46923507Y-46747174D01*
X46975833Y-46725500D01*
X47429258Y-46725500D01*
X47429266Y-46725500D01*
X47459699Y-46722646D01*
X47587882Y-46677793D01*
X47697150Y-46597150D01*
X47777793Y-46487882D01*
X47822646Y-46359699D01*
X47825500Y-46329266D01*
X47825500Y-45695700D01*
X47847174Y-45643374D01*
X47899500Y-45621700D01*
X47920366Y-45621700D01*
X47972692Y-45643374D01*
X48152826Y-45823508D01*
X48174500Y-45875834D01*
X48174500Y-46329266D01*
X48177354Y-46359699D01*
X48177354Y-46359701D01*
X48177355Y-46359704D01*
X48222206Y-46487881D01*
X48222207Y-46487883D01*
X48302846Y-46597146D01*
X48302853Y-46597153D01*
X48412116Y-46677792D01*
X48412118Y-46677793D01*
X48540295Y-46722644D01*
X48540301Y-46722646D01*
X48570734Y-46725500D01*
X48570741Y-46725500D01*
X49079258Y-46725500D01*
X49079266Y-46725500D01*
X49109699Y-46722646D01*
X49237882Y-46677793D01*
X49347150Y-46597150D01*
X49397084Y-46529491D01*
X51850000Y-46529491D01*
X51850000Y-46710508D01*
X51878316Y-46889289D01*
X51878319Y-46889302D01*
X51934251Y-47061443D01*
X52016431Y-47222728D01*
X52057668Y-47279487D01*
X52531980Y-46805174D01*
X52534075Y-46812993D01*
X52599901Y-46927007D01*
X52692993Y-47020099D01*
X52807007Y-47085925D01*
X52814822Y-47088019D01*
X52340511Y-47562331D01*
X52397266Y-47603566D01*
X52558556Y-47685748D01*
X52558555Y-47685748D01*
X52730697Y-47741680D01*
X52730710Y-47741683D01*
X52909491Y-47770000D01*
X53090509Y-47770000D01*
X53269289Y-47741683D01*
X53269302Y-47741680D01*
X53441443Y-47685748D01*
X53602729Y-47603568D01*
X53659487Y-47562331D01*
X53185176Y-47088019D01*
X53192993Y-47085925D01*
X53307007Y-47020099D01*
X53400099Y-46927007D01*
X53465925Y-46812993D01*
X53468019Y-46805176D01*
X53942331Y-47279487D01*
X53983568Y-47222729D01*
X54065748Y-47061443D01*
X54121680Y-46889302D01*
X54121683Y-46889289D01*
X54150000Y-46710508D01*
X54150000Y-46529491D01*
X54121683Y-46350710D01*
X54121680Y-46350697D01*
X54065748Y-46178556D01*
X53983566Y-46017267D01*
X53983566Y-46017266D01*
X53942331Y-45960511D01*
X53468019Y-46434822D01*
X53465925Y-46427007D01*
X53400099Y-46312993D01*
X53307007Y-46219901D01*
X53192993Y-46154075D01*
X53185174Y-46151980D01*
X53659487Y-45677668D01*
X53602728Y-45636431D01*
X53441443Y-45554251D01*
X53441444Y-45554251D01*
X53269302Y-45498319D01*
X53269289Y-45498316D01*
X53090509Y-45470000D01*
X52909491Y-45470000D01*
X52730710Y-45498316D01*
X52730697Y-45498319D01*
X52558558Y-45554250D01*
X52397268Y-45636431D01*
X52340511Y-45677667D01*
X52340511Y-45677668D01*
X52814823Y-46151980D01*
X52807007Y-46154075D01*
X52692993Y-46219901D01*
X52599901Y-46312993D01*
X52534075Y-46427007D01*
X52531980Y-46434823D01*
X52057668Y-45960511D01*
X52057667Y-45960511D01*
X52016431Y-46017268D01*
X51934250Y-46178558D01*
X51878319Y-46350697D01*
X51878316Y-46350710D01*
X51850000Y-46529491D01*
X49397084Y-46529491D01*
X49427793Y-46487882D01*
X49472646Y-46359699D01*
X49475500Y-46329266D01*
X49475500Y-45670734D01*
X49472646Y-45640301D01*
X49427793Y-45512118D01*
X49396709Y-45470000D01*
X49347153Y-45402853D01*
X49347146Y-45402846D01*
X49237883Y-45322207D01*
X49237881Y-45322206D01*
X49109704Y-45277355D01*
X49109705Y-45277355D01*
X49109700Y-45277354D01*
X49109699Y-45277354D01*
X49079266Y-45274500D01*
X49079260Y-45274500D01*
X48625834Y-45274500D01*
X48573508Y-45252826D01*
X48311412Y-44990730D01*
X48231489Y-44944586D01*
X48231484Y-44944584D01*
X48142346Y-44920700D01*
X48142344Y-44920700D01*
X46738956Y-44920700D01*
X46738954Y-44920700D01*
X46649815Y-44944584D01*
X46649810Y-44944586D01*
X46569890Y-44990728D01*
X44821876Y-46738740D01*
X44769550Y-46760414D01*
X44717224Y-46738740D01*
X44696461Y-46697988D01*
X44685646Y-46629696D01*
X44685645Y-46629693D01*
X44642960Y-46545921D01*
X44628050Y-46516658D01*
X44538342Y-46426950D01*
X44425304Y-46369354D01*
X44425302Y-46369353D01*
X44425301Y-46369353D01*
X44331520Y-46354500D01*
X44331519Y-46354500D01*
X43137634Y-46354500D01*
X43085308Y-46332826D01*
X43064307Y-46311825D01*
X43042633Y-46259499D01*
X43064307Y-46207173D01*
X43116633Y-46185499D01*
X44331519Y-46185499D01*
X44425304Y-46170646D01*
X44425306Y-46170645D01*
X44457826Y-46154075D01*
X44538342Y-46113050D01*
X44628050Y-46023342D01*
X44685646Y-45910304D01*
X44700500Y-45816519D01*
X44700499Y-45453482D01*
X44685646Y-45359696D01*
X44681950Y-45352442D01*
X44677507Y-45295980D01*
X44695557Y-45266523D01*
X46375270Y-43586812D01*
X46421414Y-43506888D01*
X46427723Y-43483342D01*
X46445300Y-43417744D01*
X46445300Y-42897646D01*
X46699500Y-42897646D01*
X46699500Y-43102353D01*
X46731522Y-43304531D01*
X46731525Y-43304544D01*
X46794777Y-43499213D01*
X46887712Y-43681610D01*
X46948188Y-43764848D01*
X47008034Y-43847219D01*
X47152781Y-43991966D01*
X47244695Y-44058745D01*
X47318389Y-44112287D01*
X47406300Y-44157079D01*
X47500781Y-44205220D01*
X47500783Y-44205220D01*
X47500786Y-44205222D01*
X47695455Y-44268474D01*
X47695461Y-44268475D01*
X47695466Y-44268477D01*
X47796557Y-44284488D01*
X47897646Y-44300500D01*
X47897648Y-44300500D01*
X48102354Y-44300500D01*
X48183224Y-44287690D01*
X48304534Y-44268477D01*
X48304541Y-44268474D01*
X48304544Y-44268474D01*
X48499213Y-44205222D01*
X48499213Y-44205221D01*
X48499219Y-44205220D01*
X48681610Y-44112287D01*
X48845262Y-43993388D01*
X51899500Y-43993388D01*
X51899500Y-44166611D01*
X51926597Y-44337698D01*
X51926600Y-44337711D01*
X51980125Y-44502442D01*
X51980127Y-44502446D01*
X52058767Y-44656787D01*
X52147039Y-44778283D01*
X52160586Y-44796928D01*
X52283072Y-44919414D01*
X52283075Y-44919416D01*
X52283076Y-44919417D01*
X52423212Y-45021232D01*
X52577553Y-45099872D01*
X52577557Y-45099874D01*
X52742288Y-45153399D01*
X52742294Y-45153400D01*
X52742299Y-45153402D01*
X52856359Y-45171467D01*
X52913388Y-45180500D01*
X52913389Y-45180500D01*
X53086612Y-45180500D01*
X53129383Y-45173725D01*
X53257701Y-45153402D01*
X53257708Y-45153399D01*
X53257711Y-45153399D01*
X53422442Y-45099874D01*
X53422442Y-45099873D01*
X53422445Y-45099873D01*
X53576788Y-45021232D01*
X53716928Y-44919414D01*
X53839414Y-44796928D01*
X53941232Y-44656788D01*
X54019873Y-44502445D01*
X54073402Y-44337701D01*
X54100500Y-44166611D01*
X54100500Y-43993389D01*
X54073402Y-43822299D01*
X54073400Y-43822294D01*
X54073399Y-43822288D01*
X54019874Y-43657557D01*
X54019872Y-43657553D01*
X53941232Y-43503212D01*
X53839417Y-43363076D01*
X53839416Y-43363075D01*
X53839414Y-43363072D01*
X53716928Y-43240586D01*
X53716925Y-43240583D01*
X53716923Y-43240582D01*
X53576787Y-43138767D01*
X53422446Y-43060127D01*
X53422442Y-43060125D01*
X53257711Y-43006600D01*
X53257698Y-43006597D01*
X53086612Y-42979500D01*
X53086611Y-42979500D01*
X52913389Y-42979500D01*
X52913388Y-42979500D01*
X52742301Y-43006597D01*
X52742288Y-43006600D01*
X52577557Y-43060125D01*
X52577553Y-43060127D01*
X52423212Y-43138767D01*
X52283076Y-43240582D01*
X52160582Y-43363076D01*
X52058767Y-43503212D01*
X51980127Y-43657553D01*
X51980125Y-43657557D01*
X51926600Y-43822288D01*
X51926597Y-43822301D01*
X51899500Y-43993388D01*
X48845262Y-43993388D01*
X48847219Y-43991966D01*
X48991966Y-43847219D01*
X49112287Y-43681610D01*
X49205220Y-43499219D01*
X49235156Y-43407085D01*
X49268474Y-43304544D01*
X49268474Y-43304541D01*
X49268477Y-43304534D01*
X49300500Y-43102352D01*
X49300500Y-42897648D01*
X49268477Y-42695466D01*
X49268475Y-42695461D01*
X49268474Y-42695455D01*
X49205222Y-42500786D01*
X49205220Y-42500783D01*
X49205220Y-42500781D01*
X49143378Y-42379409D01*
X49112287Y-42318389D01*
X49026272Y-42200000D01*
X48991966Y-42152781D01*
X48847219Y-42008034D01*
X48783040Y-41961406D01*
X48681610Y-41887712D01*
X48499213Y-41794777D01*
X48304544Y-41731525D01*
X48304531Y-41731522D01*
X48102354Y-41699500D01*
X48102352Y-41699500D01*
X47897648Y-41699500D01*
X47897646Y-41699500D01*
X47695468Y-41731522D01*
X47695455Y-41731525D01*
X47500786Y-41794777D01*
X47318389Y-41887712D01*
X47152785Y-42008031D01*
X47152781Y-42008034D01*
X47008034Y-42152781D01*
X47008031Y-42152784D01*
X47008031Y-42152785D01*
X46887712Y-42318389D01*
X46794777Y-42500786D01*
X46731525Y-42695455D01*
X46731522Y-42695468D01*
X46699500Y-42897646D01*
X46445300Y-42897646D01*
X46445300Y-41453388D01*
X51899500Y-41453388D01*
X51899500Y-41626611D01*
X51926597Y-41797698D01*
X51926600Y-41797711D01*
X51980125Y-41962442D01*
X51980127Y-41962446D01*
X52058767Y-42116787D01*
X52084918Y-42152781D01*
X52160586Y-42256928D01*
X52283072Y-42379414D01*
X52283075Y-42379416D01*
X52283076Y-42379417D01*
X52423212Y-42481232D01*
X52577553Y-42559872D01*
X52577557Y-42559874D01*
X52742288Y-42613399D01*
X52742294Y-42613400D01*
X52742299Y-42613402D01*
X52856359Y-42631467D01*
X52913388Y-42640500D01*
X52913389Y-42640500D01*
X53086612Y-42640500D01*
X53129383Y-42633725D01*
X53257701Y-42613402D01*
X53257708Y-42613399D01*
X53257711Y-42613399D01*
X53422442Y-42559874D01*
X53422442Y-42559873D01*
X53422445Y-42559873D01*
X53576788Y-42481232D01*
X53716928Y-42379414D01*
X53839414Y-42256928D01*
X53941232Y-42116788D01*
X54019873Y-41962445D01*
X54044155Y-41887713D01*
X54073399Y-41797711D01*
X54073399Y-41797708D01*
X54073402Y-41797701D01*
X54100500Y-41626611D01*
X54100500Y-41453389D01*
X54098811Y-41442728D01*
X54081794Y-41335285D01*
X54073402Y-41282299D01*
X54073400Y-41282294D01*
X54073399Y-41282288D01*
X54019874Y-41117557D01*
X54019872Y-41117553D01*
X53941232Y-40963212D01*
X53839417Y-40823076D01*
X53839416Y-40823075D01*
X53839414Y-40823072D01*
X53716928Y-40700586D01*
X53716925Y-40700583D01*
X53716923Y-40700582D01*
X53576787Y-40598767D01*
X53422446Y-40520127D01*
X53422442Y-40520125D01*
X53257711Y-40466600D01*
X53257698Y-40466597D01*
X53086612Y-40439500D01*
X53086611Y-40439500D01*
X52913389Y-40439500D01*
X52913388Y-40439500D01*
X52742301Y-40466597D01*
X52742288Y-40466600D01*
X52577557Y-40520125D01*
X52577553Y-40520127D01*
X52423212Y-40598767D01*
X52283076Y-40700582D01*
X52160582Y-40823076D01*
X52058767Y-40963212D01*
X51980127Y-41117553D01*
X51980125Y-41117557D01*
X51926600Y-41282288D01*
X51926597Y-41282301D01*
X51899500Y-41453388D01*
X46445300Y-41453388D01*
X46445300Y-40856033D01*
X46466973Y-40803708D01*
X46523508Y-40747172D01*
X46575834Y-40725499D01*
X47045484Y-40725499D01*
X47102114Y-40719412D01*
X47230226Y-40671628D01*
X47339687Y-40589687D01*
X47421628Y-40480226D01*
X47469412Y-40352114D01*
X47475500Y-40295485D01*
X47475499Y-39825832D01*
X47497172Y-39773508D01*
X47898508Y-39372174D01*
X47950834Y-39350500D01*
X51825500Y-39350500D01*
X51877826Y-39372174D01*
X51899500Y-39424500D01*
X51899500Y-39874672D01*
X51914034Y-39947740D01*
X51965990Y-40025500D01*
X51969399Y-40030601D01*
X52052260Y-40085966D01*
X52125326Y-40100500D01*
X52125328Y-40100500D01*
X53874672Y-40100500D01*
X53874674Y-40100500D01*
X53947740Y-40085966D01*
X54030601Y-40030601D01*
X54085966Y-39947740D01*
X54100500Y-39874674D01*
X54100500Y-38125326D01*
X54085966Y-38052260D01*
X54030601Y-37969399D01*
X54028637Y-37968087D01*
X53947740Y-37914034D01*
X53874674Y-37899500D01*
X52125326Y-37899500D01*
X52076615Y-37909189D01*
X52052259Y-37914034D01*
X51969399Y-37969398D01*
X51969398Y-37969399D01*
X51914034Y-38052259D01*
X51899500Y-38125327D01*
X51899500Y-38575500D01*
X51877826Y-38627826D01*
X51825500Y-38649500D01*
X47728854Y-38649500D01*
X47639715Y-38673384D01*
X47639710Y-38673386D01*
X47559787Y-38719530D01*
X47026490Y-39252826D01*
X46974164Y-39274500D01*
X46504514Y-39274500D01*
X46504513Y-39274501D01*
X46447885Y-39280588D01*
X46319774Y-39328371D01*
X46210313Y-39410313D01*
X46128371Y-39519774D01*
X46096226Y-39605958D01*
X46057632Y-39647410D01*
X46001031Y-39649431D01*
X45959579Y-39610837D01*
X45958051Y-39607244D01*
X45911924Y-39490273D01*
X45824721Y-39375279D01*
X45824720Y-39375278D01*
X45709726Y-39288075D01*
X45575470Y-39235132D01*
X45491103Y-39225000D01*
X45425000Y-39225000D01*
X45425000Y-40775000D01*
X45491103Y-40775000D01*
X45575470Y-40764867D01*
X45643153Y-40738177D01*
X45699782Y-40739144D01*
X45739141Y-40779871D01*
X45744300Y-40807018D01*
X45744300Y-43195765D01*
X45722626Y-43248091D01*
X44854577Y-44116139D01*
X44802251Y-44137813D01*
X44749925Y-44116139D01*
X44732404Y-44088254D01*
X44702346Y-44002355D01*
X44621792Y-43893208D01*
X44621791Y-43893207D01*
X44512644Y-43812653D01*
X44404553Y-43774830D01*
X44362322Y-43737090D01*
X44359147Y-43680542D01*
X44396887Y-43638311D01*
X44417415Y-43631895D01*
X44425304Y-43630646D01*
X44538342Y-43573050D01*
X44628050Y-43483342D01*
X44685646Y-43370304D01*
X44700500Y-43276519D01*
X44700499Y-42913482D01*
X44697991Y-42897648D01*
X44685646Y-42819695D01*
X44685645Y-42819693D01*
X44633488Y-42717331D01*
X44628050Y-42706658D01*
X44538342Y-42616950D01*
X44425304Y-42559354D01*
X44425302Y-42559353D01*
X44425301Y-42559353D01*
X44331519Y-42544500D01*
X42618480Y-42544500D01*
X42524695Y-42559353D01*
X42524693Y-42559354D01*
X42411657Y-42616950D01*
X42402735Y-42625872D01*
X42350408Y-42647544D01*
X42313411Y-42637630D01*
X42217086Y-42582016D01*
X42217081Y-42582014D01*
X42077077Y-42544500D01*
X42077075Y-42544500D01*
X41932125Y-42544500D01*
X41932123Y-42544500D01*
X41792118Y-42582014D01*
X41792113Y-42582016D01*
X41666584Y-42654491D01*
X41564091Y-42756984D01*
X41491616Y-42882513D01*
X41491614Y-42882518D01*
X41454100Y-43022522D01*
X41454100Y-43167477D01*
X41491614Y-43307481D01*
X41491616Y-43307486D01*
X41527886Y-43370306D01*
X41564091Y-43433015D01*
X41666585Y-43535509D01*
X41792115Y-43607984D01*
X41792116Y-43607984D01*
X41792118Y-43607985D01*
X41862120Y-43626742D01*
X41932122Y-43645499D01*
X41932123Y-43645500D01*
X41932125Y-43645500D01*
X42077077Y-43645500D01*
X42077077Y-43645499D01*
X42217085Y-43607984D01*
X42313413Y-43552368D01*
X42369563Y-43544976D01*
X42402737Y-43564129D01*
X42411658Y-43573050D01*
X42524696Y-43630646D01*
X42532578Y-43631894D01*
X42580869Y-43661484D01*
X42594094Y-43716555D01*
X42564503Y-43764848D01*
X42545445Y-43774830D01*
X42437355Y-43812652D01*
X42328208Y-43893207D01*
X42328207Y-43893208D01*
X42247652Y-44002356D01*
X42202853Y-44130385D01*
X42202851Y-44130393D01*
X42200000Y-44160801D01*
X42200000Y-44165000D01*
X43401000Y-44165000D01*
X43453326Y-44186674D01*
X43475000Y-44239000D01*
X43475000Y-44491000D01*
X43453326Y-44543326D01*
X43401000Y-44565000D01*
X42200001Y-44565000D01*
X42200001Y-44569205D01*
X42202850Y-44599602D01*
X42202852Y-44599611D01*
X42247652Y-44727643D01*
X42328207Y-44836791D01*
X42328208Y-44836792D01*
X42437356Y-44917347D01*
X42437355Y-44917347D01*
X42545445Y-44955169D01*
X42587677Y-44992908D01*
X42590852Y-45049456D01*
X42553113Y-45091688D01*
X42532582Y-45098105D01*
X42524694Y-45099354D01*
X42524693Y-45099354D01*
X42411657Y-45156950D01*
X42321951Y-45246656D01*
X42264349Y-45359705D01*
X42264345Y-45359721D01*
X42264338Y-45359729D01*
X42261711Y-45364885D01*
X42260472Y-45364253D01*
X42227553Y-45402780D01*
X42171089Y-45407211D01*
X42141646Y-45389164D01*
X41271974Y-44519492D01*
X41250300Y-44467166D01*
X41250300Y-41234054D01*
X41250299Y-41234053D01*
X41226415Y-41144915D01*
X41226413Y-41144910D01*
X41204676Y-41107262D01*
X41204673Y-41107256D01*
X41180270Y-41064988D01*
X40406385Y-40291103D01*
X44475000Y-40291103D01*
X44485132Y-40375470D01*
X44538075Y-40509726D01*
X44625278Y-40624720D01*
X44625279Y-40624721D01*
X44740273Y-40711924D01*
X44874529Y-40764867D01*
X44958897Y-40775000D01*
X45025000Y-40775000D01*
X45025000Y-40200000D01*
X44475000Y-40200000D01*
X44475000Y-40291103D01*
X40406385Y-40291103D01*
X39824178Y-39708896D01*
X44475000Y-39708896D01*
X44475000Y-39800000D01*
X45025000Y-39800000D01*
X45025000Y-39225000D01*
X44958897Y-39225000D01*
X44874529Y-39235132D01*
X44740273Y-39288075D01*
X44625279Y-39375278D01*
X44625278Y-39375279D01*
X44538075Y-39490273D01*
X44485132Y-39624529D01*
X44475000Y-39708896D01*
X39824178Y-39708896D01*
X37648670Y-37533388D01*
X40899500Y-37533388D01*
X40899500Y-37706611D01*
X40926597Y-37877698D01*
X40926600Y-37877711D01*
X40980125Y-38042442D01*
X40980127Y-38042446D01*
X41058767Y-38196787D01*
X41121142Y-38282639D01*
X41160586Y-38336928D01*
X41283072Y-38459414D01*
X41283075Y-38459416D01*
X41283076Y-38459417D01*
X41423212Y-38561232D01*
X41577553Y-38639872D01*
X41577557Y-38639874D01*
X41742288Y-38693399D01*
X41742294Y-38693400D01*
X41742299Y-38693402D01*
X41856359Y-38711467D01*
X41913388Y-38720500D01*
X41913389Y-38720500D01*
X42086612Y-38720500D01*
X42129383Y-38713725D01*
X42257701Y-38693402D01*
X42257708Y-38693399D01*
X42257711Y-38693399D01*
X42422442Y-38639874D01*
X42422442Y-38639873D01*
X42422445Y-38639873D01*
X42576788Y-38561232D01*
X42716928Y-38459414D01*
X42839414Y-38336928D01*
X42941232Y-38196788D01*
X43019873Y-38042445D01*
X43066319Y-37899500D01*
X43073399Y-37877711D01*
X43073399Y-37877708D01*
X43073402Y-37877701D01*
X43100500Y-37706611D01*
X43100500Y-37533389D01*
X43073402Y-37362299D01*
X43073400Y-37362294D01*
X43073399Y-37362288D01*
X43019874Y-37197557D01*
X43019872Y-37197553D01*
X42941232Y-37043212D01*
X42839417Y-36903076D01*
X42839416Y-36903075D01*
X42839414Y-36903072D01*
X42716928Y-36780586D01*
X42716925Y-36780583D01*
X42716923Y-36780582D01*
X42576787Y-36678767D01*
X42422446Y-36600127D01*
X42422442Y-36600125D01*
X42257711Y-36546600D01*
X42257698Y-36546597D01*
X42086612Y-36519500D01*
X42086611Y-36519500D01*
X41913389Y-36519500D01*
X41913388Y-36519500D01*
X41742301Y-36546597D01*
X41742288Y-36546600D01*
X41577557Y-36600125D01*
X41577553Y-36600127D01*
X41423212Y-36678767D01*
X41283076Y-36780582D01*
X41160582Y-36903076D01*
X41058767Y-37043212D01*
X40980127Y-37197553D01*
X40980125Y-37197557D01*
X40926600Y-37362288D01*
X40926597Y-37362301D01*
X40899500Y-37533388D01*
X37648670Y-37533388D01*
X35108670Y-34993388D01*
X40899500Y-34993388D01*
X40899500Y-35166611D01*
X40926597Y-35337698D01*
X40926600Y-35337711D01*
X40980125Y-35502442D01*
X40980127Y-35502446D01*
X41058767Y-35656787D01*
X41130268Y-35755200D01*
X41160586Y-35796928D01*
X41283072Y-35919414D01*
X41283075Y-35919416D01*
X41283076Y-35919417D01*
X41423212Y-36021232D01*
X41577553Y-36099872D01*
X41577557Y-36099874D01*
X41742288Y-36153399D01*
X41742294Y-36153400D01*
X41742299Y-36153402D01*
X41856359Y-36171467D01*
X41913388Y-36180500D01*
X41913389Y-36180500D01*
X42086612Y-36180500D01*
X42129383Y-36173725D01*
X42257701Y-36153402D01*
X42257708Y-36153399D01*
X42257711Y-36153399D01*
X42422442Y-36099874D01*
X42422442Y-36099873D01*
X42422445Y-36099873D01*
X42576788Y-36021232D01*
X42716928Y-35919414D01*
X42839414Y-35796928D01*
X42941232Y-35656788D01*
X43019873Y-35502445D01*
X43019874Y-35502442D01*
X43073399Y-35337711D01*
X43073399Y-35337708D01*
X43073402Y-35337701D01*
X43100500Y-35166611D01*
X43100500Y-34993389D01*
X43073402Y-34822299D01*
X43073400Y-34822294D01*
X43073399Y-34822288D01*
X43019874Y-34657557D01*
X43019872Y-34657553D01*
X42941232Y-34503212D01*
X42839417Y-34363076D01*
X42839416Y-34363075D01*
X42839414Y-34363072D01*
X42716928Y-34240586D01*
X42716925Y-34240583D01*
X42716923Y-34240582D01*
X42576787Y-34138767D01*
X42422446Y-34060127D01*
X42422442Y-34060125D01*
X42257711Y-34006600D01*
X42257698Y-34006597D01*
X42086612Y-33979500D01*
X42086611Y-33979500D01*
X41913389Y-33979500D01*
X41913388Y-33979500D01*
X41742301Y-34006597D01*
X41742288Y-34006600D01*
X41577557Y-34060125D01*
X41577553Y-34060127D01*
X41423212Y-34138767D01*
X41283076Y-34240582D01*
X41160582Y-34363076D01*
X41058767Y-34503212D01*
X40980127Y-34657553D01*
X40980125Y-34657557D01*
X40926600Y-34822288D01*
X40926597Y-34822301D01*
X40899500Y-34993388D01*
X35108670Y-34993388D01*
X32819795Y-32704513D01*
X35074500Y-32704513D01*
X35074500Y-33295484D01*
X35074501Y-33295485D01*
X35080588Y-33352114D01*
X35128371Y-33480225D01*
X35128372Y-33480226D01*
X35210313Y-33589687D01*
X35319774Y-33671628D01*
X35319773Y-33671628D01*
X35367557Y-33689450D01*
X35447886Y-33719412D01*
X35504515Y-33725500D01*
X36045484Y-33725499D01*
X36102114Y-33719412D01*
X36230226Y-33671628D01*
X36339687Y-33589687D01*
X36421628Y-33480226D01*
X36469412Y-33352114D01*
X36475500Y-33295485D01*
X36475499Y-32849132D01*
X36497172Y-32796808D01*
X36844489Y-32449491D01*
X40850000Y-32449491D01*
X40850000Y-32630508D01*
X40878316Y-32809289D01*
X40878319Y-32809302D01*
X40934251Y-32981443D01*
X41016431Y-33142728D01*
X41057668Y-33199487D01*
X41531980Y-32725174D01*
X41534075Y-32732993D01*
X41599901Y-32847007D01*
X41692993Y-32940099D01*
X41807007Y-33005925D01*
X41814822Y-33008019D01*
X41340511Y-33482331D01*
X41397266Y-33523566D01*
X41558556Y-33605748D01*
X41558555Y-33605748D01*
X41730697Y-33661680D01*
X41730710Y-33661683D01*
X41909491Y-33690000D01*
X42090509Y-33690000D01*
X42269289Y-33661683D01*
X42269302Y-33661680D01*
X42441443Y-33605748D01*
X42602729Y-33523568D01*
X42659487Y-33482331D01*
X42579627Y-33402471D01*
X42529282Y-33352126D01*
X50749500Y-33352126D01*
X50749500Y-34647873D01*
X50755909Y-34707485D01*
X50806202Y-34842329D01*
X50806203Y-34842330D01*
X50806204Y-34842331D01*
X50892454Y-34957546D01*
X50983230Y-35025501D01*
X51007669Y-35043796D01*
X51007670Y-35043797D01*
X51098908Y-35077826D01*
X51142517Y-35094091D01*
X51202127Y-35100500D01*
X52797872Y-35100499D01*
X52857483Y-35094091D01*
X52924907Y-35068943D01*
X52992329Y-35043797D01*
X52992329Y-35043796D01*
X52992331Y-35043796D01*
X53107546Y-34957546D01*
X53193796Y-34842331D01*
X53201268Y-34822299D01*
X53226293Y-34755201D01*
X53244091Y-34707483D01*
X53250500Y-34647873D01*
X53250499Y-33352128D01*
X53250497Y-33352114D01*
X53248955Y-33337766D01*
X53244091Y-33292517D01*
X53227216Y-33247273D01*
X53193797Y-33157670D01*
X53193796Y-33157669D01*
X53116254Y-33054087D01*
X53107546Y-33042454D01*
X53016771Y-32974500D01*
X52992330Y-32956203D01*
X52992329Y-32956202D01*
X52857487Y-32905910D01*
X52857484Y-32905909D01*
X52857483Y-32905909D01*
X52797873Y-32899500D01*
X51202126Y-32899500D01*
X51142514Y-32905909D01*
X51007670Y-32956202D01*
X51007669Y-32956203D01*
X50892454Y-33042454D01*
X50806203Y-33157669D01*
X50806202Y-33157670D01*
X50755910Y-33292512D01*
X50755909Y-33292517D01*
X50749500Y-33352126D01*
X42529282Y-33352126D01*
X42185176Y-33008019D01*
X42192993Y-33005925D01*
X42307007Y-32940099D01*
X42400099Y-32847007D01*
X42465925Y-32732993D01*
X42468019Y-32725176D01*
X42942331Y-33199487D01*
X42983568Y-33142729D01*
X43065748Y-32981443D01*
X43121680Y-32809302D01*
X43121683Y-32809289D01*
X43150000Y-32630508D01*
X43150000Y-32449491D01*
X43121683Y-32270710D01*
X43121680Y-32270697D01*
X43065748Y-32098556D01*
X42983566Y-31937267D01*
X42983566Y-31937266D01*
X42942331Y-31880511D01*
X42468019Y-32354822D01*
X42465925Y-32347007D01*
X42400099Y-32232993D01*
X42307007Y-32139901D01*
X42192993Y-32074075D01*
X42185174Y-32071980D01*
X42659487Y-31597668D01*
X42602728Y-31556431D01*
X42445692Y-31476416D01*
X42445691Y-31476415D01*
X42441444Y-31474251D01*
X42269302Y-31418319D01*
X42269289Y-31418316D01*
X42238175Y-31413388D01*
X50749500Y-31413388D01*
X50749500Y-31586611D01*
X50776597Y-31757698D01*
X50776600Y-31757711D01*
X50830125Y-31922442D01*
X50830127Y-31922446D01*
X50908767Y-32076787D01*
X51003213Y-32206781D01*
X51010586Y-32216928D01*
X51133072Y-32339414D01*
X51133075Y-32339416D01*
X51133076Y-32339417D01*
X51273212Y-32441232D01*
X51427553Y-32519872D01*
X51427557Y-32519874D01*
X51592288Y-32573399D01*
X51592294Y-32573400D01*
X51592299Y-32573402D01*
X51706359Y-32591467D01*
X51763388Y-32600500D01*
X51763389Y-32600500D01*
X52236612Y-32600500D01*
X52279383Y-32593725D01*
X52407701Y-32573402D01*
X52407708Y-32573399D01*
X52407711Y-32573399D01*
X52572442Y-32519874D01*
X52572442Y-32519873D01*
X52572445Y-32519873D01*
X52726788Y-32441232D01*
X52866928Y-32339414D01*
X52989414Y-32216928D01*
X53091232Y-32076788D01*
X53169873Y-31922445D01*
X53223402Y-31757701D01*
X53250500Y-31586611D01*
X53250500Y-31413389D01*
X53223402Y-31242299D01*
X53223400Y-31242294D01*
X53223399Y-31242288D01*
X53169874Y-31077557D01*
X53169872Y-31077553D01*
X53091232Y-30923212D01*
X52989417Y-30783076D01*
X52989416Y-30783075D01*
X52989414Y-30783072D01*
X52866928Y-30660586D01*
X52866925Y-30660583D01*
X52866923Y-30660582D01*
X52726787Y-30558767D01*
X52572446Y-30480127D01*
X52572442Y-30480125D01*
X52407711Y-30426600D01*
X52407698Y-30426597D01*
X52236612Y-30399500D01*
X52236611Y-30399500D01*
X51763389Y-30399500D01*
X51763388Y-30399500D01*
X51592301Y-30426597D01*
X51592288Y-30426600D01*
X51427557Y-30480125D01*
X51427553Y-30480127D01*
X51273212Y-30558767D01*
X51133076Y-30660582D01*
X51010582Y-30783076D01*
X50908767Y-30923212D01*
X50830127Y-31077553D01*
X50830125Y-31077557D01*
X50776600Y-31242288D01*
X50776597Y-31242301D01*
X50749500Y-31413388D01*
X42238175Y-31413388D01*
X42090509Y-31390000D01*
X41909491Y-31390000D01*
X41730710Y-31418316D01*
X41730697Y-31418319D01*
X41558558Y-31474250D01*
X41397268Y-31556431D01*
X41340511Y-31597667D01*
X41340511Y-31597668D01*
X41814823Y-32071980D01*
X41807007Y-32074075D01*
X41692993Y-32139901D01*
X41599901Y-32232993D01*
X41534075Y-32347007D01*
X41531980Y-32354823D01*
X41057668Y-31880511D01*
X41057667Y-31880511D01*
X41016431Y-31937268D01*
X40934250Y-32098558D01*
X40878319Y-32270697D01*
X40878316Y-32270710D01*
X40850000Y-32449491D01*
X36844489Y-32449491D01*
X40897674Y-28396307D01*
X40950000Y-28374633D01*
X41002326Y-28396307D01*
X41379193Y-28773174D01*
X41400867Y-28825500D01*
X41379193Y-28877826D01*
X41326867Y-28899500D01*
X41125326Y-28899500D01*
X41076615Y-28909189D01*
X41052259Y-28914034D01*
X40969399Y-28969398D01*
X40969398Y-28969399D01*
X40914034Y-29052259D01*
X40899500Y-29125327D01*
X40899500Y-30874672D01*
X40914034Y-30947740D01*
X40933747Y-30977244D01*
X40969399Y-31030601D01*
X41052260Y-31085966D01*
X41125326Y-31100500D01*
X41125328Y-31100500D01*
X42874672Y-31100500D01*
X42874674Y-31100500D01*
X42947740Y-31085966D01*
X43030601Y-31030601D01*
X43085966Y-30947740D01*
X43100500Y-30874674D01*
X43100500Y-29125326D01*
X43085966Y-29052260D01*
X43030601Y-28969399D01*
X43017282Y-28960500D01*
X42947740Y-28914034D01*
X42874674Y-28899500D01*
X42874672Y-28899500D01*
X42419968Y-28899500D01*
X42367642Y-28877826D01*
X42348490Y-28844654D01*
X42326614Y-28763012D01*
X42295374Y-28708904D01*
X42280471Y-28683091D01*
X42280470Y-28683090D01*
X42280469Y-28683088D01*
X42215212Y-28617831D01*
X41322174Y-27724792D01*
X41300500Y-27672466D01*
X41300500Y-27023075D01*
X41322174Y-26970749D01*
X41348640Y-26953741D01*
X41442329Y-26918797D01*
X41442329Y-26918796D01*
X41442331Y-26918796D01*
X41557546Y-26832546D01*
X41643796Y-26717331D01*
X41694091Y-26582483D01*
X41700500Y-26522873D01*
X41700499Y-25477128D01*
X41694091Y-25417517D01*
X41685154Y-25393556D01*
X41643797Y-25282670D01*
X41643796Y-25282669D01*
X41621516Y-25252907D01*
X41557546Y-25167454D01*
X41459546Y-25094091D01*
X41442330Y-25081203D01*
X41442329Y-25081202D01*
X41348640Y-25046259D01*
X41307187Y-25007666D01*
X41300500Y-24976925D01*
X41300500Y-23656063D01*
X41322174Y-23603737D01*
X41330151Y-23596825D01*
X41339687Y-23589687D01*
X41421628Y-23480226D01*
X41469408Y-23352126D01*
X50749500Y-23352126D01*
X50749500Y-24647873D01*
X50755909Y-24707485D01*
X50806202Y-24842329D01*
X50806203Y-24842330D01*
X50827886Y-24871295D01*
X50892454Y-24957546D01*
X50989451Y-25030158D01*
X51007669Y-25043796D01*
X51007670Y-25043797D01*
X51107960Y-25081202D01*
X51142517Y-25094091D01*
X51202127Y-25100500D01*
X52797872Y-25100499D01*
X52857483Y-25094091D01*
X52924907Y-25068943D01*
X52992329Y-25043797D01*
X52992329Y-25043796D01*
X52992331Y-25043796D01*
X53107546Y-24957546D01*
X53193796Y-24842331D01*
X53202312Y-24819500D01*
X53210561Y-24797381D01*
X53244091Y-24707483D01*
X53250500Y-24647873D01*
X53250499Y-23352128D01*
X53250497Y-23352114D01*
X53248955Y-23337766D01*
X53244091Y-23292517D01*
X53243564Y-23291103D01*
X53193797Y-23157670D01*
X53193796Y-23157669D01*
X53131161Y-23074000D01*
X53107546Y-23042454D01*
X52992331Y-22956204D01*
X52992330Y-22956203D01*
X52992329Y-22956202D01*
X52857487Y-22905910D01*
X52857484Y-22905909D01*
X52857483Y-22905909D01*
X52797873Y-22899500D01*
X51202126Y-22899500D01*
X51142514Y-22905909D01*
X51007670Y-22956202D01*
X51007669Y-22956203D01*
X50892454Y-23042454D01*
X50806203Y-23157669D01*
X50806202Y-23157670D01*
X50755910Y-23292512D01*
X50755909Y-23292517D01*
X50749500Y-23352126D01*
X41469408Y-23352126D01*
X41469412Y-23352114D01*
X41475500Y-23295485D01*
X41475499Y-22704516D01*
X41469412Y-22647886D01*
X41421628Y-22519774D01*
X41339687Y-22410313D01*
X41241649Y-22336923D01*
X41230225Y-22328371D01*
X41230226Y-22328371D01*
X41102114Y-22280588D01*
X41045487Y-22274500D01*
X41045485Y-22274500D01*
X40575834Y-22274500D01*
X40523508Y-22252826D01*
X40249512Y-21978830D01*
X40169589Y-21932686D01*
X40169584Y-21932684D01*
X40080446Y-21908800D01*
X40080444Y-21908800D01*
X37664556Y-21908800D01*
X37664554Y-21908800D01*
X37575415Y-21932684D01*
X37575410Y-21932686D01*
X37495487Y-21978830D01*
X37185294Y-22289023D01*
X37132968Y-22310697D01*
X37118531Y-22309275D01*
X37056131Y-22296863D01*
X36968842Y-22279500D01*
X36811158Y-22279500D01*
X36767315Y-22288220D01*
X36656508Y-22310261D01*
X36656498Y-22310264D01*
X36510825Y-22370603D01*
X36379711Y-22458210D01*
X36379710Y-22458212D01*
X36268212Y-22569710D01*
X36268210Y-22569711D01*
X36180603Y-22700825D01*
X36120264Y-22846498D01*
X36120261Y-22846508D01*
X36108446Y-22905909D01*
X36089731Y-23000000D01*
X36089500Y-23001159D01*
X36089500Y-23158840D01*
X36120261Y-23313491D01*
X36120264Y-23313501D01*
X36180603Y-23459174D01*
X36180605Y-23459177D01*
X36180606Y-23459179D01*
X36224997Y-23525615D01*
X36267808Y-23589687D01*
X36268211Y-23590289D01*
X36379711Y-23701789D01*
X36510821Y-23789394D01*
X36510826Y-23789396D01*
X36510825Y-23789396D01*
X36656498Y-23849735D01*
X36656503Y-23849737D01*
X36811158Y-23880500D01*
X36811160Y-23880500D01*
X36968840Y-23880500D01*
X36968842Y-23880500D01*
X37123497Y-23849737D01*
X37269179Y-23789394D01*
X37400289Y-23701789D01*
X37511789Y-23590289D01*
X37599394Y-23459179D01*
X37659737Y-23313497D01*
X37664191Y-23291103D01*
X38475000Y-23291103D01*
X38485132Y-23375470D01*
X38538075Y-23509726D01*
X38625278Y-23624720D01*
X38625279Y-23624721D01*
X38740273Y-23711924D01*
X38874529Y-23764867D01*
X38958897Y-23775000D01*
X39025000Y-23775000D01*
X39025000Y-23200000D01*
X38475000Y-23200000D01*
X38475000Y-23291103D01*
X37664191Y-23291103D01*
X37690500Y-23158842D01*
X37690500Y-23001158D01*
X37660724Y-22851465D01*
X37671773Y-22795918D01*
X37680970Y-22784710D01*
X37834208Y-22631474D01*
X37886534Y-22609800D01*
X38403482Y-22609800D01*
X38455808Y-22631474D01*
X38477482Y-22683800D01*
X38476954Y-22692623D01*
X38475000Y-22708895D01*
X38475000Y-22800000D01*
X39151000Y-22800000D01*
X39203326Y-22821674D01*
X39225000Y-22874000D01*
X39225000Y-23000000D01*
X39351000Y-23000000D01*
X39403326Y-23021674D01*
X39425000Y-23074000D01*
X39425000Y-23775000D01*
X39491103Y-23775000D01*
X39575470Y-23764867D01*
X39709726Y-23711924D01*
X39824720Y-23624721D01*
X39824721Y-23624720D01*
X39911924Y-23509726D01*
X39958051Y-23392755D01*
X39997410Y-23352029D01*
X40054039Y-23351061D01*
X40094765Y-23390420D01*
X40096226Y-23394041D01*
X40128371Y-23480225D01*
X40128372Y-23480226D01*
X40210313Y-23589687D01*
X40319774Y-23671628D01*
X40319773Y-23671628D01*
X40367557Y-23689450D01*
X40447886Y-23719412D01*
X40504515Y-23725500D01*
X40525498Y-23725499D01*
X40577824Y-23747171D01*
X40599500Y-23799496D01*
X40599500Y-24976925D01*
X40577826Y-25029251D01*
X40551360Y-25046259D01*
X40457670Y-25081202D01*
X40457669Y-25081203D01*
X40342454Y-25167454D01*
X40256203Y-25282669D01*
X40256202Y-25282670D01*
X40205910Y-25417512D01*
X40205909Y-25417517D01*
X40199500Y-25477126D01*
X40199500Y-26522873D01*
X40205909Y-26582485D01*
X40256202Y-26717329D01*
X40256203Y-26717330D01*
X40256204Y-26717331D01*
X40342454Y-26832546D01*
X40457669Y-26918796D01*
X40457670Y-26918797D01*
X40551360Y-26953741D01*
X40592813Y-26992334D01*
X40599500Y-27023075D01*
X40599500Y-27672465D01*
X40577826Y-27724791D01*
X36049790Y-32252826D01*
X35997464Y-32274500D01*
X35504514Y-32274500D01*
X35504513Y-32274501D01*
X35447885Y-32280588D01*
X35319774Y-32328371D01*
X35210313Y-32410313D01*
X35128371Y-32519774D01*
X35080588Y-32647884D01*
X35080588Y-32647886D01*
X35079868Y-32654582D01*
X35074500Y-32704513D01*
X32819795Y-32704513D01*
X32182274Y-32066992D01*
X32160600Y-32014666D01*
X32160600Y-31278820D01*
X32182274Y-31226494D01*
X32234600Y-31204820D01*
X32286926Y-31226494D01*
X32296124Y-31237702D01*
X32341698Y-31305908D01*
X32474092Y-31438302D01*
X32629769Y-31542322D01*
X32802749Y-31613973D01*
X32986384Y-31650500D01*
X32986385Y-31650500D01*
X33173615Y-31650500D01*
X33173616Y-31650500D01*
X33357251Y-31613973D01*
X33530231Y-31542322D01*
X33685908Y-31438302D01*
X33818302Y-31305908D01*
X33922322Y-31150231D01*
X33993973Y-30977251D01*
X34030500Y-30793616D01*
X34030500Y-30606384D01*
X34669500Y-30606384D01*
X34669500Y-30793615D01*
X34706025Y-30977244D01*
X34706027Y-30977251D01*
X34757078Y-31100500D01*
X34777678Y-31150231D01*
X34839196Y-31242299D01*
X34863398Y-31278521D01*
X34881698Y-31305908D01*
X35014092Y-31438302D01*
X35169769Y-31542322D01*
X35342749Y-31613973D01*
X35526384Y-31650500D01*
X35526385Y-31650500D01*
X35713615Y-31650500D01*
X35713616Y-31650500D01*
X35897251Y-31613973D01*
X36070231Y-31542322D01*
X36225908Y-31438302D01*
X36358302Y-31305908D01*
X36462322Y-31150231D01*
X36533973Y-30977251D01*
X36570500Y-30793616D01*
X36570500Y-30606384D01*
X36533973Y-30422749D01*
X36462322Y-30249769D01*
X36358302Y-30094092D01*
X36225908Y-29961698D01*
X36070231Y-29857678D01*
X36070228Y-29857676D01*
X36070227Y-29857676D01*
X35897251Y-29786027D01*
X35897244Y-29786025D01*
X35758902Y-29758507D01*
X35713616Y-29749500D01*
X35526384Y-29749500D01*
X35490056Y-29756725D01*
X35342755Y-29786025D01*
X35342748Y-29786027D01*
X35169772Y-29857676D01*
X35014092Y-29961697D01*
X35014091Y-29961699D01*
X34881699Y-30094091D01*
X34881697Y-30094092D01*
X34777676Y-30249772D01*
X34706027Y-30422748D01*
X34706025Y-30422755D01*
X34669500Y-30606384D01*
X34030500Y-30606384D01*
X33993973Y-30422749D01*
X33922322Y-30249769D01*
X33818302Y-30094092D01*
X33685908Y-29961698D01*
X33530231Y-29857678D01*
X33530228Y-29857676D01*
X33530227Y-29857676D01*
X33357251Y-29786027D01*
X33357244Y-29786025D01*
X33218902Y-29758507D01*
X33173616Y-29749500D01*
X32986384Y-29749500D01*
X32950056Y-29756725D01*
X32802755Y-29786025D01*
X32802748Y-29786027D01*
X32629772Y-29857676D01*
X32474092Y-29961697D01*
X32474091Y-29961699D01*
X32341699Y-30094091D01*
X32341697Y-30094092D01*
X32296129Y-30162291D01*
X32249037Y-30193757D01*
X32193488Y-30182708D01*
X32162022Y-30135616D01*
X32160600Y-30121179D01*
X32160600Y-27585326D01*
X36089500Y-27585326D01*
X36089500Y-28734674D01*
X36095137Y-28763012D01*
X36104034Y-28807740D01*
X36145230Y-28869396D01*
X36159399Y-28890601D01*
X36242260Y-28945966D01*
X36315326Y-28960500D01*
X36315328Y-28960500D01*
X37464672Y-28960500D01*
X37464674Y-28960500D01*
X37537740Y-28945966D01*
X37620601Y-28890601D01*
X37675966Y-28807740D01*
X37690500Y-28734674D01*
X37690500Y-27585326D01*
X37675966Y-27512260D01*
X37620601Y-27429399D01*
X37537740Y-27374034D01*
X37464674Y-27359500D01*
X36315326Y-27359500D01*
X36266615Y-27369189D01*
X36242259Y-27374034D01*
X36159399Y-27429398D01*
X36159398Y-27429399D01*
X36104034Y-27512259D01*
X36104034Y-27512260D01*
X36089500Y-27585326D01*
X32160600Y-27585326D01*
X32160600Y-26518061D01*
X38250000Y-26518061D01*
X38260614Y-26606443D01*
X38316077Y-26747092D01*
X38407435Y-26867564D01*
X38527907Y-26958922D01*
X38668556Y-27014385D01*
X38756939Y-27025000D01*
X38850000Y-27025000D01*
X39250000Y-27025000D01*
X39343061Y-27025000D01*
X39431443Y-27014385D01*
X39572092Y-26958922D01*
X39692564Y-26867564D01*
X39783922Y-26747092D01*
X39839385Y-26606443D01*
X39850000Y-26518061D01*
X39850000Y-26200000D01*
X39250000Y-26200000D01*
X39250000Y-27025000D01*
X38850000Y-27025000D01*
X38850000Y-26200000D01*
X38250000Y-26200000D01*
X38250000Y-26518061D01*
X32160600Y-26518061D01*
X32160600Y-25481938D01*
X38250000Y-25481938D01*
X38250000Y-25800000D01*
X38850000Y-25800000D01*
X39250000Y-25800000D01*
X39850000Y-25800000D01*
X39850000Y-25481938D01*
X39839385Y-25393556D01*
X39783922Y-25252907D01*
X39692564Y-25132435D01*
X39572092Y-25041077D01*
X39431443Y-24985614D01*
X39343061Y-24975000D01*
X39250000Y-24975000D01*
X39250000Y-25800000D01*
X38850000Y-25800000D01*
X38850000Y-24975000D01*
X38756939Y-24975000D01*
X38668556Y-24985614D01*
X38527907Y-25041077D01*
X38407435Y-25132435D01*
X38316077Y-25252907D01*
X38260614Y-25393556D01*
X38250000Y-25481938D01*
X32160600Y-25481938D01*
X32160600Y-21533388D01*
X42899500Y-21533388D01*
X42899500Y-21706611D01*
X42926597Y-21877698D01*
X42926600Y-21877711D01*
X42980125Y-22042442D01*
X42980127Y-22042446D01*
X43058767Y-22196787D01*
X43154369Y-22328372D01*
X43160586Y-22336928D01*
X43283072Y-22459414D01*
X43283075Y-22459416D01*
X43283076Y-22459417D01*
X43423212Y-22561232D01*
X43577553Y-22639872D01*
X43577557Y-22639874D01*
X43742288Y-22693399D01*
X43742294Y-22693400D01*
X43742299Y-22693402D01*
X43840118Y-22708895D01*
X43913388Y-22720500D01*
X43913389Y-22720500D01*
X44086612Y-22720500D01*
X44136010Y-22712676D01*
X44257701Y-22693402D01*
X44257708Y-22693399D01*
X44257711Y-22693399D01*
X44422442Y-22639874D01*
X44422442Y-22639873D01*
X44422445Y-22639873D01*
X44576788Y-22561232D01*
X44716928Y-22459414D01*
X44839414Y-22336928D01*
X44941232Y-22196788D01*
X45019873Y-22042445D01*
X45073402Y-21877701D01*
X45100500Y-21706611D01*
X45100500Y-21533389D01*
X45073402Y-21362299D01*
X45073400Y-21362294D01*
X45073399Y-21362288D01*
X45019874Y-21197557D01*
X45019872Y-21197553D01*
X44941232Y-21043212D01*
X44839417Y-20903076D01*
X44839416Y-20903075D01*
X44839414Y-20903072D01*
X44716928Y-20780586D01*
X44716925Y-20780583D01*
X44716923Y-20780582D01*
X44576787Y-20678767D01*
X44422446Y-20600127D01*
X44422442Y-20600125D01*
X44257711Y-20546600D01*
X44257698Y-20546597D01*
X44086612Y-20519500D01*
X44086611Y-20519500D01*
X43913389Y-20519500D01*
X43913388Y-20519500D01*
X43742301Y-20546597D01*
X43742288Y-20546600D01*
X43577557Y-20600125D01*
X43577553Y-20600127D01*
X43423212Y-20678767D01*
X43283076Y-20780582D01*
X43160582Y-20903076D01*
X43058767Y-21043212D01*
X42980127Y-21197553D01*
X42980125Y-21197557D01*
X42926600Y-21362288D01*
X42926597Y-21362301D01*
X42899500Y-21533388D01*
X32160600Y-21533388D01*
X32160600Y-20493957D01*
X32151812Y-20461159D01*
X32136714Y-20404812D01*
X32136656Y-20404712D01*
X32090570Y-20324888D01*
X25659511Y-13893829D01*
X25637837Y-13841503D01*
X25659511Y-13789177D01*
X25690357Y-13770689D01*
X25693489Y-13769738D01*
X25693497Y-13769737D01*
X25839179Y-13709394D01*
X25970289Y-13621789D01*
X26081789Y-13510289D01*
X26169394Y-13379179D01*
X26229737Y-13233497D01*
X26260500Y-13078842D01*
X26260500Y-12921158D01*
X27199500Y-12921158D01*
X27199500Y-13078842D01*
X27205152Y-13107254D01*
X27230261Y-13233491D01*
X27230264Y-13233501D01*
X27290603Y-13379174D01*
X27377619Y-13509404D01*
X27378211Y-13510289D01*
X27489711Y-13621789D01*
X27620821Y-13709394D01*
X27620826Y-13709396D01*
X27620825Y-13709396D01*
X27726924Y-13753343D01*
X27766503Y-13769737D01*
X27921158Y-13800500D01*
X27921160Y-13800500D01*
X28078840Y-13800500D01*
X28078842Y-13800500D01*
X28233497Y-13769737D01*
X28379179Y-13709394D01*
X28510289Y-13621789D01*
X28621789Y-13510289D01*
X28709394Y-13379179D01*
X28769737Y-13233497D01*
X28800500Y-13078842D01*
X28800500Y-12921158D01*
X29739500Y-12921158D01*
X29739500Y-13078842D01*
X29745152Y-13107254D01*
X29770261Y-13233491D01*
X29770264Y-13233501D01*
X29830603Y-13379174D01*
X29917619Y-13509404D01*
X29918211Y-13510289D01*
X30029711Y-13621789D01*
X30160821Y-13709394D01*
X30160826Y-13709396D01*
X30160825Y-13709396D01*
X30266924Y-13753343D01*
X30306503Y-13769737D01*
X30461158Y-13800500D01*
X30461160Y-13800500D01*
X30618840Y-13800500D01*
X30618842Y-13800500D01*
X30773497Y-13769737D01*
X30919179Y-13709394D01*
X31050289Y-13621789D01*
X31161789Y-13510289D01*
X31249394Y-13379179D01*
X31309737Y-13233497D01*
X31340500Y-13078842D01*
X31340500Y-12921158D01*
X32279500Y-12921158D01*
X32279500Y-13078842D01*
X32285152Y-13107254D01*
X32310261Y-13233491D01*
X32310264Y-13233501D01*
X32370603Y-13379174D01*
X32457619Y-13509404D01*
X32458211Y-13510289D01*
X32569711Y-13621789D01*
X32700821Y-13709394D01*
X32700826Y-13709396D01*
X32700825Y-13709396D01*
X32806924Y-13753343D01*
X32846503Y-13769737D01*
X33001158Y-13800500D01*
X33001160Y-13800500D01*
X33158840Y-13800500D01*
X33158842Y-13800500D01*
X33313497Y-13769737D01*
X33459179Y-13709394D01*
X33590289Y-13621789D01*
X33701789Y-13510289D01*
X33789394Y-13379179D01*
X33849737Y-13233497D01*
X33880500Y-13078842D01*
X33880500Y-12921158D01*
X33849737Y-12766503D01*
X33824139Y-12704704D01*
X33789396Y-12620825D01*
X33789395Y-12620823D01*
X33789394Y-12620821D01*
X33701789Y-12489711D01*
X33590289Y-12378211D01*
X33578458Y-12370306D01*
X33557842Y-12356530D01*
X33459179Y-12290606D01*
X33459175Y-12290604D01*
X33459173Y-12290603D01*
X33459174Y-12290603D01*
X33313501Y-12230264D01*
X33313491Y-12230261D01*
X33204515Y-12208585D01*
X33158842Y-12199500D01*
X33001158Y-12199500D01*
X32957315Y-12208220D01*
X32846508Y-12230261D01*
X32846498Y-12230264D01*
X32700825Y-12290603D01*
X32569711Y-12378210D01*
X32569710Y-12378212D01*
X32458212Y-12489710D01*
X32458210Y-12489711D01*
X32370603Y-12620825D01*
X32310264Y-12766498D01*
X32310261Y-12766508D01*
X32293225Y-12852156D01*
X32279500Y-12921158D01*
X31340500Y-12921158D01*
X31310724Y-12771465D01*
X31321773Y-12715918D01*
X31330971Y-12704709D01*
X32609759Y-11425922D01*
X34267800Y-11425922D01*
X34267800Y-11570877D01*
X34305314Y-11710881D01*
X34305316Y-11710886D01*
X34377791Y-11836415D01*
X34446126Y-11904750D01*
X34467800Y-11957076D01*
X34467800Y-18514446D01*
X34491149Y-18601584D01*
X34491150Y-18601588D01*
X34491685Y-18603585D01*
X34491686Y-18603589D01*
X34537830Y-18683512D01*
X36099023Y-20244704D01*
X36120697Y-20297030D01*
X36119275Y-20311466D01*
X36089500Y-20461158D01*
X36089500Y-20618840D01*
X36120261Y-20773491D01*
X36120264Y-20773501D01*
X36180603Y-20919174D01*
X36180605Y-20919177D01*
X36180606Y-20919179D01*
X36268211Y-21050289D01*
X36379711Y-21161789D01*
X36510821Y-21249394D01*
X36510826Y-21249396D01*
X36510825Y-21249396D01*
X36656498Y-21309735D01*
X36656503Y-21309737D01*
X36811158Y-21340500D01*
X36811160Y-21340500D01*
X36968840Y-21340500D01*
X36968842Y-21340500D01*
X37123497Y-21309737D01*
X37269179Y-21249394D01*
X37400289Y-21161789D01*
X37511789Y-21050289D01*
X37599394Y-20919179D01*
X37659737Y-20773497D01*
X37690500Y-20618842D01*
X37690500Y-20461158D01*
X37659737Y-20306503D01*
X37655813Y-20297030D01*
X37599396Y-20160825D01*
X37599395Y-20160823D01*
X37599394Y-20160821D01*
X37511789Y-20029711D01*
X37400289Y-19918211D01*
X37394735Y-19914500D01*
X37367842Y-19896530D01*
X37269179Y-19830606D01*
X37269175Y-19830604D01*
X37269173Y-19830603D01*
X37269174Y-19830603D01*
X37123501Y-19770264D01*
X37123491Y-19770261D01*
X37016717Y-19749023D01*
X36968842Y-19739500D01*
X36811158Y-19739500D01*
X36781087Y-19745481D01*
X36661466Y-19769275D01*
X36605918Y-19758226D01*
X36594704Y-19749023D01*
X35888490Y-19042808D01*
X35839070Y-18993388D01*
X42899500Y-18993388D01*
X42899500Y-19166611D01*
X42926597Y-19337698D01*
X42926600Y-19337711D01*
X42980125Y-19502442D01*
X42980127Y-19502446D01*
X43058767Y-19656787D01*
X43141212Y-19770263D01*
X43160586Y-19796928D01*
X43283072Y-19919414D01*
X43283075Y-19919416D01*
X43283076Y-19919417D01*
X43423212Y-20021232D01*
X43577553Y-20099872D01*
X43577557Y-20099874D01*
X43742288Y-20153399D01*
X43742294Y-20153400D01*
X43742299Y-20153402D01*
X43856359Y-20171467D01*
X43913388Y-20180500D01*
X43913389Y-20180500D01*
X44086612Y-20180500D01*
X44129383Y-20173725D01*
X44257701Y-20153402D01*
X44257708Y-20153399D01*
X44257711Y-20153399D01*
X44422442Y-20099874D01*
X44422442Y-20099873D01*
X44422445Y-20099873D01*
X44576788Y-20021232D01*
X44716928Y-19919414D01*
X44839414Y-19796928D01*
X44941232Y-19656788D01*
X45019873Y-19502445D01*
X45034482Y-19457483D01*
X45073399Y-19337711D01*
X45073399Y-19337708D01*
X45073402Y-19337701D01*
X45100500Y-19166611D01*
X45100500Y-18993389D01*
X45073402Y-18822299D01*
X45073400Y-18822294D01*
X45073399Y-18822288D01*
X45019874Y-18657557D01*
X45019872Y-18657553D01*
X44941232Y-18503212D01*
X44839417Y-18363076D01*
X44839416Y-18363075D01*
X44839414Y-18363072D01*
X44716928Y-18240586D01*
X44716925Y-18240583D01*
X44716923Y-18240582D01*
X44576787Y-18138767D01*
X44422446Y-18060127D01*
X44422442Y-18060125D01*
X44257711Y-18006600D01*
X44257698Y-18006597D01*
X44086612Y-17979500D01*
X44086611Y-17979500D01*
X43913389Y-17979500D01*
X43913388Y-17979500D01*
X43742301Y-18006597D01*
X43742288Y-18006600D01*
X43577557Y-18060125D01*
X43577553Y-18060127D01*
X43423212Y-18138767D01*
X43283076Y-18240582D01*
X43160582Y-18363076D01*
X43058767Y-18503212D01*
X42980127Y-18657553D01*
X42980125Y-18657557D01*
X42926600Y-18822288D01*
X42926597Y-18822301D01*
X42899500Y-18993388D01*
X35839070Y-18993388D01*
X35190474Y-18344792D01*
X35168800Y-18292466D01*
X35168800Y-17921159D01*
X36089500Y-17921159D01*
X36089500Y-18078840D01*
X36120261Y-18233491D01*
X36120264Y-18233501D01*
X36180603Y-18379174D01*
X36180605Y-18379177D01*
X36180606Y-18379179D01*
X36268211Y-18510289D01*
X36379711Y-18621789D01*
X36510821Y-18709394D01*
X36510826Y-18709396D01*
X36510825Y-18709396D01*
X36656498Y-18769735D01*
X36656503Y-18769737D01*
X36811158Y-18800500D01*
X36811160Y-18800500D01*
X36968840Y-18800500D01*
X36968842Y-18800500D01*
X37123497Y-18769737D01*
X37269179Y-18709394D01*
X37400289Y-18621789D01*
X37511789Y-18510289D01*
X37599394Y-18379179D01*
X37659737Y-18233497D01*
X37690500Y-18078842D01*
X37690500Y-17921158D01*
X37659737Y-17766503D01*
X37647733Y-17737522D01*
X47660400Y-17737522D01*
X47660400Y-17882477D01*
X47697914Y-18022481D01*
X47697916Y-18022486D01*
X47730454Y-18078842D01*
X47770391Y-18148015D01*
X47872885Y-18250509D01*
X47998415Y-18322984D01*
X47998416Y-18322984D01*
X47998418Y-18322985D01*
X48068420Y-18341742D01*
X48138422Y-18360499D01*
X48138423Y-18360500D01*
X48138425Y-18360500D01*
X48283377Y-18360500D01*
X48283377Y-18360499D01*
X48423385Y-18322984D01*
X48548915Y-18250509D01*
X48651409Y-18148015D01*
X48723884Y-18022485D01*
X48761399Y-17882477D01*
X48761400Y-17882477D01*
X48761400Y-17737523D01*
X48761399Y-17737522D01*
X48723885Y-17597518D01*
X48723883Y-17597513D01*
X48692127Y-17542511D01*
X48651409Y-17471985D01*
X48548915Y-17369491D01*
X48506407Y-17344949D01*
X48423386Y-17297016D01*
X48423381Y-17297014D01*
X48283377Y-17259500D01*
X48283375Y-17259500D01*
X48138425Y-17259500D01*
X48138423Y-17259500D01*
X47998418Y-17297014D01*
X47998413Y-17297016D01*
X47872884Y-17369491D01*
X47770391Y-17471984D01*
X47697916Y-17597513D01*
X47697914Y-17597518D01*
X47660400Y-17737522D01*
X37647733Y-17737522D01*
X37628049Y-17690000D01*
X37599396Y-17620825D01*
X37599395Y-17620823D01*
X37599394Y-17620821D01*
X37511789Y-17489711D01*
X37400289Y-17378211D01*
X37269179Y-17290606D01*
X37269175Y-17290604D01*
X37269173Y-17290603D01*
X37269174Y-17290603D01*
X37123501Y-17230264D01*
X37123491Y-17230261D01*
X37019925Y-17209661D01*
X36968842Y-17199500D01*
X36811158Y-17199500D01*
X36777455Y-17206204D01*
X36656508Y-17230261D01*
X36656498Y-17230264D01*
X36510825Y-17290603D01*
X36379711Y-17378210D01*
X36379710Y-17378212D01*
X36268212Y-17489710D01*
X36268210Y-17489711D01*
X36180603Y-17620825D01*
X36120264Y-17766498D01*
X36120261Y-17766508D01*
X36089500Y-17921159D01*
X35168800Y-17921159D01*
X35168800Y-16449491D01*
X42850000Y-16449491D01*
X42850000Y-16630508D01*
X42878316Y-16809289D01*
X42878319Y-16809302D01*
X42934251Y-16981443D01*
X43016431Y-17142728D01*
X43057668Y-17199487D01*
X43531980Y-16725174D01*
X43534075Y-16732993D01*
X43599901Y-16847007D01*
X43692993Y-16940099D01*
X43807007Y-17005925D01*
X43814822Y-17008019D01*
X43340511Y-17482331D01*
X43397266Y-17523566D01*
X43558556Y-17605748D01*
X43558555Y-17605748D01*
X43730697Y-17661680D01*
X43730710Y-17661683D01*
X43909491Y-17690000D01*
X44090509Y-17690000D01*
X44269289Y-17661683D01*
X44269302Y-17661680D01*
X44441443Y-17605748D01*
X44602729Y-17523568D01*
X44659487Y-17482331D01*
X44185176Y-17008019D01*
X44192993Y-17005925D01*
X44307007Y-16940099D01*
X44400099Y-16847007D01*
X44465925Y-16732993D01*
X44468019Y-16725176D01*
X44942331Y-17199487D01*
X44983568Y-17142729D01*
X45065748Y-16981443D01*
X45121680Y-16809302D01*
X45121683Y-16809289D01*
X45150000Y-16630508D01*
X45150000Y-16449491D01*
X45121683Y-16270710D01*
X45121680Y-16270697D01*
X45065748Y-16098556D01*
X44983566Y-15937267D01*
X44983566Y-15937266D01*
X44942331Y-15880511D01*
X44468019Y-16354822D01*
X44465925Y-16347007D01*
X44400099Y-16232993D01*
X44307007Y-16139901D01*
X44192993Y-16074075D01*
X44185174Y-16071980D01*
X44659487Y-15597668D01*
X44602728Y-15556431D01*
X44441443Y-15474251D01*
X44441444Y-15474251D01*
X44269302Y-15418319D01*
X44269289Y-15418316D01*
X44090509Y-15390000D01*
X43909491Y-15390000D01*
X43730710Y-15418316D01*
X43730697Y-15418319D01*
X43558558Y-15474250D01*
X43397268Y-15556431D01*
X43340511Y-15597667D01*
X43340511Y-15597668D01*
X43814823Y-16071980D01*
X43807007Y-16074075D01*
X43692993Y-16139901D01*
X43599901Y-16232993D01*
X43534075Y-16347007D01*
X43531980Y-16354823D01*
X43057668Y-15880511D01*
X43057667Y-15880511D01*
X43016431Y-15937268D01*
X42934250Y-16098558D01*
X42878319Y-16270697D01*
X42878316Y-16270710D01*
X42850000Y-16449491D01*
X35168800Y-16449491D01*
X35168800Y-15381159D01*
X36089500Y-15381159D01*
X36089500Y-15538840D01*
X36120261Y-15693491D01*
X36120264Y-15693501D01*
X36180603Y-15839174D01*
X36180605Y-15839177D01*
X36180606Y-15839179D01*
X36268211Y-15970289D01*
X36379711Y-16081789D01*
X36510821Y-16169394D01*
X36510826Y-16169396D01*
X36510825Y-16169396D01*
X36649767Y-16226947D01*
X36656503Y-16229737D01*
X36811158Y-16260500D01*
X36811160Y-16260500D01*
X36968840Y-16260500D01*
X36968842Y-16260500D01*
X37123497Y-16229737D01*
X37269179Y-16169394D01*
X37400289Y-16081789D01*
X37511789Y-15970289D01*
X37599394Y-15839179D01*
X37659737Y-15693497D01*
X37690500Y-15538842D01*
X37690500Y-15381158D01*
X37659737Y-15226503D01*
X37638520Y-15175280D01*
X37638520Y-15118645D01*
X37678568Y-15078596D01*
X37735205Y-15078596D01*
X37759213Y-15094637D01*
X37812585Y-15148009D01*
X37938115Y-15220484D01*
X37938116Y-15220484D01*
X37938118Y-15220485D01*
X38008120Y-15239242D01*
X38078122Y-15257999D01*
X38078123Y-15258000D01*
X38078125Y-15258000D01*
X38223077Y-15258000D01*
X38223077Y-15257999D01*
X38363085Y-15220484D01*
X38488615Y-15148009D01*
X38591109Y-15045515D01*
X38663584Y-14919985D01*
X38701099Y-14779977D01*
X38701100Y-14779977D01*
X38701100Y-14635023D01*
X38701099Y-14635022D01*
X38663585Y-14495018D01*
X38663583Y-14495013D01*
X38630676Y-14438017D01*
X38591109Y-14369485D01*
X38488615Y-14266991D01*
X38363086Y-14194516D01*
X38363081Y-14194514D01*
X38223077Y-14157000D01*
X38223075Y-14157000D01*
X38078125Y-14157000D01*
X38078123Y-14157000D01*
X37938118Y-14194514D01*
X37938113Y-14194516D01*
X37812584Y-14266991D01*
X37710091Y-14369484D01*
X37637616Y-14495013D01*
X37637614Y-14495018D01*
X37600100Y-14635022D01*
X37600100Y-14779974D01*
X37623073Y-14865712D01*
X37615680Y-14921864D01*
X37570746Y-14956343D01*
X37514594Y-14948950D01*
X37499268Y-14937190D01*
X37400288Y-14838210D01*
X37367822Y-14816517D01*
X37269179Y-14750606D01*
X37269175Y-14750604D01*
X37269173Y-14750603D01*
X37269174Y-14750603D01*
X37123501Y-14690264D01*
X37123491Y-14690261D01*
X37019925Y-14669661D01*
X36968842Y-14659500D01*
X36811158Y-14659500D01*
X36767315Y-14668220D01*
X36656508Y-14690261D01*
X36656498Y-14690264D01*
X36510825Y-14750603D01*
X36379711Y-14838210D01*
X36379710Y-14838212D01*
X36268212Y-14949710D01*
X36268210Y-14949711D01*
X36180603Y-15080825D01*
X36120264Y-15226498D01*
X36120261Y-15226508D01*
X36089500Y-15381159D01*
X35168800Y-15381159D01*
X35168800Y-13790310D01*
X35190474Y-13737984D01*
X35242800Y-13716310D01*
X35271115Y-13721942D01*
X35386503Y-13769737D01*
X35541158Y-13800500D01*
X35541160Y-13800500D01*
X35698840Y-13800500D01*
X35698842Y-13800500D01*
X35853497Y-13769737D01*
X35999179Y-13709394D01*
X36130289Y-13621789D01*
X36241789Y-13510289D01*
X36241790Y-13510288D01*
X36242674Y-13509404D01*
X36295000Y-13487730D01*
X36347326Y-13509404D01*
X36379711Y-13541789D01*
X36510821Y-13629394D01*
X36510826Y-13629396D01*
X36510825Y-13629396D01*
X36549632Y-13645470D01*
X36656503Y-13689737D01*
X36811158Y-13720500D01*
X36811160Y-13720500D01*
X36968840Y-13720500D01*
X36968842Y-13720500D01*
X37123497Y-13689737D01*
X37269179Y-13629394D01*
X37400289Y-13541789D01*
X37511789Y-13430289D01*
X37599394Y-13299179D01*
X37659737Y-13153497D01*
X37665341Y-13125326D01*
X42899500Y-13125326D01*
X42899500Y-14874674D01*
X42908417Y-14919500D01*
X42914034Y-14947740D01*
X42964637Y-15023475D01*
X42969399Y-15030601D01*
X43052260Y-15085966D01*
X43125326Y-15100500D01*
X43125328Y-15100500D01*
X44874672Y-15100500D01*
X44874674Y-15100500D01*
X44947740Y-15085966D01*
X45030601Y-15030601D01*
X45085966Y-14947740D01*
X45100500Y-14874674D01*
X45100500Y-13352126D01*
X50749500Y-13352126D01*
X50749500Y-14647873D01*
X50755909Y-14707485D01*
X50806202Y-14842329D01*
X50806203Y-14842330D01*
X50808576Y-14845500D01*
X50892454Y-14957546D01*
X50990043Y-15030601D01*
X51007669Y-15043796D01*
X51007670Y-15043797D01*
X51106938Y-15080821D01*
X51142517Y-15094091D01*
X51202127Y-15100500D01*
X52797872Y-15100499D01*
X52857483Y-15094091D01*
X52937271Y-15064332D01*
X52992329Y-15043797D01*
X52992329Y-15043796D01*
X52992331Y-15043796D01*
X53107546Y-14957546D01*
X53193796Y-14842331D01*
X53195333Y-14838212D01*
X53213507Y-14789483D01*
X53244091Y-14707483D01*
X53250500Y-14647873D01*
X53250499Y-13352128D01*
X53244091Y-13292517D01*
X53244089Y-13292512D01*
X53193797Y-13157670D01*
X53193796Y-13157669D01*
X53190668Y-13153490D01*
X53107546Y-13042454D01*
X52992331Y-12956204D01*
X52992330Y-12956203D01*
X52992329Y-12956202D01*
X52857487Y-12905910D01*
X52857484Y-12905909D01*
X52857483Y-12905909D01*
X52797873Y-12899500D01*
X51202126Y-12899500D01*
X51142514Y-12905909D01*
X51007670Y-12956202D01*
X51007669Y-12956203D01*
X50892454Y-13042454D01*
X50806203Y-13157669D01*
X50806202Y-13157670D01*
X50755910Y-13292512D01*
X50755909Y-13292517D01*
X50749500Y-13352126D01*
X45100500Y-13352126D01*
X45100500Y-13125326D01*
X45085966Y-13052260D01*
X45030601Y-12969399D01*
X45010851Y-12956203D01*
X44947740Y-12914034D01*
X44874674Y-12899500D01*
X44874672Y-12899500D01*
X44673134Y-12899500D01*
X44620808Y-12877826D01*
X44599134Y-12825500D01*
X44620808Y-12773174D01*
X44853161Y-12540821D01*
X45105470Y-12288512D01*
X45151614Y-12208588D01*
X45154049Y-12199500D01*
X45175500Y-12119444D01*
X45175500Y-11413388D01*
X50749500Y-11413388D01*
X50749500Y-11586611D01*
X50776597Y-11757698D01*
X50776600Y-11757711D01*
X50830125Y-11922442D01*
X50830127Y-11922446D01*
X50908767Y-12076787D01*
X51005992Y-12210606D01*
X51010586Y-12216928D01*
X51133072Y-12339414D01*
X51133075Y-12339416D01*
X51133076Y-12339417D01*
X51273212Y-12441232D01*
X51427553Y-12519872D01*
X51427557Y-12519874D01*
X51592288Y-12573399D01*
X51592294Y-12573400D01*
X51592299Y-12573402D01*
X51706359Y-12591467D01*
X51763388Y-12600500D01*
X51763389Y-12600500D01*
X52236612Y-12600500D01*
X52279383Y-12593725D01*
X52407701Y-12573402D01*
X52407708Y-12573399D01*
X52407711Y-12573399D01*
X52572442Y-12519874D01*
X52572442Y-12519873D01*
X52572445Y-12519873D01*
X52726788Y-12441232D01*
X52866928Y-12339414D01*
X52989414Y-12216928D01*
X53091232Y-12076788D01*
X53169873Y-11922445D01*
X53203258Y-11819698D01*
X53223399Y-11757711D01*
X53223399Y-11757708D01*
X53223402Y-11757701D01*
X53250500Y-11586611D01*
X53250500Y-11413389D01*
X53223402Y-11242299D01*
X53223400Y-11242294D01*
X53223399Y-11242288D01*
X53169874Y-11077557D01*
X53169872Y-11077553D01*
X53091232Y-10923212D01*
X52989417Y-10783076D01*
X52989416Y-10783075D01*
X52989414Y-10783072D01*
X52866928Y-10660586D01*
X52866925Y-10660583D01*
X52866923Y-10660582D01*
X52726787Y-10558767D01*
X52572446Y-10480127D01*
X52572442Y-10480125D01*
X52407711Y-10426600D01*
X52407698Y-10426597D01*
X52236612Y-10399500D01*
X52236611Y-10399500D01*
X51763389Y-10399500D01*
X51763388Y-10399500D01*
X51592301Y-10426597D01*
X51592288Y-10426600D01*
X51427557Y-10480125D01*
X51427553Y-10480127D01*
X51273212Y-10558767D01*
X51133076Y-10660582D01*
X51010582Y-10783076D01*
X50908767Y-10923212D01*
X50830127Y-11077553D01*
X50830125Y-11077557D01*
X50776600Y-11242288D01*
X50776597Y-11242301D01*
X50749500Y-11413388D01*
X45175500Y-11413388D01*
X45175500Y-8752127D01*
X45197174Y-8699801D01*
X45225060Y-8682279D01*
X45237882Y-8677793D01*
X45347150Y-8597150D01*
X45427793Y-8487882D01*
X45472646Y-8359699D01*
X45475500Y-8329266D01*
X45475500Y-7670734D01*
X45472646Y-7640301D01*
X45427793Y-7512118D01*
X45427792Y-7512116D01*
X45347153Y-7402853D01*
X45347146Y-7402846D01*
X45237883Y-7322207D01*
X45237881Y-7322206D01*
X45109704Y-7277355D01*
X45109705Y-7277355D01*
X45109700Y-7277354D01*
X45109699Y-7277354D01*
X45079266Y-7274500D01*
X44570734Y-7274500D01*
X44540301Y-7277354D01*
X44540299Y-7277354D01*
X44540295Y-7277355D01*
X44412118Y-7322206D01*
X44412116Y-7322207D01*
X44302853Y-7402846D01*
X44302846Y-7402853D01*
X44222207Y-7512116D01*
X44222206Y-7512118D01*
X44177355Y-7640295D01*
X44177354Y-7640299D01*
X44177354Y-7640301D01*
X44174500Y-7670734D01*
X44174500Y-8329266D01*
X44177354Y-8359699D01*
X44177354Y-8359701D01*
X44177355Y-8359704D01*
X44222206Y-8487881D01*
X44222207Y-8487883D01*
X44302846Y-8597146D01*
X44302853Y-8597153D01*
X44412116Y-8677792D01*
X44412115Y-8677792D01*
X44412118Y-8677793D01*
X44424939Y-8682279D01*
X44467171Y-8720018D01*
X44474500Y-8752127D01*
X44474500Y-11897466D01*
X44452826Y-11949792D01*
X43719530Y-12683087D01*
X43698490Y-12719531D01*
X43673387Y-12763009D01*
X43673386Y-12763011D01*
X43673386Y-12763012D01*
X43651510Y-12844654D01*
X43617032Y-12889586D01*
X43580032Y-12899500D01*
X43125326Y-12899500D01*
X43076615Y-12909189D01*
X43052259Y-12914034D01*
X42969399Y-12969398D01*
X42969398Y-12969399D01*
X42914034Y-13052259D01*
X42914034Y-13052260D01*
X42899500Y-13125326D01*
X37665341Y-13125326D01*
X37690500Y-12998842D01*
X37690500Y-12841158D01*
X37659737Y-12686503D01*
X37659735Y-12686498D01*
X37599396Y-12540825D01*
X37599395Y-12540823D01*
X37599394Y-12540821D01*
X37511789Y-12409711D01*
X37400289Y-12298211D01*
X37388907Y-12290606D01*
X37347222Y-12262753D01*
X37269179Y-12210606D01*
X37269175Y-12210604D01*
X37269173Y-12210603D01*
X37269174Y-12210603D01*
X37123501Y-12150264D01*
X37123491Y-12150261D01*
X37019925Y-12129661D01*
X36968842Y-12119500D01*
X36811158Y-12119500D01*
X36767315Y-12128220D01*
X36656508Y-12150261D01*
X36656498Y-12150264D01*
X36510825Y-12210603D01*
X36379711Y-12298210D01*
X36379710Y-12298212D01*
X36267326Y-12410596D01*
X36215000Y-12432270D01*
X36162674Y-12410596D01*
X36130288Y-12378210D01*
X36097842Y-12356530D01*
X35999179Y-12290606D01*
X35999175Y-12290604D01*
X35999173Y-12290603D01*
X35999174Y-12290603D01*
X35853501Y-12230264D01*
X35853491Y-12230261D01*
X35744515Y-12208585D01*
X35698842Y-12199500D01*
X35541158Y-12199500D01*
X35497315Y-12208220D01*
X35386508Y-12230261D01*
X35386498Y-12230264D01*
X35271118Y-12278056D01*
X35214481Y-12278056D01*
X35174433Y-12238007D01*
X35168800Y-12209689D01*
X35168800Y-11957076D01*
X35190474Y-11904750D01*
X35224224Y-11871000D01*
X35258809Y-11836415D01*
X35331284Y-11710885D01*
X35368799Y-11570877D01*
X35368800Y-11570877D01*
X35368800Y-11425923D01*
X35368799Y-11425922D01*
X35331285Y-11285918D01*
X35331283Y-11285913D01*
X35278151Y-11193886D01*
X35258809Y-11160385D01*
X35156315Y-11057891D01*
X35141783Y-11049501D01*
X35030786Y-10985416D01*
X35030781Y-10985414D01*
X34890777Y-10947900D01*
X34890775Y-10947900D01*
X34745825Y-10947900D01*
X34745823Y-10947900D01*
X34605818Y-10985414D01*
X34605813Y-10985416D01*
X34480284Y-11057891D01*
X34377791Y-11160384D01*
X34305316Y-11285913D01*
X34305314Y-11285918D01*
X34267800Y-11425922D01*
X32609759Y-11425922D01*
X33734524Y-10301158D01*
X36089500Y-10301158D01*
X36089500Y-10458842D01*
X36093734Y-10480127D01*
X36120261Y-10613491D01*
X36120264Y-10613501D01*
X36180603Y-10759174D01*
X36180605Y-10759177D01*
X36180606Y-10759179D01*
X36268211Y-10890289D01*
X36379711Y-11001789D01*
X36510821Y-11089394D01*
X36510826Y-11089396D01*
X36510825Y-11089396D01*
X36656498Y-11149735D01*
X36656503Y-11149737D01*
X36811158Y-11180500D01*
X36811160Y-11180500D01*
X36968840Y-11180500D01*
X36968842Y-11180500D01*
X37123497Y-11149737D01*
X37269179Y-11089394D01*
X37400289Y-11001789D01*
X37511789Y-10890289D01*
X37599394Y-10759179D01*
X37659737Y-10613497D01*
X37690500Y-10458842D01*
X37690500Y-10301158D01*
X37659737Y-10146503D01*
X37599394Y-10000821D01*
X37511789Y-9869711D01*
X37400289Y-9758211D01*
X37269179Y-9670606D01*
X37269175Y-9670604D01*
X37269173Y-9670603D01*
X37269174Y-9670603D01*
X37123501Y-9610264D01*
X37123491Y-9610261D01*
X37019925Y-9589661D01*
X36968842Y-9579500D01*
X36811158Y-9579500D01*
X36767315Y-9588220D01*
X36656508Y-9610261D01*
X36656498Y-9610264D01*
X36510825Y-9670603D01*
X36379711Y-9758210D01*
X36379710Y-9758212D01*
X36268212Y-9869710D01*
X36268210Y-9869711D01*
X36180603Y-10000825D01*
X36120264Y-10146498D01*
X36120261Y-10146508D01*
X36100631Y-10245197D01*
X36089500Y-10301158D01*
X33734524Y-10301158D01*
X34805008Y-9230674D01*
X34857334Y-9209000D01*
X42362646Y-9209000D01*
X42362646Y-9208999D01*
X42451788Y-9185114D01*
X42531712Y-9138970D01*
X42923508Y-8747174D01*
X42975834Y-8725500D01*
X43429258Y-8725500D01*
X43429266Y-8725500D01*
X43459699Y-8722646D01*
X43587882Y-8677793D01*
X43697150Y-8597150D01*
X43777793Y-8487882D01*
X43822646Y-8359699D01*
X43825500Y-8329266D01*
X43825500Y-7670734D01*
X43822646Y-7640301D01*
X43777793Y-7512118D01*
X43777792Y-7512116D01*
X43697153Y-7402853D01*
X43697146Y-7402846D01*
X43587883Y-7322207D01*
X43587881Y-7322206D01*
X43459704Y-7277355D01*
X43459705Y-7277355D01*
X43459700Y-7277354D01*
X43459699Y-7277354D01*
X43429266Y-7274500D01*
X42920734Y-7274500D01*
X42890301Y-7277354D01*
X42890299Y-7277354D01*
X42890295Y-7277355D01*
X42762118Y-7322206D01*
X42762116Y-7322207D01*
X42652853Y-7402846D01*
X42652846Y-7402853D01*
X42572207Y-7512116D01*
X42572206Y-7512118D01*
X42527355Y-7640295D01*
X42527354Y-7640299D01*
X42527354Y-7640301D01*
X42524500Y-7670734D01*
X42524500Y-7670740D01*
X42524500Y-8124166D01*
X42502826Y-8176492D01*
X42192992Y-8486326D01*
X42140666Y-8508000D01*
X37532730Y-8508000D01*
X37480404Y-8486326D01*
X37458730Y-8434000D01*
X37480404Y-8381674D01*
X37511788Y-8350290D01*
X37511789Y-8350289D01*
X37599394Y-8219179D01*
X37659737Y-8073497D01*
X37690500Y-7918842D01*
X37690500Y-7761158D01*
X37659737Y-7606503D01*
X37599394Y-7460821D01*
X37511789Y-7329711D01*
X37400289Y-7218211D01*
X37269179Y-7130606D01*
X37269175Y-7130604D01*
X37269173Y-7130603D01*
X37269174Y-7130603D01*
X37123501Y-7070264D01*
X37123491Y-7070261D01*
X37019925Y-7049661D01*
X36968842Y-7039500D01*
X36811158Y-7039500D01*
X36767315Y-7048220D01*
X36656508Y-7070261D01*
X36656498Y-7070264D01*
X36510825Y-7130603D01*
X36379711Y-7218210D01*
X36379710Y-7218212D01*
X36268212Y-7329710D01*
X36268210Y-7329711D01*
X36180603Y-7460825D01*
X36120264Y-7606498D01*
X36120261Y-7606508D01*
X36089500Y-7761159D01*
X36089500Y-7918840D01*
X36120261Y-8073491D01*
X36120264Y-8073501D01*
X36180603Y-8219174D01*
X36268210Y-8350288D01*
X36299596Y-8381674D01*
X36321270Y-8434000D01*
X36299596Y-8486326D01*
X36247270Y-8508000D01*
X34635354Y-8508000D01*
X34546215Y-8531884D01*
X34546210Y-8531886D01*
X34466290Y-8578028D01*
X30835293Y-12209023D01*
X30782967Y-12230697D01*
X30768530Y-12229275D01*
X30618842Y-12199500D01*
X30461158Y-12199500D01*
X30417315Y-12208220D01*
X30306508Y-12230261D01*
X30306498Y-12230264D01*
X30160825Y-12290603D01*
X30029711Y-12378210D01*
X30029710Y-12378212D01*
X29918212Y-12489710D01*
X29918210Y-12489711D01*
X29830603Y-12620825D01*
X29770264Y-12766498D01*
X29770261Y-12766508D01*
X29753225Y-12852156D01*
X29739500Y-12921158D01*
X28800500Y-12921158D01*
X28769737Y-12766503D01*
X28744139Y-12704704D01*
X28709396Y-12620825D01*
X28709395Y-12620823D01*
X28709394Y-12620821D01*
X28621789Y-12489711D01*
X28510289Y-12378211D01*
X28498458Y-12370306D01*
X28477842Y-12356530D01*
X28379179Y-12290606D01*
X28379175Y-12290604D01*
X28379173Y-12290603D01*
X28379174Y-12290603D01*
X28233501Y-12230264D01*
X28233491Y-12230261D01*
X28124515Y-12208585D01*
X28078842Y-12199500D01*
X27921158Y-12199500D01*
X27877315Y-12208220D01*
X27766508Y-12230261D01*
X27766498Y-12230264D01*
X27620825Y-12290603D01*
X27489711Y-12378210D01*
X27489710Y-12378212D01*
X27378212Y-12489710D01*
X27378210Y-12489711D01*
X27290603Y-12620825D01*
X27230264Y-12766498D01*
X27230261Y-12766508D01*
X27213225Y-12852156D01*
X27199500Y-12921158D01*
X26260500Y-12921158D01*
X26229737Y-12766503D01*
X26204139Y-12704704D01*
X26169396Y-12620825D01*
X26169395Y-12620823D01*
X26169394Y-12620821D01*
X26081789Y-12489711D01*
X25970289Y-12378211D01*
X25958458Y-12370306D01*
X25937842Y-12356530D01*
X25839179Y-12290606D01*
X25839175Y-12290604D01*
X25839173Y-12290603D01*
X25839174Y-12290603D01*
X25693501Y-12230264D01*
X25693491Y-12230261D01*
X25584515Y-12208585D01*
X25538842Y-12199500D01*
X25381158Y-12199500D01*
X25337315Y-12208220D01*
X25226508Y-12230261D01*
X25226498Y-12230264D01*
X25080825Y-12290603D01*
X24949711Y-12378210D01*
X24949710Y-12378212D01*
X24838212Y-12489710D01*
X24838210Y-12489711D01*
X24750603Y-12620825D01*
X24690260Y-12766507D01*
X24689306Y-12769654D01*
X24653369Y-12813430D01*
X24597004Y-12818972D01*
X24566170Y-12800488D01*
X19900976Y-8135294D01*
X19879302Y-8082968D01*
X19880723Y-8068539D01*
X19910500Y-7918842D01*
X19910500Y-7761158D01*
X19879737Y-7606503D01*
X19819394Y-7460821D01*
X19731789Y-7329711D01*
X19620289Y-7218211D01*
X19489179Y-7130606D01*
X19489175Y-7130604D01*
X19489173Y-7130603D01*
X19489174Y-7130603D01*
X19343501Y-7070264D01*
X19343491Y-7070261D01*
X19239925Y-7049661D01*
X19188842Y-7039500D01*
X19031158Y-7039500D01*
X18987315Y-7048220D01*
X18876508Y-7070261D01*
X18876498Y-7070264D01*
X18730825Y-7130603D01*
X18599711Y-7218210D01*
X18599710Y-7218212D01*
X18488212Y-7329710D01*
X18488210Y-7329711D01*
X18400603Y-7460825D01*
X18340264Y-7606498D01*
X18340261Y-7606508D01*
X18309500Y-7761159D01*
X18309500Y-7918840D01*
X18340261Y-8073491D01*
X18340264Y-8073501D01*
X18400603Y-8219174D01*
X18400605Y-8219177D01*
X18400606Y-8219179D01*
X18488211Y-8350289D01*
X18599711Y-8461789D01*
X18730821Y-8549394D01*
X18730826Y-8549396D01*
X18730825Y-8549396D01*
X18799950Y-8578028D01*
X18876503Y-8609737D01*
X19031158Y-8640500D01*
X19031160Y-8640500D01*
X19188840Y-8640500D01*
X19188842Y-8640500D01*
X19338533Y-8610724D01*
X19394080Y-8621773D01*
X19405294Y-8630976D01*
X22853913Y-12079595D01*
X22875587Y-12131921D01*
X22853913Y-12184247D01*
X22816024Y-12204499D01*
X22686508Y-12230261D01*
X22686498Y-12230264D01*
X22540825Y-12290603D01*
X22409711Y-12378210D01*
X22409710Y-12378212D01*
X22298212Y-12489710D01*
X22298210Y-12489711D01*
X22210603Y-12620825D01*
X22150264Y-12766498D01*
X22150261Y-12766508D01*
X22133225Y-12852156D01*
X22119500Y-12921158D01*
X22119500Y-13078842D01*
X22125152Y-13107254D01*
X22150261Y-13233491D01*
X22150264Y-13233501D01*
X22210603Y-13379174D01*
X22297619Y-13509404D01*
X22298211Y-13510289D01*
X22409711Y-13621789D01*
X22540821Y-13709394D01*
X22540826Y-13709396D01*
X22540825Y-13709396D01*
X22646924Y-13753343D01*
X22686503Y-13769737D01*
X22841158Y-13800500D01*
X22841160Y-13800500D01*
X22998840Y-13800500D01*
X22998842Y-13800500D01*
X23153497Y-13769737D01*
X23299179Y-13709394D01*
X23430289Y-13621789D01*
X23541789Y-13510289D01*
X23629394Y-13379179D01*
X23689737Y-13233497D01*
X23715500Y-13103974D01*
X23746966Y-13056883D01*
X23802514Y-13045834D01*
X23840404Y-13066086D01*
X31437926Y-20663608D01*
X31459600Y-20715934D01*
X31459600Y-30121478D01*
X31437926Y-30173804D01*
X31385600Y-30195478D01*
X31333274Y-30173804D01*
X31324071Y-30162590D01*
X31278302Y-30094092D01*
X31145907Y-29961697D01*
X31094482Y-29927336D01*
X30990231Y-29857678D01*
X30990228Y-29857676D01*
X30990227Y-29857676D01*
X30817251Y-29786027D01*
X30817244Y-29786025D01*
X30678902Y-29758507D01*
X30633616Y-29749500D01*
X30446384Y-29749500D01*
X30410056Y-29756725D01*
X30262755Y-29786025D01*
X30262748Y-29786027D01*
X30089772Y-29857676D01*
X29934092Y-29961697D01*
X29934091Y-29961699D01*
X29801699Y-30094091D01*
X29801697Y-30094092D01*
X29697676Y-30249772D01*
X29626027Y-30422748D01*
X29626025Y-30422755D01*
X29589500Y-30606384D01*
X29589500Y-30793615D01*
X29626025Y-30977244D01*
X29626027Y-30977251D01*
X29677078Y-31100500D01*
X29697678Y-31150231D01*
X29759196Y-31242299D01*
X29783398Y-31278521D01*
X29801698Y-31305908D01*
X29934092Y-31438302D01*
X30089769Y-31542322D01*
X30262749Y-31613973D01*
X30446384Y-31650500D01*
X30446385Y-31650500D01*
X30633615Y-31650500D01*
X30633616Y-31650500D01*
X30817251Y-31613973D01*
X30990231Y-31542322D01*
X31145908Y-31438302D01*
X31278302Y-31305908D01*
X31324071Y-31237408D01*
X31371163Y-31205943D01*
X31426712Y-31216992D01*
X31458178Y-31264084D01*
X31459600Y-31278521D01*
X31459600Y-32236646D01*
X31469743Y-32274499D01*
X31469743Y-32274500D01*
X31483484Y-32325783D01*
X31483486Y-32325788D01*
X31529630Y-32405712D01*
X40527626Y-41403708D01*
X40549300Y-41456034D01*
X40549300Y-44689146D01*
X40562849Y-44739710D01*
X40562849Y-44739711D01*
X40573184Y-44778283D01*
X40573186Y-44778288D01*
X40619330Y-44858212D01*
X42269021Y-46507903D01*
X42290695Y-46560229D01*
X42282631Y-46593822D01*
X42264354Y-46629695D01*
X42249500Y-46723480D01*
X42249501Y-47089425D01*
X42247547Y-47089425D01*
X42231678Y-47137878D01*
X42181153Y-47163472D01*
X42127330Y-47145844D01*
X42123195Y-47142013D01*
X39735128Y-44753946D01*
X39713454Y-44701620D01*
X39721519Y-44668028D01*
X39735646Y-44640304D01*
X39750500Y-44546519D01*
X39750499Y-44183482D01*
X39743266Y-44137813D01*
X39735646Y-44089695D01*
X39735645Y-44089693D01*
X39685851Y-43991968D01*
X39678050Y-43976658D01*
X39588342Y-43886950D01*
X39475304Y-43829354D01*
X39475302Y-43829353D01*
X39475301Y-43829353D01*
X39381519Y-43814500D01*
X37668480Y-43814500D01*
X37574695Y-43829353D01*
X37574693Y-43829354D01*
X37461657Y-43886950D01*
X37371951Y-43976656D01*
X37314353Y-44089698D01*
X37299500Y-44183480D01*
X37299500Y-44546519D01*
X37314353Y-44640304D01*
X37314354Y-44640306D01*
X37359964Y-44729818D01*
X37371950Y-44753342D01*
X37461658Y-44843050D01*
X37574696Y-44900646D01*
X37668481Y-44915500D01*
X38874665Y-44915499D01*
X38926991Y-44937173D01*
X38947992Y-44958174D01*
X38969666Y-45010500D01*
X38947992Y-45062826D01*
X38895666Y-45084500D01*
X37668480Y-45084500D01*
X37574695Y-45099353D01*
X37574693Y-45099354D01*
X37461657Y-45156950D01*
X37371951Y-45246656D01*
X37314353Y-45359698D01*
X37299500Y-45453480D01*
X37299500Y-45816519D01*
X37314353Y-45910304D01*
X37314354Y-45910306D01*
X37367658Y-46014918D01*
X37371950Y-46023342D01*
X37461658Y-46113050D01*
X37574696Y-46170646D01*
X37668481Y-46185500D01*
X39035965Y-46185499D01*
X39088291Y-46207173D01*
X39109292Y-46228174D01*
X39130966Y-46280500D01*
X39109292Y-46332826D01*
X39056966Y-46354500D01*
X37668480Y-46354500D01*
X37574695Y-46369353D01*
X37574693Y-46369354D01*
X37461657Y-46426950D01*
X37371951Y-46516656D01*
X37314353Y-46629698D01*
X37299500Y-46723480D01*
X37299500Y-47086519D01*
X37314353Y-47180304D01*
X37314354Y-47180306D01*
X37351079Y-47252381D01*
X37371950Y-47293342D01*
X37461658Y-47383050D01*
X37574696Y-47440646D01*
X37668481Y-47455500D01*
X39381518Y-47455499D01*
X39381519Y-47455499D01*
X39475304Y-47440646D01*
X39475306Y-47440645D01*
X39477419Y-47439568D01*
X39588342Y-47383050D01*
X39678050Y-47293342D01*
X39735646Y-47180304D01*
X39750500Y-47086519D01*
X39750499Y-47048033D01*
X39772172Y-46995708D01*
X39824497Y-46974033D01*
X39876824Y-46995706D01*
X41029292Y-48148174D01*
X41050966Y-48200500D01*
X41029292Y-48252826D01*
X40976966Y-48274500D01*
X40920734Y-48274500D01*
X40890301Y-48277354D01*
X40890299Y-48277354D01*
X40890295Y-48277355D01*
X40762118Y-48322206D01*
X40762116Y-48322207D01*
X40652853Y-48402846D01*
X40652846Y-48402853D01*
X40572207Y-48512116D01*
X40572206Y-48512118D01*
X40527355Y-48640295D01*
X40526395Y-48644693D01*
X40524373Y-48644251D01*
X40501062Y-48688320D01*
X40446934Y-48704994D01*
X40434718Y-48702798D01*
X40367177Y-48684700D01*
X40367175Y-48684700D01*
X40222225Y-48684700D01*
X40222223Y-48684700D01*
X40082218Y-48722214D01*
X40082213Y-48722216D01*
X39956684Y-48794691D01*
X39854191Y-48897184D01*
X39781716Y-49022713D01*
X39781714Y-49022718D01*
X39744200Y-49162722D01*
X39744200Y-49307677D01*
X39781714Y-49447681D01*
X39781716Y-49447686D01*
X39822811Y-49518863D01*
X39854191Y-49573215D01*
X39956685Y-49675709D01*
X39976613Y-49687214D01*
X40011091Y-49732148D01*
X40003698Y-49788301D01*
X39958764Y-49822779D01*
X39939612Y-49825300D01*
X33146634Y-49825300D01*
X33094308Y-49803626D01*
X32892508Y-49601826D01*
X32870834Y-49549500D01*
X32892508Y-49497174D01*
X32944834Y-49475500D01*
X32965768Y-49475500D01*
X32965768Y-49475499D01*
X33112135Y-49436281D01*
X33243365Y-49360515D01*
X33350515Y-49253365D01*
X33426281Y-49122135D01*
X33465499Y-48975768D01*
X33465500Y-48975768D01*
X33465500Y-48824232D01*
X33465499Y-48824231D01*
X33460044Y-48803874D01*
X33426281Y-48677865D01*
X33350515Y-48546635D01*
X33243365Y-48439485D01*
X33227803Y-48430500D01*
X33112139Y-48363721D01*
X33112130Y-48363717D01*
X33043059Y-48345210D01*
X32998126Y-48310732D01*
X32989634Y-48259297D01*
X33000500Y-48204674D01*
X33000500Y-46705326D01*
X32985966Y-46632260D01*
X32930601Y-46549399D01*
X32925396Y-46545921D01*
X32847741Y-46494034D01*
X32845861Y-46493256D01*
X32844422Y-46491817D01*
X32841680Y-46489985D01*
X32842044Y-46489439D01*
X32805813Y-46453206D01*
X32800813Y-46434538D01*
X32800500Y-46432164D01*
X32800500Y-46432156D01*
X32776614Y-46343012D01*
X32768678Y-46329266D01*
X32730470Y-46263088D01*
X31594812Y-45127430D01*
X31514889Y-45081286D01*
X31514884Y-45081284D01*
X31425746Y-45057400D01*
X31425744Y-45057400D01*
X28574256Y-45057400D01*
X28574254Y-45057400D01*
X28485115Y-45081284D01*
X28485110Y-45081286D01*
X28405187Y-45127430D01*
X27602326Y-45930292D01*
X27550000Y-45951966D01*
X27497674Y-45930292D01*
X27102274Y-45534892D01*
X27080600Y-45482566D01*
X27080600Y-43122122D01*
X28225700Y-43122122D01*
X28225700Y-43267077D01*
X28263214Y-43407081D01*
X28263216Y-43407086D01*
X28316406Y-43499213D01*
X28335691Y-43532615D01*
X28438185Y-43635109D01*
X28563715Y-43707584D01*
X28563716Y-43707584D01*
X28563718Y-43707585D01*
X28633720Y-43726342D01*
X28703722Y-43745099D01*
X28703723Y-43745100D01*
X28703725Y-43745100D01*
X28848677Y-43745100D01*
X28848677Y-43745099D01*
X28988685Y-43707584D01*
X29114215Y-43635109D01*
X29216709Y-43532615D01*
X29289184Y-43407085D01*
X29326699Y-43267077D01*
X29326700Y-43267077D01*
X29326700Y-43122123D01*
X29326699Y-43122122D01*
X29289185Y-42982118D01*
X29289183Y-42982113D01*
X29252627Y-42918796D01*
X29216709Y-42856585D01*
X29114215Y-42754091D01*
X28988686Y-42681616D01*
X28988681Y-42681614D01*
X28848677Y-42644100D01*
X28848675Y-42644100D01*
X28703725Y-42644100D01*
X28703723Y-42644100D01*
X28563718Y-42681614D01*
X28563713Y-42681616D01*
X28438184Y-42754091D01*
X28335691Y-42856584D01*
X28263216Y-42982113D01*
X28263214Y-42982118D01*
X28225700Y-43122122D01*
X27080600Y-43122122D01*
X27080600Y-31278820D01*
X27102274Y-31226494D01*
X27154600Y-31204820D01*
X27206926Y-31226494D01*
X27216124Y-31237702D01*
X27261698Y-31305908D01*
X27394092Y-31438302D01*
X27549769Y-31542322D01*
X27549774Y-31542324D01*
X27549773Y-31542324D01*
X27603818Y-31564710D01*
X27643867Y-31604758D01*
X27649500Y-31633077D01*
X27649500Y-32616146D01*
X27658437Y-32649498D01*
X27658437Y-32649499D01*
X27673384Y-32705283D01*
X27673386Y-32705288D01*
X27719530Y-32785212D01*
X37454137Y-42519819D01*
X37475811Y-42572145D01*
X37454137Y-42624471D01*
X37371951Y-42706656D01*
X37314353Y-42819698D01*
X37299500Y-42913480D01*
X37299500Y-43276519D01*
X37314353Y-43370304D01*
X37314354Y-43370306D01*
X37346307Y-43433015D01*
X37371950Y-43483342D01*
X37461658Y-43573050D01*
X37574696Y-43630646D01*
X37668481Y-43645500D01*
X39381518Y-43645499D01*
X39381519Y-43645499D01*
X39475304Y-43630646D01*
X39475306Y-43630645D01*
X39477419Y-43629568D01*
X39588342Y-43573050D01*
X39678050Y-43483342D01*
X39735646Y-43370304D01*
X39750500Y-43276519D01*
X39750499Y-42913482D01*
X39747991Y-42897648D01*
X39735646Y-42819695D01*
X39735645Y-42819693D01*
X39683488Y-42717331D01*
X39678050Y-42706658D01*
X39612783Y-42641391D01*
X39591109Y-42589065D01*
X39612781Y-42536742D01*
X39616909Y-42532615D01*
X39689384Y-42407085D01*
X39726899Y-42267077D01*
X39726900Y-42267077D01*
X39726900Y-42122123D01*
X39726899Y-42122122D01*
X39725469Y-42116787D01*
X39708142Y-42052120D01*
X39689385Y-41982118D01*
X39689383Y-41982113D01*
X39616908Y-41856584D01*
X39514415Y-41754091D01*
X39388886Y-41681616D01*
X39388881Y-41681614D01*
X39248877Y-41644100D01*
X39248875Y-41644100D01*
X39103925Y-41644100D01*
X39103923Y-41644100D01*
X38963918Y-41681614D01*
X38963913Y-41681616D01*
X38838384Y-41754091D01*
X38735891Y-41856584D01*
X38663416Y-41982113D01*
X38663414Y-41982118D01*
X38625900Y-42122122D01*
X38625900Y-42267077D01*
X38663414Y-42407081D01*
X38663417Y-42407089D01*
X38678666Y-42433499D01*
X38681187Y-42452651D01*
X38688581Y-42470500D01*
X38684754Y-42479737D01*
X38686060Y-42489652D01*
X38674299Y-42504978D01*
X38666907Y-42522826D01*
X38657668Y-42526652D01*
X38651582Y-42534585D01*
X38614581Y-42544500D01*
X38500834Y-42544500D01*
X38448508Y-42522826D01*
X34929680Y-39003998D01*
X34908006Y-38951672D01*
X34929680Y-38899346D01*
X34945004Y-38887587D01*
X34998315Y-38856809D01*
X35100809Y-38754315D01*
X35173284Y-38628785D01*
X35210799Y-38488777D01*
X35210800Y-38488777D01*
X35210800Y-38343823D01*
X35210799Y-38343822D01*
X35208950Y-38336923D01*
X35173284Y-38203815D01*
X35100809Y-38078285D01*
X34998315Y-37975791D01*
X34982534Y-37966680D01*
X34872786Y-37903316D01*
X34872781Y-37903314D01*
X34732777Y-37865800D01*
X34732775Y-37865800D01*
X34587825Y-37865800D01*
X34587823Y-37865800D01*
X34447818Y-37903314D01*
X34447813Y-37903316D01*
X34322284Y-37975791D01*
X34219792Y-38078283D01*
X34189013Y-38131594D01*
X34144079Y-38166072D01*
X34087926Y-38158679D01*
X34072601Y-38146919D01*
X28372174Y-32446492D01*
X28350500Y-32394166D01*
X28350500Y-31633077D01*
X28372174Y-31580751D01*
X28396182Y-31564710D01*
X28450226Y-31542324D01*
X28450225Y-31542324D01*
X28450231Y-31542322D01*
X28605908Y-31438302D01*
X28738302Y-31305908D01*
X28842322Y-31150231D01*
X28913973Y-30977251D01*
X28950500Y-30793616D01*
X28950500Y-30606384D01*
X28913973Y-30422749D01*
X28842322Y-30249769D01*
X28738302Y-30094092D01*
X28605908Y-29961698D01*
X28450231Y-29857678D01*
X28450228Y-29857676D01*
X28450227Y-29857676D01*
X28277251Y-29786027D01*
X28277244Y-29786025D01*
X28138902Y-29758507D01*
X28093616Y-29749500D01*
X27906384Y-29749500D01*
X27870056Y-29756725D01*
X27722755Y-29786025D01*
X27722748Y-29786027D01*
X27549772Y-29857676D01*
X27394092Y-29961697D01*
X27394091Y-29961699D01*
X27261699Y-30094091D01*
X27261697Y-30094092D01*
X27216129Y-30162291D01*
X27169037Y-30193757D01*
X27113488Y-30182708D01*
X27082022Y-30135616D01*
X27080600Y-30121179D01*
X27080600Y-26773154D01*
X27080599Y-26773153D01*
X27056715Y-26684015D01*
X27056713Y-26684010D01*
X27010571Y-26604091D01*
X27010570Y-26604090D01*
X27010569Y-26604088D01*
X26945312Y-26538831D01*
X23124834Y-22718353D01*
X19301867Y-18895385D01*
X19280193Y-18843059D01*
X19301867Y-18790733D01*
X19339757Y-18770480D01*
X19343497Y-18769737D01*
X19489179Y-18709394D01*
X19620289Y-18621789D01*
X19731789Y-18510289D01*
X19819394Y-18379179D01*
X19879737Y-18233497D01*
X19910500Y-18078842D01*
X19910500Y-17921158D01*
X19879737Y-17766503D01*
X19848049Y-17690000D01*
X19819396Y-17620825D01*
X19819395Y-17620823D01*
X19819394Y-17620821D01*
X19731789Y-17489711D01*
X19620289Y-17378211D01*
X19489179Y-17290606D01*
X19489175Y-17290604D01*
X19489173Y-17290603D01*
X19489174Y-17290603D01*
X19343501Y-17230264D01*
X19343491Y-17230261D01*
X19211309Y-17203969D01*
X19194873Y-17200699D01*
X19147782Y-17169234D01*
X19136733Y-17113685D01*
X19156983Y-17075798D01*
X21481370Y-14751412D01*
X21527514Y-14671488D01*
X21533350Y-14649707D01*
X21551400Y-14582344D01*
X21551400Y-12262756D01*
X21551400Y-12262754D01*
X21551399Y-12262753D01*
X21545876Y-12242142D01*
X21539119Y-12216923D01*
X21527515Y-12173615D01*
X21527514Y-12173614D01*
X21527514Y-12173612D01*
X21514033Y-12150263D01*
X21503443Y-12131921D01*
X21481370Y-12093688D01*
X20627712Y-11240030D01*
X20547789Y-11193886D01*
X20547784Y-11193884D01*
X20458646Y-11170000D01*
X20458644Y-11170000D01*
X19612488Y-11170000D01*
X19560162Y-11148326D01*
X19538488Y-11096000D01*
X19560162Y-11043674D01*
X19571371Y-11034474D01*
X19620289Y-11001789D01*
X19731789Y-10890289D01*
X19819394Y-10759179D01*
X19879737Y-10613497D01*
X19910500Y-10458842D01*
X19910500Y-10301158D01*
X19879737Y-10146503D01*
X19819394Y-10000821D01*
X19731789Y-9869711D01*
X19620289Y-9758211D01*
X19489179Y-9670606D01*
X19489175Y-9670604D01*
X19489173Y-9670603D01*
X19489174Y-9670603D01*
X19343501Y-9610264D01*
X19343491Y-9610261D01*
X19239925Y-9589661D01*
X19188842Y-9579500D01*
X19031158Y-9579500D01*
X18987315Y-9588220D01*
X18876508Y-9610261D01*
X18876498Y-9610264D01*
X18730825Y-9670603D01*
X18599711Y-9758210D01*
X18599710Y-9758212D01*
X18488212Y-9869710D01*
X18488210Y-9869711D01*
X18400603Y-10000825D01*
X18340264Y-10146498D01*
X18340261Y-10146508D01*
X18320631Y-10245197D01*
X18309500Y-10301158D01*
X18309500Y-10458842D01*
X18313734Y-10480127D01*
X18340261Y-10613491D01*
X18340264Y-10613501D01*
X18400603Y-10759174D01*
X18400605Y-10759177D01*
X18400606Y-10759179D01*
X18488211Y-10890289D01*
X18599711Y-11001789D01*
X18648624Y-11034472D01*
X18680090Y-11081563D01*
X18669041Y-11137112D01*
X18621949Y-11168578D01*
X18607512Y-11170000D01*
X15021254Y-11170000D01*
X14932115Y-11193884D01*
X14932110Y-11193886D01*
X14852187Y-11240030D01*
X13099392Y-12992826D01*
X13047066Y-13014500D01*
X12742679Y-13014500D01*
X12690353Y-12992826D01*
X12681835Y-12981104D01*
X12681472Y-12981368D01*
X12678050Y-12976658D01*
X12588343Y-12886951D01*
X12588342Y-12886950D01*
X12475304Y-12829354D01*
X12475302Y-12829353D01*
X12475301Y-12829353D01*
X12381519Y-12814500D01*
X10668480Y-12814500D01*
X10574695Y-12829353D01*
X10574693Y-12829354D01*
X10461657Y-12886950D01*
X10371951Y-12976656D01*
X10314353Y-13089698D01*
X10299500Y-13183480D01*
X10299500Y-13546519D01*
X10314353Y-13640304D01*
X10314354Y-13640306D01*
X10340498Y-13691615D01*
X10371950Y-13753342D01*
X10461658Y-13843050D01*
X10574696Y-13900646D01*
X10668481Y-13915500D01*
X12381518Y-13915499D01*
X12381519Y-13915499D01*
X12475304Y-13900646D01*
X12475306Y-13900645D01*
X12488683Y-13893829D01*
X12588342Y-13843050D01*
X12678050Y-13753342D01*
X12678051Y-13753338D01*
X12681472Y-13748632D01*
X12683516Y-13750117D01*
X12719822Y-13719119D01*
X12742679Y-13715500D01*
X13269046Y-13715500D01*
X13269046Y-13715499D01*
X13358188Y-13691614D01*
X13361439Y-13689737D01*
X13438112Y-13645470D01*
X15123175Y-11960406D01*
X15175500Y-11938733D01*
X15227826Y-11960407D01*
X15249500Y-12012733D01*
X15249500Y-12276519D01*
X15264353Y-12370304D01*
X15292486Y-12425518D01*
X15296929Y-12481981D01*
X15278877Y-12511439D01*
X12892492Y-14897826D01*
X12840166Y-14919500D01*
X12820832Y-14919500D01*
X12768506Y-14897826D01*
X12746832Y-14845500D01*
X12747742Y-14833930D01*
X12750500Y-14816519D01*
X12750499Y-14453482D01*
X12748049Y-14438014D01*
X12735646Y-14359695D01*
X12735645Y-14359693D01*
X12678049Y-14246657D01*
X12588343Y-14156951D01*
X12588342Y-14156950D01*
X12475304Y-14099354D01*
X12475302Y-14099353D01*
X12475301Y-14099353D01*
X12381519Y-14084500D01*
X10668480Y-14084500D01*
X10574695Y-14099353D01*
X10574693Y-14099354D01*
X10461657Y-14156950D01*
X10371951Y-14246656D01*
X10314353Y-14359698D01*
X10310023Y-14387037D01*
X10280429Y-14435327D01*
X10225356Y-14448548D01*
X10199936Y-14439546D01*
X10197288Y-14438017D01*
X10197281Y-14438014D01*
X10057277Y-14400500D01*
X10057275Y-14400500D01*
X10024500Y-14400500D01*
X9972174Y-14378826D01*
X9950500Y-14326500D01*
X9950500Y-13125326D01*
X9950499Y-11913480D01*
X10299500Y-11913480D01*
X10299500Y-12276519D01*
X10314353Y-12370304D01*
X10314354Y-12370306D01*
X10357041Y-12454082D01*
X10371950Y-12483342D01*
X10461658Y-12573050D01*
X10574696Y-12630646D01*
X10668481Y-12645500D01*
X12381518Y-12645499D01*
X12381519Y-12645499D01*
X12475304Y-12630646D01*
X12475306Y-12630645D01*
X12477419Y-12629568D01*
X12588342Y-12573050D01*
X12678050Y-12483342D01*
X12735646Y-12370304D01*
X12750500Y-12276519D01*
X12750499Y-11913482D01*
X12750038Y-11910574D01*
X12735646Y-11819695D01*
X12735645Y-11819693D01*
X12680204Y-11710886D01*
X12678050Y-11706658D01*
X12588342Y-11616950D01*
X12475304Y-11559354D01*
X12475302Y-11559353D01*
X12475301Y-11559353D01*
X12381519Y-11544500D01*
X10668480Y-11544500D01*
X10574695Y-11559353D01*
X10574693Y-11559354D01*
X10461657Y-11616950D01*
X10371951Y-11706656D01*
X10314353Y-11819698D01*
X10299500Y-11913480D01*
X9950499Y-11913480D01*
X9950499Y-11502128D01*
X9944091Y-11442517D01*
X9937902Y-11425923D01*
X9893797Y-11307670D01*
X9893796Y-11307669D01*
X9844861Y-11242301D01*
X9807546Y-11192454D01*
X9692331Y-11106204D01*
X9692330Y-11106203D01*
X9692329Y-11106202D01*
X9557487Y-11055910D01*
X9557484Y-11055909D01*
X9557483Y-11055909D01*
X9497873Y-11049500D01*
X8777126Y-11049500D01*
X8717514Y-11055909D01*
X8582670Y-11106202D01*
X8582669Y-11106203D01*
X8467454Y-11192454D01*
X8381203Y-11307669D01*
X8381202Y-11307670D01*
X8330910Y-11442512D01*
X8330909Y-11442517D01*
X8324500Y-11502126D01*
X8324500Y-14497873D01*
X8330909Y-14557485D01*
X8381202Y-14692329D01*
X8381203Y-14692330D01*
X8381204Y-14692331D01*
X8467454Y-14807546D01*
X8582669Y-14893796D01*
X8582670Y-14893797D01*
X8657923Y-14921864D01*
X8717517Y-14944091D01*
X8777127Y-14950500D01*
X9360300Y-14950499D01*
X9412626Y-14972173D01*
X9431976Y-15018890D01*
X9433667Y-15018668D01*
X9434300Y-15023477D01*
X9471814Y-15163481D01*
X9471816Y-15163486D01*
X9508202Y-15226508D01*
X9544291Y-15289015D01*
X9646785Y-15391509D01*
X9752016Y-15452264D01*
X9786493Y-15497196D01*
X9779101Y-15553349D01*
X9767341Y-15568675D01*
X8507030Y-16828987D01*
X8477052Y-16880912D01*
X8460886Y-16908910D01*
X8460884Y-16908915D01*
X8437000Y-16998053D01*
X8437000Y-21240683D01*
X8415326Y-21293009D01*
X8388861Y-21310017D01*
X8341550Y-21327663D01*
X8233528Y-21408528D01*
X8152663Y-21516550D01*
X8152662Y-21516551D01*
X8105510Y-21642973D01*
X8105509Y-21642978D01*
X8099500Y-21698869D01*
X7949487Y-21698869D01*
X7939988Y-21619773D01*
X7887676Y-21487117D01*
X7801509Y-21373490D01*
X7687882Y-21287323D01*
X7555226Y-21235011D01*
X7471863Y-21225000D01*
X7412500Y-21225000D01*
X7412500Y-21800000D01*
X7012500Y-21800000D01*
X7012500Y-21225000D01*
X6953137Y-21225000D01*
X6869773Y-21235011D01*
X6737117Y-21287323D01*
X6623490Y-21373490D01*
X6537323Y-21487117D01*
X6485011Y-21619773D01*
X6475000Y-21703136D01*
X6190500Y-21703136D01*
X6190500Y-19859878D01*
X6212174Y-19807552D01*
X6241630Y-19789501D01*
X6358412Y-19751557D01*
X6547816Y-19655051D01*
X6719792Y-19530104D01*
X6870104Y-19379792D01*
X6995051Y-19207816D01*
X7091557Y-19018412D01*
X7155278Y-18822301D01*
X7157243Y-18816253D01*
X7157243Y-18816250D01*
X7157246Y-18816243D01*
X7190500Y-18606287D01*
X7190500Y-18393713D01*
X7188197Y-18379174D01*
X7173873Y-18288735D01*
X7157246Y-18183757D01*
X7157244Y-18183752D01*
X7157243Y-18183746D01*
X7091559Y-17981593D01*
X7091557Y-17981590D01*
X7091557Y-17981588D01*
X6996606Y-17795235D01*
X6995051Y-17792183D01*
X6900237Y-17661683D01*
X6870104Y-17620208D01*
X6719792Y-17469896D01*
X6653146Y-17421475D01*
X6547816Y-17344948D01*
X6358406Y-17248440D01*
X6156253Y-17182756D01*
X6156240Y-17182753D01*
X5946289Y-17149500D01*
X5946287Y-17149500D01*
X5733713Y-17149500D01*
X5733711Y-17149500D01*
X5523759Y-17182753D01*
X5523746Y-17182756D01*
X5321593Y-17248440D01*
X5132183Y-17344948D01*
X4960212Y-17469893D01*
X4960208Y-17469896D01*
X4809896Y-17620208D01*
X4809893Y-17620211D01*
X4809893Y-17620212D01*
X4684948Y-17792183D01*
X4588440Y-17981593D01*
X4522756Y-18183746D01*
X4522753Y-18183759D01*
X4489500Y-18393711D01*
X4489500Y-18606288D01*
X4522753Y-18816240D01*
X4522756Y-18816253D01*
X4588440Y-19018406D01*
X4684948Y-19207816D01*
X4761475Y-19313146D01*
X4809896Y-19379792D01*
X4960208Y-19530104D01*
X5045854Y-19592329D01*
X5132183Y-19655051D01*
X5168288Y-19673447D01*
X5321588Y-19751557D01*
X5321590Y-19751557D01*
X5321593Y-19751559D01*
X5342113Y-19758226D01*
X5438368Y-19789501D01*
X5481434Y-19826282D01*
X5489500Y-19859878D01*
X5489500Y-24286146D01*
X5513384Y-24375284D01*
X5513386Y-24375289D01*
X5559530Y-24455212D01*
X7673687Y-26569369D01*
X7695361Y-26621695D01*
X7687296Y-26655290D01*
X7634817Y-26758285D01*
X7619500Y-26854995D01*
X7619500Y-27245002D01*
X7634818Y-27341715D01*
X7694211Y-27458281D01*
X7708604Y-27472674D01*
X7730278Y-27525000D01*
X7708604Y-27577326D01*
X7694211Y-27591718D01*
X7634817Y-27708285D01*
X7619500Y-27804995D01*
X7619500Y-28022765D01*
X7597826Y-28075091D01*
X7337230Y-28335687D01*
X7309376Y-28383933D01*
X7291086Y-28415610D01*
X7291084Y-28415615D01*
X7267200Y-28504753D01*
X7267200Y-29395243D01*
X7290220Y-29481157D01*
X7290219Y-29481157D01*
X7291082Y-29484378D01*
X7291086Y-29484388D01*
X7337230Y-29564312D01*
X7580688Y-29807770D01*
X7660612Y-29853914D01*
X7660613Y-29853914D01*
X7660615Y-29853915D01*
X7674652Y-29857676D01*
X7749753Y-29877799D01*
X7749754Y-29877800D01*
X7749756Y-29877800D01*
X9550246Y-29877800D01*
X9550246Y-29877799D01*
X9639388Y-29853914D01*
X9719312Y-29807770D01*
X9830508Y-29696574D01*
X9882834Y-29674900D01*
X9979477Y-29674900D01*
X9979477Y-29674899D01*
X10119485Y-29637384D01*
X10245015Y-29564909D01*
X10347509Y-29462415D01*
X10354499Y-29450306D01*
X10399431Y-29415829D01*
X10455584Y-29423220D01*
X10470911Y-29434981D01*
X10486719Y-29450789D01*
X10603285Y-29510182D01*
X10699997Y-29525500D01*
X10875500Y-29525499D01*
X10927826Y-29547173D01*
X10949500Y-29599499D01*
X10949500Y-32552729D01*
X10976791Y-32654582D01*
X10976792Y-32654585D01*
X10976793Y-32654587D01*
X11029520Y-32745913D01*
X11104087Y-32820480D01*
X11195413Y-32873207D01*
X11297270Y-32900499D01*
X11297271Y-32900500D01*
X11297273Y-32900500D01*
X11402727Y-32900500D01*
X15725500Y-32900500D01*
X15777826Y-32922174D01*
X15799500Y-32974500D01*
X15799500Y-35082286D01*
X15777826Y-35134612D01*
X15725500Y-35156286D01*
X15688501Y-35146372D01*
X15654595Y-35126796D01*
X15654582Y-35126791D01*
X15552729Y-35099500D01*
X15552727Y-35099500D01*
X14949500Y-35099500D01*
X14897174Y-35077826D01*
X14875500Y-35025501D01*
X14875499Y-34900822D01*
X14869499Y-34855241D01*
X14869499Y-34855240D01*
X14822850Y-34755201D01*
X14744799Y-34677150D01*
X14644760Y-34630501D01*
X14644758Y-34630500D01*
X14611179Y-34626079D01*
X14599179Y-34624500D01*
X14599177Y-34624500D01*
X14363334Y-34624500D01*
X14311008Y-34602826D01*
X14176012Y-34467830D01*
X14096089Y-34421686D01*
X14096084Y-34421684D01*
X14006946Y-34397800D01*
X14006944Y-34397800D01*
X13650449Y-34397800D01*
X13598123Y-34376126D01*
X13578971Y-34342954D01*
X13577739Y-34338359D01*
X13575584Y-34330315D01*
X13503109Y-34204785D01*
X13400615Y-34102291D01*
X13275086Y-34029816D01*
X13275081Y-34029814D01*
X13135077Y-33992300D01*
X13135075Y-33992300D01*
X12990125Y-33992300D01*
X12990123Y-33992300D01*
X12850118Y-34029814D01*
X12850113Y-34029816D01*
X12724584Y-34102291D01*
X12622091Y-34204784D01*
X12549616Y-34330313D01*
X12549615Y-34330317D01*
X12546229Y-34342954D01*
X12511750Y-34387887D01*
X12474751Y-34397800D01*
X12102279Y-34397800D01*
X12049953Y-34376126D01*
X12030801Y-34342953D01*
X11993385Y-34203318D01*
X11993383Y-34203313D01*
X11956117Y-34138767D01*
X11920909Y-34077785D01*
X11818415Y-33975291D01*
X11692886Y-33902816D01*
X11692881Y-33902814D01*
X11552877Y-33865300D01*
X11552875Y-33865300D01*
X11407925Y-33865300D01*
X11407923Y-33865300D01*
X11267918Y-33902814D01*
X11267913Y-33902816D01*
X11142384Y-33975291D01*
X11039891Y-34077784D01*
X10967416Y-34203313D01*
X10967414Y-34203318D01*
X10929900Y-34343322D01*
X10929900Y-34439966D01*
X10908226Y-34492292D01*
X10767030Y-34633487D01*
X10730138Y-34697385D01*
X10730138Y-34697387D01*
X10720886Y-34713412D01*
X10720886Y-34713413D01*
X10720884Y-34713416D01*
X10697000Y-34802553D01*
X10697000Y-35725446D01*
X10718793Y-35806777D01*
X10718793Y-35806782D01*
X10718795Y-35806782D01*
X10720885Y-35814587D01*
X10767030Y-35894512D01*
X10820192Y-35947674D01*
X10841866Y-36000000D01*
X10820192Y-36052326D01*
X10464430Y-36408087D01*
X10441807Y-36447273D01*
X10418286Y-36488010D01*
X10418284Y-36488015D01*
X10394400Y-36577153D01*
X10394400Y-37878946D01*
X10417909Y-37966680D01*
X10417910Y-37966692D01*
X10417912Y-37966692D01*
X10418285Y-37968087D01*
X10464430Y-38048012D01*
X10889592Y-38473174D01*
X10911266Y-38525500D01*
X10889592Y-38577826D01*
X10837266Y-38599500D01*
X7537000Y-38599500D01*
X7484674Y-38577826D01*
X7463000Y-38525500D01*
X7463000Y-36865666D01*
X7484674Y-36813340D01*
X7504281Y-36800744D01*
X7503805Y-36799872D01*
X7508443Y-36797338D01*
X7508450Y-36797336D01*
X7616472Y-36716472D01*
X7697336Y-36608450D01*
X7700441Y-36600127D01*
X7720405Y-36546600D01*
X7744491Y-36482022D01*
X7750500Y-36426130D01*
X7750500Y-35573870D01*
X7744491Y-35517978D01*
X7718950Y-35449499D01*
X7697337Y-35391551D01*
X7697336Y-35391550D01*
X7684573Y-35374501D01*
X7616472Y-35283528D01*
X7508450Y-35202664D01*
X7508449Y-35202663D01*
X7508448Y-35202662D01*
X7382026Y-35155510D01*
X7382023Y-35155509D01*
X7382022Y-35155509D01*
X7354076Y-35152504D01*
X7326131Y-35149500D01*
X7326130Y-35149500D01*
X6798870Y-35149500D01*
X6798869Y-35149500D01*
X6742978Y-35155509D01*
X6742973Y-35155510D01*
X6616551Y-35202662D01*
X6616550Y-35202663D01*
X6508528Y-35283528D01*
X6427663Y-35391550D01*
X6427662Y-35391551D01*
X6380510Y-35517973D01*
X6380509Y-35517978D01*
X6374500Y-35573869D01*
X6374500Y-36426130D01*
X6380509Y-36482021D01*
X6380510Y-36482026D01*
X6427662Y-36608448D01*
X6427663Y-36608449D01*
X6444170Y-36630500D01*
X6508528Y-36716472D01*
X6616550Y-36797336D01*
X6616553Y-36797337D01*
X6621195Y-36799872D01*
X6620001Y-36802058D01*
X6655302Y-36834901D01*
X6662000Y-36865666D01*
X6662000Y-39052729D01*
X6689291Y-39154582D01*
X6689292Y-39154585D01*
X6689293Y-39154587D01*
X6742020Y-39245913D01*
X6816587Y-39320480D01*
X6907913Y-39373207D01*
X7009770Y-39400499D01*
X7009771Y-39400500D01*
X7009773Y-39400500D01*
X15002727Y-39400500D01*
X15006342Y-39399531D01*
X15062495Y-39406919D01*
X15096977Y-39451850D01*
X15099500Y-39471008D01*
X15099500Y-40025500D01*
X15077826Y-40077826D01*
X15025500Y-40099500D01*
X2474500Y-40099500D01*
X2422174Y-40077826D01*
X2400500Y-40025500D01*
X2400500Y-33474500D01*
X2422174Y-33422174D01*
X2474500Y-33400500D01*
X4463000Y-33400500D01*
X4515326Y-33422174D01*
X4537000Y-33474500D01*
X4537000Y-35134332D01*
X4515326Y-35186658D01*
X4495720Y-35199260D01*
X4496194Y-35200128D01*
X4491550Y-35202663D01*
X4383528Y-35283528D01*
X4302663Y-35391550D01*
X4302662Y-35391551D01*
X4255510Y-35517973D01*
X4255509Y-35517978D01*
X4249500Y-35573869D01*
X4249500Y-36426130D01*
X4255509Y-36482021D01*
X4255510Y-36482026D01*
X4302662Y-36608448D01*
X4302663Y-36608449D01*
X4319170Y-36630500D01*
X4383528Y-36716472D01*
X4491550Y-36797336D01*
X4491551Y-36797337D01*
X4592266Y-36834901D01*
X4617978Y-36844491D01*
X4668443Y-36849916D01*
X4673869Y-36850500D01*
X4673870Y-36850500D01*
X5201131Y-36850500D01*
X5206076Y-36849968D01*
X5257022Y-36844491D01*
X5376651Y-36799872D01*
X5383448Y-36797337D01*
X5383448Y-36797336D01*
X5383450Y-36797336D01*
X5491472Y-36716472D01*
X5572336Y-36608450D01*
X5575441Y-36600127D01*
X5595405Y-36546600D01*
X5619491Y-36482022D01*
X5625500Y-36426130D01*
X5625500Y-35573870D01*
X5619491Y-35517978D01*
X5593950Y-35449499D01*
X5572337Y-35391551D01*
X5572336Y-35391550D01*
X5559573Y-35374501D01*
X5491472Y-35283528D01*
X5383450Y-35202664D01*
X5383449Y-35202663D01*
X5378806Y-35200128D01*
X5379994Y-35197951D01*
X5344679Y-35165054D01*
X5338000Y-35134332D01*
X5338000Y-32947271D01*
X5337999Y-32947270D01*
X5318154Y-32873208D01*
X5310707Y-32845413D01*
X5257980Y-32754087D01*
X5183413Y-32679520D01*
X5131415Y-32649499D01*
X5092091Y-32626795D01*
X5092082Y-32626791D01*
X4990229Y-32599500D01*
X4990227Y-32599500D01*
X2052727Y-32599500D01*
X1947273Y-32599500D01*
X1947271Y-32599500D01*
X1845417Y-32626791D01*
X1845408Y-32626795D01*
X1754086Y-32679520D01*
X1679520Y-32754086D01*
X1626795Y-32845408D01*
X1626791Y-32845417D01*
X1599500Y-32947270D01*
X500500Y-32947270D01*
X500500Y-11502126D01*
X4049500Y-11502126D01*
X4049500Y-14497873D01*
X4055909Y-14557485D01*
X4106202Y-14692329D01*
X4106203Y-14692330D01*
X4106204Y-14692331D01*
X4192454Y-14807546D01*
X4307669Y-14893796D01*
X4307670Y-14893797D01*
X4382923Y-14921864D01*
X4442517Y-14944091D01*
X4502127Y-14950500D01*
X5222872Y-14950499D01*
X5282483Y-14944091D01*
X5373071Y-14910304D01*
X5417329Y-14893797D01*
X5417329Y-14893796D01*
X5417331Y-14893796D01*
X5532546Y-14807546D01*
X5544230Y-14791937D01*
X5592937Y-14763036D01*
X5640471Y-14772196D01*
X5670413Y-14789483D01*
X5670415Y-14789484D01*
X5670416Y-14789484D01*
X5670418Y-14789485D01*
X5740420Y-14808242D01*
X5810422Y-14826999D01*
X5810423Y-14827000D01*
X5810425Y-14827000D01*
X5955377Y-14827000D01*
X5955377Y-14826999D01*
X6095385Y-14789484D01*
X6220915Y-14717009D01*
X6323409Y-14614515D01*
X6395884Y-14488985D01*
X6433399Y-14348977D01*
X6433400Y-14348977D01*
X6433400Y-14204023D01*
X6433399Y-14204022D01*
X6430851Y-14194514D01*
X6395884Y-14064015D01*
X6323409Y-13938485D01*
X6220915Y-13835991D01*
X6151585Y-13795963D01*
X6095386Y-13763516D01*
X6095381Y-13763514D01*
X5955377Y-13726000D01*
X5955375Y-13726000D01*
X5858734Y-13726000D01*
X5806408Y-13704326D01*
X5697173Y-13595091D01*
X5675499Y-13542765D01*
X5675499Y-11502126D01*
X5673955Y-11487766D01*
X5669091Y-11442517D01*
X5662902Y-11425923D01*
X5618797Y-11307670D01*
X5618796Y-11307669D01*
X5569861Y-11242301D01*
X5532546Y-11192454D01*
X5417331Y-11106204D01*
X5417330Y-11106203D01*
X5417329Y-11106202D01*
X5282487Y-11055910D01*
X5282484Y-11055909D01*
X5282483Y-11055909D01*
X5222873Y-11049500D01*
X4502126Y-11049500D01*
X4442514Y-11055909D01*
X4307670Y-11106202D01*
X4307669Y-11106203D01*
X4192454Y-11192454D01*
X4106203Y-11307669D01*
X4106202Y-11307670D01*
X4055910Y-11442512D01*
X4055909Y-11442517D01*
X4049500Y-11502126D01*
X500500Y-11502126D01*
X500500Y-5897646D01*
X5699500Y-5897646D01*
X5699500Y-6102353D01*
X5731522Y-6304531D01*
X5731525Y-6304544D01*
X5794777Y-6499213D01*
X5887712Y-6681610D01*
X5961406Y-6783040D01*
X6008034Y-6847219D01*
X6152781Y-6991966D01*
X6244695Y-7058745D01*
X6318389Y-7112287D01*
X6406300Y-7157079D01*
X6500781Y-7205220D01*
X6500783Y-7205220D01*
X6500786Y-7205222D01*
X6695455Y-7268474D01*
X6695461Y-7268475D01*
X6695466Y-7268477D01*
X6751519Y-7277355D01*
X6897646Y-7300500D01*
X6897648Y-7300500D01*
X7102354Y-7300500D01*
X7183224Y-7287690D01*
X7304534Y-7268477D01*
X7304541Y-7268474D01*
X7304544Y-7268474D01*
X7499213Y-7205222D01*
X7499213Y-7205221D01*
X7499219Y-7205220D01*
X7681610Y-7112287D01*
X7847219Y-6991966D01*
X7991966Y-6847219D01*
X8112287Y-6681610D01*
X8205220Y-6499219D01*
X8268477Y-6304534D01*
X8300500Y-6102352D01*
X8300500Y-5897648D01*
X8279098Y-5762525D01*
X8279098Y-5762522D01*
X14422600Y-5762522D01*
X14422600Y-5907477D01*
X14460114Y-6047481D01*
X14460116Y-6047486D01*
X14491794Y-6102353D01*
X14532591Y-6173015D01*
X14635085Y-6275509D01*
X14760615Y-6347984D01*
X14760616Y-6347984D01*
X14760618Y-6347985D01*
X14830620Y-6366742D01*
X14900622Y-6385499D01*
X14900623Y-6385500D01*
X14900625Y-6385500D01*
X15045577Y-6385500D01*
X15045577Y-6385499D01*
X15185585Y-6347984D01*
X15311115Y-6275509D01*
X15413609Y-6173015D01*
X15486084Y-6047485D01*
X15523599Y-5907477D01*
X15523600Y-5907477D01*
X15523600Y-5897646D01*
X46699500Y-5897646D01*
X46699500Y-6102353D01*
X46731522Y-6304531D01*
X46731525Y-6304544D01*
X46794777Y-6499213D01*
X46887712Y-6681610D01*
X46961406Y-6783040D01*
X47008034Y-6847219D01*
X47152781Y-6991966D01*
X47244695Y-7058745D01*
X47318389Y-7112287D01*
X47406300Y-7157079D01*
X47500781Y-7205220D01*
X47500783Y-7205220D01*
X47500786Y-7205222D01*
X47695455Y-7268474D01*
X47695461Y-7268475D01*
X47695466Y-7268477D01*
X47751519Y-7277355D01*
X47897646Y-7300500D01*
X47897648Y-7300500D01*
X48102354Y-7300500D01*
X48183224Y-7287690D01*
X48304534Y-7268477D01*
X48304541Y-7268474D01*
X48304544Y-7268474D01*
X48499213Y-7205222D01*
X48499213Y-7205221D01*
X48499219Y-7205220D01*
X48681610Y-7112287D01*
X48847219Y-6991966D01*
X48991966Y-6847219D01*
X49112287Y-6681610D01*
X49205220Y-6499219D01*
X49268477Y-6304534D01*
X49300500Y-6102352D01*
X49300500Y-5897648D01*
X49268477Y-5695466D01*
X49268475Y-5695461D01*
X49268474Y-5695455D01*
X49205222Y-5500786D01*
X49205220Y-5500783D01*
X49205220Y-5500781D01*
X49157079Y-5406300D01*
X49112287Y-5318389D01*
X49058745Y-5244695D01*
X48991966Y-5152781D01*
X48847219Y-5008034D01*
X48783040Y-4961406D01*
X48681610Y-4887712D01*
X48499213Y-4794777D01*
X48304544Y-4731525D01*
X48304531Y-4731522D01*
X48102354Y-4699500D01*
X48102352Y-4699500D01*
X47897648Y-4699500D01*
X47897646Y-4699500D01*
X47695468Y-4731522D01*
X47695455Y-4731525D01*
X47500786Y-4794777D01*
X47318389Y-4887712D01*
X47162877Y-5000699D01*
X47152781Y-5008034D01*
X47008034Y-5152781D01*
X47008031Y-5152784D01*
X47008031Y-5152785D01*
X46887712Y-5318389D01*
X46794777Y-5500786D01*
X46731525Y-5695455D01*
X46731522Y-5695468D01*
X46699500Y-5897646D01*
X15523600Y-5897646D01*
X15523600Y-5762523D01*
X15523599Y-5762522D01*
X15486085Y-5622518D01*
X15486083Y-5622513D01*
X15466663Y-5588876D01*
X15413609Y-5496985D01*
X15311115Y-5394491D01*
X15185586Y-5322016D01*
X15185581Y-5322014D01*
X15045577Y-5284500D01*
X15045575Y-5284500D01*
X14900625Y-5284500D01*
X14900623Y-5284500D01*
X14760618Y-5322014D01*
X14760613Y-5322016D01*
X14635084Y-5394491D01*
X14532591Y-5496984D01*
X14460116Y-5622513D01*
X14460114Y-5622518D01*
X14422600Y-5762522D01*
X8279098Y-5762522D01*
X8276733Y-5747597D01*
X8268477Y-5695466D01*
X8268474Y-5695459D01*
X8268474Y-5695455D01*
X8205222Y-5500786D01*
X8205220Y-5500783D01*
X8205220Y-5500781D01*
X8157079Y-5406300D01*
X8112287Y-5318389D01*
X8058745Y-5244695D01*
X7991966Y-5152781D01*
X7847219Y-5008034D01*
X7783040Y-4961406D01*
X7681610Y-4887712D01*
X7499213Y-4794777D01*
X7304544Y-4731525D01*
X7304531Y-4731522D01*
X7102354Y-4699500D01*
X7102352Y-4699500D01*
X6897648Y-4699500D01*
X6897646Y-4699500D01*
X6695468Y-4731522D01*
X6695455Y-4731525D01*
X6500786Y-4794777D01*
X6318389Y-4887712D01*
X6162877Y-5000699D01*
X6152781Y-5008034D01*
X6008034Y-5152781D01*
X6008031Y-5152784D01*
X6008031Y-5152785D01*
X5887712Y-5318389D01*
X5794777Y-5500786D01*
X5731525Y-5695455D01*
X5731522Y-5695468D01*
X5699500Y-5897646D01*
X500500Y-5897646D01*
X500500Y-3822828D01*
X26475000Y-3822828D01*
X26481402Y-3882375D01*
X26481403Y-3882380D01*
X26531645Y-4017087D01*
X26531646Y-4017088D01*
X26617811Y-4132188D01*
X26732911Y-4218353D01*
X26732912Y-4218354D01*
X26867619Y-4268596D01*
X26867624Y-4268597D01*
X26927171Y-4275000D01*
X26975000Y-4275000D01*
X27375000Y-4275000D01*
X27422829Y-4275000D01*
X27482375Y-4268597D01*
X27482380Y-4268596D01*
X27617087Y-4218354D01*
X27617088Y-4218353D01*
X27732188Y-4132188D01*
X27818353Y-4017088D01*
X27818354Y-4017087D01*
X27868596Y-3882380D01*
X27868597Y-3882375D01*
X27875000Y-3822828D01*
X27875000Y-3700000D01*
X27375000Y-3700000D01*
X27375000Y-4275000D01*
X26975000Y-4275000D01*
X26975000Y-3700000D01*
X26475000Y-3700000D01*
X26475000Y-3822828D01*
X500500Y-3822828D01*
X500500Y-3177171D01*
X26475000Y-3177171D01*
X26475000Y-3300000D01*
X26975000Y-3300000D01*
X27375000Y-3300000D01*
X27875000Y-3300000D01*
X27875000Y-3177170D01*
X27874974Y-3176929D01*
X27874975Y-3176922D01*
X27874972Y-3176914D01*
X27874308Y-3170734D01*
X28174500Y-3170734D01*
X28174500Y-3829266D01*
X28177354Y-3859699D01*
X28177354Y-3859701D01*
X28177355Y-3859704D01*
X28222206Y-3987881D01*
X28222207Y-3987883D01*
X28302846Y-4097146D01*
X28302853Y-4097153D01*
X28364306Y-4142507D01*
X28393537Y-4191018D01*
X28384452Y-4239044D01*
X28380717Y-4245513D01*
X28380714Y-4245519D01*
X28343200Y-4385522D01*
X28343200Y-4530477D01*
X28380714Y-4670481D01*
X28380716Y-4670486D01*
X28448688Y-4788215D01*
X28453191Y-4796015D01*
X28555685Y-4898509D01*
X28681215Y-4970984D01*
X28681216Y-4970984D01*
X28681218Y-4970985D01*
X28751220Y-4989742D01*
X28821222Y-5008499D01*
X28821223Y-5008500D01*
X28821225Y-5008500D01*
X28966177Y-5008500D01*
X28966177Y-5008499D01*
X29106185Y-4970984D01*
X29231715Y-4898509D01*
X29334209Y-4796015D01*
X29406684Y-4670485D01*
X29444199Y-4530477D01*
X29444200Y-4530477D01*
X29444200Y-4385523D01*
X29444199Y-4385522D01*
X29406685Y-4245518D01*
X29406683Y-4245513D01*
X29356717Y-4158970D01*
X29349324Y-4102818D01*
X29361263Y-4078027D01*
X29427793Y-3987882D01*
X29472646Y-3859699D01*
X29475500Y-3829266D01*
X29475500Y-3170734D01*
X34174500Y-3170734D01*
X34174500Y-3829266D01*
X34177354Y-3859699D01*
X34177354Y-3859701D01*
X34177355Y-3859704D01*
X34222206Y-3987881D01*
X34222207Y-3987883D01*
X34302845Y-4097144D01*
X34302846Y-4097146D01*
X34302848Y-4097147D01*
X34302850Y-4097150D01*
X34312975Y-4104623D01*
X34342206Y-4153131D01*
X34333120Y-4201160D01*
X34312015Y-4237716D01*
X34274500Y-4377722D01*
X34274500Y-4522677D01*
X34312014Y-4662681D01*
X34312016Y-4662686D01*
X34351761Y-4731525D01*
X34384491Y-4788215D01*
X34486985Y-4890709D01*
X34612515Y-4963184D01*
X34612516Y-4963184D01*
X34612518Y-4963185D01*
X34641628Y-4970985D01*
X34752522Y-5000699D01*
X34752523Y-5000700D01*
X34752525Y-5000700D01*
X34897477Y-5000700D01*
X34897477Y-5000699D01*
X35037485Y-4963184D01*
X35163015Y-4890709D01*
X35265509Y-4788215D01*
X35337984Y-4662685D01*
X35375499Y-4522677D01*
X35375500Y-4522677D01*
X35375500Y-4377723D01*
X35375499Y-4377722D01*
X35337985Y-4237718D01*
X35337982Y-4237711D01*
X35316881Y-4201164D01*
X35309487Y-4145011D01*
X35337025Y-4104621D01*
X35347150Y-4097150D01*
X35427793Y-3987882D01*
X35472646Y-3859699D01*
X35475500Y-3829266D01*
X35475500Y-3170734D01*
X35472646Y-3140301D01*
X35427793Y-3012118D01*
X35427792Y-3012116D01*
X35347153Y-2902853D01*
X35347146Y-2902846D01*
X35237883Y-2822207D01*
X35237881Y-2822206D01*
X35109704Y-2777355D01*
X35109705Y-2777355D01*
X35109700Y-2777354D01*
X35109699Y-2777354D01*
X35079266Y-2774500D01*
X34570734Y-2774500D01*
X34540301Y-2777354D01*
X34540299Y-2777354D01*
X34540295Y-2777355D01*
X34412118Y-2822206D01*
X34412116Y-2822207D01*
X34302853Y-2902846D01*
X34302846Y-2902853D01*
X34222207Y-3012116D01*
X34222206Y-3012118D01*
X34177355Y-3140295D01*
X34177354Y-3140299D01*
X34177354Y-3140301D01*
X34174500Y-3170734D01*
X29475500Y-3170734D01*
X29472646Y-3140301D01*
X29427793Y-3012118D01*
X29427792Y-3012116D01*
X29347153Y-2902853D01*
X29347146Y-2902846D01*
X29237883Y-2822207D01*
X29237881Y-2822206D01*
X29109704Y-2777355D01*
X29109705Y-2777355D01*
X29109700Y-2777354D01*
X29109699Y-2777354D01*
X29079266Y-2774500D01*
X28570734Y-2774500D01*
X28540301Y-2777354D01*
X28540299Y-2777354D01*
X28540295Y-2777355D01*
X28412118Y-2822206D01*
X28412116Y-2822207D01*
X28302853Y-2902846D01*
X28302846Y-2902853D01*
X28222207Y-3012116D01*
X28222206Y-3012118D01*
X28177355Y-3140295D01*
X28177354Y-3140299D01*
X28177354Y-3140301D01*
X28174500Y-3170734D01*
X27874308Y-3170734D01*
X27868597Y-3117624D01*
X27868596Y-3117619D01*
X27818354Y-2982912D01*
X27818353Y-2982911D01*
X27732188Y-2867811D01*
X27617088Y-2781646D01*
X27617087Y-2781645D01*
X27482380Y-2731403D01*
X27482375Y-2731402D01*
X27422829Y-2725000D01*
X27375000Y-2725000D01*
X27375000Y-3300000D01*
X26975000Y-3300000D01*
X26975000Y-2725000D01*
X26927171Y-2725000D01*
X26867624Y-2731402D01*
X26867619Y-2731403D01*
X26732912Y-2781645D01*
X26732911Y-2781646D01*
X26617811Y-2867811D01*
X26531646Y-2982911D01*
X26531645Y-2982912D01*
X26481403Y-3117619D01*
X26481402Y-3117624D01*
X26475000Y-3177171D01*
X500500Y-3177171D01*
X500500Y-574500D01*
X522174Y-522174D01*
X574500Y-500500D01*
X55425500Y-500500D01*
X55477826Y-522174D01*
G37*
%TD.AperFunction*%
%TD*%
M02*
