%TF.GenerationSoftware,KiCad,Pcbnew,9.0.2+dfsg-1*%
%TF.CreationDate,2026-07-13T23:30:14-04:00*%
%TF.ProjectId,autofeeder,6175746f-6665-4656-9465-722e6b696361,rev?*%
%TF.SameCoordinates,Original*%
%TF.FileFunction,Soldermask,Top*%
%TF.FilePolarity,Negative*%
%FSLAX46Y46*%
G04 Gerber Fmt 4.6, Leading zero omitted, Abs format (unit mm)*
G04 Created by KiCad (PCBNEW 9.0.2+dfsg-1) date 2026-07-13 23:30:14*
%MOMM*%
%LPD*%
G01*
G04 APERTURE LIST*
G04 Aperture macros list*
%AMRoundRect*
0 Rectangle with rounded corners*
0 $1 Rounding radius*
0 $2 $3 $4 $5 $6 $7 $8 $9 X,Y pos of 4 corners*
0 Add a 4 corners polygon primitive as box body*
4,1,4,$2,$3,$4,$5,$6,$7,$8,$9,$2,$3,0*
0 Add four circle primitives for the rounded corners*
1,1,$1+$1,$2,$3*
1,1,$1+$1,$4,$5*
1,1,$1+$1,$6,$7*
1,1,$1+$1,$8,$9*
0 Add four rect primitives between the rounded corners*
20,1,$1+$1,$2,$3,$4,$5,0*
20,1,$1+$1,$4,$5,$6,$7,0*
20,1,$1+$1,$6,$7,$8,$9,0*
20,1,$1+$1,$8,$9,$2,$3,0*%
G04 Aperture macros list end*
%ADD10C,2.100000*%
%ADD11R,0.900000X1.000000*%
%ADD12C,1.100000*%
%ADD13R,1.100000X1.100000*%
%ADD14C,1.400000*%
%ADD15RoundRect,0.250000X0.750000X-0.600000X0.750000X0.600000X-0.750000X0.600000X-0.750000X-0.600000X0*%
%ADD16O,2.000000X1.700000*%
%ADD17RoundRect,0.249999X0.850001X0.850001X-0.850001X0.850001X-0.850001X-0.850001X0.850001X-0.850001X0*%
%ADD18C,2.200000*%
%ADD19R,1.700000X1.700000*%
%ADD20C,1.700000*%
%ADD21C,0.650000*%
%ADD22O,1.000000X1.600000*%
%ADD23O,1.000000X2.100000*%
G04 APERTURE END LIST*
D10*
%TO.C,H1*%
X7000000Y-6000000D03*
%TD*%
D11*
%TO.C,SW6_DOWN1*%
X40450000Y-42200000D03*
X44550000Y-42200000D03*
X40450000Y-43800000D03*
X44550000Y-43800000D03*
%TD*%
%TO.C,SW5_UP1*%
X25950000Y-42200000D03*
X30050000Y-42200000D03*
X25950000Y-43800000D03*
X30050000Y-43800000D03*
%TD*%
D10*
%TO.C,H4*%
X48000000Y-43000000D03*
%TD*%
%TO.C,H3*%
X48000000Y-6000000D03*
%TD*%
D12*
%TO.C,DISP1*%
X22920000Y-13000000D03*
D13*
X20380000Y-13000000D03*
D12*
X35620000Y-13000000D03*
X33080000Y-13000000D03*
X30540000Y-13000000D03*
X25460000Y-13000000D03*
X28000000Y-13000000D03*
%TD*%
D11*
%TO.C,SW1_POWER1*%
X9950000Y-5200000D03*
X14050000Y-5200000D03*
X9950000Y-6800000D03*
X14050000Y-6800000D03*
%TD*%
D10*
%TO.C,H2*%
X7000000Y-43000000D03*
%TD*%
D11*
%TO.C,SW4_SETTINGS1*%
X9950000Y-42200000D03*
X14050000Y-42200000D03*
X9950000Y-43800000D03*
X14050000Y-43800000D03*
%TD*%
%TO.C,SW2_TIMER1*%
X25950000Y-5200000D03*
X30050000Y-5200000D03*
X25950000Y-6800000D03*
X30050000Y-6800000D03*
%TD*%
%TO.C,SW3_MANUAL1*%
X40450000Y-5200000D03*
X44550000Y-5200000D03*
X40450000Y-6800000D03*
X44550000Y-6800000D03*
%TD*%
D13*
%TO.C,U1*%
X36890000Y-28160000D03*
D12*
X36890000Y-25620000D03*
X36890000Y-23080000D03*
X36890000Y-20540000D03*
X36890000Y-18000000D03*
X36890000Y-15460000D03*
X36890000Y-12920000D03*
X36890000Y-10380000D03*
X36890000Y-7840000D03*
X19110000Y-28160000D03*
X19110000Y-25620000D03*
X19110000Y-23080000D03*
X19110000Y-20540000D03*
X19110000Y-18000000D03*
X19110000Y-15460000D03*
X19110000Y-12920000D03*
X19110000Y-10380000D03*
X19110000Y-7840000D03*
D14*
X35620000Y-30700000D03*
X33080000Y-30700000D03*
X30540000Y-30700000D03*
X28000000Y-30700000D03*
X25460000Y-30700000D03*
X22920000Y-30700000D03*
X20380000Y-30700000D03*
%TD*%
D15*
%TO.C,J_MOTOR_PWR1*%
X52000000Y-24000000D03*
D16*
X52000000Y-21500000D03*
%TD*%
D17*
%TO.C,D1*%
X16000000Y-18500000D03*
D18*
X5840000Y-18500000D03*
%TD*%
D15*
%TO.C,J_MOTOR_CTRL1*%
X52000000Y-14000000D03*
D16*
X52000000Y-11500000D03*
%TD*%
D15*
%TO.C,J1*%
X52000000Y-34000000D03*
D16*
X52000000Y-31500000D03*
%TD*%
D19*
%TO.C,J4*%
X53000000Y-39000000D03*
D20*
X53000000Y-41540000D03*
X53000000Y-44080000D03*
X53000000Y-46620000D03*
%TD*%
D19*
%TO.C,J_GPS1*%
X44000000Y-14000000D03*
D20*
X44000000Y-16540000D03*
X44000000Y-19080000D03*
X44000000Y-21620000D03*
%TD*%
D21*
%TO.C,J3*%
X32890000Y-48900000D03*
X27110000Y-48900000D03*
D22*
X34320000Y-52550000D03*
D23*
X34320000Y-48370000D03*
D22*
X25680000Y-52550000D03*
D23*
X25680000Y-48370000D03*
%TD*%
D19*
%TO.C,J_RTC1*%
X42000000Y-30000000D03*
D20*
X42000000Y-32540000D03*
X42000000Y-35080000D03*
X42000000Y-37620000D03*
%TD*%
M02*
