M48
; DRILL file {KiCad 9.0.2+dfsg-1} date 2026-06-04T18:47:45-0400
; FORMAT={-:-/ absolute / metric / decimal}
; #@! TF.CreationDate,2026-06-04T18:47:45-04:00
; #@! TF.GenerationSoftware,Kicad,Pcbnew,9.0.2+dfsg-1
; #@! TF.FileFunction,MixedPlating,1,2
FMAT,2
METRIC
; #@! TA.AperFunction,Plated,PTH,ViaDrill
T1C0.300
; #@! TA.AperFunction,Plated,PTH,ComponentDrill
T2C0.600
; #@! TA.AperFunction,Plated,PTH,ComponentDrill
T3C0.800
; #@! TA.AperFunction,Plated,PTH,ComponentDrill
T4C1.000
; #@! TA.AperFunction,Plated,PTH,ComponentDrill
T5C1.100
; #@! TA.AperFunction,NonPlated,NPTH,ComponentDrill
T6C0.650
; #@! TA.AperFunction,NonPlated,NPTH,ComponentDrill
T7C2.100
%
G90
G05
T1
X4.117Y-15.326
X11.05Y-43.835
X12.002Y-38.285
X14.212Y-39.686
X23.335Y-32.184
X24.085Y-31.744
X26.66Y-31.744
X28.0Y-7.589
X29.336Y-41.323
X29.784Y-32.2
X30.54Y-45.087
X30.686Y-49.071
X31.258Y-43.8
X31.444Y-37.816
X31.897Y-28.671
X32.149Y-32.751
X34.574Y-34.189
X34.977Y-31.985
X34.988Y-37.757
X40.578Y-7.878
X46.044Y-32.705
X49.58Y-35.708
T3
X19.11Y-7.84
X19.11Y-10.38
X19.11Y-12.92
X19.11Y-15.46
X19.11Y-18.0
X19.11Y-20.54
X19.11Y-23.08
X19.11Y-25.62
X19.11Y-28.16
X20.38Y-13.0
X22.92Y-13.0
X25.46Y-13.0
X28.0Y-13.0
X30.54Y-13.0
X33.08Y-13.0
X35.62Y-13.0
X36.89Y-7.84
X36.89Y-10.38
X36.89Y-12.92
X36.89Y-15.46
X36.89Y-18.0
X36.89Y-20.54
X36.89Y-23.08
X36.89Y-25.62
X36.89Y-28.16
T4
X20.38Y-30.7
X22.92Y-30.7
X25.46Y-30.7
X28.0Y-30.7
X28.0Y-36.0
X28.0Y-38.54
X28.0Y-41.08
X28.0Y-43.62
X30.54Y-30.7
X33.08Y-30.7
X35.62Y-30.7
X44.0Y-14.0
X44.0Y-16.54
X44.0Y-19.08
X44.0Y-21.62
X52.0Y-13.5
X52.0Y-16.0
X52.0Y-27.5
X52.0Y-30.0
X53.0Y-37.0
X53.0Y-39.54
X53.0Y-42.08
X53.0Y-44.62
T5
X5.84Y-18.5
X16.0Y-18.5
T6
X27.11Y-48.9
X32.89Y-48.9
T7
X7.0Y-6.0
X7.0Y-43.0
X48.0Y-6.0
X48.0Y-43.0
T2
X25.68Y-48.92G85X25.68Y-47.82
G05
X25.68Y-52.85G85X25.68Y-52.25
G05
X34.32Y-48.92G85X34.32Y-47.82
G05
X34.32Y-52.85G85X34.32Y-52.25
G05
M30
