%TF.GenerationSoftware,KiCad,Pcbnew,9.0.2+dfsg-1*%
%TF.CreationDate,2026-07-13T18:07:25-04:00*%
%TF.ProjectId,autofeeder,6175746f-6665-4656-9465-722e6b696361,rev?*%
%TF.SameCoordinates,Original*%
%TF.FileFunction,Copper,L3,Inr*%
%TF.FilePolarity,Positive*%
%FSLAX46Y46*%
G04 Gerber Fmt 4.6, Leading zero omitted, Abs format (unit mm)*
G04 Created by KiCad (PCBNEW 9.0.2+dfsg-1) date 2026-07-13 18:07:25*
%MOMM*%
%LPD*%
G01*
G04 APERTURE LIST*
G04 Aperture macros list*
%AMRoundRect*
0 Rectangle with rounded corners*
0 $1 Rounding radius*
0 $2 $3 $4 $5 $6 $7 $8 $9 X,Y pos of 4 corners*
0 Add a 4 corners polygon primitive as box body*
4,1,4,$2,$3,$4,$5,$6,$7,$8,$9,$2,$3,0*
0 Add four circle primitives for the rounded corners*
1,1,$1+$1,$2,$3*
1,1,$1+$1,$4,$5*
1,1,$1+$1,$6,$7*
1,1,$1+$1,$8,$9*
0 Add four rect primitives between the rounded corners*
20,1,$1+$1,$2,$3,$4,$5,0*
20,1,$1+$1,$4,$5,$6,$7,0*
20,1,$1+$1,$6,$7,$8,$9,0*
20,1,$1+$1,$8,$9,$2,$3,0*%
G04 Aperture macros list end*
%TA.AperFunction,ComponentPad*%
%ADD10C,1.100000*%
%TD*%
%TA.AperFunction,ComponentPad*%
%ADD11R,1.100000X1.100000*%
%TD*%
%TA.AperFunction,ComponentPad*%
%ADD12RoundRect,0.250000X0.750000X-0.600000X0.750000X0.600000X-0.750000X0.600000X-0.750000X-0.600000X0*%
%TD*%
%TA.AperFunction,ComponentPad*%
%ADD13O,2.000000X1.700000*%
%TD*%
%TA.AperFunction,HeatsinkPad*%
%ADD14O,1.000000X1.600000*%
%TD*%
%TA.AperFunction,HeatsinkPad*%
%ADD15O,1.000000X2.100000*%
%TD*%
%TA.AperFunction,ComponentPad*%
%ADD16R,1.700000X1.700000*%
%TD*%
%TA.AperFunction,ComponentPad*%
%ADD17C,1.700000*%
%TD*%
%TA.AperFunction,ComponentPad*%
%ADD18C,1.400000*%
%TD*%
%TA.AperFunction,ComponentPad*%
%ADD19RoundRect,0.249999X0.850001X0.850001X-0.850001X0.850001X-0.850001X-0.850001X0.850001X-0.850001X0*%
%TD*%
%TA.AperFunction,ComponentPad*%
%ADD20C,2.200000*%
%TD*%
%TA.AperFunction,ViaPad*%
%ADD21C,0.600000*%
%TD*%
%TA.AperFunction,Conductor*%
%ADD22C,0.200000*%
%TD*%
G04 APERTURE END LIST*
D10*
%TO.N,/VCC_3V3*%
%TO.C,DISP1*%
X22920000Y-13000000D03*
D11*
%TO.N,GND*%
X20380000Y-13000000D03*
D10*
%TO.N,/DISP_CS*%
X35620000Y-13000000D03*
%TO.N,/DISP_DC*%
X33080000Y-13000000D03*
%TO.N,/DISP_RST*%
X30540000Y-13000000D03*
%TO.N,/DISP_SCK*%
X25460000Y-13000000D03*
%TO.N,/DISP_MOSI*%
X28000000Y-13000000D03*
%TD*%
D12*
%TO.N,/BATT_P*%
%TO.C,J1*%
X52000000Y-34000000D03*
D13*
%TO.N,/BATT_N*%
X52000000Y-31500000D03*
%TD*%
D14*
%TO.N,GND*%
%TO.C,J3*%
X34320000Y-52550000D03*
D15*
X34320000Y-48370000D03*
D14*
X25680000Y-52550000D03*
D15*
X25680000Y-48370000D03*
%TD*%
D12*
%TO.N,/MOTOR_IN1*%
%TO.C,J_MOTOR_CTRL1*%
X52000000Y-14000000D03*
D13*
%TO.N,/MOTOR_IN2*%
X52000000Y-11500000D03*
%TD*%
D12*
%TO.N,/BATT_PROT*%
%TO.C,J_MOTOR_PWR1*%
X52000000Y-24000000D03*
D13*
%TO.N,GND*%
X52000000Y-21500000D03*
%TD*%
D16*
%TO.N,/VCC_3V3*%
%TO.C,J4*%
X53000000Y-39000000D03*
D17*
%TO.N,unconnected-(J4-Pin_2-Pad2)*%
X53000000Y-41540000D03*
%TO.N,unconnected-(J4-Pin_3-Pad3)*%
X53000000Y-44080000D03*
%TO.N,GND*%
X53000000Y-46620000D03*
%TD*%
D11*
%TO.N,unconnected-(U1-5V-Pad1)*%
%TO.C,U1*%
X36890000Y-28160000D03*
D10*
%TO.N,GND*%
X36890000Y-25620000D03*
%TO.N,/VCC_3V3*%
X36890000Y-23080000D03*
%TO.N,/BUTTON_POWER*%
X36890000Y-20540000D03*
%TO.N,/BUTTON_TIMER*%
X36890000Y-18000000D03*
%TO.N,/BUTTON_MANUAL*%
X36890000Y-15460000D03*
%TO.N,/BUTTON_SETTINGS*%
X36890000Y-12920000D03*
%TO.N,/BUTTON_UP*%
X36890000Y-10380000D03*
%TO.N,/BUTTON_DOWN*%
X36890000Y-7840000D03*
%TO.N,/MOTOR_IN1*%
X19110000Y-28160000D03*
%TO.N,/MOTOR_IN2*%
X19110000Y-25620000D03*
%TO.N,/DISP_SCK*%
X19110000Y-23080000D03*
%TO.N,/DISP_MOSI*%
X19110000Y-20540000D03*
%TO.N,/DISP_CS*%
X19110000Y-18000000D03*
%TO.N,unconnected-(U1-GP19-Pad15)*%
X19110000Y-15460000D03*
%TO.N,unconnected-(U1-GP20-Pad16)*%
X19110000Y-12920000D03*
%TO.N,/CAN_TX*%
X19110000Y-10380000D03*
%TO.N,/CAN_RX*%
X19110000Y-7840000D03*
D18*
%TO.N,/I2C_SDA*%
X35620000Y-30700000D03*
%TO.N,/DISP_DC*%
X33080000Y-30700000D03*
%TO.N,/I2C_SCL*%
X30540000Y-30700000D03*
%TO.N,/CAN_RS*%
X28000000Y-30700000D03*
%TO.N,/GPS_RX*%
X25460000Y-30700000D03*
%TO.N,/GPS_TX*%
X22920000Y-30700000D03*
%TO.N,/BAT_MON*%
X20380000Y-30700000D03*
%TD*%
D19*
%TO.N,/BATT_PROT*%
%TO.C,D1*%
X16000000Y-18500000D03*
D20*
%TO.N,/BATT_N*%
X5840000Y-18500000D03*
%TD*%
D16*
%TO.N,/VCC_3V3*%
%TO.C,J_GPS1*%
X44000000Y-14000000D03*
D17*
%TO.N,GND*%
X44000000Y-16540000D03*
%TO.N,/GPS_RX*%
X44000000Y-19080000D03*
%TO.N,/GPS_TX*%
X44000000Y-21620000D03*
%TD*%
D16*
%TO.N,/VCC_3V3*%
%TO.C,J_RTC1*%
X42000000Y-30000000D03*
D17*
%TO.N,GND*%
X42000000Y-32540000D03*
%TO.N,/I2C_SDA*%
X42000000Y-35080000D03*
%TO.N,/I2C_SCL*%
X42000000Y-37620000D03*
%TD*%
D21*
%TO.N,/BATT_N*%
X8230600Y-26269200D03*
X21556100Y-35486300D03*
%TO.N,/BATT_P*%
X9449300Y-20552700D03*
%TO.N,/BATT_PROT*%
X7194900Y-15588500D03*
X11825000Y-44759100D03*
X10900100Y-37091100D03*
%TO.N,/BAT_MON*%
X12685800Y-50000000D03*
%TO.N,/BUTTON_DOWN*%
X39312500Y-42194600D03*
%TO.N,/BUTTON_POWER*%
X32708500Y-15236500D03*
X14973100Y-5835000D03*
%TO.N,/BUTTON_UP*%
X30953300Y-42200000D03*
%TO.N,/CAN_H_PROT*%
X40305000Y-49215800D03*
X28821300Y-48956400D03*
%TO.N,/CAN_RX*%
X31726900Y-20875300D03*
%TO.N,/CAN_TX*%
X30205700Y-17559000D03*
X43442200Y-41645200D03*
%TO.N,/CC1*%
X31028100Y-48657600D03*
X28825000Y-22015300D03*
%TO.N,/CC2*%
X34825000Y-4448600D03*
X24713500Y-49067600D03*
%TO.N,/MOTOR_IN2*%
X23258200Y-19276600D03*
%TO.N,/VCC_3V3*%
X20950000Y-40559800D03*
X37912400Y-32410600D03*
X13210600Y-34537700D03*
%TO.N,GND*%
X8750000Y-8750000D03*
X54950000Y-10950000D03*
X54950000Y-19750000D03*
X4350000Y-4350000D03*
X15350000Y-43950000D03*
X10950000Y-48350000D03*
X26350000Y-2150000D03*
X4350000Y-19750000D03*
X35150000Y-46150000D03*
X21950000Y-39550000D03*
X13150000Y-2150000D03*
X28550000Y-35150000D03*
X52750000Y-28550000D03*
X35150000Y-41750000D03*
X28550000Y-52750000D03*
X54950000Y-32950000D03*
X17550000Y-52750000D03*
X28550000Y-37350000D03*
X28550000Y-2150000D03*
X8750000Y-32950000D03*
X50550000Y-43950000D03*
X40482400Y-7781300D03*
X54950000Y-30750000D03*
X32950000Y-39550000D03*
X10609200Y-21236500D03*
X41750000Y-52750000D03*
X35150000Y-43950000D03*
X54950000Y-26350000D03*
X54950000Y-21950000D03*
X28550000Y-50550000D03*
X21950000Y-37350000D03*
X46150000Y-2150000D03*
X52750000Y-26350000D03*
X46150000Y-21950000D03*
X15350000Y-2150000D03*
X46150000Y-37350000D03*
X24150000Y-2150000D03*
X21950000Y-50550000D03*
X11372900Y-43513300D03*
X4350000Y-6550000D03*
X32950000Y-2150000D03*
X46150000Y-30750000D03*
X30750000Y-52750000D03*
X8750000Y-48350000D03*
X48350000Y-2150000D03*
X50550000Y-8750000D03*
X2150000Y-26350000D03*
X54950000Y-2150000D03*
X41750000Y-6550000D03*
X2150000Y-4350000D03*
X4350000Y-2150000D03*
X48350000Y-13150000D03*
X4350000Y-21950000D03*
X50550000Y-41750000D03*
X17550000Y-46150000D03*
X4350000Y-43950000D03*
X2150000Y-30750000D03*
X17550000Y-41750000D03*
X39550000Y-2150000D03*
X10950000Y-52750000D03*
X54950000Y-8750000D03*
X8750000Y-2150000D03*
X2150000Y-43950000D03*
X4350000Y-24150000D03*
X50550000Y-28550000D03*
X50550000Y-2150000D03*
X43950000Y-52750000D03*
X2150000Y-13150000D03*
X8750000Y-46150000D03*
X37350000Y-4350000D03*
X19750000Y-4350000D03*
X43950000Y-39550000D03*
X37350000Y-35150000D03*
X15350000Y-10950000D03*
X2150000Y-17550000D03*
X2150000Y-46150000D03*
X4350000Y-41750000D03*
X35150000Y-2150000D03*
X24150000Y-8750000D03*
X48350000Y-15350000D03*
X52750000Y-52750000D03*
X17550000Y-48350000D03*
X13150000Y-8750000D03*
X4350000Y-48350000D03*
X37350000Y-30750000D03*
X8750000Y-4350000D03*
X2150000Y-8750000D03*
X54950000Y-43950000D03*
X28550000Y-43950000D03*
X52750000Y-17550000D03*
X42016700Y-43800000D03*
X54950000Y-41750000D03*
X50550000Y-50550000D03*
X46150000Y-24150000D03*
X6550000Y-32950000D03*
X37350000Y-2150000D03*
X17550000Y-2150000D03*
X15350000Y-48350000D03*
X2150000Y-21950000D03*
X46150000Y-26350000D03*
X4350000Y-26350000D03*
X21950000Y-43950000D03*
X2150000Y-52750000D03*
X35150000Y-39550000D03*
X50550000Y-4350000D03*
X21950000Y-2150000D03*
X21950000Y-10950000D03*
X39550000Y-48350000D03*
X4350000Y-52750000D03*
X26350000Y-39550000D03*
X6550000Y-30750000D03*
X54950000Y-24150000D03*
X37350000Y-6550000D03*
X4350000Y-39550000D03*
X48350000Y-26350000D03*
X32950000Y-52750000D03*
X46150000Y-8750000D03*
X50550000Y-6550000D03*
X41750000Y-10950000D03*
X35150000Y-48350000D03*
X19750000Y-48350000D03*
X37350000Y-41750000D03*
X19750000Y-50550000D03*
X6550000Y-13150000D03*
X8750000Y-35150000D03*
X13150000Y-10950000D03*
X54950000Y-17550000D03*
X50550000Y-48350000D03*
X6550000Y-50550000D03*
X21950000Y-52750000D03*
X50550000Y-21950000D03*
X2150000Y-24150000D03*
X32950000Y-43950000D03*
X48350000Y-8750000D03*
X26350000Y-10950000D03*
X46150000Y-6550000D03*
X54950000Y-35150000D03*
X39550000Y-52750000D03*
X54950000Y-52750000D03*
X48350000Y-21950000D03*
X50550000Y-19750000D03*
X52750000Y-4350000D03*
X46150000Y-19750000D03*
X52750000Y-8750000D03*
X8750000Y-52750000D03*
X8750000Y-30750000D03*
X48350000Y-19750000D03*
X43950000Y-26350000D03*
X4350000Y-30750000D03*
X54950000Y-48350000D03*
X50550000Y-52750000D03*
X52750000Y-6550000D03*
X54950000Y-50550000D03*
X8750000Y-37350000D03*
X15350000Y-52750000D03*
X24150000Y-52750000D03*
X15350000Y-4350000D03*
X6550000Y-24150000D03*
X2150000Y-19750000D03*
X2150000Y-2150000D03*
X48350000Y-37350000D03*
X21950000Y-6550000D03*
X6550000Y-8750000D03*
X15350000Y-50550000D03*
X50550000Y-17550000D03*
X19750000Y-52750000D03*
X43950000Y-35150000D03*
X2150000Y-6550000D03*
X43950000Y-2150000D03*
X6550000Y-46150000D03*
X41750000Y-43950000D03*
X32950000Y-37350000D03*
X37350000Y-48350000D03*
X52750000Y-37350000D03*
X4350000Y-8750000D03*
X54950000Y-37350000D03*
X6550000Y-48350000D03*
X41750000Y-2150000D03*
X48350000Y-28550000D03*
X46150000Y-4350000D03*
X35150000Y-26350000D03*
X37350000Y-26350000D03*
X17550000Y-4350000D03*
X32950000Y-41750000D03*
X24150000Y-6550000D03*
X46150000Y-15350000D03*
X54950000Y-28550000D03*
X4350000Y-46150000D03*
X15350000Y-8750000D03*
X54950000Y-46150000D03*
X54950000Y-4350000D03*
X21950000Y-4350000D03*
X54950000Y-15350000D03*
X35150000Y-6550000D03*
X19750000Y-2150000D03*
X26350000Y-35150000D03*
X52750000Y-50550000D03*
X8750000Y-50550000D03*
X21950000Y-46150000D03*
X17550000Y-50550000D03*
X52750000Y-19750000D03*
X19750000Y-46150000D03*
X13150000Y-19750000D03*
X13150000Y-17550000D03*
X10950000Y-2150000D03*
X6550000Y-52750000D03*
X19750000Y-43950000D03*
X48350000Y-52750000D03*
X52750000Y-2150000D03*
X48350000Y-24150000D03*
X2150000Y-10950000D03*
X6550000Y-26350000D03*
X26350000Y-8750000D03*
X35150000Y-52750000D03*
X32950000Y-4350000D03*
X6550000Y-28550000D03*
X2150000Y-41750000D03*
X15175000Y-21068900D03*
X2150000Y-15350000D03*
X6550000Y-10950000D03*
X4350000Y-50550000D03*
X2150000Y-50550000D03*
X4350000Y-37350000D03*
X46150000Y-52750000D03*
X52750000Y-48350000D03*
X48350000Y-50550000D03*
X37350000Y-52750000D03*
X54950000Y-13150000D03*
X21950000Y-48350000D03*
X2150000Y-48350000D03*
X30750000Y-2150000D03*
X8750000Y-43950000D03*
X30750000Y-10950000D03*
X10950000Y-8750000D03*
X4350000Y-28550000D03*
X50550000Y-46150000D03*
X6550000Y-2150000D03*
X24150000Y-50550000D03*
X10950000Y-10950000D03*
X48350000Y-48350000D03*
X21950000Y-15350000D03*
X24150000Y-4350000D03*
X13150000Y-52750000D03*
X54950000Y-6550000D03*
X17550000Y-43950000D03*
X2150000Y-28550000D03*
X15350000Y-46150000D03*
X46150000Y-13150000D03*
X54950000Y-39550000D03*
%TD*%
D22*
%TO.N,/BATT_P*%
X46893800Y-28893800D02*
X52000000Y-34000000D01*
X28095500Y-32014300D02*
X29098200Y-31011600D01*
X29098200Y-31011600D02*
X29098200Y-30727500D01*
X29098200Y-30727500D02*
X30796200Y-29029500D01*
X39262000Y-29029500D02*
X39397700Y-28893800D01*
X30796200Y-29029500D02*
X39262000Y-29029500D01*
X39397700Y-28893800D02*
X46893800Y-28893800D01*
X9449300Y-20552700D02*
X9449300Y-21189600D01*
X9449300Y-21189600D02*
X20274000Y-32014300D01*
X20274000Y-32014300D02*
X28095500Y-32014300D01*
%TO.N,/BATT_PROT*%
X29916200Y-27358300D02*
X48641700Y-27358300D01*
X19293500Y-29477300D02*
X20515700Y-29477300D01*
X48641700Y-27358300D02*
X52000000Y-24000000D01*
X7194900Y-15588500D02*
X13088500Y-15588500D01*
X21650000Y-30611600D02*
X21650000Y-30856200D01*
X16000000Y-26183800D02*
X19293500Y-29477300D01*
X26730100Y-30809300D02*
X26730100Y-30544400D01*
X16000000Y-18500000D02*
X16000000Y-26183800D01*
X13088500Y-15588500D02*
X16000000Y-18500000D01*
X22456400Y-31662600D02*
X25876800Y-31662600D01*
X26730100Y-30544400D02*
X29916200Y-27358300D01*
X20515700Y-29477300D02*
X21650000Y-30611600D01*
X25876800Y-31662600D02*
X26730100Y-30809300D01*
X21650000Y-30856200D02*
X22456400Y-31662600D01*
%TO.N,/BUTTON_POWER*%
X32708500Y-15236500D02*
X29090700Y-15236500D01*
X19689200Y-5835000D02*
X14973100Y-5835000D01*
X29090700Y-15236500D02*
X19689200Y-5835000D01*
%TO.N,/CAN_H_PROT*%
X29625200Y-49760300D02*
X28821300Y-48956400D01*
X39760500Y-49760300D02*
X29625200Y-49760300D01*
X40305000Y-49215800D02*
X39760500Y-49760300D01*
%TO.N,/CAN_RX*%
X18286400Y-18317800D02*
X20843900Y-20875300D01*
X20843900Y-20875300D02*
X31726900Y-20875300D01*
X18286400Y-8663600D02*
X18286400Y-18317800D01*
X19110000Y-7840000D02*
X18286400Y-8663600D01*
%TO.N,/CAN_TX*%
X19110000Y-10380000D02*
X19217300Y-10380000D01*
X21181700Y-12344400D02*
X21181700Y-12441600D01*
X26299100Y-17559000D02*
X30205700Y-17559000D01*
X19217300Y-10380000D02*
X21181700Y-12344400D01*
X21181700Y-12441600D02*
X26299100Y-17559000D01*
%TO.N,/DISP_CS*%
X19220700Y-18110700D02*
X30660000Y-18110700D01*
X19110000Y-18000000D02*
X19220700Y-18110700D01*
X30660000Y-18110700D02*
X35620000Y-13150700D01*
X35620000Y-13150700D02*
X35620000Y-13000000D01*
%TO.N,/GPS_RX*%
X31810000Y-24350000D02*
X42837600Y-24350000D01*
X25460000Y-30700000D02*
X31810000Y-24350000D01*
X45169800Y-20249800D02*
X44000000Y-19080000D01*
X42837600Y-24350000D02*
X45169800Y-22017800D01*
X45169800Y-22017800D02*
X45169800Y-20249800D01*
%TO.N,/GPS_TX*%
X31648300Y-21971700D02*
X43648300Y-21971700D01*
X43648300Y-21971700D02*
X44000000Y-21620000D01*
X22920000Y-30700000D02*
X31648300Y-21971700D01*
%TO.N,/I2C_SCL*%
X37460000Y-37620000D02*
X42000000Y-37620000D01*
X30540000Y-30700000D02*
X37460000Y-37620000D01*
%TO.N,/I2C_SDA*%
X39801700Y-35080000D02*
X42000000Y-35080000D01*
X35620000Y-30898300D02*
X39801700Y-35080000D01*
X35620000Y-30700000D02*
X35620000Y-30898300D01*
%TO.N,/MOTOR_IN1*%
X25825000Y-21445000D02*
X19110000Y-28160000D01*
X48190000Y-17810000D02*
X38213900Y-17810000D01*
X52000000Y-14000000D02*
X48190000Y-17810000D01*
X34578900Y-21445000D02*
X25825000Y-21445000D01*
X38213900Y-17810000D02*
X34578900Y-21445000D01*
%TO.N,/MOTOR_IN2*%
X39214000Y-16730000D02*
X36751800Y-16730000D01*
X34205200Y-19276600D02*
X23258200Y-19276600D01*
X52000000Y-11500000D02*
X44444000Y-11500000D01*
X44444000Y-11500000D02*
X39214000Y-16730000D01*
X36751800Y-16730000D02*
X34205200Y-19276600D01*
%TO.N,/VCC_3V3*%
X51898300Y-39000000D02*
X47077500Y-34179100D01*
X47077500Y-33975800D02*
X43101700Y-30000000D01*
X13210600Y-34537700D02*
X14927900Y-34537700D01*
X42000000Y-30000000D02*
X43101700Y-30000000D01*
X40696800Y-40559800D02*
X47077500Y-34179100D01*
X14927900Y-34537700D02*
X20950000Y-40559800D01*
X47077500Y-34179100D02*
X47077500Y-33975800D01*
X53000000Y-39000000D02*
X51898300Y-39000000D01*
X40323000Y-30000000D02*
X37912400Y-32410600D01*
X20950000Y-40559800D02*
X40696800Y-40559800D01*
X42000000Y-30000000D02*
X40323000Y-30000000D01*
%TO.N,GND*%
X46936000Y-22601700D02*
X43917700Y-25620000D01*
X10609200Y-21236500D02*
X15007400Y-21236500D01*
X34320000Y-51498300D02*
X25680000Y-51498300D01*
X52000000Y-22601700D02*
X46936000Y-22601700D01*
X43917700Y-25620000D02*
X36890000Y-25620000D01*
X34320000Y-52550000D02*
X34320000Y-51498300D01*
X25680000Y-52550000D02*
X25680000Y-51498300D01*
X15007400Y-21236500D02*
X15175000Y-21068900D01*
X52000000Y-21500000D02*
X52000000Y-22601700D01*
%TD*%
%TA.AperFunction,Conductor*%
%TO.N,GND*%
G36*
X40877826Y-29265974D02*
G01*
X40899500Y-29318300D01*
X40899500Y-29575500D01*
X40877826Y-29627826D01*
X40825500Y-29649500D01*
X40276854Y-29649500D01*
X40187715Y-29673384D01*
X40187710Y-29673386D01*
X40107787Y-29719530D01*
X37988892Y-31838426D01*
X37936566Y-31860100D01*
X37839923Y-31860100D01*
X37699918Y-31897614D01*
X37699913Y-31897616D01*
X37574384Y-31970091D01*
X37471887Y-32072589D01*
X37453520Y-32104402D01*
X37408587Y-32138880D01*
X37352434Y-32131486D01*
X37337109Y-32119727D01*
X36467329Y-31249947D01*
X36445655Y-31197621D01*
X36458128Y-31156506D01*
X36462322Y-31150231D01*
X36463707Y-31146889D01*
X36511585Y-31031299D01*
X36533973Y-30977251D01*
X36570500Y-30793616D01*
X36570500Y-30606384D01*
X36533973Y-30422749D01*
X36462322Y-30249769D01*
X36358302Y-30094092D01*
X36225908Y-29961698D01*
X36222458Y-29959393D01*
X36136264Y-29901800D01*
X36070231Y-29857678D01*
X36070228Y-29857676D01*
X36070227Y-29857676D01*
X35897251Y-29786027D01*
X35897244Y-29786025D01*
X35755187Y-29757769D01*
X35713616Y-29749500D01*
X35526384Y-29749500D01*
X35490056Y-29756725D01*
X35342755Y-29786025D01*
X35342748Y-29786027D01*
X35169772Y-29857676D01*
X35014092Y-29961697D01*
X35014091Y-29961699D01*
X34881699Y-30094091D01*
X34881697Y-30094092D01*
X34777676Y-30249772D01*
X34706027Y-30422748D01*
X34706025Y-30422755D01*
X34669500Y-30606384D01*
X34669500Y-30793615D01*
X34706025Y-30977244D01*
X34706027Y-30977251D01*
X34776293Y-31146889D01*
X34777678Y-31150231D01*
X34839196Y-31242299D01*
X34877502Y-31299629D01*
X34881698Y-31305908D01*
X35014092Y-31438302D01*
X35169769Y-31542322D01*
X35342749Y-31613973D01*
X35526384Y-31650500D01*
X35526385Y-31650500D01*
X35713614Y-31650500D01*
X35713616Y-31650500D01*
X35810697Y-31631188D01*
X35866243Y-31642237D01*
X35877458Y-31651440D01*
X39586488Y-35360470D01*
X39666412Y-35406614D01*
X39666413Y-35406614D01*
X39666415Y-35406615D01*
X39693316Y-35413823D01*
X39755553Y-35430499D01*
X39755554Y-35430500D01*
X39755556Y-35430500D01*
X40902986Y-35430500D01*
X40955312Y-35452174D01*
X40973364Y-35481633D01*
X40980123Y-35502437D01*
X41058767Y-35656788D01*
X41089281Y-35698786D01*
X41160586Y-35796928D01*
X41283072Y-35919414D01*
X41283075Y-35919416D01*
X41283076Y-35919417D01*
X41423212Y-36021232D01*
X41577553Y-36099872D01*
X41577557Y-36099874D01*
X41742288Y-36153399D01*
X41742294Y-36153400D01*
X41742299Y-36153402D01*
X41856359Y-36171467D01*
X41913388Y-36180500D01*
X41913389Y-36180500D01*
X42086612Y-36180500D01*
X42129383Y-36173725D01*
X42257701Y-36153402D01*
X42257708Y-36153399D01*
X42257711Y-36153399D01*
X42422442Y-36099874D01*
X42422442Y-36099873D01*
X42422445Y-36099873D01*
X42576788Y-36021232D01*
X42716928Y-35919414D01*
X42839414Y-35796928D01*
X42941232Y-35656788D01*
X43019873Y-35502445D01*
X43073402Y-35337701D01*
X43100500Y-35166611D01*
X43100500Y-34993389D01*
X43097320Y-34973314D01*
X43091379Y-34935800D01*
X43073402Y-34822299D01*
X43073400Y-34822294D01*
X43073399Y-34822288D01*
X43019874Y-34657557D01*
X43019872Y-34657553D01*
X42941232Y-34503212D01*
X42839417Y-34363076D01*
X42839416Y-34363075D01*
X42839414Y-34363072D01*
X42716928Y-34240586D01*
X42716925Y-34240583D01*
X42716923Y-34240582D01*
X42576787Y-34138767D01*
X42422446Y-34060127D01*
X42422442Y-34060125D01*
X42257711Y-34006600D01*
X42257698Y-34006597D01*
X42086612Y-33979500D01*
X42086611Y-33979500D01*
X41913389Y-33979500D01*
X41913388Y-33979500D01*
X41742301Y-34006597D01*
X41742288Y-34006600D01*
X41577557Y-34060125D01*
X41577553Y-34060127D01*
X41423212Y-34138767D01*
X41283076Y-34240582D01*
X41160582Y-34363076D01*
X41058767Y-34503211D01*
X40980123Y-34657562D01*
X40973364Y-34678367D01*
X40936581Y-34721435D01*
X40902986Y-34729500D01*
X39977534Y-34729500D01*
X39925208Y-34707826D01*
X38203271Y-32985889D01*
X38181597Y-32933563D01*
X38203271Y-32881237D01*
X38218594Y-32869480D01*
X38250415Y-32851109D01*
X38352909Y-32748615D01*
X38425384Y-32623085D01*
X38462899Y-32483077D01*
X38462900Y-32483077D01*
X38462900Y-32449491D01*
X40850000Y-32449491D01*
X40850000Y-32630508D01*
X40878316Y-32809289D01*
X40878319Y-32809302D01*
X40934251Y-32981443D01*
X41016431Y-33142728D01*
X41057668Y-33199487D01*
X41531980Y-32725174D01*
X41534075Y-32732993D01*
X41599901Y-32847007D01*
X41692993Y-32940099D01*
X41807007Y-33005925D01*
X41814822Y-33008019D01*
X41340511Y-33482331D01*
X41397266Y-33523566D01*
X41558556Y-33605748D01*
X41558555Y-33605748D01*
X41730697Y-33661680D01*
X41730710Y-33661683D01*
X41909491Y-33690000D01*
X42090509Y-33690000D01*
X42269289Y-33661683D01*
X42269302Y-33661680D01*
X42441443Y-33605748D01*
X42602729Y-33523568D01*
X42659487Y-33482331D01*
X42185176Y-33008019D01*
X42192993Y-33005925D01*
X42307007Y-32940099D01*
X42400099Y-32847007D01*
X42465925Y-32732993D01*
X42468019Y-32725176D01*
X42942331Y-33199487D01*
X42983568Y-33142729D01*
X43065748Y-32981443D01*
X43121680Y-32809302D01*
X43121683Y-32809289D01*
X43150000Y-32630508D01*
X43150000Y-32449491D01*
X43121683Y-32270710D01*
X43121680Y-32270697D01*
X43065748Y-32098556D01*
X42983566Y-31937267D01*
X42983566Y-31937266D01*
X42942331Y-31880511D01*
X42468019Y-32354822D01*
X42465925Y-32347007D01*
X42400099Y-32232993D01*
X42307007Y-32139901D01*
X42192993Y-32074075D01*
X42185174Y-32071980D01*
X42659487Y-31597668D01*
X42602728Y-31556431D01*
X42441443Y-31474251D01*
X42441444Y-31474251D01*
X42269302Y-31418319D01*
X42269289Y-31418316D01*
X42090509Y-31390000D01*
X41909491Y-31390000D01*
X41730710Y-31418316D01*
X41730697Y-31418319D01*
X41558558Y-31474250D01*
X41397268Y-31556431D01*
X41340511Y-31597667D01*
X41340511Y-31597668D01*
X41814823Y-32071980D01*
X41807007Y-32074075D01*
X41692993Y-32139901D01*
X41599901Y-32232993D01*
X41534075Y-32347007D01*
X41531980Y-32354823D01*
X41057668Y-31880511D01*
X41057667Y-31880511D01*
X41016431Y-31937268D01*
X40934250Y-32098558D01*
X40878319Y-32270697D01*
X40878316Y-32270710D01*
X40850000Y-32449491D01*
X38462900Y-32449491D01*
X38462900Y-32386434D01*
X38484574Y-32334108D01*
X40446508Y-30372174D01*
X40498834Y-30350500D01*
X40825500Y-30350500D01*
X40877826Y-30372174D01*
X40899500Y-30424500D01*
X40899500Y-30874674D01*
X40909155Y-30923212D01*
X40914034Y-30947740D01*
X40968990Y-31029990D01*
X40969399Y-31030601D01*
X41052260Y-31085966D01*
X41125326Y-31100500D01*
X41125328Y-31100500D01*
X42874672Y-31100500D01*
X42874674Y-31100500D01*
X42947740Y-31085966D01*
X43030601Y-31030601D01*
X43085966Y-30947740D01*
X43100500Y-30874674D01*
X43100500Y-30673133D01*
X43122174Y-30620807D01*
X43174500Y-30599133D01*
X43226826Y-30620807D01*
X46631142Y-34025123D01*
X46652816Y-34077449D01*
X46631142Y-34129775D01*
X43220564Y-37540353D01*
X43168238Y-37562027D01*
X43115912Y-37540353D01*
X43095149Y-37499603D01*
X43073402Y-37362301D01*
X43073399Y-37362288D01*
X43019874Y-37197557D01*
X43019872Y-37197553D01*
X42941232Y-37043212D01*
X42839417Y-36903076D01*
X42839416Y-36903075D01*
X42839414Y-36903072D01*
X42716928Y-36780586D01*
X42716925Y-36780583D01*
X42716923Y-36780582D01*
X42576787Y-36678767D01*
X42422446Y-36600127D01*
X42422442Y-36600125D01*
X42257711Y-36546600D01*
X42257698Y-36546597D01*
X42086612Y-36519500D01*
X42086611Y-36519500D01*
X41913389Y-36519500D01*
X41913388Y-36519500D01*
X41742301Y-36546597D01*
X41742288Y-36546600D01*
X41577557Y-36600125D01*
X41577553Y-36600127D01*
X41423212Y-36678767D01*
X41283076Y-36780582D01*
X41160582Y-36903076D01*
X41058767Y-37043211D01*
X40980123Y-37197562D01*
X40973364Y-37218367D01*
X40936581Y-37261435D01*
X40902986Y-37269500D01*
X37635834Y-37269500D01*
X37583508Y-37247826D01*
X31447626Y-31111944D01*
X31425952Y-31059618D01*
X31431585Y-31031299D01*
X31431875Y-31030600D01*
X31453973Y-30977251D01*
X31490500Y-30793616D01*
X31490500Y-30606384D01*
X32129500Y-30606384D01*
X32129500Y-30793615D01*
X32166025Y-30977244D01*
X32166027Y-30977251D01*
X32236293Y-31146889D01*
X32237678Y-31150231D01*
X32299196Y-31242299D01*
X32337502Y-31299629D01*
X32341698Y-31305908D01*
X32474092Y-31438302D01*
X32629769Y-31542322D01*
X32802749Y-31613973D01*
X32986384Y-31650500D01*
X32986385Y-31650500D01*
X33173615Y-31650500D01*
X33173616Y-31650500D01*
X33357251Y-31613973D01*
X33530231Y-31542322D01*
X33685908Y-31438302D01*
X33818302Y-31305908D01*
X33922322Y-31150231D01*
X33993973Y-30977251D01*
X34030500Y-30793616D01*
X34030500Y-30606384D01*
X33993973Y-30422749D01*
X33922322Y-30249769D01*
X33818302Y-30094092D01*
X33685908Y-29961698D01*
X33682458Y-29959393D01*
X33596264Y-29901800D01*
X33530231Y-29857678D01*
X33530228Y-29857676D01*
X33530227Y-29857676D01*
X33357251Y-29786027D01*
X33357244Y-29786025D01*
X33215187Y-29757769D01*
X33173616Y-29749500D01*
X32986384Y-29749500D01*
X32950056Y-29756725D01*
X32802755Y-29786025D01*
X32802748Y-29786027D01*
X32629772Y-29857676D01*
X32474092Y-29961697D01*
X32474091Y-29961699D01*
X32341699Y-30094091D01*
X32341697Y-30094092D01*
X32237676Y-30249772D01*
X32166027Y-30422748D01*
X32166025Y-30422755D01*
X32129500Y-30606384D01*
X31490500Y-30606384D01*
X31453973Y-30422749D01*
X31382322Y-30249769D01*
X31278302Y-30094092D01*
X31145908Y-29961698D01*
X31142458Y-29959393D01*
X31056264Y-29901800D01*
X30990231Y-29857678D01*
X30990228Y-29857676D01*
X30990227Y-29857676D01*
X30817251Y-29786027D01*
X30817245Y-29786025D01*
X30717908Y-29766266D01*
X30670816Y-29734800D01*
X30659767Y-29679251D01*
X30680017Y-29641364D01*
X30919708Y-29401674D01*
X30972034Y-29380000D01*
X39308146Y-29380000D01*
X39308146Y-29379999D01*
X39397288Y-29356114D01*
X39421713Y-29342012D01*
X39477212Y-29309970D01*
X39524680Y-29262501D01*
X39528585Y-29259516D01*
X39551564Y-29253399D01*
X39573534Y-29244300D01*
X40825500Y-29244300D01*
X40877826Y-29265974D01*
G37*
%TD.AperFunction*%
%TA.AperFunction,Conductor*%
G36*
X18739217Y-11092871D02*
G01*
X18876503Y-11149737D01*
X19031158Y-11180500D01*
X19031160Y-11180500D01*
X19188840Y-11180500D01*
X19188842Y-11180500D01*
X19343497Y-11149737D01*
X19402367Y-11125352D01*
X19459003Y-11125352D01*
X19483011Y-11141393D01*
X20817852Y-12476234D01*
X20837004Y-12509407D01*
X20845421Y-12540819D01*
X20845421Y-12540820D01*
X20855084Y-12576883D01*
X20855086Y-12576888D01*
X20901230Y-12656812D01*
X25878292Y-17633874D01*
X25899966Y-17686200D01*
X25878292Y-17738526D01*
X25825966Y-17760200D01*
X19926571Y-17760200D01*
X19874245Y-17738526D01*
X19858204Y-17714518D01*
X19819396Y-17620825D01*
X19819395Y-17620823D01*
X19819394Y-17620821D01*
X19731789Y-17489711D01*
X19620289Y-17378211D01*
X19489179Y-17290606D01*
X19489175Y-17290604D01*
X19489173Y-17290603D01*
X19489174Y-17290603D01*
X19343501Y-17230264D01*
X19343491Y-17230261D01*
X19230252Y-17207737D01*
X19188842Y-17199500D01*
X19031158Y-17199500D01*
X18997460Y-17206203D01*
X18876508Y-17230261D01*
X18876498Y-17230264D01*
X18739218Y-17287127D01*
X18682581Y-17287127D01*
X18642533Y-17247078D01*
X18636900Y-17218760D01*
X18636900Y-16241239D01*
X18658574Y-16188913D01*
X18710900Y-16167239D01*
X18739217Y-16172871D01*
X18876503Y-16229737D01*
X19031158Y-16260500D01*
X19031160Y-16260500D01*
X19188840Y-16260500D01*
X19188842Y-16260500D01*
X19343497Y-16229737D01*
X19489179Y-16169394D01*
X19620289Y-16081789D01*
X19731789Y-15970289D01*
X19819394Y-15839179D01*
X19879737Y-15693497D01*
X19910500Y-15538842D01*
X19910500Y-15381158D01*
X19879737Y-15226503D01*
X19847217Y-15147991D01*
X19819396Y-15080825D01*
X19819395Y-15080823D01*
X19819394Y-15080821D01*
X19731789Y-14949711D01*
X19620289Y-14838211D01*
X19489179Y-14750606D01*
X19489175Y-14750604D01*
X19489173Y-14750603D01*
X19489174Y-14750603D01*
X19343501Y-14690264D01*
X19343491Y-14690261D01*
X19239925Y-14669661D01*
X19188842Y-14659500D01*
X19031158Y-14659500D01*
X18987315Y-14668220D01*
X18876508Y-14690261D01*
X18876498Y-14690264D01*
X18739218Y-14747127D01*
X18682581Y-14747127D01*
X18642533Y-14707078D01*
X18636900Y-14678760D01*
X18636900Y-13701239D01*
X18658574Y-13648913D01*
X18710900Y-13627239D01*
X18739217Y-13632871D01*
X18876503Y-13689737D01*
X19031158Y-13720500D01*
X19031160Y-13720500D01*
X19188840Y-13720500D01*
X19188842Y-13720500D01*
X19343497Y-13689737D01*
X19489179Y-13629394D01*
X19620289Y-13541789D01*
X19731789Y-13430289D01*
X19819394Y-13299179D01*
X19879737Y-13153497D01*
X19910500Y-12998842D01*
X19910500Y-12841158D01*
X19879737Y-12686503D01*
X19867439Y-12656812D01*
X19819396Y-12540825D01*
X19819395Y-12540823D01*
X19819394Y-12540821D01*
X19731789Y-12409711D01*
X19620289Y-12298211D01*
X19616598Y-12295745D01*
X19583100Y-12273362D01*
X19489179Y-12210606D01*
X19489175Y-12210604D01*
X19489173Y-12210603D01*
X19489174Y-12210603D01*
X19343501Y-12150264D01*
X19343491Y-12150261D01*
X19239925Y-12129661D01*
X19188842Y-12119500D01*
X19031158Y-12119500D01*
X18987315Y-12128220D01*
X18876508Y-12150261D01*
X18876498Y-12150264D01*
X18739218Y-12207127D01*
X18682581Y-12207127D01*
X18642533Y-12167078D01*
X18636900Y-12138760D01*
X18636900Y-11161239D01*
X18658574Y-11108913D01*
X18710900Y-11087239D01*
X18739217Y-11092871D01*
G37*
%TD.AperFunction*%
%TA.AperFunction,Conductor*%
G36*
X55477826Y-522174D02*
G01*
X55499500Y-574500D01*
X55499500Y-53425500D01*
X55477826Y-53477826D01*
X55425500Y-53499500D01*
X574500Y-53499500D01*
X522174Y-53477826D01*
X500500Y-53425500D01*
X500500Y-49927522D01*
X12135300Y-49927522D01*
X12135300Y-50072477D01*
X12172814Y-50212481D01*
X12172816Y-50212486D01*
X12245291Y-50338015D01*
X12347785Y-50440509D01*
X12473315Y-50512984D01*
X12473316Y-50512984D01*
X12473318Y-50512985D01*
X12543320Y-50531742D01*
X12613322Y-50550499D01*
X12613323Y-50550500D01*
X12613325Y-50550500D01*
X12758277Y-50550500D01*
X12758277Y-50550499D01*
X12898285Y-50512984D01*
X13023815Y-50440509D01*
X13126309Y-50338015D01*
X13198784Y-50212485D01*
X13236300Y-50072475D01*
X13236300Y-49927525D01*
X13236300Y-49927523D01*
X13236299Y-49927522D01*
X13198785Y-49787518D01*
X13198783Y-49787513D01*
X13164876Y-49728785D01*
X13126309Y-49661985D01*
X13023815Y-49559491D01*
X13013984Y-49553815D01*
X12898286Y-49487016D01*
X12898281Y-49487014D01*
X12758277Y-49449500D01*
X12758275Y-49449500D01*
X12613325Y-49449500D01*
X12613323Y-49449500D01*
X12473318Y-49487014D01*
X12473313Y-49487016D01*
X12347784Y-49559491D01*
X12245291Y-49661984D01*
X12172816Y-49787513D01*
X12172814Y-49787518D01*
X12135300Y-49927522D01*
X500500Y-49927522D01*
X500500Y-48995122D01*
X24163000Y-48995122D01*
X24163000Y-49140077D01*
X24200514Y-49280081D01*
X24200516Y-49280086D01*
X24208789Y-49294415D01*
X24272991Y-49405615D01*
X24375485Y-49508109D01*
X24501015Y-49580584D01*
X24501016Y-49580584D01*
X24501018Y-49580585D01*
X24571020Y-49599342D01*
X24641022Y-49618099D01*
X24641023Y-49618100D01*
X24641025Y-49618100D01*
X24785977Y-49618100D01*
X24785977Y-49618099D01*
X24925985Y-49580584D01*
X25051515Y-49508109D01*
X25154009Y-49405615D01*
X25226484Y-49280085D01*
X25263999Y-49140077D01*
X25264000Y-49140077D01*
X25264000Y-48995123D01*
X25263999Y-48995122D01*
X25226485Y-48855118D01*
X25226482Y-48855111D01*
X25208653Y-48824231D01*
X26534500Y-48824231D01*
X26534500Y-48975768D01*
X26573717Y-49122130D01*
X26573721Y-49122139D01*
X26623351Y-49208100D01*
X26649485Y-49253365D01*
X26756635Y-49360515D01*
X26887865Y-49436281D01*
X27034231Y-49475499D01*
X27034232Y-49475500D01*
X27034234Y-49475500D01*
X27185768Y-49475500D01*
X27185768Y-49475499D01*
X27332135Y-49436281D01*
X27463365Y-49360515D01*
X27570515Y-49253365D01*
X27646281Y-49122135D01*
X27685499Y-48975768D01*
X27685500Y-48975768D01*
X27685500Y-48883922D01*
X28270800Y-48883922D01*
X28270800Y-49028877D01*
X28308314Y-49168881D01*
X28308316Y-49168886D01*
X28372518Y-49280086D01*
X28380791Y-49294415D01*
X28483285Y-49396909D01*
X28608815Y-49469384D01*
X28608816Y-49469384D01*
X28608818Y-49469385D01*
X28674610Y-49487014D01*
X28748822Y-49506899D01*
X28748823Y-49506900D01*
X28748825Y-49506900D01*
X28845466Y-49506900D01*
X28897792Y-49528574D01*
X29344731Y-49975512D01*
X29409988Y-50040769D01*
X29489912Y-50086914D01*
X29489913Y-50086914D01*
X29489915Y-50086915D01*
X29534484Y-50098857D01*
X29579053Y-50110799D01*
X29579054Y-50110800D01*
X29579056Y-50110800D01*
X39806646Y-50110800D01*
X39806646Y-50110799D01*
X39895788Y-50086914D01*
X39920797Y-50072475D01*
X39975712Y-50040770D01*
X40228508Y-49787974D01*
X40280834Y-49766300D01*
X40377477Y-49766300D01*
X40377477Y-49766299D01*
X40517485Y-49728784D01*
X40643015Y-49656309D01*
X40745509Y-49553815D01*
X40817984Y-49428285D01*
X40855499Y-49288277D01*
X40855500Y-49288277D01*
X40855500Y-49143323D01*
X40855499Y-49143322D01*
X40817985Y-49003318D01*
X40817983Y-49003313D01*
X40749054Y-48883925D01*
X40745509Y-48877785D01*
X40643015Y-48775291D01*
X40588676Y-48743918D01*
X40517486Y-48702816D01*
X40517481Y-48702814D01*
X40377477Y-48665300D01*
X40377475Y-48665300D01*
X40232525Y-48665300D01*
X40232523Y-48665300D01*
X40092518Y-48702814D01*
X40092513Y-48702816D01*
X39966984Y-48775291D01*
X39864491Y-48877784D01*
X39792016Y-49003313D01*
X39792014Y-49003318D01*
X39754500Y-49143322D01*
X39754500Y-49239966D01*
X39732826Y-49292292D01*
X39636992Y-49388126D01*
X39584666Y-49409800D01*
X33372731Y-49409800D01*
X33320405Y-49388126D01*
X33298731Y-49335800D01*
X33320404Y-49283475D01*
X33350515Y-49253365D01*
X33426281Y-49122135D01*
X33465499Y-48975768D01*
X33465500Y-48975768D01*
X33465500Y-48824232D01*
X33465499Y-48824231D01*
X33432966Y-48702816D01*
X33426281Y-48677865D01*
X33350515Y-48546635D01*
X33243365Y-48439485D01*
X33243362Y-48439483D01*
X33112139Y-48363721D01*
X33112130Y-48363717D01*
X32965768Y-48324500D01*
X32965766Y-48324500D01*
X32814234Y-48324500D01*
X32814232Y-48324500D01*
X32667869Y-48363717D01*
X32667860Y-48363721D01*
X32536637Y-48439483D01*
X32429483Y-48546637D01*
X32353721Y-48677860D01*
X32353717Y-48677869D01*
X32314500Y-48824231D01*
X32314500Y-48975768D01*
X32353717Y-49122130D01*
X32353721Y-49122139D01*
X32403351Y-49208100D01*
X32429485Y-49253365D01*
X32459595Y-49283475D01*
X32481269Y-49335800D01*
X32459595Y-49388126D01*
X32407269Y-49409800D01*
X29801033Y-49409800D01*
X29748707Y-49388126D01*
X29393474Y-49032892D01*
X29371800Y-48980566D01*
X29371800Y-48883923D01*
X29371799Y-48883922D01*
X29370154Y-48877784D01*
X29334284Y-48743915D01*
X29326293Y-48730075D01*
X29261808Y-48618384D01*
X29228546Y-48585122D01*
X30477600Y-48585122D01*
X30477600Y-48730077D01*
X30515114Y-48870081D01*
X30515116Y-48870086D01*
X30576131Y-48975766D01*
X30587591Y-48995615D01*
X30690085Y-49098109D01*
X30815615Y-49170584D01*
X30815616Y-49170584D01*
X30815618Y-49170585D01*
X30885620Y-49189342D01*
X30955622Y-49208099D01*
X30955623Y-49208100D01*
X30955625Y-49208100D01*
X31100577Y-49208100D01*
X31100577Y-49208099D01*
X31240585Y-49170584D01*
X31366115Y-49098109D01*
X31468609Y-48995615D01*
X31541084Y-48870085D01*
X31578599Y-48730077D01*
X31578600Y-48730077D01*
X31578600Y-48585123D01*
X31578599Y-48585122D01*
X31570424Y-48554614D01*
X31541084Y-48445115D01*
X31468609Y-48319585D01*
X31366115Y-48217091D01*
X31240586Y-48144616D01*
X31240581Y-48144614D01*
X31100577Y-48107100D01*
X31100575Y-48107100D01*
X30955625Y-48107100D01*
X30955623Y-48107100D01*
X30815618Y-48144614D01*
X30815613Y-48144616D01*
X30690084Y-48217091D01*
X30587591Y-48319584D01*
X30515116Y-48445113D01*
X30515114Y-48445118D01*
X30477600Y-48585122D01*
X29228546Y-48585122D01*
X29159315Y-48515891D01*
X29033786Y-48443416D01*
X29033781Y-48443414D01*
X28893777Y-48405900D01*
X28893775Y-48405900D01*
X28748825Y-48405900D01*
X28748823Y-48405900D01*
X28608818Y-48443414D01*
X28608813Y-48443416D01*
X28483284Y-48515891D01*
X28380791Y-48618384D01*
X28308316Y-48743913D01*
X28308314Y-48743918D01*
X28270800Y-48883922D01*
X27685500Y-48883922D01*
X27685500Y-48824232D01*
X27685499Y-48824231D01*
X27652966Y-48702816D01*
X27646281Y-48677865D01*
X27570515Y-48546635D01*
X27463365Y-48439485D01*
X27463362Y-48439483D01*
X27332139Y-48363721D01*
X27332130Y-48363717D01*
X27185768Y-48324500D01*
X27185766Y-48324500D01*
X27034234Y-48324500D01*
X27034232Y-48324500D01*
X26887869Y-48363717D01*
X26887860Y-48363721D01*
X26756637Y-48439483D01*
X26649483Y-48546637D01*
X26573721Y-48677860D01*
X26573717Y-48677869D01*
X26534500Y-48824231D01*
X25208653Y-48824231D01*
X25154293Y-48730077D01*
X25154009Y-48729585D01*
X25051515Y-48627091D01*
X25036434Y-48618384D01*
X24925986Y-48554616D01*
X24925981Y-48554614D01*
X24785977Y-48517100D01*
X24785975Y-48517100D01*
X24641025Y-48517100D01*
X24641023Y-48517100D01*
X24501018Y-48554614D01*
X24501013Y-48554616D01*
X24375484Y-48627091D01*
X24272991Y-48729584D01*
X24200516Y-48855113D01*
X24200514Y-48855118D01*
X24163000Y-48995122D01*
X500500Y-48995122D01*
X500500Y-46529491D01*
X51850000Y-46529491D01*
X51850000Y-46710508D01*
X51878316Y-46889289D01*
X51878319Y-46889302D01*
X51934251Y-47061443D01*
X52016431Y-47222728D01*
X52057668Y-47279487D01*
X52531980Y-46805174D01*
X52534075Y-46812993D01*
X52599901Y-46927007D01*
X52692993Y-47020099D01*
X52807007Y-47085925D01*
X52814822Y-47088019D01*
X52340511Y-47562331D01*
X52397266Y-47603566D01*
X52558556Y-47685748D01*
X52558555Y-47685748D01*
X52730697Y-47741680D01*
X52730710Y-47741683D01*
X52909491Y-47770000D01*
X53090509Y-47770000D01*
X53269289Y-47741683D01*
X53269302Y-47741680D01*
X53441443Y-47685748D01*
X53602729Y-47603568D01*
X53659487Y-47562331D01*
X53185176Y-47088019D01*
X53192993Y-47085925D01*
X53307007Y-47020099D01*
X53400099Y-46927007D01*
X53465925Y-46812993D01*
X53468019Y-46805176D01*
X53942331Y-47279487D01*
X53983568Y-47222729D01*
X54065748Y-47061443D01*
X54121680Y-46889302D01*
X54121683Y-46889289D01*
X54150000Y-46710508D01*
X54150000Y-46529491D01*
X54121683Y-46350710D01*
X54121680Y-46350697D01*
X54065748Y-46178556D01*
X53983566Y-46017267D01*
X53983566Y-46017266D01*
X53942331Y-45960511D01*
X53468019Y-46434822D01*
X53465925Y-46427007D01*
X53400099Y-46312993D01*
X53307007Y-46219901D01*
X53192993Y-46154075D01*
X53185174Y-46151980D01*
X53659487Y-45677668D01*
X53602728Y-45636431D01*
X53441443Y-45554251D01*
X53441444Y-45554251D01*
X53269302Y-45498319D01*
X53269289Y-45498316D01*
X53090509Y-45470000D01*
X52909491Y-45470000D01*
X52730710Y-45498316D01*
X52730697Y-45498319D01*
X52558558Y-45554250D01*
X52397268Y-45636431D01*
X52340511Y-45677667D01*
X52340511Y-45677668D01*
X52814823Y-46151980D01*
X52807007Y-46154075D01*
X52692993Y-46219901D01*
X52599901Y-46312993D01*
X52534075Y-46427007D01*
X52531980Y-46434823D01*
X52057668Y-45960511D01*
X52057667Y-45960511D01*
X52016431Y-46017268D01*
X51934250Y-46178558D01*
X51878319Y-46350697D01*
X51878316Y-46350710D01*
X51850000Y-46529491D01*
X500500Y-46529491D01*
X500500Y-44686622D01*
X11274500Y-44686622D01*
X11274500Y-44831577D01*
X11312014Y-44971581D01*
X11312016Y-44971586D01*
X11384491Y-45097115D01*
X11486985Y-45199609D01*
X11612515Y-45272084D01*
X11612516Y-45272084D01*
X11612518Y-45272085D01*
X11682520Y-45290842D01*
X11752522Y-45309599D01*
X11752523Y-45309600D01*
X11752525Y-45309600D01*
X11897477Y-45309600D01*
X11897477Y-45309599D01*
X12037485Y-45272084D01*
X12163015Y-45199609D01*
X12265509Y-45097115D01*
X12337984Y-44971585D01*
X12375499Y-44831577D01*
X12375500Y-44831577D01*
X12375500Y-44686623D01*
X12375499Y-44686622D01*
X12337985Y-44546618D01*
X12337983Y-44546613D01*
X12265508Y-44421084D01*
X12163015Y-44318591D01*
X12037486Y-44246116D01*
X12037481Y-44246114D01*
X11897477Y-44208600D01*
X11897475Y-44208600D01*
X11752525Y-44208600D01*
X11752523Y-44208600D01*
X11612518Y-44246114D01*
X11612513Y-44246116D01*
X11486984Y-44318591D01*
X11384491Y-44421084D01*
X11312016Y-44546613D01*
X11312014Y-44546618D01*
X11274500Y-44686622D01*
X500500Y-44686622D01*
X500500Y-42897646D01*
X5699500Y-42897646D01*
X5699500Y-43102353D01*
X5731522Y-43304531D01*
X5731525Y-43304544D01*
X5794777Y-43499213D01*
X5887712Y-43681610D01*
X5961406Y-43783040D01*
X6008034Y-43847219D01*
X6152781Y-43991966D01*
X6244695Y-44058745D01*
X6318389Y-44112287D01*
X6406300Y-44157079D01*
X6500781Y-44205220D01*
X6500783Y-44205220D01*
X6500786Y-44205222D01*
X6695455Y-44268474D01*
X6695461Y-44268475D01*
X6695466Y-44268477D01*
X6796557Y-44284488D01*
X6897646Y-44300500D01*
X6897648Y-44300500D01*
X7102354Y-44300500D01*
X7183224Y-44287690D01*
X7304534Y-44268477D01*
X7304541Y-44268474D01*
X7304544Y-44268474D01*
X7499213Y-44205222D01*
X7499213Y-44205221D01*
X7499219Y-44205220D01*
X7681610Y-44112287D01*
X7847219Y-43991966D01*
X7991966Y-43847219D01*
X8112287Y-43681610D01*
X8205220Y-43499219D01*
X8249457Y-43363072D01*
X8268474Y-43304544D01*
X8268474Y-43304541D01*
X8268477Y-43304534D01*
X8300500Y-43102352D01*
X8300500Y-42897648D01*
X8300500Y-42897646D01*
X46699500Y-42897646D01*
X46699500Y-43102353D01*
X46731522Y-43304531D01*
X46731525Y-43304544D01*
X46794777Y-43499213D01*
X46887712Y-43681610D01*
X46961406Y-43783040D01*
X47008034Y-43847219D01*
X47152781Y-43991966D01*
X47244695Y-44058745D01*
X47318389Y-44112287D01*
X47406300Y-44157079D01*
X47500781Y-44205220D01*
X47500783Y-44205220D01*
X47500786Y-44205222D01*
X47695455Y-44268474D01*
X47695461Y-44268475D01*
X47695466Y-44268477D01*
X47796557Y-44284488D01*
X47897646Y-44300500D01*
X47897648Y-44300500D01*
X48102354Y-44300500D01*
X48183224Y-44287690D01*
X48304534Y-44268477D01*
X48304541Y-44268474D01*
X48304544Y-44268474D01*
X48499213Y-44205222D01*
X48499213Y-44205221D01*
X48499219Y-44205220D01*
X48681610Y-44112287D01*
X48845262Y-43993388D01*
X51899500Y-43993388D01*
X51899500Y-44166611D01*
X51926597Y-44337698D01*
X51926600Y-44337711D01*
X51980125Y-44502442D01*
X51980127Y-44502446D01*
X52058767Y-44656787D01*
X52080443Y-44686622D01*
X52160586Y-44796928D01*
X52283072Y-44919414D01*
X52283075Y-44919416D01*
X52283076Y-44919417D01*
X52423212Y-45021232D01*
X52577553Y-45099872D01*
X52577557Y-45099874D01*
X52742288Y-45153399D01*
X52742294Y-45153400D01*
X52742299Y-45153402D01*
X52856359Y-45171467D01*
X52913388Y-45180500D01*
X52913389Y-45180500D01*
X53086612Y-45180500D01*
X53129383Y-45173725D01*
X53257701Y-45153402D01*
X53257708Y-45153399D01*
X53257711Y-45153399D01*
X53422442Y-45099874D01*
X53422442Y-45099873D01*
X53422445Y-45099873D01*
X53576788Y-45021232D01*
X53716928Y-44919414D01*
X53839414Y-44796928D01*
X53941232Y-44656788D01*
X54019873Y-44502445D01*
X54073402Y-44337701D01*
X54100500Y-44166611D01*
X54100500Y-43993389D01*
X54073402Y-43822299D01*
X54073400Y-43822294D01*
X54073399Y-43822288D01*
X54019874Y-43657557D01*
X54019872Y-43657553D01*
X53941232Y-43503212D01*
X53839417Y-43363076D01*
X53839416Y-43363075D01*
X53839414Y-43363072D01*
X53716928Y-43240586D01*
X53716925Y-43240583D01*
X53716923Y-43240582D01*
X53576787Y-43138767D01*
X53422446Y-43060127D01*
X53422442Y-43060125D01*
X53257711Y-43006600D01*
X53257698Y-43006597D01*
X53086612Y-42979500D01*
X53086611Y-42979500D01*
X52913389Y-42979500D01*
X52913388Y-42979500D01*
X52742301Y-43006597D01*
X52742288Y-43006600D01*
X52577557Y-43060125D01*
X52577553Y-43060127D01*
X52423212Y-43138767D01*
X52283076Y-43240582D01*
X52160582Y-43363076D01*
X52058767Y-43503212D01*
X51980127Y-43657553D01*
X51980125Y-43657557D01*
X51926600Y-43822288D01*
X51926597Y-43822301D01*
X51899500Y-43993388D01*
X48845262Y-43993388D01*
X48847219Y-43991966D01*
X48991966Y-43847219D01*
X49112287Y-43681610D01*
X49205220Y-43499219D01*
X49249457Y-43363072D01*
X49268474Y-43304544D01*
X49268474Y-43304541D01*
X49268477Y-43304534D01*
X49300500Y-43102352D01*
X49300500Y-42897648D01*
X49268477Y-42695466D01*
X49268475Y-42695461D01*
X49268474Y-42695455D01*
X49205222Y-42500786D01*
X49205220Y-42500783D01*
X49205220Y-42500781D01*
X49143378Y-42379409D01*
X49112287Y-42318389D01*
X49001694Y-42166171D01*
X48991966Y-42152781D01*
X48847219Y-42008034D01*
X48783040Y-41961406D01*
X48681610Y-41887712D01*
X48499213Y-41794777D01*
X48304544Y-41731525D01*
X48304531Y-41731522D01*
X48102354Y-41699500D01*
X48102352Y-41699500D01*
X47897648Y-41699500D01*
X47897646Y-41699500D01*
X47695468Y-41731522D01*
X47695455Y-41731525D01*
X47500786Y-41794777D01*
X47318389Y-41887712D01*
X47181023Y-41987515D01*
X47152781Y-42008034D01*
X47008034Y-42152781D01*
X47008031Y-42152784D01*
X47008031Y-42152785D01*
X46887712Y-42318389D01*
X46794777Y-42500786D01*
X46731525Y-42695455D01*
X46731522Y-42695468D01*
X46699500Y-42897646D01*
X8300500Y-42897646D01*
X8268477Y-42695466D01*
X8268475Y-42695461D01*
X8268474Y-42695455D01*
X8205222Y-42500786D01*
X8205220Y-42500783D01*
X8205220Y-42500781D01*
X8143378Y-42379409D01*
X8112287Y-42318389D01*
X8001699Y-42166178D01*
X7991966Y-42152781D01*
X7966707Y-42127522D01*
X30402800Y-42127522D01*
X30402800Y-42272477D01*
X30440314Y-42412481D01*
X30440316Y-42412486D01*
X30480007Y-42481232D01*
X30512791Y-42538015D01*
X30615285Y-42640509D01*
X30707176Y-42693563D01*
X30731463Y-42707585D01*
X30740815Y-42712984D01*
X30740816Y-42712984D01*
X30740818Y-42712985D01*
X30810820Y-42731742D01*
X30880822Y-42750499D01*
X30880823Y-42750500D01*
X30880825Y-42750500D01*
X31025777Y-42750500D01*
X31025777Y-42750499D01*
X31165785Y-42712984D01*
X31291315Y-42640509D01*
X31393809Y-42538015D01*
X31466284Y-42412485D01*
X31503799Y-42272477D01*
X31503800Y-42272477D01*
X31503800Y-42127527D01*
X31503798Y-42127518D01*
X31502352Y-42122123D01*
X31502352Y-42122122D01*
X38762000Y-42122122D01*
X38762000Y-42267077D01*
X38799514Y-42407081D01*
X38799516Y-42407086D01*
X38853614Y-42500786D01*
X38871991Y-42532615D01*
X38974485Y-42635109D01*
X39066376Y-42688163D01*
X39079029Y-42695468D01*
X39100015Y-42707584D01*
X39100016Y-42707584D01*
X39100018Y-42707585D01*
X39170020Y-42726342D01*
X39240022Y-42745099D01*
X39240023Y-42745100D01*
X39240025Y-42745100D01*
X39384977Y-42745100D01*
X39384977Y-42745099D01*
X39524985Y-42707584D01*
X39650515Y-42635109D01*
X39753009Y-42532615D01*
X39825484Y-42407085D01*
X39862999Y-42267077D01*
X39863000Y-42267077D01*
X39863000Y-42122123D01*
X39862999Y-42122122D01*
X39861569Y-42116787D01*
X39844242Y-42052120D01*
X39825485Y-41982118D01*
X39825483Y-41982113D01*
X39770980Y-41887712D01*
X39753009Y-41856585D01*
X39650515Y-41754091D01*
X39611430Y-41731525D01*
X39524986Y-41681616D01*
X39524981Y-41681614D01*
X39384977Y-41644100D01*
X39384975Y-41644100D01*
X39240025Y-41644100D01*
X39240023Y-41644100D01*
X39100018Y-41681614D01*
X39100013Y-41681616D01*
X38974484Y-41754091D01*
X38871991Y-41856584D01*
X38799516Y-41982113D01*
X38799514Y-41982118D01*
X38762000Y-42122122D01*
X31502352Y-42122122D01*
X31489244Y-42073202D01*
X31466285Y-41987518D01*
X31466283Y-41987513D01*
X31408663Y-41887713D01*
X31393809Y-41861985D01*
X31291315Y-41759491D01*
X31242877Y-41731525D01*
X31165786Y-41687016D01*
X31165781Y-41687014D01*
X31025777Y-41649500D01*
X31025775Y-41649500D01*
X30880825Y-41649500D01*
X30880823Y-41649500D01*
X30740818Y-41687014D01*
X30740813Y-41687016D01*
X30615284Y-41759491D01*
X30512791Y-41861984D01*
X30440316Y-41987513D01*
X30440314Y-41987518D01*
X30402800Y-42127522D01*
X7966707Y-42127522D01*
X7847219Y-42008034D01*
X7783040Y-41961406D01*
X7681610Y-41887712D01*
X7499213Y-41794777D01*
X7304544Y-41731525D01*
X7304531Y-41731522D01*
X7102354Y-41699500D01*
X7102352Y-41699500D01*
X6897648Y-41699500D01*
X6897646Y-41699500D01*
X6695468Y-41731522D01*
X6695455Y-41731525D01*
X6500786Y-41794777D01*
X6318389Y-41887712D01*
X6181023Y-41987515D01*
X6152781Y-42008034D01*
X6008034Y-42152781D01*
X6008031Y-42152784D01*
X6008031Y-42152785D01*
X5887712Y-42318389D01*
X5794777Y-42500786D01*
X5731525Y-42695455D01*
X5731522Y-42695468D01*
X5699500Y-42897646D01*
X500500Y-42897646D01*
X500500Y-41572722D01*
X42891700Y-41572722D01*
X42891700Y-41717677D01*
X42929214Y-41857681D01*
X42929216Y-41857686D01*
X42989698Y-41962442D01*
X43001691Y-41983215D01*
X43104185Y-42085709D01*
X43167254Y-42122122D01*
X43220363Y-42152785D01*
X43229715Y-42158184D01*
X43229716Y-42158184D01*
X43229718Y-42158185D01*
X43299720Y-42176942D01*
X43369722Y-42195699D01*
X43369723Y-42195700D01*
X43369725Y-42195700D01*
X43514677Y-42195700D01*
X43514677Y-42195699D01*
X43654685Y-42158184D01*
X43780215Y-42085709D01*
X43882709Y-41983215D01*
X43955184Y-41857685D01*
X43992699Y-41717677D01*
X43992700Y-41717677D01*
X43992700Y-41572723D01*
X43992699Y-41572722D01*
X43960723Y-41453388D01*
X51899500Y-41453388D01*
X51899500Y-41626611D01*
X51926597Y-41797698D01*
X51926600Y-41797711D01*
X51980125Y-41962442D01*
X51980127Y-41962446D01*
X52058767Y-42116787D01*
X52088844Y-42158185D01*
X52160586Y-42256928D01*
X52283072Y-42379414D01*
X52283075Y-42379416D01*
X52283076Y-42379417D01*
X52423212Y-42481232D01*
X52577553Y-42559872D01*
X52577557Y-42559874D01*
X52742288Y-42613399D01*
X52742294Y-42613400D01*
X52742299Y-42613402D01*
X52856359Y-42631467D01*
X52913388Y-42640500D01*
X52913389Y-42640500D01*
X53086612Y-42640500D01*
X53129383Y-42633725D01*
X53257701Y-42613402D01*
X53257708Y-42613399D01*
X53257711Y-42613399D01*
X53422442Y-42559874D01*
X53422442Y-42559873D01*
X53422445Y-42559873D01*
X53576788Y-42481232D01*
X53716928Y-42379414D01*
X53839414Y-42256928D01*
X53941232Y-42116788D01*
X54019873Y-41962445D01*
X54044155Y-41887713D01*
X54073399Y-41797711D01*
X54073399Y-41797708D01*
X54073402Y-41797701D01*
X54100500Y-41626611D01*
X54100500Y-41453389D01*
X54073402Y-41282299D01*
X54073400Y-41282294D01*
X54073399Y-41282288D01*
X54019874Y-41117557D01*
X54019872Y-41117553D01*
X53941232Y-40963212D01*
X53839417Y-40823076D01*
X53839416Y-40823075D01*
X53839414Y-40823072D01*
X53716928Y-40700586D01*
X53716925Y-40700583D01*
X53716923Y-40700582D01*
X53576787Y-40598767D01*
X53422446Y-40520127D01*
X53422442Y-40520125D01*
X53257711Y-40466600D01*
X53257698Y-40466597D01*
X53086612Y-40439500D01*
X53086611Y-40439500D01*
X52913389Y-40439500D01*
X52913388Y-40439500D01*
X52742301Y-40466597D01*
X52742288Y-40466600D01*
X52577557Y-40520125D01*
X52577553Y-40520127D01*
X52423212Y-40598767D01*
X52283076Y-40700582D01*
X52160582Y-40823076D01*
X52058767Y-40963212D01*
X51980127Y-41117553D01*
X51980125Y-41117557D01*
X51926600Y-41282288D01*
X51926597Y-41282301D01*
X51899500Y-41453388D01*
X43960723Y-41453388D01*
X43955184Y-41432715D01*
X43882709Y-41307185D01*
X43780215Y-41204691D01*
X43654686Y-41132216D01*
X43654681Y-41132214D01*
X43514677Y-41094700D01*
X43514675Y-41094700D01*
X43369725Y-41094700D01*
X43369723Y-41094700D01*
X43229718Y-41132214D01*
X43229713Y-41132216D01*
X43104184Y-41204691D01*
X43001691Y-41307184D01*
X42929216Y-41432713D01*
X42929214Y-41432718D01*
X42891700Y-41572722D01*
X500500Y-41572722D01*
X500500Y-37018622D01*
X10349600Y-37018622D01*
X10349600Y-37163577D01*
X10387114Y-37303581D01*
X10387116Y-37303586D01*
X10459591Y-37429115D01*
X10562085Y-37531609D01*
X10687615Y-37604084D01*
X10687616Y-37604084D01*
X10687618Y-37604085D01*
X10757620Y-37622842D01*
X10827622Y-37641599D01*
X10827623Y-37641600D01*
X10827625Y-37641600D01*
X10972577Y-37641600D01*
X10972577Y-37641599D01*
X11112585Y-37604084D01*
X11238115Y-37531609D01*
X11340609Y-37429115D01*
X11413084Y-37303585D01*
X11450599Y-37163577D01*
X11450600Y-37163577D01*
X11450600Y-37018623D01*
X11450599Y-37018622D01*
X11413085Y-36878618D01*
X11413083Y-36878613D01*
X11393663Y-36844976D01*
X11340609Y-36753085D01*
X11238115Y-36650591D01*
X11112586Y-36578116D01*
X11112581Y-36578114D01*
X10972577Y-36540600D01*
X10972575Y-36540600D01*
X10827625Y-36540600D01*
X10827623Y-36540600D01*
X10687618Y-36578114D01*
X10687613Y-36578116D01*
X10562084Y-36650591D01*
X10459591Y-36753084D01*
X10387116Y-36878613D01*
X10387114Y-36878618D01*
X10349600Y-37018622D01*
X500500Y-37018622D01*
X500500Y-26196722D01*
X7680100Y-26196722D01*
X7680100Y-26341677D01*
X7717614Y-26481681D01*
X7717616Y-26481686D01*
X7790091Y-26607215D01*
X7892585Y-26709709D01*
X8018115Y-26782184D01*
X8018116Y-26782184D01*
X8018118Y-26782185D01*
X8088120Y-26800942D01*
X8158122Y-26819699D01*
X8158123Y-26819700D01*
X8158125Y-26819700D01*
X8303077Y-26819700D01*
X8303077Y-26819699D01*
X8443085Y-26782184D01*
X8568615Y-26709709D01*
X8671109Y-26607215D01*
X8743584Y-26481685D01*
X8781099Y-26341677D01*
X8781100Y-26341677D01*
X8781100Y-26196723D01*
X8781099Y-26196722D01*
X8743585Y-26056718D01*
X8743583Y-26056713D01*
X8710365Y-25999179D01*
X8671109Y-25931185D01*
X8568615Y-25828691D01*
X8443086Y-25756216D01*
X8443081Y-25756214D01*
X8303077Y-25718700D01*
X8303075Y-25718700D01*
X8158125Y-25718700D01*
X8158123Y-25718700D01*
X8018118Y-25756214D01*
X8018113Y-25756216D01*
X7892584Y-25828691D01*
X7790091Y-25931184D01*
X7717616Y-26056713D01*
X7717614Y-26056718D01*
X7680100Y-26196722D01*
X500500Y-26196722D01*
X500500Y-18393711D01*
X4489500Y-18393711D01*
X4489500Y-18606288D01*
X4522753Y-18816240D01*
X4522756Y-18816253D01*
X4588440Y-19018406D01*
X4684948Y-19207816D01*
X4761475Y-19313146D01*
X4809896Y-19379792D01*
X4960208Y-19530104D01*
X5014910Y-19569847D01*
X5132183Y-19655051D01*
X5152691Y-19665500D01*
X5321588Y-19751557D01*
X5321590Y-19751557D01*
X5321593Y-19751559D01*
X5523746Y-19817243D01*
X5523752Y-19817244D01*
X5523757Y-19817246D01*
X5628735Y-19833873D01*
X5733711Y-19850500D01*
X5733713Y-19850500D01*
X5946289Y-19850500D01*
X6030269Y-19837198D01*
X6156243Y-19817246D01*
X6156250Y-19817243D01*
X6156253Y-19817243D01*
X6358406Y-19751559D01*
X6358406Y-19751558D01*
X6358412Y-19751557D01*
X6547816Y-19655051D01*
X6719792Y-19530104D01*
X6870104Y-19379792D01*
X6995051Y-19207816D01*
X7091557Y-19018412D01*
X7099688Y-18993388D01*
X7157243Y-18816253D01*
X7157243Y-18816250D01*
X7157246Y-18816243D01*
X7190500Y-18606287D01*
X7190500Y-18393713D01*
X7190097Y-18391170D01*
X7157246Y-18183759D01*
X7157243Y-18183746D01*
X7091559Y-17981593D01*
X7091557Y-17981590D01*
X7091557Y-17981588D01*
X7025306Y-17851562D01*
X6995051Y-17792183D01*
X6938624Y-17714518D01*
X6870104Y-17620208D01*
X6719792Y-17469896D01*
X6634145Y-17407670D01*
X6547816Y-17344948D01*
X6358406Y-17248440D01*
X6156253Y-17182756D01*
X6156240Y-17182753D01*
X5946289Y-17149500D01*
X5946287Y-17149500D01*
X5733713Y-17149500D01*
X5733711Y-17149500D01*
X5523759Y-17182753D01*
X5523746Y-17182756D01*
X5321593Y-17248440D01*
X5132183Y-17344948D01*
X4974517Y-17459500D01*
X4960208Y-17469896D01*
X4809896Y-17620208D01*
X4809893Y-17620211D01*
X4809893Y-17620212D01*
X4684948Y-17792183D01*
X4588440Y-17981593D01*
X4522756Y-18183746D01*
X4522753Y-18183759D01*
X4489500Y-18393711D01*
X500500Y-18393711D01*
X500500Y-15516022D01*
X6644400Y-15516022D01*
X6644400Y-15660977D01*
X6681914Y-15800981D01*
X6681916Y-15800986D01*
X6703964Y-15839174D01*
X6754391Y-15926515D01*
X6856885Y-16029009D01*
X6875922Y-16040000D01*
X6977343Y-16098556D01*
X6982415Y-16101484D01*
X6982416Y-16101484D01*
X6982418Y-16101485D01*
X7001646Y-16106637D01*
X7122422Y-16138999D01*
X7122423Y-16139000D01*
X7122425Y-16139000D01*
X7267377Y-16139000D01*
X7267377Y-16138999D01*
X7407385Y-16101484D01*
X7532915Y-16029009D01*
X7601250Y-15960674D01*
X7653576Y-15939000D01*
X12912666Y-15939000D01*
X12964992Y-15960674D01*
X14627826Y-17623508D01*
X14649500Y-17675834D01*
X14649500Y-19397874D01*
X14655909Y-19457483D01*
X14655910Y-19457488D01*
X14706203Y-19592329D01*
X14706203Y-19592330D01*
X14760977Y-19665500D01*
X14792453Y-19707547D01*
X14907669Y-19793796D01*
X15042516Y-19844091D01*
X15096338Y-19849877D01*
X15102125Y-19850500D01*
X15102126Y-19850500D01*
X15575500Y-19850500D01*
X15627826Y-19872174D01*
X15649500Y-19924500D01*
X15649500Y-26229946D01*
X15660366Y-26270498D01*
X15660366Y-26270499D01*
X15673384Y-26319083D01*
X15673386Y-26319088D01*
X15719530Y-26399012D01*
X19013031Y-29692512D01*
X19078288Y-29757769D01*
X19078290Y-29757770D01*
X19078291Y-29757771D01*
X19158210Y-29803913D01*
X19158212Y-29803914D01*
X19158213Y-29803914D01*
X19158215Y-29803915D01*
X19175006Y-29808414D01*
X19247353Y-29827799D01*
X19247354Y-29827800D01*
X19247356Y-29827800D01*
X19730539Y-29827800D01*
X19782865Y-29849474D01*
X19804539Y-29901800D01*
X19782865Y-29954126D01*
X19776718Y-29959170D01*
X19776901Y-29959393D01*
X19774091Y-29961699D01*
X19641699Y-30094091D01*
X19641697Y-30094092D01*
X19537676Y-30249772D01*
X19466027Y-30422748D01*
X19466025Y-30422754D01*
X19445271Y-30527096D01*
X19413805Y-30574188D01*
X19358256Y-30585237D01*
X19320367Y-30564985D01*
X9821474Y-21066092D01*
X9799800Y-21013766D01*
X9799800Y-21011376D01*
X9821474Y-20959050D01*
X9832749Y-20947775D01*
X9889809Y-20890715D01*
X9962284Y-20765185D01*
X9999799Y-20625177D01*
X9999800Y-20625177D01*
X9999800Y-20480223D01*
X9999799Y-20480222D01*
X9962285Y-20340218D01*
X9962283Y-20340213D01*
X9889808Y-20214684D01*
X9787315Y-20112191D01*
X9661786Y-20039716D01*
X9661781Y-20039714D01*
X9521777Y-20002200D01*
X9521775Y-20002200D01*
X9376825Y-20002200D01*
X9376823Y-20002200D01*
X9236818Y-20039714D01*
X9236813Y-20039716D01*
X9111284Y-20112191D01*
X9008791Y-20214684D01*
X8936316Y-20340213D01*
X8936314Y-20340218D01*
X8898800Y-20480222D01*
X8898800Y-20625177D01*
X8936314Y-20765181D01*
X8936316Y-20765186D01*
X9008791Y-20890715D01*
X9077126Y-20959050D01*
X9098800Y-21011376D01*
X9098800Y-21235746D01*
X9109532Y-21275798D01*
X9109532Y-21275799D01*
X9122684Y-21324883D01*
X9122686Y-21324888D01*
X9168830Y-21404812D01*
X20058788Y-32294770D01*
X20133881Y-32338125D01*
X20138712Y-32340914D01*
X20227853Y-32364799D01*
X20227854Y-32364800D01*
X20227856Y-32364800D01*
X28141646Y-32364800D01*
X28141646Y-32364799D01*
X28230788Y-32340914D01*
X28235619Y-32338125D01*
X28310712Y-32294770D01*
X29378670Y-31226812D01*
X29424814Y-31146888D01*
X29448699Y-31057746D01*
X29448700Y-31057746D01*
X29448700Y-30903334D01*
X29470372Y-30851010D01*
X29481361Y-30840020D01*
X29533685Y-30818345D01*
X29586012Y-30840017D01*
X29606266Y-30877908D01*
X29626025Y-30977245D01*
X29626027Y-30977251D01*
X29696293Y-31146889D01*
X29697678Y-31150231D01*
X29759196Y-31242299D01*
X29797502Y-31299629D01*
X29801698Y-31305908D01*
X29934092Y-31438302D01*
X30089769Y-31542322D01*
X30262749Y-31613973D01*
X30446384Y-31650500D01*
X30446385Y-31650500D01*
X30633615Y-31650500D01*
X30633616Y-31650500D01*
X30817251Y-31613973D01*
X30871300Y-31591585D01*
X30927936Y-31591585D01*
X30951944Y-31607626D01*
X37244788Y-37900470D01*
X37324712Y-37946614D01*
X37324713Y-37946614D01*
X37324715Y-37946615D01*
X37369284Y-37958557D01*
X37413853Y-37970499D01*
X37413854Y-37970500D01*
X37413856Y-37970500D01*
X37506144Y-37970500D01*
X40902986Y-37970500D01*
X40955312Y-37992174D01*
X40973364Y-38021633D01*
X40980123Y-38042437D01*
X41058767Y-38196788D01*
X41160582Y-38336923D01*
X41160586Y-38336928D01*
X41283072Y-38459414D01*
X41283075Y-38459416D01*
X41283076Y-38459417D01*
X41423212Y-38561232D01*
X41577553Y-38639872D01*
X41577557Y-38639874D01*
X41742288Y-38693399D01*
X41742294Y-38693400D01*
X41742299Y-38693402D01*
X41830223Y-38707327D01*
X41879603Y-38715149D01*
X41927894Y-38744742D01*
X41941116Y-38799814D01*
X41920353Y-38840564D01*
X40573292Y-40187626D01*
X40520966Y-40209300D01*
X21408676Y-40209300D01*
X21356350Y-40187626D01*
X21288015Y-40119291D01*
X21162486Y-40046816D01*
X21162481Y-40046814D01*
X21022477Y-40009300D01*
X21022475Y-40009300D01*
X20925834Y-40009300D01*
X20873508Y-39987626D01*
X16299704Y-35413822D01*
X21005600Y-35413822D01*
X21005600Y-35558777D01*
X21043114Y-35698781D01*
X21043116Y-35698786D01*
X21099776Y-35796923D01*
X21115591Y-35824315D01*
X21218085Y-35926809D01*
X21343615Y-35999284D01*
X21343616Y-35999284D01*
X21343618Y-35999285D01*
X21413620Y-36018042D01*
X21483622Y-36036799D01*
X21483623Y-36036800D01*
X21483625Y-36036800D01*
X21628577Y-36036800D01*
X21628577Y-36036799D01*
X21768585Y-35999284D01*
X21894115Y-35926809D01*
X21996609Y-35824315D01*
X22069084Y-35698785D01*
X22106599Y-35558777D01*
X22106600Y-35558777D01*
X22106600Y-35413823D01*
X22106599Y-35413822D01*
X22104667Y-35406613D01*
X22069084Y-35273815D01*
X21996609Y-35148285D01*
X21894115Y-35045791D01*
X21890660Y-35043796D01*
X21768586Y-34973316D01*
X21768581Y-34973314D01*
X21628577Y-34935800D01*
X21628575Y-34935800D01*
X21483625Y-34935800D01*
X21483623Y-34935800D01*
X21343618Y-34973314D01*
X21343613Y-34973316D01*
X21218084Y-35045791D01*
X21115591Y-35148284D01*
X21043116Y-35273813D01*
X21043114Y-35273818D01*
X21005600Y-35413822D01*
X16299704Y-35413822D01*
X15143112Y-34257230D01*
X15063189Y-34211086D01*
X15063184Y-34211084D01*
X14974046Y-34187200D01*
X14974044Y-34187200D01*
X13669276Y-34187200D01*
X13616950Y-34165526D01*
X13548615Y-34097191D01*
X13423086Y-34024716D01*
X13423081Y-34024714D01*
X13283077Y-33987200D01*
X13283075Y-33987200D01*
X13138125Y-33987200D01*
X13138123Y-33987200D01*
X12998118Y-34024714D01*
X12998113Y-34024716D01*
X12872584Y-34097191D01*
X12770091Y-34199684D01*
X12697616Y-34325213D01*
X12697614Y-34325218D01*
X12660100Y-34465222D01*
X12660100Y-34610177D01*
X12697614Y-34750181D01*
X12697616Y-34750186D01*
X12750816Y-34842330D01*
X12770091Y-34875715D01*
X12872585Y-34978209D01*
X12964476Y-35031263D01*
X12986184Y-35043796D01*
X12998115Y-35050684D01*
X12998116Y-35050684D01*
X12998118Y-35050685D01*
X13068120Y-35069442D01*
X13138122Y-35088199D01*
X13138123Y-35088200D01*
X13138125Y-35088200D01*
X13283077Y-35088200D01*
X13283077Y-35088199D01*
X13423085Y-35050684D01*
X13548615Y-34978209D01*
X13616950Y-34909874D01*
X13669276Y-34888200D01*
X14752066Y-34888200D01*
X14804392Y-34909874D01*
X20377826Y-40483308D01*
X20399500Y-40535634D01*
X20399500Y-40632277D01*
X20437014Y-40772281D01*
X20437016Y-40772286D01*
X20476267Y-40840270D01*
X20509491Y-40897815D01*
X20611985Y-41000309D01*
X20737515Y-41072784D01*
X20737516Y-41072784D01*
X20737518Y-41072785D01*
X20807520Y-41091542D01*
X20877522Y-41110299D01*
X20877523Y-41110300D01*
X20877525Y-41110300D01*
X21022477Y-41110300D01*
X21022477Y-41110299D01*
X21162485Y-41072784D01*
X21288015Y-41000309D01*
X21356350Y-40931974D01*
X21408676Y-40910300D01*
X40742946Y-40910300D01*
X40742946Y-40910299D01*
X40832088Y-40886414D01*
X40852003Y-40874916D01*
X40912012Y-40840270D01*
X47025171Y-34727109D01*
X47077496Y-34705436D01*
X47129822Y-34727110D01*
X47129822Y-34727111D01*
X51683083Y-39280466D01*
X51683490Y-39280760D01*
X51684976Y-39281559D01*
X51720172Y-39301880D01*
X51760952Y-39325425D01*
X51760957Y-39325428D01*
X51763007Y-39326612D01*
X51763010Y-39326612D01*
X51763012Y-39326614D01*
X51844654Y-39348489D01*
X51889586Y-39382968D01*
X51899500Y-39419968D01*
X51899500Y-39874672D01*
X51914034Y-39947740D01*
X51940684Y-39987626D01*
X51969399Y-40030601D01*
X52052260Y-40085966D01*
X52125326Y-40100500D01*
X52125328Y-40100500D01*
X53874672Y-40100500D01*
X53874674Y-40100500D01*
X53947740Y-40085966D01*
X54030601Y-40030601D01*
X54085966Y-39947740D01*
X54100500Y-39874674D01*
X54100500Y-38125326D01*
X54085966Y-38052260D01*
X54030601Y-37969399D01*
X53996500Y-37946614D01*
X53947740Y-37914034D01*
X53874674Y-37899500D01*
X52125326Y-37899500D01*
X52076615Y-37909189D01*
X52052259Y-37914034D01*
X51969399Y-37969398D01*
X51969398Y-37969399D01*
X51914034Y-38052259D01*
X51899500Y-38125327D01*
X51899500Y-38326858D01*
X51877826Y-38379184D01*
X51825500Y-38400858D01*
X51773175Y-38379184D01*
X51773174Y-38379183D01*
X47449674Y-34055594D01*
X47428000Y-34003269D01*
X47428000Y-33929654D01*
X47427999Y-33929653D01*
X47404115Y-33840515D01*
X47404113Y-33840510D01*
X47357971Y-33760591D01*
X47357970Y-33760590D01*
X47357969Y-33760588D01*
X47292712Y-33695331D01*
X43316912Y-29719530D01*
X43236989Y-29673386D01*
X43236984Y-29673384D01*
X43155347Y-29651509D01*
X43110414Y-29617030D01*
X43100500Y-29580031D01*
X43100500Y-29318300D01*
X43122174Y-29265974D01*
X43174500Y-29244300D01*
X46717966Y-29244300D01*
X46770292Y-29265974D01*
X50734847Y-33230529D01*
X50756521Y-33282855D01*
X50756097Y-33290765D01*
X50749500Y-33352125D01*
X50749500Y-34647873D01*
X50755909Y-34707485D01*
X50806202Y-34842329D01*
X50806203Y-34842330D01*
X50806204Y-34842331D01*
X50892454Y-34957546D01*
X51007669Y-35043796D01*
X51007670Y-35043797D01*
X51118605Y-35085172D01*
X51142517Y-35094091D01*
X51202127Y-35100500D01*
X52797872Y-35100499D01*
X52857483Y-35094091D01*
X52973861Y-35050685D01*
X52992329Y-35043797D01*
X52992329Y-35043796D01*
X52992331Y-35043796D01*
X53107546Y-34957546D01*
X53193796Y-34842331D01*
X53201268Y-34822299D01*
X53228164Y-34750185D01*
X53244091Y-34707483D01*
X53250500Y-34647873D01*
X53250499Y-33352128D01*
X53244091Y-33292517D01*
X53220971Y-33230529D01*
X53193797Y-33157670D01*
X53193796Y-33157669D01*
X53182611Y-33142728D01*
X53107546Y-33042454D01*
X52992331Y-32956204D01*
X52992330Y-32956203D01*
X52992329Y-32956202D01*
X52857487Y-32905910D01*
X52857484Y-32905909D01*
X52857483Y-32905909D01*
X52827678Y-32902704D01*
X52797874Y-32899500D01*
X52797873Y-32899500D01*
X51425834Y-32899500D01*
X51373508Y-32877826D01*
X49909070Y-31413388D01*
X50749500Y-31413388D01*
X50749500Y-31586611D01*
X50776597Y-31757698D01*
X50776600Y-31757711D01*
X50830125Y-31922442D01*
X50830127Y-31922446D01*
X50908767Y-32076787D01*
X50953880Y-32138880D01*
X51010586Y-32216928D01*
X51133072Y-32339414D01*
X51133075Y-32339416D01*
X51133076Y-32339417D01*
X51273212Y-32441232D01*
X51427553Y-32519872D01*
X51427557Y-32519874D01*
X51592288Y-32573399D01*
X51592294Y-32573400D01*
X51592299Y-32573402D01*
X51706359Y-32591467D01*
X51763388Y-32600500D01*
X51763389Y-32600500D01*
X52236612Y-32600500D01*
X52279383Y-32593725D01*
X52407701Y-32573402D01*
X52407708Y-32573399D01*
X52407711Y-32573399D01*
X52572442Y-32519874D01*
X52572442Y-32519873D01*
X52572445Y-32519873D01*
X52726788Y-32441232D01*
X52866928Y-32339414D01*
X52989414Y-32216928D01*
X53091232Y-32076788D01*
X53169873Y-31922445D01*
X53169874Y-31922442D01*
X53223399Y-31757711D01*
X53223399Y-31757708D01*
X53223402Y-31757701D01*
X53250500Y-31586611D01*
X53250500Y-31413389D01*
X53223402Y-31242299D01*
X53223400Y-31242294D01*
X53223399Y-31242288D01*
X53169874Y-31077557D01*
X53169872Y-31077553D01*
X53091232Y-30923212D01*
X52989417Y-30783076D01*
X52989416Y-30783075D01*
X52989414Y-30783072D01*
X52866928Y-30660586D01*
X52866925Y-30660583D01*
X52866923Y-30660582D01*
X52726787Y-30558767D01*
X52572446Y-30480127D01*
X52572442Y-30480125D01*
X52407711Y-30426600D01*
X52407698Y-30426597D01*
X52236612Y-30399500D01*
X52236611Y-30399500D01*
X51763389Y-30399500D01*
X51763388Y-30399500D01*
X51592301Y-30426597D01*
X51592288Y-30426600D01*
X51427557Y-30480125D01*
X51427553Y-30480127D01*
X51273212Y-30558767D01*
X51133076Y-30660582D01*
X51010582Y-30783076D01*
X50908767Y-30923212D01*
X50830127Y-31077553D01*
X50830125Y-31077557D01*
X50776600Y-31242288D01*
X50776597Y-31242301D01*
X50749500Y-31413388D01*
X49909070Y-31413388D01*
X47109012Y-28613330D01*
X47029089Y-28567186D01*
X47029084Y-28567184D01*
X46939946Y-28543300D01*
X46939944Y-28543300D01*
X39443844Y-28543300D01*
X39351556Y-28543300D01*
X39351554Y-28543300D01*
X39262415Y-28567184D01*
X39262410Y-28567186D01*
X39182487Y-28613330D01*
X39138492Y-28657326D01*
X39086166Y-28679000D01*
X37764500Y-28679000D01*
X37712174Y-28657326D01*
X37690500Y-28605000D01*
X37690500Y-27782800D01*
X37712174Y-27730474D01*
X37764500Y-27708800D01*
X48687846Y-27708800D01*
X48687846Y-27708799D01*
X48776988Y-27684914D01*
X48856912Y-27638770D01*
X51373507Y-25122172D01*
X51425833Y-25100499D01*
X52797872Y-25100499D01*
X52857483Y-25094091D01*
X52924907Y-25068943D01*
X52992329Y-25043797D01*
X52992329Y-25043796D01*
X52992331Y-25043796D01*
X53107546Y-24957546D01*
X53193796Y-24842331D01*
X53202312Y-24819500D01*
X53232973Y-24737291D01*
X53244091Y-24707483D01*
X53250500Y-24647873D01*
X53250499Y-23352128D01*
X53244091Y-23292517D01*
X53194233Y-23158840D01*
X53193797Y-23157670D01*
X53193796Y-23157669D01*
X53107546Y-23042454D01*
X52992331Y-22956204D01*
X52992330Y-22956203D01*
X52992329Y-22956202D01*
X52857487Y-22905910D01*
X52857484Y-22905909D01*
X52857483Y-22905909D01*
X52797873Y-22899500D01*
X51202126Y-22899500D01*
X51142514Y-22905909D01*
X51007670Y-22956202D01*
X51007669Y-22956203D01*
X50892454Y-23042454D01*
X50806203Y-23157669D01*
X50806202Y-23157670D01*
X50755910Y-23292512D01*
X50755909Y-23292517D01*
X50749500Y-23352126D01*
X50749500Y-24647873D01*
X50749501Y-24647874D01*
X50756097Y-24709234D01*
X50740140Y-24763577D01*
X50734847Y-24769469D01*
X48518192Y-26986126D01*
X48465866Y-27007800D01*
X29870056Y-27007800D01*
X29833321Y-27017643D01*
X29777169Y-27010250D01*
X29742690Y-26965316D01*
X29750083Y-26909164D01*
X29761840Y-26893840D01*
X31933508Y-24722174D01*
X31985834Y-24700500D01*
X42883746Y-24700500D01*
X42883746Y-24700499D01*
X42972888Y-24676614D01*
X43052812Y-24630470D01*
X45450270Y-22233012D01*
X45496414Y-22153088D01*
X45511063Y-22098416D01*
X45520300Y-22063944D01*
X45520300Y-20203656D01*
X45520300Y-20203654D01*
X45520299Y-20203653D01*
X45496415Y-20114515D01*
X45496411Y-20114506D01*
X45487967Y-20099880D01*
X45487961Y-20099872D01*
X45487961Y-20099871D01*
X45450270Y-20034588D01*
X45023546Y-19607864D01*
X45001872Y-19555538D01*
X45009937Y-19521944D01*
X45019873Y-19502445D01*
X45034482Y-19457483D01*
X45073399Y-19337711D01*
X45073399Y-19337708D01*
X45073402Y-19337701D01*
X45100500Y-19166611D01*
X45100500Y-18993389D01*
X45073402Y-18822299D01*
X45073400Y-18822294D01*
X45073399Y-18822288D01*
X45019874Y-18657557D01*
X45019872Y-18657553D01*
X44941232Y-18503212D01*
X44839417Y-18363076D01*
X44839416Y-18363075D01*
X44839414Y-18363072D01*
X44763168Y-18286826D01*
X44741494Y-18234500D01*
X44763168Y-18182174D01*
X44815494Y-18160500D01*
X48236146Y-18160500D01*
X48236146Y-18160499D01*
X48325288Y-18136614D01*
X48352642Y-18120821D01*
X48405212Y-18090470D01*
X51373508Y-15122172D01*
X51425834Y-15100499D01*
X52797872Y-15100499D01*
X52857483Y-15094091D01*
X52924907Y-15068943D01*
X52992329Y-15043797D01*
X52992329Y-15043796D01*
X52992331Y-15043796D01*
X53107546Y-14957546D01*
X53193796Y-14842331D01*
X53195333Y-14838212D01*
X53228008Y-14750603D01*
X53244091Y-14707483D01*
X53250500Y-14647873D01*
X53250499Y-13352128D01*
X53244091Y-13292517D01*
X53244089Y-13292512D01*
X53193797Y-13157670D01*
X53193796Y-13157669D01*
X53190668Y-13153491D01*
X53107546Y-13042454D01*
X52992331Y-12956204D01*
X52992330Y-12956203D01*
X52992329Y-12956202D01*
X52857487Y-12905910D01*
X52857484Y-12905909D01*
X52857483Y-12905909D01*
X52797873Y-12899500D01*
X51202126Y-12899500D01*
X51142514Y-12905909D01*
X51007670Y-12956202D01*
X51007669Y-12956203D01*
X50892454Y-13042454D01*
X50806203Y-13157669D01*
X50806202Y-13157670D01*
X50755910Y-13292512D01*
X50755909Y-13292517D01*
X50749500Y-13352126D01*
X50749500Y-14647873D01*
X50749501Y-14647874D01*
X50756097Y-14709234D01*
X50740140Y-14763577D01*
X50734847Y-14769469D01*
X48066492Y-17437826D01*
X48014166Y-17459500D01*
X44667309Y-17459500D01*
X44614983Y-17437826D01*
X44185177Y-17008019D01*
X44192993Y-17005925D01*
X44307007Y-16940099D01*
X44400099Y-16847007D01*
X44465925Y-16732993D01*
X44468019Y-16725176D01*
X44942331Y-17199487D01*
X44983568Y-17142729D01*
X45065748Y-16981443D01*
X45121680Y-16809302D01*
X45121683Y-16809289D01*
X45150000Y-16630508D01*
X45150000Y-16449491D01*
X45121683Y-16270710D01*
X45121680Y-16270697D01*
X45065748Y-16098556D01*
X44983566Y-15937267D01*
X44983566Y-15937266D01*
X44942331Y-15880511D01*
X44468019Y-16354822D01*
X44465925Y-16347007D01*
X44400099Y-16232993D01*
X44307007Y-16139901D01*
X44192993Y-16074075D01*
X44185174Y-16071980D01*
X44659487Y-15597668D01*
X44602728Y-15556431D01*
X44441443Y-15474251D01*
X44441444Y-15474251D01*
X44269302Y-15418319D01*
X44269289Y-15418316D01*
X44090509Y-15390000D01*
X43909491Y-15390000D01*
X43730710Y-15418316D01*
X43730697Y-15418319D01*
X43558558Y-15474250D01*
X43397268Y-15556431D01*
X43340511Y-15597667D01*
X43340511Y-15597668D01*
X43814823Y-16071980D01*
X43807007Y-16074075D01*
X43692993Y-16139901D01*
X43599901Y-16232993D01*
X43534075Y-16347007D01*
X43531980Y-16354823D01*
X43057668Y-15880511D01*
X43057667Y-15880511D01*
X43016431Y-15937268D01*
X42934250Y-16098558D01*
X42878319Y-16270697D01*
X42878316Y-16270710D01*
X42850000Y-16449491D01*
X42850000Y-16630508D01*
X42878316Y-16809289D01*
X42878319Y-16809302D01*
X42934251Y-16981443D01*
X43016431Y-17142728D01*
X43057668Y-17199487D01*
X43531980Y-16725174D01*
X43534075Y-16732993D01*
X43599901Y-16847007D01*
X43692993Y-16940099D01*
X43807007Y-17005925D01*
X43814822Y-17008019D01*
X43385017Y-17437826D01*
X43332691Y-17459500D01*
X38167754Y-17459500D01*
X38078615Y-17483384D01*
X38078610Y-17483386D01*
X37998691Y-17529528D01*
X37767917Y-17760301D01*
X37715591Y-17781975D01*
X37663265Y-17760301D01*
X37647224Y-17736293D01*
X37599396Y-17620825D01*
X37599395Y-17620823D01*
X37599394Y-17620821D01*
X37511789Y-17489711D01*
X37400289Y-17378211D01*
X37269179Y-17290606D01*
X37269175Y-17290604D01*
X37269173Y-17290603D01*
X37269174Y-17290603D01*
X37123501Y-17230264D01*
X37123490Y-17230261D01*
X37107486Y-17227078D01*
X37060393Y-17195613D01*
X37049344Y-17140064D01*
X37080809Y-17092971D01*
X37121922Y-17080500D01*
X39260146Y-17080500D01*
X39260146Y-17080499D01*
X39349288Y-17056614D01*
X39367644Y-17046016D01*
X39429212Y-17010470D01*
X42773174Y-13666508D01*
X42825500Y-13644834D01*
X42877826Y-13666508D01*
X42899500Y-13718834D01*
X42899500Y-14874674D01*
X42914034Y-14947740D01*
X42969399Y-15030601D01*
X43052260Y-15085966D01*
X43125326Y-15100500D01*
X43125328Y-15100500D01*
X44874672Y-15100500D01*
X44874674Y-15100500D01*
X44947740Y-15085966D01*
X45030601Y-15030601D01*
X45085966Y-14947740D01*
X45100500Y-14874674D01*
X45100500Y-13125326D01*
X45085966Y-13052260D01*
X45030601Y-12969399D01*
X45010851Y-12956203D01*
X44947740Y-12914034D01*
X44874674Y-12899500D01*
X44874672Y-12899500D01*
X43718834Y-12899500D01*
X43666508Y-12877826D01*
X43644834Y-12825500D01*
X43666508Y-12773174D01*
X44567508Y-11872174D01*
X44619834Y-11850500D01*
X50752986Y-11850500D01*
X50805312Y-11872174D01*
X50823364Y-11901633D01*
X50830123Y-11922437D01*
X50908767Y-12076788D01*
X51010582Y-12216923D01*
X51010586Y-12216928D01*
X51133072Y-12339414D01*
X51133075Y-12339416D01*
X51133076Y-12339417D01*
X51273212Y-12441232D01*
X51427553Y-12519872D01*
X51427557Y-12519874D01*
X51592288Y-12573399D01*
X51592294Y-12573400D01*
X51592299Y-12573402D01*
X51706359Y-12591467D01*
X51763388Y-12600500D01*
X51763389Y-12600500D01*
X52236612Y-12600500D01*
X52279383Y-12593725D01*
X52407701Y-12573402D01*
X52407708Y-12573399D01*
X52407711Y-12573399D01*
X52572442Y-12519874D01*
X52572442Y-12519873D01*
X52572445Y-12519873D01*
X52726788Y-12441232D01*
X52866928Y-12339414D01*
X52989414Y-12216928D01*
X53091232Y-12076788D01*
X53169873Y-11922445D01*
X53223402Y-11757701D01*
X53250500Y-11586611D01*
X53250500Y-11413389D01*
X53223402Y-11242299D01*
X53223400Y-11242294D01*
X53223399Y-11242288D01*
X53169874Y-11077557D01*
X53169872Y-11077553D01*
X53091232Y-10923212D01*
X52989417Y-10783076D01*
X52989416Y-10783075D01*
X52989414Y-10783072D01*
X52866928Y-10660586D01*
X52866925Y-10660583D01*
X52866923Y-10660582D01*
X52726787Y-10558767D01*
X52572446Y-10480127D01*
X52572442Y-10480125D01*
X52407711Y-10426600D01*
X52407698Y-10426597D01*
X52236612Y-10399500D01*
X52236611Y-10399500D01*
X51763389Y-10399500D01*
X51763388Y-10399500D01*
X51592301Y-10426597D01*
X51592288Y-10426600D01*
X51427557Y-10480125D01*
X51427553Y-10480127D01*
X51273212Y-10558767D01*
X51133076Y-10660582D01*
X51010582Y-10783076D01*
X50908767Y-10923211D01*
X50830123Y-11077562D01*
X50823364Y-11098367D01*
X50786581Y-11141435D01*
X50752986Y-11149500D01*
X44397854Y-11149500D01*
X44308715Y-11173384D01*
X44308710Y-11173386D01*
X44228787Y-11219530D01*
X39090492Y-16357826D01*
X39038166Y-16379500D01*
X37121922Y-16379500D01*
X37069596Y-16357826D01*
X37047922Y-16305500D01*
X37069596Y-16253174D01*
X37107486Y-16232922D01*
X37112754Y-16231873D01*
X37123497Y-16229737D01*
X37269179Y-16169394D01*
X37400289Y-16081789D01*
X37511789Y-15970289D01*
X37599394Y-15839179D01*
X37659737Y-15693497D01*
X37690500Y-15538842D01*
X37690500Y-15381158D01*
X37659737Y-15226503D01*
X37627217Y-15147991D01*
X37599396Y-15080825D01*
X37599395Y-15080823D01*
X37599394Y-15080821D01*
X37511789Y-14949711D01*
X37400289Y-14838211D01*
X37269179Y-14750606D01*
X37269175Y-14750604D01*
X37269173Y-14750603D01*
X37269174Y-14750603D01*
X37123501Y-14690264D01*
X37123491Y-14690261D01*
X37019925Y-14669661D01*
X36968842Y-14659500D01*
X36811158Y-14659500D01*
X36767315Y-14668220D01*
X36656508Y-14690261D01*
X36656498Y-14690264D01*
X36510825Y-14750603D01*
X36379711Y-14838210D01*
X36379710Y-14838212D01*
X36268212Y-14949710D01*
X36268210Y-14949711D01*
X36180603Y-15080825D01*
X36120264Y-15226498D01*
X36120261Y-15226508D01*
X36104046Y-15308030D01*
X36089500Y-15381158D01*
X36089500Y-15538842D01*
X36094328Y-15563112D01*
X36120261Y-15693491D01*
X36120264Y-15693501D01*
X36180603Y-15839174D01*
X36180605Y-15839177D01*
X36180606Y-15839179D01*
X36268211Y-15970289D01*
X36379711Y-16081789D01*
X36510821Y-16169394D01*
X36510826Y-16169396D01*
X36510825Y-16169396D01*
X36557944Y-16188913D01*
X36656503Y-16229737D01*
X36694228Y-16237241D01*
X36741320Y-16268706D01*
X36752370Y-16324255D01*
X36720905Y-16371347D01*
X36698945Y-16381297D01*
X36616515Y-16403384D01*
X36616510Y-16403386D01*
X36536591Y-16449528D01*
X34081692Y-18904426D01*
X34029366Y-18926100D01*
X23716876Y-18926100D01*
X23664550Y-18904426D01*
X23596215Y-18836091D01*
X23470686Y-18763616D01*
X23470681Y-18763614D01*
X23330677Y-18726100D01*
X23330675Y-18726100D01*
X23185725Y-18726100D01*
X23185723Y-18726100D01*
X23045718Y-18763614D01*
X23045713Y-18763616D01*
X22920184Y-18836091D01*
X22817691Y-18938584D01*
X22745216Y-19064113D01*
X22745214Y-19064118D01*
X22707700Y-19204122D01*
X22707700Y-19349077D01*
X22745214Y-19489081D01*
X22745216Y-19489086D01*
X22784467Y-19557070D01*
X22817691Y-19614615D01*
X22920185Y-19717109D01*
X23045715Y-19789584D01*
X23045716Y-19789584D01*
X23045718Y-19789585D01*
X23115720Y-19808342D01*
X23185722Y-19827099D01*
X23185723Y-19827100D01*
X23185725Y-19827100D01*
X23330677Y-19827100D01*
X23330677Y-19827099D01*
X23470685Y-19789584D01*
X23596215Y-19717109D01*
X23664550Y-19648774D01*
X23716876Y-19627100D01*
X34251346Y-19627100D01*
X34251346Y-19627099D01*
X34340488Y-19603214D01*
X34359338Y-19592331D01*
X34420412Y-19557070D01*
X35963174Y-18014305D01*
X36015500Y-17992632D01*
X36067826Y-18014306D01*
X36089500Y-18066632D01*
X36089500Y-18078840D01*
X36120261Y-18233491D01*
X36120264Y-18233501D01*
X36180603Y-18379174D01*
X36180605Y-18379177D01*
X36180606Y-18379179D01*
X36268211Y-18510289D01*
X36379711Y-18621789D01*
X36510821Y-18709394D01*
X36510826Y-18709396D01*
X36510825Y-18709396D01*
X36548674Y-18725073D01*
X36626294Y-18757224D01*
X36666342Y-18797271D01*
X36666342Y-18853908D01*
X36650301Y-18877916D01*
X34455392Y-21072826D01*
X34403066Y-21094500D01*
X32334524Y-21094500D01*
X32282198Y-21072826D01*
X32260524Y-21020500D01*
X32263046Y-21001347D01*
X32277399Y-20947777D01*
X32277400Y-20947777D01*
X32277400Y-20802823D01*
X32277399Y-20802822D01*
X32269542Y-20773501D01*
X32244159Y-20678768D01*
X32239885Y-20662818D01*
X32239883Y-20662813D01*
X32212408Y-20615226D01*
X32167409Y-20537285D01*
X32064915Y-20434791D01*
X32043393Y-20422365D01*
X31939386Y-20362316D01*
X31939381Y-20362314D01*
X31799377Y-20324800D01*
X31799375Y-20324800D01*
X31654425Y-20324800D01*
X31654423Y-20324800D01*
X31514418Y-20362314D01*
X31514413Y-20362316D01*
X31388884Y-20434791D01*
X31320550Y-20503126D01*
X31268224Y-20524800D01*
X21019734Y-20524800D01*
X20967408Y-20503126D01*
X19344395Y-18880113D01*
X19322721Y-18827787D01*
X19344395Y-18775461D01*
X19368400Y-18759421D01*
X19489179Y-18709394D01*
X19620289Y-18621789D01*
X19731789Y-18510289D01*
X19742614Y-18494087D01*
X19789706Y-18462622D01*
X19804143Y-18461200D01*
X30706146Y-18461200D01*
X30706146Y-18461199D01*
X30795288Y-18437314D01*
X30875212Y-18391170D01*
X35450402Y-13815977D01*
X35502727Y-13794304D01*
X35517150Y-13795724D01*
X35541158Y-13800500D01*
X35541162Y-13800500D01*
X35698840Y-13800500D01*
X35698842Y-13800500D01*
X35853497Y-13769737D01*
X35999179Y-13709394D01*
X36130289Y-13621789D01*
X36241789Y-13510289D01*
X36241790Y-13510288D01*
X36242674Y-13509404D01*
X36295000Y-13487730D01*
X36347326Y-13509404D01*
X36379711Y-13541789D01*
X36510821Y-13629394D01*
X36510826Y-13629396D01*
X36510825Y-13629396D01*
X36656498Y-13689735D01*
X36656503Y-13689737D01*
X36811158Y-13720500D01*
X36811160Y-13720500D01*
X36968840Y-13720500D01*
X36968842Y-13720500D01*
X37123497Y-13689737D01*
X37269179Y-13629394D01*
X37400289Y-13541789D01*
X37511789Y-13430289D01*
X37599394Y-13299179D01*
X37659737Y-13153497D01*
X37690500Y-12998842D01*
X37690500Y-12841158D01*
X37659737Y-12686503D01*
X37647439Y-12656812D01*
X37599396Y-12540825D01*
X37599395Y-12540823D01*
X37599394Y-12540821D01*
X37511789Y-12409711D01*
X37400289Y-12298211D01*
X37396598Y-12295745D01*
X37363100Y-12273362D01*
X37269179Y-12210606D01*
X37269175Y-12210604D01*
X37269173Y-12210603D01*
X37269174Y-12210603D01*
X37123501Y-12150264D01*
X37123491Y-12150261D01*
X37019925Y-12129661D01*
X36968842Y-12119500D01*
X36811158Y-12119500D01*
X36767315Y-12128220D01*
X36656508Y-12150261D01*
X36656498Y-12150264D01*
X36510825Y-12210603D01*
X36379711Y-12298210D01*
X36379710Y-12298212D01*
X36267326Y-12410596D01*
X36215000Y-12432270D01*
X36162674Y-12410596D01*
X36130288Y-12378210D01*
X36097842Y-12356530D01*
X35999179Y-12290606D01*
X35999175Y-12290604D01*
X35999173Y-12290603D01*
X35999174Y-12290603D01*
X35853501Y-12230264D01*
X35853491Y-12230261D01*
X35737185Y-12207127D01*
X35698842Y-12199500D01*
X35541158Y-12199500D01*
X35502815Y-12207127D01*
X35386508Y-12230261D01*
X35386498Y-12230264D01*
X35240825Y-12290603D01*
X35109711Y-12378210D01*
X35109710Y-12378212D01*
X34998212Y-12489710D01*
X34998210Y-12489711D01*
X34910603Y-12620825D01*
X34850264Y-12766498D01*
X34850261Y-12766508D01*
X34819500Y-12921159D01*
X34819500Y-13078840D01*
X34850261Y-13233491D01*
X34850263Y-13233497D01*
X34877469Y-13299179D01*
X34887359Y-13323054D01*
X34887359Y-13379692D01*
X34871318Y-13403699D01*
X33300481Y-14974536D01*
X33248155Y-14996210D01*
X33195829Y-14974536D01*
X33184069Y-14959210D01*
X33149008Y-14898484D01*
X33046515Y-14795991D01*
X32920986Y-14723516D01*
X32920981Y-14723514D01*
X32780977Y-14686000D01*
X32780975Y-14686000D01*
X32636025Y-14686000D01*
X32636023Y-14686000D01*
X32496018Y-14723514D01*
X32496013Y-14723516D01*
X32370484Y-14795991D01*
X32302150Y-14864326D01*
X32249824Y-14886000D01*
X29266534Y-14886000D01*
X29214208Y-14864326D01*
X28231284Y-13881402D01*
X28209610Y-13829076D01*
X28231284Y-13776750D01*
X28255290Y-13760709D01*
X28379179Y-13709394D01*
X28510289Y-13621789D01*
X28621789Y-13510289D01*
X28709394Y-13379179D01*
X28769737Y-13233497D01*
X28800500Y-13078842D01*
X28800500Y-12921159D01*
X29739500Y-12921159D01*
X29739500Y-13078840D01*
X29770261Y-13233491D01*
X29770264Y-13233501D01*
X29830603Y-13379174D01*
X29917619Y-13509404D01*
X29918211Y-13510289D01*
X30029711Y-13621789D01*
X30160821Y-13709394D01*
X30160826Y-13709396D01*
X30160825Y-13709396D01*
X30183611Y-13718834D01*
X30306503Y-13769737D01*
X30461158Y-13800500D01*
X30461160Y-13800500D01*
X30618840Y-13800500D01*
X30618842Y-13800500D01*
X30773497Y-13769737D01*
X30919179Y-13709394D01*
X31050289Y-13621789D01*
X31161789Y-13510289D01*
X31249394Y-13379179D01*
X31309737Y-13233497D01*
X31340500Y-13078842D01*
X31340500Y-12921159D01*
X32279500Y-12921159D01*
X32279500Y-13078840D01*
X32310261Y-13233491D01*
X32310264Y-13233501D01*
X32370603Y-13379174D01*
X32457619Y-13509404D01*
X32458211Y-13510289D01*
X32569711Y-13621789D01*
X32700821Y-13709394D01*
X32700826Y-13709396D01*
X32700825Y-13709396D01*
X32723611Y-13718834D01*
X32846503Y-13769737D01*
X33001158Y-13800500D01*
X33001160Y-13800500D01*
X33158840Y-13800500D01*
X33158842Y-13800500D01*
X33313497Y-13769737D01*
X33459179Y-13709394D01*
X33590289Y-13621789D01*
X33701789Y-13510289D01*
X33789394Y-13379179D01*
X33849737Y-13233497D01*
X33880500Y-13078842D01*
X33880500Y-12921158D01*
X33849737Y-12766503D01*
X33789394Y-12620821D01*
X33701789Y-12489711D01*
X33590289Y-12378211D01*
X33459179Y-12290606D01*
X33459175Y-12290604D01*
X33459173Y-12290603D01*
X33459174Y-12290603D01*
X33313501Y-12230264D01*
X33313491Y-12230261D01*
X33197185Y-12207127D01*
X33158842Y-12199500D01*
X33001158Y-12199500D01*
X32962815Y-12207127D01*
X32846508Y-12230261D01*
X32846498Y-12230264D01*
X32700825Y-12290603D01*
X32569711Y-12378210D01*
X32569710Y-12378212D01*
X32458212Y-12489710D01*
X32458210Y-12489711D01*
X32370603Y-12620825D01*
X32310264Y-12766498D01*
X32310261Y-12766508D01*
X32279500Y-12921159D01*
X31340500Y-12921159D01*
X31340500Y-12921158D01*
X31309737Y-12766503D01*
X31249394Y-12620821D01*
X31161789Y-12489711D01*
X31050289Y-12378211D01*
X30919179Y-12290606D01*
X30919175Y-12290604D01*
X30919173Y-12290603D01*
X30919174Y-12290603D01*
X30773501Y-12230264D01*
X30773491Y-12230261D01*
X30657185Y-12207127D01*
X30618842Y-12199500D01*
X30461158Y-12199500D01*
X30422815Y-12207127D01*
X30306508Y-12230261D01*
X30306498Y-12230264D01*
X30160825Y-12290603D01*
X30029711Y-12378210D01*
X30029710Y-12378212D01*
X29918212Y-12489710D01*
X29918210Y-12489711D01*
X29830603Y-12620825D01*
X29770264Y-12766498D01*
X29770261Y-12766508D01*
X29739500Y-12921159D01*
X28800500Y-12921159D01*
X28800500Y-12921158D01*
X28769737Y-12766503D01*
X28709394Y-12620821D01*
X28621789Y-12489711D01*
X28510289Y-12378211D01*
X28379179Y-12290606D01*
X28379175Y-12290604D01*
X28379173Y-12290603D01*
X28379174Y-12290603D01*
X28233501Y-12230264D01*
X28233491Y-12230261D01*
X28117185Y-12207127D01*
X28078842Y-12199500D01*
X27921158Y-12199500D01*
X27882815Y-12207127D01*
X27766508Y-12230261D01*
X27766498Y-12230264D01*
X27620825Y-12290603D01*
X27489711Y-12378210D01*
X27489710Y-12378212D01*
X27378212Y-12489710D01*
X27378210Y-12489711D01*
X27290604Y-12620824D01*
X27239290Y-12744708D01*
X27199241Y-12784756D01*
X27142604Y-12784756D01*
X27118597Y-12768715D01*
X24651040Y-10301158D01*
X36089500Y-10301158D01*
X36089500Y-10458842D01*
X36093734Y-10480127D01*
X36120261Y-10613491D01*
X36120264Y-10613501D01*
X36180603Y-10759174D01*
X36180605Y-10759177D01*
X36180606Y-10759179D01*
X36268211Y-10890289D01*
X36379711Y-11001789D01*
X36510821Y-11089394D01*
X36510826Y-11089396D01*
X36510825Y-11089396D01*
X36636460Y-11141435D01*
X36656503Y-11149737D01*
X36811158Y-11180500D01*
X36811160Y-11180500D01*
X36968840Y-11180500D01*
X36968842Y-11180500D01*
X37123497Y-11149737D01*
X37269179Y-11089394D01*
X37400289Y-11001789D01*
X37511789Y-10890289D01*
X37599394Y-10759179D01*
X37659737Y-10613497D01*
X37690500Y-10458842D01*
X37690500Y-10301158D01*
X37659737Y-10146503D01*
X37599394Y-10000821D01*
X37511789Y-9869711D01*
X37400289Y-9758211D01*
X37269179Y-9670606D01*
X37269175Y-9670604D01*
X37269173Y-9670603D01*
X37269174Y-9670603D01*
X37123501Y-9610264D01*
X37123491Y-9610261D01*
X37019925Y-9589661D01*
X36968842Y-9579500D01*
X36811158Y-9579500D01*
X36767315Y-9588220D01*
X36656508Y-9610261D01*
X36656498Y-9610264D01*
X36510825Y-9670603D01*
X36379711Y-9758210D01*
X36379710Y-9758212D01*
X36268212Y-9869710D01*
X36268210Y-9869711D01*
X36180603Y-10000825D01*
X36120264Y-10146498D01*
X36120261Y-10146508D01*
X36094580Y-10275616D01*
X36089500Y-10301158D01*
X24651040Y-10301158D01*
X22111041Y-7761159D01*
X36089500Y-7761159D01*
X36089500Y-7918840D01*
X36120261Y-8073491D01*
X36120264Y-8073501D01*
X36180603Y-8219174D01*
X36180605Y-8219177D01*
X36180606Y-8219179D01*
X36268211Y-8350289D01*
X36379711Y-8461789D01*
X36510821Y-8549394D01*
X36510826Y-8549396D01*
X36510825Y-8549396D01*
X36627822Y-8597857D01*
X36656503Y-8609737D01*
X36811158Y-8640500D01*
X36811160Y-8640500D01*
X36968840Y-8640500D01*
X36968842Y-8640500D01*
X37123497Y-8609737D01*
X37269179Y-8549394D01*
X37400289Y-8461789D01*
X37511789Y-8350289D01*
X37599394Y-8219179D01*
X37659737Y-8073497D01*
X37690500Y-7918842D01*
X37690500Y-7761158D01*
X37659737Y-7606503D01*
X37599394Y-7460821D01*
X37511789Y-7329711D01*
X37400289Y-7218211D01*
X37269179Y-7130606D01*
X37269175Y-7130604D01*
X37269173Y-7130603D01*
X37269174Y-7130603D01*
X37123501Y-7070264D01*
X37123491Y-7070261D01*
X37019925Y-7049661D01*
X36968842Y-7039500D01*
X36811158Y-7039500D01*
X36767315Y-7048220D01*
X36656508Y-7070261D01*
X36656498Y-7070264D01*
X36510825Y-7130603D01*
X36379711Y-7218210D01*
X36379710Y-7218212D01*
X36268212Y-7329710D01*
X36268210Y-7329711D01*
X36180603Y-7460825D01*
X36120264Y-7606498D01*
X36120261Y-7606508D01*
X36089500Y-7761159D01*
X22111041Y-7761159D01*
X20247528Y-5897646D01*
X46699500Y-5897646D01*
X46699500Y-6102353D01*
X46731522Y-6304531D01*
X46731525Y-6304544D01*
X46794777Y-6499213D01*
X46887712Y-6681610D01*
X46961406Y-6783040D01*
X47008034Y-6847219D01*
X47152781Y-6991966D01*
X47244695Y-7058745D01*
X47318389Y-7112287D01*
X47406300Y-7157079D01*
X47500781Y-7205220D01*
X47500783Y-7205220D01*
X47500786Y-7205222D01*
X47695455Y-7268474D01*
X47695461Y-7268475D01*
X47695466Y-7268477D01*
X47796557Y-7284488D01*
X47897646Y-7300500D01*
X47897648Y-7300500D01*
X48102354Y-7300500D01*
X48183224Y-7287690D01*
X48304534Y-7268477D01*
X48304541Y-7268474D01*
X48304544Y-7268474D01*
X48499213Y-7205222D01*
X48499213Y-7205221D01*
X48499219Y-7205220D01*
X48681610Y-7112287D01*
X48847219Y-6991966D01*
X48991966Y-6847219D01*
X49112287Y-6681610D01*
X49205220Y-6499219D01*
X49268477Y-6304534D01*
X49300500Y-6102352D01*
X49300500Y-5897648D01*
X49268477Y-5695466D01*
X49268475Y-5695461D01*
X49268474Y-5695455D01*
X49205222Y-5500786D01*
X49205220Y-5500783D01*
X49205220Y-5500781D01*
X49157079Y-5406300D01*
X49112287Y-5318389D01*
X49058745Y-5244695D01*
X48991966Y-5152781D01*
X48847219Y-5008034D01*
X48783040Y-4961406D01*
X48681610Y-4887712D01*
X48499213Y-4794777D01*
X48304544Y-4731525D01*
X48304531Y-4731522D01*
X48102354Y-4699500D01*
X48102352Y-4699500D01*
X47897648Y-4699500D01*
X47897646Y-4699500D01*
X47695468Y-4731522D01*
X47695455Y-4731525D01*
X47500786Y-4794777D01*
X47318389Y-4887712D01*
X47152785Y-5008031D01*
X47152781Y-5008034D01*
X47008034Y-5152781D01*
X47008031Y-5152784D01*
X47008031Y-5152785D01*
X46887712Y-5318389D01*
X46794777Y-5500786D01*
X46731525Y-5695455D01*
X46731522Y-5695468D01*
X46699500Y-5897646D01*
X20247528Y-5897646D01*
X19904412Y-5554530D01*
X19824489Y-5508386D01*
X19824484Y-5508384D01*
X19735346Y-5484500D01*
X19735344Y-5484500D01*
X15431776Y-5484500D01*
X15379450Y-5462826D01*
X15311115Y-5394491D01*
X15185586Y-5322016D01*
X15185581Y-5322014D01*
X15045577Y-5284500D01*
X15045575Y-5284500D01*
X14900625Y-5284500D01*
X14900623Y-5284500D01*
X14760618Y-5322014D01*
X14760613Y-5322016D01*
X14635084Y-5394491D01*
X14532591Y-5496984D01*
X14460116Y-5622513D01*
X14460114Y-5622518D01*
X14422600Y-5762522D01*
X14422600Y-5907477D01*
X14460114Y-6047481D01*
X14460116Y-6047486D01*
X14491794Y-6102353D01*
X14532591Y-6173015D01*
X14635085Y-6275509D01*
X14760615Y-6347984D01*
X14760616Y-6347984D01*
X14760618Y-6347985D01*
X14830620Y-6366742D01*
X14900622Y-6385499D01*
X14900623Y-6385500D01*
X14900625Y-6385500D01*
X15045577Y-6385500D01*
X15045577Y-6385499D01*
X15185585Y-6347984D01*
X15311115Y-6275509D01*
X15379450Y-6207174D01*
X15431776Y-6185500D01*
X19513366Y-6185500D01*
X19565692Y-6207174D01*
X25431692Y-12073174D01*
X25453366Y-12125500D01*
X25431692Y-12177826D01*
X25384600Y-12197331D01*
X25384779Y-12199143D01*
X25381163Y-12199499D01*
X25226508Y-12230261D01*
X25226498Y-12230264D01*
X25080825Y-12290603D01*
X24949711Y-12378210D01*
X24949710Y-12378212D01*
X24838212Y-12489710D01*
X24838210Y-12489711D01*
X24750603Y-12620825D01*
X24690264Y-12766498D01*
X24690261Y-12766508D01*
X24659500Y-12921159D01*
X24659500Y-13078840D01*
X24690261Y-13233491D01*
X24690264Y-13233501D01*
X24750603Y-13379174D01*
X24837619Y-13509404D01*
X24838211Y-13510289D01*
X24949711Y-13621789D01*
X25080821Y-13709394D01*
X25080826Y-13709396D01*
X25080825Y-13709396D01*
X25103611Y-13718834D01*
X25226503Y-13769737D01*
X25381158Y-13800500D01*
X25381160Y-13800500D01*
X25538840Y-13800500D01*
X25538842Y-13800500D01*
X25693497Y-13769737D01*
X25839179Y-13709394D01*
X25970289Y-13621789D01*
X26081789Y-13510289D01*
X26169394Y-13379179D01*
X26229737Y-13233497D01*
X26260500Y-13078842D01*
X26260500Y-13078836D01*
X26260857Y-13075221D01*
X26262668Y-13075399D01*
X26282174Y-13028308D01*
X26334500Y-13006634D01*
X26386826Y-13028308D01*
X28875488Y-15516970D01*
X28944788Y-15556980D01*
X28944787Y-15556980D01*
X28944790Y-15556981D01*
X28950100Y-15560047D01*
X28955408Y-15563112D01*
X28955410Y-15563112D01*
X28955412Y-15563114D01*
X28955413Y-15563114D01*
X28955415Y-15563115D01*
X28999984Y-15575057D01*
X29044553Y-15586999D01*
X29044554Y-15587000D01*
X29044556Y-15587000D01*
X32249824Y-15587000D01*
X32302150Y-15608674D01*
X32370485Y-15677009D01*
X32399033Y-15693491D01*
X32431210Y-15712069D01*
X32465689Y-15757003D01*
X32458296Y-15813155D01*
X32446536Y-15828481D01*
X30853655Y-17421362D01*
X30801329Y-17443036D01*
X30749003Y-17421362D01*
X30729851Y-17388189D01*
X30718685Y-17346518D01*
X30718683Y-17346513D01*
X30651566Y-17230264D01*
X30646209Y-17220985D01*
X30543715Y-17118491D01*
X30418186Y-17046016D01*
X30418181Y-17046014D01*
X30278177Y-17008500D01*
X30278175Y-17008500D01*
X30133225Y-17008500D01*
X30133223Y-17008500D01*
X29993218Y-17046014D01*
X29993213Y-17046016D01*
X29867684Y-17118491D01*
X29799350Y-17186826D01*
X29747024Y-17208500D01*
X26474934Y-17208500D01*
X26422608Y-17186826D01*
X23127171Y-13891389D01*
X23105497Y-13839063D01*
X23127171Y-13786737D01*
X23151179Y-13770696D01*
X23153491Y-13769738D01*
X23153497Y-13769737D01*
X23299179Y-13709394D01*
X23430289Y-13621789D01*
X23541789Y-13510289D01*
X23629394Y-13379179D01*
X23689737Y-13233497D01*
X23720500Y-13078842D01*
X23720500Y-12921158D01*
X23689737Y-12766503D01*
X23629394Y-12620821D01*
X23541789Y-12489711D01*
X23430289Y-12378211D01*
X23299179Y-12290606D01*
X23299175Y-12290604D01*
X23299173Y-12290603D01*
X23299174Y-12290603D01*
X23153501Y-12230264D01*
X23153491Y-12230261D01*
X23037185Y-12207127D01*
X22998842Y-12199500D01*
X22841158Y-12199500D01*
X22802815Y-12207127D01*
X22686508Y-12230261D01*
X22686498Y-12230264D01*
X22540825Y-12290603D01*
X22409711Y-12378210D01*
X22409710Y-12378212D01*
X22298212Y-12489710D01*
X22298210Y-12489711D01*
X22210603Y-12620825D01*
X22149303Y-12768820D01*
X22109255Y-12808869D01*
X22052618Y-12808869D01*
X22028610Y-12792828D01*
X21545547Y-12309765D01*
X21526395Y-12276593D01*
X21508314Y-12209112D01*
X21462170Y-12129188D01*
X19918778Y-10585796D01*
X19897104Y-10533470D01*
X19898524Y-10519043D01*
X19910500Y-10458842D01*
X19910500Y-10301158D01*
X19879737Y-10146503D01*
X19819394Y-10000821D01*
X19731789Y-9869711D01*
X19620289Y-9758211D01*
X19489179Y-9670606D01*
X19489175Y-9670604D01*
X19489173Y-9670603D01*
X19489174Y-9670603D01*
X19343501Y-9610264D01*
X19343491Y-9610261D01*
X19239925Y-9589661D01*
X19188842Y-9579500D01*
X19031158Y-9579500D01*
X18987315Y-9588220D01*
X18876508Y-9610261D01*
X18876498Y-9610264D01*
X18739218Y-9667127D01*
X18682581Y-9667127D01*
X18642533Y-9627078D01*
X18636900Y-9598760D01*
X18636900Y-8839432D01*
X18658573Y-8787107D01*
X18814704Y-8630975D01*
X18867029Y-8609302D01*
X18881463Y-8610723D01*
X19031158Y-8640500D01*
X19031160Y-8640500D01*
X19188840Y-8640500D01*
X19188842Y-8640500D01*
X19343497Y-8609737D01*
X19489179Y-8549394D01*
X19620289Y-8461789D01*
X19731789Y-8350289D01*
X19819394Y-8219179D01*
X19879737Y-8073497D01*
X19910500Y-7918842D01*
X19910500Y-7761158D01*
X19879737Y-7606503D01*
X19819394Y-7460821D01*
X19731789Y-7329711D01*
X19620289Y-7218211D01*
X19489179Y-7130606D01*
X19489175Y-7130604D01*
X19489173Y-7130603D01*
X19489174Y-7130603D01*
X19343501Y-7070264D01*
X19343491Y-7070261D01*
X19239925Y-7049661D01*
X19188842Y-7039500D01*
X19031158Y-7039500D01*
X18987315Y-7048220D01*
X18876508Y-7070261D01*
X18876498Y-7070264D01*
X18730825Y-7130603D01*
X18599711Y-7218210D01*
X18599710Y-7218212D01*
X18488212Y-7329710D01*
X18488210Y-7329711D01*
X18400603Y-7460825D01*
X18340264Y-7606498D01*
X18340261Y-7606508D01*
X18309500Y-7761159D01*
X18309500Y-7918840D01*
X18339275Y-8068531D01*
X18328226Y-8124080D01*
X18319023Y-8135294D01*
X18005930Y-8448387D01*
X17981617Y-8490500D01*
X17959786Y-8528310D01*
X17959784Y-8528315D01*
X17935900Y-8617453D01*
X17935900Y-18363946D01*
X17959784Y-18453084D01*
X17959786Y-18453089D01*
X18005930Y-18533012D01*
X19086092Y-19613174D01*
X19107766Y-19665500D01*
X19086092Y-19717826D01*
X19034773Y-19739082D01*
X19034779Y-19739143D01*
X19034580Y-19739162D01*
X19033766Y-19739500D01*
X19031158Y-19739500D01*
X18987315Y-19748220D01*
X18876508Y-19770261D01*
X18876498Y-19770264D01*
X18730825Y-19830603D01*
X18599711Y-19918210D01*
X18599710Y-19918212D01*
X18488212Y-20029710D01*
X18488210Y-20029711D01*
X18400603Y-20160825D01*
X18340264Y-20306498D01*
X18340261Y-20306508D01*
X18309500Y-20461159D01*
X18309500Y-20618840D01*
X18340261Y-20773491D01*
X18340264Y-20773501D01*
X18400603Y-20919174D01*
X18468306Y-21020500D01*
X18488211Y-21050289D01*
X18599711Y-21161789D01*
X18730821Y-21249394D01*
X18730826Y-21249396D01*
X18730825Y-21249396D01*
X18876498Y-21309735D01*
X18876503Y-21309737D01*
X19031158Y-21340500D01*
X19031160Y-21340500D01*
X19188840Y-21340500D01*
X19188842Y-21340500D01*
X19343497Y-21309737D01*
X19489179Y-21249394D01*
X19620289Y-21161789D01*
X19731789Y-21050289D01*
X19819394Y-20919179D01*
X19879737Y-20773497D01*
X19910500Y-20618842D01*
X19910500Y-20616234D01*
X19910837Y-20615419D01*
X19910857Y-20615221D01*
X19910917Y-20615226D01*
X19932174Y-20563908D01*
X19984500Y-20542234D01*
X20036826Y-20563908D01*
X20628688Y-21155770D01*
X20697988Y-21195780D01*
X20697987Y-21195780D01*
X20697990Y-21195781D01*
X20701066Y-21197557D01*
X20708608Y-21201912D01*
X20708610Y-21201912D01*
X20708612Y-21201914D01*
X20708613Y-21201914D01*
X20708615Y-21201915D01*
X20753184Y-21213857D01*
X20797753Y-21225799D01*
X20797754Y-21225800D01*
X20797756Y-21225800D01*
X25369866Y-21225800D01*
X25422192Y-21247474D01*
X25443866Y-21299800D01*
X25422192Y-21352126D01*
X19405293Y-27369023D01*
X19352967Y-27390697D01*
X19338530Y-27389275D01*
X19188842Y-27359500D01*
X19031158Y-27359500D01*
X18987315Y-27368220D01*
X18876508Y-27390261D01*
X18876498Y-27390264D01*
X18730825Y-27450603D01*
X18599711Y-27538210D01*
X18599710Y-27538212D01*
X18488212Y-27649710D01*
X18488210Y-27649711D01*
X18400604Y-27780824D01*
X18352805Y-27896223D01*
X18312757Y-27936271D01*
X18256119Y-27936271D01*
X18232112Y-27920230D01*
X16372174Y-26060292D01*
X16350500Y-26007966D01*
X16350500Y-25541159D01*
X18309500Y-25541159D01*
X18309500Y-25698840D01*
X18340261Y-25853491D01*
X18340264Y-25853501D01*
X18400603Y-25999174D01*
X18400605Y-25999177D01*
X18400606Y-25999179D01*
X18488211Y-26130289D01*
X18599711Y-26241789D01*
X18730821Y-26329394D01*
X18730826Y-26329396D01*
X18730825Y-26329396D01*
X18876498Y-26389735D01*
X18876503Y-26389737D01*
X19031158Y-26420500D01*
X19031160Y-26420500D01*
X19188840Y-26420500D01*
X19188842Y-26420500D01*
X19343497Y-26389737D01*
X19489179Y-26329394D01*
X19620289Y-26241789D01*
X19731789Y-26130289D01*
X19819394Y-25999179D01*
X19879737Y-25853497D01*
X19910500Y-25698842D01*
X19910500Y-25541158D01*
X19879737Y-25386503D01*
X19819394Y-25240821D01*
X19731789Y-25109711D01*
X19620289Y-24998211D01*
X19489179Y-24910606D01*
X19489175Y-24910604D01*
X19489173Y-24910603D01*
X19489174Y-24910603D01*
X19343501Y-24850264D01*
X19343491Y-24850261D01*
X19239925Y-24829661D01*
X19188842Y-24819500D01*
X19031158Y-24819500D01*
X18987315Y-24828220D01*
X18876508Y-24850261D01*
X18876498Y-24850264D01*
X18730825Y-24910603D01*
X18599711Y-24998210D01*
X18599710Y-24998212D01*
X18488212Y-25109710D01*
X18488210Y-25109711D01*
X18400603Y-25240825D01*
X18340264Y-25386498D01*
X18340261Y-25386508D01*
X18309500Y-25541159D01*
X16350500Y-25541159D01*
X16350500Y-23001159D01*
X18309500Y-23001159D01*
X18309500Y-23158840D01*
X18340261Y-23313491D01*
X18340264Y-23313501D01*
X18400603Y-23459174D01*
X18400605Y-23459177D01*
X18400606Y-23459179D01*
X18488211Y-23590289D01*
X18599711Y-23701789D01*
X18730821Y-23789394D01*
X18730826Y-23789396D01*
X18730825Y-23789396D01*
X18876498Y-23849735D01*
X18876503Y-23849737D01*
X19031158Y-23880500D01*
X19031160Y-23880500D01*
X19188840Y-23880500D01*
X19188842Y-23880500D01*
X19343497Y-23849737D01*
X19489179Y-23789394D01*
X19620289Y-23701789D01*
X19731789Y-23590289D01*
X19819394Y-23459179D01*
X19879737Y-23313497D01*
X19910500Y-23158842D01*
X19910500Y-23001158D01*
X19879737Y-22846503D01*
X19856490Y-22790379D01*
X19819396Y-22700825D01*
X19819395Y-22700823D01*
X19819394Y-22700821D01*
X19731789Y-22569711D01*
X19620289Y-22458211D01*
X19619208Y-22457489D01*
X19587842Y-22436530D01*
X19489179Y-22370606D01*
X19489175Y-22370604D01*
X19489173Y-22370603D01*
X19489174Y-22370603D01*
X19343501Y-22310264D01*
X19343491Y-22310261D01*
X19239925Y-22289661D01*
X19188842Y-22279500D01*
X19031158Y-22279500D01*
X18987315Y-22288220D01*
X18876508Y-22310261D01*
X18876498Y-22310264D01*
X18730825Y-22370603D01*
X18599711Y-22458210D01*
X18599710Y-22458212D01*
X18488212Y-22569710D01*
X18488210Y-22569711D01*
X18400603Y-22700825D01*
X18340264Y-22846498D01*
X18340261Y-22846508D01*
X18309500Y-23001159D01*
X16350500Y-23001159D01*
X16350500Y-19924500D01*
X16372174Y-19872174D01*
X16424500Y-19850500D01*
X16897875Y-19850500D01*
X16903149Y-19849932D01*
X16957484Y-19844091D01*
X17092331Y-19793796D01*
X17207547Y-19707547D01*
X17293796Y-19592331D01*
X17344091Y-19457484D01*
X17350500Y-19397874D01*
X17350500Y-17602126D01*
X17344091Y-17542516D01*
X17293796Y-17407669D01*
X17207547Y-17292453D01*
X17124472Y-17230264D01*
X17092330Y-17206203D01*
X16957488Y-17155910D01*
X16957485Y-17155909D01*
X16957484Y-17155909D01*
X16927679Y-17152704D01*
X16897875Y-17149500D01*
X16897874Y-17149500D01*
X15175834Y-17149500D01*
X15123508Y-17127826D01*
X13303712Y-15308030D01*
X13223789Y-15261886D01*
X13223784Y-15261884D01*
X13134646Y-15238000D01*
X13134644Y-15238000D01*
X7653576Y-15238000D01*
X7601250Y-15216326D01*
X7532915Y-15147991D01*
X7407386Y-15075516D01*
X7407381Y-15075514D01*
X7267377Y-15038000D01*
X7267375Y-15038000D01*
X7122425Y-15038000D01*
X7122423Y-15038000D01*
X6982418Y-15075514D01*
X6982413Y-15075516D01*
X6856884Y-15147991D01*
X6754391Y-15250484D01*
X6681916Y-15376013D01*
X6681914Y-15376018D01*
X6644400Y-15516022D01*
X500500Y-15516022D01*
X500500Y-5897646D01*
X5699500Y-5897646D01*
X5699500Y-6102353D01*
X5731522Y-6304531D01*
X5731525Y-6304544D01*
X5794777Y-6499213D01*
X5887712Y-6681610D01*
X5961406Y-6783040D01*
X6008034Y-6847219D01*
X6152781Y-6991966D01*
X6244695Y-7058745D01*
X6318389Y-7112287D01*
X6406300Y-7157079D01*
X6500781Y-7205220D01*
X6500783Y-7205220D01*
X6500786Y-7205222D01*
X6695455Y-7268474D01*
X6695461Y-7268475D01*
X6695466Y-7268477D01*
X6796557Y-7284488D01*
X6897646Y-7300500D01*
X6897648Y-7300500D01*
X7102354Y-7300500D01*
X7183224Y-7287690D01*
X7304534Y-7268477D01*
X7304541Y-7268474D01*
X7304544Y-7268474D01*
X7499213Y-7205222D01*
X7499213Y-7205221D01*
X7499219Y-7205220D01*
X7681610Y-7112287D01*
X7847219Y-6991966D01*
X7991966Y-6847219D01*
X8112287Y-6681610D01*
X8205220Y-6499219D01*
X8268477Y-6304534D01*
X8300500Y-6102352D01*
X8300500Y-5897648D01*
X8268477Y-5695466D01*
X8268475Y-5695461D01*
X8268474Y-5695455D01*
X8205222Y-5500786D01*
X8205220Y-5500783D01*
X8205220Y-5500781D01*
X8157079Y-5406300D01*
X8112287Y-5318389D01*
X8058745Y-5244695D01*
X7991966Y-5152781D01*
X7847219Y-5008034D01*
X7783040Y-4961406D01*
X7681610Y-4887712D01*
X7499213Y-4794777D01*
X7304544Y-4731525D01*
X7304531Y-4731522D01*
X7102354Y-4699500D01*
X7102352Y-4699500D01*
X6897648Y-4699500D01*
X6897646Y-4699500D01*
X6695468Y-4731522D01*
X6695455Y-4731525D01*
X6500786Y-4794777D01*
X6318389Y-4887712D01*
X6152785Y-5008031D01*
X6152781Y-5008034D01*
X6008034Y-5152781D01*
X6008031Y-5152784D01*
X6008031Y-5152785D01*
X5887712Y-5318389D01*
X5794777Y-5500786D01*
X5731525Y-5695455D01*
X5731522Y-5695468D01*
X5699500Y-5897646D01*
X500500Y-5897646D01*
X500500Y-4376122D01*
X34274500Y-4376122D01*
X34274500Y-4521077D01*
X34312014Y-4661081D01*
X34312016Y-4661086D01*
X34384491Y-4786615D01*
X34486985Y-4889109D01*
X34612515Y-4961584D01*
X34612516Y-4961584D01*
X34612518Y-4961585D01*
X34682520Y-4980342D01*
X34752522Y-4999099D01*
X34752523Y-4999100D01*
X34752525Y-4999100D01*
X34897477Y-4999100D01*
X34897477Y-4999099D01*
X35037485Y-4961584D01*
X35163015Y-4889109D01*
X35265509Y-4786615D01*
X35337984Y-4661085D01*
X35375499Y-4521077D01*
X35375500Y-4521077D01*
X35375500Y-4376123D01*
X35375499Y-4376122D01*
X35337985Y-4236118D01*
X35337983Y-4236113D01*
X35265508Y-4110584D01*
X35163015Y-4008091D01*
X35037486Y-3935616D01*
X35037481Y-3935614D01*
X34897477Y-3898100D01*
X34897475Y-3898100D01*
X34752525Y-3898100D01*
X34752523Y-3898100D01*
X34612518Y-3935614D01*
X34612513Y-3935616D01*
X34486984Y-4008091D01*
X34384491Y-4110584D01*
X34312016Y-4236113D01*
X34312014Y-4236118D01*
X34274500Y-4376122D01*
X500500Y-4376122D01*
X500500Y-574500D01*
X522174Y-522174D01*
X574500Y-500500D01*
X55425500Y-500500D01*
X55477826Y-522174D01*
G37*
%TD.AperFunction*%
%TD*%
M02*
