%TF.GenerationSoftware,KiCad,Pcbnew,9.0.2+dfsg-1*%
%TF.CreationDate,2026-07-13T22:48:07-04:00*%
%TF.ProjectId,autofeeder,6175746f-6665-4656-9465-722e6b696361,rev?*%
%TF.SameCoordinates,Original*%
%TF.FileFunction,Copper,L1,Top*%
%TF.FilePolarity,Positive*%
%FSLAX46Y46*%
G04 Gerber Fmt 4.6, Leading zero omitted, Abs format (unit mm)*
G04 Created by KiCad (PCBNEW 9.0.2+dfsg-1) date 2026-07-13 22:48:07*
%MOMM*%
%LPD*%
G01*
G04 APERTURE LIST*
G04 Aperture macros list*
%AMRoundRect*
0 Rectangle with rounded corners*
0 $1 Rounding radius*
0 $2 $3 $4 $5 $6 $7 $8 $9 X,Y pos of 4 corners*
0 Add a 4 corners polygon primitive as box body*
4,1,4,$2,$3,$4,$5,$6,$7,$8,$9,$2,$3,0*
0 Add four circle primitives for the rounded corners*
1,1,$1+$1,$2,$3*
1,1,$1+$1,$4,$5*
1,1,$1+$1,$6,$7*
1,1,$1+$1,$8,$9*
0 Add four rect primitives between the rounded corners*
20,1,$1+$1,$2,$3,$4,$5,0*
20,1,$1+$1,$4,$5,$6,$7,0*
20,1,$1+$1,$6,$7,$8,$9,0*
20,1,$1+$1,$8,$9,$2,$3,0*%
G04 Aperture macros list end*
%TA.AperFunction,SMDPad,CuDef*%
%ADD10R,0.900000X1.000000*%
%TD*%
%TA.AperFunction,ComponentPad*%
%ADD11C,1.100000*%
%TD*%
%TA.AperFunction,ComponentPad*%
%ADD12R,1.100000X1.100000*%
%TD*%
%TA.AperFunction,ComponentPad*%
%ADD13RoundRect,0.250000X0.750000X-0.600000X0.750000X0.600000X-0.750000X0.600000X-0.750000X-0.600000X0*%
%TD*%
%TA.AperFunction,ComponentPad*%
%ADD14O,2.000000X1.700000*%
%TD*%
%TA.AperFunction,ComponentPad*%
%ADD15R,1.700000X1.700000*%
%TD*%
%TA.AperFunction,ComponentPad*%
%ADD16C,1.700000*%
%TD*%
%TA.AperFunction,ComponentPad*%
%ADD17RoundRect,0.249999X0.850001X0.850001X-0.850001X0.850001X-0.850001X-0.850001X0.850001X-0.850001X0*%
%TD*%
%TA.AperFunction,ComponentPad*%
%ADD18C,2.200000*%
%TD*%
%TA.AperFunction,HeatsinkPad*%
%ADD19O,1.000000X1.600000*%
%TD*%
%TA.AperFunction,HeatsinkPad*%
%ADD20O,1.000000X2.100000*%
%TD*%
%TA.AperFunction,ComponentPad*%
%ADD21C,1.400000*%
%TD*%
%TA.AperFunction,ViaPad*%
%ADD22C,0.600000*%
%TD*%
%TA.AperFunction,Conductor*%
%ADD23C,0.300000*%
%TD*%
%TA.AperFunction,Conductor*%
%ADD24C,0.200000*%
%TD*%
G04 APERTURE END LIST*
D10*
%TO.P,SW2_TIMER1,1*%
%TO.N,/BUTTON_TIMER*%
X25950000Y-5200000D03*
X30050000Y-5200000D03*
%TO.P,SW2_TIMER1,2*%
%TO.N,GND*%
X25950000Y-6800000D03*
X30050000Y-6800000D03*
%TD*%
%TO.P,SW4_SETTINGS1,1*%
%TO.N,/BUTTON_SETTINGS*%
X9950000Y-42200000D03*
X14050000Y-42200000D03*
%TO.P,SW4_SETTINGS1,2*%
%TO.N,GND*%
X9950000Y-43800000D03*
X14050000Y-43800000D03*
%TD*%
D11*
%TO.P,DISP1,1*%
%TO.N,/VCC_3V3*%
X22920000Y-13000000D03*
D12*
%TO.P,DISP1,2*%
%TO.N,GND*%
X20380000Y-13000000D03*
D11*
%TO.P,DISP1,3*%
%TO.N,/DISP_CS*%
X35620000Y-13000000D03*
%TO.P,DISP1,4*%
%TO.N,/DISP_DC*%
X33080000Y-13000000D03*
%TO.P,DISP1,5*%
%TO.N,/DISP_RST*%
X30540000Y-13000000D03*
%TO.P,DISP1,6*%
%TO.N,/DISP_SCK*%
X25460000Y-13000000D03*
%TO.P,DISP1,7*%
%TO.N,/DISP_MOSI*%
X28000000Y-13000000D03*
%TD*%
D10*
%TO.P,SW6_DOWN1,1*%
%TO.N,/BUTTON_DOWN*%
X40450000Y-42200000D03*
X44550000Y-42200000D03*
%TO.P,SW6_DOWN1,2*%
%TO.N,GND*%
X40450000Y-43800000D03*
X44550000Y-43800000D03*
%TD*%
%TO.P,SW3_MANUAL1,1*%
%TO.N,/BUTTON_MANUAL*%
X40450000Y-5200000D03*
X44550000Y-5200000D03*
%TO.P,SW3_MANUAL1,2*%
%TO.N,GND*%
X40450000Y-6800000D03*
X44550000Y-6800000D03*
%TD*%
%TO.P,SW1_POWER1,1*%
%TO.N,/BUTTON_POWER*%
X9950000Y-5200000D03*
X14050000Y-5200000D03*
%TO.P,SW1_POWER1,2*%
%TO.N,GND*%
X9950000Y-6800000D03*
X14050000Y-6800000D03*
%TD*%
%TO.P,SW5_UP1,1*%
%TO.N,/BUTTON_UP*%
X25950000Y-42200000D03*
X30050000Y-42200000D03*
%TO.P,SW5_UP1,2*%
%TO.N,GND*%
X25950000Y-43800000D03*
X30050000Y-43800000D03*
%TD*%
D13*
%TO.P,J1,1*%
%TO.N,/BATT_P*%
X52000000Y-34000000D03*
D14*
%TO.P,J1,2*%
%TO.N,/BATT_N*%
X52000000Y-31500000D03*
%TD*%
D13*
%TO.P,J_MOTOR_CTRL1,1*%
%TO.N,/MOTOR_IN1*%
X52000000Y-14000000D03*
D14*
%TO.P,J_MOTOR_CTRL1,2*%
%TO.N,/MOTOR_IN2*%
X52000000Y-11500000D03*
%TD*%
D15*
%TO.P,J4,1*%
%TO.N,/VCC_3V3*%
X53000000Y-39000000D03*
D16*
%TO.P,J4,2*%
%TO.N,unconnected-(J4-Pin_2-Pad2)*%
X53000000Y-41540000D03*
%TO.P,J4,3*%
%TO.N,unconnected-(J4-Pin_3-Pad3)*%
X53000000Y-44080000D03*
%TO.P,J4,4*%
%TO.N,GND*%
X53000000Y-46620000D03*
%TD*%
D13*
%TO.P,J_MOTOR_PWR1,1*%
%TO.N,/BATT_PROT*%
X52000000Y-24000000D03*
D14*
%TO.P,J_MOTOR_PWR1,2*%
%TO.N,GND*%
X52000000Y-21500000D03*
%TD*%
D17*
%TO.P,D1,1*%
%TO.N,/BATT_PROT*%
X16000000Y-18500000D03*
D18*
%TO.P,D1,2*%
%TO.N,/BATT_N*%
X5840000Y-18500000D03*
%TD*%
D15*
%TO.P,J_RTC1,1*%
%TO.N,/VCC_3V3*%
X42000000Y-30000000D03*
D16*
%TO.P,J_RTC1,2*%
%TO.N,GND*%
X42000000Y-32540000D03*
%TO.P,J_RTC1,3*%
%TO.N,/I2C_SDA*%
X42000000Y-35080000D03*
%TO.P,J_RTC1,4*%
%TO.N,/I2C_SCL*%
X42000000Y-37620000D03*
%TD*%
D19*
%TO.P,J3,S1*%
%TO.N,GND*%
X34320000Y-52550000D03*
D20*
X34320000Y-48370000D03*
D19*
X25680000Y-52550000D03*
D20*
X25680000Y-48370000D03*
%TD*%
D12*
%TO.P,U1,1*%
%TO.N,unconnected-(U1-5V-Pad1)*%
X36890000Y-28160000D03*
D11*
%TO.P,U1,2*%
%TO.N,GND*%
X36890000Y-25620000D03*
%TO.P,U1,3*%
%TO.N,/VCC_3V3*%
X36890000Y-23080000D03*
%TO.P,U1,4*%
%TO.N,/BUTTON_POWER*%
X36890000Y-20540000D03*
%TO.P,U1,5*%
%TO.N,/BUTTON_TIMER*%
X36890000Y-18000000D03*
%TO.P,U1,6*%
%TO.N,/BUTTON_MANUAL*%
X36890000Y-15460000D03*
%TO.P,U1,7*%
%TO.N,/BUTTON_SETTINGS*%
X36890000Y-12920000D03*
%TO.P,U1,8*%
%TO.N,/BUTTON_UP*%
X36890000Y-10380000D03*
%TO.P,U1,9*%
%TO.N,/BUTTON_DOWN*%
X36890000Y-7840000D03*
%TO.P,U1,10*%
%TO.N,/MOTOR_IN1*%
X19110000Y-28160000D03*
%TO.P,U1,11*%
%TO.N,/MOTOR_IN2*%
X19110000Y-25620000D03*
%TO.P,U1,12*%
%TO.N,/DISP_SCK*%
X19110000Y-23080000D03*
%TO.P,U1,13*%
%TO.N,/DISP_MOSI*%
X19110000Y-20540000D03*
%TO.P,U1,14*%
%TO.N,/DISP_CS*%
X19110000Y-18000000D03*
%TO.P,U1,15*%
%TO.N,unconnected-(U1-GP19-Pad15)*%
X19110000Y-15460000D03*
%TO.P,U1,16*%
%TO.N,unconnected-(U1-GP20-Pad16)*%
X19110000Y-12920000D03*
%TO.P,U1,17*%
%TO.N,/CAN_TX*%
X19110000Y-10380000D03*
%TO.P,U1,18*%
%TO.N,/CAN_RX*%
X19110000Y-7840000D03*
D21*
%TO.P,U1,19*%
%TO.N,/I2C_SDA*%
X35620000Y-30700000D03*
%TO.P,U1,20*%
%TO.N,/DISP_DC*%
X33080000Y-30700000D03*
%TO.P,U1,21*%
%TO.N,/I2C_SCL*%
X30540000Y-30700000D03*
%TO.P,U1,22*%
%TO.N,/CAN_RS*%
X28000000Y-30700000D03*
%TO.P,U1,23*%
%TO.N,/GPS_RX*%
X25460000Y-30700000D03*
%TO.P,U1,24*%
%TO.N,/GPS_TX*%
X22920000Y-30700000D03*
%TO.P,U1,25*%
%TO.N,/BAT_MON*%
X20380000Y-30700000D03*
%TD*%
D15*
%TO.P,J_GPS1,1*%
%TO.N,/VCC_3V3*%
X44000000Y-14000000D03*
D16*
%TO.P,J_GPS1,2*%
%TO.N,GND*%
X44000000Y-16540000D03*
%TO.P,J_GPS1,3*%
%TO.N,/GPS_RX*%
X44000000Y-19080000D03*
%TO.P,J_GPS1,4*%
%TO.N,/GPS_TX*%
X44000000Y-21620000D03*
%TD*%
D22*
%TO.N,/BATT_N*%
X21200000Y-33300000D03*
X19500000Y-33300000D03*
X7860300Y-26260300D03*
X21556100Y-35486300D03*
%TO.N,/BATT_P*%
X9336200Y-17577400D03*
%TO.N,/BATT_PROT*%
X4336900Y-15857900D03*
X13222400Y-37474100D03*
X13796600Y-41122800D03*
%TO.N,/BAT_MON*%
X11825000Y-48549600D03*
%TO.N,/BUTTON_DOWN*%
X39312500Y-42194600D03*
%TO.N,/BUTTON_SETTINGS*%
X34858800Y-38937400D03*
%TO.N,/BUTTON_UP*%
X35040000Y-42200000D03*
%TO.N,/CAN_H_PROT*%
X28750000Y-48640400D03*
X40304800Y-49216200D03*
%TO.N,/CAN_TX*%
X31337800Y-40968200D03*
X43475000Y-41641700D03*
%TO.N,/CC1*%
X30801200Y-46274800D03*
X28825000Y-4439800D03*
%TO.N,/CC2*%
X34825000Y-4450200D03*
X28657700Y-46252700D03*
%TO.N,/VCC_3V3*%
X13850200Y-34390400D03*
X20950000Y-40181200D03*
%TO.N,GND*%
X12358800Y-23406400D03*
X28000100Y-7030400D03*
X50550000Y-17550000D03*
X50550000Y-52750000D03*
X26350000Y-46150000D03*
X10950000Y-8750000D03*
X46150000Y-26350000D03*
X35150000Y-52750000D03*
X50550000Y-46150000D03*
X32950000Y-2150000D03*
X50550000Y-28550000D03*
X24150000Y-6550000D03*
X52750000Y-26350000D03*
X6550000Y-2150000D03*
X37350000Y-6550000D03*
X54950000Y-6550000D03*
X4350000Y-48350000D03*
X50550000Y-2150000D03*
X52750000Y-8750000D03*
X13150000Y-52750000D03*
X4350000Y-43950000D03*
X46150000Y-19750000D03*
X4350000Y-46150000D03*
X19750000Y-46150000D03*
X2150000Y-6550000D03*
X28550000Y-10950000D03*
X17550000Y-48350000D03*
X15350000Y-2150000D03*
X4350000Y-37350000D03*
X4350000Y-50550000D03*
X17550000Y-8750000D03*
X54950000Y-50550000D03*
X28550000Y-50550000D03*
X46150000Y-37350000D03*
X35150000Y-43950000D03*
X4350000Y-2150000D03*
X52750000Y-6550000D03*
X46150000Y-8750000D03*
X28550000Y-35150000D03*
X32950000Y-52750000D03*
X8750000Y-4350000D03*
X4350000Y-21950000D03*
X24150000Y-52750000D03*
X48350000Y-19750000D03*
X4350000Y-39550000D03*
X54950000Y-35150000D03*
X15350000Y-8750000D03*
X32950000Y-6550000D03*
X8750000Y-24150000D03*
X6550000Y-52750000D03*
X2150000Y-52750000D03*
X35150000Y-48350000D03*
X26350000Y-8750000D03*
X15350000Y-48350000D03*
X46150000Y-2150000D03*
X50550000Y-48350000D03*
X54950000Y-24150000D03*
X46150000Y-13150000D03*
X54950000Y-19750000D03*
X43950000Y-35150000D03*
X2150000Y-24150000D03*
X8750000Y-8750000D03*
X50550000Y-41750000D03*
X48350000Y-21950000D03*
X19750000Y-52750000D03*
X24150000Y-35150000D03*
X46150000Y-52750000D03*
X26350000Y-21950000D03*
X54950000Y-32950000D03*
X8750000Y-2150000D03*
X46150000Y-4350000D03*
X46150000Y-30750000D03*
X54950000Y-21950000D03*
X21950000Y-8750000D03*
X48350000Y-37350000D03*
X50550000Y-19750000D03*
X10950000Y-2150000D03*
X19750000Y-6550000D03*
X24150000Y-4350000D03*
X52750000Y-17550000D03*
X48350000Y-52750000D03*
X52750000Y-48350000D03*
X35150000Y-46150000D03*
X6550000Y-48350000D03*
X54950000Y-41750000D03*
X8750000Y-43950000D03*
X2150000Y-48350000D03*
X28550000Y-6550000D03*
X15350000Y-24150000D03*
X35150000Y-2150000D03*
X17550000Y-2150000D03*
X10868600Y-35500000D03*
X30750000Y-8750000D03*
X8750000Y-46150000D03*
X52750000Y-2150000D03*
X54950000Y-13150000D03*
X39550000Y-52750000D03*
X2150000Y-8750000D03*
X15350000Y-6550000D03*
X41750000Y-52750000D03*
X21950000Y-43950000D03*
X21950000Y-37350000D03*
X28550000Y-52750000D03*
X37350000Y-48350000D03*
X24150000Y-24150000D03*
X8750000Y-37350000D03*
X50550000Y-26350000D03*
X6550000Y-32950000D03*
X15350000Y-52750000D03*
X13150000Y-19750000D03*
X21950000Y-4350000D03*
X37350000Y-52750000D03*
X2150000Y-19750000D03*
X54950000Y-2150000D03*
X43950000Y-39550000D03*
X2150000Y-46150000D03*
X54950000Y-17550000D03*
X54950000Y-48350000D03*
X24150000Y-50550000D03*
X50550000Y-21950000D03*
X50550000Y-8750000D03*
X4350000Y-28550000D03*
X54950000Y-10950000D03*
X6550000Y-13150000D03*
X4350000Y-6550000D03*
X54950000Y-39550000D03*
X48350000Y-15350000D03*
X24150000Y-48350000D03*
X28550000Y-8750000D03*
X2150000Y-2150000D03*
X4350000Y-26350000D03*
X13150000Y-10950000D03*
X54950000Y-15350000D03*
X28550000Y-37350000D03*
X24150000Y-21950000D03*
X4350000Y-30750000D03*
X2150000Y-21950000D03*
X2150000Y-43950000D03*
X35150000Y-6550000D03*
X26350000Y-37350000D03*
X19750000Y-50550000D03*
X6550000Y-10950000D03*
X8750000Y-52750000D03*
X48350000Y-13150000D03*
X6550000Y-28550000D03*
X43950000Y-52750000D03*
X52750000Y-4350000D03*
X54950000Y-37350000D03*
X54950000Y-8750000D03*
X15350000Y-50550000D03*
X2150000Y-28550000D03*
X24150000Y-46150000D03*
X2150000Y-4350000D03*
X19750000Y-2150000D03*
X4350000Y-4350000D03*
X4350000Y-52750000D03*
X37350000Y-2150000D03*
X17550000Y-46150000D03*
X26350000Y-28550000D03*
X17550000Y-52750000D03*
X30750000Y-52750000D03*
X48350000Y-48350000D03*
X17550000Y-6550000D03*
X21950000Y-52750000D03*
X10950000Y-10950000D03*
X21950000Y-50550000D03*
X26350000Y-50550000D03*
X2150000Y-15350000D03*
X28550000Y-26350000D03*
X30750000Y-2150000D03*
X43950000Y-26350000D03*
X54950000Y-52750000D03*
X19750000Y-48350000D03*
X19750000Y-43950000D03*
X2150000Y-10950000D03*
X6550000Y-50550000D03*
X24150000Y-37350000D03*
X54950000Y-26350000D03*
X8750000Y-32950000D03*
X52750000Y-28550000D03*
X8750000Y-35150000D03*
X54950000Y-4350000D03*
X48350000Y-50550000D03*
X6550000Y-30750000D03*
X52750000Y-50550000D03*
X21950000Y-2150000D03*
X46150000Y-15350000D03*
X2150000Y-30750000D03*
X10950000Y-24150000D03*
X39550000Y-48350000D03*
X54950000Y-46150000D03*
X8750000Y-30750000D03*
X50550000Y-50550000D03*
X13150000Y-8750000D03*
X21950000Y-46150000D03*
X6550000Y-8750000D03*
X32950000Y-4350000D03*
X2150000Y-17550000D03*
X13150000Y-50550000D03*
X26350000Y-2150000D03*
X2150000Y-13150000D03*
X2150000Y-50550000D03*
X28550000Y-2150000D03*
X21950000Y-48350000D03*
X50550000Y-4350000D03*
X24150000Y-43950000D03*
X8750000Y-50550000D03*
X17550000Y-50550000D03*
X2150000Y-41750000D03*
X46150000Y-21950000D03*
X48350000Y-2150000D03*
X50550000Y-43950000D03*
X39550000Y-2150000D03*
X54950000Y-43950000D03*
X4350000Y-41750000D03*
X2150000Y-26350000D03*
X30750000Y-10950000D03*
X41750000Y-2150000D03*
X41750000Y-6550000D03*
X24150000Y-41750000D03*
X46150000Y-6550000D03*
X48350000Y-28550000D03*
X24150000Y-2150000D03*
X54950000Y-30750000D03*
X52750000Y-52750000D03*
X9462500Y-47566000D03*
X37350000Y-4350000D03*
X48350000Y-26350000D03*
X50550000Y-6550000D03*
X4350000Y-24150000D03*
X6550000Y-46150000D03*
X4350000Y-8750000D03*
X43950000Y-2150000D03*
X52750000Y-37350000D03*
X13150000Y-2150000D03*
X32950000Y-43950000D03*
X48350000Y-8750000D03*
X54950000Y-28550000D03*
X10950000Y-52750000D03*
X52750000Y-19750000D03*
X8750000Y-48350000D03*
X4350000Y-19750000D03*
X41750000Y-10950000D03*
%TD*%
D23*
%TO.N,/BATT_N*%
X19500000Y-33300000D02*
X21200000Y-33300000D01*
X49690000Y-33810000D02*
X23232400Y-33810000D01*
X52000000Y-31500000D02*
X49690000Y-31500000D01*
X23232400Y-33810000D02*
X21556100Y-35486300D01*
X49690000Y-31500000D02*
X49690000Y-33810000D01*
D24*
%TO.N,/BATT_PROT*%
X34382000Y-19270000D02*
X39112000Y-24000000D01*
X16770000Y-19270000D02*
X34382000Y-19270000D01*
X39112000Y-24000000D02*
X52000000Y-24000000D01*
X16000000Y-18500000D02*
X16770000Y-19270000D01*
%TO.N,/BUTTON_DOWN*%
X40450000Y-42200000D02*
X39748300Y-42200000D01*
X44550000Y-42200000D02*
X40450000Y-42200000D01*
X39312500Y-42194600D02*
X39742900Y-42194600D01*
X39742900Y-42194600D02*
X39748300Y-42200000D01*
%TO.N,/BUTTON_MANUAL*%
X44550000Y-5200000D02*
X40450000Y-5200000D01*
X40450000Y-5200000D02*
X39748300Y-5200000D01*
X39748300Y-12601700D02*
X39748300Y-5200000D01*
X36890000Y-15460000D02*
X39748300Y-12601700D01*
%TO.N,/BUTTON_POWER*%
X14050000Y-5200000D02*
X9950000Y-5200000D01*
X36890000Y-20540000D02*
X21550000Y-5200000D01*
X21550000Y-5200000D02*
X14050000Y-5200000D01*
%TO.N,/BUTTON_SETTINGS*%
X14751700Y-42200000D02*
X18014300Y-38937400D01*
X9950000Y-42200000D02*
X14050000Y-42200000D01*
X18014300Y-38937400D02*
X34858800Y-38937400D01*
X14050000Y-42200000D02*
X14751700Y-42200000D01*
%TO.N,/BUTTON_TIMER*%
X37729600Y-13474600D02*
X37729600Y-12609000D01*
X30050000Y-5200000D02*
X25950000Y-5200000D01*
X36044200Y-15160000D02*
X37729600Y-13474600D01*
X36890000Y-18000000D02*
X36044200Y-17154200D01*
X36044200Y-17154200D02*
X36044200Y-15160000D01*
X37729600Y-12609000D02*
X30751700Y-5631100D01*
X30050000Y-5200000D02*
X30751700Y-5200000D01*
X30751700Y-5631100D02*
X30751700Y-5200000D01*
%TO.N,/BUTTON_UP*%
X30050000Y-42200000D02*
X25950000Y-42200000D01*
X30050000Y-42200000D02*
X30751700Y-42200000D01*
X30751700Y-42200000D02*
X35040000Y-42200000D01*
%TO.N,GND*%
X29117900Y-7030400D02*
X29348300Y-6800000D01*
X14050000Y-43800000D02*
X9950000Y-43800000D01*
X34320000Y-47068300D02*
X36480000Y-47068300D01*
X34320000Y-48370000D02*
X34320000Y-47068300D01*
X25950000Y-6800000D02*
X26651700Y-6800000D01*
X28000100Y-7030400D02*
X26882100Y-7030400D01*
X26882100Y-7030400D02*
X26651700Y-6800000D01*
X25680000Y-44821700D02*
X15773400Y-44821700D01*
X36480000Y-47068300D02*
X39748300Y-43800000D01*
X42857000Y-6800000D02*
X42857000Y-15397000D01*
X30050000Y-43800000D02*
X25950000Y-43800000D01*
X44550000Y-43800000D02*
X40450000Y-43800000D01*
X14050000Y-6800000D02*
X9950000Y-6800000D01*
X20380000Y-13000000D02*
X20380000Y-12198300D01*
X25680000Y-44821700D02*
X25950000Y-44551700D01*
X19792700Y-12198300D02*
X20380000Y-12198300D01*
X38629800Y-29169800D02*
X38629800Y-27359800D01*
X30050000Y-6800000D02*
X29348300Y-6800000D01*
X25950000Y-43800000D02*
X25950000Y-44551700D01*
X42857000Y-15397000D02*
X44000000Y-16540000D01*
X40450000Y-43800000D02*
X39748300Y-43800000D01*
X14751700Y-7157300D02*
X19792700Y-12198300D01*
X28000100Y-7030400D02*
X29117900Y-7030400D01*
X38629800Y-27359800D02*
X36890000Y-25620000D01*
X15773400Y-44821700D02*
X14751700Y-43800000D01*
X48071700Y-46620000D02*
X45251700Y-43800000D01*
X53000000Y-46620000D02*
X48071700Y-46620000D01*
X14751700Y-6800000D02*
X14751700Y-7157300D01*
X25680000Y-48370000D02*
X25680000Y-44821700D01*
X14050000Y-43800000D02*
X14751700Y-43800000D01*
X44550000Y-43800000D02*
X45251700Y-43800000D01*
X42000000Y-32540000D02*
X38629800Y-29169800D01*
X9950000Y-47078500D02*
X9462500Y-47566000D01*
X9950000Y-43800000D02*
X9950000Y-47078500D01*
X42857000Y-6800000D02*
X40450000Y-6800000D01*
X14050000Y-6800000D02*
X14751700Y-6800000D01*
X44550000Y-6800000D02*
X42857000Y-6800000D01*
%TD*%
%TA.AperFunction,Conductor*%
%TO.N,GND*%
G36*
X55477826Y-522174D02*
G01*
X55499500Y-574500D01*
X55499500Y-53425500D01*
X55477826Y-53477826D01*
X55425500Y-53499500D01*
X574500Y-53499500D01*
X522174Y-53477826D01*
X500500Y-53425500D01*
X500500Y-48477122D01*
X11274500Y-48477122D01*
X11274500Y-48622077D01*
X11312014Y-48762081D01*
X11312016Y-48762086D01*
X11364440Y-48852886D01*
X11384491Y-48887615D01*
X11486985Y-48990109D01*
X11612515Y-49062584D01*
X11612516Y-49062584D01*
X11612518Y-49062585D01*
X11680900Y-49080908D01*
X11752522Y-49100099D01*
X11752523Y-49100100D01*
X11752525Y-49100100D01*
X11897477Y-49100100D01*
X11897477Y-49100099D01*
X12037485Y-49062584D01*
X12163015Y-48990109D01*
X12265509Y-48887615D01*
X12302104Y-48824231D01*
X26534500Y-48824231D01*
X26534500Y-48975768D01*
X26573717Y-49122130D01*
X26573721Y-49122139D01*
X26649483Y-49253362D01*
X26649485Y-49253365D01*
X26756635Y-49360515D01*
X26887865Y-49436281D01*
X27034231Y-49475499D01*
X27034232Y-49475500D01*
X27034234Y-49475500D01*
X27185768Y-49475500D01*
X27185768Y-49475499D01*
X27332135Y-49436281D01*
X27463365Y-49360515D01*
X27570515Y-49253365D01*
X27646281Y-49122135D01*
X27685499Y-48975768D01*
X27685500Y-48975768D01*
X27685500Y-48824232D01*
X27685499Y-48824231D01*
X27646282Y-48677869D01*
X27646281Y-48677865D01*
X27614072Y-48622077D01*
X27601369Y-48600075D01*
X27582805Y-48567922D01*
X28199500Y-48567922D01*
X28199500Y-48712877D01*
X28237014Y-48852881D01*
X28237016Y-48852886D01*
X28251622Y-48878184D01*
X28309491Y-48978415D01*
X28411985Y-49080909D01*
X28537515Y-49153384D01*
X28537516Y-49153384D01*
X28537518Y-49153385D01*
X28607520Y-49172142D01*
X28677522Y-49190899D01*
X28677523Y-49190900D01*
X28677525Y-49190900D01*
X28822477Y-49190900D01*
X28822477Y-49190899D01*
X28962485Y-49153384D01*
X29088015Y-49080909D01*
X29190509Y-48978415D01*
X29262984Y-48852885D01*
X29270662Y-48824231D01*
X32314500Y-48824231D01*
X32314500Y-48975768D01*
X32353717Y-49122130D01*
X32353721Y-49122139D01*
X32429483Y-49253362D01*
X32429485Y-49253365D01*
X32536635Y-49360515D01*
X32667865Y-49436281D01*
X32814231Y-49475499D01*
X32814232Y-49475500D01*
X32814234Y-49475500D01*
X32965768Y-49475500D01*
X32965768Y-49475499D01*
X33112135Y-49436281D01*
X33243365Y-49360515D01*
X33350515Y-49253365D01*
X33413818Y-49143722D01*
X39754300Y-49143722D01*
X39754300Y-49288677D01*
X39791814Y-49428681D01*
X39791816Y-49428686D01*
X39864291Y-49554215D01*
X39966785Y-49656709D01*
X40092315Y-49729184D01*
X40092316Y-49729184D01*
X40092318Y-49729185D01*
X40162320Y-49747942D01*
X40232322Y-49766699D01*
X40232323Y-49766700D01*
X40232325Y-49766700D01*
X40377277Y-49766700D01*
X40377277Y-49766699D01*
X40517285Y-49729184D01*
X40642815Y-49656709D01*
X40745309Y-49554215D01*
X40817784Y-49428685D01*
X40855299Y-49288677D01*
X40855300Y-49288677D01*
X40855300Y-49143723D01*
X40855299Y-49143722D01*
X40849513Y-49122130D01*
X40817784Y-49003715D01*
X40745309Y-48878185D01*
X40642815Y-48775691D01*
X40619242Y-48762081D01*
X40517286Y-48703216D01*
X40517281Y-48703214D01*
X40377277Y-48665700D01*
X40377275Y-48665700D01*
X40232325Y-48665700D01*
X40232323Y-48665700D01*
X40092318Y-48703214D01*
X40092313Y-48703216D01*
X39966784Y-48775691D01*
X39864291Y-48878184D01*
X39791816Y-49003713D01*
X39791814Y-49003718D01*
X39754300Y-49143722D01*
X33413818Y-49143722D01*
X33426281Y-49122135D01*
X33465500Y-48975766D01*
X33465500Y-48824234D01*
X33465500Y-48824232D01*
X33465499Y-48824231D01*
X33426282Y-48677869D01*
X33426281Y-48677865D01*
X33350515Y-48546635D01*
X33243365Y-48439485D01*
X33243362Y-48439483D01*
X33112139Y-48363721D01*
X33112130Y-48363717D01*
X32965768Y-48324500D01*
X32965766Y-48324500D01*
X32814234Y-48324500D01*
X32814232Y-48324500D01*
X32667869Y-48363717D01*
X32667860Y-48363721D01*
X32536637Y-48439483D01*
X32429483Y-48546637D01*
X32353721Y-48677860D01*
X32353717Y-48677869D01*
X32314500Y-48824231D01*
X29270662Y-48824231D01*
X29300499Y-48712877D01*
X29300500Y-48712877D01*
X29300500Y-48567923D01*
X29300499Y-48567922D01*
X29262985Y-48427918D01*
X29262983Y-48427913D01*
X29190508Y-48302384D01*
X29088015Y-48199891D01*
X28962486Y-48127416D01*
X28962481Y-48127414D01*
X28822477Y-48089900D01*
X28822475Y-48089900D01*
X28677525Y-48089900D01*
X28677523Y-48089900D01*
X28537518Y-48127414D01*
X28537513Y-48127416D01*
X28411984Y-48199891D01*
X28309491Y-48302384D01*
X28237016Y-48427913D01*
X28237014Y-48427918D01*
X28199500Y-48567922D01*
X27582805Y-48567922D01*
X27570516Y-48546637D01*
X27570515Y-48546635D01*
X27463365Y-48439485D01*
X27463362Y-48439483D01*
X27332139Y-48363721D01*
X27332130Y-48363717D01*
X27185768Y-48324500D01*
X27185766Y-48324500D01*
X27034234Y-48324500D01*
X27034232Y-48324500D01*
X26887869Y-48363717D01*
X26887860Y-48363721D01*
X26756637Y-48439483D01*
X26649483Y-48546637D01*
X26573721Y-48677860D01*
X26573717Y-48677869D01*
X26534500Y-48824231D01*
X12302104Y-48824231D01*
X12337984Y-48762085D01*
X12375499Y-48622077D01*
X12375500Y-48622077D01*
X12375500Y-48477123D01*
X12375499Y-48477122D01*
X12362313Y-48427913D01*
X12337984Y-48337115D01*
X12265509Y-48211585D01*
X12163015Y-48109091D01*
X12037486Y-48036616D01*
X12037481Y-48036614D01*
X11897477Y-47999100D01*
X11897475Y-47999100D01*
X11752525Y-47999100D01*
X11752523Y-47999100D01*
X11612518Y-48036614D01*
X11612513Y-48036616D01*
X11486984Y-48109091D01*
X11384491Y-48211584D01*
X11312016Y-48337113D01*
X11312014Y-48337118D01*
X11274500Y-48477122D01*
X500500Y-48477122D01*
X500500Y-46180222D01*
X28107200Y-46180222D01*
X28107200Y-46325177D01*
X28144714Y-46465181D01*
X28144716Y-46465186D01*
X28158804Y-46489586D01*
X28217191Y-46590715D01*
X28319685Y-46693209D01*
X28445215Y-46765684D01*
X28445216Y-46765684D01*
X28445218Y-46765685D01*
X28515220Y-46784442D01*
X28585222Y-46803199D01*
X28585223Y-46803200D01*
X28585225Y-46803200D01*
X28730177Y-46803200D01*
X28730177Y-46803199D01*
X28870185Y-46765684D01*
X28995715Y-46693209D01*
X29098209Y-46590715D01*
X29170684Y-46465185D01*
X29208199Y-46325177D01*
X29208200Y-46325177D01*
X29208200Y-46202322D01*
X30250700Y-46202322D01*
X30250700Y-46347277D01*
X30288214Y-46487281D01*
X30288216Y-46487286D01*
X30360691Y-46612815D01*
X30463185Y-46715309D01*
X30588715Y-46787784D01*
X30588716Y-46787784D01*
X30588718Y-46787785D01*
X30658720Y-46806542D01*
X30728722Y-46825299D01*
X30728723Y-46825300D01*
X30728725Y-46825300D01*
X30873677Y-46825300D01*
X30873677Y-46825299D01*
X31013685Y-46787784D01*
X31139215Y-46715309D01*
X31241709Y-46612815D01*
X31289816Y-46529491D01*
X51850000Y-46529491D01*
X51850000Y-46710508D01*
X51878316Y-46889289D01*
X51878319Y-46889302D01*
X51934251Y-47061443D01*
X52016431Y-47222728D01*
X52057668Y-47279487D01*
X52531980Y-46805174D01*
X52534075Y-46812993D01*
X52599901Y-46927007D01*
X52692993Y-47020099D01*
X52807007Y-47085925D01*
X52814822Y-47088019D01*
X52340511Y-47562331D01*
X52397266Y-47603566D01*
X52558556Y-47685748D01*
X52558555Y-47685748D01*
X52730697Y-47741680D01*
X52730710Y-47741683D01*
X52909491Y-47770000D01*
X53090509Y-47770000D01*
X53269289Y-47741683D01*
X53269302Y-47741680D01*
X53441443Y-47685748D01*
X53602729Y-47603568D01*
X53659487Y-47562331D01*
X53185176Y-47088019D01*
X53192993Y-47085925D01*
X53307007Y-47020099D01*
X53400099Y-46927007D01*
X53465925Y-46812993D01*
X53468019Y-46805176D01*
X53942331Y-47279487D01*
X53983568Y-47222729D01*
X54065748Y-47061443D01*
X54121680Y-46889302D01*
X54121683Y-46889289D01*
X54150000Y-46710508D01*
X54150000Y-46529491D01*
X54121683Y-46350710D01*
X54121680Y-46350697D01*
X54065748Y-46178556D01*
X53983566Y-46017267D01*
X53983566Y-46017266D01*
X53942331Y-45960511D01*
X53468019Y-46434822D01*
X53465925Y-46427007D01*
X53400099Y-46312993D01*
X53307007Y-46219901D01*
X53192993Y-46154075D01*
X53185174Y-46151980D01*
X53659487Y-45677668D01*
X53602728Y-45636431D01*
X53441443Y-45554251D01*
X53441444Y-45554251D01*
X53269302Y-45498319D01*
X53269289Y-45498316D01*
X53090509Y-45470000D01*
X52909491Y-45470000D01*
X52730710Y-45498316D01*
X52730697Y-45498319D01*
X52558558Y-45554250D01*
X52397268Y-45636431D01*
X52340511Y-45677667D01*
X52340511Y-45677668D01*
X52814823Y-46151980D01*
X52807007Y-46154075D01*
X52692993Y-46219901D01*
X52599901Y-46312993D01*
X52534075Y-46427007D01*
X52531980Y-46434823D01*
X52057668Y-45960511D01*
X52057667Y-45960511D01*
X52016431Y-46017268D01*
X51934250Y-46178558D01*
X51878319Y-46350697D01*
X51878316Y-46350710D01*
X51850000Y-46529491D01*
X31289816Y-46529491D01*
X31314184Y-46487285D01*
X31351699Y-46347277D01*
X31351700Y-46347277D01*
X31351700Y-46202323D01*
X31351699Y-46202322D01*
X31345331Y-46178558D01*
X31314184Y-46062315D01*
X31241709Y-45936785D01*
X31139215Y-45834291D01*
X31027786Y-45769957D01*
X31013686Y-45761816D01*
X31013681Y-45761814D01*
X30873677Y-45724300D01*
X30873675Y-45724300D01*
X30728725Y-45724300D01*
X30728723Y-45724300D01*
X30588718Y-45761814D01*
X30588713Y-45761816D01*
X30463184Y-45834291D01*
X30360691Y-45936784D01*
X30288216Y-46062313D01*
X30288214Y-46062318D01*
X30250700Y-46202322D01*
X29208200Y-46202322D01*
X29208200Y-46180223D01*
X29208199Y-46180222D01*
X29170685Y-46040218D01*
X29170683Y-46040213D01*
X29098208Y-45914684D01*
X28995715Y-45812191D01*
X28870186Y-45739716D01*
X28870181Y-45739714D01*
X28730177Y-45702200D01*
X28730175Y-45702200D01*
X28585225Y-45702200D01*
X28585223Y-45702200D01*
X28445218Y-45739714D01*
X28445213Y-45739716D01*
X28319684Y-45812191D01*
X28217191Y-45914684D01*
X28144716Y-46040213D01*
X28144714Y-46040218D01*
X28107200Y-46180222D01*
X500500Y-46180222D01*
X500500Y-44344792D01*
X9200001Y-44344792D01*
X9202908Y-44369868D01*
X9202910Y-44369874D01*
X9248213Y-44472478D01*
X9327521Y-44551786D01*
X9430124Y-44597089D01*
X9430123Y-44597089D01*
X9455210Y-44599999D01*
X9750000Y-44599999D01*
X10150000Y-44599999D01*
X10444792Y-44599999D01*
X10469868Y-44597091D01*
X10469874Y-44597089D01*
X10572478Y-44551786D01*
X10651786Y-44472478D01*
X10697089Y-44369875D01*
X10700000Y-44344792D01*
X13300001Y-44344792D01*
X13302908Y-44369868D01*
X13302910Y-44369874D01*
X13348213Y-44472478D01*
X13427521Y-44551786D01*
X13530124Y-44597089D01*
X13530123Y-44597089D01*
X13555210Y-44599999D01*
X13850000Y-44599999D01*
X14250000Y-44599999D01*
X14544792Y-44599999D01*
X14569868Y-44597091D01*
X14569874Y-44597089D01*
X14672478Y-44551786D01*
X14751786Y-44472478D01*
X14797089Y-44369875D01*
X14800000Y-44344792D01*
X25200001Y-44344792D01*
X25202908Y-44369868D01*
X25202910Y-44369874D01*
X25248213Y-44472478D01*
X25327521Y-44551786D01*
X25430124Y-44597089D01*
X25430123Y-44597089D01*
X25455210Y-44599999D01*
X25750000Y-44599999D01*
X26150000Y-44599999D01*
X26444792Y-44599999D01*
X26469868Y-44597091D01*
X26469874Y-44597089D01*
X26572478Y-44551786D01*
X26651786Y-44472478D01*
X26697089Y-44369875D01*
X26700000Y-44344792D01*
X29300001Y-44344792D01*
X29302908Y-44369868D01*
X29302910Y-44369874D01*
X29348213Y-44472478D01*
X29427521Y-44551786D01*
X29530124Y-44597089D01*
X29530123Y-44597089D01*
X29555210Y-44599999D01*
X29850000Y-44599999D01*
X30250000Y-44599999D01*
X30544792Y-44599999D01*
X30569868Y-44597091D01*
X30569874Y-44597089D01*
X30672478Y-44551786D01*
X30751786Y-44472478D01*
X30797089Y-44369875D01*
X30800000Y-44344792D01*
X39700001Y-44344792D01*
X39702908Y-44369868D01*
X39702910Y-44369874D01*
X39748213Y-44472478D01*
X39827521Y-44551786D01*
X39930124Y-44597089D01*
X39930123Y-44597089D01*
X39955210Y-44599999D01*
X40250000Y-44599999D01*
X40650000Y-44599999D01*
X40944792Y-44599999D01*
X40969868Y-44597091D01*
X40969874Y-44597089D01*
X41072478Y-44551786D01*
X41151786Y-44472478D01*
X41197089Y-44369875D01*
X41200000Y-44344792D01*
X43800001Y-44344792D01*
X43802908Y-44369868D01*
X43802910Y-44369874D01*
X43848213Y-44472478D01*
X43927521Y-44551786D01*
X44030124Y-44597089D01*
X44030123Y-44597089D01*
X44055210Y-44599999D01*
X44350000Y-44599999D01*
X44750000Y-44599999D01*
X45044792Y-44599999D01*
X45069868Y-44597091D01*
X45069874Y-44597089D01*
X45172478Y-44551786D01*
X45251786Y-44472478D01*
X45297089Y-44369875D01*
X45300000Y-44344789D01*
X45300000Y-44000000D01*
X44750000Y-44000000D01*
X44750000Y-44599999D01*
X44350000Y-44599999D01*
X44350000Y-44000000D01*
X43800001Y-44000000D01*
X43800001Y-44344792D01*
X41200000Y-44344792D01*
X41200000Y-44344789D01*
X41200000Y-44000000D01*
X40650000Y-44000000D01*
X40650000Y-44599999D01*
X40250000Y-44599999D01*
X40250000Y-44000000D01*
X39700001Y-44000000D01*
X39700001Y-44344792D01*
X30800000Y-44344792D01*
X30800000Y-44344789D01*
X30800000Y-44000000D01*
X30250000Y-44000000D01*
X30250000Y-44599999D01*
X29850000Y-44599999D01*
X29850000Y-44000000D01*
X29300001Y-44000000D01*
X29300001Y-44344792D01*
X26700000Y-44344792D01*
X26700000Y-44344789D01*
X26700000Y-44000000D01*
X26150000Y-44000000D01*
X26150000Y-44599999D01*
X25750000Y-44599999D01*
X25750000Y-44000000D01*
X25200001Y-44000000D01*
X25200001Y-44344792D01*
X14800000Y-44344792D01*
X14800000Y-44344789D01*
X14800000Y-44000000D01*
X14250000Y-44000000D01*
X14250000Y-44599999D01*
X13850000Y-44599999D01*
X13850000Y-44000000D01*
X13300001Y-44000000D01*
X13300001Y-44344792D01*
X10700000Y-44344792D01*
X10700000Y-44344789D01*
X10700000Y-44000000D01*
X10150000Y-44000000D01*
X10150000Y-44599999D01*
X9750000Y-44599999D01*
X9750000Y-44000000D01*
X9200001Y-44000000D01*
X9200001Y-44344792D01*
X500500Y-44344792D01*
X500500Y-42897646D01*
X5699500Y-42897646D01*
X5699500Y-43102353D01*
X5731522Y-43304531D01*
X5731525Y-43304544D01*
X5794777Y-43499213D01*
X5887712Y-43681610D01*
X5961406Y-43783040D01*
X6008034Y-43847219D01*
X6152781Y-43991966D01*
X6244695Y-44058745D01*
X6318389Y-44112287D01*
X6406300Y-44157079D01*
X6500781Y-44205220D01*
X6500783Y-44205220D01*
X6500786Y-44205222D01*
X6695455Y-44268474D01*
X6695461Y-44268475D01*
X6695466Y-44268477D01*
X6796557Y-44284488D01*
X6897646Y-44300500D01*
X6897648Y-44300500D01*
X7102354Y-44300500D01*
X7183224Y-44287690D01*
X7304534Y-44268477D01*
X7304541Y-44268474D01*
X7304544Y-44268474D01*
X7499213Y-44205222D01*
X7499213Y-44205221D01*
X7499219Y-44205220D01*
X7681610Y-44112287D01*
X7847219Y-43991966D01*
X7991966Y-43847219D01*
X8112287Y-43681610D01*
X8205220Y-43499219D01*
X8249457Y-43363072D01*
X8268474Y-43304544D01*
X8268474Y-43304542D01*
X8268477Y-43304534D01*
X8276289Y-43255210D01*
X9200000Y-43255210D01*
X9200000Y-43600000D01*
X10699999Y-43600000D01*
X10699999Y-43255207D01*
X10697091Y-43230131D01*
X10697089Y-43230125D01*
X10651786Y-43127521D01*
X10572477Y-43048212D01*
X10549533Y-43038082D01*
X10510419Y-42997120D01*
X10511727Y-42940498D01*
X10538311Y-42908858D01*
X10580598Y-42880603D01*
X10580597Y-42880603D01*
X10580601Y-42880601D01*
X10635966Y-42797740D01*
X10650500Y-42724674D01*
X10650500Y-42624500D01*
X10672174Y-42572174D01*
X10724500Y-42550500D01*
X13275500Y-42550500D01*
X13327826Y-42572174D01*
X13349500Y-42624500D01*
X13349500Y-42724672D01*
X13364034Y-42797740D01*
X13419398Y-42880600D01*
X13419399Y-42880601D01*
X13461689Y-42908858D01*
X13493155Y-42955950D01*
X13482106Y-43011499D01*
X13450467Y-43038082D01*
X13427521Y-43048213D01*
X13348213Y-43127521D01*
X13302910Y-43230124D01*
X13300000Y-43255210D01*
X13300000Y-43600000D01*
X14799999Y-43600000D01*
X14799999Y-43255210D01*
X25200000Y-43255210D01*
X25200000Y-43600000D01*
X26699999Y-43600000D01*
X26699999Y-43255207D01*
X26697091Y-43230131D01*
X26697089Y-43230125D01*
X26651786Y-43127521D01*
X26572477Y-43048212D01*
X26549533Y-43038082D01*
X26510419Y-42997120D01*
X26511727Y-42940498D01*
X26538311Y-42908858D01*
X26580598Y-42880603D01*
X26580597Y-42880603D01*
X26580601Y-42880601D01*
X26635966Y-42797740D01*
X26650500Y-42724674D01*
X26650500Y-42624500D01*
X26672174Y-42572174D01*
X26724500Y-42550500D01*
X29275500Y-42550500D01*
X29327826Y-42572174D01*
X29349500Y-42624500D01*
X29349500Y-42724672D01*
X29364034Y-42797740D01*
X29419398Y-42880600D01*
X29419399Y-42880601D01*
X29461689Y-42908858D01*
X29493155Y-42955950D01*
X29482106Y-43011499D01*
X29450467Y-43038082D01*
X29427521Y-43048213D01*
X29348213Y-43127521D01*
X29302910Y-43230124D01*
X29300000Y-43255210D01*
X29300000Y-43600000D01*
X30799999Y-43600000D01*
X30799999Y-43255207D01*
X30797091Y-43230131D01*
X30797089Y-43230125D01*
X30751786Y-43127521D01*
X30672477Y-43048212D01*
X30649533Y-43038082D01*
X30610419Y-42997120D01*
X30611727Y-42940498D01*
X30638311Y-42908858D01*
X30680598Y-42880603D01*
X30680597Y-42880603D01*
X30680601Y-42880601D01*
X30735966Y-42797740D01*
X30750500Y-42724674D01*
X30750500Y-42624500D01*
X30772174Y-42572174D01*
X30824500Y-42550500D01*
X34581324Y-42550500D01*
X34633650Y-42572174D01*
X34701985Y-42640509D01*
X34751560Y-42669131D01*
X34818163Y-42707585D01*
X34827515Y-42712984D01*
X34827516Y-42712984D01*
X34827518Y-42712985D01*
X34871142Y-42724674D01*
X34967522Y-42750499D01*
X34967523Y-42750500D01*
X34967525Y-42750500D01*
X35112477Y-42750500D01*
X35112477Y-42750499D01*
X35252485Y-42712984D01*
X35378015Y-42640509D01*
X35480509Y-42538015D01*
X35552984Y-42412485D01*
X35590499Y-42272477D01*
X35590500Y-42272477D01*
X35590500Y-42127527D01*
X35590498Y-42127518D01*
X35589052Y-42122122D01*
X38762000Y-42122122D01*
X38762000Y-42267077D01*
X38799514Y-42407081D01*
X38799516Y-42407086D01*
X38853614Y-42500786D01*
X38871991Y-42532615D01*
X38974485Y-42635109D01*
X39033413Y-42669131D01*
X39079029Y-42695468D01*
X39100015Y-42707584D01*
X39100016Y-42707584D01*
X39100018Y-42707585D01*
X39163795Y-42724674D01*
X39240022Y-42745099D01*
X39240023Y-42745100D01*
X39240025Y-42745100D01*
X39384977Y-42745100D01*
X39384977Y-42745099D01*
X39524985Y-42707584D01*
X39638501Y-42642044D01*
X39694652Y-42634652D01*
X39739586Y-42669131D01*
X39749500Y-42706131D01*
X39749500Y-42724672D01*
X39764034Y-42797740D01*
X39819398Y-42880600D01*
X39819399Y-42880601D01*
X39861689Y-42908858D01*
X39893155Y-42955950D01*
X39882106Y-43011499D01*
X39850467Y-43038082D01*
X39827521Y-43048213D01*
X39748213Y-43127521D01*
X39702910Y-43230124D01*
X39700000Y-43255210D01*
X39700000Y-43600000D01*
X41199999Y-43600000D01*
X41199999Y-43255207D01*
X41197091Y-43230131D01*
X41197089Y-43230125D01*
X41151786Y-43127521D01*
X41072477Y-43048212D01*
X41049533Y-43038082D01*
X41010419Y-42997120D01*
X41011727Y-42940498D01*
X41038311Y-42908858D01*
X41080598Y-42880603D01*
X41080597Y-42880603D01*
X41080601Y-42880601D01*
X41135966Y-42797740D01*
X41150500Y-42724674D01*
X41150500Y-42624500D01*
X41172174Y-42572174D01*
X41224500Y-42550500D01*
X43775500Y-42550500D01*
X43827826Y-42572174D01*
X43849500Y-42624500D01*
X43849500Y-42724672D01*
X43864034Y-42797740D01*
X43919398Y-42880600D01*
X43919399Y-42880601D01*
X43961689Y-42908858D01*
X43993155Y-42955950D01*
X43982106Y-43011499D01*
X43950467Y-43038082D01*
X43927521Y-43048213D01*
X43848213Y-43127521D01*
X43802910Y-43230124D01*
X43800000Y-43255210D01*
X43800000Y-43600000D01*
X45299999Y-43600000D01*
X45299999Y-43255207D01*
X45297091Y-43230131D01*
X45297089Y-43230125D01*
X45251786Y-43127521D01*
X45172477Y-43048212D01*
X45149533Y-43038082D01*
X45110419Y-42997120D01*
X45111727Y-42940498D01*
X45128824Y-42916388D01*
X45133254Y-42912236D01*
X45155090Y-42897646D01*
X46699500Y-42897646D01*
X46699500Y-43102353D01*
X46731522Y-43304531D01*
X46731525Y-43304544D01*
X46794777Y-43499213D01*
X46887712Y-43681610D01*
X46961406Y-43783040D01*
X47008034Y-43847219D01*
X47152781Y-43991966D01*
X47244695Y-44058745D01*
X47318389Y-44112287D01*
X47406300Y-44157079D01*
X47500781Y-44205220D01*
X47500783Y-44205220D01*
X47500786Y-44205222D01*
X47695455Y-44268474D01*
X47695461Y-44268475D01*
X47695466Y-44268477D01*
X47796557Y-44284488D01*
X47897646Y-44300500D01*
X47897648Y-44300500D01*
X48102354Y-44300500D01*
X48183224Y-44287690D01*
X48304534Y-44268477D01*
X48304541Y-44268474D01*
X48304544Y-44268474D01*
X48499213Y-44205222D01*
X48499213Y-44205221D01*
X48499219Y-44205220D01*
X48681610Y-44112287D01*
X48845262Y-43993388D01*
X51899500Y-43993388D01*
X51899500Y-44166611D01*
X51926597Y-44337698D01*
X51926600Y-44337711D01*
X51980125Y-44502442D01*
X51980127Y-44502446D01*
X52058767Y-44656787D01*
X52058768Y-44656788D01*
X52160586Y-44796928D01*
X52283072Y-44919414D01*
X52283075Y-44919416D01*
X52283076Y-44919417D01*
X52423212Y-45021232D01*
X52577553Y-45099872D01*
X52577557Y-45099874D01*
X52742288Y-45153399D01*
X52742294Y-45153400D01*
X52742299Y-45153402D01*
X52856359Y-45171467D01*
X52913388Y-45180500D01*
X52913389Y-45180500D01*
X53086612Y-45180500D01*
X53129383Y-45173725D01*
X53257701Y-45153402D01*
X53257708Y-45153399D01*
X53257711Y-45153399D01*
X53422442Y-45099874D01*
X53422442Y-45099873D01*
X53422445Y-45099873D01*
X53576788Y-45021232D01*
X53716928Y-44919414D01*
X53839414Y-44796928D01*
X53941232Y-44656788D01*
X54019873Y-44502445D01*
X54073402Y-44337701D01*
X54100500Y-44166611D01*
X54100500Y-43993389D01*
X54073402Y-43822299D01*
X54073400Y-43822294D01*
X54073399Y-43822288D01*
X54019874Y-43657557D01*
X54019872Y-43657553D01*
X53941232Y-43503212D01*
X53839417Y-43363076D01*
X53839416Y-43363075D01*
X53839414Y-43363072D01*
X53716928Y-43240586D01*
X53716925Y-43240583D01*
X53716923Y-43240582D01*
X53576787Y-43138767D01*
X53422446Y-43060127D01*
X53422442Y-43060125D01*
X53257711Y-43006600D01*
X53257698Y-43006597D01*
X53086612Y-42979500D01*
X53086611Y-42979500D01*
X52913389Y-42979500D01*
X52913388Y-42979500D01*
X52742301Y-43006597D01*
X52742288Y-43006600D01*
X52577557Y-43060125D01*
X52577553Y-43060127D01*
X52423212Y-43138767D01*
X52283076Y-43240582D01*
X52160582Y-43363076D01*
X52058767Y-43503212D01*
X51980127Y-43657553D01*
X51980125Y-43657557D01*
X51926600Y-43822288D01*
X51926597Y-43822301D01*
X51899500Y-43993388D01*
X48845262Y-43993388D01*
X48847219Y-43991966D01*
X48991966Y-43847219D01*
X49112287Y-43681610D01*
X49205220Y-43499219D01*
X49249457Y-43363072D01*
X49268474Y-43304544D01*
X49268474Y-43304541D01*
X49268477Y-43304534D01*
X49300500Y-43102352D01*
X49300500Y-42897648D01*
X49297800Y-42880603D01*
X49277194Y-42750500D01*
X49268477Y-42695466D01*
X49268475Y-42695461D01*
X49268474Y-42695455D01*
X49205222Y-42500786D01*
X49205220Y-42500783D01*
X49205220Y-42500781D01*
X49143378Y-42379409D01*
X49112287Y-42318389D01*
X49058745Y-42244695D01*
X48991966Y-42152781D01*
X48847219Y-42008034D01*
X48783040Y-41961406D01*
X48681610Y-41887712D01*
X48499213Y-41794777D01*
X48304544Y-41731525D01*
X48304531Y-41731522D01*
X48102354Y-41699500D01*
X48102352Y-41699500D01*
X47897648Y-41699500D01*
X47897646Y-41699500D01*
X47695468Y-41731522D01*
X47695455Y-41731525D01*
X47500786Y-41794777D01*
X47318389Y-41887712D01*
X47181023Y-41987515D01*
X47152781Y-42008034D01*
X47008034Y-42152781D01*
X47008031Y-42152784D01*
X47008031Y-42152785D01*
X46887712Y-42318389D01*
X46794777Y-42500786D01*
X46731525Y-42695455D01*
X46731522Y-42695468D01*
X46699500Y-42897646D01*
X45155090Y-42897646D01*
X45180601Y-42880601D01*
X45203348Y-42846556D01*
X45203351Y-42846554D01*
X45235965Y-42797741D01*
X45235964Y-42797741D01*
X45235966Y-42797740D01*
X45250500Y-42724674D01*
X45250500Y-41675326D01*
X45235966Y-41602260D01*
X45180601Y-41519399D01*
X45179553Y-41518699D01*
X45169544Y-41512011D01*
X45097740Y-41464034D01*
X45081557Y-41460815D01*
X45044220Y-41453388D01*
X51899500Y-41453388D01*
X51899500Y-41626611D01*
X51926597Y-41797698D01*
X51926600Y-41797711D01*
X51980125Y-41962442D01*
X51980127Y-41962446D01*
X52058767Y-42116787D01*
X52084918Y-42152781D01*
X52160586Y-42256928D01*
X52283072Y-42379414D01*
X52283075Y-42379416D01*
X52283076Y-42379417D01*
X52423212Y-42481232D01*
X52577553Y-42559872D01*
X52577557Y-42559874D01*
X52742288Y-42613399D01*
X52742294Y-42613400D01*
X52742299Y-42613402D01*
X52856359Y-42631467D01*
X52913388Y-42640500D01*
X52913389Y-42640500D01*
X53086612Y-42640500D01*
X53129383Y-42633725D01*
X53257701Y-42613402D01*
X53257708Y-42613399D01*
X53257711Y-42613399D01*
X53422442Y-42559874D01*
X53422442Y-42559873D01*
X53422445Y-42559873D01*
X53576788Y-42481232D01*
X53716928Y-42379414D01*
X53839414Y-42256928D01*
X53941232Y-42116788D01*
X54019873Y-41962445D01*
X54044155Y-41887713D01*
X54073399Y-41797711D01*
X54073399Y-41797708D01*
X54073402Y-41797701D01*
X54100500Y-41626611D01*
X54100500Y-41453389D01*
X54073402Y-41282299D01*
X54073400Y-41282294D01*
X54073399Y-41282288D01*
X54019874Y-41117557D01*
X54019872Y-41117553D01*
X53941232Y-40963212D01*
X53839417Y-40823076D01*
X53839416Y-40823075D01*
X53839414Y-40823072D01*
X53716928Y-40700586D01*
X53716925Y-40700583D01*
X53716923Y-40700582D01*
X53576787Y-40598767D01*
X53422446Y-40520127D01*
X53422442Y-40520125D01*
X53257711Y-40466600D01*
X53257698Y-40466597D01*
X53086612Y-40439500D01*
X53086611Y-40439500D01*
X52913389Y-40439500D01*
X52913388Y-40439500D01*
X52742301Y-40466597D01*
X52742288Y-40466600D01*
X52577557Y-40520125D01*
X52577553Y-40520127D01*
X52423212Y-40598767D01*
X52283076Y-40700582D01*
X52160582Y-40823076D01*
X52058767Y-40963212D01*
X51980127Y-41117553D01*
X51980125Y-41117557D01*
X51926600Y-41282288D01*
X51926597Y-41282301D01*
X51899500Y-41453388D01*
X45044220Y-41453388D01*
X45024674Y-41449500D01*
X44075326Y-41449500D01*
X44059494Y-41452649D01*
X44003945Y-41441599D01*
X43980973Y-41417072D01*
X43915509Y-41303685D01*
X43813015Y-41201191D01*
X43802768Y-41195275D01*
X43687486Y-41128716D01*
X43687481Y-41128714D01*
X43547477Y-41091200D01*
X43547475Y-41091200D01*
X43402525Y-41091200D01*
X43402523Y-41091200D01*
X43262518Y-41128714D01*
X43262513Y-41128716D01*
X43136984Y-41201191D01*
X43034491Y-41303684D01*
X42962016Y-41429213D01*
X42962014Y-41429218D01*
X42924500Y-41569222D01*
X42924500Y-41714176D01*
X42935800Y-41756346D01*
X42928408Y-41812499D01*
X42883476Y-41846978D01*
X42864322Y-41849500D01*
X41224500Y-41849500D01*
X41172174Y-41827826D01*
X41150500Y-41775500D01*
X41150500Y-41675327D01*
X41150500Y-41675326D01*
X41135966Y-41602260D01*
X41080601Y-41519399D01*
X41079553Y-41518699D01*
X40997740Y-41464034D01*
X40981557Y-41460815D01*
X40924674Y-41449500D01*
X39975326Y-41449500D01*
X39926615Y-41459189D01*
X39902259Y-41464034D01*
X39819399Y-41519398D01*
X39819398Y-41519399D01*
X39764034Y-41602259D01*
X39749500Y-41675327D01*
X39749500Y-41683068D01*
X39727826Y-41735394D01*
X39675500Y-41757068D01*
X39638500Y-41747154D01*
X39524986Y-41681616D01*
X39524981Y-41681614D01*
X39384977Y-41644100D01*
X39384975Y-41644100D01*
X39240025Y-41644100D01*
X39240023Y-41644100D01*
X39100018Y-41681614D01*
X39100013Y-41681616D01*
X38974484Y-41754091D01*
X38871991Y-41856584D01*
X38799516Y-41982113D01*
X38799514Y-41982118D01*
X38762000Y-42122122D01*
X35589052Y-42122122D01*
X35552985Y-41987518D01*
X35552983Y-41987513D01*
X35495363Y-41887713D01*
X35480509Y-41861985D01*
X35378015Y-41759491D01*
X35329577Y-41731525D01*
X35252486Y-41687016D01*
X35252481Y-41687014D01*
X35112477Y-41649500D01*
X35112475Y-41649500D01*
X34967525Y-41649500D01*
X34967523Y-41649500D01*
X34827518Y-41687014D01*
X34827513Y-41687016D01*
X34701984Y-41759491D01*
X34633650Y-41827826D01*
X34581324Y-41849500D01*
X30824500Y-41849500D01*
X30772174Y-41827826D01*
X30750500Y-41775500D01*
X30750500Y-41675327D01*
X30750500Y-41675326D01*
X30735966Y-41602260D01*
X30680601Y-41519399D01*
X30679553Y-41518699D01*
X30597740Y-41464034D01*
X30581557Y-41460815D01*
X30524674Y-41449500D01*
X29575326Y-41449500D01*
X29526615Y-41459189D01*
X29502259Y-41464034D01*
X29419399Y-41519398D01*
X29419398Y-41519399D01*
X29364034Y-41602259D01*
X29349500Y-41675327D01*
X29349500Y-41775500D01*
X29327826Y-41827826D01*
X29275500Y-41849500D01*
X26724500Y-41849500D01*
X26672174Y-41827826D01*
X26650500Y-41775500D01*
X26650500Y-41675327D01*
X26650500Y-41675326D01*
X26635966Y-41602260D01*
X26580601Y-41519399D01*
X26579553Y-41518699D01*
X26497740Y-41464034D01*
X26481557Y-41460815D01*
X26424674Y-41449500D01*
X25475326Y-41449500D01*
X25426615Y-41459189D01*
X25402259Y-41464034D01*
X25319399Y-41519398D01*
X25319398Y-41519399D01*
X25264034Y-41602259D01*
X25249500Y-41675327D01*
X25249500Y-42724672D01*
X25264034Y-42797740D01*
X25319398Y-42880600D01*
X25319399Y-42880601D01*
X25361689Y-42908858D01*
X25393155Y-42955950D01*
X25382106Y-43011499D01*
X25350467Y-43038082D01*
X25327521Y-43048213D01*
X25248213Y-43127521D01*
X25202910Y-43230124D01*
X25200000Y-43255210D01*
X14799999Y-43255210D01*
X14799999Y-43255207D01*
X14797091Y-43230131D01*
X14797089Y-43230125D01*
X14751786Y-43127521D01*
X14672477Y-43048212D01*
X14649533Y-43038082D01*
X14610419Y-42997120D01*
X14611727Y-42940498D01*
X14638311Y-42908858D01*
X14680598Y-42880603D01*
X14680597Y-42880603D01*
X14680601Y-42880601D01*
X14735966Y-42797740D01*
X14750500Y-42724674D01*
X14750500Y-42619968D01*
X14757234Y-42603709D01*
X14758669Y-42586170D01*
X14767428Y-42579098D01*
X14772174Y-42567642D01*
X14801849Y-42549520D01*
X14803587Y-42548961D01*
X14886988Y-42526614D01*
X14897612Y-42520480D01*
X14966912Y-42480470D01*
X16551660Y-40895722D01*
X30787300Y-40895722D01*
X30787300Y-41040677D01*
X30824814Y-41180681D01*
X30824816Y-41180686D01*
X30836655Y-41201191D01*
X30897291Y-41306215D01*
X30999785Y-41408709D01*
X31125315Y-41481184D01*
X31125316Y-41481184D01*
X31125318Y-41481185D01*
X31195320Y-41499942D01*
X31265322Y-41518699D01*
X31265323Y-41518700D01*
X31265325Y-41518700D01*
X31410277Y-41518700D01*
X31410277Y-41518699D01*
X31550285Y-41481184D01*
X31675815Y-41408709D01*
X31778309Y-41306215D01*
X31850784Y-41180685D01*
X31888299Y-41040677D01*
X31888300Y-41040677D01*
X31888300Y-40895723D01*
X31888299Y-40895722D01*
X31850785Y-40755718D01*
X31850783Y-40755713D01*
X31818953Y-40700582D01*
X31778309Y-40630185D01*
X31675815Y-40527691D01*
X31570003Y-40466600D01*
X31550286Y-40455216D01*
X31550281Y-40455214D01*
X31410277Y-40417700D01*
X31410275Y-40417700D01*
X31265325Y-40417700D01*
X31265323Y-40417700D01*
X31125318Y-40455214D01*
X31125313Y-40455216D01*
X30999784Y-40527691D01*
X30897291Y-40630184D01*
X30824816Y-40755713D01*
X30824814Y-40755718D01*
X30787300Y-40895722D01*
X16551660Y-40895722D01*
X17338660Y-40108722D01*
X20399500Y-40108722D01*
X20399500Y-40253677D01*
X20437014Y-40393681D01*
X20437016Y-40393686D01*
X20509491Y-40519215D01*
X20611985Y-40621709D01*
X20737515Y-40694184D01*
X20737516Y-40694184D01*
X20737518Y-40694185D01*
X20807520Y-40712942D01*
X20877522Y-40731699D01*
X20877523Y-40731700D01*
X20877525Y-40731700D01*
X21022477Y-40731700D01*
X21022477Y-40731699D01*
X21162485Y-40694184D01*
X21288015Y-40621709D01*
X21390509Y-40519215D01*
X21462984Y-40393685D01*
X21500499Y-40253677D01*
X21500500Y-40253677D01*
X21500500Y-40108723D01*
X21500499Y-40108722D01*
X21462985Y-39968718D01*
X21462983Y-39968713D01*
X21390508Y-39843184D01*
X21288015Y-39740691D01*
X21162486Y-39668216D01*
X21162481Y-39668214D01*
X21022477Y-39630700D01*
X21022475Y-39630700D01*
X20877525Y-39630700D01*
X20877523Y-39630700D01*
X20737518Y-39668214D01*
X20737513Y-39668216D01*
X20611984Y-39740691D01*
X20509491Y-39843184D01*
X20437016Y-39968713D01*
X20437014Y-39968718D01*
X20399500Y-40108722D01*
X17338660Y-40108722D01*
X18137808Y-39309574D01*
X18190134Y-39287900D01*
X34400124Y-39287900D01*
X34452450Y-39309574D01*
X34520785Y-39377909D01*
X34646315Y-39450384D01*
X34646316Y-39450384D01*
X34646318Y-39450385D01*
X34716320Y-39469142D01*
X34786322Y-39487899D01*
X34786323Y-39487900D01*
X34786325Y-39487900D01*
X34931277Y-39487900D01*
X34931277Y-39487899D01*
X35071285Y-39450384D01*
X35196815Y-39377909D01*
X35299309Y-39275415D01*
X35371784Y-39149885D01*
X35409299Y-39009877D01*
X35409300Y-39009877D01*
X35409300Y-38864923D01*
X35409299Y-38864922D01*
X35371785Y-38724918D01*
X35371783Y-38724913D01*
X35299308Y-38599384D01*
X35196815Y-38496891D01*
X35071286Y-38424416D01*
X35071281Y-38424414D01*
X34931277Y-38386900D01*
X34931275Y-38386900D01*
X34786325Y-38386900D01*
X34786323Y-38386900D01*
X34646318Y-38424414D01*
X34646313Y-38424416D01*
X34520784Y-38496891D01*
X34452450Y-38565226D01*
X34400124Y-38586900D01*
X17968154Y-38586900D01*
X17879015Y-38610784D01*
X17879010Y-38610786D01*
X17799087Y-38656930D01*
X14846906Y-41609111D01*
X14794580Y-41630785D01*
X14742254Y-41609111D01*
X14733051Y-41597897D01*
X14680601Y-41519399D01*
X14680600Y-41519398D01*
X14597740Y-41464034D01*
X14581557Y-41460815D01*
X14524674Y-41449500D01*
X14524672Y-41449500D01*
X14371814Y-41449500D01*
X14319488Y-41427826D01*
X14297814Y-41375500D01*
X14307728Y-41338500D01*
X14308052Y-41337937D01*
X14309584Y-41335285D01*
X14347099Y-41195277D01*
X14347100Y-41195277D01*
X14347100Y-41050323D01*
X14347099Y-41050322D01*
X14309585Y-40910318D01*
X14309583Y-40910313D01*
X14237108Y-40784784D01*
X14134615Y-40682291D01*
X14009086Y-40609816D01*
X14009081Y-40609814D01*
X13869077Y-40572300D01*
X13869075Y-40572300D01*
X13724125Y-40572300D01*
X13724123Y-40572300D01*
X13584118Y-40609814D01*
X13584113Y-40609816D01*
X13458584Y-40682291D01*
X13356091Y-40784784D01*
X13283616Y-40910313D01*
X13283614Y-40910318D01*
X13246100Y-41050322D01*
X13246100Y-41195277D01*
X13283614Y-41335281D01*
X13283616Y-41335286D01*
X13356091Y-41460815D01*
X13374564Y-41479288D01*
X13396238Y-41531614D01*
X13383768Y-41572724D01*
X13364034Y-41602259D01*
X13364033Y-41602261D01*
X13349500Y-41675327D01*
X13349500Y-41775500D01*
X13327826Y-41827826D01*
X13275500Y-41849500D01*
X10724500Y-41849500D01*
X10672174Y-41827826D01*
X10650500Y-41775500D01*
X10650500Y-41675327D01*
X10650500Y-41675326D01*
X10635966Y-41602260D01*
X10580601Y-41519399D01*
X10579553Y-41518699D01*
X10497740Y-41464034D01*
X10481557Y-41460815D01*
X10424674Y-41449500D01*
X9475326Y-41449500D01*
X9426615Y-41459189D01*
X9402259Y-41464034D01*
X9319399Y-41519398D01*
X9319398Y-41519399D01*
X9264034Y-41602259D01*
X9249500Y-41675327D01*
X9249500Y-42724672D01*
X9264034Y-42797740D01*
X9319398Y-42880600D01*
X9319399Y-42880601D01*
X9361689Y-42908858D01*
X9393155Y-42955950D01*
X9382106Y-43011499D01*
X9350467Y-43038082D01*
X9327521Y-43048213D01*
X9248213Y-43127521D01*
X9202910Y-43230124D01*
X9200000Y-43255210D01*
X8276289Y-43255210D01*
X8300500Y-43102352D01*
X8300500Y-42897648D01*
X8297800Y-42880603D01*
X8277194Y-42750500D01*
X8268477Y-42695466D01*
X8268475Y-42695461D01*
X8268474Y-42695455D01*
X8205222Y-42500786D01*
X8205220Y-42500783D01*
X8205220Y-42500781D01*
X8143378Y-42379409D01*
X8112287Y-42318389D01*
X8058745Y-42244695D01*
X7991966Y-42152781D01*
X7847219Y-42008034D01*
X7783040Y-41961406D01*
X7681610Y-41887712D01*
X7499213Y-41794777D01*
X7304544Y-41731525D01*
X7304531Y-41731522D01*
X7102354Y-41699500D01*
X7102352Y-41699500D01*
X6897648Y-41699500D01*
X6897646Y-41699500D01*
X6695468Y-41731522D01*
X6695455Y-41731525D01*
X6500786Y-41794777D01*
X6318389Y-41887712D01*
X6181023Y-41987515D01*
X6152781Y-42008034D01*
X6008034Y-42152781D01*
X6008031Y-42152784D01*
X6008031Y-42152785D01*
X5887712Y-42318389D01*
X5794777Y-42500786D01*
X5731525Y-42695455D01*
X5731522Y-42695468D01*
X5699500Y-42897646D01*
X500500Y-42897646D01*
X500500Y-37401622D01*
X12671900Y-37401622D01*
X12671900Y-37546577D01*
X12709414Y-37686581D01*
X12709416Y-37686586D01*
X12720978Y-37706611D01*
X12781891Y-37812115D01*
X12884385Y-37914609D01*
X13009915Y-37987084D01*
X13009916Y-37987084D01*
X13009918Y-37987085D01*
X13079920Y-38005842D01*
X13149922Y-38024599D01*
X13149923Y-38024600D01*
X13149925Y-38024600D01*
X13294877Y-38024600D01*
X13294877Y-38024599D01*
X13434885Y-37987084D01*
X13560415Y-37914609D01*
X13662909Y-37812115D01*
X13735384Y-37686585D01*
X13772899Y-37546577D01*
X13772900Y-37546577D01*
X13772900Y-37533388D01*
X40899500Y-37533388D01*
X40899500Y-37706611D01*
X40926597Y-37877698D01*
X40926600Y-37877711D01*
X40980125Y-38042442D01*
X40980127Y-38042446D01*
X41022357Y-38125327D01*
X41058768Y-38196788D01*
X41160586Y-38336928D01*
X41283072Y-38459414D01*
X41283075Y-38459416D01*
X41283076Y-38459417D01*
X41423212Y-38561232D01*
X41577553Y-38639872D01*
X41577557Y-38639874D01*
X41742288Y-38693399D01*
X41742294Y-38693400D01*
X41742299Y-38693402D01*
X41856359Y-38711467D01*
X41913388Y-38720500D01*
X41913389Y-38720500D01*
X42086612Y-38720500D01*
X42129383Y-38713725D01*
X42257701Y-38693402D01*
X42257708Y-38693399D01*
X42257711Y-38693399D01*
X42422442Y-38639874D01*
X42422442Y-38639873D01*
X42422445Y-38639873D01*
X42576788Y-38561232D01*
X42716928Y-38459414D01*
X42839414Y-38336928D01*
X42941232Y-38196788D01*
X42977643Y-38125326D01*
X51899500Y-38125326D01*
X51899500Y-39874674D01*
X51914034Y-39947740D01*
X51969399Y-40030601D01*
X52052260Y-40085966D01*
X52125326Y-40100500D01*
X52125328Y-40100500D01*
X53874672Y-40100500D01*
X53874674Y-40100500D01*
X53947740Y-40085966D01*
X54030601Y-40030601D01*
X54085966Y-39947740D01*
X54100500Y-39874674D01*
X54100500Y-38125326D01*
X54085966Y-38052260D01*
X54030601Y-37969399D01*
X53947740Y-37914034D01*
X53874674Y-37899500D01*
X52125326Y-37899500D01*
X52076615Y-37909189D01*
X52052259Y-37914034D01*
X51969399Y-37969398D01*
X51969398Y-37969399D01*
X51914034Y-38052259D01*
X51914034Y-38052260D01*
X51899500Y-38125326D01*
X42977643Y-38125326D01*
X42996614Y-38088094D01*
X43019868Y-38042456D01*
X43019874Y-38042442D01*
X43073399Y-37877711D01*
X43073399Y-37877708D01*
X43073402Y-37877701D01*
X43100500Y-37706611D01*
X43100500Y-37533389D01*
X43073402Y-37362299D01*
X43073400Y-37362294D01*
X43073399Y-37362288D01*
X43019874Y-37197557D01*
X43019872Y-37197553D01*
X42941232Y-37043212D01*
X42839417Y-36903076D01*
X42839416Y-36903075D01*
X42839414Y-36903072D01*
X42716928Y-36780586D01*
X42716925Y-36780583D01*
X42716923Y-36780582D01*
X42576787Y-36678767D01*
X42422446Y-36600127D01*
X42422442Y-36600125D01*
X42257711Y-36546600D01*
X42257698Y-36546597D01*
X42086612Y-36519500D01*
X42086611Y-36519500D01*
X41913389Y-36519500D01*
X41913388Y-36519500D01*
X41742301Y-36546597D01*
X41742288Y-36546600D01*
X41577557Y-36600125D01*
X41577553Y-36600127D01*
X41423212Y-36678767D01*
X41283076Y-36780582D01*
X41160582Y-36903076D01*
X41058767Y-37043212D01*
X40980127Y-37197553D01*
X40980125Y-37197557D01*
X40926600Y-37362288D01*
X40926597Y-37362301D01*
X40899500Y-37533388D01*
X13772900Y-37533388D01*
X13772900Y-37401623D01*
X13772899Y-37401622D01*
X13762362Y-37362299D01*
X13735384Y-37261615D01*
X13662909Y-37136085D01*
X13560415Y-37033591D01*
X13434886Y-36961116D01*
X13434881Y-36961114D01*
X13294877Y-36923600D01*
X13294875Y-36923600D01*
X13149925Y-36923600D01*
X13149923Y-36923600D01*
X13009918Y-36961114D01*
X13009913Y-36961116D01*
X12884384Y-37033591D01*
X12781891Y-37136084D01*
X12709416Y-37261613D01*
X12709414Y-37261618D01*
X12671900Y-37401622D01*
X500500Y-37401622D01*
X500500Y-35413822D01*
X21005600Y-35413822D01*
X21005600Y-35558777D01*
X21043114Y-35698781D01*
X21043116Y-35698786D01*
X21099776Y-35796923D01*
X21115591Y-35824315D01*
X21218085Y-35926809D01*
X21343615Y-35999284D01*
X21343616Y-35999284D01*
X21343618Y-35999285D01*
X21413620Y-36018042D01*
X21483622Y-36036799D01*
X21483623Y-36036800D01*
X21483625Y-36036800D01*
X21628577Y-36036800D01*
X21628577Y-36036799D01*
X21768585Y-35999284D01*
X21894115Y-35926809D01*
X21996609Y-35824315D01*
X22069084Y-35698785D01*
X22106599Y-35558777D01*
X22106600Y-35558777D01*
X22106600Y-35532845D01*
X22128274Y-35480519D01*
X23376619Y-34232174D01*
X23428945Y-34210500D01*
X41134506Y-34210500D01*
X41186832Y-34232174D01*
X41208506Y-34284500D01*
X41186832Y-34336826D01*
X41160582Y-34363076D01*
X41058767Y-34503212D01*
X40980127Y-34657553D01*
X40980125Y-34657557D01*
X40926600Y-34822288D01*
X40926597Y-34822301D01*
X40899500Y-34993388D01*
X40899500Y-35166611D01*
X40926597Y-35337698D01*
X40926600Y-35337711D01*
X40980125Y-35502442D01*
X40980127Y-35502446D01*
X41058767Y-35656787D01*
X41089280Y-35698785D01*
X41160586Y-35796928D01*
X41283072Y-35919414D01*
X41283075Y-35919416D01*
X41283076Y-35919417D01*
X41423212Y-36021232D01*
X41577553Y-36099872D01*
X41577557Y-36099874D01*
X41742288Y-36153399D01*
X41742294Y-36153400D01*
X41742299Y-36153402D01*
X41856359Y-36171467D01*
X41913388Y-36180500D01*
X41913389Y-36180500D01*
X42086612Y-36180500D01*
X42129383Y-36173725D01*
X42257701Y-36153402D01*
X42257708Y-36153399D01*
X42257711Y-36153399D01*
X42422442Y-36099874D01*
X42422442Y-36099873D01*
X42422445Y-36099873D01*
X42576788Y-36021232D01*
X42716928Y-35919414D01*
X42839414Y-35796928D01*
X42941232Y-35656788D01*
X43019873Y-35502445D01*
X43073402Y-35337701D01*
X43100500Y-35166611D01*
X43100500Y-34993389D01*
X43097320Y-34973314D01*
X43086244Y-34903383D01*
X43073402Y-34822299D01*
X43073400Y-34822294D01*
X43073399Y-34822288D01*
X43019874Y-34657557D01*
X43019872Y-34657553D01*
X42941232Y-34503212D01*
X42839417Y-34363076D01*
X42839416Y-34363075D01*
X42839414Y-34363072D01*
X42813168Y-34336826D01*
X42791494Y-34284500D01*
X42813168Y-34232174D01*
X42865494Y-34210500D01*
X49742729Y-34210500D01*
X49742729Y-34210499D01*
X49844587Y-34183207D01*
X49935913Y-34130480D01*
X50010480Y-34055913D01*
X50063207Y-33964587D01*
X50090499Y-33862729D01*
X50090500Y-33862729D01*
X50090500Y-33352126D01*
X50749500Y-33352126D01*
X50749500Y-34647873D01*
X50755909Y-34707485D01*
X50806202Y-34842329D01*
X50806203Y-34842330D01*
X50806204Y-34842331D01*
X50892454Y-34957546D01*
X51007669Y-35043796D01*
X51007670Y-35043797D01*
X51118605Y-35085172D01*
X51142517Y-35094091D01*
X51202127Y-35100500D01*
X52797872Y-35100499D01*
X52857483Y-35094091D01*
X52924907Y-35068943D01*
X52992329Y-35043797D01*
X52992329Y-35043796D01*
X52992331Y-35043796D01*
X53107546Y-34957546D01*
X53193796Y-34842331D01*
X53198057Y-34830908D01*
X53210561Y-34797381D01*
X53244091Y-34707483D01*
X53250500Y-34647873D01*
X53250499Y-33352128D01*
X53244091Y-33292517D01*
X53219850Y-33227523D01*
X53193797Y-33157670D01*
X53193796Y-33157669D01*
X53182614Y-33142732D01*
X53107546Y-33042454D01*
X53021295Y-32977886D01*
X52992330Y-32956203D01*
X52992329Y-32956202D01*
X52857487Y-32905910D01*
X52857484Y-32905909D01*
X52857483Y-32905909D01*
X52797873Y-32899500D01*
X51202126Y-32899500D01*
X51142514Y-32905909D01*
X51007670Y-32956202D01*
X51007669Y-32956203D01*
X50892454Y-33042454D01*
X50806203Y-33157669D01*
X50806202Y-33157670D01*
X50755910Y-33292512D01*
X50755909Y-33292517D01*
X50749500Y-33352126D01*
X50090500Y-33352126D01*
X50090500Y-31974500D01*
X50112174Y-31922174D01*
X50164500Y-31900500D01*
X50773598Y-31900500D01*
X50825924Y-31922174D01*
X50839533Y-31940905D01*
X50907385Y-32074075D01*
X50908768Y-32076788D01*
X51010586Y-32216928D01*
X51133072Y-32339414D01*
X51133075Y-32339416D01*
X51133076Y-32339417D01*
X51273212Y-32441232D01*
X51427553Y-32519872D01*
X51427557Y-32519874D01*
X51592288Y-32573399D01*
X51592294Y-32573400D01*
X51592299Y-32573402D01*
X51706359Y-32591467D01*
X51763388Y-32600500D01*
X51763389Y-32600500D01*
X52236612Y-32600500D01*
X52279383Y-32593725D01*
X52407701Y-32573402D01*
X52407708Y-32573399D01*
X52407711Y-32573399D01*
X52572442Y-32519874D01*
X52572442Y-32519873D01*
X52572445Y-32519873D01*
X52726788Y-32441232D01*
X52866928Y-32339414D01*
X52989414Y-32216928D01*
X53091232Y-32076788D01*
X53169873Y-31922445D01*
X53223402Y-31757701D01*
X53250500Y-31586611D01*
X53250500Y-31413389D01*
X53223402Y-31242299D01*
X53223400Y-31242294D01*
X53223399Y-31242288D01*
X53169874Y-31077557D01*
X53169872Y-31077553D01*
X53091232Y-30923212D01*
X52989417Y-30783076D01*
X52989416Y-30783075D01*
X52989414Y-30783072D01*
X52866928Y-30660586D01*
X52866925Y-30660583D01*
X52866923Y-30660582D01*
X52726787Y-30558767D01*
X52572446Y-30480127D01*
X52572442Y-30480125D01*
X52407711Y-30426600D01*
X52407698Y-30426597D01*
X52236612Y-30399500D01*
X52236611Y-30399500D01*
X51763389Y-30399500D01*
X51763388Y-30399500D01*
X51592301Y-30426597D01*
X51592288Y-30426600D01*
X51427557Y-30480125D01*
X51427553Y-30480127D01*
X51273212Y-30558767D01*
X51133076Y-30660582D01*
X51010582Y-30783076D01*
X50908767Y-30923212D01*
X50839533Y-31059095D01*
X50796466Y-31095878D01*
X50773598Y-31099500D01*
X49637271Y-31099500D01*
X49535417Y-31126791D01*
X49535408Y-31126795D01*
X49444086Y-31179520D01*
X49369520Y-31254086D01*
X49316795Y-31345408D01*
X49316791Y-31345417D01*
X49289500Y-31447270D01*
X49289500Y-33335500D01*
X49267826Y-33387826D01*
X49215500Y-33409500D01*
X42934922Y-33409500D01*
X42882596Y-33387826D01*
X42860922Y-33335500D01*
X42876779Y-33292484D01*
X42875462Y-33291527D01*
X42983566Y-33142733D01*
X42983566Y-33142732D01*
X43065748Y-32981443D01*
X43121680Y-32809302D01*
X43121683Y-32809289D01*
X43150000Y-32630508D01*
X43150000Y-32449491D01*
X43121683Y-32270710D01*
X43121680Y-32270697D01*
X43065748Y-32098556D01*
X42983566Y-31937267D01*
X42983566Y-31937266D01*
X42942331Y-31880511D01*
X42468019Y-32354822D01*
X42465925Y-32347007D01*
X42400099Y-32232993D01*
X42307007Y-32139901D01*
X42192993Y-32074075D01*
X42185174Y-32071980D01*
X42659487Y-31597668D01*
X42602728Y-31556431D01*
X42441443Y-31474251D01*
X42441444Y-31474251D01*
X42269302Y-31418319D01*
X42269289Y-31418316D01*
X42090509Y-31390000D01*
X41909491Y-31390000D01*
X41730710Y-31418316D01*
X41730697Y-31418319D01*
X41558558Y-31474250D01*
X41397268Y-31556431D01*
X41340511Y-31597667D01*
X41340511Y-31597668D01*
X41814823Y-32071980D01*
X41807007Y-32074075D01*
X41692993Y-32139901D01*
X41599901Y-32232993D01*
X41534075Y-32347007D01*
X41531980Y-32354823D01*
X41057668Y-31880511D01*
X41057667Y-31880511D01*
X41016431Y-31937268D01*
X40934250Y-32098558D01*
X40878319Y-32270697D01*
X40878316Y-32270710D01*
X40850000Y-32449491D01*
X40850000Y-32630508D01*
X40878316Y-32809289D01*
X40878319Y-32809302D01*
X40934251Y-32981443D01*
X41016433Y-33142732D01*
X41016433Y-33142733D01*
X41124538Y-33291527D01*
X41123040Y-33292614D01*
X41138847Y-33341341D01*
X41113110Y-33391793D01*
X41065078Y-33409500D01*
X23285127Y-33409500D01*
X23179673Y-33409500D01*
X23128742Y-33423146D01*
X23077811Y-33436793D01*
X23077807Y-33436795D01*
X22986490Y-33489517D01*
X21561881Y-34914126D01*
X21509555Y-34935800D01*
X21483623Y-34935800D01*
X21343618Y-34973314D01*
X21343613Y-34973316D01*
X21218084Y-35045791D01*
X21115591Y-35148284D01*
X21043116Y-35273813D01*
X21043114Y-35273818D01*
X21005600Y-35413822D01*
X500500Y-35413822D01*
X500500Y-34317922D01*
X13299700Y-34317922D01*
X13299700Y-34462877D01*
X13337214Y-34602881D01*
X13337216Y-34602886D01*
X13368780Y-34657555D01*
X13409691Y-34728415D01*
X13512185Y-34830909D01*
X13637715Y-34903384D01*
X13637716Y-34903384D01*
X13637718Y-34903385D01*
X13677804Y-34914126D01*
X13777722Y-34940899D01*
X13777723Y-34940900D01*
X13777725Y-34940900D01*
X13922677Y-34940900D01*
X13922677Y-34940899D01*
X14062685Y-34903384D01*
X14188215Y-34830909D01*
X14290709Y-34728415D01*
X14363184Y-34602885D01*
X14400699Y-34462877D01*
X14400700Y-34462877D01*
X14400700Y-34317923D01*
X14400699Y-34317922D01*
X14363185Y-34177918D01*
X14363183Y-34177913D01*
X14335797Y-34130479D01*
X14290709Y-34052385D01*
X14188215Y-33949891D01*
X14062686Y-33877416D01*
X14062681Y-33877414D01*
X13922677Y-33839900D01*
X13922675Y-33839900D01*
X13777725Y-33839900D01*
X13777723Y-33839900D01*
X13637718Y-33877414D01*
X13637713Y-33877416D01*
X13512184Y-33949891D01*
X13409691Y-34052384D01*
X13337216Y-34177913D01*
X13337214Y-34177918D01*
X13299700Y-34317922D01*
X500500Y-34317922D01*
X500500Y-33227522D01*
X18949500Y-33227522D01*
X18949500Y-33372477D01*
X18987014Y-33512481D01*
X18987016Y-33512486D01*
X19059491Y-33638015D01*
X19161985Y-33740509D01*
X19287515Y-33812984D01*
X19287516Y-33812984D01*
X19287518Y-33812985D01*
X19357520Y-33831742D01*
X19427522Y-33850499D01*
X19427523Y-33850500D01*
X19427525Y-33850500D01*
X19572477Y-33850500D01*
X19572477Y-33850499D01*
X19712485Y-33812984D01*
X19838015Y-33740509D01*
X19856350Y-33722174D01*
X19908676Y-33700500D01*
X20791324Y-33700500D01*
X20843650Y-33722174D01*
X20861985Y-33740509D01*
X20987515Y-33812984D01*
X20987516Y-33812984D01*
X20987518Y-33812985D01*
X21057520Y-33831742D01*
X21127522Y-33850499D01*
X21127523Y-33850500D01*
X21127525Y-33850500D01*
X21272477Y-33850500D01*
X21272477Y-33850499D01*
X21412485Y-33812984D01*
X21538015Y-33740509D01*
X21640509Y-33638015D01*
X21712984Y-33512485D01*
X21750499Y-33372477D01*
X21750500Y-33372477D01*
X21750500Y-33227523D01*
X21750499Y-33227522D01*
X21712985Y-33087518D01*
X21712983Y-33087513D01*
X21640508Y-32961984D01*
X21538015Y-32859491D01*
X21412486Y-32787016D01*
X21412481Y-32787014D01*
X21272477Y-32749500D01*
X21272475Y-32749500D01*
X21127525Y-32749500D01*
X21127523Y-32749500D01*
X20987518Y-32787014D01*
X20987513Y-32787016D01*
X20861984Y-32859491D01*
X20843650Y-32877826D01*
X20791324Y-32899500D01*
X19908676Y-32899500D01*
X19856350Y-32877826D01*
X19838015Y-32859491D01*
X19712486Y-32787016D01*
X19712481Y-32787014D01*
X19572477Y-32749500D01*
X19572475Y-32749500D01*
X19427525Y-32749500D01*
X19427523Y-32749500D01*
X19287518Y-32787014D01*
X19287513Y-32787016D01*
X19161984Y-32859491D01*
X19059491Y-32961984D01*
X18987016Y-33087513D01*
X18987014Y-33087518D01*
X18949500Y-33227522D01*
X500500Y-33227522D01*
X500500Y-30606384D01*
X19429500Y-30606384D01*
X19429500Y-30793615D01*
X19466025Y-30977244D01*
X19466027Y-30977251D01*
X19527969Y-31126793D01*
X19537678Y-31150231D01*
X19641698Y-31305908D01*
X19774092Y-31438302D01*
X19929769Y-31542322D01*
X20102749Y-31613973D01*
X20286384Y-31650500D01*
X20286385Y-31650500D01*
X20473615Y-31650500D01*
X20473616Y-31650500D01*
X20657251Y-31613973D01*
X20830231Y-31542322D01*
X20985908Y-31438302D01*
X21118302Y-31305908D01*
X21222322Y-31150231D01*
X21293973Y-30977251D01*
X21330500Y-30793616D01*
X21330500Y-30606384D01*
X21969500Y-30606384D01*
X21969500Y-30793615D01*
X22006025Y-30977244D01*
X22006027Y-30977251D01*
X22067969Y-31126793D01*
X22077678Y-31150231D01*
X22181698Y-31305908D01*
X22314092Y-31438302D01*
X22469769Y-31542322D01*
X22642749Y-31613973D01*
X22826384Y-31650500D01*
X22826385Y-31650500D01*
X23013615Y-31650500D01*
X23013616Y-31650500D01*
X23197251Y-31613973D01*
X23370231Y-31542322D01*
X23525908Y-31438302D01*
X23658302Y-31305908D01*
X23762322Y-31150231D01*
X23833973Y-30977251D01*
X23870500Y-30793616D01*
X23870500Y-30606384D01*
X24509500Y-30606384D01*
X24509500Y-30793615D01*
X24546025Y-30977244D01*
X24546027Y-30977251D01*
X24607969Y-31126793D01*
X24617678Y-31150231D01*
X24721698Y-31305908D01*
X24854092Y-31438302D01*
X25009769Y-31542322D01*
X25182749Y-31613973D01*
X25366384Y-31650500D01*
X25366385Y-31650500D01*
X25553615Y-31650500D01*
X25553616Y-31650500D01*
X25737251Y-31613973D01*
X25910231Y-31542322D01*
X26065908Y-31438302D01*
X26198302Y-31305908D01*
X26302322Y-31150231D01*
X26373973Y-30977251D01*
X26410500Y-30793616D01*
X26410500Y-30606384D01*
X27049500Y-30606384D01*
X27049500Y-30793615D01*
X27086025Y-30977244D01*
X27086027Y-30977251D01*
X27147969Y-31126793D01*
X27157678Y-31150231D01*
X27261698Y-31305908D01*
X27394092Y-31438302D01*
X27549769Y-31542322D01*
X27722749Y-31613973D01*
X27906384Y-31650500D01*
X27906385Y-31650500D01*
X28093615Y-31650500D01*
X28093616Y-31650500D01*
X28277251Y-31613973D01*
X28450231Y-31542322D01*
X28605908Y-31438302D01*
X28738302Y-31305908D01*
X28842322Y-31150231D01*
X28913973Y-30977251D01*
X28950500Y-30793616D01*
X28950500Y-30606384D01*
X29589500Y-30606384D01*
X29589500Y-30793615D01*
X29626025Y-30977244D01*
X29626027Y-30977251D01*
X29687969Y-31126793D01*
X29697678Y-31150231D01*
X29801698Y-31305908D01*
X29934092Y-31438302D01*
X30089769Y-31542322D01*
X30262749Y-31613973D01*
X30446384Y-31650500D01*
X30446385Y-31650500D01*
X30633615Y-31650500D01*
X30633616Y-31650500D01*
X30817251Y-31613973D01*
X30990231Y-31542322D01*
X31145908Y-31438302D01*
X31278302Y-31305908D01*
X31382322Y-31150231D01*
X31453973Y-30977251D01*
X31490500Y-30793616D01*
X31490500Y-30606384D01*
X32129500Y-30606384D01*
X32129500Y-30793615D01*
X32166025Y-30977244D01*
X32166027Y-30977251D01*
X32227969Y-31126793D01*
X32237678Y-31150231D01*
X32341698Y-31305908D01*
X32474092Y-31438302D01*
X32629769Y-31542322D01*
X32802749Y-31613973D01*
X32986384Y-31650500D01*
X32986385Y-31650500D01*
X33173615Y-31650500D01*
X33173616Y-31650500D01*
X33357251Y-31613973D01*
X33530231Y-31542322D01*
X33685908Y-31438302D01*
X33818302Y-31305908D01*
X33922322Y-31150231D01*
X33993973Y-30977251D01*
X34030500Y-30793616D01*
X34030500Y-30606384D01*
X34669500Y-30606384D01*
X34669500Y-30793615D01*
X34706025Y-30977244D01*
X34706027Y-30977251D01*
X34767969Y-31126793D01*
X34777678Y-31150231D01*
X34881698Y-31305908D01*
X35014092Y-31438302D01*
X35169769Y-31542322D01*
X35342749Y-31613973D01*
X35526384Y-31650500D01*
X35526385Y-31650500D01*
X35713615Y-31650500D01*
X35713616Y-31650500D01*
X35897251Y-31613973D01*
X36070231Y-31542322D01*
X36225908Y-31438302D01*
X36358302Y-31305908D01*
X36462322Y-31150231D01*
X36533973Y-30977251D01*
X36570500Y-30793616D01*
X36570500Y-30606384D01*
X36533973Y-30422749D01*
X36462322Y-30249769D01*
X36358302Y-30094092D01*
X36225908Y-29961698D01*
X36070231Y-29857678D01*
X36070228Y-29857676D01*
X36070227Y-29857676D01*
X35897251Y-29786027D01*
X35897244Y-29786025D01*
X35758902Y-29758507D01*
X35713616Y-29749500D01*
X35526384Y-29749500D01*
X35490056Y-29756725D01*
X35342755Y-29786025D01*
X35342748Y-29786027D01*
X35169772Y-29857676D01*
X35014092Y-29961697D01*
X35014091Y-29961699D01*
X34881699Y-30094091D01*
X34881697Y-30094092D01*
X34777676Y-30249772D01*
X34706027Y-30422748D01*
X34706025Y-30422755D01*
X34669500Y-30606384D01*
X34030500Y-30606384D01*
X33993973Y-30422749D01*
X33922322Y-30249769D01*
X33818302Y-30094092D01*
X33685908Y-29961698D01*
X33530231Y-29857678D01*
X33530228Y-29857676D01*
X33530227Y-29857676D01*
X33357251Y-29786027D01*
X33357244Y-29786025D01*
X33218902Y-29758507D01*
X33173616Y-29749500D01*
X32986384Y-29749500D01*
X32950056Y-29756725D01*
X32802755Y-29786025D01*
X32802748Y-29786027D01*
X32629772Y-29857676D01*
X32474092Y-29961697D01*
X32474091Y-29961699D01*
X32341699Y-30094091D01*
X32341697Y-30094092D01*
X32237676Y-30249772D01*
X32166027Y-30422748D01*
X32166025Y-30422755D01*
X32129500Y-30606384D01*
X31490500Y-30606384D01*
X31453973Y-30422749D01*
X31382322Y-30249769D01*
X31278302Y-30094092D01*
X31145908Y-29961698D01*
X30990231Y-29857678D01*
X30990228Y-29857676D01*
X30990227Y-29857676D01*
X30817251Y-29786027D01*
X30817244Y-29786025D01*
X30678902Y-29758507D01*
X30633616Y-29749500D01*
X30446384Y-29749500D01*
X30410056Y-29756725D01*
X30262755Y-29786025D01*
X30262748Y-29786027D01*
X30089772Y-29857676D01*
X29934092Y-29961697D01*
X29934091Y-29961699D01*
X29801699Y-30094091D01*
X29801697Y-30094092D01*
X29697676Y-30249772D01*
X29626027Y-30422748D01*
X29626025Y-30422755D01*
X29589500Y-30606384D01*
X28950500Y-30606384D01*
X28913973Y-30422749D01*
X28842322Y-30249769D01*
X28738302Y-30094092D01*
X28605908Y-29961698D01*
X28450231Y-29857678D01*
X28450228Y-29857676D01*
X28450227Y-29857676D01*
X28277251Y-29786027D01*
X28277244Y-29786025D01*
X28138902Y-29758507D01*
X28093616Y-29749500D01*
X27906384Y-29749500D01*
X27870056Y-29756725D01*
X27722755Y-29786025D01*
X27722748Y-29786027D01*
X27549772Y-29857676D01*
X27394092Y-29961697D01*
X27394091Y-29961699D01*
X27261699Y-30094091D01*
X27261697Y-30094092D01*
X27157676Y-30249772D01*
X27086027Y-30422748D01*
X27086025Y-30422755D01*
X27049500Y-30606384D01*
X26410500Y-30606384D01*
X26373973Y-30422749D01*
X26302322Y-30249769D01*
X26198302Y-30094092D01*
X26065908Y-29961698D01*
X25910231Y-29857678D01*
X25910228Y-29857676D01*
X25910227Y-29857676D01*
X25737251Y-29786027D01*
X25737244Y-29786025D01*
X25598902Y-29758507D01*
X25553616Y-29749500D01*
X25366384Y-29749500D01*
X25330056Y-29756725D01*
X25182755Y-29786025D01*
X25182748Y-29786027D01*
X25009772Y-29857676D01*
X24854092Y-29961697D01*
X24854091Y-29961699D01*
X24721699Y-30094091D01*
X24721697Y-30094092D01*
X24617676Y-30249772D01*
X24546027Y-30422748D01*
X24546025Y-30422755D01*
X24509500Y-30606384D01*
X23870500Y-30606384D01*
X23833973Y-30422749D01*
X23762322Y-30249769D01*
X23658302Y-30094092D01*
X23525908Y-29961698D01*
X23370231Y-29857678D01*
X23370228Y-29857676D01*
X23370227Y-29857676D01*
X23197251Y-29786027D01*
X23197244Y-29786025D01*
X23058902Y-29758507D01*
X23013616Y-29749500D01*
X22826384Y-29749500D01*
X22790056Y-29756725D01*
X22642755Y-29786025D01*
X22642748Y-29786027D01*
X22469772Y-29857676D01*
X22314092Y-29961697D01*
X22314091Y-29961699D01*
X22181699Y-30094091D01*
X22181697Y-30094092D01*
X22077676Y-30249772D01*
X22006027Y-30422748D01*
X22006025Y-30422755D01*
X21969500Y-30606384D01*
X21330500Y-30606384D01*
X21293973Y-30422749D01*
X21222322Y-30249769D01*
X21118302Y-30094092D01*
X20985908Y-29961698D01*
X20830231Y-29857678D01*
X20830228Y-29857676D01*
X20830227Y-29857676D01*
X20657251Y-29786027D01*
X20657244Y-29786025D01*
X20518902Y-29758507D01*
X20473616Y-29749500D01*
X20286384Y-29749500D01*
X20250056Y-29756725D01*
X20102755Y-29786025D01*
X20102748Y-29786027D01*
X19929772Y-29857676D01*
X19774092Y-29961697D01*
X19774091Y-29961699D01*
X19641699Y-30094091D01*
X19641697Y-30094092D01*
X19537676Y-30249772D01*
X19466027Y-30422748D01*
X19466025Y-30422755D01*
X19429500Y-30606384D01*
X500500Y-30606384D01*
X500500Y-29125327D01*
X40899500Y-29125327D01*
X40899500Y-30874672D01*
X40914034Y-30947740D01*
X40933747Y-30977244D01*
X40969399Y-31030601D01*
X41052260Y-31085966D01*
X41125326Y-31100500D01*
X41125328Y-31100500D01*
X42874672Y-31100500D01*
X42874674Y-31100500D01*
X42947740Y-31085966D01*
X43030601Y-31030601D01*
X43085966Y-30947740D01*
X43100500Y-30874674D01*
X43100500Y-29125326D01*
X43085966Y-29052260D01*
X43030601Y-28969399D01*
X43017282Y-28960500D01*
X42947740Y-28914034D01*
X42874674Y-28899500D01*
X41125326Y-28899500D01*
X41076615Y-28909189D01*
X41052259Y-28914034D01*
X40969399Y-28969398D01*
X40969398Y-28969399D01*
X40914034Y-29052259D01*
X40899500Y-29125327D01*
X500500Y-29125327D01*
X500500Y-28081159D01*
X18309500Y-28081159D01*
X18309500Y-28238840D01*
X18340261Y-28393491D01*
X18340264Y-28393501D01*
X18400603Y-28539174D01*
X18400605Y-28539177D01*
X18400606Y-28539179D01*
X18488211Y-28670289D01*
X18599711Y-28781789D01*
X18730821Y-28869394D01*
X18730826Y-28869396D01*
X18730825Y-28869396D01*
X18838592Y-28914034D01*
X18876503Y-28929737D01*
X19031158Y-28960500D01*
X19031160Y-28960500D01*
X19188840Y-28960500D01*
X19188842Y-28960500D01*
X19343497Y-28929737D01*
X19489179Y-28869394D01*
X19620289Y-28781789D01*
X19731789Y-28670289D01*
X19819394Y-28539179D01*
X19879737Y-28393497D01*
X19910500Y-28238842D01*
X19910500Y-28081158D01*
X19879737Y-27926503D01*
X19819394Y-27780821D01*
X19731789Y-27649711D01*
X19667405Y-27585327D01*
X36089500Y-27585327D01*
X36089500Y-28734672D01*
X36104034Y-28807740D01*
X36145230Y-28869396D01*
X36159399Y-28890601D01*
X36242260Y-28945966D01*
X36315326Y-28960500D01*
X36315328Y-28960500D01*
X37464672Y-28960500D01*
X37464674Y-28960500D01*
X37537740Y-28945966D01*
X37620601Y-28890601D01*
X37675966Y-28807740D01*
X37690500Y-28734674D01*
X37690500Y-27585326D01*
X37675966Y-27512260D01*
X37620601Y-27429399D01*
X37537740Y-27374034D01*
X37464674Y-27359500D01*
X36315326Y-27359500D01*
X36266615Y-27369189D01*
X36242259Y-27374034D01*
X36159399Y-27429398D01*
X36159398Y-27429399D01*
X36104034Y-27512259D01*
X36089500Y-27585327D01*
X19667405Y-27585327D01*
X19620289Y-27538211D01*
X19489179Y-27450606D01*
X19489175Y-27450604D01*
X19489173Y-27450603D01*
X19489174Y-27450603D01*
X19343501Y-27390264D01*
X19343491Y-27390261D01*
X19239925Y-27369661D01*
X19188842Y-27359500D01*
X19031158Y-27359500D01*
X18987315Y-27368220D01*
X18876508Y-27390261D01*
X18876498Y-27390264D01*
X18730825Y-27450603D01*
X18599711Y-27538210D01*
X18599710Y-27538212D01*
X18488212Y-27649710D01*
X18488210Y-27649711D01*
X18400603Y-27780825D01*
X18340264Y-27926498D01*
X18340261Y-27926508D01*
X18309500Y-28081159D01*
X500500Y-28081159D01*
X500500Y-26187822D01*
X7309800Y-26187822D01*
X7309800Y-26332777D01*
X7347314Y-26472781D01*
X7347316Y-26472786D01*
X7419791Y-26598315D01*
X7522285Y-26700809D01*
X7647815Y-26773284D01*
X7647816Y-26773284D01*
X7647818Y-26773285D01*
X7717820Y-26792042D01*
X7787822Y-26810799D01*
X7787823Y-26810800D01*
X7787825Y-26810800D01*
X7932777Y-26810800D01*
X7932777Y-26810799D01*
X8072785Y-26773284D01*
X8198315Y-26700809D01*
X8300809Y-26598315D01*
X8373284Y-26472785D01*
X8410799Y-26332777D01*
X8410800Y-26332777D01*
X8410800Y-26187823D01*
X8410799Y-26187822D01*
X8373285Y-26047818D01*
X8373283Y-26047813D01*
X8300808Y-25922284D01*
X8198315Y-25819791D01*
X8072786Y-25747316D01*
X8072781Y-25747314D01*
X7932777Y-25709800D01*
X7932775Y-25709800D01*
X7787825Y-25709800D01*
X7787823Y-25709800D01*
X7647818Y-25747314D01*
X7647813Y-25747316D01*
X7522284Y-25819791D01*
X7419791Y-25922284D01*
X7347316Y-26047813D01*
X7347314Y-26047818D01*
X7309800Y-26187822D01*
X500500Y-26187822D01*
X500500Y-25541159D01*
X18309500Y-25541159D01*
X18309500Y-25698840D01*
X18340261Y-25853491D01*
X18340264Y-25853501D01*
X18400603Y-25999174D01*
X18400605Y-25999177D01*
X18400606Y-25999179D01*
X18488211Y-26130289D01*
X18599711Y-26241789D01*
X18730821Y-26329394D01*
X18730826Y-26329396D01*
X18730825Y-26329396D01*
X18738988Y-26332777D01*
X18876503Y-26389737D01*
X19031158Y-26420500D01*
X19031160Y-26420500D01*
X19188840Y-26420500D01*
X19188842Y-26420500D01*
X19343497Y-26389737D01*
X19489179Y-26329394D01*
X19620289Y-26241789D01*
X19731789Y-26130289D01*
X19819394Y-25999179D01*
X19879737Y-25853497D01*
X19910500Y-25698842D01*
X19910500Y-25541158D01*
X19879737Y-25386503D01*
X19819394Y-25240821D01*
X19731789Y-25109711D01*
X19620289Y-24998211D01*
X19489179Y-24910606D01*
X19489175Y-24910604D01*
X19489173Y-24910603D01*
X19489174Y-24910603D01*
X19343501Y-24850264D01*
X19343491Y-24850261D01*
X19239925Y-24829661D01*
X19188842Y-24819500D01*
X19031158Y-24819500D01*
X18987315Y-24828220D01*
X18876508Y-24850261D01*
X18876498Y-24850264D01*
X18730825Y-24910603D01*
X18599711Y-24998210D01*
X18599710Y-24998212D01*
X18488212Y-25109710D01*
X18488210Y-25109711D01*
X18400603Y-25240825D01*
X18340264Y-25386498D01*
X18340261Y-25386508D01*
X18309500Y-25541159D01*
X500500Y-25541159D01*
X500500Y-23001158D01*
X18309500Y-23001158D01*
X18309500Y-23158842D01*
X18319661Y-23209925D01*
X18340261Y-23313491D01*
X18340264Y-23313501D01*
X18400603Y-23459174D01*
X18400605Y-23459177D01*
X18400606Y-23459179D01*
X18488211Y-23590289D01*
X18599711Y-23701789D01*
X18730821Y-23789394D01*
X18730826Y-23789396D01*
X18730825Y-23789396D01*
X18876498Y-23849735D01*
X18876503Y-23849737D01*
X19031158Y-23880500D01*
X19031160Y-23880500D01*
X19188840Y-23880500D01*
X19188842Y-23880500D01*
X19343497Y-23849737D01*
X19489179Y-23789394D01*
X19620289Y-23701789D01*
X19731789Y-23590289D01*
X19819394Y-23459179D01*
X19879737Y-23313497D01*
X19910500Y-23158842D01*
X19910500Y-23001158D01*
X19879737Y-22846503D01*
X19879735Y-22846498D01*
X19819396Y-22700825D01*
X19819395Y-22700823D01*
X19819394Y-22700821D01*
X19731789Y-22569711D01*
X19620289Y-22458211D01*
X19489179Y-22370606D01*
X19489175Y-22370604D01*
X19489173Y-22370603D01*
X19489174Y-22370603D01*
X19343501Y-22310264D01*
X19343491Y-22310261D01*
X19239925Y-22289661D01*
X19188842Y-22279500D01*
X19031158Y-22279500D01*
X18987315Y-22288220D01*
X18876508Y-22310261D01*
X18876498Y-22310264D01*
X18730825Y-22370603D01*
X18599711Y-22458210D01*
X18599710Y-22458212D01*
X18488212Y-22569710D01*
X18488210Y-22569711D01*
X18400603Y-22700825D01*
X18340264Y-22846498D01*
X18340261Y-22846508D01*
X18328446Y-22905909D01*
X18309500Y-23001158D01*
X500500Y-23001158D01*
X500500Y-18393711D01*
X4489500Y-18393711D01*
X4489500Y-18606288D01*
X4522753Y-18816240D01*
X4522756Y-18816253D01*
X4588440Y-19018406D01*
X4684948Y-19207816D01*
X4761475Y-19313146D01*
X4809896Y-19379792D01*
X4960208Y-19530104D01*
X5045854Y-19592329D01*
X5132183Y-19655051D01*
X5209607Y-19694500D01*
X5321588Y-19751557D01*
X5321590Y-19751557D01*
X5321593Y-19751559D01*
X5523746Y-19817243D01*
X5523752Y-19817244D01*
X5523757Y-19817246D01*
X5628735Y-19833873D01*
X5733711Y-19850500D01*
X5733713Y-19850500D01*
X5946289Y-19850500D01*
X6030269Y-19837198D01*
X6156243Y-19817246D01*
X6156250Y-19817243D01*
X6156253Y-19817243D01*
X6358406Y-19751559D01*
X6358406Y-19751558D01*
X6358412Y-19751557D01*
X6547816Y-19655051D01*
X6719792Y-19530104D01*
X6870104Y-19379792D01*
X6995051Y-19207816D01*
X7091557Y-19018412D01*
X7155278Y-18822301D01*
X7157243Y-18816253D01*
X7157243Y-18816250D01*
X7157246Y-18816243D01*
X7190500Y-18606287D01*
X7190500Y-18393713D01*
X7188197Y-18379174D01*
X7157246Y-18183759D01*
X7157243Y-18183746D01*
X7091559Y-17981593D01*
X7091557Y-17981590D01*
X7091557Y-17981588D01*
X7041565Y-17883474D01*
X6995051Y-17792183D01*
X6900237Y-17661683D01*
X6870104Y-17620208D01*
X6754818Y-17504922D01*
X8785700Y-17504922D01*
X8785700Y-17649877D01*
X8823214Y-17789881D01*
X8823216Y-17789886D01*
X8824543Y-17792184D01*
X8895691Y-17915415D01*
X8998185Y-18017909D01*
X9123715Y-18090384D01*
X9123716Y-18090384D01*
X9123718Y-18090385D01*
X9193720Y-18109142D01*
X9263722Y-18127899D01*
X9263723Y-18127900D01*
X9263725Y-18127900D01*
X9408677Y-18127900D01*
X9408677Y-18127899D01*
X9548685Y-18090384D01*
X9674215Y-18017909D01*
X9776709Y-17915415D01*
X9849184Y-17789885D01*
X9886699Y-17649877D01*
X9886700Y-17649877D01*
X9886700Y-17504923D01*
X9886699Y-17504922D01*
X9884104Y-17495239D01*
X9852747Y-17378211D01*
X9849185Y-17364918D01*
X9849183Y-17364913D01*
X9829763Y-17331276D01*
X9776709Y-17239385D01*
X9674215Y-17136891D01*
X9548686Y-17064416D01*
X9548681Y-17064414D01*
X9408677Y-17026900D01*
X9408675Y-17026900D01*
X9263725Y-17026900D01*
X9263723Y-17026900D01*
X9123718Y-17064414D01*
X9123713Y-17064416D01*
X8998184Y-17136891D01*
X8895691Y-17239384D01*
X8823216Y-17364913D01*
X8823214Y-17364918D01*
X8785700Y-17504922D01*
X6754818Y-17504922D01*
X6719792Y-17469896D01*
X6634145Y-17407670D01*
X6547816Y-17344948D01*
X6358406Y-17248440D01*
X6156253Y-17182756D01*
X6156240Y-17182753D01*
X5946289Y-17149500D01*
X5946287Y-17149500D01*
X5733713Y-17149500D01*
X5733711Y-17149500D01*
X5523759Y-17182753D01*
X5523746Y-17182756D01*
X5321593Y-17248440D01*
X5132183Y-17344948D01*
X4960212Y-17469893D01*
X4960208Y-17469896D01*
X4809896Y-17620208D01*
X4809893Y-17620211D01*
X4809893Y-17620212D01*
X4684948Y-17792183D01*
X4588440Y-17981593D01*
X4522756Y-18183746D01*
X4522753Y-18183759D01*
X4489500Y-18393711D01*
X500500Y-18393711D01*
X500500Y-15785422D01*
X3786400Y-15785422D01*
X3786400Y-15930377D01*
X3823914Y-16070381D01*
X3823916Y-16070386D01*
X3864051Y-16139901D01*
X3896391Y-16195915D01*
X3998885Y-16298409D01*
X4124415Y-16370884D01*
X4124416Y-16370884D01*
X4124418Y-16370885D01*
X4194420Y-16389642D01*
X4264422Y-16408399D01*
X4264423Y-16408400D01*
X4264425Y-16408400D01*
X4409377Y-16408400D01*
X4409377Y-16408399D01*
X4549385Y-16370884D01*
X4674915Y-16298409D01*
X4777409Y-16195915D01*
X4849884Y-16070385D01*
X4887399Y-15930377D01*
X4887400Y-15930377D01*
X4887400Y-15785423D01*
X4887399Y-15785422D01*
X4849885Y-15645418D01*
X4849883Y-15645413D01*
X4788354Y-15538842D01*
X4777409Y-15519885D01*
X4674915Y-15417391D01*
X4612160Y-15381159D01*
X18309500Y-15381159D01*
X18309500Y-15538840D01*
X18340261Y-15693491D01*
X18340264Y-15693501D01*
X18400603Y-15839174D01*
X18461542Y-15930377D01*
X18488211Y-15970289D01*
X18599711Y-16081789D01*
X18730821Y-16169394D01*
X18730826Y-16169396D01*
X18730825Y-16169396D01*
X18876498Y-16229735D01*
X18876503Y-16229737D01*
X19031158Y-16260500D01*
X19031160Y-16260500D01*
X19188840Y-16260500D01*
X19188842Y-16260500D01*
X19343497Y-16229737D01*
X19489179Y-16169394D01*
X19620289Y-16081789D01*
X19731789Y-15970289D01*
X19819394Y-15839179D01*
X19879737Y-15693497D01*
X19910500Y-15538842D01*
X19910500Y-15381158D01*
X19879737Y-15226503D01*
X19854139Y-15164704D01*
X19819396Y-15080825D01*
X19819395Y-15080823D01*
X19819394Y-15080821D01*
X19731789Y-14949711D01*
X19620289Y-14838211D01*
X19489179Y-14750606D01*
X19489175Y-14750604D01*
X19489173Y-14750603D01*
X19489174Y-14750603D01*
X19343501Y-14690264D01*
X19343491Y-14690261D01*
X19239925Y-14669661D01*
X19188842Y-14659500D01*
X19031158Y-14659500D01*
X18987315Y-14668220D01*
X18876508Y-14690261D01*
X18876498Y-14690264D01*
X18730825Y-14750603D01*
X18599711Y-14838210D01*
X18599710Y-14838212D01*
X18488212Y-14949710D01*
X18488210Y-14949711D01*
X18400603Y-15080825D01*
X18340264Y-15226498D01*
X18340261Y-15226508D01*
X18309500Y-15381159D01*
X4612160Y-15381159D01*
X4612158Y-15381158D01*
X4549386Y-15344916D01*
X4549381Y-15344914D01*
X4409377Y-15307400D01*
X4409375Y-15307400D01*
X4264425Y-15307400D01*
X4264423Y-15307400D01*
X4124418Y-15344914D01*
X4124413Y-15344916D01*
X3998884Y-15417391D01*
X3896391Y-15519884D01*
X3823916Y-15645413D01*
X3823914Y-15645418D01*
X3786400Y-15785422D01*
X500500Y-15785422D01*
X500500Y-12841159D01*
X18309500Y-12841159D01*
X18309500Y-12998840D01*
X18340261Y-13153491D01*
X18340264Y-13153501D01*
X18400603Y-13299174D01*
X18400605Y-13299177D01*
X18400606Y-13299179D01*
X18488211Y-13430289D01*
X18599711Y-13541789D01*
X18730821Y-13629394D01*
X18730826Y-13629396D01*
X18730825Y-13629396D01*
X18832986Y-13671712D01*
X18876503Y-13689737D01*
X19031158Y-13720500D01*
X19031160Y-13720500D01*
X19188840Y-13720500D01*
X19188842Y-13720500D01*
X19343497Y-13689737D01*
X19489179Y-13629394D01*
X19620289Y-13541789D01*
X19731789Y-13430289D01*
X19819394Y-13299179D01*
X19879737Y-13153497D01*
X19910500Y-12998842D01*
X19910500Y-12921158D01*
X22119500Y-12921158D01*
X22119500Y-13078842D01*
X22128746Y-13125326D01*
X22150261Y-13233491D01*
X22150264Y-13233501D01*
X22210603Y-13379174D01*
X22297619Y-13509404D01*
X22298211Y-13510289D01*
X22409711Y-13621789D01*
X22540821Y-13709394D01*
X22540826Y-13709396D01*
X22540825Y-13709396D01*
X22686498Y-13769735D01*
X22686503Y-13769737D01*
X22841158Y-13800500D01*
X22841160Y-13800500D01*
X22998840Y-13800500D01*
X22998842Y-13800500D01*
X23153497Y-13769737D01*
X23299179Y-13709394D01*
X23430289Y-13621789D01*
X23541789Y-13510289D01*
X23629394Y-13379179D01*
X23689737Y-13233497D01*
X23720500Y-13078842D01*
X23720500Y-12921158D01*
X24659500Y-12921158D01*
X24659500Y-13078842D01*
X24668746Y-13125326D01*
X24690261Y-13233491D01*
X24690264Y-13233501D01*
X24750603Y-13379174D01*
X24837619Y-13509404D01*
X24838211Y-13510289D01*
X24949711Y-13621789D01*
X25080821Y-13709394D01*
X25080826Y-13709396D01*
X25080825Y-13709396D01*
X25226498Y-13769735D01*
X25226503Y-13769737D01*
X25381158Y-13800500D01*
X25381160Y-13800500D01*
X25538840Y-13800500D01*
X25538842Y-13800500D01*
X25693497Y-13769737D01*
X25839179Y-13709394D01*
X25970289Y-13621789D01*
X26081789Y-13510289D01*
X26169394Y-13379179D01*
X26229737Y-13233497D01*
X26260500Y-13078842D01*
X26260500Y-12921158D01*
X26229737Y-12766503D01*
X26169394Y-12620821D01*
X26081789Y-12489711D01*
X25970289Y-12378211D01*
X25839179Y-12290606D01*
X25839175Y-12290604D01*
X25839173Y-12290603D01*
X25839174Y-12290603D01*
X25693501Y-12230264D01*
X25693491Y-12230261D01*
X25589925Y-12209661D01*
X25538842Y-12199500D01*
X25381158Y-12199500D01*
X25337315Y-12208220D01*
X25226508Y-12230261D01*
X25226498Y-12230264D01*
X25080825Y-12290603D01*
X24949711Y-12378210D01*
X24949710Y-12378212D01*
X24838212Y-12489710D01*
X24838210Y-12489711D01*
X24750603Y-12620825D01*
X24690264Y-12766498D01*
X24690261Y-12766508D01*
X24664580Y-12895616D01*
X24659500Y-12921158D01*
X23720500Y-12921158D01*
X23689737Y-12766503D01*
X23629394Y-12620821D01*
X23541789Y-12489711D01*
X23430289Y-12378211D01*
X23299179Y-12290606D01*
X23299175Y-12290604D01*
X23299173Y-12290603D01*
X23299174Y-12290603D01*
X23153501Y-12230264D01*
X23153491Y-12230261D01*
X23049925Y-12209661D01*
X22998842Y-12199500D01*
X22841158Y-12199500D01*
X22797315Y-12208220D01*
X22686508Y-12230261D01*
X22686498Y-12230264D01*
X22540825Y-12290603D01*
X22409711Y-12378210D01*
X22409710Y-12378212D01*
X22298212Y-12489710D01*
X22298210Y-12489711D01*
X22210603Y-12620825D01*
X22150264Y-12766498D01*
X22150261Y-12766508D01*
X22124580Y-12895616D01*
X22119500Y-12921158D01*
X19910500Y-12921158D01*
X19910500Y-12841158D01*
X19879737Y-12686503D01*
X19863724Y-12647843D01*
X19819396Y-12540825D01*
X19819395Y-12540823D01*
X19819394Y-12540821D01*
X19731789Y-12409711D01*
X19620289Y-12298211D01*
X19608907Y-12290606D01*
X19587842Y-12276530D01*
X19489179Y-12210606D01*
X19489175Y-12210604D01*
X19489173Y-12210603D01*
X19489174Y-12210603D01*
X19343501Y-12150264D01*
X19343491Y-12150261D01*
X19239925Y-12129661D01*
X19188842Y-12119500D01*
X19031158Y-12119500D01*
X18987315Y-12128220D01*
X18876508Y-12150261D01*
X18876498Y-12150264D01*
X18730825Y-12210603D01*
X18599711Y-12298210D01*
X18599710Y-12298212D01*
X18488212Y-12409710D01*
X18488210Y-12409711D01*
X18400603Y-12540825D01*
X18340264Y-12686498D01*
X18340261Y-12686508D01*
X18309500Y-12841159D01*
X500500Y-12841159D01*
X500500Y-10301158D01*
X18309500Y-10301158D01*
X18309500Y-10458842D01*
X18313734Y-10480127D01*
X18340261Y-10613491D01*
X18340264Y-10613501D01*
X18400603Y-10759174D01*
X18400605Y-10759177D01*
X18400606Y-10759179D01*
X18488211Y-10890289D01*
X18599711Y-11001789D01*
X18730821Y-11089394D01*
X18730826Y-11089396D01*
X18730825Y-11089396D01*
X18876498Y-11149735D01*
X18876503Y-11149737D01*
X19031158Y-11180500D01*
X19031160Y-11180500D01*
X19188840Y-11180500D01*
X19188842Y-11180500D01*
X19343497Y-11149737D01*
X19489179Y-11089394D01*
X19620289Y-11001789D01*
X19731789Y-10890289D01*
X19819394Y-10759179D01*
X19879737Y-10613497D01*
X19910500Y-10458842D01*
X19910500Y-10301158D01*
X19879737Y-10146503D01*
X19819394Y-10000821D01*
X19731789Y-9869711D01*
X19620289Y-9758211D01*
X19489179Y-9670606D01*
X19489175Y-9670604D01*
X19489173Y-9670603D01*
X19489174Y-9670603D01*
X19343501Y-9610264D01*
X19343491Y-9610261D01*
X19239925Y-9589661D01*
X19188842Y-9579500D01*
X19031158Y-9579500D01*
X18987315Y-9588220D01*
X18876508Y-9610261D01*
X18876498Y-9610264D01*
X18730825Y-9670603D01*
X18599711Y-9758210D01*
X18599710Y-9758212D01*
X18488212Y-9869710D01*
X18488210Y-9869711D01*
X18400603Y-10000825D01*
X18340264Y-10146498D01*
X18340261Y-10146508D01*
X18314580Y-10275616D01*
X18309500Y-10301158D01*
X500500Y-10301158D01*
X500500Y-7761159D01*
X18309500Y-7761159D01*
X18309500Y-7918840D01*
X18340261Y-8073491D01*
X18340264Y-8073501D01*
X18400603Y-8219174D01*
X18400605Y-8219177D01*
X18400606Y-8219179D01*
X18488211Y-8350289D01*
X18599711Y-8461789D01*
X18730821Y-8549394D01*
X18730826Y-8549396D01*
X18730825Y-8549396D01*
X18876498Y-8609735D01*
X18876503Y-8609737D01*
X19031158Y-8640500D01*
X19031160Y-8640500D01*
X19188840Y-8640500D01*
X19188842Y-8640500D01*
X19343497Y-8609737D01*
X19489179Y-8549394D01*
X19620289Y-8461789D01*
X19731789Y-8350289D01*
X19819394Y-8219179D01*
X19879737Y-8073497D01*
X19910500Y-7918842D01*
X19910500Y-7761158D01*
X19879737Y-7606503D01*
X19877043Y-7599999D01*
X19819396Y-7460825D01*
X19819395Y-7460823D01*
X19819394Y-7460821D01*
X19731789Y-7329711D01*
X19620289Y-7218211D01*
X19489179Y-7130606D01*
X19489175Y-7130604D01*
X19489173Y-7130603D01*
X19489174Y-7130603D01*
X19343501Y-7070264D01*
X19343491Y-7070261D01*
X19239925Y-7049661D01*
X19188842Y-7039500D01*
X19031158Y-7039500D01*
X18987315Y-7048220D01*
X18876508Y-7070261D01*
X18876498Y-7070264D01*
X18730825Y-7130603D01*
X18599711Y-7218210D01*
X18599710Y-7218212D01*
X18488212Y-7329710D01*
X18488210Y-7329711D01*
X18400603Y-7460825D01*
X18340264Y-7606498D01*
X18340261Y-7606508D01*
X18309500Y-7761159D01*
X500500Y-7761159D01*
X500500Y-7344792D01*
X9200001Y-7344792D01*
X9202908Y-7369868D01*
X9202910Y-7369874D01*
X9248213Y-7472478D01*
X9327521Y-7551786D01*
X9430124Y-7597089D01*
X9430123Y-7597089D01*
X9455210Y-7599999D01*
X9750000Y-7599999D01*
X10150000Y-7599999D01*
X10444792Y-7599999D01*
X10469868Y-7597091D01*
X10469874Y-7597089D01*
X10572478Y-7551786D01*
X10651786Y-7472478D01*
X10697089Y-7369875D01*
X10700000Y-7344792D01*
X13300001Y-7344792D01*
X13302908Y-7369868D01*
X13302910Y-7369874D01*
X13348213Y-7472478D01*
X13427521Y-7551786D01*
X13530124Y-7597089D01*
X13530123Y-7597089D01*
X13555210Y-7599999D01*
X13850000Y-7599999D01*
X14250000Y-7599999D01*
X14544792Y-7599999D01*
X14569868Y-7597091D01*
X14569874Y-7597089D01*
X14672478Y-7551786D01*
X14751786Y-7472478D01*
X14797089Y-7369875D01*
X14800000Y-7344789D01*
X14800000Y-7000000D01*
X14250000Y-7000000D01*
X14250000Y-7599999D01*
X13850000Y-7599999D01*
X13850000Y-7000000D01*
X13300001Y-7000000D01*
X13300001Y-7344792D01*
X10700000Y-7344792D01*
X10700000Y-7344789D01*
X10700000Y-7000000D01*
X10150000Y-7000000D01*
X10150000Y-7599999D01*
X9750000Y-7599999D01*
X9750000Y-7000000D01*
X9200001Y-7000000D01*
X9200001Y-7344792D01*
X500500Y-7344792D01*
X500500Y-5897646D01*
X5699500Y-5897646D01*
X5699500Y-6102353D01*
X5731522Y-6304531D01*
X5731525Y-6304544D01*
X5794777Y-6499213D01*
X5887712Y-6681610D01*
X5961406Y-6783040D01*
X6008034Y-6847219D01*
X6152781Y-6991966D01*
X6244695Y-7058745D01*
X6318389Y-7112287D01*
X6406300Y-7157079D01*
X6500781Y-7205220D01*
X6500783Y-7205220D01*
X6500786Y-7205222D01*
X6695455Y-7268474D01*
X6695461Y-7268475D01*
X6695466Y-7268477D01*
X6796557Y-7284488D01*
X6897646Y-7300500D01*
X6897648Y-7300500D01*
X7102354Y-7300500D01*
X7183224Y-7287690D01*
X7304534Y-7268477D01*
X7304541Y-7268474D01*
X7304544Y-7268474D01*
X7499213Y-7205222D01*
X7499213Y-7205221D01*
X7499219Y-7205220D01*
X7681610Y-7112287D01*
X7847219Y-6991966D01*
X7991966Y-6847219D01*
X8112287Y-6681610D01*
X8205220Y-6499219D01*
X8268477Y-6304534D01*
X8276289Y-6255210D01*
X9200000Y-6255210D01*
X9200000Y-6600000D01*
X10699999Y-6600000D01*
X10699999Y-6255207D01*
X10697091Y-6230131D01*
X10697089Y-6230125D01*
X10651786Y-6127521D01*
X10572477Y-6048212D01*
X10549533Y-6038082D01*
X10510419Y-5997120D01*
X10511727Y-5940498D01*
X10538311Y-5908858D01*
X10580598Y-5880603D01*
X10580597Y-5880603D01*
X10580601Y-5880601D01*
X10635966Y-5797740D01*
X10650500Y-5724674D01*
X10650500Y-5624500D01*
X10672174Y-5572174D01*
X10724500Y-5550500D01*
X13275500Y-5550500D01*
X13327826Y-5572174D01*
X13349500Y-5624500D01*
X13349500Y-5724672D01*
X13364034Y-5797740D01*
X13419398Y-5880600D01*
X13419399Y-5880601D01*
X13461689Y-5908858D01*
X13493155Y-5955950D01*
X13482106Y-6011499D01*
X13450467Y-6038082D01*
X13427521Y-6048213D01*
X13348213Y-6127521D01*
X13302910Y-6230124D01*
X13300000Y-6255210D01*
X13300000Y-6600000D01*
X14799999Y-6600000D01*
X14799999Y-6255207D01*
X14797091Y-6230131D01*
X14797089Y-6230125D01*
X14751786Y-6127521D01*
X14672477Y-6048212D01*
X14649533Y-6038082D01*
X14610419Y-5997120D01*
X14611727Y-5940498D01*
X14638311Y-5908858D01*
X14680598Y-5880603D01*
X14680597Y-5880603D01*
X14680601Y-5880601D01*
X14735966Y-5797740D01*
X14750500Y-5724674D01*
X14750500Y-5624500D01*
X14772174Y-5572174D01*
X14824500Y-5550500D01*
X21374166Y-5550500D01*
X21426492Y-5572174D01*
X27933913Y-12079595D01*
X27955587Y-12131921D01*
X27933913Y-12184247D01*
X27896024Y-12204499D01*
X27766508Y-12230261D01*
X27766498Y-12230264D01*
X27620825Y-12290603D01*
X27489711Y-12378210D01*
X27489710Y-12378212D01*
X27378212Y-12489710D01*
X27378210Y-12489711D01*
X27290603Y-12620825D01*
X27230264Y-12766498D01*
X27230261Y-12766508D01*
X27204580Y-12895616D01*
X27199500Y-12921158D01*
X27199500Y-13078842D01*
X27208746Y-13125326D01*
X27230261Y-13233491D01*
X27230264Y-13233501D01*
X27290603Y-13379174D01*
X27377619Y-13509404D01*
X27378211Y-13510289D01*
X27489711Y-13621789D01*
X27620821Y-13709394D01*
X27620826Y-13709396D01*
X27620825Y-13709396D01*
X27766498Y-13769735D01*
X27766503Y-13769737D01*
X27921158Y-13800500D01*
X27921160Y-13800500D01*
X28078840Y-13800500D01*
X28078842Y-13800500D01*
X28233497Y-13769737D01*
X28379179Y-13709394D01*
X28510289Y-13621789D01*
X28621789Y-13510289D01*
X28709394Y-13379179D01*
X28769737Y-13233497D01*
X28795500Y-13103974D01*
X28826966Y-13056883D01*
X28882514Y-13045834D01*
X28920404Y-13066086D01*
X36099023Y-20244705D01*
X36101923Y-20251707D01*
X36108226Y-20255919D01*
X36112436Y-20277089D01*
X36120697Y-20297031D01*
X36119275Y-20311468D01*
X36113081Y-20342606D01*
X36081615Y-20389698D01*
X36026066Y-20400747D01*
X35988177Y-20380495D01*
X34597212Y-18989530D01*
X34517289Y-18943386D01*
X34517284Y-18943384D01*
X34428146Y-18919500D01*
X34428144Y-18919500D01*
X19341922Y-18919500D01*
X19289596Y-18897826D01*
X19267922Y-18845500D01*
X19289596Y-18793174D01*
X19327486Y-18772922D01*
X19332754Y-18771873D01*
X19343497Y-18769737D01*
X19489179Y-18709394D01*
X19620289Y-18621789D01*
X19731789Y-18510289D01*
X19819394Y-18379179D01*
X19879737Y-18233497D01*
X19910500Y-18078842D01*
X19910500Y-17921158D01*
X19879737Y-17766503D01*
X19848049Y-17690000D01*
X19819396Y-17620825D01*
X19819395Y-17620823D01*
X19819394Y-17620821D01*
X19731789Y-17489711D01*
X19620289Y-17378211D01*
X19607120Y-17369412D01*
X19570507Y-17344948D01*
X19489179Y-17290606D01*
X19489175Y-17290604D01*
X19489173Y-17290603D01*
X19489174Y-17290603D01*
X19343501Y-17230264D01*
X19343491Y-17230261D01*
X19236717Y-17209023D01*
X19188842Y-17199500D01*
X19031158Y-17199500D01*
X18997460Y-17206203D01*
X18876508Y-17230261D01*
X18876498Y-17230264D01*
X18730825Y-17290603D01*
X18599711Y-17378210D01*
X18599710Y-17378212D01*
X18488212Y-17489710D01*
X18488210Y-17489711D01*
X18400603Y-17620825D01*
X18340264Y-17766498D01*
X18340261Y-17766508D01*
X18314580Y-17895616D01*
X18310643Y-17915415D01*
X18309500Y-17921159D01*
X18309500Y-18078840D01*
X18340261Y-18233491D01*
X18340264Y-18233501D01*
X18400603Y-18379174D01*
X18400605Y-18379177D01*
X18400606Y-18379179D01*
X18488211Y-18510289D01*
X18599711Y-18621789D01*
X18730821Y-18709394D01*
X18730826Y-18709396D01*
X18730825Y-18709396D01*
X18876498Y-18769735D01*
X18876503Y-18769737D01*
X18884530Y-18771333D01*
X18892514Y-18772922D01*
X18939607Y-18804387D01*
X18950656Y-18859936D01*
X18919191Y-18907029D01*
X18878078Y-18919500D01*
X17424500Y-18919500D01*
X17372174Y-18897826D01*
X17350500Y-18845500D01*
X17350500Y-17602125D01*
X17349877Y-17596338D01*
X17344091Y-17542516D01*
X17293796Y-17407669D01*
X17207547Y-17292453D01*
X17124472Y-17230264D01*
X17092330Y-17206203D01*
X16957488Y-17155910D01*
X16957485Y-17155909D01*
X16957484Y-17155909D01*
X16927679Y-17152704D01*
X16897875Y-17149500D01*
X16897874Y-17149500D01*
X15102126Y-17149500D01*
X15102125Y-17149500D01*
X15042516Y-17155909D01*
X15042511Y-17155910D01*
X14907670Y-17206203D01*
X14907669Y-17206203D01*
X14792456Y-17292450D01*
X14792450Y-17292456D01*
X14706203Y-17407669D01*
X14706203Y-17407670D01*
X14655910Y-17542511D01*
X14655909Y-17542516D01*
X14649500Y-17602125D01*
X14649500Y-19397874D01*
X14655909Y-19457483D01*
X14655910Y-19457488D01*
X14706203Y-19592329D01*
X14706203Y-19592330D01*
X14771880Y-19680064D01*
X14792453Y-19707547D01*
X14907669Y-19793796D01*
X15042516Y-19844091D01*
X15096338Y-19849877D01*
X15102125Y-19850500D01*
X15102126Y-19850500D01*
X16897875Y-19850500D01*
X16903149Y-19849932D01*
X16957484Y-19844091D01*
X17092331Y-19793796D01*
X17207547Y-19707547D01*
X17250510Y-19650153D01*
X17299218Y-19621253D01*
X17309750Y-19620500D01*
X18878078Y-19620500D01*
X18930404Y-19642174D01*
X18952078Y-19694500D01*
X18930404Y-19746826D01*
X18892514Y-19767078D01*
X18876509Y-19770261D01*
X18876498Y-19770264D01*
X18730825Y-19830603D01*
X18599711Y-19918210D01*
X18599710Y-19918212D01*
X18488212Y-20029710D01*
X18488210Y-20029711D01*
X18400603Y-20160825D01*
X18340264Y-20306498D01*
X18340261Y-20306508D01*
X18309500Y-20461159D01*
X18309500Y-20618840D01*
X18340261Y-20773491D01*
X18340264Y-20773501D01*
X18400603Y-20919174D01*
X18400605Y-20919177D01*
X18400606Y-20919179D01*
X18488211Y-21050289D01*
X18599711Y-21161789D01*
X18730821Y-21249394D01*
X18730826Y-21249396D01*
X18730825Y-21249396D01*
X18876498Y-21309735D01*
X18876503Y-21309737D01*
X19031158Y-21340500D01*
X19031160Y-21340500D01*
X19188840Y-21340500D01*
X19188842Y-21340500D01*
X19343497Y-21309737D01*
X19489179Y-21249394D01*
X19620289Y-21161789D01*
X19731789Y-21050289D01*
X19819394Y-20919179D01*
X19879737Y-20773497D01*
X19910500Y-20618842D01*
X19910500Y-20461158D01*
X19879737Y-20306503D01*
X19867858Y-20277824D01*
X19819396Y-20160825D01*
X19819395Y-20160823D01*
X19819394Y-20160821D01*
X19731789Y-20029711D01*
X19620289Y-19918211D01*
X19489179Y-19830606D01*
X19489175Y-19830604D01*
X19489173Y-19830603D01*
X19489174Y-19830603D01*
X19343501Y-19770264D01*
X19343490Y-19770261D01*
X19327486Y-19767078D01*
X19280393Y-19735613D01*
X19269344Y-19680064D01*
X19300809Y-19632971D01*
X19341922Y-19620500D01*
X34206166Y-19620500D01*
X34258492Y-19642174D01*
X36783877Y-22167559D01*
X36805551Y-22219885D01*
X36783877Y-22272211D01*
X36745988Y-22292463D01*
X36656508Y-22310261D01*
X36656498Y-22310264D01*
X36510825Y-22370603D01*
X36379711Y-22458210D01*
X36379710Y-22458212D01*
X36268212Y-22569710D01*
X36268210Y-22569711D01*
X36180603Y-22700825D01*
X36120264Y-22846498D01*
X36120261Y-22846508D01*
X36108446Y-22905909D01*
X36089500Y-23001158D01*
X36089500Y-23158842D01*
X36099661Y-23209925D01*
X36120261Y-23313491D01*
X36120264Y-23313501D01*
X36180603Y-23459174D01*
X36180605Y-23459177D01*
X36180606Y-23459179D01*
X36268211Y-23590289D01*
X36379711Y-23701789D01*
X36510821Y-23789394D01*
X36510826Y-23789396D01*
X36510825Y-23789396D01*
X36656498Y-23849735D01*
X36656503Y-23849737D01*
X36811158Y-23880500D01*
X36811160Y-23880500D01*
X36968840Y-23880500D01*
X36968842Y-23880500D01*
X37123497Y-23849737D01*
X37269179Y-23789394D01*
X37400289Y-23701789D01*
X37511789Y-23590289D01*
X37599394Y-23459179D01*
X37659737Y-23313497D01*
X37677537Y-23224010D01*
X37709001Y-23176920D01*
X37764550Y-23165870D01*
X37802440Y-23186122D01*
X38896788Y-24280470D01*
X38976712Y-24326614D01*
X38976713Y-24326614D01*
X38976715Y-24326615D01*
X39021284Y-24338557D01*
X39065853Y-24350499D01*
X39065854Y-24350500D01*
X39065856Y-24350500D01*
X50675501Y-24350500D01*
X50727827Y-24372174D01*
X50749501Y-24424500D01*
X50749501Y-24647873D01*
X50755909Y-24707485D01*
X50806202Y-24842329D01*
X50806203Y-24842330D01*
X50827886Y-24871295D01*
X50892454Y-24957546D01*
X50946777Y-24998212D01*
X51007669Y-25043796D01*
X51007670Y-25043797D01*
X51118605Y-25085172D01*
X51142517Y-25094091D01*
X51202127Y-25100500D01*
X52797872Y-25100499D01*
X52857483Y-25094091D01*
X52924907Y-25068943D01*
X52992329Y-25043797D01*
X52992329Y-25043796D01*
X52992331Y-25043796D01*
X53107546Y-24957546D01*
X53193796Y-24842331D01*
X53202312Y-24819500D01*
X53210561Y-24797381D01*
X53244091Y-24707483D01*
X53250500Y-24647873D01*
X53250499Y-23352128D01*
X53244091Y-23292517D01*
X53244089Y-23292512D01*
X53193797Y-23157670D01*
X53193796Y-23157669D01*
X53107546Y-23042454D01*
X52992331Y-22956204D01*
X52992330Y-22956203D01*
X52992329Y-22956202D01*
X52857487Y-22905910D01*
X52857484Y-22905909D01*
X52857483Y-22905909D01*
X52797873Y-22899500D01*
X51202126Y-22899500D01*
X51142514Y-22905909D01*
X51007670Y-22956202D01*
X51007669Y-22956203D01*
X50892454Y-23042454D01*
X50806203Y-23157669D01*
X50806202Y-23157670D01*
X50755910Y-23292512D01*
X50755909Y-23292517D01*
X50749500Y-23352126D01*
X50749500Y-23575500D01*
X50727826Y-23627826D01*
X50675500Y-23649500D01*
X39287834Y-23649500D01*
X39235508Y-23627826D01*
X37141070Y-21533388D01*
X42899500Y-21533388D01*
X42899500Y-21706611D01*
X42926597Y-21877698D01*
X42926600Y-21877711D01*
X42980125Y-22042442D01*
X42980127Y-22042446D01*
X43058767Y-22196787D01*
X43141212Y-22310263D01*
X43160586Y-22336928D01*
X43283072Y-22459414D01*
X43283075Y-22459416D01*
X43283076Y-22459417D01*
X43423212Y-22561232D01*
X43577553Y-22639872D01*
X43577557Y-22639874D01*
X43742288Y-22693399D01*
X43742294Y-22693400D01*
X43742299Y-22693402D01*
X43856359Y-22711467D01*
X43913388Y-22720500D01*
X43913389Y-22720500D01*
X44086612Y-22720500D01*
X44129383Y-22713725D01*
X44257701Y-22693402D01*
X44257708Y-22693399D01*
X44257711Y-22693399D01*
X44422442Y-22639874D01*
X44422442Y-22639873D01*
X44422445Y-22639873D01*
X44576788Y-22561232D01*
X44716928Y-22459414D01*
X44839414Y-22336928D01*
X44941232Y-22196788D01*
X45019873Y-22042445D01*
X45073402Y-21877701D01*
X45100500Y-21706611D01*
X45100500Y-21533389D01*
X45073402Y-21362299D01*
X45073400Y-21362294D01*
X45073399Y-21362288D01*
X45019874Y-21197557D01*
X45019872Y-21197553D01*
X44941232Y-21043212D01*
X44839417Y-20903076D01*
X44839416Y-20903075D01*
X44839414Y-20903072D01*
X44716928Y-20780586D01*
X44716925Y-20780583D01*
X44716923Y-20780582D01*
X44576787Y-20678767D01*
X44422446Y-20600127D01*
X44422442Y-20600125D01*
X44257711Y-20546600D01*
X44257698Y-20546597D01*
X44086612Y-20519500D01*
X44086611Y-20519500D01*
X43913389Y-20519500D01*
X43913388Y-20519500D01*
X43742301Y-20546597D01*
X43742288Y-20546600D01*
X43577557Y-20600125D01*
X43577553Y-20600127D01*
X43423212Y-20678767D01*
X43283076Y-20780582D01*
X43160582Y-20903076D01*
X43058767Y-21043212D01*
X42980127Y-21197553D01*
X42980125Y-21197557D01*
X42926600Y-21362288D01*
X42926597Y-21362301D01*
X42899500Y-21533388D01*
X37141070Y-21533388D01*
X37049504Y-21441822D01*
X37027830Y-21389496D01*
X37049504Y-21337170D01*
X37087392Y-21316918D01*
X37123497Y-21309737D01*
X37269179Y-21249394D01*
X37400289Y-21161789D01*
X37511789Y-21050289D01*
X37599394Y-20919179D01*
X37659737Y-20773497D01*
X37690500Y-20618842D01*
X37690500Y-20461158D01*
X37659737Y-20306503D01*
X37647858Y-20277824D01*
X37599396Y-20160825D01*
X37599395Y-20160823D01*
X37599394Y-20160821D01*
X37511789Y-20029711D01*
X37400289Y-19918211D01*
X37269179Y-19830606D01*
X37269175Y-19830604D01*
X37269173Y-19830603D01*
X37269174Y-19830603D01*
X37123501Y-19770264D01*
X37123491Y-19770261D01*
X37016717Y-19749023D01*
X36968842Y-19739500D01*
X36811158Y-19739500D01*
X36774328Y-19746826D01*
X36661467Y-19769275D01*
X36605919Y-19758226D01*
X36594705Y-19749023D01*
X35839070Y-18993388D01*
X42899500Y-18993388D01*
X42899500Y-19166611D01*
X42926597Y-19337698D01*
X42926600Y-19337711D01*
X42980125Y-19502442D01*
X42980127Y-19502446D01*
X43058767Y-19656787D01*
X43141212Y-19770263D01*
X43160586Y-19796928D01*
X43283072Y-19919414D01*
X43283075Y-19919416D01*
X43283076Y-19919417D01*
X43423212Y-20021232D01*
X43577553Y-20099872D01*
X43577557Y-20099874D01*
X43742288Y-20153399D01*
X43742294Y-20153400D01*
X43742299Y-20153402D01*
X43856359Y-20171467D01*
X43913388Y-20180500D01*
X43913389Y-20180500D01*
X44086612Y-20180500D01*
X44129383Y-20173725D01*
X44257701Y-20153402D01*
X44257708Y-20153399D01*
X44257711Y-20153399D01*
X44422442Y-20099874D01*
X44422442Y-20099873D01*
X44422445Y-20099873D01*
X44576788Y-20021232D01*
X44716928Y-19919414D01*
X44839414Y-19796928D01*
X44941232Y-19656788D01*
X45019873Y-19502445D01*
X45034482Y-19457483D01*
X45073399Y-19337711D01*
X45073399Y-19337708D01*
X45073402Y-19337701D01*
X45100500Y-19166611D01*
X45100500Y-18993389D01*
X45073402Y-18822299D01*
X45073400Y-18822294D01*
X45073399Y-18822288D01*
X45019874Y-18657557D01*
X45019872Y-18657553D01*
X44941232Y-18503212D01*
X44839417Y-18363076D01*
X44839416Y-18363075D01*
X44839414Y-18363072D01*
X44716928Y-18240586D01*
X44716925Y-18240583D01*
X44716923Y-18240582D01*
X44576787Y-18138767D01*
X44422446Y-18060127D01*
X44422442Y-18060125D01*
X44257711Y-18006600D01*
X44257698Y-18006597D01*
X44086612Y-17979500D01*
X44086611Y-17979500D01*
X43913389Y-17979500D01*
X43913388Y-17979500D01*
X43742301Y-18006597D01*
X43742288Y-18006600D01*
X43577557Y-18060125D01*
X43577553Y-18060127D01*
X43423212Y-18138767D01*
X43283076Y-18240582D01*
X43160582Y-18363076D01*
X43058767Y-18503212D01*
X42980127Y-18657553D01*
X42980125Y-18657557D01*
X42926600Y-18822288D01*
X42926597Y-18822301D01*
X42899500Y-18993388D01*
X35839070Y-18993388D01*
X30739511Y-13893829D01*
X30717837Y-13841503D01*
X30739511Y-13789177D01*
X30770357Y-13770689D01*
X30773489Y-13769738D01*
X30773497Y-13769737D01*
X30919179Y-13709394D01*
X31050289Y-13621789D01*
X31161789Y-13510289D01*
X31249394Y-13379179D01*
X31309737Y-13233497D01*
X31340500Y-13078842D01*
X31340500Y-12921158D01*
X32279500Y-12921158D01*
X32279500Y-13078842D01*
X32288746Y-13125326D01*
X32310261Y-13233491D01*
X32310264Y-13233501D01*
X32370603Y-13379174D01*
X32457619Y-13509404D01*
X32458211Y-13510289D01*
X32569711Y-13621789D01*
X32700821Y-13709394D01*
X32700826Y-13709396D01*
X32700825Y-13709396D01*
X32846498Y-13769735D01*
X32846503Y-13769737D01*
X33001158Y-13800500D01*
X33001160Y-13800500D01*
X33158840Y-13800500D01*
X33158842Y-13800500D01*
X33313497Y-13769737D01*
X33459179Y-13709394D01*
X33590289Y-13621789D01*
X33701789Y-13510289D01*
X33789394Y-13379179D01*
X33849737Y-13233497D01*
X33880500Y-13078842D01*
X33880500Y-12921158D01*
X33849737Y-12766503D01*
X33789394Y-12620821D01*
X33701789Y-12489711D01*
X33590289Y-12378211D01*
X33459179Y-12290606D01*
X33459175Y-12290604D01*
X33459173Y-12290603D01*
X33459174Y-12290603D01*
X33313501Y-12230264D01*
X33313491Y-12230261D01*
X33209925Y-12209661D01*
X33158842Y-12199500D01*
X33001158Y-12199500D01*
X32957315Y-12208220D01*
X32846508Y-12230261D01*
X32846498Y-12230264D01*
X32700825Y-12290603D01*
X32569711Y-12378210D01*
X32569710Y-12378212D01*
X32458212Y-12489710D01*
X32458210Y-12489711D01*
X32370603Y-12620825D01*
X32310264Y-12766498D01*
X32310261Y-12766508D01*
X32284580Y-12895616D01*
X32279500Y-12921158D01*
X31340500Y-12921158D01*
X31309737Y-12766503D01*
X31249394Y-12620821D01*
X31161789Y-12489711D01*
X31050289Y-12378211D01*
X30919179Y-12290606D01*
X30919175Y-12290604D01*
X30919173Y-12290603D01*
X30919174Y-12290603D01*
X30773501Y-12230264D01*
X30773491Y-12230261D01*
X30669925Y-12209661D01*
X30618842Y-12199500D01*
X30461158Y-12199500D01*
X30417315Y-12208220D01*
X30306508Y-12230261D01*
X30306498Y-12230264D01*
X30160825Y-12290603D01*
X30029711Y-12378210D01*
X30029710Y-12378212D01*
X29918212Y-12489710D01*
X29918210Y-12489711D01*
X29830603Y-12620825D01*
X29770260Y-12766507D01*
X29769306Y-12769654D01*
X29733369Y-12813430D01*
X29677004Y-12818972D01*
X29646170Y-12800488D01*
X24190474Y-7344792D01*
X25200001Y-7344792D01*
X25202908Y-7369868D01*
X25202910Y-7369874D01*
X25248213Y-7472478D01*
X25327521Y-7551786D01*
X25430124Y-7597089D01*
X25430123Y-7597089D01*
X25455210Y-7599999D01*
X25750000Y-7599999D01*
X26150000Y-7599999D01*
X26444792Y-7599999D01*
X26469868Y-7597091D01*
X26469874Y-7597089D01*
X26572478Y-7551786D01*
X26651786Y-7472478D01*
X26697089Y-7369875D01*
X26700000Y-7344792D01*
X29300001Y-7344792D01*
X29302908Y-7369868D01*
X29302910Y-7369874D01*
X29348213Y-7472478D01*
X29427521Y-7551786D01*
X29530124Y-7597089D01*
X29530123Y-7597089D01*
X29555210Y-7599999D01*
X29850000Y-7599999D01*
X30250000Y-7599999D01*
X30544792Y-7599999D01*
X30569868Y-7597091D01*
X30569874Y-7597089D01*
X30672478Y-7551786D01*
X30751786Y-7472478D01*
X30797089Y-7369875D01*
X30800000Y-7344789D01*
X30800000Y-7000000D01*
X30250000Y-7000000D01*
X30250000Y-7599999D01*
X29850000Y-7599999D01*
X29850000Y-7000000D01*
X29300001Y-7000000D01*
X29300001Y-7344792D01*
X26700000Y-7344792D01*
X26700000Y-7344789D01*
X26700000Y-7000000D01*
X26150000Y-7000000D01*
X26150000Y-7599999D01*
X25750000Y-7599999D01*
X25750000Y-7000000D01*
X25200001Y-7000000D01*
X25200001Y-7344792D01*
X24190474Y-7344792D01*
X23100892Y-6255210D01*
X25200000Y-6255210D01*
X25200000Y-6600000D01*
X26699999Y-6600000D01*
X26699999Y-6255207D01*
X26697091Y-6230131D01*
X26697089Y-6230125D01*
X26651786Y-6127521D01*
X26572477Y-6048212D01*
X26549533Y-6038082D01*
X26510419Y-5997120D01*
X26511727Y-5940498D01*
X26538311Y-5908858D01*
X26580598Y-5880603D01*
X26580597Y-5880603D01*
X26580601Y-5880601D01*
X26635966Y-5797740D01*
X26650500Y-5724674D01*
X26650500Y-5624500D01*
X26672174Y-5572174D01*
X26724500Y-5550500D01*
X29275500Y-5550500D01*
X29327826Y-5572174D01*
X29349500Y-5624500D01*
X29349500Y-5724672D01*
X29364034Y-5797740D01*
X29419398Y-5880600D01*
X29419399Y-5880601D01*
X29461689Y-5908858D01*
X29493155Y-5955950D01*
X29482106Y-6011499D01*
X29450467Y-6038082D01*
X29427521Y-6048213D01*
X29348213Y-6127521D01*
X29302910Y-6230124D01*
X29300000Y-6255210D01*
X29300000Y-6600000D01*
X30799999Y-6600000D01*
X30799999Y-6353733D01*
X30821673Y-6301407D01*
X30873999Y-6279733D01*
X30926325Y-6301407D01*
X36662109Y-12037191D01*
X36683783Y-12089517D01*
X36662109Y-12141843D01*
X36638102Y-12157884D01*
X36510824Y-12210604D01*
X36379711Y-12298210D01*
X36379710Y-12298212D01*
X36267326Y-12410596D01*
X36215000Y-12432270D01*
X36162674Y-12410596D01*
X36130288Y-12378210D01*
X36097842Y-12356530D01*
X35999179Y-12290606D01*
X35999175Y-12290604D01*
X35999173Y-12290603D01*
X35999174Y-12290603D01*
X35853501Y-12230264D01*
X35853491Y-12230261D01*
X35749925Y-12209661D01*
X35698842Y-12199500D01*
X35541158Y-12199500D01*
X35497315Y-12208220D01*
X35386508Y-12230261D01*
X35386498Y-12230264D01*
X35240825Y-12290603D01*
X35109711Y-12378210D01*
X35109710Y-12378212D01*
X34998212Y-12489710D01*
X34998210Y-12489711D01*
X34910603Y-12620825D01*
X34850264Y-12766498D01*
X34850261Y-12766508D01*
X34824580Y-12895616D01*
X34819500Y-12921158D01*
X34819500Y-13078842D01*
X34828746Y-13125326D01*
X34850261Y-13233491D01*
X34850264Y-13233501D01*
X34910603Y-13379174D01*
X34997619Y-13509404D01*
X34998211Y-13510289D01*
X35109711Y-13621789D01*
X35240821Y-13709394D01*
X35240826Y-13709396D01*
X35240825Y-13709396D01*
X35386498Y-13769735D01*
X35386503Y-13769737D01*
X35541158Y-13800500D01*
X35541160Y-13800500D01*
X35698840Y-13800500D01*
X35698842Y-13800500D01*
X35853497Y-13769737D01*
X35999179Y-13709394D01*
X36130289Y-13621789D01*
X36241789Y-13510289D01*
X36241790Y-13510288D01*
X36242674Y-13509404D01*
X36295000Y-13487730D01*
X36347326Y-13509404D01*
X36379711Y-13541789D01*
X36510821Y-13629394D01*
X36510826Y-13629396D01*
X36510825Y-13629396D01*
X36612986Y-13671712D01*
X36656503Y-13689737D01*
X36811158Y-13720500D01*
X36811163Y-13720500D01*
X36814779Y-13720857D01*
X36814600Y-13722668D01*
X36861691Y-13742174D01*
X36883365Y-13794500D01*
X36861691Y-13846826D01*
X35763730Y-14944787D01*
X35717586Y-15024710D01*
X35717584Y-15024715D01*
X35693700Y-15113853D01*
X35693700Y-17200346D01*
X35717584Y-17289484D01*
X35717586Y-17289489D01*
X35763730Y-17369412D01*
X36099023Y-17704705D01*
X36120697Y-17757031D01*
X36119275Y-17771467D01*
X36089500Y-17921158D01*
X36089500Y-18078840D01*
X36120261Y-18233491D01*
X36120264Y-18233501D01*
X36180603Y-18379174D01*
X36180605Y-18379177D01*
X36180606Y-18379179D01*
X36268211Y-18510289D01*
X36379711Y-18621789D01*
X36510821Y-18709394D01*
X36510826Y-18709396D01*
X36510825Y-18709396D01*
X36656498Y-18769735D01*
X36656503Y-18769737D01*
X36811158Y-18800500D01*
X36811160Y-18800500D01*
X36968840Y-18800500D01*
X36968842Y-18800500D01*
X37123497Y-18769737D01*
X37269179Y-18709394D01*
X37400289Y-18621789D01*
X37511789Y-18510289D01*
X37599394Y-18379179D01*
X37659737Y-18233497D01*
X37690500Y-18078842D01*
X37690500Y-17921158D01*
X37659737Y-17766503D01*
X37628049Y-17690000D01*
X37599396Y-17620825D01*
X37599395Y-17620823D01*
X37599394Y-17620821D01*
X37511789Y-17489711D01*
X37400289Y-17378211D01*
X37387120Y-17369412D01*
X37350507Y-17344948D01*
X37269179Y-17290606D01*
X37269175Y-17290604D01*
X37269173Y-17290603D01*
X37269174Y-17290603D01*
X37123501Y-17230264D01*
X37123491Y-17230261D01*
X37016717Y-17209023D01*
X36968842Y-17199500D01*
X36811158Y-17199500D01*
X36777460Y-17206203D01*
X36661467Y-17229275D01*
X36605919Y-17218226D01*
X36594705Y-17209023D01*
X36416374Y-17030692D01*
X36394700Y-16978366D01*
X36394700Y-16449491D01*
X42850000Y-16449491D01*
X42850000Y-16630508D01*
X42878316Y-16809289D01*
X42878319Y-16809302D01*
X42934251Y-16981443D01*
X43016431Y-17142728D01*
X43057668Y-17199487D01*
X43531980Y-16725174D01*
X43534075Y-16732993D01*
X43599901Y-16847007D01*
X43692993Y-16940099D01*
X43807007Y-17005925D01*
X43814822Y-17008019D01*
X43340511Y-17482331D01*
X43397266Y-17523566D01*
X43558556Y-17605748D01*
X43558555Y-17605748D01*
X43730697Y-17661680D01*
X43730710Y-17661683D01*
X43909491Y-17690000D01*
X44090509Y-17690000D01*
X44269289Y-17661683D01*
X44269302Y-17661680D01*
X44441443Y-17605748D01*
X44602729Y-17523568D01*
X44659487Y-17482331D01*
X44185176Y-17008019D01*
X44192993Y-17005925D01*
X44307007Y-16940099D01*
X44400099Y-16847007D01*
X44465925Y-16732993D01*
X44468019Y-16725176D01*
X44942331Y-17199487D01*
X44983568Y-17142729D01*
X45065748Y-16981443D01*
X45121680Y-16809302D01*
X45121683Y-16809289D01*
X45150000Y-16630508D01*
X45150000Y-16449491D01*
X45121683Y-16270710D01*
X45121680Y-16270697D01*
X45065748Y-16098556D01*
X44983566Y-15937267D01*
X44983566Y-15937266D01*
X44942331Y-15880511D01*
X44468019Y-16354822D01*
X44465925Y-16347007D01*
X44400099Y-16232993D01*
X44307007Y-16139901D01*
X44192993Y-16074075D01*
X44185174Y-16071980D01*
X44659487Y-15597668D01*
X44602728Y-15556431D01*
X44441443Y-15474251D01*
X44441444Y-15474251D01*
X44269302Y-15418319D01*
X44269289Y-15418316D01*
X44090509Y-15390000D01*
X43909491Y-15390000D01*
X43730710Y-15418316D01*
X43730697Y-15418319D01*
X43558558Y-15474250D01*
X43397268Y-15556431D01*
X43340511Y-15597667D01*
X43340511Y-15597668D01*
X43814823Y-16071980D01*
X43807007Y-16074075D01*
X43692993Y-16139901D01*
X43599901Y-16232993D01*
X43534075Y-16347007D01*
X43531980Y-16354823D01*
X43057668Y-15880511D01*
X43057667Y-15880511D01*
X43016431Y-15937268D01*
X42934250Y-16098558D01*
X42878319Y-16270697D01*
X42878316Y-16270710D01*
X42850000Y-16449491D01*
X36394700Y-16449491D01*
X36394700Y-16230248D01*
X36416374Y-16177922D01*
X36468700Y-16156248D01*
X36507444Y-16168002D01*
X36507616Y-16167681D01*
X36509233Y-16168545D01*
X36509815Y-16168722D01*
X36510821Y-16169394D01*
X36656503Y-16229737D01*
X36811158Y-16260500D01*
X36811160Y-16260500D01*
X36968840Y-16260500D01*
X36968842Y-16260500D01*
X37123497Y-16229737D01*
X37269179Y-16169394D01*
X37400289Y-16081789D01*
X37511789Y-15970289D01*
X37599394Y-15839179D01*
X37659737Y-15693497D01*
X37690500Y-15538842D01*
X37690500Y-15381158D01*
X37660724Y-15231465D01*
X37671773Y-15175918D01*
X37680971Y-15164709D01*
X39720356Y-13125326D01*
X42899500Y-13125326D01*
X42899500Y-14874674D01*
X42914034Y-14947740D01*
X42969399Y-15030601D01*
X43052260Y-15085966D01*
X43125326Y-15100500D01*
X43125328Y-15100500D01*
X44874672Y-15100500D01*
X44874674Y-15100500D01*
X44947740Y-15085966D01*
X45030601Y-15030601D01*
X45085966Y-14947740D01*
X45100500Y-14874674D01*
X45100500Y-13352126D01*
X50749500Y-13352126D01*
X50749500Y-14647873D01*
X50755909Y-14707485D01*
X50806202Y-14842329D01*
X50806203Y-14842330D01*
X50806204Y-14842331D01*
X50892454Y-14957546D01*
X50990043Y-15030601D01*
X51007669Y-15043796D01*
X51007670Y-15043797D01*
X51106938Y-15080821D01*
X51142517Y-15094091D01*
X51202127Y-15100500D01*
X52797872Y-15100499D01*
X52857483Y-15094091D01*
X52924907Y-15068943D01*
X52992329Y-15043797D01*
X52992329Y-15043796D01*
X52992331Y-15043796D01*
X53107546Y-14957546D01*
X53193796Y-14842331D01*
X53195333Y-14838212D01*
X53228008Y-14750603D01*
X53244091Y-14707483D01*
X53250500Y-14647873D01*
X53250499Y-13352128D01*
X53244091Y-13292517D01*
X53244089Y-13292512D01*
X53193797Y-13157670D01*
X53193796Y-13157669D01*
X53190668Y-13153491D01*
X53107546Y-13042454D01*
X52992331Y-12956204D01*
X52992330Y-12956203D01*
X52992329Y-12956202D01*
X52857487Y-12905910D01*
X52857484Y-12905909D01*
X52857483Y-12905909D01*
X52797873Y-12899500D01*
X51202126Y-12899500D01*
X51142514Y-12905909D01*
X51007670Y-12956202D01*
X51007669Y-12956203D01*
X50892454Y-13042454D01*
X50806203Y-13157669D01*
X50806202Y-13157670D01*
X50755910Y-13292512D01*
X50755909Y-13292517D01*
X50749500Y-13352126D01*
X45100500Y-13352126D01*
X45100500Y-13125326D01*
X45085966Y-13052260D01*
X45030601Y-12969399D01*
X45010851Y-12956203D01*
X44947740Y-12914034D01*
X44874674Y-12899500D01*
X43125326Y-12899500D01*
X43076615Y-12909189D01*
X43052259Y-12914034D01*
X42969399Y-12969398D01*
X42969398Y-12969399D01*
X42914034Y-13052259D01*
X42908747Y-13078840D01*
X42899500Y-13125326D01*
X39720356Y-13125326D01*
X40028770Y-12816912D01*
X40074914Y-12736988D01*
X40098800Y-12647843D01*
X40098800Y-12555556D01*
X40098800Y-11413388D01*
X50749500Y-11413388D01*
X50749500Y-11586611D01*
X50776597Y-11757698D01*
X50776600Y-11757711D01*
X50830125Y-11922442D01*
X50830127Y-11922446D01*
X50908767Y-12076787D01*
X51005992Y-12210606D01*
X51010586Y-12216928D01*
X51133072Y-12339414D01*
X51133075Y-12339416D01*
X51133076Y-12339417D01*
X51273212Y-12441232D01*
X51427553Y-12519872D01*
X51427557Y-12519874D01*
X51592288Y-12573399D01*
X51592294Y-12573400D01*
X51592299Y-12573402D01*
X51706359Y-12591467D01*
X51763388Y-12600500D01*
X51763389Y-12600500D01*
X52236612Y-12600500D01*
X52279383Y-12593725D01*
X52407701Y-12573402D01*
X52407708Y-12573399D01*
X52407711Y-12573399D01*
X52572442Y-12519874D01*
X52572442Y-12519873D01*
X52572445Y-12519873D01*
X52726788Y-12441232D01*
X52866928Y-12339414D01*
X52989414Y-12216928D01*
X53091232Y-12076788D01*
X53169873Y-11922445D01*
X53223402Y-11757701D01*
X53250500Y-11586611D01*
X53250500Y-11413389D01*
X53223402Y-11242299D01*
X53223400Y-11242294D01*
X53223399Y-11242288D01*
X53169874Y-11077557D01*
X53169872Y-11077553D01*
X53091232Y-10923212D01*
X52989417Y-10783076D01*
X52989416Y-10783075D01*
X52989414Y-10783072D01*
X52866928Y-10660586D01*
X52866925Y-10660583D01*
X52866923Y-10660582D01*
X52726787Y-10558767D01*
X52572446Y-10480127D01*
X52572442Y-10480125D01*
X52407711Y-10426600D01*
X52407698Y-10426597D01*
X52236612Y-10399500D01*
X52236611Y-10399500D01*
X51763389Y-10399500D01*
X51763388Y-10399500D01*
X51592301Y-10426597D01*
X51592288Y-10426600D01*
X51427557Y-10480125D01*
X51427553Y-10480127D01*
X51273212Y-10558767D01*
X51133076Y-10660582D01*
X51010582Y-10783076D01*
X50908767Y-10923212D01*
X50830127Y-11077553D01*
X50830125Y-11077557D01*
X50776600Y-11242288D01*
X50776597Y-11242301D01*
X50749500Y-11413388D01*
X40098800Y-11413388D01*
X40098800Y-7673999D01*
X40120474Y-7621673D01*
X40172800Y-7599999D01*
X40250000Y-7599999D01*
X40650000Y-7599999D01*
X40944792Y-7599999D01*
X40969868Y-7597091D01*
X40969874Y-7597089D01*
X41072478Y-7551786D01*
X41151786Y-7472478D01*
X41197089Y-7369875D01*
X41200000Y-7344792D01*
X43800001Y-7344792D01*
X43802908Y-7369868D01*
X43802910Y-7369874D01*
X43848213Y-7472478D01*
X43927521Y-7551786D01*
X44030124Y-7597089D01*
X44030123Y-7597089D01*
X44055210Y-7599999D01*
X44350000Y-7599999D01*
X44750000Y-7599999D01*
X45044792Y-7599999D01*
X45069868Y-7597091D01*
X45069874Y-7597089D01*
X45172478Y-7551786D01*
X45251786Y-7472478D01*
X45297089Y-7369875D01*
X45300000Y-7344789D01*
X45300000Y-7000000D01*
X44750000Y-7000000D01*
X44750000Y-7599999D01*
X44350000Y-7599999D01*
X44350000Y-7000000D01*
X43800001Y-7000000D01*
X43800001Y-7344792D01*
X41200000Y-7344792D01*
X41200000Y-7344789D01*
X41200000Y-7000000D01*
X40650000Y-7000000D01*
X40650000Y-7599999D01*
X40250000Y-7599999D01*
X40250000Y-6874000D01*
X40271674Y-6821674D01*
X40324000Y-6800000D01*
X40450000Y-6800000D01*
X40450000Y-6674000D01*
X40471674Y-6621674D01*
X40524000Y-6600000D01*
X41199999Y-6600000D01*
X41199999Y-6255207D01*
X41197091Y-6230131D01*
X41197089Y-6230125D01*
X41151786Y-6127521D01*
X41072477Y-6048212D01*
X41049533Y-6038082D01*
X41010419Y-5997120D01*
X41011727Y-5940498D01*
X41038311Y-5908858D01*
X41080598Y-5880603D01*
X41080597Y-5880603D01*
X41080601Y-5880601D01*
X41135966Y-5797740D01*
X41150500Y-5724674D01*
X41150500Y-5624500D01*
X41172174Y-5572174D01*
X41224500Y-5550500D01*
X43775500Y-5550500D01*
X43827826Y-5572174D01*
X43849500Y-5624500D01*
X43849500Y-5724672D01*
X43864034Y-5797740D01*
X43919398Y-5880600D01*
X43919399Y-5880601D01*
X43961689Y-5908858D01*
X43993155Y-5955950D01*
X43982106Y-6011499D01*
X43950467Y-6038082D01*
X43927521Y-6048213D01*
X43848213Y-6127521D01*
X43802910Y-6230124D01*
X43800000Y-6255210D01*
X43800000Y-6600000D01*
X45299999Y-6600000D01*
X45299999Y-6255207D01*
X45297091Y-6230131D01*
X45297089Y-6230125D01*
X45251786Y-6127521D01*
X45172477Y-6048212D01*
X45149533Y-6038082D01*
X45110419Y-5997120D01*
X45111727Y-5940498D01*
X45128824Y-5916388D01*
X45133254Y-5912236D01*
X45155090Y-5897646D01*
X46699500Y-5897646D01*
X46699500Y-6102353D01*
X46731522Y-6304531D01*
X46731525Y-6304544D01*
X46794777Y-6499213D01*
X46887712Y-6681610D01*
X46961406Y-6783040D01*
X47008034Y-6847219D01*
X47152781Y-6991966D01*
X47244695Y-7058745D01*
X47318389Y-7112287D01*
X47406300Y-7157079D01*
X47500781Y-7205220D01*
X47500783Y-7205220D01*
X47500786Y-7205222D01*
X47695455Y-7268474D01*
X47695461Y-7268475D01*
X47695466Y-7268477D01*
X47796557Y-7284488D01*
X47897646Y-7300500D01*
X47897648Y-7300500D01*
X48102354Y-7300500D01*
X48183224Y-7287690D01*
X48304534Y-7268477D01*
X48304541Y-7268474D01*
X48304544Y-7268474D01*
X48499213Y-7205222D01*
X48499213Y-7205221D01*
X48499219Y-7205220D01*
X48681610Y-7112287D01*
X48847219Y-6991966D01*
X48991966Y-6847219D01*
X49112287Y-6681610D01*
X49205220Y-6499219D01*
X49268477Y-6304534D01*
X49300500Y-6102352D01*
X49300500Y-5897648D01*
X49297800Y-5880603D01*
X49268477Y-5695468D01*
X49268474Y-5695455D01*
X49205222Y-5500786D01*
X49205220Y-5500783D01*
X49205220Y-5500781D01*
X49157079Y-5406300D01*
X49112287Y-5318389D01*
X49058745Y-5244695D01*
X48991966Y-5152781D01*
X48847219Y-5008034D01*
X48783040Y-4961406D01*
X48681610Y-4887712D01*
X48499213Y-4794777D01*
X48304544Y-4731525D01*
X48304531Y-4731522D01*
X48102354Y-4699500D01*
X48102352Y-4699500D01*
X47897648Y-4699500D01*
X47897646Y-4699500D01*
X47695468Y-4731522D01*
X47695455Y-4731525D01*
X47500786Y-4794777D01*
X47318389Y-4887712D01*
X47162877Y-5000699D01*
X47152781Y-5008034D01*
X47008034Y-5152781D01*
X47008031Y-5152784D01*
X47008031Y-5152785D01*
X46887712Y-5318389D01*
X46794777Y-5500786D01*
X46731525Y-5695455D01*
X46731522Y-5695468D01*
X46699500Y-5897646D01*
X45155090Y-5897646D01*
X45180601Y-5880601D01*
X45203348Y-5846556D01*
X45203351Y-5846554D01*
X45235965Y-5797741D01*
X45235964Y-5797741D01*
X45235966Y-5797740D01*
X45250500Y-5724674D01*
X45250500Y-4675326D01*
X45235966Y-4602260D01*
X45180601Y-4519399D01*
X45097740Y-4464034D01*
X45024674Y-4449500D01*
X44075326Y-4449500D01*
X44044615Y-4455609D01*
X44002259Y-4464034D01*
X43919399Y-4519398D01*
X43919398Y-4519399D01*
X43864034Y-4602259D01*
X43864034Y-4602260D01*
X43852015Y-4662685D01*
X43849500Y-4675327D01*
X43849500Y-4775500D01*
X43827826Y-4827826D01*
X43775500Y-4849500D01*
X41224500Y-4849500D01*
X41172174Y-4827826D01*
X41150500Y-4775500D01*
X41150500Y-4675327D01*
X41150500Y-4675326D01*
X41135966Y-4602260D01*
X41080601Y-4519399D01*
X40997740Y-4464034D01*
X40924674Y-4449500D01*
X39975326Y-4449500D01*
X39944615Y-4455609D01*
X39902259Y-4464034D01*
X39819399Y-4519398D01*
X39819398Y-4519399D01*
X39764034Y-4602259D01*
X39764034Y-4602260D01*
X39752015Y-4662685D01*
X39749500Y-4675327D01*
X39749500Y-4780031D01*
X39727826Y-4832357D01*
X39694653Y-4851509D01*
X39613015Y-4873384D01*
X39613010Y-4873386D01*
X39533091Y-4919528D01*
X39467828Y-4984791D01*
X39421686Y-5064710D01*
X39421684Y-5064715D01*
X39397800Y-5153853D01*
X39397800Y-12425865D01*
X39376126Y-12478191D01*
X38182604Y-13671712D01*
X38130278Y-13693386D01*
X38077952Y-13671712D01*
X38056278Y-13619386D01*
X38058799Y-13600240D01*
X38080100Y-13520743D01*
X38080100Y-13428456D01*
X38080100Y-12562856D01*
X38080100Y-12562854D01*
X38080099Y-12562853D01*
X38068582Y-12519872D01*
X38056214Y-12473712D01*
X38051999Y-12466412D01*
X38010070Y-12393788D01*
X36922842Y-11306560D01*
X36901168Y-11254234D01*
X36922842Y-11201908D01*
X36965391Y-11181787D01*
X36965276Y-11181209D01*
X36967585Y-11180749D01*
X36967925Y-11180589D01*
X36968820Y-11180500D01*
X36968842Y-11180500D01*
X37123497Y-11149737D01*
X37269179Y-11089394D01*
X37400289Y-11001789D01*
X37511789Y-10890289D01*
X37599394Y-10759179D01*
X37659737Y-10613497D01*
X37690500Y-10458842D01*
X37690500Y-10301158D01*
X37659737Y-10146503D01*
X37599394Y-10000821D01*
X37511789Y-9869711D01*
X37400289Y-9758211D01*
X37269179Y-9670606D01*
X37269175Y-9670604D01*
X37269173Y-9670603D01*
X37269174Y-9670603D01*
X37123501Y-9610264D01*
X37123491Y-9610261D01*
X37019925Y-9589661D01*
X36968842Y-9579500D01*
X36811158Y-9579500D01*
X36767315Y-9588220D01*
X36656508Y-9610261D01*
X36656498Y-9610264D01*
X36510825Y-9670603D01*
X36379711Y-9758210D01*
X36379710Y-9758212D01*
X36268212Y-9869710D01*
X36268210Y-9869711D01*
X36180603Y-10000825D01*
X36120264Y-10146498D01*
X36120261Y-10146508D01*
X36089499Y-10301160D01*
X36089408Y-10302092D01*
X36089259Y-10302370D01*
X36088791Y-10304724D01*
X36088076Y-10304581D01*
X36062704Y-10352038D01*
X36008504Y-10368474D01*
X35963439Y-10347157D01*
X33377441Y-7761159D01*
X36089500Y-7761159D01*
X36089500Y-7918840D01*
X36120261Y-8073491D01*
X36120264Y-8073501D01*
X36180603Y-8219174D01*
X36180605Y-8219177D01*
X36180606Y-8219179D01*
X36268211Y-8350289D01*
X36379711Y-8461789D01*
X36510821Y-8549394D01*
X36510826Y-8549396D01*
X36510825Y-8549396D01*
X36656498Y-8609735D01*
X36656503Y-8609737D01*
X36811158Y-8640500D01*
X36811160Y-8640500D01*
X36968840Y-8640500D01*
X36968842Y-8640500D01*
X37123497Y-8609737D01*
X37269179Y-8549394D01*
X37400289Y-8461789D01*
X37511789Y-8350289D01*
X37599394Y-8219179D01*
X37659737Y-8073497D01*
X37690500Y-7918842D01*
X37690500Y-7761158D01*
X37659737Y-7606503D01*
X37657043Y-7599999D01*
X37599396Y-7460825D01*
X37599395Y-7460823D01*
X37599394Y-7460821D01*
X37511789Y-7329711D01*
X37400289Y-7218211D01*
X37269179Y-7130606D01*
X37269175Y-7130604D01*
X37269173Y-7130603D01*
X37269174Y-7130603D01*
X37123501Y-7070264D01*
X37123491Y-7070261D01*
X37019925Y-7049661D01*
X36968842Y-7039500D01*
X36811158Y-7039500D01*
X36767315Y-7048220D01*
X36656508Y-7070261D01*
X36656498Y-7070264D01*
X36510825Y-7130603D01*
X36379711Y-7218210D01*
X36379710Y-7218212D01*
X36268212Y-7329710D01*
X36268210Y-7329711D01*
X36180603Y-7460825D01*
X36120264Y-7606498D01*
X36120261Y-7606508D01*
X36089500Y-7761159D01*
X33377441Y-7761159D01*
X31123874Y-5507592D01*
X31102200Y-5455266D01*
X31102200Y-5153854D01*
X31102199Y-5153853D01*
X31101910Y-5152776D01*
X31078314Y-5064712D01*
X31045593Y-5008039D01*
X31032171Y-4984791D01*
X31032170Y-4984790D01*
X31032169Y-4984788D01*
X30966912Y-4919531D01*
X30966909Y-4919529D01*
X30966908Y-4919528D01*
X30886989Y-4873386D01*
X30886984Y-4873384D01*
X30805347Y-4851509D01*
X30760414Y-4817030D01*
X30750500Y-4780031D01*
X30750500Y-4675327D01*
X30750500Y-4675326D01*
X30735966Y-4602260D01*
X30680601Y-4519399D01*
X30597740Y-4464034D01*
X30524674Y-4449500D01*
X29575326Y-4449500D01*
X29509404Y-4462613D01*
X29502260Y-4464034D01*
X29490610Y-4471818D01*
X29469440Y-4476027D01*
X29449500Y-4484287D01*
X29442495Y-4481385D01*
X29435060Y-4482864D01*
X29417114Y-4470872D01*
X29397174Y-4462613D01*
X29394273Y-4455609D01*
X29387969Y-4451397D01*
X29375500Y-4410287D01*
X29375500Y-4377722D01*
X34274500Y-4377722D01*
X34274500Y-4522677D01*
X34312014Y-4662681D01*
X34312016Y-4662686D01*
X34379766Y-4780031D01*
X34384491Y-4788215D01*
X34486985Y-4890709D01*
X34612515Y-4963184D01*
X34612516Y-4963184D01*
X34612518Y-4963185D01*
X34682520Y-4981942D01*
X34752522Y-5000699D01*
X34752523Y-5000700D01*
X34752525Y-5000700D01*
X34897477Y-5000700D01*
X34897477Y-5000699D01*
X35037485Y-4963184D01*
X35163015Y-4890709D01*
X35265509Y-4788215D01*
X35337984Y-4662685D01*
X35375499Y-4522677D01*
X35375500Y-4522677D01*
X35375500Y-4377723D01*
X35375499Y-4377722D01*
X35337985Y-4237718D01*
X35337983Y-4237713D01*
X35265508Y-4112184D01*
X35163015Y-4009691D01*
X35037486Y-3937216D01*
X35037481Y-3937214D01*
X34897477Y-3899700D01*
X34897475Y-3899700D01*
X34752525Y-3899700D01*
X34752523Y-3899700D01*
X34612518Y-3937214D01*
X34612513Y-3937216D01*
X34486984Y-4009691D01*
X34384491Y-4112184D01*
X34312016Y-4237713D01*
X34312014Y-4237718D01*
X34274500Y-4377722D01*
X29375500Y-4377722D01*
X29375500Y-4367323D01*
X29375499Y-4367322D01*
X29337985Y-4227318D01*
X29337983Y-4227313D01*
X29265508Y-4101784D01*
X29163015Y-3999291D01*
X29037486Y-3926816D01*
X29037481Y-3926814D01*
X28897477Y-3889300D01*
X28897475Y-3889300D01*
X28752525Y-3889300D01*
X28752523Y-3889300D01*
X28612518Y-3926814D01*
X28612513Y-3926816D01*
X28486984Y-3999291D01*
X28384491Y-4101784D01*
X28312016Y-4227313D01*
X28312014Y-4227318D01*
X28274500Y-4367322D01*
X28274500Y-4512277D01*
X28312014Y-4652281D01*
X28312016Y-4652286D01*
X28361792Y-4738500D01*
X28369184Y-4794653D01*
X28334706Y-4839586D01*
X28297706Y-4849500D01*
X26724500Y-4849500D01*
X26672174Y-4827826D01*
X26650500Y-4775500D01*
X26650500Y-4675327D01*
X26650500Y-4675326D01*
X26635966Y-4602260D01*
X26580601Y-4519399D01*
X26497740Y-4464034D01*
X26424674Y-4449500D01*
X25475326Y-4449500D01*
X25444615Y-4455609D01*
X25402259Y-4464034D01*
X25319399Y-4519398D01*
X25319398Y-4519399D01*
X25264034Y-4602259D01*
X25264034Y-4602260D01*
X25252015Y-4662685D01*
X25249500Y-4675327D01*
X25249500Y-5724672D01*
X25264034Y-5797740D01*
X25319398Y-5880600D01*
X25319399Y-5880601D01*
X25361689Y-5908858D01*
X25393155Y-5955950D01*
X25382106Y-6011499D01*
X25350467Y-6038082D01*
X25327521Y-6048213D01*
X25248213Y-6127521D01*
X25202910Y-6230124D01*
X25200000Y-6255210D01*
X23100892Y-6255210D01*
X21765212Y-4919530D01*
X21685289Y-4873386D01*
X21685284Y-4873384D01*
X21596146Y-4849500D01*
X21596144Y-4849500D01*
X14824500Y-4849500D01*
X14772174Y-4827826D01*
X14750500Y-4775500D01*
X14750500Y-4675327D01*
X14750500Y-4675326D01*
X14735966Y-4602260D01*
X14680601Y-4519399D01*
X14597740Y-4464034D01*
X14524674Y-4449500D01*
X13575326Y-4449500D01*
X13544615Y-4455609D01*
X13502259Y-4464034D01*
X13419399Y-4519398D01*
X13419398Y-4519399D01*
X13364034Y-4602259D01*
X13364034Y-4602260D01*
X13352015Y-4662685D01*
X13349500Y-4675327D01*
X13349500Y-4775500D01*
X13327826Y-4827826D01*
X13275500Y-4849500D01*
X10724500Y-4849500D01*
X10672174Y-4827826D01*
X10650500Y-4775500D01*
X10650500Y-4675327D01*
X10650500Y-4675326D01*
X10635966Y-4602260D01*
X10580601Y-4519399D01*
X10497740Y-4464034D01*
X10424674Y-4449500D01*
X9475326Y-4449500D01*
X9444615Y-4455609D01*
X9402259Y-4464034D01*
X9319399Y-4519398D01*
X9319398Y-4519399D01*
X9264034Y-4602259D01*
X9264034Y-4602260D01*
X9252015Y-4662685D01*
X9249500Y-4675327D01*
X9249500Y-5724672D01*
X9264034Y-5797740D01*
X9319398Y-5880600D01*
X9319399Y-5880601D01*
X9361689Y-5908858D01*
X9393155Y-5955950D01*
X9382106Y-6011499D01*
X9350467Y-6038082D01*
X9327521Y-6048213D01*
X9248213Y-6127521D01*
X9202910Y-6230124D01*
X9200000Y-6255210D01*
X8276289Y-6255210D01*
X8300500Y-6102352D01*
X8300500Y-5897648D01*
X8297800Y-5880603D01*
X8268477Y-5695468D01*
X8268474Y-5695455D01*
X8205222Y-5500786D01*
X8205220Y-5500783D01*
X8205220Y-5500781D01*
X8157079Y-5406300D01*
X8112287Y-5318389D01*
X8058745Y-5244695D01*
X7991966Y-5152781D01*
X7847219Y-5008034D01*
X7783040Y-4961406D01*
X7681610Y-4887712D01*
X7499213Y-4794777D01*
X7304544Y-4731525D01*
X7304531Y-4731522D01*
X7102354Y-4699500D01*
X7102352Y-4699500D01*
X6897648Y-4699500D01*
X6897646Y-4699500D01*
X6695468Y-4731522D01*
X6695455Y-4731525D01*
X6500786Y-4794777D01*
X6318389Y-4887712D01*
X6162877Y-5000699D01*
X6152781Y-5008034D01*
X6008034Y-5152781D01*
X6008031Y-5152784D01*
X6008031Y-5152785D01*
X5887712Y-5318389D01*
X5794777Y-5500786D01*
X5731525Y-5695455D01*
X5731522Y-5695468D01*
X5699500Y-5897646D01*
X500500Y-5897646D01*
X500500Y-574500D01*
X522174Y-522174D01*
X574500Y-500500D01*
X55425500Y-500500D01*
X55477826Y-522174D01*
G37*
%TD.AperFunction*%
%TD*%
M02*
