%TF.GenerationSoftware,KiCad,Pcbnew,9.0.2+dfsg-1*%
%TF.CreationDate,2026-07-13T23:30:14-04:00*%
%TF.ProjectId,autofeeder,6175746f-6665-4656-9465-722e6b696361,rev?*%
%TF.SameCoordinates,Original*%
%TF.FileFunction,Legend,Bot*%
%TF.FilePolarity,Positive*%
%FSLAX46Y46*%
G04 Gerber Fmt 4.6, Leading zero omitted, Abs format (unit mm)*
G04 Created by KiCad (PCBNEW 9.0.2+dfsg-1) date 2026-07-13 23:30:14*
%MOMM*%
%LPD*%
G01*
G04 APERTURE LIST*
%ADD10C,0.150000*%
%ADD11C,0.200000*%
%ADD12C,0.120000*%
%ADD13C,0.900000*%
G04 APERTURE END LIST*
D10*
X45900000Y-23452657D02*
X45900000Y-24652657D01*
X45900000Y-24652657D02*
X46357143Y-24652657D01*
X46357143Y-24652657D02*
X46471428Y-24595514D01*
X46471428Y-24595514D02*
X46528571Y-24538371D01*
X46528571Y-24538371D02*
X46585714Y-24424085D01*
X46585714Y-24424085D02*
X46585714Y-24252657D01*
X46585714Y-24252657D02*
X46528571Y-24138371D01*
X46528571Y-24138371D02*
X46471428Y-24081228D01*
X46471428Y-24081228D02*
X46357143Y-24024085D01*
X46357143Y-24024085D02*
X45900000Y-24024085D01*
X46985714Y-24652657D02*
X47271428Y-23452657D01*
X47271428Y-23452657D02*
X47500000Y-24309800D01*
X47500000Y-24309800D02*
X47728571Y-23452657D01*
X47728571Y-23452657D02*
X48014286Y-24652657D01*
X49157143Y-23452657D02*
X48757143Y-24024085D01*
X48471429Y-23452657D02*
X48471429Y-24652657D01*
X48471429Y-24652657D02*
X48928572Y-24652657D01*
X48928572Y-24652657D02*
X49042857Y-24595514D01*
X49042857Y-24595514D02*
X49100000Y-24538371D01*
X49100000Y-24538371D02*
X49157143Y-24424085D01*
X49157143Y-24424085D02*
X49157143Y-24252657D01*
X49157143Y-24252657D02*
X49100000Y-24138371D01*
X49100000Y-24138371D02*
X49042857Y-24081228D01*
X49042857Y-24081228D02*
X48928572Y-24024085D01*
X48928572Y-24024085D02*
X48471429Y-24024085D01*
X46328571Y-13566942D02*
X46271428Y-13509800D01*
X46271428Y-13509800D02*
X46100000Y-13452657D01*
X46100000Y-13452657D02*
X45985714Y-13452657D01*
X45985714Y-13452657D02*
X45814285Y-13509800D01*
X45814285Y-13509800D02*
X45700000Y-13624085D01*
X45700000Y-13624085D02*
X45642857Y-13738371D01*
X45642857Y-13738371D02*
X45585714Y-13966942D01*
X45585714Y-13966942D02*
X45585714Y-14138371D01*
X45585714Y-14138371D02*
X45642857Y-14366942D01*
X45642857Y-14366942D02*
X45700000Y-14481228D01*
X45700000Y-14481228D02*
X45814285Y-14595514D01*
X45814285Y-14595514D02*
X45985714Y-14652657D01*
X45985714Y-14652657D02*
X46100000Y-14652657D01*
X46100000Y-14652657D02*
X46271428Y-14595514D01*
X46271428Y-14595514D02*
X46328571Y-14538371D01*
X46671428Y-14652657D02*
X47357143Y-14652657D01*
X47014285Y-13452657D02*
X47014285Y-14652657D01*
X48442857Y-13452657D02*
X48042857Y-14024085D01*
X47757143Y-13452657D02*
X47757143Y-14652657D01*
X47757143Y-14652657D02*
X48214286Y-14652657D01*
X48214286Y-14652657D02*
X48328571Y-14595514D01*
X48328571Y-14595514D02*
X48385714Y-14538371D01*
X48385714Y-14538371D02*
X48442857Y-14424085D01*
X48442857Y-14424085D02*
X48442857Y-14252657D01*
X48442857Y-14252657D02*
X48385714Y-14138371D01*
X48385714Y-14138371D02*
X48328571Y-14081228D01*
X48328571Y-14081228D02*
X48214286Y-14024085D01*
X48214286Y-14024085D02*
X47757143Y-14024085D01*
X49528571Y-13452657D02*
X48957143Y-13452657D01*
X48957143Y-13452657D02*
X48957143Y-14652657D01*
X46157143Y-34081228D02*
X46328571Y-34024085D01*
X46328571Y-34024085D02*
X46385714Y-33966942D01*
X46385714Y-33966942D02*
X46442857Y-33852657D01*
X46442857Y-33852657D02*
X46442857Y-33681228D01*
X46442857Y-33681228D02*
X46385714Y-33566942D01*
X46385714Y-33566942D02*
X46328571Y-33509800D01*
X46328571Y-33509800D02*
X46214286Y-33452657D01*
X46214286Y-33452657D02*
X45757143Y-33452657D01*
X45757143Y-33452657D02*
X45757143Y-34652657D01*
X45757143Y-34652657D02*
X46157143Y-34652657D01*
X46157143Y-34652657D02*
X46271429Y-34595514D01*
X46271429Y-34595514D02*
X46328571Y-34538371D01*
X46328571Y-34538371D02*
X46385714Y-34424085D01*
X46385714Y-34424085D02*
X46385714Y-34309800D01*
X46385714Y-34309800D02*
X46328571Y-34195514D01*
X46328571Y-34195514D02*
X46271429Y-34138371D01*
X46271429Y-34138371D02*
X46157143Y-34081228D01*
X46157143Y-34081228D02*
X45757143Y-34081228D01*
X46900000Y-33795514D02*
X47471429Y-33795514D01*
X46785714Y-33452657D02*
X47185714Y-34652657D01*
X47185714Y-34652657D02*
X47585714Y-33452657D01*
X47814285Y-34652657D02*
X48500000Y-34652657D01*
X48157142Y-33452657D02*
X48157142Y-34652657D01*
X48728571Y-34652657D02*
X49414286Y-34652657D01*
X49071428Y-33452657D02*
X49071428Y-34652657D01*
X16261904Y-16854819D02*
X16261904Y-15854819D01*
X15690476Y-16854819D02*
X16119047Y-16283390D01*
X15690476Y-15854819D02*
X16261904Y-16426247D01*
X13761904Y-33254819D02*
X13761904Y-34064342D01*
X13761904Y-34064342D02*
X13714285Y-34159580D01*
X13714285Y-34159580D02*
X13666666Y-34207200D01*
X13666666Y-34207200D02*
X13571428Y-34254819D01*
X13571428Y-34254819D02*
X13380952Y-34254819D01*
X13380952Y-34254819D02*
X13285714Y-34207200D01*
X13285714Y-34207200D02*
X13238095Y-34159580D01*
X13238095Y-34159580D02*
X13190476Y-34064342D01*
X13190476Y-34064342D02*
X13190476Y-33254819D01*
X12285714Y-33588152D02*
X12285714Y-34254819D01*
X12523809Y-33207200D02*
X12761904Y-33921485D01*
X12761904Y-33921485D02*
X12142857Y-33921485D01*
X35547619Y-2524819D02*
X35880952Y-2048628D01*
X36119047Y-2524819D02*
X36119047Y-1524819D01*
X36119047Y-1524819D02*
X35738095Y-1524819D01*
X35738095Y-1524819D02*
X35642857Y-1572438D01*
X35642857Y-1572438D02*
X35595238Y-1620057D01*
X35595238Y-1620057D02*
X35547619Y-1715295D01*
X35547619Y-1715295D02*
X35547619Y-1858152D01*
X35547619Y-1858152D02*
X35595238Y-1953390D01*
X35595238Y-1953390D02*
X35642857Y-2001009D01*
X35642857Y-2001009D02*
X35738095Y-2048628D01*
X35738095Y-2048628D02*
X36119047Y-2048628D01*
X35357143Y-2620057D02*
X34595238Y-2620057D01*
X33785714Y-2429580D02*
X33833333Y-2477200D01*
X33833333Y-2477200D02*
X33976190Y-2524819D01*
X33976190Y-2524819D02*
X34071428Y-2524819D01*
X34071428Y-2524819D02*
X34214285Y-2477200D01*
X34214285Y-2477200D02*
X34309523Y-2381961D01*
X34309523Y-2381961D02*
X34357142Y-2286723D01*
X34357142Y-2286723D02*
X34404761Y-2096247D01*
X34404761Y-2096247D02*
X34404761Y-1953390D01*
X34404761Y-1953390D02*
X34357142Y-1762914D01*
X34357142Y-1762914D02*
X34309523Y-1667676D01*
X34309523Y-1667676D02*
X34214285Y-1572438D01*
X34214285Y-1572438D02*
X34071428Y-1524819D01*
X34071428Y-1524819D02*
X33976190Y-1524819D01*
X33976190Y-1524819D02*
X33833333Y-1572438D01*
X33833333Y-1572438D02*
X33785714Y-1620057D01*
X32785714Y-2429580D02*
X32833333Y-2477200D01*
X32833333Y-2477200D02*
X32976190Y-2524819D01*
X32976190Y-2524819D02*
X33071428Y-2524819D01*
X33071428Y-2524819D02*
X33214285Y-2477200D01*
X33214285Y-2477200D02*
X33309523Y-2381961D01*
X33309523Y-2381961D02*
X33357142Y-2286723D01*
X33357142Y-2286723D02*
X33404761Y-2096247D01*
X33404761Y-2096247D02*
X33404761Y-1953390D01*
X33404761Y-1953390D02*
X33357142Y-1762914D01*
X33357142Y-1762914D02*
X33309523Y-1667676D01*
X33309523Y-1667676D02*
X33214285Y-1572438D01*
X33214285Y-1572438D02*
X33071428Y-1524819D01*
X33071428Y-1524819D02*
X32976190Y-1524819D01*
X32976190Y-1524819D02*
X32833333Y-1572438D01*
X32833333Y-1572438D02*
X32785714Y-1620057D01*
X32404761Y-1620057D02*
X32357142Y-1572438D01*
X32357142Y-1572438D02*
X32261904Y-1524819D01*
X32261904Y-1524819D02*
X32023809Y-1524819D01*
X32023809Y-1524819D02*
X31928571Y-1572438D01*
X31928571Y-1572438D02*
X31880952Y-1620057D01*
X31880952Y-1620057D02*
X31833333Y-1715295D01*
X31833333Y-1715295D02*
X31833333Y-1810533D01*
X31833333Y-1810533D02*
X31880952Y-1953390D01*
X31880952Y-1953390D02*
X32452380Y-2524819D01*
X32452380Y-2524819D02*
X31833333Y-2524819D01*
X40166666Y-24679580D02*
X40214285Y-24727200D01*
X40214285Y-24727200D02*
X40357142Y-24774819D01*
X40357142Y-24774819D02*
X40452380Y-24774819D01*
X40452380Y-24774819D02*
X40595237Y-24727200D01*
X40595237Y-24727200D02*
X40690475Y-24631961D01*
X40690475Y-24631961D02*
X40738094Y-24536723D01*
X40738094Y-24536723D02*
X40785713Y-24346247D01*
X40785713Y-24346247D02*
X40785713Y-24203390D01*
X40785713Y-24203390D02*
X40738094Y-24012914D01*
X40738094Y-24012914D02*
X40690475Y-23917676D01*
X40690475Y-23917676D02*
X40595237Y-23822438D01*
X40595237Y-23822438D02*
X40452380Y-23774819D01*
X40452380Y-23774819D02*
X40357142Y-23774819D01*
X40357142Y-23774819D02*
X40214285Y-23822438D01*
X40214285Y-23822438D02*
X40166666Y-23870057D01*
X39785713Y-23870057D02*
X39738094Y-23822438D01*
X39738094Y-23822438D02*
X39642856Y-23774819D01*
X39642856Y-23774819D02*
X39404761Y-23774819D01*
X39404761Y-23774819D02*
X39309523Y-23822438D01*
X39309523Y-23822438D02*
X39261904Y-23870057D01*
X39261904Y-23870057D02*
X39214285Y-23965295D01*
X39214285Y-23965295D02*
X39214285Y-24060533D01*
X39214285Y-24060533D02*
X39261904Y-24203390D01*
X39261904Y-24203390D02*
X39833332Y-24774819D01*
X39833332Y-24774819D02*
X39214285Y-24774819D01*
X6166666Y-34904819D02*
X6642856Y-34904819D01*
X6642856Y-34904819D02*
X6642856Y-33904819D01*
X5309523Y-34904819D02*
X5880951Y-34904819D01*
X5595237Y-34904819D02*
X5595237Y-33904819D01*
X5595237Y-33904819D02*
X5690475Y-34047676D01*
X5690475Y-34047676D02*
X5785713Y-34142914D01*
X5785713Y-34142914D02*
X5880951Y-34190533D01*
X12166666Y-40679580D02*
X12214285Y-40727200D01*
X12214285Y-40727200D02*
X12357142Y-40774819D01*
X12357142Y-40774819D02*
X12452380Y-40774819D01*
X12452380Y-40774819D02*
X12595237Y-40727200D01*
X12595237Y-40727200D02*
X12690475Y-40631961D01*
X12690475Y-40631961D02*
X12738094Y-40536723D01*
X12738094Y-40536723D02*
X12785713Y-40346247D01*
X12785713Y-40346247D02*
X12785713Y-40203390D01*
X12785713Y-40203390D02*
X12738094Y-40012914D01*
X12738094Y-40012914D02*
X12690475Y-39917676D01*
X12690475Y-39917676D02*
X12595237Y-39822438D01*
X12595237Y-39822438D02*
X12452380Y-39774819D01*
X12452380Y-39774819D02*
X12357142Y-39774819D01*
X12357142Y-39774819D02*
X12214285Y-39822438D01*
X12214285Y-39822438D02*
X12166666Y-39870057D01*
X11309523Y-40108152D02*
X11309523Y-40774819D01*
X11547618Y-39727200D02*
X11785713Y-40441485D01*
X11785713Y-40441485D02*
X11166666Y-40441485D01*
X41761904Y-41054819D02*
X41761904Y-41864342D01*
X41761904Y-41864342D02*
X41714285Y-41959580D01*
X41714285Y-41959580D02*
X41666666Y-42007200D01*
X41666666Y-42007200D02*
X41571428Y-42054819D01*
X41571428Y-42054819D02*
X41380952Y-42054819D01*
X41380952Y-42054819D02*
X41285714Y-42007200D01*
X41285714Y-42007200D02*
X41238095Y-41959580D01*
X41238095Y-41959580D02*
X41190476Y-41864342D01*
X41190476Y-41864342D02*
X41190476Y-41054819D01*
X40285714Y-41054819D02*
X40476190Y-41054819D01*
X40476190Y-41054819D02*
X40571428Y-41102438D01*
X40571428Y-41102438D02*
X40619047Y-41150057D01*
X40619047Y-41150057D02*
X40714285Y-41292914D01*
X40714285Y-41292914D02*
X40761904Y-41483390D01*
X40761904Y-41483390D02*
X40761904Y-41864342D01*
X40761904Y-41864342D02*
X40714285Y-41959580D01*
X40714285Y-41959580D02*
X40666666Y-42007200D01*
X40666666Y-42007200D02*
X40571428Y-42054819D01*
X40571428Y-42054819D02*
X40380952Y-42054819D01*
X40380952Y-42054819D02*
X40285714Y-42007200D01*
X40285714Y-42007200D02*
X40238095Y-41959580D01*
X40238095Y-41959580D02*
X40190476Y-41864342D01*
X40190476Y-41864342D02*
X40190476Y-41626247D01*
X40190476Y-41626247D02*
X40238095Y-41531009D01*
X40238095Y-41531009D02*
X40285714Y-41483390D01*
X40285714Y-41483390D02*
X40380952Y-41435771D01*
X40380952Y-41435771D02*
X40571428Y-41435771D01*
X40571428Y-41435771D02*
X40666666Y-41483390D01*
X40666666Y-41483390D02*
X40714285Y-41531009D01*
X40714285Y-41531009D02*
X40761904Y-41626247D01*
X11166666Y-45024819D02*
X11499999Y-44548628D01*
X11738094Y-45024819D02*
X11738094Y-44024819D01*
X11738094Y-44024819D02*
X11357142Y-44024819D01*
X11357142Y-44024819D02*
X11261904Y-44072438D01*
X11261904Y-44072438D02*
X11214285Y-44120057D01*
X11214285Y-44120057D02*
X11166666Y-44215295D01*
X11166666Y-44215295D02*
X11166666Y-44358152D01*
X11166666Y-44358152D02*
X11214285Y-44453390D01*
X11214285Y-44453390D02*
X11261904Y-44501009D01*
X11261904Y-44501009D02*
X11357142Y-44548628D01*
X11357142Y-44548628D02*
X11738094Y-44548628D01*
X10833332Y-44024819D02*
X10214285Y-44024819D01*
X10214285Y-44024819D02*
X10547618Y-44405771D01*
X10547618Y-44405771D02*
X10404761Y-44405771D01*
X10404761Y-44405771D02*
X10309523Y-44453390D01*
X10309523Y-44453390D02*
X10261904Y-44501009D01*
X10261904Y-44501009D02*
X10214285Y-44596247D01*
X10214285Y-44596247D02*
X10214285Y-44834342D01*
X10214285Y-44834342D02*
X10261904Y-44929580D01*
X10261904Y-44929580D02*
X10309523Y-44977200D01*
X10309523Y-44977200D02*
X10404761Y-45024819D01*
X10404761Y-45024819D02*
X10690475Y-45024819D01*
X10690475Y-45024819D02*
X10785713Y-44977200D01*
X10785713Y-44977200D02*
X10833332Y-44929580D01*
X7333333Y-10281009D02*
X7666666Y-10281009D01*
X7666666Y-10804819D02*
X7666666Y-9804819D01*
X7666666Y-9804819D02*
X7190476Y-9804819D01*
X6285714Y-10804819D02*
X6857142Y-10804819D01*
X6571428Y-10804819D02*
X6571428Y-9804819D01*
X6571428Y-9804819D02*
X6666666Y-9947676D01*
X6666666Y-9947676D02*
X6761904Y-10042914D01*
X6761904Y-10042914D02*
X6857142Y-10090533D01*
X40166666Y-21929580D02*
X40214285Y-21977200D01*
X40214285Y-21977200D02*
X40357142Y-22024819D01*
X40357142Y-22024819D02*
X40452380Y-22024819D01*
X40452380Y-22024819D02*
X40595237Y-21977200D01*
X40595237Y-21977200D02*
X40690475Y-21881961D01*
X40690475Y-21881961D02*
X40738094Y-21786723D01*
X40738094Y-21786723D02*
X40785713Y-21596247D01*
X40785713Y-21596247D02*
X40785713Y-21453390D01*
X40785713Y-21453390D02*
X40738094Y-21262914D01*
X40738094Y-21262914D02*
X40690475Y-21167676D01*
X40690475Y-21167676D02*
X40595237Y-21072438D01*
X40595237Y-21072438D02*
X40452380Y-21024819D01*
X40452380Y-21024819D02*
X40357142Y-21024819D01*
X40357142Y-21024819D02*
X40214285Y-21072438D01*
X40214285Y-21072438D02*
X40166666Y-21120057D01*
X39214285Y-22024819D02*
X39785713Y-22024819D01*
X39499999Y-22024819D02*
X39499999Y-21024819D01*
X39499999Y-21024819D02*
X39595237Y-21167676D01*
X39595237Y-21167676D02*
X39690475Y-21262914D01*
X39690475Y-21262914D02*
X39785713Y-21310533D01*
X17523809Y-21024819D02*
X17857142Y-20548628D01*
X18095237Y-21024819D02*
X18095237Y-20024819D01*
X18095237Y-20024819D02*
X17714285Y-20024819D01*
X17714285Y-20024819D02*
X17619047Y-20072438D01*
X17619047Y-20072438D02*
X17571428Y-20120057D01*
X17571428Y-20120057D02*
X17523809Y-20215295D01*
X17523809Y-20215295D02*
X17523809Y-20358152D01*
X17523809Y-20358152D02*
X17571428Y-20453390D01*
X17571428Y-20453390D02*
X17619047Y-20501009D01*
X17619047Y-20501009D02*
X17714285Y-20548628D01*
X17714285Y-20548628D02*
X18095237Y-20548628D01*
X17142856Y-20120057D02*
X17095237Y-20072438D01*
X17095237Y-20072438D02*
X16999999Y-20024819D01*
X16999999Y-20024819D02*
X16761904Y-20024819D01*
X16761904Y-20024819D02*
X16666666Y-20072438D01*
X16666666Y-20072438D02*
X16619047Y-20120057D01*
X16619047Y-20120057D02*
X16571428Y-20215295D01*
X16571428Y-20215295D02*
X16571428Y-20310533D01*
X16571428Y-20310533D02*
X16619047Y-20453390D01*
X16619047Y-20453390D02*
X17190475Y-21024819D01*
X17190475Y-21024819D02*
X16571428Y-21024819D01*
X16380952Y-21120057D02*
X15619047Y-21120057D01*
X14809523Y-20929580D02*
X14857142Y-20977200D01*
X14857142Y-20977200D02*
X14999999Y-21024819D01*
X14999999Y-21024819D02*
X15095237Y-21024819D01*
X15095237Y-21024819D02*
X15238094Y-20977200D01*
X15238094Y-20977200D02*
X15333332Y-20881961D01*
X15333332Y-20881961D02*
X15380951Y-20786723D01*
X15380951Y-20786723D02*
X15428570Y-20596247D01*
X15428570Y-20596247D02*
X15428570Y-20453390D01*
X15428570Y-20453390D02*
X15380951Y-20262914D01*
X15380951Y-20262914D02*
X15333332Y-20167676D01*
X15333332Y-20167676D02*
X15238094Y-20072438D01*
X15238094Y-20072438D02*
X15095237Y-20024819D01*
X15095237Y-20024819D02*
X14999999Y-20024819D01*
X14999999Y-20024819D02*
X14857142Y-20072438D01*
X14857142Y-20072438D02*
X14809523Y-20120057D01*
X13857142Y-21024819D02*
X14428570Y-21024819D01*
X14142856Y-21024819D02*
X14142856Y-20024819D01*
X14142856Y-20024819D02*
X14238094Y-20167676D01*
X14238094Y-20167676D02*
X14333332Y-20262914D01*
X14333332Y-20262914D02*
X14428570Y-20310533D01*
X19761904Y-31554819D02*
X19761904Y-32364342D01*
X19761904Y-32364342D02*
X19714285Y-32459580D01*
X19714285Y-32459580D02*
X19666666Y-32507200D01*
X19666666Y-32507200D02*
X19571428Y-32554819D01*
X19571428Y-32554819D02*
X19380952Y-32554819D01*
X19380952Y-32554819D02*
X19285714Y-32507200D01*
X19285714Y-32507200D02*
X19238095Y-32459580D01*
X19238095Y-32459580D02*
X19190476Y-32364342D01*
X19190476Y-32364342D02*
X19190476Y-31554819D01*
X18571428Y-31983390D02*
X18666666Y-31935771D01*
X18666666Y-31935771D02*
X18714285Y-31888152D01*
X18714285Y-31888152D02*
X18761904Y-31792914D01*
X18761904Y-31792914D02*
X18761904Y-31745295D01*
X18761904Y-31745295D02*
X18714285Y-31650057D01*
X18714285Y-31650057D02*
X18666666Y-31602438D01*
X18666666Y-31602438D02*
X18571428Y-31554819D01*
X18571428Y-31554819D02*
X18380952Y-31554819D01*
X18380952Y-31554819D02*
X18285714Y-31602438D01*
X18285714Y-31602438D02*
X18238095Y-31650057D01*
X18238095Y-31650057D02*
X18190476Y-31745295D01*
X18190476Y-31745295D02*
X18190476Y-31792914D01*
X18190476Y-31792914D02*
X18238095Y-31888152D01*
X18238095Y-31888152D02*
X18285714Y-31935771D01*
X18285714Y-31935771D02*
X18380952Y-31983390D01*
X18380952Y-31983390D02*
X18571428Y-31983390D01*
X18571428Y-31983390D02*
X18666666Y-32031009D01*
X18666666Y-32031009D02*
X18714285Y-32078628D01*
X18714285Y-32078628D02*
X18761904Y-32173866D01*
X18761904Y-32173866D02*
X18761904Y-32364342D01*
X18761904Y-32364342D02*
X18714285Y-32459580D01*
X18714285Y-32459580D02*
X18666666Y-32507200D01*
X18666666Y-32507200D02*
X18571428Y-32554819D01*
X18571428Y-32554819D02*
X18380952Y-32554819D01*
X18380952Y-32554819D02*
X18285714Y-32507200D01*
X18285714Y-32507200D02*
X18238095Y-32459580D01*
X18238095Y-32459580D02*
X18190476Y-32364342D01*
X18190476Y-32364342D02*
X18190476Y-32173866D01*
X18190476Y-32173866D02*
X18238095Y-32078628D01*
X18238095Y-32078628D02*
X18285714Y-32031009D01*
X18285714Y-32031009D02*
X18380952Y-31983390D01*
X46166666Y-38929580D02*
X46214285Y-38977200D01*
X46214285Y-38977200D02*
X46357142Y-39024819D01*
X46357142Y-39024819D02*
X46452380Y-39024819D01*
X46452380Y-39024819D02*
X46595237Y-38977200D01*
X46595237Y-38977200D02*
X46690475Y-38881961D01*
X46690475Y-38881961D02*
X46738094Y-38786723D01*
X46738094Y-38786723D02*
X46785713Y-38596247D01*
X46785713Y-38596247D02*
X46785713Y-38453390D01*
X46785713Y-38453390D02*
X46738094Y-38262914D01*
X46738094Y-38262914D02*
X46690475Y-38167676D01*
X46690475Y-38167676D02*
X46595237Y-38072438D01*
X46595237Y-38072438D02*
X46452380Y-38024819D01*
X46452380Y-38024819D02*
X46357142Y-38024819D01*
X46357142Y-38024819D02*
X46214285Y-38072438D01*
X46214285Y-38072438D02*
X46166666Y-38120057D01*
X45309523Y-38024819D02*
X45499999Y-38024819D01*
X45499999Y-38024819D02*
X45595237Y-38072438D01*
X45595237Y-38072438D02*
X45642856Y-38120057D01*
X45642856Y-38120057D02*
X45738094Y-38262914D01*
X45738094Y-38262914D02*
X45785713Y-38453390D01*
X45785713Y-38453390D02*
X45785713Y-38834342D01*
X45785713Y-38834342D02*
X45738094Y-38929580D01*
X45738094Y-38929580D02*
X45690475Y-38977200D01*
X45690475Y-38977200D02*
X45595237Y-39024819D01*
X45595237Y-39024819D02*
X45404761Y-39024819D01*
X45404761Y-39024819D02*
X45309523Y-38977200D01*
X45309523Y-38977200D02*
X45261904Y-38929580D01*
X45261904Y-38929580D02*
X45214285Y-38834342D01*
X45214285Y-38834342D02*
X45214285Y-38596247D01*
X45214285Y-38596247D02*
X45261904Y-38501009D01*
X45261904Y-38501009D02*
X45309523Y-38453390D01*
X45309523Y-38453390D02*
X45404761Y-38405771D01*
X45404761Y-38405771D02*
X45595237Y-38405771D01*
X45595237Y-38405771D02*
X45690475Y-38453390D01*
X45690475Y-38453390D02*
X45738094Y-38501009D01*
X45738094Y-38501009D02*
X45785713Y-38596247D01*
X11166666Y-49024819D02*
X11499999Y-48548628D01*
X11738094Y-49024819D02*
X11738094Y-48024819D01*
X11738094Y-48024819D02*
X11357142Y-48024819D01*
X11357142Y-48024819D02*
X11261904Y-48072438D01*
X11261904Y-48072438D02*
X11214285Y-48120057D01*
X11214285Y-48120057D02*
X11166666Y-48215295D01*
X11166666Y-48215295D02*
X11166666Y-48358152D01*
X11166666Y-48358152D02*
X11214285Y-48453390D01*
X11214285Y-48453390D02*
X11261904Y-48501009D01*
X11261904Y-48501009D02*
X11357142Y-48548628D01*
X11357142Y-48548628D02*
X11738094Y-48548628D01*
X10309523Y-48358152D02*
X10309523Y-49024819D01*
X10547618Y-47977200D02*
X10785713Y-48691485D01*
X10785713Y-48691485D02*
X10166666Y-48691485D01*
X29699999Y-44093604D02*
X30319047Y-44093604D01*
X30319047Y-44093604D02*
X30319047Y-42793604D01*
X28709523Y-44093604D02*
X28709523Y-43412652D01*
X28709523Y-43412652D02*
X28771428Y-43288842D01*
X28771428Y-43288842D02*
X28895237Y-43226938D01*
X28895237Y-43226938D02*
X29142856Y-43226938D01*
X29142856Y-43226938D02*
X29266666Y-43288842D01*
X28709523Y-44031700D02*
X28833332Y-44093604D01*
X28833332Y-44093604D02*
X29142856Y-44093604D01*
X29142856Y-44093604D02*
X29266666Y-44031700D01*
X29266666Y-44031700D02*
X29328570Y-43907890D01*
X29328570Y-43907890D02*
X29328570Y-43784080D01*
X29328570Y-43784080D02*
X29266666Y-43660271D01*
X29266666Y-43660271D02*
X29142856Y-43598366D01*
X29142856Y-43598366D02*
X28833332Y-43598366D01*
X28833332Y-43598366D02*
X28709523Y-43536461D01*
X28090476Y-44093604D02*
X28090476Y-42793604D01*
X28090476Y-43288842D02*
X27966666Y-43226938D01*
X27966666Y-43226938D02*
X27719047Y-43226938D01*
X27719047Y-43226938D02*
X27595238Y-43288842D01*
X27595238Y-43288842D02*
X27533333Y-43350747D01*
X27533333Y-43350747D02*
X27471428Y-43474557D01*
X27471428Y-43474557D02*
X27471428Y-43845985D01*
X27471428Y-43845985D02*
X27533333Y-43969795D01*
X27533333Y-43969795D02*
X27595238Y-44031700D01*
X27595238Y-44031700D02*
X27719047Y-44093604D01*
X27719047Y-44093604D02*
X27966666Y-44093604D01*
X27966666Y-44093604D02*
X28090476Y-44031700D01*
X26976190Y-44031700D02*
X26852381Y-44093604D01*
X26852381Y-44093604D02*
X26604762Y-44093604D01*
X26604762Y-44093604D02*
X26480952Y-44031700D01*
X26480952Y-44031700D02*
X26419048Y-43907890D01*
X26419048Y-43907890D02*
X26419048Y-43845985D01*
X26419048Y-43845985D02*
X26480952Y-43722176D01*
X26480952Y-43722176D02*
X26604762Y-43660271D01*
X26604762Y-43660271D02*
X26790476Y-43660271D01*
X26790476Y-43660271D02*
X26914286Y-43598366D01*
X26914286Y-43598366D02*
X26976190Y-43474557D01*
X26976190Y-43474557D02*
X26976190Y-43412652D01*
X26976190Y-43412652D02*
X26914286Y-43288842D01*
X26914286Y-43288842D02*
X26790476Y-43226938D01*
X26790476Y-43226938D02*
X26604762Y-43226938D01*
X26604762Y-43226938D02*
X26480952Y-43288842D01*
D11*
X31971428Y-40414838D02*
X31495238Y-42414838D01*
X31495238Y-42414838D02*
X31114285Y-40986266D01*
X31114285Y-40986266D02*
X30733333Y-42414838D01*
X30733333Y-42414838D02*
X30257143Y-40414838D01*
X28638095Y-42414838D02*
X28638095Y-41367219D01*
X28638095Y-41367219D02*
X28733333Y-41176742D01*
X28733333Y-41176742D02*
X28923809Y-41081504D01*
X28923809Y-41081504D02*
X29304762Y-41081504D01*
X29304762Y-41081504D02*
X29495238Y-41176742D01*
X28638095Y-42319600D02*
X28828571Y-42414838D01*
X28828571Y-42414838D02*
X29304762Y-42414838D01*
X29304762Y-42414838D02*
X29495238Y-42319600D01*
X29495238Y-42319600D02*
X29590476Y-42129123D01*
X29590476Y-42129123D02*
X29590476Y-41938647D01*
X29590476Y-41938647D02*
X29495238Y-41748171D01*
X29495238Y-41748171D02*
X29304762Y-41652933D01*
X29304762Y-41652933D02*
X28828571Y-41652933D01*
X28828571Y-41652933D02*
X28638095Y-41557695D01*
X27685714Y-42414838D02*
X27685714Y-40414838D01*
X27685714Y-41176742D02*
X27495238Y-41081504D01*
X27495238Y-41081504D02*
X27114285Y-41081504D01*
X27114285Y-41081504D02*
X26923809Y-41176742D01*
X26923809Y-41176742D02*
X26828571Y-41271980D01*
X26828571Y-41271980D02*
X26733333Y-41462457D01*
X26733333Y-41462457D02*
X26733333Y-42033885D01*
X26733333Y-42033885D02*
X26828571Y-42224361D01*
X26828571Y-42224361D02*
X26923809Y-42319600D01*
X26923809Y-42319600D02*
X27114285Y-42414838D01*
X27114285Y-42414838D02*
X27495238Y-42414838D01*
X27495238Y-42414838D02*
X27685714Y-42319600D01*
X25590476Y-42414838D02*
X25780952Y-42319600D01*
X25780952Y-42319600D02*
X25876190Y-42224361D01*
X25876190Y-42224361D02*
X25971428Y-42033885D01*
X25971428Y-42033885D02*
X25971428Y-41462457D01*
X25971428Y-41462457D02*
X25876190Y-41271980D01*
X25876190Y-41271980D02*
X25780952Y-41176742D01*
X25780952Y-41176742D02*
X25590476Y-41081504D01*
X25590476Y-41081504D02*
X25304761Y-41081504D01*
X25304761Y-41081504D02*
X25114285Y-41176742D01*
X25114285Y-41176742D02*
X25019047Y-41271980D01*
X25019047Y-41271980D02*
X24923809Y-41462457D01*
X24923809Y-41462457D02*
X24923809Y-42033885D01*
X24923809Y-42033885D02*
X25019047Y-42224361D01*
X25019047Y-42224361D02*
X25114285Y-42319600D01*
X25114285Y-42319600D02*
X25304761Y-42414838D01*
X25304761Y-42414838D02*
X25590476Y-42414838D01*
D10*
X46642857Y-49024819D02*
X46976190Y-48548628D01*
X47214285Y-49024819D02*
X47214285Y-48024819D01*
X47214285Y-48024819D02*
X46833333Y-48024819D01*
X46833333Y-48024819D02*
X46738095Y-48072438D01*
X46738095Y-48072438D02*
X46690476Y-48120057D01*
X46690476Y-48120057D02*
X46642857Y-48215295D01*
X46642857Y-48215295D02*
X46642857Y-48358152D01*
X46642857Y-48358152D02*
X46690476Y-48453390D01*
X46690476Y-48453390D02*
X46738095Y-48501009D01*
X46738095Y-48501009D02*
X46833333Y-48548628D01*
X46833333Y-48548628D02*
X47214285Y-48548628D01*
X45690476Y-49024819D02*
X46261904Y-49024819D01*
X45976190Y-49024819D02*
X45976190Y-48024819D01*
X45976190Y-48024819D02*
X46071428Y-48167676D01*
X46071428Y-48167676D02*
X46166666Y-48262914D01*
X46166666Y-48262914D02*
X46261904Y-48310533D01*
X45071428Y-48024819D02*
X44976190Y-48024819D01*
X44976190Y-48024819D02*
X44880952Y-48072438D01*
X44880952Y-48072438D02*
X44833333Y-48120057D01*
X44833333Y-48120057D02*
X44785714Y-48215295D01*
X44785714Y-48215295D02*
X44738095Y-48405771D01*
X44738095Y-48405771D02*
X44738095Y-48643866D01*
X44738095Y-48643866D02*
X44785714Y-48834342D01*
X44785714Y-48834342D02*
X44833333Y-48929580D01*
X44833333Y-48929580D02*
X44880952Y-48977200D01*
X44880952Y-48977200D02*
X44976190Y-49024819D01*
X44976190Y-49024819D02*
X45071428Y-49024819D01*
X45071428Y-49024819D02*
X45166666Y-48977200D01*
X45166666Y-48977200D02*
X45214285Y-48929580D01*
X45214285Y-48929580D02*
X45261904Y-48834342D01*
X45261904Y-48834342D02*
X45309523Y-48643866D01*
X45309523Y-48643866D02*
X45309523Y-48405771D01*
X45309523Y-48405771D02*
X45261904Y-48215295D01*
X45261904Y-48215295D02*
X45214285Y-48120057D01*
X45214285Y-48120057D02*
X45166666Y-48072438D01*
X45166666Y-48072438D02*
X45071428Y-48024819D01*
X46190476Y-11074819D02*
X46190476Y-11789104D01*
X46190476Y-11789104D02*
X46238095Y-11931961D01*
X46238095Y-11931961D02*
X46333333Y-12027200D01*
X46333333Y-12027200D02*
X46476190Y-12074819D01*
X46476190Y-12074819D02*
X46571428Y-12074819D01*
X45952381Y-12170057D02*
X45190476Y-12170057D01*
X44428571Y-11122438D02*
X44523809Y-11074819D01*
X44523809Y-11074819D02*
X44666666Y-11074819D01*
X44666666Y-11074819D02*
X44809523Y-11122438D01*
X44809523Y-11122438D02*
X44904761Y-11217676D01*
X44904761Y-11217676D02*
X44952380Y-11312914D01*
X44952380Y-11312914D02*
X44999999Y-11503390D01*
X44999999Y-11503390D02*
X44999999Y-11646247D01*
X44999999Y-11646247D02*
X44952380Y-11836723D01*
X44952380Y-11836723D02*
X44904761Y-11931961D01*
X44904761Y-11931961D02*
X44809523Y-12027200D01*
X44809523Y-12027200D02*
X44666666Y-12074819D01*
X44666666Y-12074819D02*
X44571428Y-12074819D01*
X44571428Y-12074819D02*
X44428571Y-12027200D01*
X44428571Y-12027200D02*
X44380952Y-11979580D01*
X44380952Y-11979580D02*
X44380952Y-11646247D01*
X44380952Y-11646247D02*
X44571428Y-11646247D01*
X43952380Y-12074819D02*
X43952380Y-11074819D01*
X43952380Y-11074819D02*
X43571428Y-11074819D01*
X43571428Y-11074819D02*
X43476190Y-11122438D01*
X43476190Y-11122438D02*
X43428571Y-11170057D01*
X43428571Y-11170057D02*
X43380952Y-11265295D01*
X43380952Y-11265295D02*
X43380952Y-11408152D01*
X43380952Y-11408152D02*
X43428571Y-11503390D01*
X43428571Y-11503390D02*
X43476190Y-11551009D01*
X43476190Y-11551009D02*
X43571428Y-11598628D01*
X43571428Y-11598628D02*
X43952380Y-11598628D01*
X42999999Y-12027200D02*
X42857142Y-12074819D01*
X42857142Y-12074819D02*
X42619047Y-12074819D01*
X42619047Y-12074819D02*
X42523809Y-12027200D01*
X42523809Y-12027200D02*
X42476190Y-11979580D01*
X42476190Y-11979580D02*
X42428571Y-11884342D01*
X42428571Y-11884342D02*
X42428571Y-11789104D01*
X42428571Y-11789104D02*
X42476190Y-11693866D01*
X42476190Y-11693866D02*
X42523809Y-11646247D01*
X42523809Y-11646247D02*
X42619047Y-11598628D01*
X42619047Y-11598628D02*
X42809523Y-11551009D01*
X42809523Y-11551009D02*
X42904761Y-11503390D01*
X42904761Y-11503390D02*
X42952380Y-11455771D01*
X42952380Y-11455771D02*
X42999999Y-11360533D01*
X42999999Y-11360533D02*
X42999999Y-11265295D01*
X42999999Y-11265295D02*
X42952380Y-11170057D01*
X42952380Y-11170057D02*
X42904761Y-11122438D01*
X42904761Y-11122438D02*
X42809523Y-11074819D01*
X42809523Y-11074819D02*
X42571428Y-11074819D01*
X42571428Y-11074819D02*
X42428571Y-11122438D01*
X41476190Y-12074819D02*
X42047618Y-12074819D01*
X41761904Y-12074819D02*
X41761904Y-11074819D01*
X41761904Y-11074819D02*
X41857142Y-11217676D01*
X41857142Y-11217676D02*
X41952380Y-11312914D01*
X41952380Y-11312914D02*
X42047618Y-11360533D01*
X44095238Y-27074819D02*
X44095238Y-27789104D01*
X44095238Y-27789104D02*
X44142857Y-27931961D01*
X44142857Y-27931961D02*
X44238095Y-28027200D01*
X44238095Y-28027200D02*
X44380952Y-28074819D01*
X44380952Y-28074819D02*
X44476190Y-28074819D01*
X43857143Y-28170057D02*
X43095238Y-28170057D01*
X42285714Y-28074819D02*
X42619047Y-27598628D01*
X42857142Y-28074819D02*
X42857142Y-27074819D01*
X42857142Y-27074819D02*
X42476190Y-27074819D01*
X42476190Y-27074819D02*
X42380952Y-27122438D01*
X42380952Y-27122438D02*
X42333333Y-27170057D01*
X42333333Y-27170057D02*
X42285714Y-27265295D01*
X42285714Y-27265295D02*
X42285714Y-27408152D01*
X42285714Y-27408152D02*
X42333333Y-27503390D01*
X42333333Y-27503390D02*
X42380952Y-27551009D01*
X42380952Y-27551009D02*
X42476190Y-27598628D01*
X42476190Y-27598628D02*
X42857142Y-27598628D01*
X41999999Y-27074819D02*
X41428571Y-27074819D01*
X41714285Y-28074819D02*
X41714285Y-27074819D01*
X40523809Y-27979580D02*
X40571428Y-28027200D01*
X40571428Y-28027200D02*
X40714285Y-28074819D01*
X40714285Y-28074819D02*
X40809523Y-28074819D01*
X40809523Y-28074819D02*
X40952380Y-28027200D01*
X40952380Y-28027200D02*
X41047618Y-27931961D01*
X41047618Y-27931961D02*
X41095237Y-27836723D01*
X41095237Y-27836723D02*
X41142856Y-27646247D01*
X41142856Y-27646247D02*
X41142856Y-27503390D01*
X41142856Y-27503390D02*
X41095237Y-27312914D01*
X41095237Y-27312914D02*
X41047618Y-27217676D01*
X41047618Y-27217676D02*
X40952380Y-27122438D01*
X40952380Y-27122438D02*
X40809523Y-27074819D01*
X40809523Y-27074819D02*
X40714285Y-27074819D01*
X40714285Y-27074819D02*
X40571428Y-27122438D01*
X40571428Y-27122438D02*
X40523809Y-27170057D01*
X39571428Y-28074819D02*
X40142856Y-28074819D01*
X39857142Y-28074819D02*
X39857142Y-27074819D01*
X39857142Y-27074819D02*
X39952380Y-27217676D01*
X39952380Y-27217676D02*
X40047618Y-27312914D01*
X40047618Y-27312914D02*
X40142856Y-27360533D01*
X44642857Y-7024819D02*
X44976190Y-6548628D01*
X45214285Y-7024819D02*
X45214285Y-6024819D01*
X45214285Y-6024819D02*
X44833333Y-6024819D01*
X44833333Y-6024819D02*
X44738095Y-6072438D01*
X44738095Y-6072438D02*
X44690476Y-6120057D01*
X44690476Y-6120057D02*
X44642857Y-6215295D01*
X44642857Y-6215295D02*
X44642857Y-6358152D01*
X44642857Y-6358152D02*
X44690476Y-6453390D01*
X44690476Y-6453390D02*
X44738095Y-6501009D01*
X44738095Y-6501009D02*
X44833333Y-6548628D01*
X44833333Y-6548628D02*
X45214285Y-6548628D01*
X43690476Y-7024819D02*
X44261904Y-7024819D01*
X43976190Y-7024819D02*
X43976190Y-6024819D01*
X43976190Y-6024819D02*
X44071428Y-6167676D01*
X44071428Y-6167676D02*
X44166666Y-6262914D01*
X44166666Y-6262914D02*
X44261904Y-6310533D01*
X43357142Y-6024819D02*
X42738095Y-6024819D01*
X42738095Y-6024819D02*
X43071428Y-6405771D01*
X43071428Y-6405771D02*
X42928571Y-6405771D01*
X42928571Y-6405771D02*
X42833333Y-6453390D01*
X42833333Y-6453390D02*
X42785714Y-6501009D01*
X42785714Y-6501009D02*
X42738095Y-6596247D01*
X42738095Y-6596247D02*
X42738095Y-6834342D01*
X42738095Y-6834342D02*
X42785714Y-6929580D01*
X42785714Y-6929580D02*
X42833333Y-6977200D01*
X42833333Y-6977200D02*
X42928571Y-7024819D01*
X42928571Y-7024819D02*
X43214285Y-7024819D01*
X43214285Y-7024819D02*
X43309523Y-6977200D01*
X43309523Y-6977200D02*
X43357142Y-6929580D01*
X10761904Y-24554819D02*
X10761904Y-25364342D01*
X10761904Y-25364342D02*
X10714285Y-25459580D01*
X10714285Y-25459580D02*
X10666666Y-25507200D01*
X10666666Y-25507200D02*
X10571428Y-25554819D01*
X10571428Y-25554819D02*
X10380952Y-25554819D01*
X10380952Y-25554819D02*
X10285714Y-25507200D01*
X10285714Y-25507200D02*
X10238095Y-25459580D01*
X10238095Y-25459580D02*
X10190476Y-25364342D01*
X10190476Y-25364342D02*
X10190476Y-24554819D01*
X9809523Y-24554819D02*
X9190476Y-24554819D01*
X9190476Y-24554819D02*
X9523809Y-24935771D01*
X9523809Y-24935771D02*
X9380952Y-24935771D01*
X9380952Y-24935771D02*
X9285714Y-24983390D01*
X9285714Y-24983390D02*
X9238095Y-25031009D01*
X9238095Y-25031009D02*
X9190476Y-25126247D01*
X9190476Y-25126247D02*
X9190476Y-25364342D01*
X9190476Y-25364342D02*
X9238095Y-25459580D01*
X9238095Y-25459580D02*
X9285714Y-25507200D01*
X9285714Y-25507200D02*
X9380952Y-25554819D01*
X9380952Y-25554819D02*
X9666666Y-25554819D01*
X9666666Y-25554819D02*
X9761904Y-25507200D01*
X9761904Y-25507200D02*
X9809523Y-25459580D01*
X20166666Y-40679580D02*
X20214285Y-40727200D01*
X20214285Y-40727200D02*
X20357142Y-40774819D01*
X20357142Y-40774819D02*
X20452380Y-40774819D01*
X20452380Y-40774819D02*
X20595237Y-40727200D01*
X20595237Y-40727200D02*
X20690475Y-40631961D01*
X20690475Y-40631961D02*
X20738094Y-40536723D01*
X20738094Y-40536723D02*
X20785713Y-40346247D01*
X20785713Y-40346247D02*
X20785713Y-40203390D01*
X20785713Y-40203390D02*
X20738094Y-40012914D01*
X20738094Y-40012914D02*
X20690475Y-39917676D01*
X20690475Y-39917676D02*
X20595237Y-39822438D01*
X20595237Y-39822438D02*
X20452380Y-39774819D01*
X20452380Y-39774819D02*
X20357142Y-39774819D01*
X20357142Y-39774819D02*
X20214285Y-39822438D01*
X20214285Y-39822438D02*
X20166666Y-39870057D01*
X19261904Y-39774819D02*
X19738094Y-39774819D01*
X19738094Y-39774819D02*
X19785713Y-40251009D01*
X19785713Y-40251009D02*
X19738094Y-40203390D01*
X19738094Y-40203390D02*
X19642856Y-40155771D01*
X19642856Y-40155771D02*
X19404761Y-40155771D01*
X19404761Y-40155771D02*
X19309523Y-40203390D01*
X19309523Y-40203390D02*
X19261904Y-40251009D01*
X19261904Y-40251009D02*
X19214285Y-40346247D01*
X19214285Y-40346247D02*
X19214285Y-40584342D01*
X19214285Y-40584342D02*
X19261904Y-40679580D01*
X19261904Y-40679580D02*
X19309523Y-40727200D01*
X19309523Y-40727200D02*
X19404761Y-40774819D01*
X19404761Y-40774819D02*
X19642856Y-40774819D01*
X19642856Y-40774819D02*
X19738094Y-40727200D01*
X19738094Y-40727200D02*
X19785713Y-40679580D01*
D12*
%TO.C,U1*%
X35620000Y-29430000D02*
X20380000Y-29430000D01*
X37890000Y-6570000D02*
X18110000Y-6570000D01*
X18110000Y-29430000D01*
X37890000Y-29430000D01*
X37890000Y-6570000D01*
D13*
X37340000Y-28160000D02*
G75*
G02*
X36440000Y-28160000I-450000J0D01*
G01*
X36440000Y-28160000D02*
G75*
G02*
X37340000Y-28160000I450000J0D01*
G01*
D12*
%TO.C,J_MOTOR_PWR1*%
X48490000Y-18940000D02*
X54460000Y-18940000D01*
X48490000Y-26560000D02*
X48490000Y-18940000D01*
X49250000Y-19700000D02*
X49250000Y-22750000D01*
X49250000Y-25800000D02*
X49250000Y-22750000D01*
X52200000Y-18950000D02*
X52200000Y-19700000D01*
X52200000Y-19700000D02*
X49250000Y-19700000D01*
X52200000Y-25800000D02*
X49250000Y-25800000D01*
X52200000Y-26550000D02*
X52200000Y-25800000D01*
X53700000Y-18950000D02*
X54450000Y-18950000D01*
X53700000Y-20750000D02*
X53700000Y-18950000D01*
X53700000Y-22250000D02*
X54450000Y-22250000D01*
X53700000Y-23250000D02*
X53700000Y-22250000D01*
X53700000Y-24750000D02*
X54450000Y-24750000D01*
X53700000Y-26550000D02*
X53700000Y-24750000D01*
X54450000Y-18950000D02*
X54450000Y-20750000D01*
X54450000Y-20750000D02*
X53700000Y-20750000D01*
X54450000Y-22250000D02*
X54450000Y-23250000D01*
X54450000Y-23250000D02*
X53700000Y-23250000D01*
X54450000Y-24750000D02*
X54450000Y-26550000D01*
X54450000Y-26550000D02*
X53700000Y-26550000D01*
X54460000Y-18940000D02*
X54460000Y-26560000D01*
X54460000Y-26560000D02*
X48490000Y-26560000D01*
X54750000Y-25600000D02*
X54750000Y-26850000D01*
X54750000Y-26850000D02*
X53500000Y-26850000D01*
%TO.C,R6*%
X42237258Y-48477500D02*
X41762742Y-48477500D01*
X42237258Y-49522500D02*
X41762742Y-49522500D01*
%TO.C,D1*%
X7180000Y-18500000D02*
X8200000Y-18500000D01*
X12620000Y-17030000D02*
X12620000Y-19970000D01*
X12740000Y-17030000D02*
X12740000Y-19970000D01*
X12860000Y-17030000D02*
X12860000Y-19970000D01*
X14660000Y-18500000D02*
X13640000Y-18500000D01*
X13640000Y-17030000D02*
X8200000Y-17030000D01*
X8200000Y-19970000D01*
X13640000Y-19970000D01*
X13640000Y-17030000D01*
%TO.C,U4*%
X14250000Y-34615000D02*
X11750000Y-34615000D01*
X14250000Y-37385000D02*
X11750000Y-37385000D01*
X15280000Y-34700000D02*
X14800000Y-34700000D01*
X14800000Y-34220000D01*
X15280000Y-34700000D01*
G36*
X15280000Y-34700000D02*
G01*
X14800000Y-34700000D01*
X14800000Y-34220000D01*
X15280000Y-34700000D01*
G37*
%TO.C,LED_CHG1*%
X7200000Y-21265000D02*
X9485000Y-21265000D01*
X9485000Y-21265000D02*
X9485000Y-22735000D01*
X9485000Y-22735000D02*
X7200000Y-22735000D01*
%TO.C,R_CC2*%
X34237258Y-2977500D02*
X33762742Y-2977500D01*
X34237258Y-4022500D02*
X33762742Y-4022500D01*
%TO.C,J_MOTOR_CTRL1*%
X48490000Y-8940000D02*
X54460000Y-8940000D01*
X48490000Y-16560000D02*
X48490000Y-8940000D01*
X49250000Y-9700000D02*
X49250000Y-12750000D01*
X49250000Y-15800000D02*
X49250000Y-12750000D01*
X52200000Y-8950000D02*
X52200000Y-9700000D01*
X52200000Y-9700000D02*
X49250000Y-9700000D01*
X52200000Y-15800000D02*
X49250000Y-15800000D01*
X52200000Y-16550000D02*
X52200000Y-15800000D01*
X53700000Y-8950000D02*
X54450000Y-8950000D01*
X53700000Y-10750000D02*
X53700000Y-8950000D01*
X53700000Y-12250000D02*
X54450000Y-12250000D01*
X53700000Y-13250000D02*
X53700000Y-12250000D01*
X53700000Y-14750000D02*
X54450000Y-14750000D01*
X53700000Y-16550000D02*
X53700000Y-14750000D01*
X54450000Y-8950000D02*
X54450000Y-10750000D01*
X54450000Y-10750000D02*
X53700000Y-10750000D01*
X54450000Y-12250000D02*
X54450000Y-13250000D01*
X54450000Y-13250000D02*
X53700000Y-13250000D01*
X54450000Y-14750000D02*
X54450000Y-16550000D01*
X54450000Y-16550000D02*
X53700000Y-16550000D01*
X54460000Y-8940000D02*
X54460000Y-16560000D01*
X54460000Y-16560000D02*
X48490000Y-16560000D01*
X54750000Y-15600000D02*
X54750000Y-16850000D01*
X54750000Y-16850000D02*
X53500000Y-16850000D01*
%TO.C,C2*%
X40261252Y-25265000D02*
X39738748Y-25265000D01*
X40261252Y-26735000D02*
X39738748Y-26735000D01*
%TO.C,L1*%
X6399622Y-35440000D02*
X5600378Y-35440000D01*
X6399622Y-36560000D02*
X5600378Y-36560000D01*
%TO.C,J1*%
X48490000Y-28940000D02*
X54460000Y-28940000D01*
X48490000Y-36560000D02*
X48490000Y-28940000D01*
X49250000Y-29700000D02*
X49250000Y-32750000D01*
X49250000Y-35800000D02*
X49250000Y-32750000D01*
X52200000Y-28950000D02*
X52200000Y-29700000D01*
X52200000Y-29700000D02*
X49250000Y-29700000D01*
X52200000Y-35800000D02*
X49250000Y-35800000D01*
X52200000Y-36550000D02*
X52200000Y-35800000D01*
X53700000Y-28950000D02*
X54450000Y-28950000D01*
X53700000Y-30750000D02*
X53700000Y-28950000D01*
X53700000Y-32250000D02*
X54450000Y-32250000D01*
X53700000Y-33250000D02*
X53700000Y-32250000D01*
X53700000Y-34750000D02*
X54450000Y-34750000D01*
X53700000Y-36550000D02*
X53700000Y-34750000D01*
X54450000Y-28950000D02*
X54450000Y-30750000D01*
X54450000Y-30750000D02*
X53700000Y-30750000D01*
X54450000Y-32250000D02*
X54450000Y-33250000D01*
X54450000Y-33250000D02*
X53700000Y-33250000D01*
X54450000Y-34750000D02*
X54450000Y-36550000D01*
X54450000Y-36550000D02*
X53700000Y-36550000D01*
X54460000Y-28940000D02*
X54460000Y-36560000D01*
X54460000Y-36560000D02*
X48490000Y-36560000D01*
X54750000Y-35600000D02*
X54750000Y-36850000D01*
X54750000Y-36850000D02*
X53500000Y-36850000D01*
%TO.C,C4*%
X12261252Y-41265000D02*
X11738748Y-41265000D01*
X12261252Y-42735000D02*
X11738748Y-42735000D01*
%TO.C,U6*%
X41000000Y-42440000D02*
X39050000Y-42440000D01*
X41000000Y-42440000D02*
X42950000Y-42440000D01*
X41000000Y-47560000D02*
X39050000Y-47560000D01*
X41000000Y-47560000D02*
X42950000Y-47560000D01*
X43700000Y-42535000D02*
X43460000Y-42205000D01*
X43940000Y-42205000D01*
X43700000Y-42535000D01*
G36*
X43700000Y-42535000D02*
G01*
X43460000Y-42205000D01*
X43940000Y-42205000D01*
X43700000Y-42535000D01*
G37*
%TO.C,R3*%
X11237258Y-45477500D02*
X10762742Y-45477500D01*
X11237258Y-46522500D02*
X10762742Y-46522500D01*
%TO.C,F1*%
X8386252Y-11290000D02*
X5613748Y-11290000D01*
X8386252Y-14710000D02*
X5613748Y-14710000D01*
%TO.C,C1*%
X40140580Y-22490000D02*
X39859420Y-22490000D01*
X40140580Y-23510000D02*
X39859420Y-23510000D01*
%TO.C,R2_C1*%
X16237258Y-21477500D02*
X15762742Y-21477500D01*
X16237258Y-22522500D02*
X15762742Y-22522500D01*
%TO.C,J4*%
X51620000Y-40270000D02*
X51620000Y-48000000D01*
X54380000Y-37620000D02*
X53000000Y-37620000D01*
X54380000Y-39000000D02*
X54380000Y-37620000D01*
X54380000Y-40270000D02*
X51620000Y-40270000D01*
X54380000Y-40270000D02*
X54380000Y-48000000D01*
X54380000Y-48000000D02*
X51620000Y-48000000D01*
%TO.C,U8*%
X18900000Y-33390000D02*
X18100000Y-33390000D01*
X18900000Y-33390000D02*
X19700000Y-33390000D01*
X19900000Y-36610000D02*
X18100000Y-36610000D01*
X20200000Y-33440000D02*
X19960000Y-33110000D01*
X20440000Y-33110000D01*
X20200000Y-33440000D01*
G36*
X20200000Y-33440000D02*
G01*
X19960000Y-33110000D01*
X20440000Y-33110000D01*
X20200000Y-33440000D01*
G37*
%TO.C,C6*%
X46140580Y-39490000D02*
X45859420Y-39490000D01*
X46140580Y-40510000D02*
X45859420Y-40510000D01*
%TO.C,R4*%
X11237258Y-49477500D02*
X10762742Y-49477500D01*
X11237258Y-50522500D02*
X10762742Y-50522500D01*
D10*
%TO.C,WABO_LOGO1*%
X30600000Y-32700000D02*
X30600000Y-39300000D01*
X32600000Y-32700000D02*
X28800000Y-32700000D01*
X32600000Y-36000000D02*
X28800000Y-36000000D01*
X32600000Y-39300000D02*
X28800000Y-39300000D01*
X28800000Y-36000000D02*
G75*
G02*
X28800000Y-32700000I397115J1650000D01*
G01*
X28800000Y-39300000D02*
G75*
G02*
X28800000Y-36000000I397115J1650000D01*
G01*
D12*
%TO.C,R10*%
X46237258Y-49477500D02*
X45762742Y-49477500D01*
X46237258Y-50522500D02*
X45762742Y-50522500D01*
%TO.C,C3*%
X35140580Y-32490000D02*
X34859420Y-32490000D01*
X35140580Y-33510000D02*
X34859420Y-33510000D01*
%TO.C,J_GPS1*%
X42620000Y-15270000D02*
X42620000Y-23000000D01*
X45380000Y-12620000D02*
X44000000Y-12620000D01*
X45380000Y-14000000D02*
X45380000Y-12620000D01*
X45380000Y-15270000D02*
X42620000Y-15270000D01*
X45380000Y-15270000D02*
X45380000Y-23000000D01*
X45380000Y-23000000D02*
X42620000Y-23000000D01*
%TO.C,R_CC1*%
X28237258Y-2977500D02*
X27762742Y-2977500D01*
X28237258Y-4022500D02*
X27762742Y-4022500D01*
%TO.C,J_RTC1*%
X40620000Y-31270000D02*
X40620000Y-39000000D01*
X43380000Y-28620000D02*
X42000000Y-28620000D01*
X43380000Y-30000000D02*
X43380000Y-28620000D01*
X43380000Y-31270000D02*
X40620000Y-31270000D01*
X43380000Y-31270000D02*
X43380000Y-39000000D01*
X43380000Y-39000000D02*
X40620000Y-39000000D01*
%TO.C,U2*%
X14000000Y-11440000D02*
X12050000Y-11440000D01*
X14000000Y-11440000D02*
X15950000Y-11440000D01*
X14000000Y-16560000D02*
X12050000Y-16560000D01*
X14000000Y-16560000D02*
X15950000Y-16560000D01*
X16700000Y-11535000D02*
X16460000Y-11205000D01*
X16940000Y-11205000D01*
X16700000Y-11535000D01*
G36*
X16700000Y-11535000D02*
G01*
X16460000Y-11205000D01*
X16940000Y-11205000D01*
X16700000Y-11535000D01*
G37*
%TO.C,R13*%
X44237258Y-7477500D02*
X43762742Y-7477500D01*
X44237258Y-8522500D02*
X43762742Y-8522500D01*
%TO.C,U3*%
X9900000Y-26390000D02*
X9100000Y-26390000D01*
X9900000Y-26390000D02*
X10700000Y-26390000D01*
X10900000Y-29610000D02*
X9100000Y-29610000D01*
X11200000Y-26440000D02*
X10960000Y-26110000D01*
X11440000Y-26110000D01*
X11200000Y-26440000D01*
G36*
X11200000Y-26440000D02*
G01*
X10960000Y-26110000D01*
X11440000Y-26110000D01*
X11200000Y-26440000D01*
G37*
%TO.C,C5*%
X20261252Y-41265000D02*
X19738748Y-41265000D01*
X20261252Y-42735000D02*
X19738748Y-42735000D01*
%TO.C,R5*%
X48237258Y-45477500D02*
X47762742Y-45477500D01*
X48237258Y-46522500D02*
X47762742Y-46522500D01*
%TD*%
M02*
