M48
; DRILL file {KiCad 9.0.2+dfsg-1} date 2026-06-03T13:13:36-0400
; FORMAT={-:-/ absolute / metric / decimal}
; #@! TF.CreationDate,2026-06-03T13:13:36-04:00
; #@! TF.GenerationSoftware,Kicad,Pcbnew,9.0.2+dfsg-1
; #@! TF.FileFunction,MixedPlating,1,2
FMAT,2
METRIC
; #@! TA.AperFunction,Plated,PTH,ViaDrill
T1C0.300
; #@! TA.AperFunction,Plated,PTH,ComponentDrill
T2C0.600
; #@! TA.AperFunction,Plated,PTH,ComponentDrill
T3C0.800
; #@! TA.AperFunction,Plated,PTH,ComponentDrill
T4C1.000
; #@! TA.AperFunction,Plated,PTH,ComponentDrill
T5C1.100
; #@! TA.AperFunction,NonPlated,NPTH,ComponentDrill
T6C0.650
; #@! TA.AperFunction,NonPlated,NPTH,ComponentDrill
T7C2.100
%
G90
G05
T1
X3.853Y-24.147
X9.126Y-15.843
X14.241Y-30.456
X14.242Y-40.464
X19.868Y-32.474
X21.522Y-35.824
X27.092Y-43.8
X28.043Y-6.048
X28.915Y-45.394
X31.091Y-5.2
X31.893Y-40.464
X32.046Y-46.136
X32.262Y-31.922
X33.281Y-28.852
X36.079Y-43.8
X36.732Y-45.394
X38.475Y-30.552
X39.101Y-11.806
X39.702Y-29.414
X40.07Y-37.413
X40.388Y-46.136
X40.426Y-38.436
X48.705Y-9.883
T3
X19.11Y-7.84
X19.11Y-10.38
X19.11Y-12.92
X19.11Y-15.46
X19.11Y-18.0
X19.11Y-20.54
X19.11Y-23.08
X19.11Y-25.62
X19.11Y-28.16
X20.38Y-13.0
X20.38Y-30.7
X22.92Y-13.0
X22.92Y-30.7
X25.46Y-13.0
X25.46Y-30.7
X28.0Y-13.0
X28.0Y-30.7
X30.54Y-13.0
X30.54Y-30.7
X33.08Y-13.0
X33.08Y-30.7
X35.62Y-13.0
X35.62Y-30.7
X36.89Y-7.84
X36.89Y-10.38
X36.89Y-12.92
X36.89Y-15.46
X36.89Y-18.0
X36.89Y-20.54
X36.89Y-23.08
X36.89Y-25.62
X36.89Y-28.16
T4
X52.0Y-13.5
X52.0Y-16.0
X52.0Y-27.5
X52.0Y-30.0
X53.0Y-37.0
X53.0Y-39.54
X53.0Y-42.08
X53.0Y-44.62
T5
X-2.16Y-18.0
X8.0Y-18.0
T6
X27.11Y-48.9
X32.89Y-48.9
T7
X7.0Y-6.0
X7.0Y-43.0
X48.0Y-6.0
X48.0Y-43.0
T2
X25.68Y-48.92G85X25.68Y-47.82
G05
X25.68Y-52.85G85X25.68Y-52.25
G05
X34.32Y-48.92G85X34.32Y-47.82
G05
X34.32Y-52.85G85X34.32Y-52.25
G05
M30
