%TF.GenerationSoftware,KiCad,Pcbnew,9.0.2+dfsg-1*%
%TF.CreationDate,2026-07-13T22:48:07-04:00*%
%TF.ProjectId,autofeeder,6175746f-6665-4656-9465-722e6b696361,rev?*%
%TF.SameCoordinates,Original*%
%TF.FileFunction,Copper,L4,Bot*%
%TF.FilePolarity,Positive*%
%FSLAX46Y46*%
G04 Gerber Fmt 4.6, Leading zero omitted, Abs format (unit mm)*
G04 Created by KiCad (PCBNEW 9.0.2+dfsg-1) date 2026-07-13 22:48:07*
%MOMM*%
%LPD*%
G01*
G04 APERTURE LIST*
G04 Aperture macros list*
%AMRoundRect*
0 Rectangle with rounded corners*
0 $1 Rounding radius*
0 $2 $3 $4 $5 $6 $7 $8 $9 X,Y pos of 4 corners*
0 Add a 4 corners polygon primitive as box body*
4,1,4,$2,$3,$4,$5,$6,$7,$8,$9,$2,$3,0*
0 Add four circle primitives for the rounded corners*
1,1,$1+$1,$2,$3*
1,1,$1+$1,$4,$5*
1,1,$1+$1,$6,$7*
1,1,$1+$1,$8,$9*
0 Add four rect primitives between the rounded corners*
20,1,$1+$1,$2,$3,$4,$5,0*
20,1,$1+$1,$4,$5,$6,$7,0*
20,1,$1+$1,$6,$7,$8,$9,0*
20,1,$1+$1,$8,$9,$2,$3,0*%
G04 Aperture macros list end*
%TA.AperFunction,ComponentPad*%
%ADD10C,1.100000*%
%TD*%
%TA.AperFunction,ComponentPad*%
%ADD11R,1.100000X1.100000*%
%TD*%
%TA.AperFunction,ComponentPad*%
%ADD12RoundRect,0.250000X0.750000X-0.600000X0.750000X0.600000X-0.750000X0.600000X-0.750000X-0.600000X0*%
%TD*%
%TA.AperFunction,ComponentPad*%
%ADD13O,2.000000X1.700000*%
%TD*%
%TA.AperFunction,SMDPad,CuDef*%
%ADD14RoundRect,0.218750X0.218750X0.381250X-0.218750X0.381250X-0.218750X-0.381250X0.218750X-0.381250X0*%
%TD*%
%TA.AperFunction,SMDPad,CuDef*%
%ADD15RoundRect,0.200000X0.200000X0.275000X-0.200000X0.275000X-0.200000X-0.275000X0.200000X-0.275000X0*%
%TD*%
%TA.AperFunction,SMDPad,CuDef*%
%ADD16RoundRect,0.162500X0.617500X0.162500X-0.617500X0.162500X-0.617500X-0.162500X0.617500X-0.162500X0*%
%TD*%
%TA.AperFunction,SMDPad,CuDef*%
%ADD17RoundRect,0.250000X0.312500X1.450000X-0.312500X1.450000X-0.312500X-1.450000X0.312500X-1.450000X0*%
%TD*%
%TA.AperFunction,SMDPad,CuDef*%
%ADD18RoundRect,0.250000X0.250000X0.475000X-0.250000X0.475000X-0.250000X-0.475000X0.250000X-0.475000X0*%
%TD*%
%TA.AperFunction,ComponentPad*%
%ADD19R,1.700000X1.700000*%
%TD*%
%TA.AperFunction,ComponentPad*%
%ADD20C,1.700000*%
%TD*%
%TA.AperFunction,SMDPad,CuDef*%
%ADD21RoundRect,0.150000X0.825000X0.150000X-0.825000X0.150000X-0.825000X-0.150000X0.825000X-0.150000X0*%
%TD*%
%TA.AperFunction,SMDPad,CuDef*%
%ADD22RoundRect,0.218750X0.218750X0.256250X-0.218750X0.256250X-0.218750X-0.256250X0.218750X-0.256250X0*%
%TD*%
%TA.AperFunction,ComponentPad*%
%ADD23RoundRect,0.249999X0.850001X0.850001X-0.850001X0.850001X-0.850001X-0.850001X0.850001X-0.850001X0*%
%TD*%
%TA.AperFunction,ComponentPad*%
%ADD24C,2.200000*%
%TD*%
%TA.AperFunction,SMDPad,CuDef*%
%ADD25RoundRect,0.225000X0.225000X0.250000X-0.225000X0.250000X-0.225000X-0.250000X0.225000X-0.250000X0*%
%TD*%
%TA.AperFunction,SMDPad,CuDef*%
%ADD26R,0.600000X1.450000*%
%TD*%
%TA.AperFunction,SMDPad,CuDef*%
%ADD27R,0.300000X1.450000*%
%TD*%
%TA.AperFunction,HeatsinkPad*%
%ADD28O,1.000000X1.600000*%
%TD*%
%TA.AperFunction,HeatsinkPad*%
%ADD29O,1.000000X2.100000*%
%TD*%
%TA.AperFunction,SMDPad,CuDef*%
%ADD30RoundRect,0.062500X0.350000X0.062500X-0.350000X0.062500X-0.350000X-0.062500X0.350000X-0.062500X0*%
%TD*%
%TA.AperFunction,HeatsinkPad*%
%ADD31R,1.200000X2.000000*%
%TD*%
%TA.AperFunction,ComponentPad*%
%ADD32C,1.400000*%
%TD*%
%TA.AperFunction,ViaPad*%
%ADD33C,0.600000*%
%TD*%
%TA.AperFunction,Conductor*%
%ADD34C,0.200000*%
%TD*%
%TA.AperFunction,Conductor*%
%ADD35C,0.300000*%
%TD*%
G04 APERTURE END LIST*
D10*
%TO.P,DISP1,1*%
%TO.N,/VCC_3V3*%
X22920000Y-13000000D03*
D11*
%TO.P,DISP1,2*%
%TO.N,GND*%
X20380000Y-13000000D03*
D10*
%TO.P,DISP1,3*%
%TO.N,/DISP_CS*%
X35620000Y-13000000D03*
%TO.P,DISP1,4*%
%TO.N,/DISP_DC*%
X33080000Y-13000000D03*
%TO.P,DISP1,5*%
%TO.N,/DISP_RST*%
X30540000Y-13000000D03*
%TO.P,DISP1,6*%
%TO.N,/DISP_SCK*%
X25460000Y-13000000D03*
%TO.P,DISP1,7*%
%TO.N,/DISP_MOSI*%
X28000000Y-13000000D03*
%TD*%
D12*
%TO.P,J1,1*%
%TO.N,/BATT_P*%
X52000000Y-34000000D03*
D13*
%TO.P,J1,2*%
%TO.N,/BATT_N*%
X52000000Y-31500000D03*
%TD*%
D12*
%TO.P,J_MOTOR_CTRL1,1*%
%TO.N,/MOTOR_IN1*%
X52000000Y-14000000D03*
D13*
%TO.P,J_MOTOR_CTRL1,2*%
%TO.N,/MOTOR_IN2*%
X52000000Y-11500000D03*
%TD*%
D14*
%TO.P,L1,1*%
%TO.N,/L1_NODE*%
X7062500Y-36000000D03*
%TO.P,L1,2*%
%TO.N,/L2_NODE*%
X4937500Y-36000000D03*
%TD*%
D15*
%TO.P,R3,1*%
%TO.N,/BATT_PROT*%
X11825000Y-46000000D03*
%TO.P,R3,2*%
%TO.N,/BAT_MON*%
X10175000Y-46000000D03*
%TD*%
%TO.P,R_CC1,1*%
%TO.N,/CC1*%
X28825000Y-3500000D03*
%TO.P,R_CC1,2*%
%TO.N,GND*%
X27175000Y-3500000D03*
%TD*%
D16*
%TO.P,U3,1*%
%TO.N,/OD_GATE*%
X11350000Y-27050000D03*
%TO.P,U3,2*%
%TO.N,/BATT_N*%
X11350000Y-28000000D03*
%TO.P,U3,3*%
%TO.N,/OC_GATE*%
X11350000Y-28950000D03*
%TO.P,U3,4*%
%TO.N,unconnected-(U3-TD-Pad4)*%
X8650000Y-28950000D03*
%TO.P,U3,5*%
%TO.N,/BATT_CHG*%
X8650000Y-28000000D03*
%TO.P,U3,6*%
%TO.N,/BATT_N*%
X8650000Y-27050000D03*
%TD*%
D17*
%TO.P,F1,1*%
%TO.N,/BATT_P*%
X9137500Y-13000000D03*
%TO.P,F1,2*%
%TO.N,/BATT_PROT*%
X4862500Y-13000000D03*
%TD*%
D18*
%TO.P,C4,1*%
%TO.N,/BATT_PROT*%
X12950000Y-42000000D03*
%TO.P,C4,2*%
%TO.N,GND*%
X11050000Y-42000000D03*
%TD*%
D16*
%TO.P,U8,1*%
%TO.N,/OD_GATE*%
X20350000Y-34050000D03*
%TO.P,U8,2*%
%TO.N,/BATT_N*%
X20350000Y-35000000D03*
%TO.P,U8,3*%
X20350000Y-35950000D03*
%TO.P,U8,4*%
%TO.N,/OC_GATE*%
X17650000Y-35950000D03*
%TO.P,U8,5*%
%TO.N,GND*%
X17650000Y-35000000D03*
%TO.P,U8,6*%
%TO.N,unconnected-(U8-NC-Pad6)*%
X17650000Y-34050000D03*
%TD*%
D15*
%TO.P,R10,1*%
%TO.N,/CAN_L*%
X46825000Y-50000000D03*
%TO.P,R10,2*%
%TO.N,/CAN_L_PROT*%
X45175000Y-50000000D03*
%TD*%
D19*
%TO.P,J4,1*%
%TO.N,/VCC_3V3*%
X53000000Y-39000000D03*
D20*
%TO.P,J4,2*%
%TO.N,unconnected-(J4-Pin_2-Pad2)*%
X53000000Y-41540000D03*
%TO.P,J4,3*%
%TO.N,unconnected-(J4-Pin_3-Pad3)*%
X53000000Y-44080000D03*
%TO.P,J4,4*%
%TO.N,GND*%
X53000000Y-46620000D03*
%TD*%
D15*
%TO.P,R5,1*%
%TO.N,/CAN_H*%
X48825000Y-46000000D03*
%TO.P,R5,2*%
%TO.N,/CAN_L*%
X47175000Y-46000000D03*
%TD*%
D21*
%TO.P,U2,1*%
%TO.N,/CHRG_L*%
X16475000Y-12095000D03*
%TO.P,U2,2*%
%TO.N,/PROG*%
X16475000Y-13365000D03*
%TO.P,U2,3*%
%TO.N,GND*%
X16475000Y-14635000D03*
%TO.P,U2,4*%
%TO.N,/VBUS*%
X16475000Y-15905000D03*
%TO.P,U2,5*%
%TO.N,/BATT_CHG*%
X11525000Y-15905000D03*
%TO.P,U2,6*%
%TO.N,/TEMP_NC*%
X11525000Y-14635000D03*
%TO.P,U2,7*%
%TO.N,/VBUS*%
X11525000Y-13365000D03*
%TO.P,U2,8*%
%TO.N,/STDBY_L*%
X11525000Y-12095000D03*
%TD*%
D15*
%TO.P,R13,1*%
%TO.N,/VCC_3V3*%
X44825000Y-8000000D03*
%TO.P,R13,2*%
%TO.N,/DISP_RST*%
X43175000Y-8000000D03*
%TD*%
D12*
%TO.P,J_MOTOR_PWR1,1*%
%TO.N,/BATT_PROT*%
X52000000Y-24000000D03*
D13*
%TO.P,J_MOTOR_PWR1,2*%
%TO.N,GND*%
X52000000Y-21500000D03*
%TD*%
D22*
%TO.P,LED_CHG1,1*%
%TO.N,/CHRG_L*%
X8787500Y-22000000D03*
%TO.P,LED_CHG1,2*%
%TO.N,GND*%
X7212500Y-22000000D03*
%TD*%
D23*
%TO.P,D1,1*%
%TO.N,/BATT_PROT*%
X16000000Y-18500000D03*
D24*
%TO.P,D1,2*%
%TO.N,/BATT_N*%
X5840000Y-18500000D03*
%TD*%
D19*
%TO.P,J_RTC1,1*%
%TO.N,/VCC_3V3*%
X42000000Y-30000000D03*
D20*
%TO.P,J_RTC1,2*%
%TO.N,GND*%
X42000000Y-32540000D03*
%TO.P,J_RTC1,3*%
%TO.N,/I2C_SDA*%
X42000000Y-35080000D03*
%TO.P,J_RTC1,4*%
%TO.N,/I2C_SCL*%
X42000000Y-37620000D03*
%TD*%
D25*
%TO.P,C6,1*%
%TO.N,/VCC_3V3*%
X46775000Y-40000000D03*
%TO.P,C6,2*%
%TO.N,GND*%
X45225000Y-40000000D03*
%TD*%
D18*
%TO.P,C5,1*%
%TO.N,/VCC_3V3*%
X20950000Y-42000000D03*
%TO.P,C5,2*%
%TO.N,GND*%
X19050000Y-42000000D03*
%TD*%
D25*
%TO.P,C3,1*%
%TO.N,/VCC_3V3*%
X35775000Y-33000000D03*
%TO.P,C3,2*%
%TO.N,GND*%
X34225000Y-33000000D03*
%TD*%
D26*
%TO.P,J3,A1*%
%TO.N,GND*%
X33250000Y-47455000D03*
%TO.P,J3,A4*%
%TO.N,/VBUS*%
X32450000Y-47455000D03*
D27*
%TO.P,J3,A5*%
%TO.N,/CC1*%
X31250000Y-47455000D03*
%TO.P,J3,A6*%
%TO.N,unconnected-(J3-D+-PadA6)*%
X30250000Y-47455000D03*
%TO.P,J3,A7*%
%TO.N,unconnected-(J3-D--PadA7)*%
X29750000Y-47455000D03*
%TO.P,J3,A8*%
%TO.N,/CAN_H_PROT*%
X28750000Y-47455000D03*
D26*
%TO.P,J3,A9*%
%TO.N,/VBUS*%
X27550000Y-47455000D03*
%TO.P,J3,A12*%
%TO.N,GND*%
X26750000Y-47455000D03*
%TO.P,J3,B1*%
X26750000Y-47455000D03*
%TO.P,J3,B4*%
%TO.N,/VBUS*%
X27550000Y-47455000D03*
D27*
%TO.P,J3,B5*%
%TO.N,/CC2*%
X28250000Y-47455000D03*
%TO.P,J3,B6*%
%TO.N,unconnected-(J3-D+-PadB6)*%
X29250000Y-47455000D03*
%TO.P,J3,B7*%
%TO.N,unconnected-(J3-D--PadB7)*%
X30750000Y-47455000D03*
%TO.P,J3,B8*%
%TO.N,/CAN_L_PROT*%
X31750000Y-47455000D03*
D26*
%TO.P,J3,B9*%
%TO.N,/VBUS*%
X32450000Y-47455000D03*
%TO.P,J3,B12*%
%TO.N,GND*%
X33250000Y-47455000D03*
D28*
%TO.P,J3,S1*%
X34320000Y-52550000D03*
D29*
X34320000Y-48370000D03*
D28*
X25680000Y-52550000D03*
D29*
X25680000Y-48370000D03*
%TD*%
D15*
%TO.P,R6,1*%
%TO.N,/CAN_H*%
X42825000Y-49000000D03*
%TO.P,R6,2*%
%TO.N,/CAN_H_PROT*%
X41175000Y-49000000D03*
%TD*%
D18*
%TO.P,C2,1*%
%TO.N,/VCC_3V3*%
X40950000Y-26000000D03*
%TO.P,C2,2*%
%TO.N,GND*%
X39050000Y-26000000D03*
%TD*%
D30*
%TO.P,U4,1*%
%TO.N,/VCC_3V3*%
X14212500Y-35000000D03*
%TO.P,U4,2*%
%TO.N,/L2_NODE*%
X14212500Y-35500000D03*
%TO.P,U4,3*%
%TO.N,GND*%
X14212500Y-36000000D03*
%TO.P,U4,4*%
%TO.N,/L1_NODE*%
X14212500Y-36500000D03*
%TO.P,U4,5*%
%TO.N,/BATT_PROT*%
X14212500Y-37000000D03*
%TO.P,U4,6*%
X11787500Y-37000000D03*
%TO.P,U4,7*%
%TO.N,GND*%
X11787500Y-36500000D03*
%TO.P,U4,8*%
%TO.N,/BATT_PROT*%
X11787500Y-36000000D03*
%TO.P,U4,9*%
%TO.N,GND*%
X11787500Y-35500000D03*
%TO.P,U4,10*%
%TO.N,/VCC_3V3*%
X11787500Y-35000000D03*
D31*
%TO.P,U4,11*%
%TO.N,GND*%
X13000000Y-36000000D03*
%TD*%
D11*
%TO.P,U1,1*%
%TO.N,unconnected-(U1-5V-Pad1)*%
X36890000Y-28160000D03*
D10*
%TO.P,U1,2*%
%TO.N,GND*%
X36890000Y-25620000D03*
%TO.P,U1,3*%
%TO.N,/VCC_3V3*%
X36890000Y-23080000D03*
%TO.P,U1,4*%
%TO.N,/BUTTON_POWER*%
X36890000Y-20540000D03*
%TO.P,U1,5*%
%TO.N,/BUTTON_TIMER*%
X36890000Y-18000000D03*
%TO.P,U1,6*%
%TO.N,/BUTTON_MANUAL*%
X36890000Y-15460000D03*
%TO.P,U1,7*%
%TO.N,/BUTTON_SETTINGS*%
X36890000Y-12920000D03*
%TO.P,U1,8*%
%TO.N,/BUTTON_UP*%
X36890000Y-10380000D03*
%TO.P,U1,9*%
%TO.N,/BUTTON_DOWN*%
X36890000Y-7840000D03*
%TO.P,U1,10*%
%TO.N,/MOTOR_IN1*%
X19110000Y-28160000D03*
%TO.P,U1,11*%
%TO.N,/MOTOR_IN2*%
X19110000Y-25620000D03*
%TO.P,U1,12*%
%TO.N,/DISP_SCK*%
X19110000Y-23080000D03*
%TO.P,U1,13*%
%TO.N,/DISP_MOSI*%
X19110000Y-20540000D03*
%TO.P,U1,14*%
%TO.N,/DISP_CS*%
X19110000Y-18000000D03*
%TO.P,U1,15*%
%TO.N,unconnected-(U1-GP19-Pad15)*%
X19110000Y-15460000D03*
%TO.P,U1,16*%
%TO.N,unconnected-(U1-GP20-Pad16)*%
X19110000Y-12920000D03*
%TO.P,U1,17*%
%TO.N,/CAN_TX*%
X19110000Y-10380000D03*
%TO.P,U1,18*%
%TO.N,/CAN_RX*%
X19110000Y-7840000D03*
D32*
%TO.P,U1,19*%
%TO.N,/I2C_SDA*%
X35620000Y-30700000D03*
%TO.P,U1,20*%
%TO.N,/DISP_DC*%
X33080000Y-30700000D03*
%TO.P,U1,21*%
%TO.N,/I2C_SCL*%
X30540000Y-30700000D03*
%TO.P,U1,22*%
%TO.N,/CAN_RS*%
X28000000Y-30700000D03*
%TO.P,U1,23*%
%TO.N,/GPS_RX*%
X25460000Y-30700000D03*
%TO.P,U1,24*%
%TO.N,/GPS_TX*%
X22920000Y-30700000D03*
%TO.P,U1,25*%
%TO.N,/BAT_MON*%
X20380000Y-30700000D03*
%TD*%
D25*
%TO.P,C1,1*%
%TO.N,/VCC_3V3*%
X40775000Y-23000000D03*
%TO.P,C1,2*%
%TO.N,GND*%
X39225000Y-23000000D03*
%TD*%
D21*
%TO.P,U6,1*%
%TO.N,/CAN_TX*%
X43475000Y-43095000D03*
%TO.P,U6,2*%
%TO.N,GND*%
X43475000Y-44365000D03*
%TO.P,U6,3*%
%TO.N,/VCC_3V3*%
X43475000Y-45635000D03*
%TO.P,U6,4*%
%TO.N,/CAN_RX*%
X43475000Y-46905000D03*
%TO.P,U6,5*%
%TO.N,/VREF_NC*%
X38525000Y-46905000D03*
%TO.P,U6,6*%
%TO.N,/CAN_L*%
X38525000Y-45635000D03*
%TO.P,U6,7*%
%TO.N,/CAN_H*%
X38525000Y-44365000D03*
%TO.P,U6,8*%
%TO.N,/CAN_RS*%
X38525000Y-43095000D03*
%TD*%
D15*
%TO.P,R2_C1,1*%
%TO.N,/PROG*%
X16825000Y-22000000D03*
%TO.P,R2_C1,2*%
%TO.N,GND*%
X15175000Y-22000000D03*
%TD*%
%TO.P,R4,1*%
%TO.N,/BAT_MON*%
X11825000Y-50000000D03*
%TO.P,R4,2*%
%TO.N,GND*%
X10175000Y-50000000D03*
%TD*%
D19*
%TO.P,J_GPS1,1*%
%TO.N,/VCC_3V3*%
X44000000Y-14000000D03*
D20*
%TO.P,J_GPS1,2*%
%TO.N,GND*%
X44000000Y-16540000D03*
%TO.P,J_GPS1,3*%
%TO.N,/GPS_RX*%
X44000000Y-19080000D03*
%TO.P,J_GPS1,4*%
%TO.N,/GPS_TX*%
X44000000Y-21620000D03*
%TD*%
D15*
%TO.P,R_CC2,1*%
%TO.N,/CC2*%
X34825000Y-3500000D03*
%TO.P,R_CC2,2*%
%TO.N,GND*%
X33175000Y-3500000D03*
%TD*%
D33*
%TO.N,/BATT_N*%
X21200000Y-33300000D03*
X19500000Y-33300000D03*
X7860300Y-26260300D03*
X21556100Y-35486300D03*
%TO.N,/BATT_P*%
X9336200Y-17577400D03*
%TO.N,/BATT_PROT*%
X4336900Y-15857900D03*
X13222400Y-37474100D03*
X13796600Y-41122800D03*
%TO.N,/BAT_MON*%
X11825000Y-48549600D03*
%TO.N,/BUTTON_DOWN*%
X39312500Y-42194600D03*
%TO.N,/BUTTON_SETTINGS*%
X34858800Y-38937400D03*
%TO.N,/BUTTON_UP*%
X35040000Y-42200000D03*
%TO.N,/CAN_H_PROT*%
X28750000Y-48640400D03*
X40304800Y-49216200D03*
%TO.N,/CAN_TX*%
X31337800Y-40968200D03*
X43475000Y-41641700D03*
%TO.N,/CC1*%
X30801200Y-46274800D03*
X28825000Y-4439800D03*
%TO.N,/CC2*%
X34825000Y-4450200D03*
X28657700Y-46252700D03*
%TO.N,/VCC_3V3*%
X13850200Y-34390400D03*
X20950000Y-40181200D03*
%TO.N,GND*%
X12358800Y-23406400D03*
X28000100Y-7030400D03*
X50550000Y-17550000D03*
X50550000Y-52750000D03*
X26350000Y-46150000D03*
X10950000Y-8750000D03*
X46150000Y-26350000D03*
X35150000Y-52750000D03*
X50550000Y-46150000D03*
X32950000Y-2150000D03*
X50550000Y-28550000D03*
X24150000Y-6550000D03*
X52750000Y-26350000D03*
X6550000Y-2150000D03*
X37350000Y-6550000D03*
X54950000Y-6550000D03*
X4350000Y-48350000D03*
X50550000Y-2150000D03*
X52750000Y-8750000D03*
X13150000Y-52750000D03*
X4350000Y-43950000D03*
X46150000Y-19750000D03*
X4350000Y-46150000D03*
X19750000Y-46150000D03*
X2150000Y-6550000D03*
X28550000Y-10950000D03*
X17550000Y-48350000D03*
X15350000Y-2150000D03*
X4350000Y-37350000D03*
X4350000Y-50550000D03*
X17550000Y-8750000D03*
X54950000Y-50550000D03*
X28550000Y-50550000D03*
X46150000Y-37350000D03*
X35150000Y-43950000D03*
X4350000Y-2150000D03*
X52750000Y-6550000D03*
X46150000Y-8750000D03*
X28550000Y-35150000D03*
X32950000Y-52750000D03*
X8750000Y-4350000D03*
X4350000Y-21950000D03*
X24150000Y-52750000D03*
X48350000Y-19750000D03*
X4350000Y-39550000D03*
X54950000Y-35150000D03*
X15350000Y-8750000D03*
X32950000Y-6550000D03*
X8750000Y-24150000D03*
X6550000Y-52750000D03*
X2150000Y-52750000D03*
X35150000Y-48350000D03*
X26350000Y-8750000D03*
X15350000Y-48350000D03*
X46150000Y-2150000D03*
X50550000Y-48350000D03*
X54950000Y-24150000D03*
X46150000Y-13150000D03*
X54950000Y-19750000D03*
X43950000Y-35150000D03*
X2150000Y-24150000D03*
X8750000Y-8750000D03*
X50550000Y-41750000D03*
X48350000Y-21950000D03*
X19750000Y-52750000D03*
X24150000Y-35150000D03*
X46150000Y-52750000D03*
X26350000Y-21950000D03*
X54950000Y-32950000D03*
X8750000Y-2150000D03*
X46150000Y-4350000D03*
X46150000Y-30750000D03*
X54950000Y-21950000D03*
X21950000Y-8750000D03*
X48350000Y-37350000D03*
X50550000Y-19750000D03*
X10950000Y-2150000D03*
X19750000Y-6550000D03*
X24150000Y-4350000D03*
X52750000Y-17550000D03*
X48350000Y-52750000D03*
X52750000Y-48350000D03*
X35150000Y-46150000D03*
X6550000Y-48350000D03*
X54950000Y-41750000D03*
X8750000Y-43950000D03*
X2150000Y-48350000D03*
X28550000Y-6550000D03*
X15350000Y-24150000D03*
X35150000Y-2150000D03*
X17550000Y-2150000D03*
X10868600Y-35500000D03*
X30750000Y-8750000D03*
X8750000Y-46150000D03*
X52750000Y-2150000D03*
X54950000Y-13150000D03*
X39550000Y-52750000D03*
X2150000Y-8750000D03*
X15350000Y-6550000D03*
X41750000Y-52750000D03*
X21950000Y-43950000D03*
X21950000Y-37350000D03*
X28550000Y-52750000D03*
X37350000Y-48350000D03*
X24150000Y-24150000D03*
X8750000Y-37350000D03*
X50550000Y-26350000D03*
X6550000Y-32950000D03*
X15350000Y-52750000D03*
X13150000Y-19750000D03*
X21950000Y-4350000D03*
X37350000Y-52750000D03*
X2150000Y-19750000D03*
X54950000Y-2150000D03*
X43950000Y-39550000D03*
X2150000Y-46150000D03*
X54950000Y-17550000D03*
X54950000Y-48350000D03*
X24150000Y-50550000D03*
X50550000Y-21950000D03*
X50550000Y-8750000D03*
X4350000Y-28550000D03*
X54950000Y-10950000D03*
X6550000Y-13150000D03*
X4350000Y-6550000D03*
X54950000Y-39550000D03*
X48350000Y-15350000D03*
X24150000Y-48350000D03*
X28550000Y-8750000D03*
X2150000Y-2150000D03*
X4350000Y-26350000D03*
X13150000Y-10950000D03*
X54950000Y-15350000D03*
X28550000Y-37350000D03*
X24150000Y-21950000D03*
X4350000Y-30750000D03*
X2150000Y-21950000D03*
X2150000Y-43950000D03*
X35150000Y-6550000D03*
X26350000Y-37350000D03*
X19750000Y-50550000D03*
X6550000Y-10950000D03*
X8750000Y-52750000D03*
X48350000Y-13150000D03*
X6550000Y-28550000D03*
X43950000Y-52750000D03*
X52750000Y-4350000D03*
X54950000Y-37350000D03*
X54950000Y-8750000D03*
X15350000Y-50550000D03*
X2150000Y-28550000D03*
X24150000Y-46150000D03*
X2150000Y-4350000D03*
X19750000Y-2150000D03*
X4350000Y-4350000D03*
X4350000Y-52750000D03*
X37350000Y-2150000D03*
X17550000Y-46150000D03*
X26350000Y-28550000D03*
X17550000Y-52750000D03*
X30750000Y-52750000D03*
X48350000Y-48350000D03*
X17550000Y-6550000D03*
X21950000Y-52750000D03*
X10950000Y-10950000D03*
X21950000Y-50550000D03*
X26350000Y-50550000D03*
X2150000Y-15350000D03*
X28550000Y-26350000D03*
X30750000Y-2150000D03*
X43950000Y-26350000D03*
X54950000Y-52750000D03*
X19750000Y-48350000D03*
X19750000Y-43950000D03*
X2150000Y-10950000D03*
X6550000Y-50550000D03*
X24150000Y-37350000D03*
X54950000Y-26350000D03*
X8750000Y-32950000D03*
X52750000Y-28550000D03*
X8750000Y-35150000D03*
X54950000Y-4350000D03*
X48350000Y-50550000D03*
X6550000Y-30750000D03*
X52750000Y-50550000D03*
X21950000Y-2150000D03*
X46150000Y-15350000D03*
X2150000Y-30750000D03*
X10950000Y-24150000D03*
X39550000Y-48350000D03*
X54950000Y-46150000D03*
X8750000Y-30750000D03*
X50550000Y-50550000D03*
X13150000Y-8750000D03*
X21950000Y-46150000D03*
X6550000Y-8750000D03*
X32950000Y-4350000D03*
X2150000Y-17550000D03*
X13150000Y-50550000D03*
X26350000Y-2150000D03*
X2150000Y-13150000D03*
X2150000Y-50550000D03*
X28550000Y-2150000D03*
X21950000Y-48350000D03*
X50550000Y-4350000D03*
X24150000Y-43950000D03*
X8750000Y-50550000D03*
X17550000Y-50550000D03*
X2150000Y-41750000D03*
X46150000Y-21950000D03*
X48350000Y-2150000D03*
X50550000Y-43950000D03*
X39550000Y-2150000D03*
X54950000Y-43950000D03*
X4350000Y-41750000D03*
X2150000Y-26350000D03*
X30750000Y-10950000D03*
X41750000Y-2150000D03*
X41750000Y-6550000D03*
X24150000Y-41750000D03*
X46150000Y-6550000D03*
X48350000Y-28550000D03*
X24150000Y-2150000D03*
X54950000Y-30750000D03*
X52750000Y-52750000D03*
X9462500Y-47566000D03*
X37350000Y-4350000D03*
X48350000Y-26350000D03*
X50550000Y-6550000D03*
X4350000Y-24150000D03*
X6550000Y-46150000D03*
X4350000Y-8750000D03*
X43950000Y-2150000D03*
X52750000Y-37350000D03*
X13150000Y-2150000D03*
X32950000Y-43950000D03*
X48350000Y-8750000D03*
X54950000Y-28550000D03*
X10950000Y-52750000D03*
X52750000Y-19750000D03*
X8750000Y-48350000D03*
X4350000Y-19750000D03*
X41750000Y-10950000D03*
%TD*%
D34*
%TO.N,/BATT_CHG*%
X6482200Y-26281000D02*
X6482200Y-21211600D01*
X11525000Y-16168800D02*
X11525000Y-15905000D01*
X6482200Y-21211600D02*
X11525000Y-16168800D01*
X8201200Y-28000000D02*
X6482200Y-26281000D01*
X8650000Y-28000000D02*
X8201200Y-28000000D01*
%TO.N,/BATT_N*%
X20350000Y-35950000D02*
X20350000Y-35000000D01*
D35*
X17000000Y-33300000D02*
X19500000Y-33300000D01*
D34*
X8650000Y-27050000D02*
X7860300Y-26260300D01*
D35*
X8650000Y-27050000D02*
X11350000Y-28000000D01*
X22000000Y-35000000D02*
X20350000Y-35000000D01*
X22000000Y-33300000D02*
X22000000Y-35000000D01*
X17000000Y-28000000D02*
X17000000Y-33300000D01*
X11350000Y-28000000D02*
X17000000Y-28000000D01*
X21200000Y-33300000D02*
X22000000Y-33300000D01*
X21556100Y-35486300D02*
X20350000Y-35000000D01*
D34*
%TO.N,/BATT_P*%
X9336200Y-17577400D02*
X9336200Y-13198700D01*
X9336200Y-13198700D02*
X9137500Y-13000000D01*
%TO.N,/BATT_PROT*%
X11359500Y-37000000D02*
X11787500Y-37000000D01*
X4336900Y-13525600D02*
X4336900Y-15857900D01*
X11110600Y-36751100D02*
X11359500Y-37000000D01*
X11368200Y-36000000D02*
X11110600Y-36257600D01*
X11110600Y-36257600D02*
X11110600Y-36751100D01*
X11787500Y-36000000D02*
X11368200Y-36000000D01*
X12950000Y-42000000D02*
X12950000Y-44875000D01*
X12950000Y-44875000D02*
X11825000Y-46000000D01*
X13222400Y-37251700D02*
X13960800Y-37251700D01*
X12950000Y-42000000D02*
X13796600Y-41153400D01*
X12039200Y-37251700D02*
X13222400Y-37251700D01*
X13960800Y-37251700D02*
X14212500Y-37000000D01*
X13222400Y-37251700D02*
X13222400Y-37474100D01*
X4862500Y-13000000D02*
X4336900Y-13525600D01*
X11787500Y-37000000D02*
X12039200Y-37251700D01*
X13796600Y-41153400D02*
X13796600Y-41122800D01*
%TO.N,/BAT_MON*%
X11825000Y-48549600D02*
X11825000Y-47650000D01*
X11825000Y-50000000D02*
X11825000Y-48549600D01*
X11825000Y-47650000D02*
X10175000Y-46000000D01*
%TO.N,/CAN_H*%
X42825000Y-48339500D02*
X42825000Y-49000000D01*
X46850200Y-45205200D02*
X43715900Y-48339500D01*
X38850500Y-44365000D02*
X38525000Y-44365000D01*
X48030200Y-45205200D02*
X46850200Y-45205200D01*
X43715900Y-48339500D02*
X42825000Y-48339500D01*
X48825000Y-46000000D02*
X48030200Y-45205200D01*
X42825000Y-48339500D02*
X38850500Y-44365000D01*
%TO.N,/CAN_H_PROT*%
X40958800Y-49216200D02*
X41175000Y-49000000D01*
X40304800Y-49216200D02*
X40958800Y-49216200D01*
X28750000Y-47455000D02*
X28750000Y-48640400D01*
%TO.N,/CAN_L*%
X44000300Y-49742100D02*
X42429700Y-49742100D01*
X42429700Y-49742100D02*
X42000000Y-49312400D01*
X47175000Y-46000000D02*
X47175000Y-48919800D01*
X47175000Y-48919800D02*
X46825000Y-49269800D01*
X42000000Y-48598400D02*
X39036600Y-45635000D01*
X42000000Y-49312400D02*
X42000000Y-48598400D01*
X46825000Y-49269800D02*
X46825000Y-50000000D01*
X39036600Y-45635000D02*
X38525000Y-45635000D01*
X44472600Y-49269800D02*
X44000300Y-49742100D01*
X46825000Y-49269800D02*
X44472600Y-49269800D01*
%TO.N,/CAN_L_PROT*%
X45037200Y-50137800D02*
X45175000Y-50000000D01*
X31750000Y-49015900D02*
X32871900Y-50137800D01*
X32871900Y-50137800D02*
X45037200Y-50137800D01*
X31750000Y-47455000D02*
X31750000Y-49015900D01*
%TO.N,/CAN_RS*%
X38525000Y-41225000D02*
X28000000Y-30700000D01*
X38525000Y-43095000D02*
X38525000Y-41225000D01*
%TO.N,/CAN_RX*%
X41000000Y-44759200D02*
X43145800Y-46905000D01*
X19110000Y-7840000D02*
X31726900Y-20456900D01*
X31726900Y-31722700D02*
X41000000Y-40995800D01*
X41000000Y-40995800D02*
X41000000Y-44759200D01*
X43145800Y-46905000D02*
X43475000Y-46905000D01*
X31726900Y-20456900D02*
X31726900Y-31722700D01*
%TO.N,/CAN_TX*%
X43475000Y-43095000D02*
X43475000Y-41641700D01*
%TO.N,/CC1*%
X31250000Y-46478300D02*
X31004700Y-46478300D01*
X31250000Y-47455000D02*
X31250000Y-46478300D01*
X31004700Y-46478300D02*
X30801200Y-46274800D01*
X28825000Y-4439800D02*
X28825000Y-3500000D01*
%TO.N,/CC2*%
X28250000Y-46478300D02*
X28432100Y-46478300D01*
X34825000Y-4450200D02*
X34825000Y-3500000D01*
X28250000Y-47455000D02*
X28250000Y-46478300D01*
X28432100Y-46478300D02*
X28657700Y-46252700D01*
%TO.N,/CHRG_L*%
X16134500Y-12095000D02*
X13429000Y-14800500D01*
X13429000Y-14800500D02*
X13429000Y-17358500D01*
X16475000Y-12095000D02*
X16134500Y-12095000D01*
X13429000Y-17358500D02*
X8787500Y-22000000D01*
%TO.N,/DISP_RST*%
X42065000Y-9110000D02*
X34430000Y-9110000D01*
X34430000Y-9110000D02*
X30540000Y-13000000D01*
X43175000Y-8000000D02*
X42065000Y-9110000D01*
D35*
%TO.N,/L1_NODE*%
X7062500Y-36000000D02*
X7062500Y-39000000D01*
X14950000Y-36500000D02*
X14212500Y-36500000D01*
X14950000Y-39000000D02*
X14950000Y-36500000D01*
X7062500Y-39000000D02*
X14950000Y-39000000D01*
%TO.N,/L2_NODE*%
X15500000Y-35500000D02*
X14210000Y-35500000D01*
X15500000Y-35500000D02*
X15500000Y-40500000D01*
X4937500Y-33000000D02*
X4937500Y-36000000D01*
X2000000Y-40500000D02*
X2000000Y-33000000D01*
X2000000Y-33000000D02*
X4937500Y-33000000D01*
X15500000Y-40500000D02*
X2000000Y-40500000D01*
%TO.N,/OC_GATE*%
X11350000Y-32500000D02*
X16200000Y-32500000D01*
X16200000Y-35950000D02*
X17650000Y-35950000D01*
X16200000Y-32500000D02*
X16200000Y-35950000D01*
X11350000Y-28950000D02*
X11350000Y-32500000D01*
%TO.N,/OD_GATE*%
X11350000Y-27050000D02*
X11350000Y-26200000D01*
X11350000Y-26200000D02*
X18000000Y-26200000D01*
X18000000Y-32500000D02*
X20350000Y-32500000D01*
X20350000Y-32500000D02*
X20350000Y-34050000D01*
X18000000Y-26200000D02*
X18000000Y-32500000D01*
D34*
%TO.N,/PROG*%
X16475000Y-13365000D02*
X16143600Y-13365000D01*
X14641500Y-19816500D02*
X16825000Y-22000000D01*
X14641500Y-14867100D02*
X14641500Y-19816500D01*
X16143600Y-13365000D02*
X14641500Y-14867100D01*
%TO.N,/VBUS*%
X11525000Y-13365000D02*
X13222900Y-13365000D01*
X15067400Y-11520500D02*
X20358000Y-11520500D01*
X27550000Y-45680600D02*
X27550000Y-47455000D01*
X16853700Y-16283700D02*
X21213500Y-16283700D01*
X21968300Y-31617700D02*
X27550000Y-37199400D01*
X31652300Y-45680600D02*
X27550000Y-45680600D01*
X20358000Y-11520500D02*
X21213500Y-12376000D01*
X21213500Y-16283700D02*
X21968300Y-17038500D01*
X32450000Y-47455000D02*
X32450000Y-46478300D01*
X13222900Y-13365000D02*
X15067400Y-11520500D01*
X16475000Y-15905000D02*
X16853700Y-16283700D01*
X21968300Y-17038500D02*
X21968300Y-31617700D01*
X32450000Y-46478300D02*
X31652300Y-45680600D01*
X27550000Y-37199400D02*
X27550000Y-45680600D01*
X21213500Y-12376000D02*
X21213500Y-16283700D01*
%TO.N,/VCC_3V3*%
X46775000Y-40000000D02*
X50898300Y-40000000D01*
X46775000Y-40000000D02*
X46094800Y-40680200D01*
X37718800Y-22251200D02*
X40026200Y-22251200D01*
X40026200Y-18937800D02*
X43862300Y-15101700D01*
X40950000Y-30000000D02*
X40950000Y-26000000D01*
X11787500Y-35000000D02*
X12039200Y-34748300D01*
X50898300Y-40000000D02*
X51898300Y-39000000D01*
X44000000Y-14000000D02*
X44000000Y-15101700D01*
X35775000Y-33000000D02*
X38775000Y-30000000D01*
X46094800Y-40680200D02*
X46094800Y-43371600D01*
X43831400Y-45635000D02*
X43475000Y-45635000D01*
X43862300Y-15101700D02*
X44000000Y-15101700D01*
X53000000Y-39000000D02*
X51898300Y-39000000D01*
X44000000Y-12898300D02*
X44825000Y-12073300D01*
X40775000Y-23000000D02*
X40950000Y-23175000D01*
X20950000Y-42000000D02*
X20950000Y-40181200D01*
X13850200Y-34748300D02*
X13850200Y-34390400D01*
X38775000Y-30000000D02*
X40950000Y-30000000D01*
X40950000Y-23175000D02*
X40950000Y-26000000D01*
X44825000Y-12073300D02*
X44825000Y-8000000D01*
X40026200Y-22251200D02*
X40026200Y-18937800D01*
X40026200Y-22251200D02*
X40775000Y-23000000D01*
X13960800Y-34748300D02*
X14212500Y-35000000D01*
X36890000Y-23080000D02*
X37718800Y-22251200D01*
X13850200Y-34748300D02*
X13960800Y-34748300D01*
X12039200Y-34748300D02*
X13850200Y-34748300D01*
X44000000Y-14000000D02*
X44000000Y-12898300D01*
X46094800Y-43371600D02*
X43831400Y-45635000D01*
X40950000Y-30000000D02*
X42000000Y-30000000D01*
%TO.N,GND*%
X39225000Y-25065000D02*
X38670000Y-25620000D01*
X39225000Y-23000000D02*
X39225000Y-25065000D01*
X10868600Y-35500000D02*
X11787500Y-35500000D01*
X13000000Y-36000000D02*
X12500000Y-35500000D01*
X45225000Y-35765000D02*
X42000000Y-32540000D01*
X12500000Y-35500000D02*
X11787500Y-35500000D01*
X45225000Y-40000000D02*
X45225000Y-42943800D01*
X12358800Y-22748600D02*
X14426400Y-22748600D01*
X34225000Y-28285000D02*
X36890000Y-25620000D01*
X25680000Y-48370000D02*
X25680000Y-47068300D01*
X45225000Y-40000000D02*
X45225000Y-35765000D01*
X18745000Y-14635000D02*
X20380000Y-13000000D01*
X26750000Y-47455000D02*
X26750000Y-46478300D01*
X14426400Y-22748600D02*
X15175000Y-22000000D01*
X28000100Y-3500000D02*
X28000100Y-7030400D01*
X13000000Y-36000000D02*
X14212500Y-36000000D01*
X28000100Y-3500000D02*
X27175000Y-3500000D01*
X7961100Y-22748600D02*
X12358800Y-22748600D01*
X34320000Y-47068300D02*
X33730000Y-46478300D01*
X12358800Y-23406400D02*
X12358800Y-22748600D01*
X19050000Y-42000000D02*
X24118300Y-47068300D01*
X16475000Y-14635000D02*
X18745000Y-14635000D01*
X7212500Y-22000000D02*
X7961100Y-22748600D01*
X32440900Y-2765900D02*
X28367100Y-2765900D01*
X33730000Y-46478300D02*
X33250000Y-46478300D01*
X9462500Y-49287500D02*
X10175000Y-50000000D01*
X9462500Y-43587500D02*
X9462500Y-47566000D01*
X34225000Y-33000000D02*
X34225000Y-28285000D01*
X17650000Y-35000000D02*
X18116200Y-35000000D01*
X24118300Y-47068300D02*
X25680000Y-47068300D01*
X19050000Y-35933800D02*
X19050000Y-42000000D01*
X18116200Y-35000000D02*
X19050000Y-35933800D01*
X34320000Y-48370000D02*
X34320000Y-47068300D01*
X11050000Y-42000000D02*
X9462500Y-43587500D01*
X38670000Y-25620000D02*
X39050000Y-26000000D01*
X43803800Y-44365000D02*
X43475000Y-44365000D01*
X11787500Y-36500000D02*
X12500000Y-36500000D01*
X25680000Y-47068300D02*
X26270000Y-46478300D01*
X36890000Y-25620000D02*
X38670000Y-25620000D01*
X33250000Y-47455000D02*
X33250000Y-46478300D01*
X33175000Y-3500000D02*
X32440900Y-2765900D01*
X45225000Y-42943800D02*
X43803800Y-44365000D01*
X9462500Y-47566000D02*
X9462500Y-49287500D01*
X28367100Y-2765900D02*
X28000100Y-3132900D01*
X12500000Y-36500000D02*
X13000000Y-36000000D01*
X28000100Y-3132900D02*
X28000100Y-3500000D01*
X26270000Y-46478300D02*
X26750000Y-46478300D01*
%TD*%
%TA.AperFunction,Conductor*%
%TO.N,GND*%
G36*
X55477826Y-522174D02*
G01*
X55499500Y-574500D01*
X55499500Y-53425500D01*
X55477826Y-53477826D01*
X55425500Y-53499500D01*
X574500Y-53499500D01*
X522174Y-53477826D01*
X500500Y-53425500D01*
X500500Y-50322828D01*
X9475000Y-50322828D01*
X9481402Y-50382375D01*
X9481403Y-50382380D01*
X9531645Y-50517087D01*
X9531646Y-50517088D01*
X9617811Y-50632188D01*
X9732911Y-50718353D01*
X9732912Y-50718354D01*
X9867619Y-50768596D01*
X9867624Y-50768597D01*
X9927171Y-50775000D01*
X9975000Y-50775000D01*
X10375000Y-50775000D01*
X10422829Y-50775000D01*
X10482375Y-50768597D01*
X10482380Y-50768596D01*
X10617087Y-50718354D01*
X10617088Y-50718353D01*
X10732188Y-50632188D01*
X10818353Y-50517088D01*
X10818354Y-50517087D01*
X10868596Y-50382380D01*
X10868597Y-50382375D01*
X10875000Y-50322828D01*
X10875000Y-50200000D01*
X10375000Y-50200000D01*
X10375000Y-50775000D01*
X9975000Y-50775000D01*
X9975000Y-50200000D01*
X9475000Y-50200000D01*
X9475000Y-50322828D01*
X500500Y-50322828D01*
X500500Y-49677171D01*
X9475000Y-49677171D01*
X9475000Y-49800000D01*
X9975000Y-49800000D01*
X10375000Y-49800000D01*
X10875000Y-49800000D01*
X10875000Y-49677171D01*
X10868597Y-49617624D01*
X10868596Y-49617619D01*
X10818354Y-49482912D01*
X10818353Y-49482911D01*
X10732188Y-49367811D01*
X10617088Y-49281646D01*
X10617087Y-49281645D01*
X10482380Y-49231403D01*
X10482375Y-49231402D01*
X10422829Y-49225000D01*
X10375000Y-49225000D01*
X10375000Y-49800000D01*
X9975000Y-49800000D01*
X9975000Y-49225000D01*
X9927171Y-49225000D01*
X9867624Y-49231402D01*
X9867619Y-49231403D01*
X9732912Y-49281645D01*
X9732911Y-49281646D01*
X9617811Y-49367811D01*
X9531646Y-49482911D01*
X9531645Y-49482912D01*
X9481403Y-49617619D01*
X9481402Y-49617624D01*
X9475000Y-49677171D01*
X500500Y-49677171D01*
X500500Y-42897646D01*
X5699500Y-42897646D01*
X5699500Y-43102353D01*
X5731522Y-43304531D01*
X5731525Y-43304544D01*
X5794777Y-43499213D01*
X5887712Y-43681610D01*
X5928021Y-43737090D01*
X6008034Y-43847219D01*
X6152781Y-43991966D01*
X6244695Y-44058745D01*
X6318389Y-44112287D01*
X6406300Y-44157079D01*
X6500781Y-44205220D01*
X6500783Y-44205220D01*
X6500786Y-44205222D01*
X6695455Y-44268474D01*
X6695461Y-44268475D01*
X6695466Y-44268477D01*
X6796557Y-44284488D01*
X6897646Y-44300500D01*
X6897648Y-44300500D01*
X7102354Y-44300500D01*
X7183224Y-44287690D01*
X7304534Y-44268477D01*
X7304541Y-44268474D01*
X7304544Y-44268474D01*
X7499213Y-44205222D01*
X7499213Y-44205221D01*
X7499219Y-44205220D01*
X7681610Y-44112287D01*
X7847219Y-43991966D01*
X7991966Y-43847219D01*
X8112287Y-43681610D01*
X8205220Y-43499219D01*
X8231693Y-43417744D01*
X8268474Y-43304544D01*
X8268474Y-43304541D01*
X8268477Y-43304534D01*
X8300500Y-43102352D01*
X8300500Y-42897648D01*
X8268477Y-42695466D01*
X8268475Y-42695461D01*
X8268474Y-42695455D01*
X8210835Y-42518061D01*
X10250000Y-42518061D01*
X10260614Y-42606443D01*
X10316077Y-42747092D01*
X10407435Y-42867564D01*
X10527907Y-42958922D01*
X10668556Y-43014385D01*
X10756939Y-43025000D01*
X10850000Y-43025000D01*
X11250000Y-43025000D01*
X11343061Y-43025000D01*
X11431443Y-43014385D01*
X11572092Y-42958922D01*
X11692564Y-42867564D01*
X11783922Y-42747092D01*
X11839385Y-42606443D01*
X11850000Y-42518061D01*
X11850000Y-42200000D01*
X11250000Y-42200000D01*
X11250000Y-43025000D01*
X10850000Y-43025000D01*
X10850000Y-42200000D01*
X10250000Y-42200000D01*
X10250000Y-42518061D01*
X8210835Y-42518061D01*
X8205222Y-42500786D01*
X8205220Y-42500783D01*
X8205220Y-42500781D01*
X8143378Y-42379409D01*
X8112287Y-42318389D01*
X8035604Y-42212844D01*
X8026272Y-42200000D01*
X7991966Y-42152781D01*
X7847219Y-42008034D01*
X7783040Y-41961406D01*
X7681610Y-41887712D01*
X7499213Y-41794777D01*
X7304544Y-41731525D01*
X7304531Y-41731522D01*
X7102354Y-41699500D01*
X7102352Y-41699500D01*
X6897648Y-41699500D01*
X6897646Y-41699500D01*
X6695468Y-41731522D01*
X6695455Y-41731525D01*
X6500786Y-41794777D01*
X6318389Y-41887712D01*
X6181023Y-41987515D01*
X6152781Y-42008034D01*
X6008034Y-42152781D01*
X6008031Y-42152784D01*
X6008031Y-42152785D01*
X5887712Y-42318389D01*
X5794777Y-42500786D01*
X5731525Y-42695455D01*
X5731522Y-42695468D01*
X5699500Y-42897646D01*
X500500Y-42897646D01*
X500500Y-32947270D01*
X1599500Y-32947270D01*
X1599500Y-40552729D01*
X1626791Y-40654582D01*
X1626795Y-40654591D01*
X1653348Y-40700582D01*
X1679520Y-40745913D01*
X1754087Y-40820480D01*
X1845413Y-40873207D01*
X1947270Y-40900499D01*
X1947271Y-40900500D01*
X1947273Y-40900500D01*
X10495329Y-40900500D01*
X10547655Y-40922174D01*
X10569329Y-40974500D01*
X10547655Y-41026826D01*
X10531599Y-41039002D01*
X10527909Y-41041076D01*
X10407435Y-41132435D01*
X10316077Y-41252907D01*
X10260614Y-41393556D01*
X10250000Y-41481938D01*
X10250000Y-41800000D01*
X11850000Y-41800000D01*
X11850000Y-41481938D01*
X11839385Y-41393556D01*
X11783922Y-41252907D01*
X11692564Y-41132435D01*
X11572090Y-41041076D01*
X11568401Y-41039002D01*
X11533414Y-40994463D01*
X11540169Y-40938230D01*
X11584708Y-40903243D01*
X11604671Y-40900500D01*
X12532002Y-40900500D01*
X12584328Y-40922174D01*
X12606002Y-40974500D01*
X12584328Y-41026826D01*
X12557862Y-41043834D01*
X12457670Y-41081202D01*
X12457669Y-41081203D01*
X12342454Y-41167454D01*
X12256203Y-41282669D01*
X12256202Y-41282670D01*
X12205910Y-41417512D01*
X12205909Y-41417517D01*
X12199500Y-41477126D01*
X12199500Y-42522873D01*
X12205909Y-42582485D01*
X12256202Y-42717329D01*
X12256203Y-42717330D01*
X12256204Y-42717331D01*
X12342454Y-42832546D01*
X12457669Y-42918796D01*
X12457670Y-42918797D01*
X12551360Y-42953741D01*
X12592813Y-42992334D01*
X12599500Y-43023075D01*
X12599500Y-44699166D01*
X12577826Y-44751492D01*
X12076492Y-45252826D01*
X12024166Y-45274500D01*
X11570734Y-45274500D01*
X11540301Y-45277354D01*
X11540299Y-45277354D01*
X11540295Y-45277355D01*
X11412118Y-45322206D01*
X11412116Y-45322207D01*
X11302853Y-45402846D01*
X11302846Y-45402853D01*
X11222207Y-45512116D01*
X11222206Y-45512118D01*
X11177355Y-45640295D01*
X11177354Y-45640299D01*
X11177354Y-45640301D01*
X11174500Y-45670734D01*
X11174500Y-45670740D01*
X11174500Y-46325166D01*
X11152826Y-46377492D01*
X11100500Y-46399166D01*
X11048174Y-46377492D01*
X10847174Y-46176492D01*
X10825500Y-46124166D01*
X10825500Y-45670740D01*
X10825500Y-45670734D01*
X10822646Y-45640301D01*
X10777793Y-45512118D01*
X10746709Y-45470000D01*
X10697153Y-45402853D01*
X10697146Y-45402846D01*
X10587883Y-45322207D01*
X10587881Y-45322206D01*
X10459704Y-45277355D01*
X10459705Y-45277355D01*
X10459700Y-45277354D01*
X10459699Y-45277354D01*
X10429266Y-45274500D01*
X9920734Y-45274500D01*
X9890301Y-45277354D01*
X9890299Y-45277354D01*
X9890295Y-45277355D01*
X9762118Y-45322206D01*
X9762116Y-45322207D01*
X9652853Y-45402846D01*
X9652846Y-45402853D01*
X9572207Y-45512116D01*
X9572206Y-45512118D01*
X9527355Y-45640295D01*
X9527354Y-45640299D01*
X9527354Y-45640301D01*
X9524500Y-45670734D01*
X9524500Y-46329266D01*
X9527354Y-46359699D01*
X9527354Y-46359701D01*
X9527355Y-46359704D01*
X9572206Y-46487881D01*
X9572207Y-46487883D01*
X9652846Y-46597146D01*
X9652853Y-46597153D01*
X9762116Y-46677792D01*
X9762118Y-46677793D01*
X9890295Y-46722644D01*
X9890301Y-46722646D01*
X9920734Y-46725500D01*
X10374166Y-46725500D01*
X10426492Y-46747174D01*
X11452826Y-47773507D01*
X11474500Y-47825833D01*
X11474500Y-48090924D01*
X11452826Y-48143250D01*
X11384491Y-48211584D01*
X11312016Y-48337113D01*
X11312014Y-48337118D01*
X11274500Y-48477122D01*
X11274500Y-48622077D01*
X11312014Y-48762081D01*
X11312016Y-48762086D01*
X11384491Y-48887615D01*
X11452826Y-48955950D01*
X11474500Y-49008276D01*
X11474500Y-49247872D01*
X11452826Y-49300198D01*
X11424943Y-49317719D01*
X11412116Y-49322207D01*
X11302853Y-49402846D01*
X11302846Y-49402853D01*
X11222207Y-49512116D01*
X11222206Y-49512118D01*
X11177355Y-49640295D01*
X11177354Y-49640299D01*
X11177354Y-49640301D01*
X11174500Y-49670734D01*
X11174500Y-50329266D01*
X11177354Y-50359699D01*
X11177354Y-50359701D01*
X11177355Y-50359704D01*
X11222206Y-50487881D01*
X11222207Y-50487883D01*
X11302846Y-50597146D01*
X11302853Y-50597153D01*
X11412116Y-50677792D01*
X11412118Y-50677793D01*
X11540295Y-50722644D01*
X11540301Y-50722646D01*
X11570734Y-50725500D01*
X11570741Y-50725500D01*
X12079258Y-50725500D01*
X12079266Y-50725500D01*
X12109699Y-50722646D01*
X12237882Y-50677793D01*
X12347150Y-50597150D01*
X12427793Y-50487882D01*
X12472646Y-50359699D01*
X12475500Y-50329266D01*
X12475500Y-49670734D01*
X12472646Y-49640301D01*
X12440873Y-49549500D01*
X12427793Y-49512118D01*
X12427792Y-49512116D01*
X12347153Y-49402853D01*
X12347146Y-49402846D01*
X12237883Y-49322207D01*
X12225057Y-49317719D01*
X12182827Y-49279977D01*
X12175500Y-49247872D01*
X12175500Y-49008276D01*
X12197174Y-48955950D01*
X12209940Y-48943184D01*
X12265509Y-48887615D01*
X12337984Y-48762085D01*
X12375499Y-48622077D01*
X12375500Y-48622077D01*
X12375500Y-48477123D01*
X12375499Y-48477122D01*
X12337985Y-48337118D01*
X12337983Y-48337113D01*
X12293054Y-48259294D01*
X12265509Y-48211585D01*
X12197174Y-48143250D01*
X12175500Y-48090924D01*
X12175500Y-47603854D01*
X12175499Y-47603853D01*
X12151615Y-47514715D01*
X12151613Y-47514710D01*
X12105471Y-47434791D01*
X12105470Y-47434790D01*
X12105469Y-47434788D01*
X12040212Y-47369531D01*
X11522506Y-46851825D01*
X11500833Y-46799500D01*
X11522507Y-46747174D01*
X11574833Y-46725500D01*
X12079258Y-46725500D01*
X12079266Y-46725500D01*
X12109699Y-46722646D01*
X12237882Y-46677793D01*
X12347150Y-46597150D01*
X12427793Y-46487882D01*
X12472646Y-46359699D01*
X12475500Y-46329266D01*
X12475500Y-45875832D01*
X12497173Y-45823507D01*
X13230469Y-45090212D01*
X13276614Y-45010288D01*
X13281645Y-44991509D01*
X13286228Y-44974411D01*
X13300500Y-44921143D01*
X13300500Y-43023075D01*
X13322174Y-42970749D01*
X13348640Y-42953741D01*
X13442329Y-42918797D01*
X13442329Y-42918796D01*
X13442331Y-42918796D01*
X13557546Y-42832546D01*
X13643796Y-42717331D01*
X13645418Y-42712984D01*
X13681235Y-42616951D01*
X13694091Y-42582483D01*
X13700500Y-42522873D01*
X13700500Y-42518061D01*
X18250000Y-42518061D01*
X18260614Y-42606443D01*
X18316077Y-42747092D01*
X18407435Y-42867564D01*
X18527907Y-42958922D01*
X18668556Y-43014385D01*
X18756939Y-43025000D01*
X18850000Y-43025000D01*
X19250000Y-43025000D01*
X19343061Y-43025000D01*
X19431443Y-43014385D01*
X19572092Y-42958922D01*
X19692564Y-42867564D01*
X19783922Y-42747092D01*
X19839385Y-42606443D01*
X19850000Y-42518061D01*
X19850000Y-42200000D01*
X19250000Y-42200000D01*
X19250000Y-43025000D01*
X18850000Y-43025000D01*
X18850000Y-42200000D01*
X18250000Y-42200000D01*
X18250000Y-42518061D01*
X13700500Y-42518061D01*
X13700499Y-42127525D01*
X13700499Y-41775834D01*
X13722173Y-41723508D01*
X13722174Y-41723507D01*
X13750709Y-41694973D01*
X13766890Y-41688271D01*
X13803034Y-41673300D01*
X13869077Y-41673300D01*
X13869077Y-41673299D01*
X14009085Y-41635784D01*
X14134615Y-41563309D01*
X14215986Y-41481938D01*
X18250000Y-41481938D01*
X18250000Y-41800000D01*
X18850000Y-41800000D01*
X19250000Y-41800000D01*
X19850000Y-41800000D01*
X19850000Y-41481937D01*
X19849422Y-41477126D01*
X20199500Y-41477126D01*
X20199500Y-42522873D01*
X20205909Y-42582485D01*
X20256202Y-42717329D01*
X20256203Y-42717330D01*
X20256204Y-42717331D01*
X20342454Y-42832546D01*
X20457669Y-42918796D01*
X20457670Y-42918797D01*
X20551361Y-42953741D01*
X20592517Y-42969091D01*
X20652127Y-42975500D01*
X21247872Y-42975499D01*
X21307483Y-42969091D01*
X21374907Y-42943943D01*
X21442329Y-42918797D01*
X21442329Y-42918796D01*
X21442331Y-42918796D01*
X21557546Y-42832546D01*
X21643796Y-42717331D01*
X21645418Y-42712984D01*
X21681235Y-42616951D01*
X21694091Y-42582483D01*
X21700500Y-42522873D01*
X21700499Y-41477128D01*
X21694091Y-41417517D01*
X21690806Y-41408709D01*
X21643797Y-41282670D01*
X21643796Y-41282669D01*
X21621516Y-41252907D01*
X21557546Y-41167454D01*
X21442331Y-41081204D01*
X21442330Y-41081203D01*
X21442329Y-41081202D01*
X21348640Y-41046259D01*
X21307187Y-41007666D01*
X21300500Y-40976925D01*
X21300500Y-40639876D01*
X21322174Y-40587550D01*
X21390509Y-40519215D01*
X21462984Y-40393685D01*
X21500499Y-40253677D01*
X21500500Y-40253677D01*
X21500500Y-40108723D01*
X21500499Y-40108722D01*
X21492220Y-40077826D01*
X21481742Y-40038720D01*
X21462985Y-39968718D01*
X21462983Y-39968713D01*
X21390508Y-39843184D01*
X21288015Y-39740691D01*
X21162486Y-39668216D01*
X21162481Y-39668214D01*
X21022477Y-39630700D01*
X21022475Y-39630700D01*
X20877525Y-39630700D01*
X20877523Y-39630700D01*
X20737518Y-39668214D01*
X20737513Y-39668216D01*
X20611984Y-39740691D01*
X20509491Y-39843184D01*
X20437016Y-39968713D01*
X20437014Y-39968718D01*
X20399500Y-40108722D01*
X20399500Y-40253677D01*
X20437014Y-40393681D01*
X20437016Y-40393686D01*
X20509491Y-40519215D01*
X20577826Y-40587550D01*
X20599500Y-40639876D01*
X20599500Y-40976925D01*
X20577826Y-41029251D01*
X20551360Y-41046259D01*
X20457670Y-41081202D01*
X20457669Y-41081203D01*
X20342454Y-41167454D01*
X20256203Y-41282669D01*
X20256202Y-41282670D01*
X20205910Y-41417512D01*
X20205909Y-41417517D01*
X20199500Y-41477126D01*
X19849422Y-41477126D01*
X19839385Y-41393556D01*
X19783922Y-41252907D01*
X19692564Y-41132435D01*
X19572092Y-41041077D01*
X19431443Y-40985614D01*
X19343061Y-40975000D01*
X19250000Y-40975000D01*
X19250000Y-41800000D01*
X18850000Y-41800000D01*
X18850000Y-40975000D01*
X18756939Y-40975000D01*
X18668556Y-40985614D01*
X18527907Y-41041077D01*
X18407435Y-41132435D01*
X18316077Y-41252907D01*
X18260614Y-41393556D01*
X18250000Y-41481938D01*
X14215986Y-41481938D01*
X14237109Y-41460815D01*
X14309584Y-41335285D01*
X14347099Y-41195277D01*
X14347100Y-41195277D01*
X14347100Y-41050323D01*
X14347099Y-41050322D01*
X14346010Y-41046259D01*
X14336238Y-41009787D01*
X14331915Y-40993653D01*
X14339307Y-40937500D01*
X14384240Y-40903022D01*
X14403393Y-40900500D01*
X15552729Y-40900500D01*
X15552729Y-40900499D01*
X15654587Y-40873207D01*
X15745913Y-40820480D01*
X15820480Y-40745913D01*
X15873207Y-40654587D01*
X15900499Y-40552729D01*
X15900500Y-40552729D01*
X15900500Y-36367713D01*
X15922174Y-36315387D01*
X15974500Y-36293713D01*
X16011497Y-36303626D01*
X16045413Y-36323207D01*
X16147270Y-36350499D01*
X16147271Y-36350500D01*
X16147273Y-36350500D01*
X16252727Y-36350500D01*
X16655778Y-36350500D01*
X16708104Y-36372174D01*
X16786719Y-36450789D01*
X16903285Y-36510182D01*
X16999997Y-36525500D01*
X18300002Y-36525499D01*
X18396715Y-36510182D01*
X18513281Y-36450789D01*
X18605789Y-36358281D01*
X18665182Y-36241715D01*
X18680500Y-36145003D01*
X18680499Y-35754998D01*
X18665182Y-35658285D01*
X18605789Y-35541719D01*
X18513281Y-35449211D01*
X18443832Y-35413825D01*
X18396714Y-35389817D01*
X18300004Y-35374500D01*
X16999997Y-35374500D01*
X16903284Y-35389818D01*
X16786718Y-35449211D01*
X16726826Y-35509104D01*
X16674500Y-35530778D01*
X16622174Y-35509104D01*
X16600500Y-35456778D01*
X16600500Y-34543222D01*
X16622174Y-34490896D01*
X16674500Y-34469222D01*
X16726826Y-34490896D01*
X16786719Y-34550789D01*
X16903285Y-34610182D01*
X16999997Y-34625500D01*
X18300002Y-34625499D01*
X18396715Y-34610182D01*
X18513281Y-34550789D01*
X18605789Y-34458281D01*
X18665182Y-34341715D01*
X18680500Y-34245003D01*
X18680499Y-33854998D01*
X18669583Y-33786074D01*
X18682805Y-33731004D01*
X18731096Y-33701411D01*
X18742672Y-33700500D01*
X19091324Y-33700500D01*
X19143650Y-33722174D01*
X19161985Y-33740509D01*
X19282500Y-33810089D01*
X19316978Y-33855021D01*
X19319500Y-33874174D01*
X19319500Y-34245002D01*
X19334818Y-34341715D01*
X19394211Y-34458281D01*
X19408604Y-34472674D01*
X19430278Y-34525000D01*
X19408604Y-34577326D01*
X19394211Y-34591718D01*
X19334817Y-34708285D01*
X19319500Y-34804995D01*
X19319500Y-35195002D01*
X19334818Y-35291715D01*
X19394211Y-35408281D01*
X19408604Y-35422674D01*
X19430278Y-35475000D01*
X19408604Y-35527326D01*
X19394211Y-35541718D01*
X19334817Y-35658285D01*
X19319500Y-35754995D01*
X19319500Y-36145002D01*
X19330887Y-36216893D01*
X19334818Y-36241715D01*
X19394211Y-36358281D01*
X19486719Y-36450789D01*
X19603285Y-36510182D01*
X19699997Y-36525500D01*
X21000002Y-36525499D01*
X21096715Y-36510182D01*
X21213281Y-36450789D01*
X21305789Y-36358281D01*
X21365182Y-36241715D01*
X21380500Y-36145003D01*
X21380499Y-36105606D01*
X21402172Y-36053281D01*
X21454497Y-36031606D01*
X21473653Y-36034128D01*
X21483624Y-36036800D01*
X21483625Y-36036800D01*
X21628577Y-36036800D01*
X21628577Y-36036799D01*
X21768585Y-35999284D01*
X21894115Y-35926809D01*
X21996609Y-35824315D01*
X22069084Y-35698785D01*
X22106599Y-35558777D01*
X22106600Y-35558777D01*
X22106600Y-35442528D01*
X22128274Y-35390202D01*
X22152289Y-35374158D01*
X22154580Y-35373208D01*
X22154587Y-35373207D01*
X22245913Y-35320480D01*
X22320480Y-35245913D01*
X22373207Y-35154587D01*
X22400499Y-35052729D01*
X22400500Y-35052729D01*
X22400500Y-33247271D01*
X22400499Y-33247270D01*
X22373208Y-33145417D01*
X22373207Y-33145413D01*
X22320480Y-33054087D01*
X22245913Y-32979520D01*
X22237218Y-32974500D01*
X22154591Y-32926795D01*
X22154582Y-32926791D01*
X22052729Y-32899500D01*
X22052727Y-32899500D01*
X21608676Y-32899500D01*
X21556350Y-32877826D01*
X21538015Y-32859491D01*
X21412486Y-32787016D01*
X21412481Y-32787014D01*
X21272477Y-32749500D01*
X21272475Y-32749500D01*
X21127525Y-32749500D01*
X21127523Y-32749500D01*
X20987518Y-32787014D01*
X20987513Y-32787016D01*
X20861500Y-32859771D01*
X20805348Y-32867164D01*
X20760414Y-32832685D01*
X20750500Y-32795685D01*
X20750500Y-32447271D01*
X20750499Y-32447270D01*
X20723208Y-32345417D01*
X20723207Y-32345413D01*
X20670480Y-32254087D01*
X20595913Y-32179520D01*
X20527291Y-32139901D01*
X20504591Y-32126795D01*
X20504582Y-32126791D01*
X20402729Y-32099500D01*
X20402727Y-32099500D01*
X18474500Y-32099500D01*
X18422174Y-32077826D01*
X18400500Y-32025500D01*
X18400500Y-30606384D01*
X19429500Y-30606384D01*
X19429500Y-30793615D01*
X19466025Y-30977244D01*
X19466027Y-30977251D01*
X19531496Y-31135308D01*
X19537678Y-31150231D01*
X19641698Y-31305908D01*
X19774092Y-31438302D01*
X19929769Y-31542322D01*
X20102749Y-31613973D01*
X20286384Y-31650500D01*
X20286385Y-31650500D01*
X20473615Y-31650500D01*
X20473616Y-31650500D01*
X20657251Y-31613973D01*
X20830231Y-31542322D01*
X20985908Y-31438302D01*
X21118302Y-31305908D01*
X21222322Y-31150231D01*
X21293973Y-30977251D01*
X21330500Y-30793616D01*
X21330500Y-30606384D01*
X21293973Y-30422749D01*
X21222322Y-30249769D01*
X21118302Y-30094092D01*
X20985908Y-29961698D01*
X20830231Y-29857678D01*
X20830228Y-29857676D01*
X20830227Y-29857676D01*
X20657251Y-29786027D01*
X20657244Y-29786025D01*
X20518902Y-29758507D01*
X20473616Y-29749500D01*
X20286384Y-29749500D01*
X20250056Y-29756725D01*
X20102755Y-29786025D01*
X20102748Y-29786027D01*
X19929772Y-29857676D01*
X19774092Y-29961697D01*
X19774091Y-29961699D01*
X19641699Y-30094091D01*
X19641697Y-30094092D01*
X19537676Y-30249772D01*
X19466027Y-30422748D01*
X19466025Y-30422755D01*
X19429500Y-30606384D01*
X18400500Y-30606384D01*
X18400500Y-28761230D01*
X18422174Y-28708904D01*
X18474500Y-28687230D01*
X18526826Y-28708904D01*
X18599711Y-28781789D01*
X18730821Y-28869394D01*
X18730826Y-28869396D01*
X18730825Y-28869396D01*
X18838592Y-28914034D01*
X18876503Y-28929737D01*
X19031158Y-28960500D01*
X19031160Y-28960500D01*
X19188840Y-28960500D01*
X19188842Y-28960500D01*
X19343497Y-28929737D01*
X19489179Y-28869394D01*
X19620289Y-28781789D01*
X19731789Y-28670289D01*
X19819394Y-28539179D01*
X19879737Y-28393497D01*
X19910500Y-28238842D01*
X19910500Y-28081158D01*
X19879737Y-27926503D01*
X19865573Y-27892308D01*
X19819396Y-27780825D01*
X19819395Y-27780823D01*
X19819394Y-27780821D01*
X19731789Y-27649711D01*
X19620289Y-27538211D01*
X19600517Y-27525000D01*
X19581449Y-27512259D01*
X19489179Y-27450606D01*
X19489175Y-27450604D01*
X19489173Y-27450603D01*
X19489174Y-27450603D01*
X19343501Y-27390264D01*
X19343491Y-27390261D01*
X19239925Y-27369661D01*
X19188842Y-27359500D01*
X19031158Y-27359500D01*
X18987315Y-27368220D01*
X18876508Y-27390261D01*
X18876498Y-27390264D01*
X18730825Y-27450603D01*
X18599711Y-27538210D01*
X18599710Y-27538212D01*
X18526826Y-27611096D01*
X18474500Y-27632770D01*
X18422174Y-27611096D01*
X18400500Y-27558770D01*
X18400500Y-26221230D01*
X18422174Y-26168904D01*
X18474500Y-26147230D01*
X18526826Y-26168904D01*
X18599711Y-26241789D01*
X18730821Y-26329394D01*
X18730826Y-26329396D01*
X18730825Y-26329396D01*
X18748681Y-26336792D01*
X18876503Y-26389737D01*
X19031158Y-26420500D01*
X19031160Y-26420500D01*
X19188840Y-26420500D01*
X19188842Y-26420500D01*
X19343497Y-26389737D01*
X19489179Y-26329394D01*
X19620289Y-26241789D01*
X19731789Y-26130289D01*
X19819394Y-25999179D01*
X19879737Y-25853497D01*
X19910500Y-25698842D01*
X19910500Y-25541158D01*
X19879737Y-25386503D01*
X19879735Y-25386498D01*
X19819396Y-25240825D01*
X19819395Y-25240823D01*
X19819394Y-25240821D01*
X19731789Y-25109711D01*
X19620289Y-24998211D01*
X19489179Y-24910606D01*
X19489175Y-24910604D01*
X19489173Y-24910603D01*
X19489174Y-24910603D01*
X19343501Y-24850264D01*
X19343491Y-24850261D01*
X19239925Y-24829661D01*
X19188842Y-24819500D01*
X19031158Y-24819500D01*
X18987315Y-24828220D01*
X18876508Y-24850261D01*
X18876498Y-24850264D01*
X18730825Y-24910603D01*
X18599711Y-24998210D01*
X18599710Y-24998212D01*
X18488212Y-25109710D01*
X18488210Y-25109711D01*
X18400603Y-25240825D01*
X18340264Y-25386498D01*
X18340261Y-25386508D01*
X18309500Y-25541159D01*
X18309500Y-25698841D01*
X18326489Y-25784254D01*
X18315439Y-25839803D01*
X18268347Y-25871268D01*
X18216911Y-25862776D01*
X18200846Y-25853501D01*
X18177121Y-25839803D01*
X18154591Y-25826795D01*
X18154582Y-25826791D01*
X18052729Y-25799500D01*
X18052727Y-25799500D01*
X11402727Y-25799500D01*
X11297273Y-25799500D01*
X11297271Y-25799500D01*
X11195417Y-25826791D01*
X11195408Y-25826795D01*
X11104086Y-25879520D01*
X11029520Y-25954086D01*
X10976795Y-26045408D01*
X10976791Y-26045417D01*
X10949500Y-26147270D01*
X10949500Y-26400500D01*
X10927826Y-26452826D01*
X10875500Y-26474500D01*
X10699997Y-26474500D01*
X10603284Y-26489818D01*
X10486718Y-26549211D01*
X10394211Y-26641718D01*
X10334817Y-26758285D01*
X10319500Y-26854995D01*
X10319500Y-27108365D01*
X10297826Y-27160691D01*
X10245500Y-27182365D01*
X10220939Y-27178170D01*
X9729938Y-27005410D01*
X9687772Y-26967597D01*
X9680499Y-26935605D01*
X9680499Y-26854997D01*
X9676943Y-26832545D01*
X9665182Y-26758285D01*
X9605789Y-26641719D01*
X9513281Y-26549211D01*
X9396714Y-26489817D01*
X9300005Y-26474500D01*
X9300003Y-26474500D01*
X8600834Y-26474500D01*
X8548508Y-26452826D01*
X8432474Y-26336792D01*
X8410800Y-26284466D01*
X8410800Y-26187823D01*
X8410799Y-26187822D01*
X8373285Y-26047818D01*
X8373283Y-26047813D01*
X8300808Y-25922284D01*
X8198315Y-25819791D01*
X8072786Y-25747316D01*
X8072781Y-25747314D01*
X7932777Y-25709800D01*
X7932775Y-25709800D01*
X7787825Y-25709800D01*
X7787823Y-25709800D01*
X7647818Y-25747314D01*
X7647813Y-25747316D01*
X7522284Y-25819791D01*
X7419791Y-25922284D01*
X7347316Y-26047813D01*
X7347314Y-26047818D01*
X7309800Y-26187822D01*
X7309800Y-26187825D01*
X7309800Y-26332775D01*
X7332178Y-26416289D01*
X7340861Y-26448695D01*
X7333468Y-26504848D01*
X7288535Y-26539327D01*
X7232382Y-26531934D01*
X7217056Y-26520174D01*
X6854374Y-26157492D01*
X6832700Y-26105166D01*
X6832700Y-23001159D01*
X18309500Y-23001159D01*
X18309500Y-23158840D01*
X18340261Y-23313491D01*
X18340264Y-23313501D01*
X18400603Y-23459174D01*
X18400605Y-23459177D01*
X18400606Y-23459179D01*
X18444997Y-23525615D01*
X18487808Y-23589687D01*
X18488211Y-23590289D01*
X18599711Y-23701789D01*
X18730821Y-23789394D01*
X18730826Y-23789396D01*
X18730825Y-23789396D01*
X18876498Y-23849735D01*
X18876503Y-23849737D01*
X19031158Y-23880500D01*
X19031160Y-23880500D01*
X19188840Y-23880500D01*
X19188842Y-23880500D01*
X19343497Y-23849737D01*
X19489179Y-23789394D01*
X19620289Y-23701789D01*
X19731789Y-23590289D01*
X19819394Y-23459179D01*
X19879737Y-23313497D01*
X19910500Y-23158842D01*
X19910500Y-23001158D01*
X19879737Y-22846503D01*
X19850120Y-22775000D01*
X19819396Y-22700825D01*
X19819395Y-22700823D01*
X19819394Y-22700821D01*
X19731789Y-22569711D01*
X19620289Y-22458211D01*
X19489179Y-22370606D01*
X19489175Y-22370604D01*
X19489173Y-22370603D01*
X19489174Y-22370603D01*
X19343501Y-22310264D01*
X19343491Y-22310261D01*
X19236717Y-22289023D01*
X19188842Y-22279500D01*
X19031158Y-22279500D01*
X18987315Y-22288220D01*
X18876508Y-22310261D01*
X18876498Y-22310264D01*
X18730825Y-22370603D01*
X18599711Y-22458210D01*
X18599710Y-22458212D01*
X18488212Y-22569710D01*
X18488210Y-22569711D01*
X18400603Y-22700825D01*
X18340264Y-22846498D01*
X18340261Y-22846508D01*
X18328446Y-22905909D01*
X18309731Y-23000000D01*
X18309500Y-23001159D01*
X6832700Y-23001159D01*
X6832700Y-22843954D01*
X6854374Y-22791628D01*
X6906700Y-22769954D01*
X6915525Y-22770482D01*
X6953138Y-22775000D01*
X7012500Y-22775000D01*
X7412500Y-22775000D01*
X7471863Y-22775000D01*
X7555226Y-22764988D01*
X7687882Y-22712676D01*
X7801509Y-22626509D01*
X7887676Y-22512882D01*
X7939988Y-22380226D01*
X7950000Y-22296863D01*
X7950000Y-22200000D01*
X7412500Y-22200000D01*
X7412500Y-22775000D01*
X7012500Y-22775000D01*
X7012500Y-21800000D01*
X7412500Y-21800000D01*
X7950000Y-21800000D01*
X7950000Y-21703140D01*
X7949999Y-21703133D01*
X7949487Y-21698869D01*
X8099500Y-21698869D01*
X8099500Y-22301130D01*
X8105509Y-22357021D01*
X8105510Y-22357026D01*
X8152662Y-22483448D01*
X8152663Y-22483449D01*
X8152664Y-22483450D01*
X8233528Y-22591472D01*
X8308889Y-22647886D01*
X8341550Y-22672336D01*
X8341551Y-22672337D01*
X8445561Y-22711130D01*
X8467978Y-22719491D01*
X8518443Y-22724916D01*
X8523869Y-22725500D01*
X8523870Y-22725500D01*
X9051131Y-22725500D01*
X9056076Y-22724968D01*
X9107022Y-22719491D01*
X9200773Y-22684524D01*
X9233448Y-22672337D01*
X9233448Y-22672336D01*
X9233450Y-22672336D01*
X9341472Y-22591472D01*
X9422336Y-22483450D01*
X9469491Y-22357022D01*
X9473167Y-22322828D01*
X14475000Y-22322828D01*
X14481402Y-22382375D01*
X14481403Y-22382380D01*
X14531645Y-22517087D01*
X14531646Y-22517088D01*
X14617811Y-22632188D01*
X14732911Y-22718353D01*
X14732912Y-22718354D01*
X14867619Y-22768596D01*
X14867624Y-22768597D01*
X14927171Y-22775000D01*
X14975000Y-22775000D01*
X15375000Y-22775000D01*
X15422829Y-22775000D01*
X15482375Y-22768597D01*
X15482380Y-22768596D01*
X15617087Y-22718354D01*
X15617088Y-22718353D01*
X15732188Y-22632188D01*
X15818353Y-22517088D01*
X15818354Y-22517087D01*
X15868596Y-22382380D01*
X15868597Y-22382375D01*
X15875000Y-22322828D01*
X15875000Y-22200000D01*
X15375000Y-22200000D01*
X15375000Y-22775000D01*
X14975000Y-22775000D01*
X14975000Y-22200000D01*
X14475000Y-22200000D01*
X14475000Y-22322828D01*
X9473167Y-22322828D01*
X9475500Y-22301130D01*
X9475500Y-21838332D01*
X9497173Y-21786007D01*
X9606009Y-21677171D01*
X14475000Y-21677171D01*
X14475000Y-21800000D01*
X14975000Y-21800000D01*
X14975000Y-21225000D01*
X14927171Y-21225000D01*
X14867624Y-21231402D01*
X14867619Y-21231403D01*
X14732912Y-21281645D01*
X14732911Y-21281646D01*
X14617811Y-21367811D01*
X14531646Y-21482911D01*
X14531645Y-21482912D01*
X14481403Y-21617619D01*
X14481402Y-21617624D01*
X14475000Y-21677171D01*
X9606009Y-21677171D01*
X13709469Y-17573712D01*
X13755614Y-17493788D01*
X13762016Y-17469896D01*
X13779500Y-17404644D01*
X13779500Y-14976333D01*
X13801173Y-14924008D01*
X15137119Y-13588061D01*
X15189445Y-13566388D01*
X15241771Y-13588062D01*
X15258887Y-13614819D01*
X15261397Y-13621638D01*
X15264354Y-13640304D01*
X15278475Y-13668018D01*
X15279994Y-13672143D01*
X15279026Y-13696386D01*
X15280930Y-13720580D01*
X15277860Y-13725588D01*
X15277735Y-13728735D01*
X15273584Y-13732567D01*
X15262878Y-13750038D01*
X14361030Y-14651887D01*
X14314886Y-14731810D01*
X14314884Y-14731815D01*
X14291000Y-14820953D01*
X14291000Y-19862646D01*
X14314884Y-19951784D01*
X14314886Y-19951789D01*
X14354979Y-20021232D01*
X14361030Y-20031712D01*
X15248497Y-20919179D01*
X15427993Y-21098674D01*
X15449667Y-21151000D01*
X15427993Y-21203326D01*
X15375667Y-21225000D01*
X15375000Y-21225000D01*
X15375000Y-21800000D01*
X15875000Y-21800000D01*
X15875000Y-21724333D01*
X15896674Y-21672007D01*
X15949000Y-21650333D01*
X16001326Y-21672007D01*
X16152826Y-21823507D01*
X16174500Y-21875833D01*
X16174500Y-22329266D01*
X16177354Y-22359699D01*
X16177354Y-22359701D01*
X16177355Y-22359704D01*
X16222206Y-22487881D01*
X16222207Y-22487883D01*
X16302846Y-22597146D01*
X16302853Y-22597153D01*
X16412116Y-22677792D01*
X16412118Y-22677793D01*
X16540295Y-22722644D01*
X16540301Y-22722646D01*
X16570734Y-22725500D01*
X16570741Y-22725500D01*
X17079258Y-22725500D01*
X17079266Y-22725500D01*
X17109699Y-22722646D01*
X17237882Y-22677793D01*
X17347150Y-22597150D01*
X17427793Y-22487882D01*
X17472646Y-22359699D01*
X17475500Y-22329266D01*
X17475500Y-21670734D01*
X17472646Y-21640301D01*
X17427793Y-21512118D01*
X17409342Y-21487117D01*
X17347153Y-21402853D01*
X17347146Y-21402846D01*
X17237883Y-21322207D01*
X17237881Y-21322206D01*
X17109704Y-21277355D01*
X17109705Y-21277355D01*
X17109700Y-21277354D01*
X17109699Y-21277354D01*
X17079266Y-21274500D01*
X17079260Y-21274500D01*
X16625833Y-21274500D01*
X16573507Y-21252826D01*
X15830531Y-20509849D01*
X15781840Y-20461158D01*
X18309500Y-20461158D01*
X18309500Y-20618842D01*
X18319661Y-20669925D01*
X18340261Y-20773491D01*
X18340264Y-20773501D01*
X18400603Y-20919174D01*
X18400605Y-20919177D01*
X18400606Y-20919179D01*
X18488211Y-21050289D01*
X18599711Y-21161789D01*
X18730821Y-21249394D01*
X18730826Y-21249396D01*
X18730825Y-21249396D01*
X18822390Y-21287323D01*
X18876503Y-21309737D01*
X19031158Y-21340500D01*
X19031160Y-21340500D01*
X19188840Y-21340500D01*
X19188842Y-21340500D01*
X19343497Y-21309737D01*
X19489179Y-21249394D01*
X19620289Y-21161789D01*
X19731789Y-21050289D01*
X19819394Y-20919179D01*
X19879737Y-20773497D01*
X19910500Y-20618842D01*
X19910500Y-20461158D01*
X19879737Y-20306503D01*
X19852890Y-20241687D01*
X19819396Y-20160825D01*
X19819395Y-20160823D01*
X19819394Y-20160821D01*
X19731789Y-20029711D01*
X19620289Y-19918211D01*
X19489179Y-19830606D01*
X19489175Y-19830604D01*
X19489173Y-19830603D01*
X19489174Y-19830603D01*
X19343501Y-19770264D01*
X19343491Y-19770261D01*
X19239925Y-19749661D01*
X19188842Y-19739500D01*
X19031158Y-19739500D01*
X18987315Y-19748220D01*
X18876508Y-19770261D01*
X18876498Y-19770264D01*
X18730825Y-19830603D01*
X18599711Y-19918210D01*
X18599710Y-19918212D01*
X18488212Y-20029710D01*
X18488210Y-20029711D01*
X18400603Y-20160825D01*
X18340264Y-20306498D01*
X18340263Y-20306503D01*
X18309500Y-20461158D01*
X15781840Y-20461158D01*
X15297508Y-19976826D01*
X15275834Y-19924500D01*
X15297508Y-19872174D01*
X15349834Y-19850500D01*
X16897875Y-19850500D01*
X16903149Y-19849932D01*
X16957484Y-19844091D01*
X17092331Y-19793796D01*
X17207547Y-19707547D01*
X17293796Y-19592331D01*
X17344091Y-19457484D01*
X17350500Y-19397874D01*
X17350500Y-17921158D01*
X18309500Y-17921158D01*
X18309500Y-18078842D01*
X18319661Y-18129925D01*
X18340261Y-18233491D01*
X18340264Y-18233501D01*
X18400603Y-18379174D01*
X18400605Y-18379177D01*
X18400606Y-18379179D01*
X18488211Y-18510289D01*
X18599711Y-18621789D01*
X18730821Y-18709394D01*
X18730826Y-18709396D01*
X18730825Y-18709396D01*
X18762674Y-18722588D01*
X18876503Y-18769737D01*
X19031158Y-18800500D01*
X19031160Y-18800500D01*
X19188840Y-18800500D01*
X19188842Y-18800500D01*
X19343497Y-18769737D01*
X19489179Y-18709394D01*
X19620289Y-18621789D01*
X19731789Y-18510289D01*
X19819394Y-18379179D01*
X19879737Y-18233497D01*
X19910500Y-18078842D01*
X19910500Y-17921158D01*
X19879737Y-17766503D01*
X19848049Y-17690000D01*
X19819396Y-17620825D01*
X19819395Y-17620823D01*
X19819394Y-17620821D01*
X19731789Y-17489711D01*
X19620289Y-17378211D01*
X19489179Y-17290606D01*
X19489175Y-17290604D01*
X19489173Y-17290603D01*
X19489174Y-17290603D01*
X19343501Y-17230264D01*
X19343491Y-17230261D01*
X19239925Y-17209661D01*
X19188842Y-17199500D01*
X19031158Y-17199500D01*
X18997460Y-17206203D01*
X18876508Y-17230261D01*
X18876498Y-17230264D01*
X18730825Y-17290603D01*
X18599711Y-17378210D01*
X18599710Y-17378212D01*
X18488212Y-17489710D01*
X18488210Y-17489711D01*
X18400603Y-17620825D01*
X18340264Y-17766498D01*
X18340261Y-17766508D01*
X18314580Y-17895616D01*
X18309500Y-17921158D01*
X17350500Y-17921158D01*
X17350500Y-17602126D01*
X17344091Y-17542516D01*
X17293796Y-17407669D01*
X17207547Y-17292453D01*
X17124472Y-17230264D01*
X17092330Y-17206203D01*
X16957488Y-17155910D01*
X16957485Y-17155909D01*
X16957484Y-17155909D01*
X16926084Y-17152533D01*
X16897875Y-17149500D01*
X16897874Y-17149500D01*
X15102126Y-17149500D01*
X15102123Y-17149500D01*
X15073909Y-17152533D01*
X15019567Y-17136576D01*
X14992424Y-17086866D01*
X14992000Y-17078957D01*
X14992000Y-15042933D01*
X15013673Y-14990608D01*
X16067108Y-13937172D01*
X16119434Y-13915499D01*
X17331519Y-13915499D01*
X17425304Y-13900646D01*
X17425306Y-13900645D01*
X17438683Y-13893829D01*
X17538342Y-13843050D01*
X17628050Y-13753342D01*
X17685646Y-13640304D01*
X17700500Y-13546519D01*
X17700499Y-13183482D01*
X17695750Y-13153497D01*
X17685646Y-13089695D01*
X17685645Y-13089693D01*
X17655770Y-13031061D01*
X17628050Y-12976658D01*
X17538342Y-12886950D01*
X17448473Y-12841159D01*
X18309500Y-12841159D01*
X18309500Y-12998840D01*
X18340261Y-13153491D01*
X18340264Y-13153501D01*
X18400603Y-13299174D01*
X18400605Y-13299177D01*
X18400606Y-13299179D01*
X18488211Y-13430289D01*
X18599711Y-13541789D01*
X18730821Y-13629394D01*
X18730826Y-13629396D01*
X18730825Y-13629396D01*
X18769632Y-13645470D01*
X18876503Y-13689737D01*
X19031158Y-13720500D01*
X19031160Y-13720500D01*
X19188840Y-13720500D01*
X19188842Y-13720500D01*
X19343497Y-13689737D01*
X19489179Y-13629394D01*
X19620289Y-13541789D01*
X19731789Y-13430289D01*
X19819394Y-13299179D01*
X19879737Y-13153497D01*
X19910500Y-12998842D01*
X19910500Y-12841158D01*
X19879737Y-12686503D01*
X19879735Y-12686498D01*
X19819396Y-12540825D01*
X19819395Y-12540823D01*
X19819394Y-12540821D01*
X19731789Y-12409711D01*
X19620289Y-12298211D01*
X19608907Y-12290606D01*
X19587823Y-12276518D01*
X19489179Y-12210606D01*
X19489175Y-12210604D01*
X19489173Y-12210603D01*
X19489174Y-12210603D01*
X19343501Y-12150264D01*
X19343491Y-12150261D01*
X19239925Y-12129661D01*
X19188842Y-12119500D01*
X19031158Y-12119500D01*
X18987315Y-12128220D01*
X18876508Y-12150261D01*
X18876498Y-12150264D01*
X18730825Y-12210603D01*
X18599711Y-12298210D01*
X18599710Y-12298212D01*
X18488212Y-12409710D01*
X18488210Y-12409711D01*
X18400603Y-12540825D01*
X18340264Y-12686498D01*
X18340261Y-12686508D01*
X18309500Y-12841159D01*
X17448473Y-12841159D01*
X17425304Y-12829354D01*
X17425302Y-12829353D01*
X17425301Y-12829353D01*
X17331520Y-12814500D01*
X17331519Y-12814500D01*
X16089333Y-12814500D01*
X16037007Y-12792826D01*
X16015333Y-12740500D01*
X16037007Y-12688174D01*
X16058008Y-12667173D01*
X16110334Y-12645499D01*
X17331519Y-12645499D01*
X17425304Y-12630646D01*
X17425306Y-12630645D01*
X17427419Y-12629568D01*
X17538342Y-12573050D01*
X17628050Y-12483342D01*
X17685646Y-12370304D01*
X17700500Y-12276519D01*
X17700499Y-11944999D01*
X17722173Y-11892674D01*
X17774499Y-11871000D01*
X20182166Y-11871000D01*
X20234492Y-11892674D01*
X20841326Y-12499508D01*
X20863000Y-12551834D01*
X20863000Y-15859200D01*
X20841326Y-15911526D01*
X20789000Y-15933200D01*
X19891198Y-15933200D01*
X19838872Y-15911526D01*
X19817198Y-15859200D01*
X19822831Y-15830882D01*
X19879735Y-15693501D01*
X19879737Y-15693497D01*
X19910500Y-15538842D01*
X19910500Y-15381158D01*
X19879737Y-15226503D01*
X19858197Y-15174500D01*
X19819396Y-15080825D01*
X19819395Y-15080823D01*
X19819394Y-15080821D01*
X19731789Y-14949711D01*
X19620289Y-14838211D01*
X19489179Y-14750606D01*
X19489175Y-14750604D01*
X19489173Y-14750603D01*
X19489174Y-14750603D01*
X19343501Y-14690264D01*
X19343491Y-14690261D01*
X19239925Y-14669661D01*
X19188842Y-14659500D01*
X19031158Y-14659500D01*
X18987315Y-14668220D01*
X18876508Y-14690261D01*
X18876498Y-14690264D01*
X18730825Y-14750603D01*
X18599711Y-14838210D01*
X18599710Y-14838212D01*
X18488212Y-14949710D01*
X18488210Y-14949711D01*
X18400603Y-15080825D01*
X18340264Y-15226498D01*
X18340261Y-15226508D01*
X18309500Y-15381159D01*
X18309500Y-15538840D01*
X18340261Y-15693491D01*
X18340264Y-15693501D01*
X18397169Y-15830882D01*
X18397169Y-15887519D01*
X18357120Y-15927567D01*
X18328802Y-15933200D01*
X17774500Y-15933200D01*
X17722174Y-15911526D01*
X17700500Y-15859201D01*
X17700499Y-15723480D01*
X17685646Y-15629695D01*
X17685645Y-15629693D01*
X17629694Y-15519885D01*
X17628050Y-15516658D01*
X17538342Y-15426950D01*
X17425304Y-15369354D01*
X17425302Y-15369353D01*
X17425301Y-15369353D01*
X17331519Y-15354500D01*
X15618480Y-15354500D01*
X15524695Y-15369353D01*
X15524693Y-15369354D01*
X15411657Y-15426950D01*
X15321951Y-15516656D01*
X15264353Y-15629698D01*
X15249500Y-15723480D01*
X15249500Y-16086519D01*
X15264353Y-16180304D01*
X15264354Y-16180306D01*
X15305216Y-16260500D01*
X15321950Y-16293342D01*
X15411658Y-16383050D01*
X15524696Y-16440646D01*
X15618481Y-16455500D01*
X16499165Y-16455499D01*
X16551491Y-16477173D01*
X16638488Y-16564170D01*
X16645697Y-16568332D01*
X16710638Y-16605826D01*
X16718412Y-16610314D01*
X16718413Y-16610314D01*
X16718415Y-16610315D01*
X16762984Y-16622257D01*
X16807553Y-16634199D01*
X16807554Y-16634200D01*
X16807556Y-16634200D01*
X16807557Y-16634200D01*
X16899844Y-16634200D01*
X21037666Y-16634200D01*
X21089992Y-16655874D01*
X21596126Y-17162007D01*
X21617800Y-17214333D01*
X21617800Y-31663846D01*
X21632555Y-31718911D01*
X21632555Y-31718912D01*
X21641684Y-31752983D01*
X21641686Y-31752988D01*
X21687830Y-31832912D01*
X27177826Y-37322908D01*
X27199500Y-37375234D01*
X27199500Y-46425021D01*
X27177826Y-46477347D01*
X27153821Y-46493387D01*
X27152261Y-46494032D01*
X27069399Y-46549398D01*
X27069398Y-46549399D01*
X27014034Y-46632259D01*
X26999500Y-46705327D01*
X26999500Y-48204672D01*
X27010365Y-48259295D01*
X26999316Y-48314844D01*
X26956940Y-48345210D01*
X26887869Y-48363717D01*
X26887860Y-48363721D01*
X26756637Y-48439483D01*
X26649483Y-48546637D01*
X26573721Y-48677860D01*
X26573717Y-48677869D01*
X26534500Y-48824231D01*
X26534500Y-48975768D01*
X26573717Y-49122130D01*
X26573721Y-49122139D01*
X26649483Y-49253362D01*
X26649485Y-49253365D01*
X26756635Y-49360515D01*
X26887865Y-49436281D01*
X27034231Y-49475499D01*
X27034232Y-49475500D01*
X27034234Y-49475500D01*
X27185768Y-49475500D01*
X27185768Y-49475499D01*
X27332135Y-49436281D01*
X27463365Y-49360515D01*
X27570515Y-49253365D01*
X27646281Y-49122135D01*
X27685499Y-48975768D01*
X27685500Y-48975768D01*
X27685500Y-48824232D01*
X27685499Y-48824231D01*
X27672205Y-48774618D01*
X27646281Y-48677865D01*
X27570515Y-48546635D01*
X27570514Y-48546634D01*
X27568090Y-48542435D01*
X27570481Y-48541054D01*
X27558088Y-48494868D01*
X27586388Y-48445809D01*
X27631458Y-48430500D01*
X27874672Y-48430500D01*
X27874674Y-48430500D01*
X27947740Y-48415966D01*
X27947740Y-48415965D01*
X27954888Y-48414544D01*
X27955258Y-48416404D01*
X27994742Y-48416402D01*
X27995112Y-48414544D01*
X28002259Y-48415965D01*
X28002260Y-48415966D01*
X28075326Y-48430500D01*
X28139884Y-48430500D01*
X28192210Y-48452174D01*
X28213884Y-48504500D01*
X28211363Y-48523653D01*
X28199500Y-48567926D01*
X28199500Y-48712877D01*
X28237014Y-48852881D01*
X28237016Y-48852886D01*
X28251622Y-48878184D01*
X28309491Y-48978415D01*
X28411985Y-49080909D01*
X28537515Y-49153384D01*
X28537516Y-49153384D01*
X28537518Y-49153385D01*
X28607520Y-49172142D01*
X28677522Y-49190899D01*
X28677523Y-49190900D01*
X28677525Y-49190900D01*
X28822477Y-49190900D01*
X28822477Y-49190899D01*
X28962485Y-49153384D01*
X29088015Y-49080909D01*
X29190509Y-48978415D01*
X29262984Y-48852885D01*
X29300499Y-48712877D01*
X29300500Y-48712877D01*
X29300500Y-48567926D01*
X29288637Y-48523653D01*
X29289474Y-48517289D01*
X29286460Y-48511626D01*
X29293072Y-48489960D01*
X29296030Y-48467500D01*
X29301120Y-48463593D01*
X29302994Y-48457456D01*
X29318903Y-48449948D01*
X29340963Y-48433021D01*
X29352990Y-48430844D01*
X29356545Y-48430500D01*
X29424674Y-48430500D01*
X29489192Y-48417666D01*
X29492874Y-48417310D01*
X29496406Y-48418388D01*
X29514436Y-48418388D01*
X29575326Y-48430500D01*
X29575328Y-48430500D01*
X29924672Y-48430500D01*
X29924674Y-48430500D01*
X29985564Y-48418388D01*
X30014436Y-48418388D01*
X30075326Y-48430500D01*
X30075328Y-48430500D01*
X30424672Y-48430500D01*
X30424674Y-48430500D01*
X30485564Y-48418388D01*
X30514436Y-48418388D01*
X30575326Y-48430500D01*
X30575328Y-48430500D01*
X30924672Y-48430500D01*
X30924674Y-48430500D01*
X30985564Y-48418388D01*
X31014436Y-48418388D01*
X31075326Y-48430500D01*
X31325500Y-48430500D01*
X31377826Y-48452174D01*
X31399500Y-48504500D01*
X31399500Y-49062046D01*
X31418917Y-49134509D01*
X31418918Y-49134513D01*
X31423384Y-49151183D01*
X31423384Y-49151185D01*
X31423386Y-49151188D01*
X31469530Y-49231112D01*
X32656688Y-50418270D01*
X32736612Y-50464414D01*
X32736613Y-50464414D01*
X32736615Y-50464415D01*
X32781184Y-50476357D01*
X32825753Y-50488299D01*
X32825754Y-50488300D01*
X32825756Y-50488300D01*
X44535158Y-50488300D01*
X44587484Y-50509974D01*
X44594698Y-50518357D01*
X44652849Y-50597149D01*
X44652853Y-50597153D01*
X44762116Y-50677792D01*
X44762118Y-50677793D01*
X44890295Y-50722644D01*
X44890301Y-50722646D01*
X44920734Y-50725500D01*
X44920741Y-50725500D01*
X45429258Y-50725500D01*
X45429266Y-50725500D01*
X45459699Y-50722646D01*
X45587882Y-50677793D01*
X45697150Y-50597150D01*
X45777793Y-50487882D01*
X45822646Y-50359699D01*
X45825500Y-50329266D01*
X45825500Y-49694300D01*
X45847174Y-49641974D01*
X45899500Y-49620300D01*
X46100500Y-49620300D01*
X46152826Y-49641974D01*
X46174500Y-49694300D01*
X46174500Y-50329266D01*
X46177354Y-50359699D01*
X46177354Y-50359701D01*
X46177355Y-50359704D01*
X46222206Y-50487881D01*
X46222207Y-50487883D01*
X46302846Y-50597146D01*
X46302853Y-50597153D01*
X46412116Y-50677792D01*
X46412118Y-50677793D01*
X46540295Y-50722644D01*
X46540301Y-50722646D01*
X46570734Y-50725500D01*
X46570741Y-50725500D01*
X47079258Y-50725500D01*
X47079266Y-50725500D01*
X47109699Y-50722646D01*
X47237882Y-50677793D01*
X47347150Y-50597150D01*
X47427793Y-50487882D01*
X47472646Y-50359699D01*
X47475500Y-50329266D01*
X47475500Y-49670734D01*
X47472646Y-49640301D01*
X47427793Y-49512118D01*
X47347150Y-49402850D01*
X47324554Y-49386173D01*
X47295325Y-49337663D01*
X47308958Y-49282691D01*
X47316163Y-49274317D01*
X47455470Y-49135012D01*
X47501614Y-49055088D01*
X47514157Y-49008276D01*
X47524337Y-48970286D01*
X47524337Y-48970281D01*
X47525500Y-48965944D01*
X47525500Y-46752127D01*
X47547174Y-46699801D01*
X47575060Y-46682279D01*
X47587882Y-46677793D01*
X47697150Y-46597150D01*
X47777793Y-46487882D01*
X47822646Y-46359699D01*
X47825500Y-46329266D01*
X47825500Y-45674834D01*
X47847174Y-45622508D01*
X47899500Y-45600834D01*
X47951826Y-45622508D01*
X48152826Y-45823508D01*
X48174500Y-45875834D01*
X48174500Y-46329266D01*
X48177354Y-46359699D01*
X48177354Y-46359701D01*
X48177355Y-46359704D01*
X48222206Y-46487881D01*
X48222207Y-46487883D01*
X48302846Y-46597146D01*
X48302853Y-46597153D01*
X48412116Y-46677792D01*
X48412118Y-46677793D01*
X48540295Y-46722644D01*
X48540301Y-46722646D01*
X48570734Y-46725500D01*
X48570741Y-46725500D01*
X49079258Y-46725500D01*
X49079266Y-46725500D01*
X49109699Y-46722646D01*
X49237882Y-46677793D01*
X49347150Y-46597150D01*
X49397084Y-46529491D01*
X51850000Y-46529491D01*
X51850000Y-46710508D01*
X51878316Y-46889289D01*
X51878319Y-46889302D01*
X51934251Y-47061443D01*
X52016431Y-47222728D01*
X52057668Y-47279487D01*
X52531980Y-46805174D01*
X52534075Y-46812993D01*
X52599901Y-46927007D01*
X52692993Y-47020099D01*
X52807007Y-47085925D01*
X52814822Y-47088019D01*
X52340511Y-47562331D01*
X52397266Y-47603566D01*
X52558556Y-47685748D01*
X52558555Y-47685748D01*
X52730697Y-47741680D01*
X52730710Y-47741683D01*
X52909491Y-47770000D01*
X53090509Y-47770000D01*
X53269289Y-47741683D01*
X53269302Y-47741680D01*
X53441443Y-47685748D01*
X53602729Y-47603568D01*
X53659487Y-47562331D01*
X53185176Y-47088019D01*
X53192993Y-47085925D01*
X53307007Y-47020099D01*
X53400099Y-46927007D01*
X53465925Y-46812993D01*
X53468019Y-46805176D01*
X53942331Y-47279487D01*
X53983568Y-47222729D01*
X54065748Y-47061443D01*
X54121680Y-46889302D01*
X54121683Y-46889289D01*
X54150000Y-46710508D01*
X54150000Y-46529491D01*
X54121683Y-46350710D01*
X54121680Y-46350697D01*
X54065748Y-46178556D01*
X53983566Y-46017267D01*
X53983566Y-46017266D01*
X53942331Y-45960511D01*
X53468019Y-46434822D01*
X53465925Y-46427007D01*
X53400099Y-46312993D01*
X53307007Y-46219901D01*
X53192993Y-46154075D01*
X53185174Y-46151980D01*
X53659487Y-45677668D01*
X53602728Y-45636431D01*
X53441443Y-45554251D01*
X53441444Y-45554251D01*
X53269302Y-45498319D01*
X53269289Y-45498316D01*
X53090509Y-45470000D01*
X52909491Y-45470000D01*
X52730710Y-45498316D01*
X52730697Y-45498319D01*
X52558558Y-45554250D01*
X52397268Y-45636431D01*
X52340511Y-45677667D01*
X52340511Y-45677668D01*
X52814823Y-46151980D01*
X52807007Y-46154075D01*
X52692993Y-46219901D01*
X52599901Y-46312993D01*
X52534075Y-46427007D01*
X52531980Y-46434823D01*
X52057668Y-45960511D01*
X52057667Y-45960511D01*
X52016431Y-46017268D01*
X51934250Y-46178558D01*
X51878319Y-46350697D01*
X51878316Y-46350710D01*
X51850000Y-46529491D01*
X49397084Y-46529491D01*
X49427793Y-46487882D01*
X49472646Y-46359699D01*
X49475500Y-46329266D01*
X49475500Y-45670734D01*
X49472646Y-45640301D01*
X49427793Y-45512118D01*
X49396709Y-45470000D01*
X49347153Y-45402853D01*
X49347146Y-45402846D01*
X49237883Y-45322207D01*
X49237881Y-45322206D01*
X49109704Y-45277355D01*
X49109705Y-45277355D01*
X49109700Y-45277354D01*
X49109699Y-45277354D01*
X49079266Y-45274500D01*
X49079260Y-45274500D01*
X48625834Y-45274500D01*
X48573508Y-45252826D01*
X48245412Y-44924730D01*
X48165489Y-44878586D01*
X48165484Y-44878584D01*
X48076346Y-44854700D01*
X48076344Y-44854700D01*
X46804056Y-44854700D01*
X46804054Y-44854700D01*
X46714915Y-44878584D01*
X46714910Y-44878586D01*
X46634987Y-44924730D01*
X44821753Y-46737963D01*
X44769427Y-46759637D01*
X44717101Y-46737963D01*
X44696338Y-46697213D01*
X44685646Y-46629696D01*
X44685645Y-46629694D01*
X44685645Y-46629693D01*
X44644732Y-46549398D01*
X44628050Y-46516658D01*
X44538342Y-46426950D01*
X44425304Y-46369354D01*
X44425302Y-46369353D01*
X44425301Y-46369353D01*
X44331520Y-46354500D01*
X44331519Y-46354500D01*
X43121634Y-46354500D01*
X43069308Y-46332826D01*
X43048307Y-46311825D01*
X43026633Y-46259499D01*
X43048307Y-46207173D01*
X43100633Y-46185499D01*
X44331519Y-46185499D01*
X44425304Y-46170646D01*
X44425306Y-46170645D01*
X44457826Y-46154075D01*
X44538342Y-46113050D01*
X44628050Y-46023342D01*
X44685646Y-45910304D01*
X44700500Y-45816519D01*
X44700499Y-45453482D01*
X44685646Y-45359696D01*
X44681950Y-45352442D01*
X44677507Y-45295980D01*
X44695557Y-45266523D01*
X46375270Y-43586812D01*
X46421414Y-43506888D01*
X46427723Y-43483342D01*
X46445300Y-43417744D01*
X46445300Y-42897646D01*
X46699500Y-42897646D01*
X46699500Y-43102353D01*
X46731522Y-43304531D01*
X46731525Y-43304544D01*
X46794777Y-43499213D01*
X46887712Y-43681610D01*
X46928021Y-43737090D01*
X47008034Y-43847219D01*
X47152781Y-43991966D01*
X47244695Y-44058745D01*
X47318389Y-44112287D01*
X47406300Y-44157079D01*
X47500781Y-44205220D01*
X47500783Y-44205220D01*
X47500786Y-44205222D01*
X47695455Y-44268474D01*
X47695461Y-44268475D01*
X47695466Y-44268477D01*
X47796557Y-44284488D01*
X47897646Y-44300500D01*
X47897648Y-44300500D01*
X48102354Y-44300500D01*
X48183224Y-44287690D01*
X48304534Y-44268477D01*
X48304541Y-44268474D01*
X48304544Y-44268474D01*
X48499213Y-44205222D01*
X48499213Y-44205221D01*
X48499219Y-44205220D01*
X48681610Y-44112287D01*
X48845262Y-43993388D01*
X51899500Y-43993388D01*
X51899500Y-44166611D01*
X51926597Y-44337698D01*
X51926600Y-44337711D01*
X51980125Y-44502442D01*
X51980127Y-44502446D01*
X52058767Y-44656787D01*
X52129357Y-44753946D01*
X52160586Y-44796928D01*
X52283072Y-44919414D01*
X52283075Y-44919416D01*
X52283076Y-44919417D01*
X52423212Y-45021232D01*
X52577553Y-45099872D01*
X52577557Y-45099874D01*
X52742288Y-45153399D01*
X52742294Y-45153400D01*
X52742299Y-45153402D01*
X52856359Y-45171467D01*
X52913388Y-45180500D01*
X52913389Y-45180500D01*
X53086612Y-45180500D01*
X53129383Y-45173725D01*
X53257701Y-45153402D01*
X53257708Y-45153399D01*
X53257711Y-45153399D01*
X53422442Y-45099874D01*
X53422442Y-45099873D01*
X53422445Y-45099873D01*
X53576788Y-45021232D01*
X53716928Y-44919414D01*
X53839414Y-44796928D01*
X53941232Y-44656788D01*
X54019873Y-44502445D01*
X54073402Y-44337701D01*
X54100500Y-44166611D01*
X54100500Y-43993389D01*
X54073402Y-43822299D01*
X54073400Y-43822294D01*
X54073399Y-43822288D01*
X54019874Y-43657557D01*
X54019872Y-43657553D01*
X53941232Y-43503212D01*
X53839417Y-43363076D01*
X53839416Y-43363075D01*
X53839414Y-43363072D01*
X53716928Y-43240586D01*
X53716925Y-43240583D01*
X53716923Y-43240582D01*
X53576787Y-43138767D01*
X53422446Y-43060127D01*
X53422442Y-43060125D01*
X53257711Y-43006600D01*
X53257698Y-43006597D01*
X53086612Y-42979500D01*
X53086611Y-42979500D01*
X52913389Y-42979500D01*
X52913388Y-42979500D01*
X52742301Y-43006597D01*
X52742288Y-43006600D01*
X52577557Y-43060125D01*
X52577553Y-43060127D01*
X52423212Y-43138767D01*
X52283076Y-43240582D01*
X52160582Y-43363076D01*
X52058767Y-43503212D01*
X51980127Y-43657553D01*
X51980125Y-43657557D01*
X51926600Y-43822288D01*
X51926597Y-43822301D01*
X51899500Y-43993388D01*
X48845262Y-43993388D01*
X48847219Y-43991966D01*
X48991966Y-43847219D01*
X49112287Y-43681610D01*
X49205220Y-43499219D01*
X49231693Y-43417744D01*
X49268474Y-43304544D01*
X49268474Y-43304541D01*
X49268477Y-43304534D01*
X49300500Y-43102352D01*
X49300500Y-42897648D01*
X49268477Y-42695466D01*
X49268475Y-42695461D01*
X49268474Y-42695455D01*
X49205222Y-42500786D01*
X49205220Y-42500783D01*
X49205220Y-42500781D01*
X49143378Y-42379409D01*
X49112287Y-42318389D01*
X49026272Y-42200000D01*
X48991966Y-42152781D01*
X48847219Y-42008034D01*
X48783040Y-41961406D01*
X48681610Y-41887712D01*
X48499213Y-41794777D01*
X48304544Y-41731525D01*
X48304531Y-41731522D01*
X48102354Y-41699500D01*
X48102352Y-41699500D01*
X47897648Y-41699500D01*
X47897646Y-41699500D01*
X47695468Y-41731522D01*
X47695455Y-41731525D01*
X47500786Y-41794777D01*
X47318389Y-41887712D01*
X47181023Y-41987515D01*
X47152781Y-42008034D01*
X47008034Y-42152781D01*
X47008031Y-42152784D01*
X47008031Y-42152785D01*
X46887712Y-42318389D01*
X46794777Y-42500786D01*
X46731525Y-42695455D01*
X46731522Y-42695468D01*
X46699500Y-42897646D01*
X46445300Y-42897646D01*
X46445300Y-41453388D01*
X51899500Y-41453388D01*
X51899500Y-41626611D01*
X51926597Y-41797698D01*
X51926600Y-41797711D01*
X51980125Y-41962442D01*
X51980127Y-41962446D01*
X52058767Y-42116787D01*
X52084918Y-42152781D01*
X52160586Y-42256928D01*
X52283072Y-42379414D01*
X52283075Y-42379416D01*
X52283076Y-42379417D01*
X52423212Y-42481232D01*
X52577553Y-42559872D01*
X52577557Y-42559874D01*
X52742288Y-42613399D01*
X52742294Y-42613400D01*
X52742299Y-42613402D01*
X52856359Y-42631467D01*
X52913388Y-42640500D01*
X52913389Y-42640500D01*
X53086612Y-42640500D01*
X53129383Y-42633725D01*
X53257701Y-42613402D01*
X53257708Y-42613399D01*
X53257711Y-42613399D01*
X53422442Y-42559874D01*
X53422442Y-42559873D01*
X53422445Y-42559873D01*
X53576788Y-42481232D01*
X53716928Y-42379414D01*
X53839414Y-42256928D01*
X53941232Y-42116788D01*
X54019873Y-41962445D01*
X54044155Y-41887713D01*
X54073399Y-41797711D01*
X54073399Y-41797708D01*
X54073402Y-41797701D01*
X54100500Y-41626611D01*
X54100500Y-41453389D01*
X54098811Y-41442728D01*
X54081794Y-41335285D01*
X54073402Y-41282299D01*
X54073400Y-41282294D01*
X54073399Y-41282288D01*
X54019874Y-41117557D01*
X54019872Y-41117553D01*
X53941232Y-40963212D01*
X53839417Y-40823076D01*
X53839416Y-40823075D01*
X53839414Y-40823072D01*
X53716928Y-40700586D01*
X53716925Y-40700583D01*
X53716923Y-40700582D01*
X53576787Y-40598767D01*
X53422446Y-40520127D01*
X53422442Y-40520125D01*
X53257711Y-40466600D01*
X53257698Y-40466597D01*
X53086612Y-40439500D01*
X53086611Y-40439500D01*
X52913389Y-40439500D01*
X52913388Y-40439500D01*
X52742301Y-40466597D01*
X52742288Y-40466600D01*
X52577557Y-40520125D01*
X52577553Y-40520127D01*
X52423212Y-40598767D01*
X52283076Y-40700582D01*
X52160582Y-40823076D01*
X52058767Y-40963212D01*
X51980127Y-41117553D01*
X51980125Y-41117557D01*
X51926600Y-41282288D01*
X51926597Y-41282301D01*
X51899500Y-41453388D01*
X46445300Y-41453388D01*
X46445300Y-40856033D01*
X46466973Y-40803708D01*
X46523508Y-40747172D01*
X46575834Y-40725499D01*
X47045484Y-40725499D01*
X47102114Y-40719412D01*
X47230226Y-40671628D01*
X47339687Y-40589687D01*
X47421628Y-40480226D01*
X47452059Y-40398639D01*
X47490653Y-40357187D01*
X47521393Y-40350500D01*
X50944446Y-40350500D01*
X50944446Y-40350499D01*
X51033588Y-40326614D01*
X51113512Y-40280470D01*
X51773174Y-39620808D01*
X51825500Y-39599134D01*
X51877826Y-39620808D01*
X51899500Y-39673134D01*
X51899500Y-39874672D01*
X51914034Y-39947740D01*
X51965990Y-40025500D01*
X51969399Y-40030601D01*
X52052260Y-40085966D01*
X52125326Y-40100500D01*
X52125328Y-40100500D01*
X53874672Y-40100500D01*
X53874674Y-40100500D01*
X53947740Y-40085966D01*
X54030601Y-40030601D01*
X54085966Y-39947740D01*
X54100500Y-39874674D01*
X54100500Y-38125326D01*
X54085966Y-38052260D01*
X54030601Y-37969399D01*
X53947740Y-37914034D01*
X53874674Y-37899500D01*
X52125326Y-37899500D01*
X52076615Y-37909189D01*
X52052259Y-37914034D01*
X51969399Y-37969398D01*
X51969398Y-37969399D01*
X51914034Y-38052259D01*
X51899500Y-38125327D01*
X51899500Y-38580031D01*
X51877826Y-38632357D01*
X51844653Y-38651509D01*
X51763015Y-38673384D01*
X51763010Y-38673386D01*
X51683087Y-38719530D01*
X50774792Y-39627826D01*
X50722466Y-39649500D01*
X47521393Y-39649500D01*
X47469067Y-39627826D01*
X47452059Y-39601361D01*
X47421628Y-39519774D01*
X47399544Y-39490273D01*
X47339687Y-39410313D01*
X47230226Y-39328372D01*
X47230225Y-39328371D01*
X47230226Y-39328371D01*
X47102114Y-39280588D01*
X47045486Y-39274500D01*
X46504515Y-39274500D01*
X46504514Y-39274501D01*
X46447885Y-39280588D01*
X46319774Y-39328371D01*
X46210313Y-39410313D01*
X46128371Y-39519774D01*
X46096226Y-39605958D01*
X46057632Y-39647410D01*
X46001031Y-39649431D01*
X45959579Y-39610837D01*
X45958051Y-39607244D01*
X45911924Y-39490273D01*
X45824721Y-39375279D01*
X45824720Y-39375278D01*
X45709726Y-39288075D01*
X45575470Y-39235132D01*
X45491103Y-39225000D01*
X45425000Y-39225000D01*
X45425000Y-40775000D01*
X45491103Y-40775000D01*
X45575470Y-40764867D01*
X45643153Y-40738177D01*
X45699782Y-40739144D01*
X45739141Y-40779871D01*
X45744300Y-40807018D01*
X45744300Y-43195765D01*
X45722626Y-43248091D01*
X44854577Y-44116139D01*
X44802251Y-44137813D01*
X44749925Y-44116139D01*
X44732404Y-44088254D01*
X44702346Y-44002355D01*
X44621792Y-43893208D01*
X44621791Y-43893207D01*
X44512644Y-43812653D01*
X44404553Y-43774830D01*
X44362322Y-43737090D01*
X44359147Y-43680542D01*
X44396887Y-43638311D01*
X44417415Y-43631895D01*
X44425304Y-43630646D01*
X44538342Y-43573050D01*
X44628050Y-43483342D01*
X44685646Y-43370304D01*
X44700500Y-43276519D01*
X44700499Y-42913482D01*
X44697991Y-42897648D01*
X44685646Y-42819695D01*
X44685645Y-42819693D01*
X44633488Y-42717331D01*
X44628050Y-42706658D01*
X44538342Y-42616950D01*
X44425304Y-42559354D01*
X44425302Y-42559353D01*
X44425301Y-42559353D01*
X44331520Y-42544500D01*
X44331519Y-42544500D01*
X43899500Y-42544500D01*
X43847174Y-42522826D01*
X43825500Y-42470500D01*
X43825500Y-42100376D01*
X43847174Y-42048050D01*
X43915509Y-41979715D01*
X43987984Y-41854185D01*
X44025499Y-41714177D01*
X44025500Y-41714177D01*
X44025500Y-41569223D01*
X44025499Y-41569222D01*
X44023914Y-41563308D01*
X44002111Y-41481937D01*
X43987985Y-41429218D01*
X43987983Y-41429213D01*
X43953901Y-41370182D01*
X43915509Y-41303685D01*
X43813015Y-41201191D01*
X43802768Y-41195275D01*
X43687486Y-41128716D01*
X43687481Y-41128714D01*
X43547477Y-41091200D01*
X43547475Y-41091200D01*
X43402525Y-41091200D01*
X43402523Y-41091200D01*
X43262518Y-41128714D01*
X43262513Y-41128716D01*
X43136984Y-41201191D01*
X43034491Y-41303684D01*
X42962016Y-41429213D01*
X42962014Y-41429218D01*
X42924500Y-41569222D01*
X42924500Y-41714177D01*
X42962014Y-41854181D01*
X42962016Y-41854186D01*
X43034491Y-41979715D01*
X43102826Y-42048050D01*
X43124500Y-42100376D01*
X43124500Y-42470500D01*
X43102826Y-42522826D01*
X43050500Y-42544500D01*
X42618480Y-42544500D01*
X42524695Y-42559353D01*
X42524693Y-42559354D01*
X42411657Y-42616950D01*
X42321951Y-42706656D01*
X42264353Y-42819698D01*
X42249500Y-42913480D01*
X42249500Y-43276519D01*
X42264353Y-43370304D01*
X42264354Y-43370306D01*
X42321948Y-43483339D01*
X42321950Y-43483342D01*
X42411658Y-43573050D01*
X42524696Y-43630646D01*
X42532578Y-43631894D01*
X42580869Y-43661484D01*
X42594094Y-43716555D01*
X42564503Y-43764848D01*
X42545445Y-43774830D01*
X42437355Y-43812652D01*
X42328208Y-43893207D01*
X42328207Y-43893208D01*
X42247652Y-44002356D01*
X42202853Y-44130385D01*
X42202851Y-44130393D01*
X42200000Y-44160801D01*
X42200000Y-44165000D01*
X43401000Y-44165000D01*
X43453326Y-44186674D01*
X43475000Y-44239000D01*
X43475000Y-44491000D01*
X43453326Y-44543326D01*
X43401000Y-44565000D01*
X42200001Y-44565000D01*
X42200001Y-44569205D01*
X42202850Y-44599602D01*
X42202852Y-44599611D01*
X42247652Y-44727643D01*
X42328207Y-44836791D01*
X42328208Y-44836792D01*
X42437356Y-44917347D01*
X42437355Y-44917347D01*
X42545445Y-44955169D01*
X42587677Y-44992908D01*
X42590852Y-45049456D01*
X42553113Y-45091688D01*
X42532582Y-45098105D01*
X42524694Y-45099354D01*
X42524693Y-45099354D01*
X42411657Y-45156950D01*
X42321951Y-45246656D01*
X42264353Y-45359698D01*
X42264079Y-45361432D01*
X42263463Y-45362436D01*
X42262553Y-45365238D01*
X42261880Y-45365019D01*
X42234486Y-45409723D01*
X42179414Y-45422945D01*
X42138664Y-45402182D01*
X41372174Y-44635692D01*
X41350500Y-44583366D01*
X41350500Y-40949654D01*
X41350499Y-40949653D01*
X41326615Y-40860515D01*
X41326613Y-40860510D01*
X41304998Y-40823072D01*
X41304995Y-40823067D01*
X41280470Y-40780588D01*
X40790985Y-40291103D01*
X44475000Y-40291103D01*
X44485132Y-40375470D01*
X44538075Y-40509726D01*
X44625278Y-40624720D01*
X44625279Y-40624721D01*
X44740273Y-40711924D01*
X44874529Y-40764867D01*
X44958897Y-40775000D01*
X45025000Y-40775000D01*
X45025000Y-40200000D01*
X44475000Y-40200000D01*
X44475000Y-40291103D01*
X40790985Y-40291103D01*
X40208778Y-39708896D01*
X44475000Y-39708896D01*
X44475000Y-39800000D01*
X45025000Y-39800000D01*
X45025000Y-39225000D01*
X44958897Y-39225000D01*
X44874529Y-39235132D01*
X44740273Y-39288075D01*
X44625279Y-39375278D01*
X44625278Y-39375279D01*
X44538075Y-39490273D01*
X44485132Y-39624529D01*
X44475000Y-39708896D01*
X40208778Y-39708896D01*
X38033270Y-37533388D01*
X40899500Y-37533388D01*
X40899500Y-37706611D01*
X40926597Y-37877698D01*
X40926600Y-37877711D01*
X40980125Y-38042442D01*
X40980127Y-38042446D01*
X41022357Y-38125327D01*
X41058768Y-38196788D01*
X41160586Y-38336928D01*
X41283072Y-38459414D01*
X41283075Y-38459416D01*
X41283076Y-38459417D01*
X41423212Y-38561232D01*
X41577553Y-38639872D01*
X41577557Y-38639874D01*
X41742288Y-38693399D01*
X41742294Y-38693400D01*
X41742299Y-38693402D01*
X41856359Y-38711467D01*
X41913388Y-38720500D01*
X41913389Y-38720500D01*
X42086612Y-38720500D01*
X42129383Y-38713725D01*
X42257701Y-38693402D01*
X42257708Y-38693399D01*
X42257711Y-38693399D01*
X42422442Y-38639874D01*
X42422442Y-38639873D01*
X42422445Y-38639873D01*
X42576788Y-38561232D01*
X42716928Y-38459414D01*
X42839414Y-38336928D01*
X42941232Y-38196788D01*
X43019873Y-38042445D01*
X43073402Y-37877701D01*
X43100500Y-37706611D01*
X43100500Y-37533389D01*
X43073402Y-37362299D01*
X43073400Y-37362294D01*
X43073399Y-37362288D01*
X43019874Y-37197557D01*
X43019872Y-37197553D01*
X42941232Y-37043212D01*
X42839417Y-36903076D01*
X42839416Y-36903075D01*
X42839414Y-36903072D01*
X42716928Y-36780586D01*
X42716925Y-36780583D01*
X42716923Y-36780582D01*
X42576787Y-36678767D01*
X42422446Y-36600127D01*
X42422442Y-36600125D01*
X42257711Y-36546600D01*
X42257698Y-36546597D01*
X42086612Y-36519500D01*
X42086611Y-36519500D01*
X41913389Y-36519500D01*
X41913388Y-36519500D01*
X41742301Y-36546597D01*
X41742288Y-36546600D01*
X41577557Y-36600125D01*
X41577553Y-36600127D01*
X41423212Y-36678767D01*
X41283076Y-36780582D01*
X41160582Y-36903076D01*
X41058767Y-37043212D01*
X40980127Y-37197553D01*
X40980125Y-37197557D01*
X40926600Y-37362288D01*
X40926597Y-37362301D01*
X40899500Y-37533388D01*
X38033270Y-37533388D01*
X35493270Y-34993388D01*
X40899500Y-34993388D01*
X40899500Y-35166611D01*
X40926597Y-35337698D01*
X40926600Y-35337711D01*
X40980125Y-35502442D01*
X40980127Y-35502446D01*
X41058767Y-35656787D01*
X41130268Y-35755200D01*
X41160586Y-35796928D01*
X41283072Y-35919414D01*
X41283075Y-35919416D01*
X41283076Y-35919417D01*
X41423212Y-36021232D01*
X41577553Y-36099872D01*
X41577557Y-36099874D01*
X41742288Y-36153399D01*
X41742294Y-36153400D01*
X41742299Y-36153402D01*
X41856359Y-36171467D01*
X41913388Y-36180500D01*
X41913389Y-36180500D01*
X42086612Y-36180500D01*
X42129383Y-36173725D01*
X42257701Y-36153402D01*
X42257708Y-36153399D01*
X42257711Y-36153399D01*
X42422442Y-36099874D01*
X42422442Y-36099873D01*
X42422445Y-36099873D01*
X42576788Y-36021232D01*
X42716928Y-35919414D01*
X42839414Y-35796928D01*
X42941232Y-35656788D01*
X43019873Y-35502445D01*
X43019874Y-35502442D01*
X43073399Y-35337711D01*
X43073399Y-35337708D01*
X43073402Y-35337701D01*
X43100500Y-35166611D01*
X43100500Y-34993389D01*
X43073402Y-34822299D01*
X43073400Y-34822294D01*
X43073399Y-34822288D01*
X43019874Y-34657557D01*
X43019872Y-34657553D01*
X42941232Y-34503212D01*
X42839417Y-34363076D01*
X42839416Y-34363075D01*
X42839414Y-34363072D01*
X42716928Y-34240586D01*
X42716925Y-34240583D01*
X42716923Y-34240582D01*
X42576787Y-34138767D01*
X42422446Y-34060127D01*
X42422442Y-34060125D01*
X42257711Y-34006600D01*
X42257698Y-34006597D01*
X42086612Y-33979500D01*
X42086611Y-33979500D01*
X41913389Y-33979500D01*
X41913388Y-33979500D01*
X41742301Y-34006597D01*
X41742288Y-34006600D01*
X41577557Y-34060125D01*
X41577553Y-34060127D01*
X41423212Y-34138767D01*
X41283076Y-34240582D01*
X41160582Y-34363076D01*
X41058767Y-34503212D01*
X40980127Y-34657553D01*
X40980125Y-34657557D01*
X40926600Y-34822288D01*
X40926597Y-34822301D01*
X40899500Y-34993388D01*
X35493270Y-34993388D01*
X33204395Y-32704513D01*
X35074500Y-32704513D01*
X35074500Y-33295484D01*
X35074501Y-33295485D01*
X35080588Y-33352114D01*
X35128371Y-33480225D01*
X35128372Y-33480226D01*
X35210313Y-33589687D01*
X35319774Y-33671628D01*
X35319773Y-33671628D01*
X35367557Y-33689450D01*
X35447886Y-33719412D01*
X35504515Y-33725500D01*
X36045484Y-33725499D01*
X36102114Y-33719412D01*
X36230226Y-33671628D01*
X36339687Y-33589687D01*
X36421628Y-33480226D01*
X36469412Y-33352114D01*
X36475500Y-33295485D01*
X36475499Y-32825832D01*
X36497172Y-32773508D01*
X36821189Y-32449491D01*
X40850000Y-32449491D01*
X40850000Y-32630508D01*
X40878316Y-32809289D01*
X40878319Y-32809302D01*
X40934251Y-32981443D01*
X41016431Y-33142728D01*
X41057668Y-33199487D01*
X41531980Y-32725174D01*
X41534075Y-32732993D01*
X41599901Y-32847007D01*
X41692993Y-32940099D01*
X41807007Y-33005925D01*
X41814822Y-33008019D01*
X41340511Y-33482331D01*
X41397266Y-33523566D01*
X41558556Y-33605748D01*
X41558555Y-33605748D01*
X41730697Y-33661680D01*
X41730710Y-33661683D01*
X41909491Y-33690000D01*
X42090509Y-33690000D01*
X42269289Y-33661683D01*
X42269302Y-33661680D01*
X42441443Y-33605748D01*
X42602729Y-33523568D01*
X42659487Y-33482331D01*
X42579627Y-33402471D01*
X42529282Y-33352126D01*
X50749500Y-33352126D01*
X50749500Y-34647873D01*
X50755909Y-34707485D01*
X50806202Y-34842329D01*
X50806203Y-34842330D01*
X50806204Y-34842331D01*
X50892454Y-34957546D01*
X50983230Y-35025501D01*
X51007669Y-35043796D01*
X51007670Y-35043797D01*
X51098908Y-35077826D01*
X51142517Y-35094091D01*
X51202127Y-35100500D01*
X52797872Y-35100499D01*
X52857483Y-35094091D01*
X52924907Y-35068943D01*
X52992329Y-35043797D01*
X52992329Y-35043796D01*
X52992331Y-35043796D01*
X53107546Y-34957546D01*
X53193796Y-34842331D01*
X53201268Y-34822299D01*
X53226293Y-34755201D01*
X53244091Y-34707483D01*
X53250500Y-34647873D01*
X53250499Y-33352128D01*
X53250497Y-33352114D01*
X53248955Y-33337766D01*
X53244091Y-33292517D01*
X53227216Y-33247273D01*
X53193797Y-33157670D01*
X53193796Y-33157669D01*
X53116254Y-33054087D01*
X53107546Y-33042454D01*
X53016771Y-32974500D01*
X52992330Y-32956203D01*
X52992329Y-32956202D01*
X52857487Y-32905910D01*
X52857484Y-32905909D01*
X52857483Y-32905909D01*
X52797873Y-32899500D01*
X51202126Y-32899500D01*
X51142514Y-32905909D01*
X51007670Y-32956202D01*
X51007669Y-32956203D01*
X50892454Y-33042454D01*
X50806203Y-33157669D01*
X50806202Y-33157670D01*
X50755910Y-33292512D01*
X50755909Y-33292517D01*
X50749500Y-33352126D01*
X42529282Y-33352126D01*
X42185176Y-33008019D01*
X42192993Y-33005925D01*
X42307007Y-32940099D01*
X42400099Y-32847007D01*
X42465925Y-32732993D01*
X42468019Y-32725176D01*
X42942331Y-33199487D01*
X42983568Y-33142729D01*
X43065748Y-32981443D01*
X43121680Y-32809302D01*
X43121683Y-32809289D01*
X43150000Y-32630508D01*
X43150000Y-32449491D01*
X43121683Y-32270710D01*
X43121680Y-32270697D01*
X43065748Y-32098556D01*
X42983566Y-31937267D01*
X42983566Y-31937266D01*
X42942331Y-31880511D01*
X42468019Y-32354822D01*
X42465925Y-32347007D01*
X42400099Y-32232993D01*
X42307007Y-32139901D01*
X42192993Y-32074075D01*
X42185174Y-32071980D01*
X42659487Y-31597668D01*
X42602728Y-31556431D01*
X42445692Y-31476416D01*
X42445691Y-31476415D01*
X42441444Y-31474251D01*
X42269302Y-31418319D01*
X42269289Y-31418316D01*
X42238175Y-31413388D01*
X50749500Y-31413388D01*
X50749500Y-31586611D01*
X50776597Y-31757698D01*
X50776600Y-31757711D01*
X50830125Y-31922442D01*
X50830127Y-31922446D01*
X50908767Y-32076787D01*
X51003213Y-32206781D01*
X51010586Y-32216928D01*
X51133072Y-32339414D01*
X51133075Y-32339416D01*
X51133076Y-32339417D01*
X51273212Y-32441232D01*
X51427553Y-32519872D01*
X51427557Y-32519874D01*
X51592288Y-32573399D01*
X51592294Y-32573400D01*
X51592299Y-32573402D01*
X51706359Y-32591467D01*
X51763388Y-32600500D01*
X51763389Y-32600500D01*
X52236612Y-32600500D01*
X52279383Y-32593725D01*
X52407701Y-32573402D01*
X52407708Y-32573399D01*
X52407711Y-32573399D01*
X52572442Y-32519874D01*
X52572442Y-32519873D01*
X52572445Y-32519873D01*
X52726788Y-32441232D01*
X52866928Y-32339414D01*
X52989414Y-32216928D01*
X53091232Y-32076788D01*
X53169873Y-31922445D01*
X53198965Y-31832911D01*
X53223399Y-31757711D01*
X53223399Y-31757708D01*
X53223402Y-31757701D01*
X53250500Y-31586611D01*
X53250500Y-31413389D01*
X53223402Y-31242299D01*
X53223400Y-31242294D01*
X53223399Y-31242288D01*
X53169874Y-31077557D01*
X53169872Y-31077553D01*
X53091232Y-30923212D01*
X52989417Y-30783076D01*
X52989416Y-30783075D01*
X52989414Y-30783072D01*
X52866928Y-30660586D01*
X52866925Y-30660583D01*
X52866923Y-30660582D01*
X52726787Y-30558767D01*
X52572446Y-30480127D01*
X52572442Y-30480125D01*
X52407711Y-30426600D01*
X52407698Y-30426597D01*
X52236612Y-30399500D01*
X52236611Y-30399500D01*
X51763389Y-30399500D01*
X51763388Y-30399500D01*
X51592301Y-30426597D01*
X51592288Y-30426600D01*
X51427557Y-30480125D01*
X51427553Y-30480127D01*
X51273212Y-30558767D01*
X51133076Y-30660582D01*
X51010582Y-30783076D01*
X50908767Y-30923212D01*
X50830127Y-31077553D01*
X50830125Y-31077557D01*
X50776600Y-31242288D01*
X50776597Y-31242301D01*
X50749500Y-31413388D01*
X42238175Y-31413388D01*
X42090509Y-31390000D01*
X41909491Y-31390000D01*
X41730710Y-31418316D01*
X41730697Y-31418319D01*
X41558558Y-31474250D01*
X41397268Y-31556431D01*
X41340511Y-31597667D01*
X41340511Y-31597668D01*
X41814823Y-32071980D01*
X41807007Y-32074075D01*
X41692993Y-32139901D01*
X41599901Y-32232993D01*
X41534075Y-32347007D01*
X41531980Y-32354823D01*
X41057668Y-31880511D01*
X41057667Y-31880511D01*
X41016431Y-31937268D01*
X40934250Y-32098558D01*
X40878319Y-32270697D01*
X40878316Y-32270710D01*
X40850000Y-32449491D01*
X36821189Y-32449491D01*
X38898508Y-30372174D01*
X38950834Y-30350500D01*
X40825500Y-30350500D01*
X40877826Y-30372174D01*
X40899500Y-30424500D01*
X40899500Y-30874672D01*
X40914034Y-30947740D01*
X40933747Y-30977244D01*
X40969399Y-31030601D01*
X41052260Y-31085966D01*
X41125326Y-31100500D01*
X41125328Y-31100500D01*
X42874672Y-31100500D01*
X42874674Y-31100500D01*
X42947740Y-31085966D01*
X43030601Y-31030601D01*
X43085966Y-30947740D01*
X43100500Y-30874674D01*
X43100500Y-29125326D01*
X43085966Y-29052260D01*
X43030601Y-28969399D01*
X43017282Y-28960500D01*
X42947740Y-28914034D01*
X42874674Y-28899500D01*
X42874672Y-28899500D01*
X41374500Y-28899500D01*
X41322174Y-28877826D01*
X41300500Y-28825500D01*
X41300500Y-27023075D01*
X41322174Y-26970749D01*
X41348640Y-26953741D01*
X41442329Y-26918797D01*
X41442329Y-26918796D01*
X41442331Y-26918796D01*
X41557546Y-26832546D01*
X41643796Y-26717331D01*
X41694091Y-26582483D01*
X41700500Y-26522873D01*
X41700499Y-25477128D01*
X41694091Y-25417517D01*
X41685154Y-25393556D01*
X41643797Y-25282670D01*
X41643796Y-25282669D01*
X41621516Y-25252907D01*
X41557546Y-25167454D01*
X41459546Y-25094091D01*
X41442330Y-25081203D01*
X41442329Y-25081202D01*
X41348640Y-25046259D01*
X41307187Y-25007666D01*
X41300500Y-24976925D01*
X41300500Y-23656063D01*
X41322174Y-23603737D01*
X41330151Y-23596825D01*
X41339687Y-23589687D01*
X41421628Y-23480226D01*
X41469408Y-23352126D01*
X50749500Y-23352126D01*
X50749500Y-24647873D01*
X50755909Y-24707485D01*
X50806202Y-24842329D01*
X50806203Y-24842330D01*
X50827886Y-24871295D01*
X50892454Y-24957546D01*
X50989451Y-25030158D01*
X51007669Y-25043796D01*
X51007670Y-25043797D01*
X51107960Y-25081202D01*
X51142517Y-25094091D01*
X51202127Y-25100500D01*
X52797872Y-25100499D01*
X52857483Y-25094091D01*
X52924907Y-25068943D01*
X52992329Y-25043797D01*
X52992329Y-25043796D01*
X52992331Y-25043796D01*
X53107546Y-24957546D01*
X53193796Y-24842331D01*
X53202312Y-24819500D01*
X53210561Y-24797381D01*
X53244091Y-24707483D01*
X53250500Y-24647873D01*
X53250499Y-23352128D01*
X53250497Y-23352114D01*
X53248955Y-23337766D01*
X53244091Y-23292517D01*
X53243564Y-23291103D01*
X53193797Y-23157670D01*
X53193796Y-23157669D01*
X53131161Y-23074000D01*
X53107546Y-23042454D01*
X52992331Y-22956204D01*
X52992330Y-22956203D01*
X52992329Y-22956202D01*
X52857487Y-22905910D01*
X52857484Y-22905909D01*
X52857483Y-22905909D01*
X52797873Y-22899500D01*
X51202126Y-22899500D01*
X51142514Y-22905909D01*
X51007670Y-22956202D01*
X51007669Y-22956203D01*
X50892454Y-23042454D01*
X50806203Y-23157669D01*
X50806202Y-23157670D01*
X50755910Y-23292512D01*
X50755909Y-23292517D01*
X50749500Y-23352126D01*
X41469408Y-23352126D01*
X41469412Y-23352114D01*
X41475500Y-23295485D01*
X41475499Y-22704516D01*
X41469412Y-22647886D01*
X41421628Y-22519774D01*
X41339687Y-22410313D01*
X41241649Y-22336923D01*
X41230225Y-22328371D01*
X41230226Y-22328371D01*
X41102114Y-22280588D01*
X41045487Y-22274500D01*
X41045485Y-22274500D01*
X40575834Y-22274500D01*
X40523508Y-22252826D01*
X40398374Y-22127692D01*
X40376700Y-22075366D01*
X40376700Y-21533388D01*
X42899500Y-21533388D01*
X42899500Y-21706611D01*
X42926597Y-21877698D01*
X42926600Y-21877711D01*
X42980125Y-22042442D01*
X42980127Y-22042446D01*
X43058767Y-22196787D01*
X43154369Y-22328372D01*
X43160586Y-22336928D01*
X43283072Y-22459414D01*
X43283075Y-22459416D01*
X43283076Y-22459417D01*
X43423212Y-22561232D01*
X43577553Y-22639872D01*
X43577557Y-22639874D01*
X43742288Y-22693399D01*
X43742294Y-22693400D01*
X43742299Y-22693402D01*
X43856359Y-22711467D01*
X43913388Y-22720500D01*
X43913389Y-22720500D01*
X44086612Y-22720500D01*
X44136010Y-22712676D01*
X44257701Y-22693402D01*
X44257708Y-22693399D01*
X44257711Y-22693399D01*
X44422442Y-22639874D01*
X44422442Y-22639873D01*
X44422445Y-22639873D01*
X44576788Y-22561232D01*
X44716928Y-22459414D01*
X44839414Y-22336928D01*
X44941232Y-22196788D01*
X45019873Y-22042445D01*
X45065929Y-21900700D01*
X45073399Y-21877711D01*
X45073399Y-21877708D01*
X45073402Y-21877701D01*
X45100500Y-21706611D01*
X45100500Y-21533389D01*
X45073402Y-21362299D01*
X45073400Y-21362294D01*
X45073399Y-21362288D01*
X45019874Y-21197557D01*
X45019872Y-21197553D01*
X44941232Y-21043212D01*
X44839417Y-20903076D01*
X44839416Y-20903075D01*
X44839414Y-20903072D01*
X44716928Y-20780586D01*
X44716925Y-20780583D01*
X44716923Y-20780582D01*
X44576787Y-20678767D01*
X44422446Y-20600127D01*
X44422442Y-20600125D01*
X44257711Y-20546600D01*
X44257698Y-20546597D01*
X44086612Y-20519500D01*
X44086611Y-20519500D01*
X43913389Y-20519500D01*
X43913388Y-20519500D01*
X43742301Y-20546597D01*
X43742288Y-20546600D01*
X43577557Y-20600125D01*
X43577553Y-20600127D01*
X43423212Y-20678767D01*
X43283076Y-20780582D01*
X43160582Y-20903076D01*
X43058767Y-21043212D01*
X42980127Y-21197553D01*
X42980125Y-21197557D01*
X42926600Y-21362288D01*
X42926597Y-21362301D01*
X42899500Y-21533388D01*
X40376700Y-21533388D01*
X40376700Y-19113634D01*
X40398374Y-19061308D01*
X40466294Y-18993388D01*
X42899500Y-18993388D01*
X42899500Y-19166611D01*
X42926597Y-19337698D01*
X42926600Y-19337711D01*
X42980125Y-19502442D01*
X42980127Y-19502446D01*
X43058767Y-19656787D01*
X43141212Y-19770263D01*
X43160586Y-19796928D01*
X43283072Y-19919414D01*
X43283075Y-19919416D01*
X43283076Y-19919417D01*
X43423212Y-20021232D01*
X43577553Y-20099872D01*
X43577557Y-20099874D01*
X43742288Y-20153399D01*
X43742294Y-20153400D01*
X43742299Y-20153402D01*
X43856359Y-20171467D01*
X43913388Y-20180500D01*
X43913389Y-20180500D01*
X44086612Y-20180500D01*
X44129383Y-20173725D01*
X44257701Y-20153402D01*
X44257708Y-20153399D01*
X44257711Y-20153399D01*
X44422442Y-20099874D01*
X44422442Y-20099873D01*
X44422445Y-20099873D01*
X44576788Y-20021232D01*
X44716928Y-19919414D01*
X44839414Y-19796928D01*
X44941232Y-19656788D01*
X45019873Y-19502445D01*
X45034482Y-19457483D01*
X45073399Y-19337711D01*
X45073399Y-19337708D01*
X45073402Y-19337701D01*
X45100500Y-19166611D01*
X45100500Y-18993389D01*
X45073402Y-18822299D01*
X45073400Y-18822294D01*
X45073399Y-18822288D01*
X45019874Y-18657557D01*
X45019872Y-18657553D01*
X44941232Y-18503212D01*
X44839417Y-18363076D01*
X44839416Y-18363075D01*
X44839414Y-18363072D01*
X44716928Y-18240586D01*
X44716925Y-18240583D01*
X44716923Y-18240582D01*
X44576787Y-18138767D01*
X44422446Y-18060127D01*
X44422442Y-18060125D01*
X44257711Y-18006600D01*
X44257698Y-18006597D01*
X44086612Y-17979500D01*
X44086611Y-17979500D01*
X43913389Y-17979500D01*
X43913388Y-17979500D01*
X43742301Y-18006597D01*
X43742288Y-18006600D01*
X43577557Y-18060125D01*
X43577553Y-18060127D01*
X43423212Y-18138767D01*
X43283076Y-18240582D01*
X43160582Y-18363076D01*
X43058767Y-18503212D01*
X42980127Y-18657553D01*
X42980125Y-18657557D01*
X42926600Y-18822288D01*
X42926597Y-18822301D01*
X42899500Y-18993388D01*
X40466294Y-18993388D01*
X40521526Y-18938156D01*
X41275936Y-18183746D01*
X42744458Y-16715223D01*
X42796783Y-16693550D01*
X42849109Y-16715224D01*
X42869872Y-16755973D01*
X42878317Y-16809291D01*
X42878319Y-16809302D01*
X42934251Y-16981443D01*
X43016431Y-17142728D01*
X43057668Y-17199487D01*
X43531980Y-16725176D01*
X43534075Y-16732993D01*
X43599901Y-16847007D01*
X43692993Y-16940099D01*
X43807007Y-17005925D01*
X43814822Y-17008019D01*
X43340511Y-17482331D01*
X43397266Y-17523566D01*
X43558556Y-17605748D01*
X43558555Y-17605748D01*
X43730697Y-17661680D01*
X43730710Y-17661683D01*
X43909491Y-17690000D01*
X44090509Y-17690000D01*
X44269289Y-17661683D01*
X44269302Y-17661680D01*
X44441443Y-17605748D01*
X44602729Y-17523568D01*
X44659487Y-17482331D01*
X44185176Y-17008019D01*
X44192993Y-17005925D01*
X44307007Y-16940099D01*
X44400099Y-16847007D01*
X44465925Y-16732993D01*
X44468019Y-16725176D01*
X44942331Y-17199487D01*
X44983568Y-17142729D01*
X45065748Y-16981443D01*
X45121680Y-16809302D01*
X45121683Y-16809289D01*
X45150000Y-16630508D01*
X45150000Y-16449491D01*
X45121683Y-16270710D01*
X45121680Y-16270697D01*
X45065748Y-16098556D01*
X44983566Y-15937267D01*
X44983566Y-15937266D01*
X44942331Y-15880511D01*
X44468019Y-16354822D01*
X44465925Y-16347007D01*
X44400099Y-16232993D01*
X44307007Y-16139901D01*
X44192993Y-16074075D01*
X44185176Y-16071980D01*
X44659487Y-15597668D01*
X44602728Y-15556431D01*
X44441445Y-15474252D01*
X44315538Y-15433342D01*
X44272471Y-15396559D01*
X44268028Y-15340096D01*
X44279708Y-15317903D01*
X44280464Y-15316916D01*
X44280469Y-15316912D01*
X44326614Y-15236988D01*
X44348489Y-15155345D01*
X44382968Y-15110414D01*
X44419968Y-15100500D01*
X44874672Y-15100500D01*
X44874674Y-15100500D01*
X44947740Y-15085966D01*
X45030601Y-15030601D01*
X45085966Y-14947740D01*
X45100500Y-14874674D01*
X45100500Y-13352127D01*
X50749500Y-13352127D01*
X50749501Y-14647872D01*
X50752705Y-14677677D01*
X50755909Y-14707485D01*
X50806202Y-14842329D01*
X50806203Y-14842330D01*
X50806204Y-14842331D01*
X50892454Y-14957546D01*
X50990043Y-15030601D01*
X51007669Y-15043796D01*
X51007670Y-15043797D01*
X51106938Y-15080821D01*
X51142517Y-15094091D01*
X51202127Y-15100500D01*
X52797872Y-15100499D01*
X52857483Y-15094091D01*
X52924907Y-15068943D01*
X52992329Y-15043797D01*
X52992329Y-15043796D01*
X52992331Y-15043796D01*
X53107546Y-14957546D01*
X53193796Y-14842331D01*
X53195333Y-14838212D01*
X53210561Y-14797381D01*
X53244091Y-14707483D01*
X53250500Y-14647873D01*
X53250499Y-13352128D01*
X53244091Y-13292517D01*
X53244089Y-13292512D01*
X53193797Y-13157670D01*
X53193796Y-13157669D01*
X53190668Y-13153491D01*
X53107546Y-13042454D01*
X52992331Y-12956204D01*
X52992330Y-12956203D01*
X52992329Y-12956202D01*
X52857487Y-12905910D01*
X52857484Y-12905909D01*
X52857483Y-12905909D01*
X52797873Y-12899500D01*
X51202126Y-12899500D01*
X51142514Y-12905909D01*
X51007670Y-12956202D01*
X51007669Y-12956203D01*
X50892454Y-13042454D01*
X50806203Y-13157669D01*
X50806202Y-13157670D01*
X50755910Y-13292512D01*
X50755910Y-13292514D01*
X50755909Y-13292517D01*
X50749500Y-13352127D01*
X45100500Y-13352127D01*
X45100500Y-13125326D01*
X45085966Y-13052260D01*
X45030601Y-12969399D01*
X45010851Y-12956203D01*
X44947740Y-12914034D01*
X44874674Y-12899500D01*
X44874672Y-12899500D01*
X44673134Y-12899500D01*
X44620808Y-12877826D01*
X44599134Y-12825500D01*
X44620808Y-12773174D01*
X44853161Y-12540821D01*
X45105470Y-12288512D01*
X45151614Y-12208588D01*
X45154049Y-12199500D01*
X45175500Y-12119444D01*
X45175500Y-11413388D01*
X50749500Y-11413388D01*
X50749500Y-11586611D01*
X50776597Y-11757698D01*
X50776600Y-11757711D01*
X50830125Y-11922442D01*
X50830127Y-11922446D01*
X50908767Y-12076787D01*
X51005992Y-12210606D01*
X51010586Y-12216928D01*
X51133072Y-12339414D01*
X51133075Y-12339416D01*
X51133076Y-12339417D01*
X51273212Y-12441232D01*
X51427553Y-12519872D01*
X51427557Y-12519874D01*
X51592288Y-12573399D01*
X51592294Y-12573400D01*
X51592299Y-12573402D01*
X51706359Y-12591467D01*
X51763388Y-12600500D01*
X51763389Y-12600500D01*
X52236612Y-12600500D01*
X52279383Y-12593725D01*
X52407701Y-12573402D01*
X52407708Y-12573399D01*
X52407711Y-12573399D01*
X52572442Y-12519874D01*
X52572442Y-12519873D01*
X52572445Y-12519873D01*
X52726788Y-12441232D01*
X52866928Y-12339414D01*
X52989414Y-12216928D01*
X53091232Y-12076788D01*
X53169873Y-11922445D01*
X53203258Y-11819698D01*
X53223399Y-11757711D01*
X53223399Y-11757708D01*
X53223402Y-11757701D01*
X53250500Y-11586611D01*
X53250500Y-11413389D01*
X53223402Y-11242299D01*
X53223400Y-11242294D01*
X53223399Y-11242288D01*
X53169874Y-11077557D01*
X53169872Y-11077553D01*
X53091232Y-10923212D01*
X52989417Y-10783076D01*
X52989416Y-10783075D01*
X52989414Y-10783072D01*
X52866928Y-10660586D01*
X52866925Y-10660583D01*
X52866923Y-10660582D01*
X52726787Y-10558767D01*
X52572446Y-10480127D01*
X52572442Y-10480125D01*
X52407711Y-10426600D01*
X52407698Y-10426597D01*
X52236612Y-10399500D01*
X52236611Y-10399500D01*
X51763389Y-10399500D01*
X51763388Y-10399500D01*
X51592301Y-10426597D01*
X51592288Y-10426600D01*
X51427557Y-10480125D01*
X51427553Y-10480127D01*
X51273212Y-10558767D01*
X51133076Y-10660582D01*
X51010582Y-10783076D01*
X50908767Y-10923212D01*
X50830127Y-11077553D01*
X50830125Y-11077557D01*
X50776600Y-11242288D01*
X50776597Y-11242301D01*
X50749500Y-11413388D01*
X45175500Y-11413388D01*
X45175500Y-8752127D01*
X45197174Y-8699801D01*
X45225060Y-8682279D01*
X45237882Y-8677793D01*
X45347150Y-8597150D01*
X45427793Y-8487882D01*
X45472646Y-8359699D01*
X45475500Y-8329266D01*
X45475500Y-7670734D01*
X45472646Y-7640301D01*
X45427793Y-7512118D01*
X45427792Y-7512116D01*
X45347153Y-7402853D01*
X45347146Y-7402846D01*
X45237883Y-7322207D01*
X45237881Y-7322206D01*
X45109704Y-7277355D01*
X45109705Y-7277355D01*
X45109700Y-7277354D01*
X45109699Y-7277354D01*
X45079266Y-7274500D01*
X44570734Y-7274500D01*
X44540301Y-7277354D01*
X44540299Y-7277354D01*
X44540295Y-7277355D01*
X44412118Y-7322206D01*
X44412116Y-7322207D01*
X44302853Y-7402846D01*
X44302846Y-7402853D01*
X44222207Y-7512116D01*
X44222206Y-7512118D01*
X44177355Y-7640295D01*
X44177354Y-7640299D01*
X44177354Y-7640301D01*
X44174500Y-7670734D01*
X44174500Y-8329266D01*
X44177354Y-8359699D01*
X44177354Y-8359701D01*
X44177355Y-8359704D01*
X44222206Y-8487881D01*
X44222207Y-8487883D01*
X44302846Y-8597146D01*
X44302853Y-8597153D01*
X44412116Y-8677792D01*
X44412115Y-8677792D01*
X44412118Y-8677793D01*
X44424939Y-8682279D01*
X44467171Y-8720018D01*
X44474500Y-8752127D01*
X44474500Y-11897466D01*
X44452826Y-11949792D01*
X43719530Y-12683087D01*
X43695527Y-12724661D01*
X43695524Y-12724666D01*
X43692298Y-12730256D01*
X43673386Y-12763012D01*
X43650672Y-12847779D01*
X43649561Y-12850831D01*
X43632450Y-12869493D01*
X43617032Y-12889586D01*
X43613048Y-12890653D01*
X43611285Y-12892577D01*
X43604824Y-12892856D01*
X43580032Y-12899500D01*
X43125326Y-12899500D01*
X43076615Y-12909189D01*
X43052259Y-12914034D01*
X42969399Y-12969398D01*
X42969398Y-12969399D01*
X42914034Y-13052259D01*
X42914034Y-13052260D01*
X42899500Y-13125326D01*
X42899500Y-14874674D01*
X42906588Y-14910306D01*
X42914034Y-14947740D01*
X42964548Y-15023342D01*
X42969399Y-15030601D01*
X43052260Y-15085966D01*
X43125326Y-15100500D01*
X43189166Y-15100500D01*
X43241492Y-15122174D01*
X43263166Y-15174500D01*
X43241492Y-15226826D01*
X39745730Y-18722587D01*
X39718509Y-18769736D01*
X39699586Y-18802510D01*
X39699584Y-18802515D01*
X39675700Y-18891653D01*
X39675700Y-21826700D01*
X39654026Y-21879026D01*
X39601700Y-21900700D01*
X37672654Y-21900700D01*
X37583515Y-21924584D01*
X37583510Y-21924586D01*
X37503587Y-21970730D01*
X37185294Y-22289023D01*
X37132968Y-22310697D01*
X37118531Y-22309275D01*
X37056131Y-22296863D01*
X36968842Y-22279500D01*
X36811158Y-22279500D01*
X36767315Y-22288220D01*
X36656508Y-22310261D01*
X36656498Y-22310264D01*
X36510825Y-22370603D01*
X36379711Y-22458210D01*
X36379710Y-22458212D01*
X36268212Y-22569710D01*
X36268210Y-22569711D01*
X36180603Y-22700825D01*
X36120264Y-22846498D01*
X36120261Y-22846508D01*
X36108446Y-22905909D01*
X36089731Y-23000000D01*
X36089500Y-23001159D01*
X36089500Y-23158840D01*
X36120261Y-23313491D01*
X36120264Y-23313501D01*
X36180603Y-23459174D01*
X36180605Y-23459177D01*
X36180606Y-23459179D01*
X36224997Y-23525615D01*
X36267808Y-23589687D01*
X36268211Y-23590289D01*
X36379711Y-23701789D01*
X36510821Y-23789394D01*
X36510826Y-23789396D01*
X36510825Y-23789396D01*
X36656498Y-23849735D01*
X36656503Y-23849737D01*
X36811158Y-23880500D01*
X36811160Y-23880500D01*
X36968840Y-23880500D01*
X36968842Y-23880500D01*
X37123497Y-23849737D01*
X37269179Y-23789394D01*
X37400289Y-23701789D01*
X37511789Y-23590289D01*
X37599394Y-23459179D01*
X37659737Y-23313497D01*
X37664191Y-23291103D01*
X38475000Y-23291103D01*
X38485132Y-23375470D01*
X38538075Y-23509726D01*
X38625278Y-23624720D01*
X38625279Y-23624721D01*
X38740273Y-23711924D01*
X38874529Y-23764867D01*
X38958897Y-23775000D01*
X39025000Y-23775000D01*
X39025000Y-23200000D01*
X38475000Y-23200000D01*
X38475000Y-23291103D01*
X37664191Y-23291103D01*
X37690500Y-23158842D01*
X37690500Y-23001158D01*
X37660724Y-22851465D01*
X37671773Y-22795918D01*
X37680970Y-22784710D01*
X37842308Y-22623374D01*
X37894634Y-22601700D01*
X38404455Y-22601700D01*
X38456781Y-22623374D01*
X38478455Y-22675700D01*
X38477927Y-22684524D01*
X38475000Y-22708896D01*
X38475000Y-22800000D01*
X39151000Y-22800000D01*
X39203326Y-22821674D01*
X39225000Y-22874000D01*
X39225000Y-23000000D01*
X39351000Y-23000000D01*
X39403326Y-23021674D01*
X39425000Y-23074000D01*
X39425000Y-23775000D01*
X39491103Y-23775000D01*
X39575470Y-23764867D01*
X39709726Y-23711924D01*
X39824720Y-23624721D01*
X39824721Y-23624720D01*
X39911924Y-23509726D01*
X39958051Y-23392755D01*
X39997410Y-23352029D01*
X40054039Y-23351061D01*
X40094765Y-23390420D01*
X40096226Y-23394041D01*
X40128371Y-23480225D01*
X40128372Y-23480226D01*
X40210313Y-23589687D01*
X40319774Y-23671628D01*
X40319773Y-23671628D01*
X40367557Y-23689450D01*
X40447886Y-23719412D01*
X40504515Y-23725500D01*
X40525498Y-23725499D01*
X40577824Y-23747171D01*
X40599500Y-23799496D01*
X40599500Y-24976925D01*
X40577826Y-25029251D01*
X40551360Y-25046259D01*
X40457670Y-25081202D01*
X40457669Y-25081203D01*
X40342454Y-25167454D01*
X40256203Y-25282669D01*
X40256202Y-25282670D01*
X40205910Y-25417512D01*
X40205909Y-25417517D01*
X40199500Y-25477126D01*
X40199500Y-26522873D01*
X40205909Y-26582485D01*
X40256202Y-26717329D01*
X40256203Y-26717330D01*
X40256204Y-26717331D01*
X40342454Y-26832546D01*
X40457669Y-26918796D01*
X40457670Y-26918797D01*
X40551360Y-26953741D01*
X40592813Y-26992334D01*
X40599500Y-27023075D01*
X40599500Y-29575500D01*
X40577826Y-29627826D01*
X40525500Y-29649500D01*
X38728854Y-29649500D01*
X38639715Y-29673384D01*
X38639710Y-29673386D01*
X38559787Y-29719530D01*
X36026490Y-32252826D01*
X35974164Y-32274500D01*
X35504514Y-32274500D01*
X35504513Y-32274501D01*
X35447885Y-32280588D01*
X35319774Y-32328371D01*
X35210313Y-32410313D01*
X35128371Y-32519774D01*
X35080588Y-32647884D01*
X35080588Y-32647887D01*
X35074500Y-32704513D01*
X33204395Y-32704513D01*
X32099074Y-31599192D01*
X32077400Y-31546866D01*
X32077400Y-31135308D01*
X32099074Y-31082982D01*
X32151400Y-31061308D01*
X32203726Y-31082982D01*
X32219767Y-31106990D01*
X32237675Y-31150226D01*
X32237676Y-31150227D01*
X32237678Y-31150231D01*
X32341698Y-31305908D01*
X32474092Y-31438302D01*
X32629769Y-31542322D01*
X32802749Y-31613973D01*
X32986384Y-31650500D01*
X32986385Y-31650500D01*
X33173615Y-31650500D01*
X33173616Y-31650500D01*
X33357251Y-31613973D01*
X33530231Y-31542322D01*
X33685908Y-31438302D01*
X33818302Y-31305908D01*
X33922322Y-31150231D01*
X33993973Y-30977251D01*
X34030500Y-30793616D01*
X34030500Y-30606384D01*
X34669500Y-30606384D01*
X34669500Y-30793615D01*
X34706025Y-30977244D01*
X34706027Y-30977251D01*
X34771496Y-31135308D01*
X34777678Y-31150231D01*
X34881698Y-31305908D01*
X35014092Y-31438302D01*
X35169769Y-31542322D01*
X35342749Y-31613973D01*
X35526384Y-31650500D01*
X35526385Y-31650500D01*
X35713615Y-31650500D01*
X35713616Y-31650500D01*
X35897251Y-31613973D01*
X36070231Y-31542322D01*
X36225908Y-31438302D01*
X36358302Y-31305908D01*
X36462322Y-31150231D01*
X36533973Y-30977251D01*
X36570500Y-30793616D01*
X36570500Y-30606384D01*
X36533973Y-30422749D01*
X36462322Y-30249769D01*
X36358302Y-30094092D01*
X36225908Y-29961698D01*
X36070231Y-29857678D01*
X36070228Y-29857676D01*
X36070227Y-29857676D01*
X35897251Y-29786027D01*
X35897244Y-29786025D01*
X35758902Y-29758507D01*
X35713616Y-29749500D01*
X35526384Y-29749500D01*
X35490056Y-29756725D01*
X35342755Y-29786025D01*
X35342748Y-29786027D01*
X35169772Y-29857676D01*
X35014092Y-29961697D01*
X35014091Y-29961699D01*
X34881699Y-30094091D01*
X34881697Y-30094092D01*
X34777676Y-30249772D01*
X34706027Y-30422748D01*
X34706025Y-30422755D01*
X34669500Y-30606384D01*
X34030500Y-30606384D01*
X33993973Y-30422749D01*
X33922322Y-30249769D01*
X33818302Y-30094092D01*
X33685908Y-29961698D01*
X33530231Y-29857678D01*
X33530228Y-29857676D01*
X33530227Y-29857676D01*
X33357251Y-29786027D01*
X33357244Y-29786025D01*
X33218902Y-29758507D01*
X33173616Y-29749500D01*
X32986384Y-29749500D01*
X32950056Y-29756725D01*
X32802755Y-29786025D01*
X32802748Y-29786027D01*
X32629772Y-29857676D01*
X32474092Y-29961697D01*
X32474091Y-29961699D01*
X32341699Y-30094091D01*
X32341697Y-30094092D01*
X32237676Y-30249772D01*
X32219767Y-30293010D01*
X32179718Y-30333058D01*
X32123081Y-30333058D01*
X32083033Y-30293009D01*
X32077400Y-30264691D01*
X32077400Y-27585326D01*
X36089500Y-27585326D01*
X36089500Y-28734674D01*
X36098872Y-28781788D01*
X36104034Y-28807740D01*
X36145230Y-28869396D01*
X36159399Y-28890601D01*
X36242260Y-28945966D01*
X36315326Y-28960500D01*
X36315328Y-28960500D01*
X37464672Y-28960500D01*
X37464674Y-28960500D01*
X37537740Y-28945966D01*
X37620601Y-28890601D01*
X37675966Y-28807740D01*
X37690500Y-28734674D01*
X37690500Y-27585326D01*
X37675966Y-27512260D01*
X37620601Y-27429399D01*
X37537740Y-27374034D01*
X37464674Y-27359500D01*
X36315326Y-27359500D01*
X36266615Y-27369189D01*
X36242259Y-27374034D01*
X36159399Y-27429398D01*
X36159398Y-27429399D01*
X36104034Y-27512259D01*
X36104034Y-27512260D01*
X36089500Y-27585326D01*
X32077400Y-27585326D01*
X32077400Y-26518061D01*
X38250000Y-26518061D01*
X38260614Y-26606443D01*
X38316077Y-26747092D01*
X38407435Y-26867564D01*
X38527907Y-26958922D01*
X38668556Y-27014385D01*
X38756939Y-27025000D01*
X38850000Y-27025000D01*
X39250000Y-27025000D01*
X39343061Y-27025000D01*
X39431443Y-27014385D01*
X39572092Y-26958922D01*
X39692564Y-26867564D01*
X39783922Y-26747092D01*
X39839385Y-26606443D01*
X39850000Y-26518061D01*
X39850000Y-26200000D01*
X39250000Y-26200000D01*
X39250000Y-27025000D01*
X38850000Y-27025000D01*
X38850000Y-26200000D01*
X38250000Y-26200000D01*
X38250000Y-26518061D01*
X32077400Y-26518061D01*
X32077400Y-25481938D01*
X38250000Y-25481938D01*
X38250000Y-25800000D01*
X38850000Y-25800000D01*
X39250000Y-25800000D01*
X39850000Y-25800000D01*
X39850000Y-25481938D01*
X39839385Y-25393556D01*
X39783922Y-25252907D01*
X39692564Y-25132435D01*
X39572092Y-25041077D01*
X39431443Y-24985614D01*
X39343061Y-24975000D01*
X39250000Y-24975000D01*
X39250000Y-25800000D01*
X38850000Y-25800000D01*
X38850000Y-24975000D01*
X38756939Y-24975000D01*
X38668556Y-24985614D01*
X38527907Y-25041077D01*
X38407435Y-25132435D01*
X38316077Y-25252907D01*
X38260614Y-25393556D01*
X38250000Y-25481938D01*
X32077400Y-25481938D01*
X32077400Y-20461158D01*
X36089500Y-20461158D01*
X36089500Y-20618842D01*
X36099661Y-20669925D01*
X36120261Y-20773491D01*
X36120264Y-20773501D01*
X36180603Y-20919174D01*
X36180605Y-20919177D01*
X36180606Y-20919179D01*
X36268211Y-21050289D01*
X36379711Y-21161789D01*
X36510821Y-21249394D01*
X36510826Y-21249396D01*
X36510825Y-21249396D01*
X36602390Y-21287323D01*
X36656503Y-21309737D01*
X36811158Y-21340500D01*
X36811160Y-21340500D01*
X36968840Y-21340500D01*
X36968842Y-21340500D01*
X37123497Y-21309737D01*
X37269179Y-21249394D01*
X37400289Y-21161789D01*
X37511789Y-21050289D01*
X37599394Y-20919179D01*
X37659737Y-20773497D01*
X37690500Y-20618842D01*
X37690500Y-20461158D01*
X37659737Y-20306503D01*
X37632890Y-20241687D01*
X37599396Y-20160825D01*
X37599395Y-20160823D01*
X37599394Y-20160821D01*
X37511789Y-20029711D01*
X37400289Y-19918211D01*
X37269179Y-19830606D01*
X37269175Y-19830604D01*
X37269173Y-19830603D01*
X37269174Y-19830603D01*
X37123501Y-19770264D01*
X37123491Y-19770261D01*
X37019925Y-19749661D01*
X36968842Y-19739500D01*
X36811158Y-19739500D01*
X36767315Y-19748220D01*
X36656508Y-19770261D01*
X36656498Y-19770264D01*
X36510825Y-19830603D01*
X36379711Y-19918210D01*
X36379710Y-19918212D01*
X36268212Y-20029710D01*
X36268210Y-20029711D01*
X36180603Y-20160825D01*
X36120264Y-20306498D01*
X36120263Y-20306503D01*
X36089500Y-20461158D01*
X32077400Y-20461158D01*
X32077400Y-20410754D01*
X32077399Y-20410753D01*
X32053515Y-20321616D01*
X32053514Y-20321612D01*
X32044791Y-20306503D01*
X32007370Y-20241688D01*
X29686840Y-17921158D01*
X36089500Y-17921158D01*
X36089500Y-18078842D01*
X36099661Y-18129925D01*
X36120261Y-18233491D01*
X36120264Y-18233501D01*
X36180603Y-18379174D01*
X36180605Y-18379177D01*
X36180606Y-18379179D01*
X36268211Y-18510289D01*
X36379711Y-18621789D01*
X36510821Y-18709394D01*
X36510826Y-18709396D01*
X36510825Y-18709396D01*
X36542674Y-18722588D01*
X36656503Y-18769737D01*
X36811158Y-18800500D01*
X36811160Y-18800500D01*
X36968840Y-18800500D01*
X36968842Y-18800500D01*
X37123497Y-18769737D01*
X37269179Y-18709394D01*
X37400289Y-18621789D01*
X37511789Y-18510289D01*
X37599394Y-18379179D01*
X37659737Y-18233497D01*
X37690500Y-18078842D01*
X37690500Y-17921158D01*
X37659737Y-17766503D01*
X37628049Y-17690000D01*
X37599396Y-17620825D01*
X37599395Y-17620823D01*
X37599394Y-17620821D01*
X37511789Y-17489711D01*
X37400289Y-17378211D01*
X37269179Y-17290606D01*
X37269175Y-17290604D01*
X37269173Y-17290603D01*
X37269174Y-17290603D01*
X37123501Y-17230264D01*
X37123491Y-17230261D01*
X37019925Y-17209661D01*
X36968842Y-17199500D01*
X36811158Y-17199500D01*
X36777460Y-17206203D01*
X36656508Y-17230261D01*
X36656498Y-17230264D01*
X36510825Y-17290603D01*
X36379711Y-17378210D01*
X36379710Y-17378212D01*
X36268212Y-17489710D01*
X36268210Y-17489711D01*
X36180603Y-17620825D01*
X36120264Y-17766498D01*
X36120261Y-17766508D01*
X36094580Y-17895616D01*
X36089500Y-17921158D01*
X29686840Y-17921158D01*
X27146841Y-15381159D01*
X36089500Y-15381159D01*
X36089500Y-15538840D01*
X36120261Y-15693491D01*
X36120264Y-15693501D01*
X36180603Y-15839174D01*
X36180605Y-15839177D01*
X36180606Y-15839179D01*
X36208223Y-15880511D01*
X36241542Y-15930377D01*
X36268211Y-15970289D01*
X36379711Y-16081789D01*
X36510821Y-16169394D01*
X36510826Y-16169396D01*
X36510825Y-16169396D01*
X36656498Y-16229735D01*
X36656503Y-16229737D01*
X36811158Y-16260500D01*
X36811160Y-16260500D01*
X36968840Y-16260500D01*
X36968842Y-16260500D01*
X37123497Y-16229737D01*
X37269179Y-16169394D01*
X37400289Y-16081789D01*
X37511789Y-15970289D01*
X37599394Y-15839179D01*
X37659737Y-15693497D01*
X37690500Y-15538842D01*
X37690500Y-15381158D01*
X37659737Y-15226503D01*
X37638197Y-15174500D01*
X37599396Y-15080825D01*
X37599395Y-15080823D01*
X37599394Y-15080821D01*
X37511789Y-14949711D01*
X37400289Y-14838211D01*
X37269179Y-14750606D01*
X37269175Y-14750604D01*
X37269173Y-14750603D01*
X37269174Y-14750603D01*
X37123501Y-14690264D01*
X37123491Y-14690261D01*
X37019925Y-14669661D01*
X36968842Y-14659500D01*
X36811158Y-14659500D01*
X36767315Y-14668220D01*
X36656508Y-14690261D01*
X36656498Y-14690264D01*
X36510825Y-14750603D01*
X36379711Y-14838210D01*
X36379710Y-14838212D01*
X36268212Y-14949710D01*
X36268210Y-14949711D01*
X36180603Y-15080825D01*
X36120264Y-15226498D01*
X36120261Y-15226508D01*
X36089500Y-15381159D01*
X27146841Y-15381159D01*
X25659511Y-13893829D01*
X25637837Y-13841503D01*
X25659511Y-13789177D01*
X25690357Y-13770689D01*
X25693489Y-13769738D01*
X25693497Y-13769737D01*
X25839179Y-13709394D01*
X25970289Y-13621789D01*
X26081789Y-13510289D01*
X26169394Y-13379179D01*
X26229737Y-13233497D01*
X26260500Y-13078842D01*
X26260500Y-12921158D01*
X27199500Y-12921158D01*
X27199500Y-13078842D01*
X27208746Y-13125326D01*
X27230261Y-13233491D01*
X27230264Y-13233501D01*
X27290603Y-13379174D01*
X27377619Y-13509404D01*
X27378211Y-13510289D01*
X27489711Y-13621789D01*
X27620821Y-13709394D01*
X27620826Y-13709396D01*
X27620825Y-13709396D01*
X27726924Y-13753343D01*
X27766503Y-13769737D01*
X27921158Y-13800500D01*
X27921160Y-13800500D01*
X28078840Y-13800500D01*
X28078842Y-13800500D01*
X28233497Y-13769737D01*
X28379179Y-13709394D01*
X28510289Y-13621789D01*
X28621789Y-13510289D01*
X28709394Y-13379179D01*
X28769737Y-13233497D01*
X28800500Y-13078842D01*
X28800500Y-12921158D01*
X29739500Y-12921158D01*
X29739500Y-13078842D01*
X29748746Y-13125326D01*
X29770261Y-13233491D01*
X29770264Y-13233501D01*
X29830603Y-13379174D01*
X29917619Y-13509404D01*
X29918211Y-13510289D01*
X30029711Y-13621789D01*
X30160821Y-13709394D01*
X30160826Y-13709396D01*
X30160825Y-13709396D01*
X30266924Y-13753343D01*
X30306503Y-13769737D01*
X30461158Y-13800500D01*
X30461160Y-13800500D01*
X30618840Y-13800500D01*
X30618842Y-13800500D01*
X30773497Y-13769737D01*
X30919179Y-13709394D01*
X31050289Y-13621789D01*
X31161789Y-13510289D01*
X31249394Y-13379179D01*
X31309737Y-13233497D01*
X31340500Y-13078842D01*
X31340500Y-12921158D01*
X32279500Y-12921158D01*
X32279500Y-13078842D01*
X32288746Y-13125326D01*
X32310261Y-13233491D01*
X32310264Y-13233501D01*
X32370603Y-13379174D01*
X32457619Y-13509404D01*
X32458211Y-13510289D01*
X32569711Y-13621789D01*
X32700821Y-13709394D01*
X32700826Y-13709396D01*
X32700825Y-13709396D01*
X32806924Y-13753343D01*
X32846503Y-13769737D01*
X33001158Y-13800500D01*
X33001160Y-13800500D01*
X33158840Y-13800500D01*
X33158842Y-13800500D01*
X33313497Y-13769737D01*
X33459179Y-13709394D01*
X33590289Y-13621789D01*
X33701789Y-13510289D01*
X33789394Y-13379179D01*
X33849737Y-13233497D01*
X33880500Y-13078842D01*
X33880500Y-12921158D01*
X34819500Y-12921158D01*
X34819500Y-13078842D01*
X34828746Y-13125326D01*
X34850261Y-13233491D01*
X34850264Y-13233501D01*
X34910603Y-13379174D01*
X34997619Y-13509404D01*
X34998211Y-13510289D01*
X35109711Y-13621789D01*
X35240821Y-13709394D01*
X35240826Y-13709396D01*
X35240825Y-13709396D01*
X35346924Y-13753343D01*
X35386503Y-13769737D01*
X35541158Y-13800500D01*
X35541160Y-13800500D01*
X35698840Y-13800500D01*
X35698842Y-13800500D01*
X35853497Y-13769737D01*
X35999179Y-13709394D01*
X36130289Y-13621789D01*
X36241789Y-13510289D01*
X36241790Y-13510288D01*
X36242674Y-13509404D01*
X36295000Y-13487730D01*
X36347326Y-13509404D01*
X36379711Y-13541789D01*
X36510821Y-13629394D01*
X36510826Y-13629396D01*
X36510825Y-13629396D01*
X36549632Y-13645470D01*
X36656503Y-13689737D01*
X36811158Y-13720500D01*
X36811160Y-13720500D01*
X36968840Y-13720500D01*
X36968842Y-13720500D01*
X37123497Y-13689737D01*
X37269179Y-13629394D01*
X37400289Y-13541789D01*
X37511789Y-13430289D01*
X37599394Y-13299179D01*
X37659737Y-13153497D01*
X37690500Y-12998842D01*
X37690500Y-12841158D01*
X37659737Y-12686503D01*
X37659735Y-12686498D01*
X37599396Y-12540825D01*
X37599395Y-12540823D01*
X37599394Y-12540821D01*
X37511789Y-12409711D01*
X37400289Y-12298211D01*
X37388907Y-12290606D01*
X37367823Y-12276518D01*
X37269179Y-12210606D01*
X37269175Y-12210604D01*
X37269173Y-12210603D01*
X37269174Y-12210603D01*
X37123501Y-12150264D01*
X37123491Y-12150261D01*
X37019925Y-12129661D01*
X36968842Y-12119500D01*
X36811158Y-12119500D01*
X36767315Y-12128220D01*
X36656508Y-12150261D01*
X36656498Y-12150264D01*
X36510825Y-12210603D01*
X36379711Y-12298210D01*
X36379710Y-12298212D01*
X36267326Y-12410596D01*
X36215000Y-12432270D01*
X36162674Y-12410596D01*
X36130288Y-12378210D01*
X36097842Y-12356530D01*
X35999179Y-12290606D01*
X35999175Y-12290604D01*
X35999173Y-12290603D01*
X35999174Y-12290603D01*
X35853501Y-12230264D01*
X35853491Y-12230261D01*
X35744515Y-12208585D01*
X35698842Y-12199500D01*
X35541158Y-12199500D01*
X35497315Y-12208220D01*
X35386508Y-12230261D01*
X35386498Y-12230264D01*
X35240825Y-12290603D01*
X35109711Y-12378210D01*
X35109710Y-12378212D01*
X34998212Y-12489710D01*
X34998210Y-12489711D01*
X34910603Y-12620825D01*
X34850264Y-12766498D01*
X34850261Y-12766508D01*
X34833489Y-12850831D01*
X34819500Y-12921158D01*
X33880500Y-12921158D01*
X33849737Y-12766503D01*
X33824139Y-12704704D01*
X33789396Y-12620825D01*
X33789395Y-12620823D01*
X33789394Y-12620821D01*
X33701789Y-12489711D01*
X33590289Y-12378211D01*
X33578464Y-12370310D01*
X33557842Y-12356530D01*
X33459179Y-12290606D01*
X33459175Y-12290604D01*
X33459173Y-12290603D01*
X33459174Y-12290603D01*
X33313501Y-12230264D01*
X33313491Y-12230261D01*
X33204515Y-12208585D01*
X33158842Y-12199500D01*
X33001158Y-12199500D01*
X32957315Y-12208220D01*
X32846508Y-12230261D01*
X32846498Y-12230264D01*
X32700825Y-12290603D01*
X32569711Y-12378210D01*
X32569710Y-12378212D01*
X32458212Y-12489710D01*
X32458210Y-12489711D01*
X32370603Y-12620825D01*
X32310264Y-12766498D01*
X32310261Y-12766508D01*
X32293489Y-12850831D01*
X32279500Y-12921158D01*
X31340500Y-12921158D01*
X31310724Y-12771465D01*
X31321773Y-12715918D01*
X31330971Y-12704709D01*
X34553508Y-9482174D01*
X34605834Y-9460500D01*
X36658078Y-9460500D01*
X36710404Y-9482174D01*
X36732078Y-9534500D01*
X36710404Y-9586826D01*
X36672514Y-9607078D01*
X36656509Y-9610261D01*
X36656498Y-9610264D01*
X36510825Y-9670603D01*
X36379711Y-9758210D01*
X36379710Y-9758212D01*
X36268212Y-9869710D01*
X36268210Y-9869711D01*
X36180603Y-10000825D01*
X36120264Y-10146498D01*
X36120261Y-10146508D01*
X36094580Y-10275616D01*
X36089500Y-10301158D01*
X36089500Y-10458842D01*
X36093734Y-10480127D01*
X36120261Y-10613491D01*
X36120264Y-10613501D01*
X36180603Y-10759174D01*
X36180605Y-10759177D01*
X36180606Y-10759179D01*
X36268211Y-10890289D01*
X36379711Y-11001789D01*
X36510821Y-11089394D01*
X36510826Y-11089396D01*
X36510825Y-11089396D01*
X36656498Y-11149735D01*
X36656503Y-11149737D01*
X36811158Y-11180500D01*
X36811160Y-11180500D01*
X36968840Y-11180500D01*
X36968842Y-11180500D01*
X37123497Y-11149737D01*
X37269179Y-11089394D01*
X37400289Y-11001789D01*
X37511789Y-10890289D01*
X37599394Y-10759179D01*
X37659737Y-10613497D01*
X37690500Y-10458842D01*
X37690500Y-10301158D01*
X37659737Y-10146503D01*
X37599394Y-10000821D01*
X37511789Y-9869711D01*
X37400289Y-9758211D01*
X37269179Y-9670606D01*
X37269175Y-9670604D01*
X37269173Y-9670603D01*
X37269174Y-9670603D01*
X37123501Y-9610264D01*
X37123490Y-9610261D01*
X37107486Y-9607078D01*
X37060393Y-9575613D01*
X37049344Y-9520064D01*
X37080809Y-9472971D01*
X37121922Y-9460500D01*
X42111146Y-9460500D01*
X42111146Y-9460499D01*
X42200288Y-9436614D01*
X42280212Y-9390470D01*
X42923508Y-8747174D01*
X42975834Y-8725500D01*
X43429258Y-8725500D01*
X43429266Y-8725500D01*
X43459699Y-8722646D01*
X43587882Y-8677793D01*
X43697150Y-8597150D01*
X43777793Y-8487882D01*
X43822646Y-8359699D01*
X43825500Y-8329266D01*
X43825500Y-7670734D01*
X43822646Y-7640301D01*
X43777793Y-7512118D01*
X43777792Y-7512116D01*
X43697153Y-7402853D01*
X43697146Y-7402846D01*
X43587883Y-7322207D01*
X43587881Y-7322206D01*
X43459704Y-7277355D01*
X43459705Y-7277355D01*
X43459700Y-7277354D01*
X43459699Y-7277354D01*
X43429266Y-7274500D01*
X42920734Y-7274500D01*
X42890301Y-7277354D01*
X42890299Y-7277354D01*
X42890295Y-7277355D01*
X42762118Y-7322206D01*
X42762116Y-7322207D01*
X42652853Y-7402846D01*
X42652846Y-7402853D01*
X42572207Y-7512116D01*
X42572206Y-7512118D01*
X42527355Y-7640295D01*
X42527354Y-7640299D01*
X42527354Y-7640301D01*
X42524500Y-7670734D01*
X42524500Y-7670740D01*
X42524500Y-8124166D01*
X42502826Y-8176492D01*
X41941492Y-8737826D01*
X41889166Y-8759500D01*
X37121922Y-8759500D01*
X37069596Y-8737826D01*
X37047922Y-8685500D01*
X37069596Y-8633174D01*
X37107486Y-8612922D01*
X37112754Y-8611873D01*
X37123497Y-8609737D01*
X37269179Y-8549394D01*
X37400289Y-8461789D01*
X37511789Y-8350289D01*
X37599394Y-8219179D01*
X37659737Y-8073497D01*
X37690500Y-7918842D01*
X37690500Y-7761158D01*
X37659737Y-7606503D01*
X37599394Y-7460821D01*
X37511789Y-7329711D01*
X37400289Y-7218211D01*
X37269179Y-7130606D01*
X37269175Y-7130604D01*
X37269173Y-7130603D01*
X37269174Y-7130603D01*
X37123501Y-7070264D01*
X37123491Y-7070261D01*
X37019925Y-7049661D01*
X36968842Y-7039500D01*
X36811158Y-7039500D01*
X36767315Y-7048220D01*
X36656508Y-7070261D01*
X36656498Y-7070264D01*
X36510825Y-7130603D01*
X36379711Y-7218210D01*
X36379710Y-7218212D01*
X36268212Y-7329710D01*
X36268210Y-7329711D01*
X36180603Y-7460825D01*
X36120264Y-7606498D01*
X36120261Y-7606508D01*
X36089500Y-7761159D01*
X36089500Y-7918840D01*
X36120261Y-8073491D01*
X36120264Y-8073501D01*
X36180603Y-8219174D01*
X36180605Y-8219177D01*
X36180606Y-8219179D01*
X36268211Y-8350289D01*
X36379711Y-8461789D01*
X36510821Y-8549394D01*
X36510826Y-8549396D01*
X36510825Y-8549396D01*
X36626105Y-8597146D01*
X36656503Y-8609737D01*
X36661465Y-8610724D01*
X36672514Y-8612922D01*
X36719607Y-8644387D01*
X36730656Y-8699936D01*
X36699191Y-8747029D01*
X36658078Y-8759500D01*
X34383854Y-8759500D01*
X34294715Y-8783384D01*
X34294710Y-8783386D01*
X34214787Y-8829530D01*
X30835293Y-12209023D01*
X30782967Y-12230697D01*
X30768530Y-12229275D01*
X30618842Y-12199500D01*
X30461158Y-12199500D01*
X30417315Y-12208220D01*
X30306508Y-12230261D01*
X30306498Y-12230264D01*
X30160825Y-12290603D01*
X30029711Y-12378210D01*
X30029710Y-12378212D01*
X29918212Y-12489710D01*
X29918210Y-12489711D01*
X29830603Y-12620825D01*
X29770264Y-12766498D01*
X29770261Y-12766508D01*
X29753489Y-12850831D01*
X29739500Y-12921158D01*
X28800500Y-12921158D01*
X28769737Y-12766503D01*
X28744139Y-12704704D01*
X28709396Y-12620825D01*
X28709395Y-12620823D01*
X28709394Y-12620821D01*
X28621789Y-12489711D01*
X28510289Y-12378211D01*
X28498464Y-12370310D01*
X28477842Y-12356530D01*
X28379179Y-12290606D01*
X28379175Y-12290604D01*
X28379173Y-12290603D01*
X28379174Y-12290603D01*
X28233501Y-12230264D01*
X28233491Y-12230261D01*
X28124515Y-12208585D01*
X28078842Y-12199500D01*
X27921158Y-12199500D01*
X27877315Y-12208220D01*
X27766508Y-12230261D01*
X27766498Y-12230264D01*
X27620825Y-12290603D01*
X27489711Y-12378210D01*
X27489710Y-12378212D01*
X27378212Y-12489710D01*
X27378210Y-12489711D01*
X27290603Y-12620825D01*
X27230264Y-12766498D01*
X27230261Y-12766508D01*
X27213489Y-12850831D01*
X27199500Y-12921158D01*
X26260500Y-12921158D01*
X26229737Y-12766503D01*
X26204139Y-12704704D01*
X26169396Y-12620825D01*
X26169395Y-12620823D01*
X26169394Y-12620821D01*
X26081789Y-12489711D01*
X25970289Y-12378211D01*
X25958464Y-12370310D01*
X25937842Y-12356530D01*
X25839179Y-12290606D01*
X25839175Y-12290604D01*
X25839173Y-12290603D01*
X25839174Y-12290603D01*
X25693501Y-12230264D01*
X25693491Y-12230261D01*
X25584515Y-12208585D01*
X25538842Y-12199500D01*
X25381158Y-12199500D01*
X25337315Y-12208220D01*
X25226508Y-12230261D01*
X25226498Y-12230264D01*
X25080825Y-12290603D01*
X24949711Y-12378210D01*
X24949710Y-12378212D01*
X24838212Y-12489710D01*
X24838210Y-12489711D01*
X24750603Y-12620825D01*
X24690260Y-12766507D01*
X24689306Y-12769654D01*
X24653369Y-12813430D01*
X24597004Y-12818972D01*
X24566170Y-12800488D01*
X19900976Y-8135294D01*
X19879302Y-8082968D01*
X19880723Y-8068539D01*
X19910500Y-7918842D01*
X19910500Y-7761158D01*
X19879737Y-7606503D01*
X19819394Y-7460821D01*
X19731789Y-7329711D01*
X19620289Y-7218211D01*
X19489179Y-7130606D01*
X19489175Y-7130604D01*
X19489173Y-7130603D01*
X19489174Y-7130603D01*
X19343501Y-7070264D01*
X19343491Y-7070261D01*
X19239925Y-7049661D01*
X19188842Y-7039500D01*
X19031158Y-7039500D01*
X18987315Y-7048220D01*
X18876508Y-7070261D01*
X18876498Y-7070264D01*
X18730825Y-7130603D01*
X18599711Y-7218210D01*
X18599710Y-7218212D01*
X18488212Y-7329710D01*
X18488210Y-7329711D01*
X18400603Y-7460825D01*
X18340264Y-7606498D01*
X18340261Y-7606508D01*
X18309500Y-7761159D01*
X18309500Y-7918840D01*
X18340261Y-8073491D01*
X18340264Y-8073501D01*
X18400603Y-8219174D01*
X18400605Y-8219177D01*
X18400606Y-8219179D01*
X18488211Y-8350289D01*
X18599711Y-8461789D01*
X18730821Y-8549394D01*
X18730826Y-8549396D01*
X18730825Y-8549396D01*
X18846105Y-8597146D01*
X18876503Y-8609737D01*
X19031158Y-8640500D01*
X19031160Y-8640500D01*
X19188840Y-8640500D01*
X19188842Y-8640500D01*
X19338533Y-8610724D01*
X19394080Y-8621773D01*
X19405294Y-8630976D01*
X22853913Y-12079595D01*
X22875587Y-12131921D01*
X22853913Y-12184247D01*
X22816024Y-12204499D01*
X22686508Y-12230261D01*
X22686498Y-12230264D01*
X22540825Y-12290603D01*
X22409711Y-12378210D01*
X22409710Y-12378212D01*
X22298212Y-12489710D01*
X22298210Y-12489711D01*
X22210603Y-12620825D01*
X22150264Y-12766498D01*
X22150261Y-12766508D01*
X22133489Y-12850831D01*
X22119500Y-12921158D01*
X22119500Y-13078842D01*
X22128746Y-13125326D01*
X22150261Y-13233491D01*
X22150264Y-13233501D01*
X22210603Y-13379174D01*
X22297619Y-13509404D01*
X22298211Y-13510289D01*
X22409711Y-13621789D01*
X22540821Y-13709394D01*
X22540826Y-13709396D01*
X22540825Y-13709396D01*
X22646924Y-13753343D01*
X22686503Y-13769737D01*
X22841158Y-13800500D01*
X22841160Y-13800500D01*
X22998840Y-13800500D01*
X22998842Y-13800500D01*
X23153497Y-13769737D01*
X23299179Y-13709394D01*
X23430289Y-13621789D01*
X23541789Y-13510289D01*
X23629394Y-13379179D01*
X23689737Y-13233497D01*
X23715500Y-13103974D01*
X23746966Y-13056883D01*
X23802514Y-13045834D01*
X23840404Y-13066086D01*
X31354726Y-20580408D01*
X31376400Y-20632734D01*
X31376400Y-30013538D01*
X31354726Y-30065864D01*
X31302400Y-30087538D01*
X31250074Y-30065864D01*
X31145907Y-29961697D01*
X30995530Y-29861219D01*
X30990231Y-29857678D01*
X30990228Y-29857676D01*
X30990227Y-29857676D01*
X30817251Y-29786027D01*
X30817244Y-29786025D01*
X30678902Y-29758507D01*
X30633616Y-29749500D01*
X30446384Y-29749500D01*
X30410056Y-29756725D01*
X30262755Y-29786025D01*
X30262748Y-29786027D01*
X30089772Y-29857676D01*
X29934092Y-29961697D01*
X29934091Y-29961699D01*
X29801699Y-30094091D01*
X29801697Y-30094092D01*
X29697676Y-30249772D01*
X29626027Y-30422748D01*
X29626025Y-30422755D01*
X29589500Y-30606384D01*
X29589500Y-30793615D01*
X29626025Y-30977244D01*
X29626027Y-30977251D01*
X29691496Y-31135308D01*
X29697678Y-31150231D01*
X29801698Y-31305908D01*
X29934092Y-31438302D01*
X30089769Y-31542322D01*
X30262749Y-31613973D01*
X30446384Y-31650500D01*
X30446385Y-31650500D01*
X30633615Y-31650500D01*
X30633616Y-31650500D01*
X30817251Y-31613973D01*
X30990231Y-31542322D01*
X31145908Y-31438302D01*
X31250074Y-31334136D01*
X31302400Y-31312462D01*
X31354726Y-31334136D01*
X31376400Y-31386462D01*
X31376400Y-31768843D01*
X31393566Y-31832911D01*
X31400285Y-31857984D01*
X31400286Y-31857988D01*
X31446430Y-31937912D01*
X40627826Y-41119308D01*
X40649500Y-41171634D01*
X40649500Y-44805346D01*
X40659603Y-44843050D01*
X40669125Y-44878586D01*
X40672244Y-44890228D01*
X40673386Y-44894489D01*
X40719530Y-44974412D01*
X42263621Y-46518503D01*
X42285295Y-46570829D01*
X42277230Y-46604423D01*
X42264354Y-46629693D01*
X42264354Y-46629695D01*
X42249500Y-46723480D01*
X42249501Y-47089425D01*
X42247547Y-47089425D01*
X42231678Y-47137878D01*
X42181153Y-47163472D01*
X42127330Y-47145844D01*
X42123195Y-47142013D01*
X39735128Y-44753946D01*
X39713454Y-44701620D01*
X39721519Y-44668028D01*
X39735646Y-44640304D01*
X39750500Y-44546519D01*
X39750499Y-44183482D01*
X39743266Y-44137813D01*
X39735646Y-44089695D01*
X39735645Y-44089693D01*
X39685851Y-43991968D01*
X39678050Y-43976658D01*
X39588342Y-43886950D01*
X39475304Y-43829354D01*
X39475302Y-43829353D01*
X39475301Y-43829353D01*
X39381519Y-43814500D01*
X37668480Y-43814500D01*
X37574695Y-43829353D01*
X37574693Y-43829354D01*
X37461657Y-43886950D01*
X37371951Y-43976656D01*
X37314353Y-44089698D01*
X37299500Y-44183480D01*
X37299500Y-44546519D01*
X37314353Y-44640304D01*
X37314354Y-44640306D01*
X37359964Y-44729818D01*
X37371950Y-44753342D01*
X37461658Y-44843050D01*
X37574696Y-44900646D01*
X37668481Y-44915500D01*
X38874665Y-44915499D01*
X38926991Y-44937173D01*
X38947992Y-44958174D01*
X38969666Y-45010500D01*
X38947992Y-45062826D01*
X38895666Y-45084500D01*
X37668480Y-45084500D01*
X37574695Y-45099353D01*
X37574693Y-45099354D01*
X37461657Y-45156950D01*
X37371951Y-45246656D01*
X37314353Y-45359698D01*
X37299500Y-45453480D01*
X37299500Y-45816519D01*
X37314353Y-45910304D01*
X37314354Y-45910306D01*
X37368854Y-46017266D01*
X37371950Y-46023342D01*
X37461658Y-46113050D01*
X37574696Y-46170646D01*
X37668481Y-46185500D01*
X39060765Y-46185499D01*
X39113091Y-46207173D01*
X39134092Y-46228174D01*
X39155766Y-46280500D01*
X39134092Y-46332826D01*
X39081766Y-46354500D01*
X37668480Y-46354500D01*
X37574695Y-46369353D01*
X37574693Y-46369354D01*
X37461657Y-46426950D01*
X37371951Y-46516656D01*
X37314353Y-46629698D01*
X37299500Y-46723480D01*
X37299500Y-47086519D01*
X37314353Y-47180304D01*
X37314354Y-47180306D01*
X37364890Y-47279487D01*
X37371950Y-47293342D01*
X37461658Y-47383050D01*
X37574696Y-47440646D01*
X37668481Y-47455500D01*
X39381518Y-47455499D01*
X39381519Y-47455499D01*
X39475304Y-47440646D01*
X39475306Y-47440645D01*
X39486801Y-47434788D01*
X39588342Y-47383050D01*
X39678050Y-47293342D01*
X39735646Y-47180304D01*
X39750500Y-47086519D01*
X39750499Y-47023232D01*
X39772172Y-46970908D01*
X39824498Y-46949233D01*
X39876824Y-46970906D01*
X41054092Y-48148174D01*
X41075766Y-48200500D01*
X41054092Y-48252826D01*
X41001766Y-48274500D01*
X40920734Y-48274500D01*
X40890301Y-48277354D01*
X40890299Y-48277354D01*
X40890295Y-48277355D01*
X40762118Y-48322206D01*
X40762116Y-48322207D01*
X40652853Y-48402846D01*
X40652846Y-48402853D01*
X40572207Y-48512116D01*
X40572206Y-48512118D01*
X40529039Y-48635480D01*
X40491299Y-48677711D01*
X40440039Y-48682517D01*
X40377277Y-48665700D01*
X40377275Y-48665700D01*
X40232325Y-48665700D01*
X40232323Y-48665700D01*
X40092318Y-48703214D01*
X40092313Y-48703216D01*
X39966784Y-48775691D01*
X39864291Y-48878184D01*
X39791816Y-49003713D01*
X39791814Y-49003718D01*
X39754300Y-49143722D01*
X39754300Y-49288677D01*
X39791814Y-49428681D01*
X39791816Y-49428686D01*
X39864291Y-49554215D01*
X39970215Y-49660139D01*
X39968322Y-49662031D01*
X39992345Y-49703647D01*
X39977681Y-49758353D01*
X39928630Y-49786668D01*
X39918977Y-49787300D01*
X33047734Y-49787300D01*
X32995408Y-49765626D01*
X32831608Y-49601826D01*
X32809934Y-49549500D01*
X32831608Y-49497174D01*
X32883934Y-49475500D01*
X32965768Y-49475500D01*
X32965768Y-49475499D01*
X33112135Y-49436281D01*
X33243365Y-49360515D01*
X33350515Y-49253365D01*
X33426281Y-49122135D01*
X33465499Y-48975768D01*
X33465500Y-48975768D01*
X33465500Y-48824232D01*
X33465499Y-48824231D01*
X33452205Y-48774618D01*
X33426281Y-48677865D01*
X33350515Y-48546635D01*
X33243365Y-48439485D01*
X33243362Y-48439483D01*
X33112139Y-48363721D01*
X33112130Y-48363717D01*
X33043059Y-48345210D01*
X32998126Y-48310732D01*
X32989634Y-48259297D01*
X33000500Y-48204674D01*
X33000500Y-46705326D01*
X32985966Y-46632260D01*
X32930601Y-46549399D01*
X32930600Y-46549398D01*
X32847741Y-46494034D01*
X32845861Y-46493256D01*
X32844422Y-46491817D01*
X32841680Y-46489985D01*
X32842044Y-46489439D01*
X32805813Y-46453206D01*
X32800813Y-46434538D01*
X32800500Y-46432164D01*
X32800500Y-46432156D01*
X32776614Y-46343012D01*
X32767674Y-46327527D01*
X32730470Y-46263088D01*
X31867512Y-45400130D01*
X31787589Y-45353986D01*
X31787584Y-45353984D01*
X31698446Y-45330100D01*
X31698444Y-45330100D01*
X27974500Y-45330100D01*
X27922174Y-45308426D01*
X27900500Y-45256100D01*
X27900500Y-42127522D01*
X34489500Y-42127522D01*
X34489500Y-42272477D01*
X34527014Y-42412481D01*
X34527016Y-42412486D01*
X34590722Y-42522826D01*
X34599491Y-42538015D01*
X34701985Y-42640509D01*
X34793876Y-42693563D01*
X34816554Y-42706656D01*
X34827515Y-42712984D01*
X34827516Y-42712984D01*
X34827518Y-42712985D01*
X34897520Y-42731742D01*
X34967522Y-42750499D01*
X34967523Y-42750500D01*
X34967525Y-42750500D01*
X35112477Y-42750500D01*
X35112477Y-42750499D01*
X35252485Y-42712984D01*
X35378015Y-42640509D01*
X35480509Y-42538015D01*
X35552984Y-42412485D01*
X35590499Y-42272477D01*
X35590500Y-42272477D01*
X35590500Y-42127523D01*
X35590499Y-42127522D01*
X35589052Y-42122123D01*
X35571742Y-42057520D01*
X35552985Y-41987518D01*
X35552983Y-41987513D01*
X35495363Y-41887713D01*
X35480509Y-41861985D01*
X35378015Y-41759491D01*
X35329577Y-41731525D01*
X35252486Y-41687016D01*
X35252481Y-41687014D01*
X35112477Y-41649500D01*
X35112475Y-41649500D01*
X34967525Y-41649500D01*
X34967523Y-41649500D01*
X34827518Y-41687014D01*
X34827513Y-41687016D01*
X34701984Y-41759491D01*
X34599491Y-41861984D01*
X34527016Y-41987513D01*
X34527014Y-41987518D01*
X34489500Y-42127522D01*
X27900500Y-42127522D01*
X27900500Y-40895722D01*
X30787300Y-40895722D01*
X30787300Y-41040677D01*
X30824814Y-41180681D01*
X30824816Y-41180686D01*
X30883477Y-41282288D01*
X30897291Y-41306215D01*
X30999785Y-41408709D01*
X31125315Y-41481184D01*
X31125316Y-41481184D01*
X31125318Y-41481185D01*
X31195320Y-41499942D01*
X31265322Y-41518699D01*
X31265323Y-41518700D01*
X31265325Y-41518700D01*
X31410277Y-41518700D01*
X31410277Y-41518699D01*
X31550285Y-41481184D01*
X31675815Y-41408709D01*
X31778309Y-41306215D01*
X31850784Y-41180685D01*
X31888299Y-41040677D01*
X31888300Y-41040677D01*
X31888300Y-40895723D01*
X31888299Y-40895722D01*
X31882266Y-40873208D01*
X31857257Y-40779871D01*
X31850785Y-40755718D01*
X31850783Y-40755713D01*
X31792400Y-40654591D01*
X31778309Y-40630185D01*
X31675815Y-40527691D01*
X31630763Y-40501680D01*
X31550286Y-40455216D01*
X31550281Y-40455214D01*
X31410277Y-40417700D01*
X31410275Y-40417700D01*
X31265325Y-40417700D01*
X31265323Y-40417700D01*
X31125318Y-40455214D01*
X31125313Y-40455216D01*
X30999784Y-40527691D01*
X30897291Y-40630184D01*
X30824816Y-40755713D01*
X30824814Y-40755718D01*
X30787300Y-40895722D01*
X27900500Y-40895722D01*
X27900500Y-37153254D01*
X27900499Y-37153253D01*
X27876615Y-37064115D01*
X27876614Y-37064114D01*
X27876614Y-37064112D01*
X27866240Y-37046144D01*
X27830470Y-36984188D01*
X22587436Y-31741154D01*
X22565762Y-31688828D01*
X22587436Y-31636502D01*
X22639762Y-31614828D01*
X22654193Y-31616249D01*
X22826384Y-31650500D01*
X22826386Y-31650500D01*
X23013615Y-31650500D01*
X23013616Y-31650500D01*
X23197251Y-31613973D01*
X23370231Y-31542322D01*
X23525908Y-31438302D01*
X23658302Y-31305908D01*
X23762322Y-31150231D01*
X23833973Y-30977251D01*
X23870500Y-30793616D01*
X23870500Y-30606384D01*
X24509500Y-30606384D01*
X24509500Y-30793615D01*
X24546025Y-30977244D01*
X24546027Y-30977251D01*
X24611496Y-31135308D01*
X24617678Y-31150231D01*
X24721698Y-31305908D01*
X24854092Y-31438302D01*
X25009769Y-31542322D01*
X25182749Y-31613973D01*
X25366384Y-31650500D01*
X25366385Y-31650500D01*
X25553615Y-31650500D01*
X25553616Y-31650500D01*
X25737251Y-31613973D01*
X25910231Y-31542322D01*
X26065908Y-31438302D01*
X26198302Y-31305908D01*
X26302322Y-31150231D01*
X26373973Y-30977251D01*
X26410500Y-30793616D01*
X26410500Y-30606384D01*
X27049500Y-30606384D01*
X27049500Y-30793615D01*
X27086025Y-30977244D01*
X27086027Y-30977251D01*
X27151496Y-31135308D01*
X27157678Y-31150231D01*
X27261698Y-31305908D01*
X27394092Y-31438302D01*
X27549769Y-31542322D01*
X27722749Y-31613973D01*
X27906384Y-31650500D01*
X27906385Y-31650500D01*
X28093615Y-31650500D01*
X28093616Y-31650500D01*
X28277251Y-31613973D01*
X28331300Y-31591585D01*
X28387936Y-31591585D01*
X28411944Y-31607626D01*
X35091080Y-38286762D01*
X35112754Y-38339088D01*
X35091080Y-38391414D01*
X35038754Y-38413088D01*
X35019602Y-38410567D01*
X34931275Y-38386900D01*
X34786325Y-38386900D01*
X34786323Y-38386900D01*
X34646318Y-38424414D01*
X34646313Y-38424416D01*
X34520784Y-38496891D01*
X34418291Y-38599384D01*
X34345816Y-38724913D01*
X34345814Y-38724918D01*
X34308300Y-38864922D01*
X34308300Y-39009877D01*
X34345814Y-39149881D01*
X34345816Y-39149886D01*
X34401258Y-39245913D01*
X34418291Y-39275415D01*
X34520785Y-39377909D01*
X34646315Y-39450384D01*
X34646316Y-39450384D01*
X34646318Y-39450385D01*
X34716320Y-39469142D01*
X34786322Y-39487899D01*
X34786323Y-39487900D01*
X34786325Y-39487900D01*
X34931277Y-39487900D01*
X34931277Y-39487899D01*
X35071285Y-39450384D01*
X35196815Y-39377909D01*
X35299309Y-39275415D01*
X35371784Y-39149885D01*
X35409299Y-39009877D01*
X35409300Y-39009877D01*
X35409300Y-38864923D01*
X35409299Y-38864922D01*
X35385633Y-38776598D01*
X35393025Y-38720445D01*
X35437958Y-38685967D01*
X35494111Y-38693359D01*
X35509437Y-38705119D01*
X38152826Y-41348508D01*
X38174500Y-41400834D01*
X38174500Y-42470500D01*
X38152826Y-42522826D01*
X38100500Y-42544500D01*
X37668480Y-42544500D01*
X37574695Y-42559353D01*
X37574693Y-42559354D01*
X37461657Y-42616950D01*
X37371951Y-42706656D01*
X37314353Y-42819698D01*
X37299500Y-42913480D01*
X37299500Y-43276519D01*
X37314353Y-43370304D01*
X37314354Y-43370306D01*
X37371948Y-43483339D01*
X37371950Y-43483342D01*
X37461658Y-43573050D01*
X37574696Y-43630646D01*
X37668481Y-43645500D01*
X39381518Y-43645499D01*
X39381519Y-43645499D01*
X39475304Y-43630646D01*
X39475306Y-43630645D01*
X39477419Y-43629568D01*
X39588342Y-43573050D01*
X39678050Y-43483342D01*
X39735646Y-43370304D01*
X39750500Y-43276519D01*
X39750499Y-42913482D01*
X39747991Y-42897648D01*
X39735646Y-42819695D01*
X39735645Y-42819693D01*
X39683488Y-42717331D01*
X39678050Y-42706658D01*
X39678048Y-42706656D01*
X39674626Y-42701945D01*
X39677010Y-42700212D01*
X39659160Y-42657116D01*
X39680834Y-42604790D01*
X39703142Y-42582482D01*
X39753009Y-42532615D01*
X39825484Y-42407085D01*
X39862999Y-42267077D01*
X39863000Y-42267077D01*
X39863000Y-42122123D01*
X39862999Y-42122122D01*
X39861569Y-42116787D01*
X39843151Y-42048050D01*
X39825485Y-41982118D01*
X39825483Y-41982113D01*
X39770980Y-41887712D01*
X39753009Y-41856585D01*
X39650515Y-41754091D01*
X39611430Y-41731525D01*
X39524986Y-41681616D01*
X39524981Y-41681614D01*
X39384977Y-41644100D01*
X39384975Y-41644100D01*
X39240025Y-41644100D01*
X39240023Y-41644100D01*
X39100018Y-41681614D01*
X39100013Y-41681616D01*
X38986500Y-41747154D01*
X38930347Y-41754547D01*
X38885414Y-41720068D01*
X38875500Y-41683068D01*
X38875500Y-41178854D01*
X38875499Y-41178853D01*
X38851615Y-41089715D01*
X38851614Y-41089714D01*
X38851614Y-41089712D01*
X38835374Y-41061584D01*
X38805470Y-41009788D01*
X28907626Y-31111944D01*
X28885952Y-31059618D01*
X28891585Y-31031299D01*
X28891875Y-31030600D01*
X28913973Y-30977251D01*
X28950500Y-30793616D01*
X28950500Y-30606384D01*
X28913973Y-30422749D01*
X28842322Y-30249769D01*
X28738302Y-30094092D01*
X28605908Y-29961698D01*
X28450231Y-29857678D01*
X28450228Y-29857676D01*
X28450227Y-29857676D01*
X28277251Y-29786027D01*
X28277244Y-29786025D01*
X28138902Y-29758507D01*
X28093616Y-29749500D01*
X27906384Y-29749500D01*
X27870056Y-29756725D01*
X27722755Y-29786025D01*
X27722748Y-29786027D01*
X27549772Y-29857676D01*
X27394092Y-29961697D01*
X27394091Y-29961699D01*
X27261699Y-30094091D01*
X27261697Y-30094092D01*
X27157676Y-30249772D01*
X27086027Y-30422748D01*
X27086025Y-30422755D01*
X27049500Y-30606384D01*
X26410500Y-30606384D01*
X26373973Y-30422749D01*
X26302322Y-30249769D01*
X26198302Y-30094092D01*
X26065908Y-29961698D01*
X25910231Y-29857678D01*
X25910228Y-29857676D01*
X25910227Y-29857676D01*
X25737251Y-29786027D01*
X25737244Y-29786025D01*
X25598902Y-29758507D01*
X25553616Y-29749500D01*
X25366384Y-29749500D01*
X25330056Y-29756725D01*
X25182755Y-29786025D01*
X25182748Y-29786027D01*
X25009772Y-29857676D01*
X24854092Y-29961697D01*
X24854091Y-29961699D01*
X24721699Y-30094091D01*
X24721697Y-30094092D01*
X24617676Y-30249772D01*
X24546027Y-30422748D01*
X24546025Y-30422755D01*
X24509500Y-30606384D01*
X23870500Y-30606384D01*
X23833973Y-30422749D01*
X23762322Y-30249769D01*
X23658302Y-30094092D01*
X23525908Y-29961698D01*
X23370231Y-29857678D01*
X23370228Y-29857676D01*
X23370227Y-29857676D01*
X23197251Y-29786027D01*
X23197244Y-29786025D01*
X23058902Y-29758507D01*
X23013616Y-29749500D01*
X22826384Y-29749500D01*
X22790056Y-29756725D01*
X22642755Y-29786025D01*
X22642748Y-29786027D01*
X22469770Y-29857677D01*
X22469768Y-29857678D01*
X22433911Y-29881637D01*
X22378362Y-29892686D01*
X22331271Y-29861219D01*
X22318800Y-29820108D01*
X22318800Y-16992354D01*
X22318799Y-16992353D01*
X22294915Y-16903215D01*
X22294913Y-16903210D01*
X22248771Y-16823291D01*
X22248770Y-16823290D01*
X22248769Y-16823288D01*
X22183512Y-16758031D01*
X21897991Y-16472510D01*
X21585674Y-16160192D01*
X21564000Y-16107866D01*
X21564000Y-12329854D01*
X21563999Y-12329853D01*
X21555520Y-12298210D01*
X21540114Y-12240712D01*
X21516320Y-12199500D01*
X21493970Y-12160788D01*
X20573212Y-11240030D01*
X20493289Y-11193886D01*
X20493284Y-11193884D01*
X20404146Y-11170000D01*
X20404144Y-11170000D01*
X19612488Y-11170000D01*
X19560162Y-11148326D01*
X19538488Y-11096000D01*
X19560162Y-11043674D01*
X19571371Y-11034474D01*
X19620289Y-11001789D01*
X19731789Y-10890289D01*
X19819394Y-10759179D01*
X19879737Y-10613497D01*
X19910500Y-10458842D01*
X19910500Y-10301158D01*
X19879737Y-10146503D01*
X19819394Y-10000821D01*
X19731789Y-9869711D01*
X19620289Y-9758211D01*
X19489179Y-9670606D01*
X19489175Y-9670604D01*
X19489173Y-9670603D01*
X19489174Y-9670603D01*
X19343501Y-9610264D01*
X19343491Y-9610261D01*
X19239925Y-9589661D01*
X19188842Y-9579500D01*
X19031158Y-9579500D01*
X18994328Y-9586826D01*
X18876508Y-9610261D01*
X18876498Y-9610264D01*
X18730825Y-9670603D01*
X18599711Y-9758210D01*
X18599710Y-9758212D01*
X18488212Y-9869710D01*
X18488210Y-9869711D01*
X18400603Y-10000825D01*
X18340264Y-10146498D01*
X18340261Y-10146508D01*
X18314580Y-10275616D01*
X18309500Y-10301158D01*
X18309500Y-10458842D01*
X18313734Y-10480127D01*
X18340261Y-10613491D01*
X18340264Y-10613501D01*
X18400603Y-10759174D01*
X18400605Y-10759177D01*
X18400606Y-10759179D01*
X18488211Y-10890289D01*
X18599711Y-11001789D01*
X18648624Y-11034472D01*
X18680090Y-11081563D01*
X18669041Y-11137112D01*
X18621949Y-11168578D01*
X18607512Y-11170000D01*
X15021254Y-11170000D01*
X14932115Y-11193884D01*
X14932110Y-11193886D01*
X14852187Y-11240030D01*
X13099392Y-12992826D01*
X13047066Y-13014500D01*
X12742679Y-13014500D01*
X12690353Y-12992826D01*
X12681835Y-12981104D01*
X12681472Y-12981368D01*
X12678050Y-12976658D01*
X12588343Y-12886951D01*
X12588342Y-12886950D01*
X12475304Y-12829354D01*
X12475302Y-12829353D01*
X12475301Y-12829353D01*
X12381519Y-12814500D01*
X10668480Y-12814500D01*
X10574695Y-12829353D01*
X10574693Y-12829354D01*
X10461657Y-12886950D01*
X10371951Y-12976656D01*
X10314353Y-13089698D01*
X10299500Y-13183480D01*
X10299500Y-13546519D01*
X10314353Y-13640304D01*
X10314354Y-13640306D01*
X10370307Y-13750117D01*
X10371950Y-13753342D01*
X10461658Y-13843050D01*
X10574696Y-13900646D01*
X10668481Y-13915500D01*
X12381518Y-13915499D01*
X12381519Y-13915499D01*
X12475304Y-13900646D01*
X12475306Y-13900645D01*
X12488683Y-13893829D01*
X12588342Y-13843050D01*
X12678050Y-13753342D01*
X12678051Y-13753338D01*
X12681472Y-13748632D01*
X12683516Y-13750117D01*
X12719822Y-13719119D01*
X12742679Y-13715500D01*
X13269046Y-13715500D01*
X13269046Y-13715499D01*
X13358188Y-13691614D01*
X13361439Y-13689737D01*
X13438112Y-13645470D01*
X15123175Y-11960406D01*
X15175500Y-11938733D01*
X15227826Y-11960407D01*
X15249500Y-12012733D01*
X15249500Y-12276519D01*
X15264353Y-12370304D01*
X15264355Y-12370310D01*
X15273415Y-12388091D01*
X15277858Y-12444553D01*
X15259806Y-12474010D01*
X13148530Y-14585287D01*
X13112397Y-14647872D01*
X13102387Y-14665209D01*
X13102384Y-14665216D01*
X13078500Y-14754353D01*
X13078500Y-17182666D01*
X13056826Y-17234992D01*
X9038992Y-21252826D01*
X8986666Y-21274500D01*
X8523869Y-21274500D01*
X8467978Y-21280509D01*
X8467973Y-21280510D01*
X8341551Y-21327662D01*
X8341550Y-21327663D01*
X8233528Y-21408528D01*
X8152663Y-21516550D01*
X8152662Y-21516551D01*
X8105510Y-21642973D01*
X8105509Y-21642978D01*
X8099500Y-21698869D01*
X7949487Y-21698869D01*
X7939988Y-21619773D01*
X7887676Y-21487117D01*
X7801509Y-21373490D01*
X7687882Y-21287323D01*
X7555226Y-21235011D01*
X7471863Y-21225000D01*
X7412500Y-21225000D01*
X7412500Y-21800000D01*
X7012500Y-21800000D01*
X7012500Y-21207633D01*
X7034173Y-21155308D01*
X11712308Y-16477172D01*
X11764634Y-16455499D01*
X12381519Y-16455499D01*
X12475304Y-16440646D01*
X12475306Y-16440645D01*
X12477419Y-16439568D01*
X12588342Y-16383050D01*
X12678050Y-16293342D01*
X12735646Y-16180304D01*
X12750500Y-16086519D01*
X12750499Y-15723482D01*
X12745750Y-15693497D01*
X12735646Y-15629695D01*
X12735645Y-15629693D01*
X12679694Y-15519885D01*
X12678050Y-15516658D01*
X12588342Y-15426950D01*
X12475304Y-15369354D01*
X12475302Y-15369353D01*
X12475301Y-15369353D01*
X12381519Y-15354500D01*
X10668480Y-15354500D01*
X10574695Y-15369353D01*
X10574693Y-15369354D01*
X10461657Y-15426950D01*
X10371951Y-15516656D01*
X10314353Y-15629698D01*
X10299500Y-15723480D01*
X10299500Y-16086519D01*
X10314353Y-16180304D01*
X10314354Y-16180306D01*
X10355216Y-16260500D01*
X10371950Y-16293342D01*
X10461658Y-16383050D01*
X10574696Y-16440646D01*
X10585677Y-16442385D01*
X10589034Y-16442917D01*
X10637325Y-16472510D01*
X10650547Y-16527582D01*
X10629784Y-16568332D01*
X9911526Y-17286590D01*
X9859200Y-17308264D01*
X9806874Y-17286590D01*
X9795114Y-17271264D01*
X9776709Y-17239385D01*
X9708374Y-17171050D01*
X9686700Y-17118724D01*
X9686700Y-14935052D01*
X9708374Y-14882726D01*
X9716343Y-14875820D01*
X9807546Y-14807546D01*
X9893796Y-14692331D01*
X9894568Y-14690263D01*
X9933720Y-14585288D01*
X9944091Y-14557483D01*
X9950500Y-14497873D01*
X9950500Y-14453480D01*
X10299500Y-14453480D01*
X10299500Y-14816519D01*
X10314353Y-14910304D01*
X10314354Y-14910306D01*
X10366315Y-15012282D01*
X10371950Y-15023342D01*
X10461658Y-15113050D01*
X10574696Y-15170646D01*
X10668481Y-15185500D01*
X12381518Y-15185499D01*
X12381519Y-15185499D01*
X12475304Y-15170646D01*
X12475306Y-15170645D01*
X12477419Y-15169568D01*
X12588342Y-15113050D01*
X12678050Y-15023342D01*
X12735646Y-14910304D01*
X12750500Y-14816519D01*
X12750499Y-14453482D01*
X12750038Y-14450574D01*
X12735646Y-14359695D01*
X12735645Y-14359693D01*
X12678049Y-14246657D01*
X12588343Y-14156951D01*
X12588342Y-14156950D01*
X12475304Y-14099354D01*
X12475302Y-14099353D01*
X12475301Y-14099353D01*
X12381519Y-14084500D01*
X10668480Y-14084500D01*
X10574695Y-14099353D01*
X10574693Y-14099354D01*
X10461657Y-14156950D01*
X10371951Y-14246656D01*
X10314353Y-14359698D01*
X10299500Y-14453480D01*
X9950500Y-14453480D01*
X9950499Y-11913480D01*
X10299500Y-11913480D01*
X10299500Y-12276519D01*
X10314353Y-12370304D01*
X10314354Y-12370306D01*
X10352186Y-12444553D01*
X10371950Y-12483342D01*
X10461658Y-12573050D01*
X10574696Y-12630646D01*
X10668481Y-12645500D01*
X12381518Y-12645499D01*
X12381519Y-12645499D01*
X12475304Y-12630646D01*
X12475306Y-12630645D01*
X12477419Y-12629568D01*
X12588342Y-12573050D01*
X12678050Y-12483342D01*
X12735646Y-12370304D01*
X12750500Y-12276519D01*
X12750499Y-11913482D01*
X12750038Y-11910574D01*
X12735646Y-11819695D01*
X12735645Y-11819693D01*
X12678049Y-11706657D01*
X12588343Y-11616951D01*
X12588342Y-11616950D01*
X12475304Y-11559354D01*
X12475302Y-11559353D01*
X12475301Y-11559353D01*
X12381519Y-11544500D01*
X10668480Y-11544500D01*
X10574695Y-11559353D01*
X10574693Y-11559354D01*
X10461657Y-11616950D01*
X10371951Y-11706656D01*
X10314353Y-11819698D01*
X10299500Y-11913480D01*
X9950499Y-11913480D01*
X9950499Y-11502128D01*
X9944091Y-11442517D01*
X9933227Y-11413388D01*
X9893797Y-11307670D01*
X9893796Y-11307669D01*
X9844861Y-11242301D01*
X9807546Y-11192454D01*
X9692331Y-11106204D01*
X9692330Y-11106203D01*
X9692329Y-11106202D01*
X9557487Y-11055910D01*
X9557484Y-11055909D01*
X9557483Y-11055909D01*
X9497873Y-11049500D01*
X8777126Y-11049500D01*
X8717514Y-11055909D01*
X8582670Y-11106202D01*
X8582669Y-11106203D01*
X8467454Y-11192454D01*
X8381203Y-11307669D01*
X8381202Y-11307670D01*
X8330910Y-11442512D01*
X8330909Y-11442517D01*
X8324500Y-11502126D01*
X8324500Y-14497873D01*
X8330909Y-14557485D01*
X8381202Y-14692329D01*
X8381203Y-14692330D01*
X8381204Y-14692331D01*
X8467454Y-14807546D01*
X8582669Y-14893796D01*
X8582670Y-14893797D01*
X8663669Y-14924007D01*
X8717517Y-14944091D01*
X8777127Y-14950500D01*
X8911699Y-14950499D01*
X8964026Y-14972173D01*
X8985700Y-15024498D01*
X8985700Y-17118724D01*
X8964026Y-17171050D01*
X8895691Y-17239384D01*
X8823216Y-17364913D01*
X8823214Y-17364918D01*
X8785700Y-17504922D01*
X8785700Y-17649877D01*
X8823214Y-17789881D01*
X8823216Y-17789886D01*
X8824543Y-17792184D01*
X8895691Y-17915415D01*
X8998185Y-18017909D01*
X9030064Y-18036314D01*
X9064542Y-18081247D01*
X9057150Y-18137400D01*
X9045390Y-18152726D01*
X6201730Y-20996387D01*
X6155586Y-21076310D01*
X6155584Y-21076315D01*
X6131700Y-21165453D01*
X6131700Y-26327146D01*
X6155205Y-26414867D01*
X6155206Y-26414880D01*
X6155209Y-26414880D01*
X6155211Y-26414887D01*
X6155586Y-26416288D01*
X6189195Y-26474500D01*
X6201730Y-26496212D01*
X7597826Y-27892308D01*
X7619500Y-27944634D01*
X7619500Y-28195002D01*
X7634818Y-28291715D01*
X7694211Y-28408281D01*
X7708604Y-28422674D01*
X7730278Y-28475000D01*
X7708604Y-28527326D01*
X7694211Y-28541718D01*
X7634817Y-28658285D01*
X7619500Y-28754995D01*
X7619500Y-29145002D01*
X7634818Y-29241714D01*
X7634818Y-29241715D01*
X7694211Y-29358281D01*
X7786719Y-29450789D01*
X7903285Y-29510182D01*
X7999997Y-29525500D01*
X9300002Y-29525499D01*
X9396715Y-29510182D01*
X9513281Y-29450789D01*
X9605789Y-29358281D01*
X9665182Y-29241715D01*
X9680500Y-29145003D01*
X9680499Y-28754998D01*
X9665182Y-28658285D01*
X9605789Y-28541719D01*
X9591396Y-28527326D01*
X9569722Y-28475000D01*
X9591396Y-28422674D01*
X9591896Y-28422174D01*
X9605789Y-28408281D01*
X9665182Y-28291715D01*
X9680500Y-28195003D01*
X9680499Y-27941633D01*
X9702173Y-27889308D01*
X9754499Y-27867634D01*
X9779060Y-27871829D01*
X10270062Y-28044589D01*
X10312227Y-28082401D01*
X10319500Y-28114392D01*
X10319500Y-28195002D01*
X10334818Y-28291715D01*
X10394211Y-28408281D01*
X10408604Y-28422674D01*
X10430278Y-28475000D01*
X10408604Y-28527326D01*
X10394211Y-28541718D01*
X10334817Y-28658285D01*
X10319500Y-28754995D01*
X10319500Y-29145002D01*
X10334818Y-29241714D01*
X10334818Y-29241715D01*
X10394211Y-29358281D01*
X10486719Y-29450789D01*
X10603285Y-29510182D01*
X10699997Y-29525500D01*
X10875500Y-29525499D01*
X10927826Y-29547173D01*
X10949500Y-29599499D01*
X10949500Y-32552729D01*
X10976791Y-32654582D01*
X10976792Y-32654585D01*
X10976793Y-32654587D01*
X11029520Y-32745913D01*
X11104087Y-32820480D01*
X11195413Y-32873207D01*
X11297270Y-32900499D01*
X11297271Y-32900500D01*
X11297273Y-32900500D01*
X11402727Y-32900500D01*
X15725500Y-32900500D01*
X15777826Y-32922174D01*
X15799500Y-32974500D01*
X15799500Y-35082286D01*
X15777826Y-35134612D01*
X15725500Y-35156286D01*
X15688501Y-35146372D01*
X15654595Y-35126796D01*
X15654582Y-35126791D01*
X15552729Y-35099500D01*
X15552727Y-35099500D01*
X14949500Y-35099500D01*
X14897174Y-35077826D01*
X14875500Y-35025501D01*
X14875499Y-34900822D01*
X14869499Y-34855241D01*
X14869499Y-34855240D01*
X14822850Y-34755201D01*
X14744799Y-34677150D01*
X14644760Y-34630501D01*
X14644758Y-34630500D01*
X14611179Y-34626079D01*
X14599179Y-34624500D01*
X14599177Y-34624500D01*
X14453831Y-34624500D01*
X14401505Y-34602826D01*
X14379831Y-34550500D01*
X14382353Y-34531347D01*
X14400699Y-34462877D01*
X14400700Y-34462877D01*
X14400700Y-34317923D01*
X14400699Y-34317922D01*
X14363185Y-34177918D01*
X14363183Y-34177913D01*
X14340582Y-34138767D01*
X14290709Y-34052385D01*
X14188215Y-33949891D01*
X14062686Y-33877416D01*
X14062681Y-33877414D01*
X13922677Y-33839900D01*
X13922675Y-33839900D01*
X13777725Y-33839900D01*
X13777723Y-33839900D01*
X13637718Y-33877414D01*
X13637713Y-33877416D01*
X13512184Y-33949891D01*
X13409691Y-34052384D01*
X13337216Y-34177913D01*
X13337214Y-34177918D01*
X13299700Y-34317922D01*
X13299700Y-34323800D01*
X13278026Y-34376126D01*
X13225700Y-34397800D01*
X11993056Y-34397800D01*
X11929177Y-34414916D01*
X11929176Y-34414915D01*
X11903914Y-34421685D01*
X11903910Y-34421686D01*
X11823987Y-34467830D01*
X11688991Y-34602826D01*
X11636665Y-34624500D01*
X11400822Y-34624500D01*
X11355241Y-34630500D01*
X11355239Y-34630501D01*
X11255200Y-34677150D01*
X11177150Y-34755200D01*
X11130500Y-34855241D01*
X11124500Y-34900822D01*
X11124500Y-35099177D01*
X11130500Y-35144758D01*
X11130501Y-35144760D01*
X11177150Y-35244799D01*
X11255201Y-35322850D01*
X11355240Y-35369499D01*
X11400821Y-35375500D01*
X12174178Y-35375499D01*
X12219760Y-35369499D01*
X12319799Y-35322850D01*
X12397850Y-35244799D01*
X12444499Y-35144760D01*
X12444499Y-35144758D01*
X12446006Y-35141527D01*
X12487763Y-35103263D01*
X12513073Y-35098800D01*
X13486926Y-35098800D01*
X13499086Y-35103836D01*
X13512235Y-35103263D01*
X13524225Y-35114249D01*
X13539252Y-35120474D01*
X13553993Y-35141526D01*
X13589992Y-35218726D01*
X13592462Y-35275309D01*
X13589992Y-35281273D01*
X13555501Y-35355239D01*
X13555500Y-35355241D01*
X13549500Y-35400822D01*
X13549500Y-35599177D01*
X13555500Y-35644758D01*
X13555501Y-35644760D01*
X13602150Y-35744799D01*
X13680201Y-35822850D01*
X13780240Y-35869499D01*
X13825821Y-35875500D01*
X14054228Y-35875499D01*
X14055043Y-35875836D01*
X14073381Y-35878021D01*
X14157270Y-35900499D01*
X14157271Y-35900500D01*
X14157273Y-35900500D01*
X15025500Y-35900500D01*
X15077826Y-35922174D01*
X15099500Y-35974500D01*
X15099500Y-36028991D01*
X15077826Y-36081317D01*
X15025500Y-36102991D01*
X15006352Y-36100471D01*
X15002727Y-36099500D01*
X14159773Y-36099500D01*
X14075875Y-36121979D01*
X14059249Y-36124167D01*
X14058552Y-36124477D01*
X14058131Y-36124314D01*
X14056724Y-36124500D01*
X13825822Y-36124500D01*
X13780241Y-36130500D01*
X13780239Y-36130501D01*
X13680200Y-36177150D01*
X13602150Y-36255200D01*
X13555500Y-36355241D01*
X13549500Y-36400822D01*
X13549500Y-36599177D01*
X13555500Y-36644758D01*
X13555501Y-36644761D01*
X13589992Y-36718726D01*
X13590141Y-36722158D01*
X13592462Y-36724690D01*
X13591357Y-36749999D01*
X13592462Y-36775309D01*
X13589992Y-36781273D01*
X13580913Y-36800744D01*
X13555501Y-36855240D01*
X13555500Y-36855241D01*
X13553994Y-36858473D01*
X13512237Y-36896737D01*
X13486927Y-36901200D01*
X12513074Y-36901200D01*
X12460748Y-36879526D01*
X12446007Y-36858474D01*
X12425402Y-36814287D01*
X12397850Y-36755201D01*
X12319799Y-36677150D01*
X12219760Y-36630501D01*
X12219758Y-36630500D01*
X12186179Y-36626079D01*
X12174179Y-36624500D01*
X12174177Y-36624500D01*
X11535100Y-36624500D01*
X11482774Y-36602826D01*
X11461100Y-36550500D01*
X11461100Y-36449499D01*
X11482774Y-36397173D01*
X11535100Y-36375499D01*
X12174178Y-36375499D01*
X12219760Y-36369499D01*
X12319799Y-36322850D01*
X12397850Y-36244799D01*
X12444499Y-36144760D01*
X12450500Y-36099179D01*
X12450499Y-35900822D01*
X12444499Y-35855240D01*
X12397850Y-35755201D01*
X12319799Y-35677150D01*
X12219760Y-35630501D01*
X12219758Y-35630500D01*
X12186179Y-35626079D01*
X12174179Y-35624500D01*
X12174177Y-35624500D01*
X11400822Y-35624500D01*
X11355241Y-35630500D01*
X11355238Y-35630501D01*
X11310149Y-35651526D01*
X11298031Y-35655936D01*
X11232914Y-35673385D01*
X11232910Y-35673386D01*
X11152991Y-35719528D01*
X10830128Y-36042390D01*
X10796941Y-36099871D01*
X10796941Y-36099873D01*
X10783986Y-36122312D01*
X10783986Y-36122313D01*
X10783984Y-36122316D01*
X10760100Y-36211453D01*
X10760100Y-36797246D01*
X10774370Y-36850500D01*
X10780454Y-36873207D01*
X10783039Y-36882857D01*
X10783986Y-36886389D01*
X10830130Y-36966312D01*
X11144288Y-37280470D01*
X11211913Y-37319513D01*
X11224212Y-37326614D01*
X11311616Y-37350033D01*
X11313401Y-37350611D01*
X11313909Y-37351043D01*
X11321900Y-37353952D01*
X11355240Y-37369499D01*
X11400821Y-37375500D01*
X11636665Y-37375499D01*
X11688991Y-37397173D01*
X11823988Y-37532170D01*
X11903912Y-37578314D01*
X11903913Y-37578314D01*
X11903915Y-37578315D01*
X11948484Y-37590257D01*
X11993053Y-37602199D01*
X11993054Y-37602200D01*
X11993056Y-37602200D01*
X11993057Y-37602200D01*
X12085344Y-37602200D01*
X12630023Y-37602200D01*
X12682349Y-37623874D01*
X12701500Y-37657044D01*
X12709416Y-37686585D01*
X12781891Y-37812115D01*
X12884385Y-37914609D01*
X13009915Y-37987084D01*
X13009916Y-37987084D01*
X13009918Y-37987085D01*
X13079920Y-38005842D01*
X13149922Y-38024599D01*
X13149923Y-38024600D01*
X13149925Y-38024600D01*
X13294877Y-38024600D01*
X13294877Y-38024599D01*
X13434885Y-37987084D01*
X13560415Y-37914609D01*
X13662909Y-37812115D01*
X13735384Y-37686585D01*
X13743299Y-37657045D01*
X13777777Y-37612114D01*
X13814777Y-37602200D01*
X14006946Y-37602200D01*
X14006946Y-37602199D01*
X14096088Y-37578314D01*
X14176012Y-37532170D01*
X14311008Y-37397172D01*
X14363334Y-37375499D01*
X14475500Y-37375499D01*
X14527826Y-37397173D01*
X14549500Y-37449499D01*
X14549500Y-38525500D01*
X14527826Y-38577826D01*
X14475500Y-38599500D01*
X7537000Y-38599500D01*
X7484674Y-38577826D01*
X7463000Y-38525500D01*
X7463000Y-36865666D01*
X7484674Y-36813340D01*
X7504281Y-36800744D01*
X7503805Y-36799872D01*
X7508443Y-36797338D01*
X7508450Y-36797336D01*
X7616472Y-36716472D01*
X7697336Y-36608450D01*
X7698281Y-36605918D01*
X7720405Y-36546600D01*
X7744491Y-36482022D01*
X7750500Y-36426130D01*
X7750500Y-35573870D01*
X7744491Y-35517978D01*
X7721665Y-35456778D01*
X7697337Y-35391551D01*
X7697336Y-35391550D01*
X7684573Y-35374501D01*
X7616472Y-35283528D01*
X7508450Y-35202664D01*
X7508449Y-35202663D01*
X7508448Y-35202662D01*
X7382026Y-35155510D01*
X7382023Y-35155509D01*
X7382022Y-35155509D01*
X7354076Y-35152504D01*
X7326131Y-35149500D01*
X7326130Y-35149500D01*
X6798870Y-35149500D01*
X6798869Y-35149500D01*
X6742978Y-35155509D01*
X6742973Y-35155510D01*
X6616551Y-35202662D01*
X6616550Y-35202663D01*
X6508528Y-35283528D01*
X6427663Y-35391550D01*
X6427662Y-35391551D01*
X6380510Y-35517973D01*
X6380509Y-35517978D01*
X6374500Y-35573869D01*
X6374500Y-36426130D01*
X6380509Y-36482021D01*
X6380510Y-36482026D01*
X6427662Y-36608448D01*
X6427663Y-36608449D01*
X6427664Y-36608450D01*
X6508528Y-36716472D01*
X6616550Y-36797336D01*
X6616553Y-36797337D01*
X6621195Y-36799872D01*
X6620001Y-36802058D01*
X6655302Y-36834901D01*
X6662000Y-36865666D01*
X6662000Y-39052729D01*
X6689291Y-39154582D01*
X6689292Y-39154585D01*
X6689293Y-39154587D01*
X6742020Y-39245913D01*
X6816587Y-39320480D01*
X6907913Y-39373207D01*
X7009770Y-39400499D01*
X7009771Y-39400500D01*
X7009773Y-39400500D01*
X15002727Y-39400500D01*
X15006342Y-39399531D01*
X15062495Y-39406919D01*
X15096977Y-39451850D01*
X15099500Y-39471008D01*
X15099500Y-40025500D01*
X15077826Y-40077826D01*
X15025500Y-40099500D01*
X2474500Y-40099500D01*
X2422174Y-40077826D01*
X2400500Y-40025500D01*
X2400500Y-33474500D01*
X2422174Y-33422174D01*
X2474500Y-33400500D01*
X4463000Y-33400500D01*
X4515326Y-33422174D01*
X4537000Y-33474500D01*
X4537000Y-35134332D01*
X4515326Y-35186658D01*
X4495720Y-35199260D01*
X4496194Y-35200128D01*
X4491550Y-35202663D01*
X4383528Y-35283528D01*
X4302663Y-35391550D01*
X4302662Y-35391551D01*
X4255510Y-35517973D01*
X4255509Y-35517978D01*
X4249500Y-35573869D01*
X4249500Y-36426130D01*
X4255509Y-36482021D01*
X4255510Y-36482026D01*
X4302662Y-36608448D01*
X4302663Y-36608449D01*
X4302664Y-36608450D01*
X4383528Y-36716472D01*
X4491427Y-36797244D01*
X4491550Y-36797336D01*
X4491551Y-36797337D01*
X4592266Y-36834901D01*
X4617978Y-36844491D01*
X4668443Y-36849916D01*
X4673869Y-36850500D01*
X4673870Y-36850500D01*
X5201131Y-36850500D01*
X5206076Y-36849968D01*
X5257022Y-36844491D01*
X5376651Y-36799872D01*
X5383448Y-36797337D01*
X5383448Y-36797336D01*
X5383450Y-36797336D01*
X5491472Y-36716472D01*
X5572336Y-36608450D01*
X5573281Y-36605918D01*
X5595405Y-36546600D01*
X5619491Y-36482022D01*
X5625500Y-36426130D01*
X5625500Y-35573870D01*
X5619491Y-35517978D01*
X5596665Y-35456778D01*
X5572337Y-35391551D01*
X5572336Y-35391550D01*
X5559573Y-35374501D01*
X5491472Y-35283528D01*
X5383450Y-35202664D01*
X5383449Y-35202663D01*
X5378806Y-35200128D01*
X5379994Y-35197951D01*
X5344679Y-35165054D01*
X5338000Y-35134332D01*
X5338000Y-32947271D01*
X5337999Y-32947270D01*
X5318154Y-32873208D01*
X5310707Y-32845413D01*
X5257980Y-32754087D01*
X5183413Y-32679520D01*
X5128623Y-32647887D01*
X5092091Y-32626795D01*
X5092082Y-32626791D01*
X4990229Y-32599500D01*
X4990227Y-32599500D01*
X2052727Y-32599500D01*
X1947273Y-32599500D01*
X1947271Y-32599500D01*
X1845417Y-32626791D01*
X1845408Y-32626795D01*
X1754086Y-32679520D01*
X1679520Y-32754086D01*
X1626795Y-32845408D01*
X1626791Y-32845417D01*
X1599500Y-32947270D01*
X500500Y-32947270D01*
X500500Y-18393711D01*
X4489500Y-18393711D01*
X4489500Y-18606288D01*
X4522753Y-18816240D01*
X4522756Y-18816253D01*
X4588440Y-19018406D01*
X4684948Y-19207816D01*
X4761475Y-19313146D01*
X4809896Y-19379792D01*
X4960208Y-19530104D01*
X5045854Y-19592329D01*
X5132183Y-19655051D01*
X5223474Y-19701565D01*
X5321588Y-19751557D01*
X5321590Y-19751557D01*
X5321593Y-19751559D01*
X5523746Y-19817243D01*
X5523752Y-19817244D01*
X5523757Y-19817246D01*
X5628735Y-19833873D01*
X5733711Y-19850500D01*
X5733713Y-19850500D01*
X5946289Y-19850500D01*
X6030269Y-19837198D01*
X6156243Y-19817246D01*
X6156250Y-19817243D01*
X6156253Y-19817243D01*
X6358406Y-19751559D01*
X6358406Y-19751558D01*
X6358412Y-19751557D01*
X6547816Y-19655051D01*
X6719792Y-19530104D01*
X6870104Y-19379792D01*
X6995051Y-19207816D01*
X7091557Y-19018412D01*
X7155278Y-18822301D01*
X7157243Y-18816253D01*
X7157243Y-18816250D01*
X7157246Y-18816243D01*
X7190500Y-18606287D01*
X7190500Y-18393713D01*
X7188197Y-18379174D01*
X7157246Y-18183759D01*
X7157243Y-18183746D01*
X7091559Y-17981593D01*
X7091557Y-17981590D01*
X7091557Y-17981588D01*
X7041565Y-17883474D01*
X6995051Y-17792183D01*
X6900237Y-17661683D01*
X6870104Y-17620208D01*
X6719792Y-17469896D01*
X6634145Y-17407670D01*
X6547816Y-17344948D01*
X6358406Y-17248440D01*
X6156253Y-17182756D01*
X6156240Y-17182753D01*
X5946289Y-17149500D01*
X5946287Y-17149500D01*
X5733713Y-17149500D01*
X5733711Y-17149500D01*
X5523759Y-17182753D01*
X5523746Y-17182756D01*
X5321593Y-17248440D01*
X5132183Y-17344948D01*
X4960212Y-17469893D01*
X4960208Y-17469896D01*
X4809896Y-17620208D01*
X4809893Y-17620211D01*
X4809893Y-17620212D01*
X4684948Y-17792183D01*
X4588440Y-17981593D01*
X4522756Y-18183746D01*
X4522753Y-18183759D01*
X4489500Y-18393711D01*
X500500Y-18393711D01*
X500500Y-15785422D01*
X3786400Y-15785422D01*
X3786400Y-15930377D01*
X3823914Y-16070381D01*
X3823916Y-16070386D01*
X3864051Y-16139901D01*
X3896391Y-16195915D01*
X3998885Y-16298409D01*
X4124415Y-16370884D01*
X4124416Y-16370884D01*
X4124418Y-16370885D01*
X4194420Y-16389642D01*
X4264422Y-16408399D01*
X4264423Y-16408400D01*
X4264425Y-16408400D01*
X4409377Y-16408400D01*
X4409377Y-16408399D01*
X4549385Y-16370884D01*
X4674915Y-16298409D01*
X4777409Y-16195915D01*
X4849884Y-16070385D01*
X4887399Y-15930377D01*
X4887400Y-15930377D01*
X4887400Y-15785423D01*
X4887399Y-15785422D01*
X4849885Y-15645418D01*
X4849883Y-15645413D01*
X4788354Y-15538842D01*
X4777409Y-15519885D01*
X4709074Y-15451550D01*
X4687400Y-15399224D01*
X4687400Y-15024499D01*
X4709074Y-14972173D01*
X4761400Y-14950499D01*
X5222872Y-14950499D01*
X5282483Y-14944091D01*
X5349907Y-14918943D01*
X5417329Y-14893797D01*
X5417329Y-14893796D01*
X5417331Y-14893796D01*
X5532546Y-14807546D01*
X5618796Y-14692331D01*
X5619568Y-14690263D01*
X5658720Y-14585288D01*
X5669091Y-14557483D01*
X5675500Y-14497873D01*
X5675499Y-11502128D01*
X5669091Y-11442517D01*
X5658227Y-11413388D01*
X5618797Y-11307670D01*
X5618796Y-11307669D01*
X5569861Y-11242301D01*
X5532546Y-11192454D01*
X5417331Y-11106204D01*
X5417330Y-11106203D01*
X5417329Y-11106202D01*
X5282487Y-11055910D01*
X5282484Y-11055909D01*
X5282483Y-11055909D01*
X5222873Y-11049500D01*
X4502126Y-11049500D01*
X4442514Y-11055909D01*
X4307670Y-11106202D01*
X4307669Y-11106203D01*
X4192454Y-11192454D01*
X4106203Y-11307669D01*
X4106202Y-11307670D01*
X4055910Y-11442512D01*
X4055909Y-11442517D01*
X4049500Y-11502126D01*
X4049500Y-13302563D01*
X4039586Y-13339561D01*
X4022201Y-13369674D01*
X4016715Y-13379177D01*
X4010285Y-13390312D01*
X4010284Y-13390315D01*
X3986400Y-13479453D01*
X3986400Y-15399224D01*
X3964726Y-15451550D01*
X3896391Y-15519884D01*
X3823916Y-15645413D01*
X3823914Y-15645418D01*
X3786400Y-15785422D01*
X500500Y-15785422D01*
X500500Y-5897646D01*
X5699500Y-5897646D01*
X5699500Y-6102353D01*
X5731522Y-6304531D01*
X5731525Y-6304544D01*
X5794777Y-6499213D01*
X5887712Y-6681610D01*
X5961406Y-6783040D01*
X6008034Y-6847219D01*
X6152781Y-6991966D01*
X6244695Y-7058745D01*
X6318389Y-7112287D01*
X6406300Y-7157079D01*
X6500781Y-7205220D01*
X6500783Y-7205220D01*
X6500786Y-7205222D01*
X6695455Y-7268474D01*
X6695461Y-7268475D01*
X6695466Y-7268477D01*
X6751519Y-7277355D01*
X6897646Y-7300500D01*
X6897648Y-7300500D01*
X7102354Y-7300500D01*
X7183224Y-7287690D01*
X7304534Y-7268477D01*
X7304541Y-7268474D01*
X7304544Y-7268474D01*
X7499213Y-7205222D01*
X7499213Y-7205221D01*
X7499219Y-7205220D01*
X7681610Y-7112287D01*
X7847219Y-6991966D01*
X7991966Y-6847219D01*
X8112287Y-6681610D01*
X8205220Y-6499219D01*
X8268477Y-6304534D01*
X8300500Y-6102352D01*
X8300500Y-5897648D01*
X8300500Y-5897646D01*
X46699500Y-5897646D01*
X46699500Y-6102353D01*
X46731522Y-6304531D01*
X46731525Y-6304544D01*
X46794777Y-6499213D01*
X46887712Y-6681610D01*
X46961406Y-6783040D01*
X47008034Y-6847219D01*
X47152781Y-6991966D01*
X47244695Y-7058745D01*
X47318389Y-7112287D01*
X47406300Y-7157079D01*
X47500781Y-7205220D01*
X47500783Y-7205220D01*
X47500786Y-7205222D01*
X47695455Y-7268474D01*
X47695461Y-7268475D01*
X47695466Y-7268477D01*
X47751519Y-7277355D01*
X47897646Y-7300500D01*
X47897648Y-7300500D01*
X48102354Y-7300500D01*
X48183224Y-7287690D01*
X48304534Y-7268477D01*
X48304541Y-7268474D01*
X48304544Y-7268474D01*
X48499213Y-7205222D01*
X48499213Y-7205221D01*
X48499219Y-7205220D01*
X48681610Y-7112287D01*
X48847219Y-6991966D01*
X48991966Y-6847219D01*
X49112287Y-6681610D01*
X49205220Y-6499219D01*
X49268477Y-6304534D01*
X49300500Y-6102352D01*
X49300500Y-5897648D01*
X49268477Y-5695466D01*
X49268475Y-5695461D01*
X49268474Y-5695455D01*
X49205222Y-5500786D01*
X49205220Y-5500783D01*
X49205220Y-5500781D01*
X49157079Y-5406300D01*
X49112287Y-5318389D01*
X49058745Y-5244695D01*
X48991966Y-5152781D01*
X48847219Y-5008034D01*
X48771172Y-4952783D01*
X48681610Y-4887712D01*
X48499213Y-4794777D01*
X48304544Y-4731525D01*
X48304531Y-4731522D01*
X48102354Y-4699500D01*
X48102352Y-4699500D01*
X47897648Y-4699500D01*
X47897646Y-4699500D01*
X47695468Y-4731522D01*
X47695455Y-4731525D01*
X47500786Y-4794777D01*
X47318389Y-4887712D01*
X47162877Y-5000699D01*
X47152781Y-5008034D01*
X47008034Y-5152781D01*
X47008031Y-5152784D01*
X47008031Y-5152785D01*
X46887712Y-5318389D01*
X46794777Y-5500786D01*
X46731525Y-5695455D01*
X46731522Y-5695468D01*
X46699500Y-5897646D01*
X8300500Y-5897646D01*
X8268477Y-5695466D01*
X8268475Y-5695461D01*
X8268474Y-5695455D01*
X8205222Y-5500786D01*
X8205220Y-5500783D01*
X8205220Y-5500781D01*
X8157079Y-5406300D01*
X8112287Y-5318389D01*
X8058745Y-5244695D01*
X7991966Y-5152781D01*
X7847219Y-5008034D01*
X7771172Y-4952783D01*
X7681610Y-4887712D01*
X7499213Y-4794777D01*
X7304544Y-4731525D01*
X7304531Y-4731522D01*
X7102354Y-4699500D01*
X7102352Y-4699500D01*
X6897648Y-4699500D01*
X6897646Y-4699500D01*
X6695468Y-4731522D01*
X6695455Y-4731525D01*
X6500786Y-4794777D01*
X6318389Y-4887712D01*
X6162877Y-5000699D01*
X6152781Y-5008034D01*
X6008034Y-5152781D01*
X6008031Y-5152784D01*
X6008031Y-5152785D01*
X5887712Y-5318389D01*
X5794777Y-5500786D01*
X5731525Y-5695455D01*
X5731522Y-5695468D01*
X5699500Y-5897646D01*
X500500Y-5897646D01*
X500500Y-3822828D01*
X26475000Y-3822828D01*
X26481402Y-3882375D01*
X26481403Y-3882380D01*
X26531645Y-4017087D01*
X26531646Y-4017088D01*
X26617811Y-4132188D01*
X26732911Y-4218353D01*
X26732912Y-4218354D01*
X26867619Y-4268596D01*
X26867624Y-4268597D01*
X26927171Y-4275000D01*
X26975000Y-4275000D01*
X27375000Y-4275000D01*
X27422829Y-4275000D01*
X27482375Y-4268597D01*
X27482380Y-4268596D01*
X27617087Y-4218354D01*
X27617088Y-4218353D01*
X27732188Y-4132188D01*
X27818353Y-4017088D01*
X27818354Y-4017087D01*
X27868596Y-3882380D01*
X27868597Y-3882375D01*
X27875000Y-3822828D01*
X27875000Y-3700000D01*
X27375000Y-3700000D01*
X27375000Y-4275000D01*
X26975000Y-4275000D01*
X26975000Y-3700000D01*
X26475000Y-3700000D01*
X26475000Y-3822828D01*
X500500Y-3822828D01*
X500500Y-3177171D01*
X26475000Y-3177171D01*
X26475000Y-3300000D01*
X26975000Y-3300000D01*
X27375000Y-3300000D01*
X27875000Y-3300000D01*
X27875000Y-3177170D01*
X27874974Y-3176929D01*
X27874975Y-3176922D01*
X27874972Y-3176914D01*
X27874308Y-3170734D01*
X28174500Y-3170734D01*
X28174500Y-3829266D01*
X28177354Y-3859699D01*
X28177354Y-3859701D01*
X28177355Y-3859704D01*
X28222206Y-3987881D01*
X28222207Y-3987883D01*
X28302845Y-4097144D01*
X28302849Y-4097149D01*
X28302850Y-4097150D01*
X28308765Y-4101515D01*
X28337996Y-4150027D01*
X28328909Y-4198053D01*
X28312017Y-4227311D01*
X28312014Y-4227318D01*
X28274500Y-4367322D01*
X28274500Y-4512277D01*
X28312014Y-4652281D01*
X28312016Y-4652286D01*
X28357764Y-4731523D01*
X28384491Y-4777815D01*
X28486985Y-4880309D01*
X28612515Y-4952784D01*
X28612516Y-4952784D01*
X28612518Y-4952785D01*
X28682520Y-4971542D01*
X28752522Y-4990299D01*
X28752523Y-4990300D01*
X28752525Y-4990300D01*
X28897477Y-4990300D01*
X28897477Y-4990299D01*
X29037485Y-4952784D01*
X29163015Y-4880309D01*
X29265509Y-4777815D01*
X29337984Y-4652285D01*
X29375499Y-4512277D01*
X29375500Y-4512277D01*
X29375500Y-4367323D01*
X29375499Y-4367322D01*
X29337985Y-4227318D01*
X29337984Y-4227317D01*
X29337984Y-4227315D01*
X29321090Y-4198055D01*
X29313698Y-4141904D01*
X29341235Y-4101515D01*
X29347150Y-4097150D01*
X29427793Y-3987882D01*
X29472646Y-3859699D01*
X29475500Y-3829266D01*
X29475500Y-3170734D01*
X34174500Y-3170734D01*
X34174500Y-3829266D01*
X34177354Y-3859699D01*
X34177354Y-3859701D01*
X34177355Y-3859704D01*
X34222206Y-3987881D01*
X34222207Y-3987883D01*
X34302845Y-4097144D01*
X34302846Y-4097146D01*
X34302848Y-4097147D01*
X34302850Y-4097150D01*
X34312975Y-4104623D01*
X34342206Y-4153131D01*
X34333120Y-4201160D01*
X34312015Y-4237716D01*
X34274500Y-4377722D01*
X34274500Y-4522677D01*
X34312014Y-4662681D01*
X34312016Y-4662686D01*
X34384491Y-4788215D01*
X34486985Y-4890709D01*
X34612515Y-4963184D01*
X34612516Y-4963184D01*
X34612518Y-4963185D01*
X34682520Y-4981942D01*
X34752522Y-5000699D01*
X34752523Y-5000700D01*
X34752525Y-5000700D01*
X34897477Y-5000700D01*
X34897477Y-5000699D01*
X35037485Y-4963184D01*
X35163015Y-4890709D01*
X35265509Y-4788215D01*
X35337984Y-4662685D01*
X35375499Y-4522677D01*
X35375500Y-4522677D01*
X35375500Y-4377723D01*
X35375499Y-4377722D01*
X35337985Y-4237718D01*
X35337982Y-4237711D01*
X35316881Y-4201164D01*
X35309487Y-4145011D01*
X35337025Y-4104621D01*
X35347150Y-4097150D01*
X35427793Y-3987882D01*
X35472646Y-3859699D01*
X35475500Y-3829266D01*
X35475500Y-3170734D01*
X35472646Y-3140301D01*
X35427793Y-3012118D01*
X35427792Y-3012116D01*
X35347153Y-2902853D01*
X35347146Y-2902846D01*
X35237883Y-2822207D01*
X35237881Y-2822206D01*
X35109704Y-2777355D01*
X35109705Y-2777355D01*
X35109700Y-2777354D01*
X35109699Y-2777354D01*
X35079266Y-2774500D01*
X34570734Y-2774500D01*
X34540301Y-2777354D01*
X34540299Y-2777354D01*
X34540295Y-2777355D01*
X34412118Y-2822206D01*
X34412116Y-2822207D01*
X34302853Y-2902846D01*
X34302846Y-2902853D01*
X34222207Y-3012116D01*
X34222206Y-3012118D01*
X34177355Y-3140295D01*
X34177354Y-3140299D01*
X34177354Y-3140301D01*
X34174500Y-3170734D01*
X29475500Y-3170734D01*
X29472646Y-3140301D01*
X29427793Y-3012118D01*
X29427792Y-3012116D01*
X29347153Y-2902853D01*
X29347146Y-2902846D01*
X29237883Y-2822207D01*
X29237881Y-2822206D01*
X29109704Y-2777355D01*
X29109705Y-2777355D01*
X29109700Y-2777354D01*
X29109699Y-2777354D01*
X29079266Y-2774500D01*
X28570734Y-2774500D01*
X28540301Y-2777354D01*
X28540299Y-2777354D01*
X28540295Y-2777355D01*
X28412118Y-2822206D01*
X28412116Y-2822207D01*
X28302853Y-2902846D01*
X28302846Y-2902853D01*
X28222207Y-3012116D01*
X28222206Y-3012118D01*
X28177355Y-3140295D01*
X28177354Y-3140299D01*
X28177354Y-3140301D01*
X28174500Y-3170734D01*
X27874308Y-3170734D01*
X27868597Y-3117624D01*
X27868596Y-3117619D01*
X27818354Y-2982912D01*
X27818353Y-2982911D01*
X27732188Y-2867811D01*
X27617088Y-2781646D01*
X27617087Y-2781645D01*
X27482380Y-2731403D01*
X27482375Y-2731402D01*
X27422829Y-2725000D01*
X27375000Y-2725000D01*
X27375000Y-3300000D01*
X26975000Y-3300000D01*
X26975000Y-2725000D01*
X26927171Y-2725000D01*
X26867624Y-2731402D01*
X26867619Y-2731403D01*
X26732912Y-2781645D01*
X26732911Y-2781646D01*
X26617811Y-2867811D01*
X26531646Y-2982911D01*
X26531645Y-2982912D01*
X26481403Y-3117619D01*
X26481402Y-3117624D01*
X26475000Y-3177171D01*
X500500Y-3177171D01*
X500500Y-574500D01*
X522174Y-522174D01*
X574500Y-500500D01*
X55425500Y-500500D01*
X55477826Y-522174D01*
G37*
%TD.AperFunction*%
%TD*%
M02*
